<?xml version="1.0" encoding="UTF-8" standalone="no"?>
<svg width="77px" height="63px" viewBox="0 0 77 63" version="1.1" xmlns="http://www.w3.org/2000/svg" xmlns:xlink="http://www.w3.org/1999/xlink">
    <!-- Generator: Sketch 42 (36781) - http://www.bohemiancoding.com/sketch -->
    <title>Icon_Fichier 1Camera</title>
    <desc>Created with Sketch.</desc>
    <defs></defs>
    <g id="Page-1" stroke="none" stroke-width="1" fill="none" fill-rule="evenodd">
        <g id="FACEBOOK-ADS-:-inventaire" transform="translate(-475.000000, -386.000000)" fill-rule="nonzero" fill="#FFFFFF">
            <g id="Group-6-Copy" transform="translate(-243.000000, 2.000000)">
                <g id="Group" transform="translate(717.857143, 372.220588)">
                    <g id="Icon_Fichier-1Camera" transform="translate(0.232336, 12.478535)">
                        <g id="98a6a62d-7f0b-450c-b459-1456a1b1183d">
                            <g>
                                <g id="c2cb425f-19cc-4e47-882c-a840dd7d45c0">
                                    <path d="M71.389716,9.98162504 L68.1975371,9.98162504 L68.1975371,9.07113897 C68.1915746,7.00023093 66.5714277,5.32296166 64.5710481,5.31678901 L60.336525,5.31678901 C58.3361453,5.32296166 56.7159984,7.00023093 56.710036,9.07113897 L56.710036,9.98162504 L53.2789865,9.98162504 L49.4787735,1.95585896 C48.9704303,0.778566038 47.8470313,0.0149310482 46.6014694,-3.26405569e-16 L30.1519759,-3.26405569e-16 C28.906414,0.0149310482 27.7830149,0.778566038 27.2746717,1.95585896 L23.4744587,9.98162504 L19.3050821,9.98162504 L19.3050821,9.41959661 C19.3050821,7.5571982 17.8467279,6.04742598 16.0477567,6.04742598 L10.3040062,6.04742598 C8.50503499,6.04742598 7.04668071,7.5571982 7.04668071,9.41959661 L7.04668071,9.98162504 L5.36372923,9.98162504 C2.41193778,10.0181474 0.0293092134,12.4897747 0,15.5457066 L0,55.9218295 C0.0351641854,58.9733726 2.41611172,61.4382665 5.36372923,61.4746704 L71.3788582,61.4746704 C74.3264758,61.4382665 76.7074233,58.9733726 76.7425875,55.9218295 L76.7425875,15.5457066 C76.713396,12.4940872 74.3372648,10.0242002 71.389716,9.98162504 Z M59.2181766,9.07113897 C59.2181766,8.4503395 59.7042947,7.9470821 60.3039517,7.9470821 L64.5384748,7.9470821 C65.1381319,7.9470821 65.62425,8.4503395 65.62425,9.07113897 L65.62425,9.98162504 L59.1095991,9.98162504 L59.2181766,9.07113897 Z M9.56567906,9.41959661 C9.56567906,8.99745297 9.89623936,8.65523793 10.3040062,8.65523793 L16.0586144,8.65523793 C16.4663812,8.65523793 16.7969415,8.99745297 16.7969415,9.41959661 L16.7969415,9.98162504 L9.56567906,9.98162504 L9.56567906,9.41959661 Z M74.2453046,55.9218295 C74.2453046,57.5545321 72.9668141,58.8780991 71.389716,58.8780991 L5.36372923,58.8780991 C3.78663117,58.8780991 2.50814059,57.5545321 2.50814059,55.9218295 L2.50814059,15.5457066 C2.50814059,13.913004 3.78663117,12.589437 5.36372923,12.589437 L24.2562168,12.589437 C24.7206276,12.5719141 25.1379841,12.2910677 25.341992,11.8588 L29.533084,3.10239697 C29.6959503,2.76517991 29.9022476,2.59657138 30.1519759,2.59657138 L46.6014694,2.59657138 C46.8868815,2.62196255 47.1302654,2.82088237 47.2203612,3.10239697 L51.3680223,11.8588 C51.5720301,12.2910677 51.9893866,12.5719141 52.4537974,12.589437 L71.346285,12.589437 C72.923383,12.589437 74.2018736,13.913004 74.2018736,15.5457066 L74.2453046,55.9218295 Z" id="Shape"></path>
                                    <path d="M45.5156942,19.9070472 L14.809973,19.9070472 C12.7651425,19.9070472 11.1074798,21.623155 11.1074798,23.7400812 L11.1074798,47.7274549 C11.1074798,49.8443811 12.7651425,51.5604888 14.809973,51.5604888 L45.5156942,51.5604888 C46.4976565,51.5604888 47.4394001,51.1566525 48.1337523,50.4378192 C48.8281045,49.7189859 49.2181875,48.7440387 49.2181875,47.7274549 L49.2181875,23.7400812 C49.2181875,21.623155 47.5605248,19.9070472 45.5156942,19.9070472 Z M46.6883314,47.7274549 C46.6883314,48.4041263 46.1584627,48.9526769 45.5048365,48.9526769 L14.809973,48.9526769 C14.1612073,48.9406805 13.638066,48.3990945 13.6264781,47.7274549 L13.6264781,23.7400812 C13.6176815,23.4093295 13.7384766,23.0889555 13.9613855,22.8518359 C14.1842944,22.6147164 14.4903646,22.4810121 14.809973,22.4811375 L45.5156942,22.4811375 C45.8334151,22.4840303 46.1366682,22.6190595 46.3572181,22.8558419 C46.577768,23.0926244 46.6970886,23.4112705 46.6883314,23.7400812 L46.6883314,47.7274549 Z" id="Shape"></path>
                                    <path d="M61.6937439,29.6188986 C62.0315304,29.6249288 62.3574961,29.4902201 62.5984156,29.2450336 C62.8393352,28.9998472 62.9750088,28.6647406 62.9749586,28.3149927 L62.9749586,26.0668789 C62.9146407,25.396507 62.3712327,24.883907 61.7208883,24.883907 C61.0705439,24.883907 60.5271359,25.396507 60.466818,26.0668789 L60.466818,28.3149927 C60.4665895,29.0221538 61.0108948,29.60061 61.6937439,29.6188986 Z" id="Shape"></path>
                                    <path d="M62.9749586,36.8016221 C63.0192879,36.3089465 62.7904277,35.8327454 62.384101,35.5721949 C61.9777742,35.3116443 61.4640024,35.3116443 61.0576756,35.5721949 C60.6513489,35.8327454 60.4224887,36.3089465 60.466818,36.8016221 L60.466818,39.0497358 C60.5271359,39.7201077 61.0705439,40.2327077 61.7208883,40.2327077 C62.3712327,40.2327077 62.9146407,39.7201077 62.9749586,39.0497358 L62.9749586,36.8016221 Z" id="Shape"></path>
                                    <path d="M65.7871162,33.856593 L67.9586665,33.856593 C68.6062077,33.7941485 69.1013502,33.2315813 69.1013502,32.5583074 C69.1013502,31.8850334 68.6062077,31.3224662 67.9586665,31.2600217 L65.7871162,31.2600217 C65.139575,31.3224662 64.6444325,31.8850334 64.6444325,32.5583074 C64.6444325,33.2315813 65.139575,33.7941485 65.7871162,33.856593 L65.7871162,33.856593 Z" id="Shape"></path>
                                    <path d="M55.4613946,33.856593 L57.6329449,33.856593 C58.1088415,33.9024853 58.5688247,33.665556 58.8205017,33.2449032 C59.0721788,32.8242505 59.0721788,32.2923643 58.8205017,31.8717115 C58.5688247,31.4510587 58.1088415,31.2141294 57.6329449,31.2600217 L55.4613946,31.2600217 C54.8138534,31.3224662 54.3187109,31.8850334 54.3187109,32.5583074 C54.3187109,33.2315813 54.8138534,33.7941485 55.4613946,33.856593 Z" id="Shape"></path>
                                    <path d="M34.0064776,12.589437 L42.7578253,12.589437 C43.8012286,12.589437 44.6470741,11.7137691 44.6470741,10.633578 L44.6470741,7.41877537 C44.6470741,6.33858429 43.8012286,5.46291641 42.7578253,5.46291641 L34.0064776,5.46291641 C33.5035391,5.459924 33.0202072,5.66466533 32.6635525,6.03178487 C32.3068979,6.39890442 32.1063628,6.89809588 32.1063711,7.41877537 L32.1063711,10.6223375 C32.1034614,11.1449623 32.3027161,11.6470539 32.6596879,12.0166117 C33.0166597,12.3861694 33.5016517,12.5924493 34.0064776,12.589437 Z M34.6253695,8.09320949 L42.1280757,8.09320949 L42.1280757,9.98162504 L34.6253695,9.98162504 L34.6253695,8.09320949 Z" id="Shape"></path>
                                    <path d="M7.22040474,23.7063595 L6.13462959,23.7063595 C5.48708839,23.768804 4.9919459,24.3313712 4.9919459,25.0046452 C4.9919459,25.6779191 5.48708839,26.2404863 6.13462959,26.3029309 L7.22040474,26.3029309 C7.86794593,26.2404863 8.36308843,25.6779191 8.36308843,25.0046452 C8.36308843,24.3313712 7.86794593,23.768804 7.22040474,23.7063595 L7.22040474,23.7063595 Z" id="Shape"></path>
                                    <path d="M7.22040474,30.8553612 L6.13462959,30.8553612 C5.48708839,30.9178057 4.9919459,31.480373 4.9919459,32.1536469 C4.9919459,32.8269208 5.48708839,33.3894881 6.13462959,33.4519326 L7.22040474,33.4519326 C7.86794593,33.3894881 8.36308843,32.8269208 8.36308843,32.1536469 C8.36308843,31.480373 7.86794593,30.9178057 7.22040474,30.8553612 L7.22040474,30.8553612 Z" id="Shape"></path>
                                    <path d="M7.22040474,38.0043629 L6.13462959,38.0043629 C5.48708839,38.0668074 4.9919459,38.6293747 4.9919459,39.3026486 C4.9919459,39.9759225 5.48708839,40.5384898 6.13462959,40.6009343 L7.22040474,40.6009343 C7.86794593,40.5384898 8.36308843,39.9759225 8.36308843,39.3026486 C8.36308843,38.6293747 7.86794593,38.0668074 7.22040474,38.0043629 L7.22040474,38.0043629 Z" id="Shape"></path>
                                    <path d="M7.22040474,45.1533646 L6.13462959,45.1533646 C5.48708839,45.2158091 4.9919459,45.7783764 4.9919459,46.4516503 C4.9919459,47.1249243 5.48708839,47.6874915 6.13462959,47.749936 L7.22040474,47.749936 C7.86794593,47.6874915 8.36308843,47.1249243 8.36308843,46.4516503 C8.36308843,45.7783764 7.86794593,45.2158091 7.22040474,45.1533646 Z" id="Shape"></path>
                                    <path d="M59.3158963,48.9526769 L55.092231,48.9526769 C54.4446898,49.0151214 53.9495473,49.5776886 53.9495473,50.2509626 C53.9495473,50.9242365 54.4446898,51.4868037 55.092231,51.5492482 L59.3158963,51.5492482 C59.9634375,51.4868037 60.45858,50.9242365 60.45858,50.2509626 C60.45858,49.5776886 59.9634375,49.0151214 59.3158963,48.9526769 Z" id="Shape"></path>
                                    <path d="M68.3061146,48.9526769 L64.0607337,48.9526769 C63.5848371,48.9067846 63.1248539,49.1437139 62.8731769,49.5643667 C62.6214998,49.9850195 62.6214998,50.5169057 62.8731769,50.9375584 C63.1248539,51.3582112 63.5848371,51.5951405 64.0607337,51.5492482 L68.2843991,51.5492482 C68.7602957,51.5951405 69.2202789,51.3582112 69.4719559,50.9375584 C69.723633,50.5169057 69.723633,49.9850195 69.4719559,49.5643667 C69.2202789,49.1437139 68.7602957,48.9067846 68.2843991,48.9526769 L68.3061146,48.9526769 Z" id="Shape"></path>
                                </g>
                            </g>
                        </g>
                    </g>
                </g>
            </g>
        </g>
    </g>
</svg>