<?xml version="1.0" encoding="UTF-8" standalone="no"?>
<svg width="423px" height="228px" viewBox="0 0 423 228" version="1.1" xmlns="http://www.w3.org/2000/svg" xmlns:xlink="http://www.w3.org/1999/xlink">
    <!-- Generator: Sketch 42 (36781) - http://www.bohemiancoding.com/sketch -->
    <title>DIGITAL</title>
    <desc>Created with Sketch.</desc>
    <defs></defs>
    <g id="Page-1" stroke="none" stroke-width="1" fill="none" fill-rule="evenodd">
        <g id="DIGITAL">
            <g id="RISQUES-DIGITAUX" transform="translate(110.000000, 46.000000)">
                <path d="M184.478539,1.10484538e-15 C189.976067,-6.09508453e-07 194.43342,4.45260947 194.43601,9.946875 L194.43601,120 C194.43601,120.077665 10.1407096,120.140625 10.1407096,120.140625 C10.0629984,120.140625 10.0000011,9.95625 10.0000011,9.95625 C9.99875678,7.31611946 11.0472952,4.7836962 12.9148182,2.91640226 C14.7823412,1.04910832 17.315774,-2.92883894e-07 19.9574725,0 L184.478539,1.10484538e-15 Z" id="08a0c116-4b53-4c69-948d-2aef5544f34f"></path>
                <path d="M193.993317,129.375 L193.993317,129.375 C193.994525,129.912165 193.865249,130.446347 193.609887,130.959375 C193.865249,130.446347 193.994525,129.912165 193.993317,129.375 L193.993317,129.375 Z" id="73641592-801f-45af-8a92-ebd4c3007a34" fill="#FFFFFF" fill-rule="nonzero"></path>
                <path d="M134.28281,124.51875 C133.056789,125.535531 131.514019,126.092588 129.920846,126.09375 L78.9843702,126.09375 C75.5972445,126.089984 72.7173807,123.621574 72.1975303,120.276563 L2.84231166,120.276563 L2.84231166,129.398438 C2.84231166,130.783464 3.96576423,131.90625 5.35161321,131.90625 L198.516239,131.90625 C199.902088,131.90625 201.025541,130.783464 201.025541,129.398438 L201.025541,120.28125 L136.702996,120.28125 C136.480722,121.720889 135.805538,123.052397 134.77529,124.082813 C134.612693,124.214063 134.448533,124.359375 134.28281,124.51875 Z" id="1c5b97a1-1043-4c3f-900d-e4ff868fb8b8"></path>
                <polygon id="0eb3379a-861c-406d-baa0-e241cb465432" fill="#FFFFFF" fill-rule="nonzero" points="72.3476194 117.43125 0 117.43125 0 117.43125"></polygon>
                <polygon id="f632a1f3-ed3a-4c2c-87b7-2eecab5edafa" fill="#FFFFFF" fill-rule="nonzero" points="126.538836 117.43125 126.538836 117.43125 193.849091 117.43125 193.849091 117.43125"></polygon>
                <path d="M193.881234,130.954688 C193.721197,131.301947 193.504544,131.638075 193.234664,131.957813 C193.504544,131.638075 193.721197,131.301947 193.881234,130.954688 L193.881234,130.954688 Z" id="ad2ac795-f314-440b-a19e-033ed3970452" fill="#FFFFFF" fill-rule="nonzero"></path>
                <path d="M198.516239,134.695312 L5.34223264,134.695312 C3.56815281,134.69873 1.90852538,133.820212 0.914605237,132.351562 C1.90852538,133.820212 3.56815281,134.69873 5.34223264,134.695312 L198.516239,134.695312 C200.473301,134.696168 202.273605,133.625624 203.206522,131.90625 C202.273605,133.625624 200.473301,134.696168 198.516239,134.695312 L198.516239,134.695312 Z" id="a45f6780-0cf6-45be-bbd7-b359405f6f1f" fill="#FFFFFF" fill-rule="nonzero"></path>
                <path d="M124.761219,124.05 C125.791467,123.019585 126.466651,121.688077 126.688925,120.248437 L126.688925,120.248437 C126.466651,121.688077 125.791467,123.019585 124.761219,124.05 L124.761219,124.05 Z" id="30d983ad-841c-444b-8c96-3efcbef4cba6" fill="#FFFFFF" fill-rule="nonzero"></path>
                <polygon id="2e3fe1d2-eb9c-4fb4-ae67-3a084ce81a42" fill="#FFFFFF" fill-rule="nonzero" points="123.537055 117.43125 123.537055 117.43125 65.3587812 117.43125 65.3587812 117.43125"></polygon>
                <path d="M68.9843702,123.248437 L119.920846,123.248437 C121.755434,123.253109 123.359829,122.014348 123.818472,120.239062 L65.1289573,120.239062 C65.5836288,121.999191 67.1655107,123.233943 68.9843702,123.248437 Z" id="7001b0f3-eecc-45cc-a3c6-fe39f9bb5f79"></path>
                <path d="M68.9843702,126.065625 C67.3895866,126.065555 65.8449779,125.508433 64.6177165,124.490625 C65.8449779,125.508433 67.3895866,126.065555 68.9843702,126.065625 L119.920846,126.065625 C121.51563,126.065555 123.060239,125.508433 124.2875,124.490625 C123.060239,125.508433 121.51563,126.065555 119.920846,126.065625 L68.9843702,126.065625 Z" id="06cfa627-b637-48d5-b72d-74406f27cab5" fill="#FFFFFF" fill-rule="nonzero"></path>
                <ellipse id="38f7ad0d-263b-4e57-8f2d-36651a03f9a1" fill="#FFFFFF" fill-rule="nonzero" cx="126.545596" cy="117.437812" rx="0.105255474" ry="0.105"></ellipse>
                <path d="M126.936338,119.207812 C126.928463,119.543926 126.880717,119.879216 126.793491,120.210938 L126.793491,120.210938 C127.047079,119.273852 126.96492,118.31339 126.552907,117.398438 L126.552907,117.398438 C126.810693,117.988061 126.939667,118.596679 126.936338,119.207812 Z" id="8407d7c8-c3a3-4847-a919-81157464d585" fill="#FFFFFF" fill-rule="nonzero"></path>
                <ellipse id="a7072c8b-55cb-4328-85c3-a4803cc92a92" fill="#FFFFFF" fill-rule="nonzero" cx="62.3543789" cy="117.437812" rx="0.105255474" ry="0.105"></ellipse>
                <path d="M64.6130262,124.51875 C63.3190892,123.454033 62.4585074,121.953909 62.19284,120.3 L62.19284,120.3 C62.4585074,121.953909 63.3190892,123.454033 64.6130262,124.51875 L64.6130262,124.51875 Z" id="d8a4a70b-8eb5-4789-be89-0ccdc14156ff" fill="#FFFFFF" fill-rule="nonzero"></path>
                <path d="M62.1133957,119.207813 C62.1147592,118.607664 62.243692,118.010275 62.4968264,117.43125 L62.4968264,117.43125 C62.0853059,118.346253 62.0031528,119.306647 62.2562424,120.24375 L62.2562424,120.24375 C62.1659771,119.899666 62.1182212,119.551768 62.1133957,119.203125 L62.1133957,119.207813 Z" id="fad8bc17-89a2-4238-be0b-2719dafb796b" fill="#FFFFFF" fill-rule="nonzero"></path>
                <polygon id="3263d706-c921-42f1-bc86-a855863d48a6" fill="#FFFFFF" fill-rule="nonzero" points="65.3587812 117.43125 62.3476194 117.43125 62.3476194 117.43125"></polygon>
                <polygon id="888dbe2c-7397-48d1-b62c-b2c29e91f336" fill="#FFFFFF" fill-rule="nonzero" points="126.538836 117.43125 126.538836 117.43125 123.537055 117.43125 123.537055 117.43125"></polygon>
                <path d="M194.149585,117.431251 L194.149585,9.95625111 C194.15083,7.31530818 193.101648,4.78217403 191.233111,2.91474517 C189.364573,1.04731632 186.829935,-0.00124315461 184.187424,1.10610104e-06 L19.6663577,1.10610104e-06 C17.0246593,8.13217147e-07 14.4912264,1.04910943 12.6237034,2.91640337 C10.7561804,4.7836973 9.70764204,7.31612056 9.70888636,9.95625111 L9.70888636,117.393751 L0,117.393751 L0,129.332814 C-5.47824114e-07,130.745904 0.562001538,132.101049 1.56224036,133.099815 C2.56247918,134.098582 3.91892323,134.659058 5.33285207,134.657814 L198.516239,134.657814 C199.930168,134.659058 201.286612,134.098582 202.286851,133.099815 C203.28709,132.101049 203.849092,130.745904 203.849091,129.332814 L203.849091,117.431251 L194.149585,117.431251 Z M12.7200482,9.95625111 C12.7277974,6.1261587 15.8339868,3.02390862 19.6663577,3.01875111 L184.187424,3.01875111 L184.187424,3.01875111 C188.019795,3.02390862 191.125984,6.1261587 191.133733,9.95625111 L191.133733,117.150001 L12.7200482,117.150001 L12.7200482,9.95625111 Z M136.707686,120.159376 L136.707686,120.206251 L136.707686,120.159376 Z M201.025541,129.332814 C201.025541,129.997927 200.761169,130.635799 200.290583,131.106105 C199.819998,131.576411 199.181747,131.840626 198.516239,131.840626 L5.34223264,131.840626 C4.67347982,131.845623 4.0303988,131.583616 3.55574798,131.112767 C3.08109716,130.641918 2.81415127,130.001188 2.81416996,129.332814 L2.81416996,120.210939 L72.1975303,120.210939 L72.1975303,120.159376 L72.2303623,120.159376 L72.2303623,120.239064 L72.19284,120.239064 C72.7126904,123.584075 75.5925542,126.052485 78.9796799,126.056251 L129.920846,126.056251 C131.51563,126.056181 133.060239,125.499059 134.2875,124.481251 C134.45635,124.340626 134.612693,124.193751 134.756528,124.040626 C135.786777,123.010211 136.461961,121.678703 136.684235,120.239064 L133.79502,120.239064 C133.335518,122.017745 131.726091,123.257407 129.888014,123.248439 L78.9843702,123.248439 C77.1542306,123.252071 75.5532433,122.018308 75.0914351,120.248439 L133.748118,120.248439 C133.748118,120.220314 133.748118,120.187501 133.771569,120.159376 L133.818472,120.159376 L133.818472,120.210939 L201.025541,120.210939 L201.025541,129.332814 Z" id="Shape" fill="#FFFFFF" fill-rule="nonzero"></path>
                <path d="M186.497457,112.453125 L17,112.453125 L17,9 L186.497457,9 L186.497457,112.453125 Z M19.3451416,110.109375 L184.152315,110.109375 L184.152315,11.34375 L19.3451416,11.34375 L19.3451416,110.109375 Z" id="Shape" fill="#FFFFFF" fill-rule="nonzero"></path>
                <path d="M66.2565824,53.7310783 C70.2714081,55.0841767 74.3740062,56.1616834 78.535744,56.9560783 L90.7070291,66.4295158 C91.3924348,66.977954 92.366765,66.977954 93.0521707,66.4295158 L101.729195,59.7029533 L102.109108,59.9982658 L110.410909,66.4342033 C111.096315,66.9826415 112.070645,66.9826415 112.756051,66.4342033 L125.349461,56.6326408 C125.464374,56.5419423 125.568268,56.4381106 125.65902,56.3232658 C129.609767,55.3081544 133.481601,54.007865 137.24402,52.4326408 C137.867371,52.1722277 138.304361,51.5992392 138.390379,50.9295145 C138.476396,50.2597898 138.198374,49.595076 137.66104,49.1857645 C137.123705,48.7764529 136.408693,48.6847277 135.785342,48.9451408 C131.982472,50.5260152 128.062013,51.8080284 124.059633,52.7795158 L115.725,29.2623283 C115.391451,28.3000185 114.350293,27.7797482 113.379858,28.0904533 L98.9713082,32.6842033 L90.3458773,28.2170158 C89.8495426,27.9550457 89.2619163,27.9289356 88.7442779,28.1458517 C88.2266394,28.3627678 87.8333736,28.7999202 87.6724158,29.3373283 L80.2711488,53.3701408 C75.9555173,52.6025357 71.6988683,51.534306 67.5323395,50.1732658 C66.5492933,49.8198899 65.4657391,50.3298656 65.1121534,51.3123284 C64.7585676,52.2947911 65.268846,53.3777024 66.2518921,53.7310783 L66.2565824,53.7310783 Z M91.8936708,62.5388908 L86.3778976,58.2451408 C89.4406526,58.6482658 92.7707537,58.9623283 96.2931565,59.1263908 L91.8936708,62.5388908 Z M111.564719,62.5388908 L107.11833,59.0935783 C110.555618,58.9111646 113.981049,58.5497363 117.38067,58.0107658 L111.564719,62.5388908 Z M90.6132234,32.6185783 L97.9113042,36.4107658 L97.9113042,36.4107658 L104.613719,39.8935783 C105.213611,40.2050693 105.934212,40.17305 106.504077,39.8095818 C107.073943,39.4461136 107.406497,38.8064159 107.37647,38.1314568 C107.346443,37.4564976 106.958397,36.8488193 106.358504,36.5373283 L103.685043,35.1310783 L112.765431,32.2342033 L117.04766,44.3092033 L87.029847,44.3092033 L90.6132234,32.6185783 Z M85.8478956,48.1107658 L118.389081,48.1107658 L120.335548,53.6092033 C106.733727,56.2998283 93.7369521,55.4842033 84.032756,54.0123283 L85.8478956,48.1107658 Z" id="Shape" fill="#FFFFFF" fill-rule="nonzero"></path>
                <path d="M142.352244,86.6676745 C142.304359,85.8536455 141.735531,85.1638776 140.945159,84.9614245 L123.853767,80.4707995 L126.086342,64.1676745 C126.205895,63.4115887 125.853565,62.6587905 125.196246,62.2658706 C124.538927,61.8729507 123.70862,61.9188146 123.098631,62.381737 L102.461385,77.381737 L81.8241388,62.381737 C81.2141502,61.9188146 80.3838437,61.8729507 79.7265246,62.2658706 C79.0692055,62.6587905 78.7168754,63.4115887 78.8364283,64.1676745 L81.0690031,80.4707995 L63.9635401,84.9614245 C63.1731683,85.1638776 62.6043408,85.8536455 62.5564551,86.6676745 L61.0039713,110.0208 C60.9604037,110.690673 61.2777308,111.33289 61.8364185,111.705535 C62.3951062,112.078179 63.1102765,112.124638 63.7125318,111.82741 C64.3147871,111.530181 64.7126304,110.934423 64.7561979,110.26455 L66.1632829,88.275487 L82.6308675,83.953612 L94.3049825,93.6332995 C95.1079978,94.3012189 96.3007474,94.1920883 96.9690634,93.3895495 C97.6373793,92.5870107 97.5281839,91.3949689 96.7251687,90.7270495 L84.924416,80.8926745 L83.1655598,68.0489245 L100.55244,80.6676745 L100.55244,109.861425 C100.55244,110.906019 101.399754,111.752831 102.444969,111.752831 C103.490184,111.752831 104.337498,110.906019 104.337498,109.861425 L104.337498,80.662987 L121.724378,68.044237 L119.965522,80.887987 L108.136628,90.731737 C107.333613,91.3996564 107.224417,92.5916983 107.892733,93.394237 C108.561049,94.1967758 109.753799,94.3059064 110.556814,93.637987 L122.198097,83.9582995 L138.665682,88.2801745 L140.072767,110.269237 C140.130003,111.262444 140.953438,112.03807 141.94888,112.036425 L142.070827,112.036425 C142.573084,112.007641 143.04273,111.778468 143.374324,111.400359 C143.705917,111.022249 143.871672,110.526886 143.834374,110.025487 L142.352244,86.6676745 Z" id="Shape" fill="#FFFFFF" fill-rule="nonzero"></path>
            </g>
        </g>
    </g>
</svg>