<?xml version="1.0" encoding="UTF-8"?>
<svg width="118px" height="100px" viewBox="0 0 118 100" version="1.1" xmlns="http://www.w3.org/2000/svg" xmlns:xlink="http://www.w3.org/1999/xlink">
    <!-- Generator: Sketch 42 (36781) - http://www.bohemiancoding.com/sketch -->
    <title>d76248a5-b48b-42a4-b15d-eebdf764fcd7</title>
    <desc>Created with Sketch.</desc>
    <defs></defs>
    <g id="LANDINGS-DESKTOP-HD" stroke="none" stroke-width="1" fill="none" fill-rule="evenodd">
        <g id="Landing-HV-V3-OBJETS" transform="translate(-667.000000, -1278.000000)" fill-rule="nonzero" fill="#FFFFFF">
            <g id="Group-17" transform="translate(166.000000, 1278.000000)">
                <g id="Group-2" transform="translate(459.317320, 0.000000)">
                    <g id="Icon_Fichier-1House" transform="translate(41.991150, 0.000000)">
                        <g id="e7520c57-7fe0-4a15-a9bb-de4b4811687a">
                            <g id="d76248a5-b48b-42a4-b15d-eebdf764fcd7">
                                <path d="M112.515784,15.9018692 C112.436347,15.4526327 112.044175,15.1276424 111.589994,15.1346737 L70.9154484,15.1346737 L59.5606446,0.344075532 C59.3785841,0.126369544 59.1100121,0.000659516807 58.8269567,0.000659516807 C58.5439012,0.000659516807 58.2753292,0.126369544 58.0932688,0.344075532 L46.7523518,15.1346737 L6.054661,15.1346737 C5.60048075,15.1276424 5.2083089,15.4526327 5.12887186,15.9018692 L0.462894572,41.9679155 C0.414491312,42.2412641 0.490211842,42.5220395 0.669352784,42.7334724 C0.848493727,42.9449054 1.11231525,43.0648781 1.38868372,43.0605878 L7.24430005,43.0605878 L7.24430005,87.6416175 L4.46693262,87.6416175 C3.95563339,87.6416175 3.54114347,88.0579631 3.54114347,88.5715513 L3.54114347,97.745349 C3.54114347,98.2589373 3.95563339,98.6752828 4.46693262,98.6752828 L42.0076824,98.6752828 C42.1645576,98.9880007 42.4830212,99.1856851 42.8316347,99.1867465 L74.8315365,99.1867465 C75.18015,99.1856851 75.4986136,98.9880007 75.6554888,98.6752828 L113.210125,98.6752828 C113.721425,98.6752828 114.135915,98.2589373 114.135915,97.745349 L114.135915,88.5715513 C114.135915,88.0579631 113.721425,87.6416175 113.210125,87.6416175 L110.432758,87.6416175 L110.432758,43.0652375 L116.288374,43.0652375 C116.564743,43.0695278 116.828564,42.9495551 117.007705,42.7381221 C117.186846,42.5266891 117.262567,42.2459138 117.214163,41.9725652 L112.515784,15.9018692 Z M5.37420598,89.5014852 L46.6042255,89.5014852 L46.6042255,90.2035853 L45.451618,90.2035853 C44.9403188,90.2035853 44.5258289,90.6199309 44.5258289,91.1335192 L44.5258289,93.7559327 L42.8270058,93.7559327 C42.3157066,93.7559327 41.9012166,94.1722782 41.9012166,94.6858665 L41.9012166,96.7968164 L5.37420598,96.7968164 L5.37420598,89.5014852 Z M43.7527949,97.3268787 L43.7527949,95.6343991 L73.9011184,95.6343991 L73.9011184,97.3268787 L43.7527949,97.3268787 Z M51.3535238,88.5297043 L69.2027385,88.5297043 L69.2027385,90.2035853 L48.4558038,90.2035853 L48.4558038,88.5111056 L51.3535238,88.5297043 Z M71.2579904,93.7745313 L46.3774071,93.7745313 L46.3774071,92.063453 L71.2857641,92.063453 L71.2579904,93.7745313 Z M66.1198606,60.1946193 L51.5201658,60.1946193 L51.5201658,57.7442436 L66.1430054,57.7442436 L66.1198606,60.1946193 Z M50.571232,62.0544871 L68.5269124,62.0544871 L68.5269124,63.644674 L49.0853404,63.644674 L49.0853404,62.0544871 L50.571232,62.0544871 Z M52.2607972,65.5045417 L65.3514556,65.5045417 L65.3514556,86.6698366 L52.2839419,86.6698366 L52.2607972,65.5045417 Z M112.261192,96.8154151 L75.7573256,96.8154151 L75.7573256,94.7044652 C75.7573256,94.1908769 75.3428357,93.7745313 74.8315365,93.7745313 L73.1373423,93.7745313 L73.1373423,91.1335192 C73.1373423,90.6199309 72.7228524,90.2035853 72.2115532,90.2035853 L71.0543168,90.2035853 L71.0543168,89.4828865 L112.284336,89.4828865 L112.261192,96.8154151 Z M108.558035,87.6416175 L71.0635747,87.6416175 L71.0635747,87.5997705 C71.0635747,87.0861822 70.6490847,86.6698366 70.1377855,86.6698366 L67.2354366,86.6698366 L67.2354366,65.5045417 L69.4804752,65.5045417 C69.9917745,65.5045417 70.4062644,65.0881962 70.4062644,64.5746079 L70.4062644,61.1245532 C70.4062644,60.6109649 69.9917745,60.1946193 69.4804752,60.1946193 L67.9992126,60.1946193 L67.9992126,56.8143097 C67.9992126,56.3007214 67.5847227,55.8843759 67.0734235,55.8843759 L50.5943767,55.8843759 C50.0830775,55.8843759 49.6685876,56.3007214 49.6685876,56.8143097 L49.6685876,60.1946193 L48.1873249,60.1946193 C47.6760257,60.1946193 47.2615358,60.6109649 47.2615358,61.1245532 L47.2615358,64.5746079 C47.2615358,65.0881962 47.6760257,65.5045417 48.1873249,65.5045417 L50.4323636,65.5045417 L50.4323636,86.6698366 L47.5300146,86.6698366 C47.0187154,86.6698366 46.6042255,87.0861822 46.6042255,87.5997705 L46.6042255,87.6416175 L9.10976517,87.6416175 L9.10976517,43.0652375 L108.567293,43.0652375 L108.558035,87.6416175 Z M88.5841342,41.2053697 L29.0744081,41.2053697 L58.8292711,2.43177707 L88.5841342,41.2053697 Z M26.7414194,41.2053697 L2.49500174,41.2053697 L6.82769493,16.9991911 L45.3173786,16.9991911 L26.7414194,41.2053697 Z M109.493082,41.2053697 L90.9217518,41.2053697 L72.3411637,16.9945415 L110.830847,16.9945415 L115.163541,41.2007201 L109.493082,41.2053697 Z" id="Shape"></path>
                                <path d="M67.9899547,20.5933855 L67.9899547,18.5986774 C67.9899547,18.0850891 67.5754648,17.6687435 67.0641656,17.6687435 L50.5943767,17.6687435 C50.0830775,17.6687435 49.6685876,18.0850891 49.6685876,18.5986774 L49.6685876,20.5980352 L48.1873249,20.5980352 C47.6760257,20.5980352 47.2615358,21.0143808 47.2615358,21.5279691 L47.2615358,23.8528037 C47.2615358,24.366392 47.6760257,24.7827376 48.1873249,24.7827376 L50.4323636,24.7827376 L50.4323636,38.4713642 C50.4323636,38.9849525 50.8468535,39.401298 51.3581527,39.401298 L66.3003895,39.401298 C66.8116887,39.401298 67.2261787,38.9849525 67.2261787,38.4713642 L67.2261787,31.5666052 C67.3487352,31.3158694 67.3487352,31.0222475 67.2261787,30.7715117 L67.2261787,24.7966866 L69.4712173,24.7966866 C69.9825166,24.7966866 70.3970065,24.380341 70.3970065,23.8667527 L70.3970065,21.5419181 C70.3970065,21.0283298 69.9825166,20.6119842 69.4712173,20.6119842 L67.9899547,20.5933855 Z M56.7647613,37.5414303 L56.7647613,24.7966866 L60.9817309,24.7966866 L60.9817309,37.5414303 L56.7647613,37.5414303 Z M52.2839419,37.5414303 L52.2839419,32.0827185 L54.9131831,32.0827185 L54.9131831,37.5414303 L52.2839419,37.5414303 Z M54.9131831,24.7920369 L54.9131831,30.2228507 L52.2839419,30.2228507 L52.2839419,24.7966866 L54.9131831,24.7920369 Z M62.8333092,37.5414303 L62.8333092,32.0827185 L65.3746004,32.0827185 L65.3746004,37.5414303 L62.8333092,37.5414303 Z M65.3746004,30.2228507 L62.8333092,30.2228507 L62.8333092,24.7966866 L65.3746004,24.7966866 L65.3746004,30.2228507 Z M68.5454282,22.9182202 L49.1038562,22.9182202 L49.1038562,22.4532533 L68.5454282,22.4532533 L68.5454282,22.9182202 Z M66.1383764,20.5933855 L51.5201658,20.5933855 L51.5201658,19.5286112 L66.1430054,19.5286112 L66.1383764,20.5933855 Z" id="Shape"></path>
                                <path d="M78.3310194,54.6010671 C77.8197202,54.6010671 77.4052303,55.0174127 77.4052303,55.531001 L77.4052303,74.3528625 C77.4052303,74.8664508 77.8197202,75.2827964 78.3310194,75.2827964 L97.5874336,75.2827964 C98.0987329,75.2827964 98.5132228,74.8664508 98.5132228,74.3528625 L98.5132228,65.3883 C98.6692721,65.1130206 98.6692721,64.7754925 98.5132228,64.5002131 L98.5132228,55.531001 C98.5132228,55.0174127 98.0987329,54.6010671 97.5874336,54.6010671 L78.3310194,54.6010671 Z M91.0004439,56.4609349 L91.0004439,73.4229286 L85.0291039,73.4229286 L85.0291039,56.4609349 L91.0004439,56.4609349 Z M79.2568086,65.8718656 L83.1821546,65.8718656 L83.1821546,73.4229286 L79.2568086,73.4229286 L79.2568086,65.8718656 Z M83.1821546,64.0119979 L79.2568086,64.0119979 L79.2568086,56.4609349 L83.1821546,56.4609349 L83.1821546,64.0119979 Z M92.8520222,73.4229286 L92.8520222,65.8718656 L96.6570155,65.8718656 L96.6570155,73.4229286 L92.8520222,73.4229286 Z M96.6570155,64.0119979 L92.8520222,64.0119979 L92.8520222,56.4609349 L96.6570155,56.4609349 L96.6570155,64.0119979 Z" id="Shape"></path>
                                <path d="M40.5588224,64.4955635 L40.5588224,55.531001 C40.5588224,55.0174127 40.1443325,54.6010671 39.6330332,54.6010671 L20.3673612,54.6010671 C19.8560619,54.6010671 19.441572,55.0174127 19.441572,55.531001 L19.441572,74.3528625 C19.441572,74.8664508 19.8560619,75.2827964 20.3673612,75.2827964 L39.6237753,75.2827964 C40.1350746,75.2827964 40.5495645,74.8664508 40.5495645,74.3528625 L40.5495645,65.3883 C40.7073771,65.1118318 40.7073771,64.7720317 40.5495645,64.4955635 L40.5588224,64.4955635 Z M38.7072441,64.0305965 L34.8976218,64.0305965 L34.8976218,56.4609349 L38.7026151,56.4609349 L38.7072441,64.0305965 Z M27.0793325,56.4609349 L33.0460435,56.4609349 L33.0460435,73.4229286 L27.0793325,73.4229286 L27.0793325,56.4609349 Z M25.2277542,56.4609349 L25.2277542,64.0119979 L21.2931503,64.0119979 L21.2931503,56.4609349 L25.2277542,56.4609349 Z M21.2931503,65.8718656 L25.2277542,65.8718656 L25.2277542,73.4229286 L21.2931503,73.4229286 L21.2931503,65.8718656 Z M34.8883639,73.4229286 L34.8883639,65.8718656 L38.6933573,65.8718656 L38.6933573,73.4229286 L34.8883639,73.4229286 Z" id="Shape"></path>
                            </g>
                        </g>
                    </g>
                </g>
            </g>
        </g>
    </g>
</svg>