<?xml version="1.0" encoding="UTF-8" standalone="no"?>
<svg width="423px" height="228px" viewBox="0 0 423 228" version="1.1" xmlns="http://www.w3.org/2000/svg" xmlns:xlink="http://www.w3.org/1999/xlink">
    <!-- Generator: Sketch 42 (36781) - http://www.bohemiancoding.com/sketch -->
    <title>HABITATION</title>
    <desc>Created with Sketch.</desc>
    <defs></defs>
    <g id="Page-1" stroke="none" stroke-width="1" fill="none" fill-rule="evenodd">
        <g id="HABITATION" fill-rule="nonzero" fill="#FFFFFF">
            <g transform="translate(131.000000, 45.000000)" id="Icon_Fichier-1House">
                <g>
                    <g id="e7520c57-7fe0-4a15-a9bb-de4b4811687a">
                        <g id="d76248a5-b48b-42a4-b15d-eebdf764fcd7">
                            <path d="M155.028898,21.8943925 C154.919446,21.275864 154.379095,20.8284031 153.753307,20.8380841 L97.7102362,20.8380841 L82.0651181,0.473738318 C81.8142677,0.173991143 81.4442181,0.000908051734 81.0542126,0.000908051734 C80.6642071,0.000908051734 80.2941575,0.173991143 80.0433071,0.473738318 L64.4173228,20.8380841 L8.3423622,20.8380841 C7.71657388,20.8284031 7.1762233,21.275864 7.06677165,21.8943925 L0.637795276,57.783271 C0.571103263,58.1596294 0.67543414,58.5462133 0.922261935,58.8373235 C1.16908973,59.1284337 1.53259393,59.2936174 1.91338583,59.2877103 L9.98149606,59.2877103 L9.98149606,120.668832 L6.15472441,120.668832 C5.4502352,120.668832 4.87913386,121.242075 4.87913386,121.949206 L4.87913386,134.580093 C4.87913386,135.287224 5.4502352,135.860467 6.15472441,135.860467 L57.8799213,135.860467 C58.0960704,136.291031 58.5348628,136.563212 59.0151969,136.564673 L103.105984,136.564673 C103.586318,136.563212 104.025111,136.291031 104.24126,135.860467 L155.985591,135.860467 C156.69008,135.860467 157.261181,135.287224 157.261181,134.580093 L157.261181,121.949206 C157.261181,121.242075 156.69008,120.668832 155.985591,120.668832 L152.158819,120.668832 L152.158819,59.2941121 L160.226929,59.2941121 C160.607721,59.3000192 160.971225,59.1348355 161.218053,58.8437253 C161.464881,58.5526151 161.569212,58.1660313 161.50252,57.7896729 L155.028898,21.8943925 Z M7.40480315,123.229579 L64.2132283,123.229579 L64.2132283,124.196262 L62.6251181,124.196262 C61.9206289,124.196262 61.3495276,124.769505 61.3495276,125.476636 L61.3495276,129.08729 L59.0088189,129.08729 C58.3043297,129.08729 57.7332283,129.660533 57.7332283,130.367664 L57.7332283,133.274112 L7.40480315,133.274112 L7.40480315,123.229579 Z M60.2844094,134.003925 L60.2844094,131.673645 L101.824016,131.673645 L101.824016,134.003925 L60.2844094,134.003925 Z M70.7570079,121.891589 L95.3503937,121.891589 L95.3503937,124.196262 L66.7644094,124.196262 L66.7644094,121.865981 L70.7570079,121.891589 Z M98.1822047,129.112897 L63.9007087,129.112897 L63.9007087,126.757009 L98.2204724,126.757009 L98.1822047,129.112897 Z M91.1026772,82.8785981 L70.9866142,82.8785981 L70.9866142,79.5048131 L91.1345669,79.5048131 L91.1026772,82.8785981 Z M69.6791339,85.4393458 L94.4192126,85.4393458 L94.4192126,87.628785 L67.631811,87.628785 L67.631811,85.4393458 L69.6791339,85.4393458 Z M72.0070866,90.1895327 L90.043937,90.1895327 L90.043937,119.330841 L72.0389764,119.330841 L72.0070866,90.1895327 Z M154.67811,133.29972 L104.381575,133.29972 L104.381575,130.393271 C104.381575,129.68614 103.810473,129.112897 103.105984,129.112897 L100.771654,129.112897 L100.771654,125.476636 C100.771654,124.769505 100.200552,124.196262 99.496063,124.196262 L97.9015748,124.196262 L97.9015748,123.203972 L154.71,123.203972 L154.67811,133.29972 Z M149.575748,120.668832 L97.9143307,120.668832 L97.9143307,120.611215 C97.9143307,119.904084 97.3432294,119.330841 96.6387402,119.330841 L92.6397638,119.330841 L92.6397638,90.1895327 L95.7330709,90.1895327 C96.4375601,90.1895327 97.0086614,89.6162898 97.0086614,88.9091589 L97.0086614,84.158972 C97.0086614,83.451841 96.4375601,82.8785981 95.7330709,82.8785981 L93.692126,82.8785981 L93.692126,78.2244393 C93.692126,77.5173083 93.1210246,76.9440654 92.4165354,76.9440654 L69.7110236,76.9440654 C69.0065344,76.9440654 68.4354331,77.5173083 68.4354331,78.2244393 L68.4354331,82.8785981 L66.3944882,82.8785981 C65.689999,82.8785981 65.1188976,83.451841 65.1188976,84.158972 L65.1188976,88.9091589 C65.1188976,89.6162898 65.689999,90.1895327 66.3944882,90.1895327 L69.4877953,90.1895327 L69.4877953,119.330841 L65.4888189,119.330841 C64.7843297,119.330841 64.2132283,119.904084 64.2132283,120.611215 L64.2132283,120.668832 L12.551811,120.668832 L12.551811,59.2941121 L149.588504,59.2941121 L149.575748,120.668832 Z M122.054882,56.7333645 L40.0599213,56.7333645 L81.0574016,3.34817757 L122.054882,56.7333645 Z M36.8454331,56.7333645 L3.43771654,56.7333645 L9.40748031,23.4052336 L62.4401575,23.4052336 L36.8454331,56.7333645 Z M150.864094,56.7333645 L125.275748,56.7333645 L99.6746457,23.3988318 L152.707323,23.3988318 L158.677087,56.7269626 L150.864094,56.7333645 Z" id="Shape"></path>
                            <path d="M93.6793701,28.3538785 L93.6793701,25.6074766 C93.6793701,24.9003457 93.1082687,24.3271028 92.4037795,24.3271028 L69.7110236,24.3271028 C69.0065344,24.3271028 68.4354331,24.9003457 68.4354331,25.6074766 L68.4354331,28.3602804 L66.3944882,28.3602804 C65.689999,28.3602804 65.1188976,28.9335233 65.1188976,29.6406542 L65.1188976,32.8415888 C65.1188976,33.5487197 65.689999,34.1219626 66.3944882,34.1219626 L69.4877953,34.1219626 L69.4877953,52.9690654 C69.4877953,53.6761964 70.0588966,54.2494393 70.7633858,54.2494393 L91.3514173,54.2494393 C92.0559065,54.2494393 92.6270079,53.6761964 92.6270079,52.9690654 L92.6270079,43.4622897 C92.7958714,43.1170657 92.7958714,42.7127941 92.6270079,42.3675701 L92.6270079,34.1411682 L95.720315,34.1411682 C96.4248042,34.1411682 96.9959055,33.5679253 96.9959055,32.8607944 L96.9959055,29.6598598 C96.9959055,28.9527289 96.4248042,28.379486 95.720315,28.379486 L93.6793701,28.3538785 Z M78.2128346,51.6886916 L78.2128346,34.1411682 L84.0231496,34.1411682 L84.0231496,51.6886916 L78.2128346,51.6886916 Z M72.0389764,51.6886916 L72.0389764,44.1728972 L75.6616535,44.1728972 L75.6616535,51.6886916 L72.0389764,51.6886916 Z M75.6616535,34.1347664 L75.6616535,41.6121495 L72.0389764,41.6121495 L72.0389764,34.1411682 L75.6616535,34.1347664 Z M86.5743307,51.6886916 L86.5743307,44.1728972 L90.0758268,44.1728972 L90.0758268,51.6886916 L86.5743307,51.6886916 Z M90.0758268,41.6121495 L86.5743307,41.6121495 L86.5743307,34.1411682 L90.0758268,34.1411682 L90.0758268,41.6121495 Z M94.4447244,31.5548131 L67.6573228,31.5548131 L67.6573228,30.9146262 L94.4447244,30.9146262 L94.4447244,31.5548131 Z M91.128189,28.3538785 L70.9866142,28.3538785 L70.9866142,26.8878505 L91.1345669,26.8878505 L91.128189,28.3538785 Z" id="Shape"></path>
                            <path d="M107.927717,75.1771495 C107.223227,75.1771495 106.652126,75.7503924 106.652126,76.4575234 L106.652126,102.37229 C106.652126,103.079421 107.223227,103.652664 107.927717,103.652664 L134.46,103.652664 C135.164489,103.652664 135.735591,103.079421 135.735591,102.37229 L135.735591,90.029486 C135.950602,89.6504693 135.950602,89.1857457 135.735591,88.806729 L135.735591,76.4575234 C135.735591,75.7503924 135.164489,75.1771495 134.46,75.1771495 L107.927717,75.1771495 Z M125.384173,77.7378972 L125.384173,101.091916 L117.156614,101.091916 L117.156614,77.7378972 L125.384173,77.7378972 Z M109.203307,90.6952804 L114.611811,90.6952804 L114.611811,101.091916 L109.203307,101.091916 L109.203307,90.6952804 Z M114.611811,88.1345327 L109.203307,88.1345327 L109.203307,77.7378972 L114.611811,77.7378972 L114.611811,88.1345327 Z M127.935354,101.091916 L127.935354,90.6952804 L133.178031,90.6952804 L133.178031,101.091916 L127.935354,101.091916 Z M133.178031,88.1345327 L127.935354,88.1345327 L127.935354,77.7378972 L133.178031,77.7378972 L133.178031,88.1345327 Z" id="Shape"></path>
                            <path d="M55.883622,88.8003271 L55.883622,76.4575234 C55.883622,75.7503924 55.3125207,75.1771495 54.6080315,75.1771495 L28.0629921,75.1771495 C27.3585029,75.1771495 26.7874016,75.7503924 26.7874016,76.4575234 L26.7874016,102.37229 C26.7874016,103.079421 27.3585029,103.652664 28.0629921,103.652664 L54.5952756,103.652664 C55.2997648,103.652664 55.8708661,103.079421 55.8708661,102.37229 L55.8708661,90.029486 C56.0883069,89.6488324 56.0883069,89.1809807 55.8708661,88.8003271 L55.883622,88.8003271 Z M53.3324409,88.1601402 L48.0833858,88.1601402 L48.0833858,77.7378972 L53.326063,77.7378972 L53.3324409,88.1601402 Z M37.3110236,77.7378972 L45.5322047,77.7378972 L45.5322047,101.091916 L37.3110236,101.091916 L37.3110236,77.7378972 Z M34.7598425,77.7378972 L34.7598425,88.1345327 L29.3385827,88.1345327 L29.3385827,77.7378972 L34.7598425,77.7378972 Z M29.3385827,90.6952804 L34.7598425,90.6952804 L34.7598425,101.091916 L29.3385827,101.091916 L29.3385827,90.6952804 Z M48.0706299,101.091916 L48.0706299,90.6952804 L53.3133071,90.6952804 L53.3133071,101.091916 L48.0706299,101.091916 Z" id="Shape"></path>
                        </g>
                    </g>
                </g>
            </g>
        </g>
    </g>
</svg>