<?xml version="1.0" encoding="UTF-8" standalone="no"?>
<svg width="148px" height="132px" viewBox="0 0 148 132" version="1.1" xmlns="http://www.w3.org/2000/svg" xmlns:xlink="http://www.w3.org/1999/xlink">
    <!-- Generator: Sketch 42 (36781) - http://www.bohemiancoding.com/sketch -->
    <title>Icon_Fichier 1House</title>
    <desc>Created with Sketch.</desc>
    <defs></defs>
    <g id="Page-1" stroke="none" stroke-width="1" fill="none" fill-rule="evenodd">
        <g id="FACEBOOK-ADS-:-inventaire-Copy" transform="translate(-548.000000, -374.000000)" fill-rule="nonzero" fill="#FFFFFF">
            <g id="Group-6-Copy" transform="translate(-243.000000, 2.000000)">
                <g id="Group" transform="translate(791.000000, 372.000000)">
                    <g id="Icon_Fichier-1House">
                        <g id="e7520c57-7fe0-4a15-a9bb-de4b4811687a">
                            <g>
                                <g id="d76248a5-b48b-42a4-b15d-eebdf764fcd7">
                                    <path d="M141.804946,21.1025024 C141.70483,20.5063452 141.210572,20.0750683 140.638163,20.0843992 L89.3755613,20.0843992 L75.0649704,0.456603853 C74.8355175,0.167698122 74.4970331,0.000875208751 74.1402951,0.000875208751 C73.7835571,0.000875208751 73.4450727,0.167698122 73.2156197,0.456603853 L58.9225306,20.0843992 L7.63075941,20.0843992 C7.05835078,20.0750683 6.56409205,20.5063452 6.46397663,21.1025024 L0.583391392,55.6933294 C0.522388203,56.0560754 0.617819664,56.428677 0.84359307,56.7092582 C1.06936648,56.9898393 1.40186379,57.1490486 1.75017418,57.1433551 L9.13007529,57.1433551 L9.13007529,116.304406 L5.62972694,116.304406 C4.9853306,116.304406 4.46294415,116.856915 4.46294415,117.53847 L4.46294415,129.712516 C4.46294415,130.394071 4.9853306,130.946581 5.62972694,130.946581 L52.9427689,130.946581 C53.1404805,131.361571 53.5418439,131.623908 53.9812055,131.625316 L94.3110525,131.625316 C94.7504141,131.623908 95.1517775,131.361571 95.3494892,130.946581 L142.680033,130.946581 C143.324429,130.946581 143.846816,130.394071 143.846816,129.712516 L143.846816,117.53847 C143.846816,116.856915 143.324429,116.304406 142.680033,116.304406 L139.179684,116.304406 L139.179684,57.1495255 L146.559586,57.1495255 C146.907896,57.1552189 147.240393,56.9960097 147.466167,56.7154285 C147.69194,56.4348474 147.787372,56.0622457 147.726368,55.6994997 L141.804946,21.1025024 Z M6.77317406,118.772535 L58.7358454,118.772535 L58.7358454,119.704253 L57.2832008,119.704253 C56.6388045,119.704253 56.116418,120.256763 56.116418,120.938318 L56.116418,124.41838 L53.9753716,124.41838 C53.3309753,124.41838 52.8085888,124.970889 52.8085888,125.652444 L52.8085888,128.45377 L6.77317406,128.45377 L6.77317406,118.772535 Z M55.1421544,129.157187 L55.1421544,126.91119 L93.1384358,126.91119 L93.1384358,129.157187 L55.1421544,129.157187 Z M64.7214411,117.482937 L87.2170131,117.482937 L87.2170131,119.704253 L61.0694109,119.704253 L61.0694109,117.458256 L64.7214411,117.482937 Z M89.8072709,124.443061 L58.4499836,124.443061 L58.4499836,122.172382 L89.8422744,122.172382 L89.8072709,124.443061 Z M83.3316265,79.8809929 L64.931462,79.8809929 L64.931462,76.6292331 L83.360796,76.6292331 L83.3316265,79.8809929 Z M63.7355096,82.3491219 L86.3652617,82.3491219 L86.3652617,84.4593721 L61.8628232,84.4593721 L61.8628232,82.3491219 L63.7355096,82.3491219 Z M65.8648882,86.927501 L82.3631968,86.927501 L82.3631968,115.014808 L65.8940578,115.014808 L65.8648882,86.927501 Z M141.48408,128.478452 L95.4778353,128.478452 L95.4778353,125.677125 C95.4778353,124.99557 94.9554488,124.443061 94.3110525,124.443061 L92.17584,124.443061 L92.17584,120.938318 C92.17584,120.256763 91.6534535,119.704253 91.0090572,119.704253 L89.5505787,119.704253 L89.5505787,118.747853 L141.51325,118.747853 L141.48408,128.478452 Z M136.816949,116.304406 L89.5622465,116.304406 L89.5622465,116.248873 C89.5622465,115.567318 89.0398601,115.014808 88.3954638,115.014808 L84.7375997,115.014808 L84.7375997,86.927501 L87.567048,86.927501 C88.2114443,86.927501 88.7338308,86.3749916 88.7338308,85.6934366 L88.7338308,81.1150574 C88.7338308,80.4335024 88.2114443,79.8809929 87.567048,79.8809929 L85.7001955,79.8809929 L85.7001955,75.3951686 C85.7001955,74.7136136 85.1778091,74.1611041 84.5334127,74.1611041 L63.7646792,74.1611041 C63.1202828,74.1611041 62.5978964,74.7136136 62.5978964,75.3951686 L62.5978964,79.8809929 L60.7310439,79.8809929 C60.0866476,79.8809929 59.5642612,80.4335024 59.5642612,81.1150574 L59.5642612,85.6934366 C59.5642612,86.3749916 60.0866476,86.927501 60.7310439,86.927501 L63.5604922,86.927501 L63.5604922,115.014808 L59.9026282,115.014808 C59.2582318,115.014808 58.7358454,115.567318 58.7358454,116.248873 L58.7358454,116.304406 L11.4811426,116.304406 L11.4811426,57.1495255 L136.828617,57.1495255 L136.816949,116.304406 Z M111.643611,54.6813965 L36.6428133,54.6813965 L74.143212,3.22707858 L111.643611,54.6813965 Z M33.7025207,54.6813965 L3.1444796,54.6813965 L8.60502304,22.5586985 L57.1140173,22.5586985 L33.7025207,54.6813965 Z M137.9954,54.6813965 L114.589737,54.6813965 L91.1724068,22.5525281 L139.681401,22.5525281 L145.141944,54.6752262 L137.9954,54.6813965 Z" id="Shape"></path>
                                    <path d="M85.6885277,27.3283576 L85.6885277,24.6812893 C85.6885277,23.9997344 85.1661413,23.4472249 84.5217449,23.4472249 L63.7646792,23.4472249 C63.1202828,23.4472249 62.5978964,23.9997344 62.5978964,24.6812893 L62.5978964,27.3345279 L60.7310439,27.3345279 C60.0866476,27.3345279 59.5642612,27.8870374 59.5642612,28.5685924 L59.5642612,31.6537536 C59.5642612,32.3353086 60.0866476,32.887818 60.7310439,32.887818 L63.5604922,32.887818 L63.5604922,51.053247 C63.5604922,51.734802 64.0828786,52.2873115 64.727275,52.2873115 L83.5591491,52.2873115 C84.2035455,52.2873115 84.7259319,51.734802 84.7259319,51.053247 L84.7259319,41.8903183 C84.8803914,41.5575806 84.8803914,41.1679309 84.7259319,40.8351932 L84.7259319,32.906329 L87.5553802,32.906329 C88.1997765,32.906329 88.7221629,32.3538195 88.7221629,31.6722645 L88.7221629,28.5871034 C88.7221629,27.9055484 88.1997765,27.3530389 87.5553802,27.3530389 L85.6885277,27.3283576 Z M71.5412864,49.8191825 L71.5412864,32.906329 L76.855982,32.906329 L76.855982,49.8191825 L71.5412864,49.8191825 Z M65.8940578,49.8191825 L65.8940578,42.5752241 L69.2077209,42.5752241 L69.2077209,49.8191825 L65.8940578,49.8191825 Z M69.2077209,32.9001587 L69.2077209,40.1070952 L65.8940578,40.1070952 L65.8940578,32.906329 L69.2077209,32.9001587 Z M79.1895476,49.8191825 L79.1895476,42.5752241 L82.3923663,42.5752241 L82.3923663,49.8191825 L79.1895476,49.8191825 Z M82.3923663,40.1070952 L79.1895476,40.1070952 L79.1895476,32.906329 L82.3923663,32.906329 L82.3923663,40.1070952 Z M86.3885974,30.4135188 L61.8861589,30.4135188 L61.8861589,29.7964866 L86.3885974,29.7964866 L86.3885974,30.4135188 Z M83.3549621,27.3283576 L64.931462,27.3283576 L64.931462,25.9153538 L83.360796,25.9153538 L83.3549621,27.3283576 Z" id="Shape"></path>
                                    <path d="M98.7214914,72.4580952 C98.0770951,72.4580952 97.5547086,73.0106047 97.5547086,73.6921596 L97.5547086,98.6696245 C97.5547086,99.3511794 98.0770951,99.9036889 98.7214914,99.9036889 L122.990573,99.9036889 C123.63497,99.9036889 124.157356,99.3511794 124.157356,98.6696245 L124.157356,86.773243 C124.354027,86.4079348 124.354027,85.9600196 124.157356,85.5947114 L124.157356,73.6921596 C124.157356,73.0106047 123.63497,72.4580952 122.990573,72.4580952 L98.7214914,72.4580952 Z M114.688914,74.9262241 L114.688914,97.43556 L107.163165,97.43556 L107.163165,74.9262241 L114.688914,74.9262241 Z M99.8882742,87.4149565 L104.835433,87.4149565 L104.835433,97.43556 L99.8882742,97.43556 L99.8882742,87.4149565 Z M104.835433,84.9468276 L99.8882742,84.9468276 L99.8882742,74.9262241 L104.835433,74.9262241 L104.835433,84.9468276 Z M117.022479,97.43556 L117.022479,87.4149565 L121.817957,87.4149565 L121.817957,97.43556 L117.022479,97.43556 Z M121.817957,84.9468276 L117.022479,84.9468276 L117.022479,74.9262241 L121.817957,74.9262241 L121.817957,84.9468276 Z" id="Shape"></path>
                                    <path d="M51.1167538,85.5885411 L51.1167538,73.6921596 C51.1167538,73.0106047 50.5943673,72.4580952 49.949971,72.4580952 L25.6692213,72.4580952 C25.0248249,72.4580952 24.5024385,73.0106047 24.5024385,73.6921596 L24.5024385,98.6696245 C24.5024385,99.3511794 25.0248249,99.9036889 25.6692213,99.9036889 L49.9383032,99.9036889 C50.5826995,99.9036889 51.105086,99.3511794 51.105086,98.6696245 L51.105086,86.773243 C51.303979,86.4063571 51.303979,85.955427 51.105086,85.5885411 L51.1167538,85.5885411 Z M48.7831882,84.9715089 L43.9818771,84.9715089 L43.9818771,74.9262241 L48.7773543,74.9262241 L48.7831882,84.9715089 Z M34.1283964,74.9262241 L41.6483115,74.9262241 L41.6483115,97.43556 L34.1283964,97.43556 L34.1283964,74.9262241 Z M31.7948309,74.9262241 L31.7948309,84.9468276 L26.836004,84.9468276 L26.836004,74.9262241 L31.7948309,74.9262241 Z M26.836004,87.4149565 L31.7948309,87.4149565 L31.7948309,97.43556 L26.836004,97.43556 L26.836004,87.4149565 Z M43.9702092,97.43556 L43.9702092,87.4149565 L48.7656865,87.4149565 L48.7656865,97.43556 L43.9702092,97.43556 Z" id="Shape"></path>
                                </g>
                            </g>
                        </g>
                    </g>
                </g>
            </g>
        </g>
    </g>
</svg>