<?xml version="1.0" encoding="UTF-8"?>
<svg width="236px" height="73px" viewBox="0 0 236 73" version="1.1" xmlns="http://www.w3.org/2000/svg" xmlns:xlink="http://www.w3.org/1999/xlink">
    <!-- Generator: Sketch 42 (36781) - http://www.bohemiancoding.com/sketch -->
    <title>objets-courants</title>
    <desc>Created with Sketch.</desc>
    <defs></defs>
    <g id="LANDINGS-DESKTOP-HD" stroke="none" stroke-width="1" fill="none" fill-rule="evenodd">
        <g id="Landing-HV-V3-OBJETS" transform="translate(-166.000000, -1309.000000)" fill-rule="nonzero" fill="#FFFFFF">
            <g id="Group-17" transform="translate(166.000000, 1278.000000)">
                <g id="Group-18" transform="translate(0.000000, 31.169591)">
                    <g id="objets-courants">
                        <path d="M63.8305885,25.1035602 C61.5470493,25.0988922 59.2855177,25.5548582 57.1783028,26.4447823 L52.2869162,16.836355 L59.1348574,16.836355 C59.8792537,16.836355 60.482706,17.4466847 60.482706,18.1995644 C60.482706,18.9524441 59.8792537,19.5627737 59.1348574,19.5627737 L57.6783112,19.5627737 C56.9099021,19.5627737 56.2869834,20.1927914 56.2869834,20.9699576 C56.2869834,21.7471238 56.9099021,22.3771415 57.6783112,22.3771415 L59.1348574,22.3771415 C61.4160719,22.3771415 63.2653616,20.5067765 63.2653616,18.1995644 C63.2653616,15.8923522 61.4160719,14.0219872 59.1348574,14.0219872 L50.0042691,14.0219872 C49.5206305,14.0223892 49.0718961,14.2767794 48.8191648,14.6938297 C48.5664335,15.1108801 48.5459689,15.6307496 48.7651179,16.0668013 L51.1999414,20.8380341 L31.1343867,20.8380341 L29.1126136,16.8143677 L32.28658,16.8143677 C33.0549891,16.8143677 33.6779077,16.1843501 33.6779077,15.4071839 C33.6779077,14.6300177 33.0549891,14 32.28658,14 L23.1559917,14 C22.3875826,14 21.764664,14.6300177 21.764664,15.4071839 C21.764664,16.1843501 22.3875826,16.8143677 23.1559917,16.8143677 L25.9821262,16.8143677 L28.6778237,22.1792562 L25.5038573,27.1483743 C18.7952757,23.4609641 10.4884586,24.6693166 5.07928368,30.1194382 C-0.329891238,35.5695597 -1.55610727,43.9664039 2.06429741,50.7653679 C5.68470208,57.5643319 13.2914546,61.1498603 20.7675714,59.5813665 C28.2436881,58.0128727 33.8127101,51.6630589 34.4605296,43.9686189 L38.5475548,43.9686189 L36.9605716,49.1795967 L36.0475128,49.1795967 C35.2791037,49.1795967 34.656185,49.8096143 34.656185,50.5867805 C34.656185,51.3639467 35.2791037,51.9939644 36.0475128,51.9939644 L41.0475968,51.9939644 C41.8160059,51.9939644 42.4389246,51.3639467 42.4389246,50.5867805 C42.4389246,49.8096143 41.8160059,49.1795967 41.0475968,49.1795967 L39.8736641,49.1795967 L41.6997817,43.1550907 L53.2651935,25.0815729 L54.6130423,27.7200427 C47.3052213,32.3226487 44.4678074,41.6677233 47.962023,49.6252972 C51.4562385,57.582871 60.2137029,61.7198612 68.4898941,59.3225791 C76.7660852,56.925297 82.0305009,48.726728 80.8299094,40.104783 C79.6293179,31.4828379 72.3308084,25.0737355 63.721891,25.0815729 L63.8305885,25.1035602 Z M30.1343699,25.1035602 L38.2432019,41.1982257 L34.4605296,41.1982257 C34.122908,36.2920365 31.7548669,31.7574497 27.9386808,28.7094689 L30.1343699,25.1035602 Z M31.7430926,41.1542512 L19.8950674,41.1542512 L26.4169161,31.0840916 C29.4851497,33.5797637 31.4161017,37.2316363 31.7648321,41.1982257 L31.7430926,41.1542512 Z M17.3298068,57.2049422 C11.3324162,57.1876792 5.96637985,53.432497 3.83638412,47.7621697 C1.7063884,42.0918423 3.25341424,35.6803188 7.72653175,31.6397674 C12.1996493,27.5992159 18.6727723,26.7661669 24.0038321,29.5449843 L16.1776136,41.7918814 C15.8851677,42.2264709 15.8566172,42.7896887 16.1035851,43.2522488 C16.350553,43.7148089 16.8318524,43.9995701 17.3515463,43.9906062 L31.7648321,43.9906062 C31.0279952,51.4850724 24.7981053,57.1967373 17.3515463,57.2049422 L17.3298068,57.2049422 Z M40.6562859,39.7470673 L32.547454,23.6084273 L50.960807,23.6084273 L40.6562859,39.7470673 Z M63.8305885,57.2049422 C57.3818635,57.2307969 51.6935893,52.9399226 49.8794194,46.6810625 C48.0652494,40.4222023 50.5625597,33.7042975 56.00437,30.2046017 L60.5479246,38.9995009 C60.9021132,39.6916645 61.7440267,39.9623752 62.428391,39.6041502 C63.1127553,39.2459251 63.3804157,38.3944169 63.0262272,37.7022533 L58.4391935,28.9073541 C63.8547816,26.7327969 70.0315425,28.0535334 74.1135241,32.2588942 C78.1955057,36.4642549 79.3872172,42.7347049 77.1376464,48.1709732 C74.8880756,53.6072415 69.6356156,57.1499157 63.808849,57.1609677 L63.8305885,57.2049422 Z" id="Shape"></path>
                        <g id="Icon_Fichier-2Smartphone" transform="translate(108.000000, 0.000000)">
                            <g id="190ae0f8-2409-4618-848d-bcf062445bd8">
                                <g>
                                    <g id="27d74645-a24a-4859-bfc1-86438e0d83c4">
                                        <path d="M33.3347348,7.81787335e-16 L6.98348824,7.81787335e-16 C3.12847788,0.00452783718 0.00449564349,3.15088118 0,7.0334976 L0,65.7336224 C0.00449564349,69.6162389 3.12847788,72.7625922 6.98348824,72.76712 L33.3347348,72.76712 C37.1897451,72.7625922 40.3137274,69.6162389 40.318223,65.7336224 L40.318223,7.0334976 C40.3137274,3.15088118 37.1897451,0.00452783718 33.3347348,0 L33.3347348,7.81787335e-16 Z M2.4474842,13.3521421 L37.8707388,13.3521421 L37.8707388,57.065001 L2.4474842,57.065001 L2.4474842,13.3521421 Z M6.98348824,2.46501084 L33.3347348,2.46501084 C35.8380383,2.46953324 37.8662486,4.51226765 37.8707388,7.0334976 L37.8707388,10.8871312 L2.4474842,10.8871312 L2.4474842,7.0334976 C2.45197444,4.51226765 4.48018466,2.46953324 6.98348824,2.46501084 L6.98348824,2.46501084 Z M33.3347348,70.3267593 L6.98348824,70.3267593 C5.77688347,70.3245854 4.62067656,69.8391808 3.76977547,68.9775622 C2.91887437,68.1159437 2.44314975,66.9488619 2.4474842,65.7336224 L2.4474842,59.5382285 L37.8707388,59.5382285 L37.8707388,65.7336224 C37.8750733,66.9488619 37.3993486,68.1159437 36.5484475,68.9775622 C35.6975464,69.8391808 34.5413395,70.3245854 33.3347348,70.3267593 L33.3347348,70.3267593 Z" id="Shape"></path>
                                        <path d="M17.0263317,7.44433274 L23.2918913,7.44433274 C23.9677454,7.44433274 24.5156334,6.89252127 24.5156334,6.21182732 C24.5156334,5.53113337 23.9677454,4.9793219 23.2918913,4.9793219 L17.0263317,4.9793219 C16.3504776,4.9793219 15.8025896,5.53113337 15.8025896,6.21182732 C15.8025896,6.89252127 16.3504776,7.44433274 17.0263317,7.44433274 Z" id="Shape"></path>
                                        <path d="M20.2651692,61.3376864 C16.3818276,61.3376864 15.8025896,63.5151127 15.8025896,64.8133517 C15.8025896,66.1115908 16.3818276,68.289017 20.2651692,68.289017 C24.1485107,68.289017 24.7277487,66.1115908 24.7277487,64.8133517 C24.7277487,63.5151127 24.1485107,61.3376864 20.2651692,61.3376864 Z M20.2651692,65.8322229 C18.2500738,65.8322229 18.2500738,65.248837 18.2500738,64.8215684 C18.2500738,64.3942999 18.2500738,63.810914 20.2651692,63.810914 C22.2802645,63.810914 22.2802645,64.3942999 22.2802645,64.8215684 C22.2802645,65.248837 22.2802645,65.8322229 20.2651692,65.8322229 Z" id="Shape"></path>
                                    </g>
                                </g>
                            </g>
                        </g>
                        <g id="Icon_Fichier-1Camera" transform="translate(175.000000, 12.000000)">
                            <g id="98a6a62d-7f0b-450c-b459-1456a1b1183d">
                                <g>
                                    <g id="c2cb425f-19cc-4e47-882c-a840dd7d45c0">
                                        <path d="M56.4894366,7.74981818 L53.9635211,7.74981818 L53.9635211,7.04290909 C53.9588032,5.43503855 52.6768092,4.13279249 51.0939437,4.128 L47.7432394,4.128 C46.1603739,4.13279249 44.8783799,5.43503855 44.873662,7.04290909 L44.873662,7.74981818 L42.1587324,7.74981818 L39.1516901,1.51854545 C38.749447,0.604485263 37.860521,0.0115925922 36.8749296,0 L23.8587324,0 C22.873141,0.0115925922 21.9842149,0.604485263 21.5819718,1.51854545 L18.5749296,7.74981818 L15.2757746,7.74981818 L15.2757746,7.31345455 C15.2757746,5.86747265 14.1218044,4.69527273 12.6983099,4.69527273 L8.15338028,4.69527273 C6.72988579,4.69527273 5.57591549,5.86747265 5.57591549,7.31345455 L5.57591549,7.74981818 L4.24422535,7.74981818 C1.90852428,7.77817445 0.0231918692,9.69716681 0,12.0698182 L0,43.4181818 C0.0278248064,45.7874258 1.91182705,47.7011902 4.24422535,47.7294545 L56.4808451,47.7294545 C58.8132434,47.7011902 60.6972456,45.7874258 60.7250704,43.4181818 L60.7250704,12.0698182 C60.7019717,9.70051505 58.8217806,7.78287387 56.4894366,7.74981818 Z M46.8583099,7.04290909 C46.8583099,6.56091513 47.2429666,6.17018182 47.7174648,6.17018182 L51.068169,6.17018182 C51.5426672,6.17018182 51.9273239,6.56091513 51.9273239,7.04290909 L51.9273239,7.74981818 L46.7723944,7.74981818 L46.8583099,7.04290909 Z M7.56915493,7.31345455 C7.56915493,6.98569865 7.83072153,6.72 8.15338028,6.72 L12.7069014,6.72 C13.0295602,6.72 13.2911268,6.98569865 13.2911268,7.31345455 L13.2911268,7.74981818 L7.56915493,7.74981818 L7.56915493,7.31345455 Z M58.7490141,43.4181818 C58.7490141,44.6858259 57.7373668,45.7134545 56.4894366,45.7134545 L4.24422535,45.7134545 C2.99629518,45.7134545 1.98464789,44.6858259 1.98464789,43.4181818 L1.98464789,12.0698182 C1.98464789,10.8021741 2.99629518,9.77454545 4.24422535,9.77454545 L19.1935211,9.77454545 C19.5610013,9.76094057 19.8912482,9.54288899 20.0526761,9.20727273 L23.3690141,2.40872727 C23.4978873,2.14690909 23.6611268,2.016 23.8587324,2.016 L36.8749296,2.016 C37.1007712,2.03571392 37.2933567,2.19015695 37.3646479,2.40872727 L40.6466197,9.20727273 C40.8080476,9.54288899 41.1382945,9.76094057 41.5057746,9.77454545 L56.4550704,9.77454545 C57.7030006,9.77454545 58.7146479,10.8021741 58.7146479,12.0698182 L58.7490141,43.4181818 Z" id="Shape"></path>
                                        <path d="M36.0157746,15.456 L11.7188732,15.456 C10.1008345,15.456 8.78915493,16.7884006 8.78915493,18.432 L8.78915493,37.056 C8.78915493,38.6995994 10.1008345,40.032 11.7188732,40.032 L36.0157746,40.032 C36.7927843,40.032 37.5379696,39.718458 38.0873983,39.1603498 C38.6368271,38.6022415 38.945493,37.8452843 38.945493,37.056 L38.945493,18.432 C38.945493,16.7884006 37.6338134,15.456 36.0157746,15.456 Z M36.943662,37.056 C36.943662,37.5813734 36.5243861,38.0072727 36.0071831,38.0072727 L11.7188732,38.0072727 C11.2055162,37.9979586 10.7915636,37.5774667 10.7823944,37.056 L10.7823944,18.432 C10.7754338,18.1752016 10.8710168,17.9264605 11.0474007,17.7423589 C11.2237847,17.5582572 11.4659727,17.4544481 11.7188732,17.4545455 L36.0157746,17.4545455 C36.2671816,17.4567914 36.5071406,17.5616293 36.6816578,17.7454692 C36.8561751,17.929309 36.9505914,18.1767086 36.943662,18.432 L36.943662,37.056 Z" id="Shape"></path>
                                        <path d="M48.8171831,22.9963636 C49.0844676,23.0010455 49.3423986,22.8964565 49.533034,22.7060917 C49.7236695,22.5157268 49.8310257,22.2555473 49.8309859,21.984 L49.8309859,20.2385455 C49.7832574,19.718063 49.3532682,19.3200761 48.838662,19.3200761 C48.3240558,19.3200761 47.8940665,19.718063 47.846338,20.2385455 L47.846338,21.984 C47.8461572,22.5330459 48.2768565,22.9821642 48.8171831,22.9963636 Z" id="Shape"></path>
                                        <path d="M49.8309859,28.5730909 C49.8660629,28.1905734 49.6849698,27.8208469 49.3634506,27.6185532 C49.0419313,27.4162596 48.6353926,27.4162596 48.3138734,27.6185532 C47.9923541,27.8208469 47.811261,28.1905734 47.846338,28.5730909 L47.846338,30.3185455 C47.8940665,30.8390279 48.3240558,31.2370148 48.838662,31.2370148 C49.3532682,31.2370148 49.7832574,30.8390279 49.8309859,30.3185455 L49.8309859,28.5730909 Z" id="Shape"></path>
                                        <path d="M52.0561972,26.2865455 L53.774507,26.2865455 C54.2868951,26.238063 54.6786927,25.801281 54.6786927,25.2785455 C54.6786927,24.7558099 54.2868951,24.3190279 53.774507,24.2705455 L52.0561972,24.2705455 C51.5438091,24.3190279 51.1520115,24.7558099 51.1520115,25.2785455 C51.1520115,25.801281 51.5438091,26.238063 52.0561972,26.2865455 L52.0561972,26.2865455 Z" id="Shape"></path>
                                        <path d="M43.8856338,26.2865455 L45.6039437,26.2865455 C45.9805124,26.3221766 46.3444891,26.1382227 46.5436367,25.8116243 C46.7427843,25.4850259 46.7427843,25.072065 46.5436367,24.7454666 C46.3444891,24.4188682 45.9805124,24.2349143 45.6039437,24.2705455 L43.8856338,24.2705455 C43.3732458,24.3190279 42.9814481,24.7558099 42.9814481,25.2785455 C42.9814481,25.801281 43.3732458,26.238063 43.8856338,26.2865455 Z" id="Shape"></path>
                                        <path d="M26.9087324,9.77454545 L33.8335211,9.77454545 C34.6591479,9.77454545 35.3284507,9.0946695 35.3284507,8.256 L35.3284507,5.76 C35.3284507,4.9213305 34.6591479,4.24145455 33.8335211,4.24145455 L26.9087324,4.24145455 C26.5107659,4.23913121 26.1283138,4.39809412 25.8460992,4.68312884 C25.5638846,4.96816356 25.4052047,5.35574004 25.4052113,5.76 L25.4052113,8.24727273 C25.4029088,8.6530431 25.5605756,9.04287126 25.8430412,9.32979901 C26.1255067,9.61672676 26.5092724,9.77688425 26.9087324,9.77454545 Z M27.3984507,6.28363636 L33.3352113,6.28363636 L33.3352113,7.74981818 L27.3984507,7.74981818 L27.3984507,6.28363636 Z" id="Shape"></path>
                                        <path d="M5.71338028,18.4058182 L4.85422535,18.4058182 C4.3418373,18.4543006 3.95003968,18.8910826 3.95003968,19.4138182 C3.95003968,19.9365538 4.3418373,20.3733357 4.85422535,20.4218182 L5.71338028,20.4218182 C6.22576833,20.3733357 6.61756595,19.9365538 6.61756595,19.4138182 C6.61756595,18.8910826 6.22576833,18.4543006 5.71338028,18.4058182 L5.71338028,18.4058182 Z" id="Shape"></path>
                                        <path d="M5.71338028,23.9563636 L4.85422535,23.9563636 C4.3418373,24.0048461 3.95003968,24.4416281 3.95003968,24.9643636 C3.95003968,25.4870992 4.3418373,25.9238812 4.85422535,25.9723636 L5.71338028,25.9723636 C6.22576833,25.9238812 6.61756595,25.4870992 6.61756595,24.9643636 C6.61756595,24.4416281 6.22576833,24.0048461 5.71338028,23.9563636 L5.71338028,23.9563636 Z" id="Shape"></path>
                                        <path d="M5.71338028,29.5069091 L4.85422535,29.5069091 C4.3418373,29.5553915 3.95003968,29.9921735 3.95003968,30.5149091 C3.95003968,31.0376447 4.3418373,31.4744266 4.85422535,31.5229091 L5.71338028,31.5229091 C6.22576833,31.4744266 6.61756595,31.0376447 6.61756595,30.5149091 C6.61756595,29.9921735 6.22576833,29.5553915 5.71338028,29.5069091 L5.71338028,29.5069091 Z" id="Shape"></path>
                                        <path d="M5.71338028,35.0574545 L4.85422535,35.0574545 C4.3418373,35.105937 3.95003968,35.542719 3.95003968,36.0654545 C3.95003968,36.5881901 4.3418373,37.0249721 4.85422535,37.0734545 L5.71338028,37.0734545 C6.22576833,37.0249721 6.61756595,36.5881901 6.61756595,36.0654545 C6.61756595,35.542719 6.22576833,35.105937 5.71338028,35.0574545 Z" id="Shape"></path>
                                        <path d="M46.9356338,38.0072727 L43.5935211,38.0072727 C43.0811331,38.0557552 42.6893355,38.4925371 42.6893355,39.0152727 C42.6893355,39.5380083 43.0811331,39.9747903 43.5935211,40.0232727 L46.9356338,40.0232727 C47.4480219,39.9747903 47.8398195,39.5380083 47.8398195,39.0152727 C47.8398195,38.4925371 47.4480219,38.0557552 46.9356338,38.0072727 Z" id="Shape"></path>
                                        <path d="M54.0494366,38.0072727 L50.6901408,38.0072727 C50.3135721,37.9716416 49.9495955,38.1555955 49.7504478,38.4821939 C49.5513002,38.8087923 49.5513002,39.2217532 49.7504478,39.5483516 C49.9495955,39.87495 50.3135721,40.0589039 50.6901408,40.0232727 L54.0322535,40.0232727 C54.4088222,40.0589039 54.7727989,39.87495 54.9719466,39.5483516 C55.1710942,39.2217532 55.1710942,38.8087923 54.9719466,38.4821939 C54.7727989,38.1555955 54.4088222,37.9716416 54.0322535,38.0072727 L54.0494366,38.0072727 Z" id="Shape"></path>
                                    </g>
                                </g>
                            </g>
                        </g>
                    </g>
                </g>
            </g>
        </g>
    </g>
</svg>