<?xml version="1.0" encoding="UTF-8" standalone="no"?>
<svg width="423px" height="160px" viewBox="0 0 423 160" version="1.1" xmlns="http://www.w3.org/2000/svg" xmlns:xlink="http://www.w3.org/1999/xlink">
    <!-- Generator: Sketch 42 (36781) - http://www.bohemiancoding.com/sketch -->
    <title>OBJETS</title>
    <desc>Created with Sketch.</desc>
    <defs></defs>
    <g id="Page-1" stroke="none" stroke-width="1" fill="none" fill-rule="evenodd">
        <g id="OBJETS" fill-rule="nonzero" fill="#FFFFFF">
            <g transform="translate(51.000000, 68.000000)">
                <path d="M209.047611,30.2070498 C205.861933,30.2006567 202.706957,30.8251318 199.767262,32.043941 L192.943476,18.8845731 L202.496776,18.8845731 C203.535255,18.8845732 204.377108,19.7204594 204.377108,20.7515773 C204.377108,21.7826951 203.535255,22.6185813 202.496776,22.6185814 L200.464804,22.6185814 C199.392826,22.6185814 198.523816,23.4814317 198.523816,24.5458115 C198.523816,25.6101913 199.392826,26.4730416 200.464804,26.4730416 L202.496776,26.4730416 C205.679211,26.4730416 208.259085,23.9114547 208.259085,20.7515773 C208.259085,17.5916998 205.679211,15.030113 202.496776,15.030113 L189.759042,15.030113 C189.084336,15.0306635 188.458324,15.3790674 188.105748,15.9502451 C187.753173,16.5214228 187.724623,17.2334179 188.03035,17.8306192 L191.427079,24.3651337 L163.434391,24.3651337 L160.613893,18.8544602 L165.041772,18.8544602 C166.11375,18.8544602 166.98276,17.9916099 166.98276,16.9272301 C166.98276,15.8628503 166.11375,15 165.041772,15 L152.304038,15 C151.23206,15 150.36305,15.8628503 150.36305,16.9272301 C150.36305,17.9916099 151.23206,18.8544602 152.304038,18.8544602 L156.24667,18.8544602 L160.007334,26.2020248 L155.579455,33.007556 C146.22057,27.9574074 134.632047,29.612325 127.085914,37.0766218 C119.539781,44.5409187 117.829134,56.0409445 122.879822,65.3525691 C127.93051,74.6641937 138.5424,79.5748086 148.972044,77.4266541 C159.401688,75.2784995 167.170818,66.5820154 168.074566,56.0439781 L173.776218,56.0439781 L171.562279,63.180752 L170.288505,63.180752 C169.216527,63.180752 168.347517,64.0436023 168.347517,65.107982 C168.347517,66.1723618 169.216527,67.0352121 170.288505,67.0352121 L177.263931,67.0352121 C178.33591,67.0352121 179.204919,66.1723618 179.204919,65.107982 C179.204919,64.0436023 178.33591,63.180752 177.263931,63.180752 L175.626223,63.180752 L178.17377,54.9297982 L194.308233,30.1769369 L196.188565,33.7904933 C185.993704,40.0940624 182.035336,52.8927515 186.909983,63.7911678 C191.784629,74.6895841 204.001832,80.355462 215.54763,77.0722279 C227.093428,73.7889937 234.437612,62.5605188 232.762713,50.7522027 C231.087814,38.9438866 220.905943,30.1662029 208.895971,30.1769369 L209.047611,30.2070498 Z M162.039306,30.2070498 L173.351627,52.2497439 L168.074566,52.2497439 C167.603563,45.5303979 164.3,39.3199855 158.976184,35.1455769 L162.039306,30.2070498 Z M164.283574,52.1895179 L147.754847,52.1895179 L156.853229,38.3977777 C161.133604,41.8157633 163.827401,46.817241 164.313902,52.2497439 L164.283574,52.1895179 Z M144.17615,74.171986 C135.80942,74.1483432 128.323468,69.0053763 125.351993,61.2394932 C122.380517,53.4736102 124.538714,44.6926106 130.778989,39.1588118 C137.019264,33.6250131 146.04967,32.4840982 153.486827,36.2898698 L142.56877,53.062794 C142.160789,53.6579928 142.12096,54.4293562 142.465495,55.0628624 C142.810031,55.6963687 143.481473,56.0863677 144.206478,56.074091 L164.313902,56.074091 C163.285969,66.3382513 154.594888,74.1607489 144.206478,74.171986 L144.17615,74.171986 Z M176.718028,50.2622878 L165.405707,28.1593679 L191.093471,28.1593679 L176.718028,50.2622878 Z M209.047611,74.171986 C200.051242,74.2073957 192.115748,68.3307635 189.584869,59.7588464 C187.05399,51.1869293 190.537892,41.9863205 198.129553,37.1932589 L204.468092,49.2384469 C204.962207,50.1864101 206.136729,50.557166 207.091459,50.0665535 C208.04619,49.5759409 208.419592,48.4097449 207.925477,47.4617816 L201.526282,35.4165936 C209.081362,32.4383957 217.698325,34.2472306 223.392941,40.0067464 C229.087557,45.7662621 230.750068,54.3540524 227.611778,61.7993764 C224.473488,69.2447003 217.145982,74.0966236 209.017283,74.1117601 L209.047611,74.171986 Z" id="Shape"></path>
                <g id="Icon_Fichier-1Camera" transform="translate(0.000000, 12.000000)">
                    <g id="98a6a62d-7f0b-450c-b459-1456a1b1183d">
                        <g>
                            <g id="c2cb425f-19cc-4e47-882c-a840dd7d45c0">
                                <path d="M78.7147887,10.656 L75.1950704,10.656 L75.1950704,9.684 C75.1884962,7.47317801 73.4021111,5.68258968 71.1964789,5.676 L66.5274648,5.676 C64.3218325,5.68258968 62.5354474,7.47317801 62.5288732,9.684 L62.5288732,10.656 L58.7457746,10.656 L54.5556338,2.088 C53.9951311,0.831167237 52.7564636,0.0159398143 51.3830986,0 L33.2457746,0 C31.8724096,0.0159398143 30.6337421,0.831167237 30.0732394,2.088 L25.8830986,10.656 L21.2859155,10.656 L21.2859155,10.056 C21.2859155,8.0677749 19.6779241,6.456 17.6943662,6.456 L11.3612676,6.456 C9.3777097,6.456 7.76971831,8.0677749 7.76971831,10.056 L7.76971831,10.656 L5.91408451,10.656 C2.65941908,10.6949899 0.032316539,13.3336044 0,16.596 L0,59.7 C0.0387722712,62.9577104 2.6640213,65.5891365 5.91408451,65.628 L78.7028169,65.628 C81.9528801,65.5891365 84.5781291,62.9577104 84.6169014,59.7 L84.6169014,16.596 C84.5847147,13.3382082 81.9647762,10.7014516 78.7147887,10.656 Z M65.2943662,9.684 C65.2943662,9.0212583 65.8303633,8.484 66.4915493,8.484 L71.1605634,8.484 C71.8217493,8.484 72.3577465,9.0212583 72.3577465,9.684 L72.3577465,10.656 L65.1746479,10.656 L65.2943662,9.684 Z M10.5471831,10.056 C10.5471831,9.60533564 10.9116611,9.24 11.3612676,9.24 L17.706338,9.24 C18.1559445,9.24 18.5204225,9.60533564 18.5204225,10.056 L18.5204225,10.656 L10.5471831,10.656 L10.5471831,10.056 Z M81.8633803,59.7 C81.8633803,61.4430107 80.4537078,62.856 78.7147887,62.856 L5.91408451,62.856 C4.17516541,62.856 2.76549296,61.4430107 2.76549296,59.7 L2.76549296,16.596 C2.76549296,14.8529893 4.17516541,13.44 5.91408451,13.44 L26.7450704,13.44 C27.2571329,13.4212933 27.7173131,13.1214724 27.9422535,12.66 L32.5633803,3.312 C32.7429577,2.952 32.9704225,2.772 33.2457746,2.772 L51.3830986,2.772 C51.6977959,2.79910664 51.9661528,3.01146581 52.065493,3.312 L56.6387324,12.66 C56.8636728,13.1214724 57.323853,13.4212933 57.8359155,13.44 L78.6669014,13.44 C80.4058205,13.44 81.815493,14.8529893 81.815493,16.596 L81.8633803,59.7 Z" id="Shape"></path>
                                <path d="M50.1859155,21.252 L16.3295775,21.252 C14.0749333,21.252 12.2471831,23.0840508 12.2471831,25.344 L12.2471831,50.952 C12.2471831,53.2119492 14.0749333,55.044 16.3295775,55.044 L50.1859155,55.044 C51.2686338,55.044 52.3070068,54.6128798 53.0726042,53.8454809 C53.8382017,53.0780821 54.2683099,52.0372659 54.2683099,50.952 L54.2683099,25.344 C54.2683099,23.0840508 52.4405596,21.252 50.1859155,21.252 Z M51.4788732,50.952 C51.4788732,51.6743885 50.8946364,52.26 50.1739437,52.26 L16.3295775,52.26 C15.6142439,52.2471931 15.0374247,51.6690167 15.0246479,50.952 L15.0246479,25.344 C15.0149487,24.9909022 15.1481381,24.6488832 15.3939191,24.3957434 C15.6397,24.1426037 15.977175,23.9998662 16.3295775,24 L50.1859155,24 C50.5362367,24.0030882 50.8706057,24.1472403 51.1137855,24.4000201 C51.3569653,24.6527999 51.488529,24.9929744 51.4788732,25.344 L51.4788732,50.952 Z" id="Shape"></path>
                                <path d="M68.0239437,31.62 C68.3963893,31.6264375 68.7558013,31.4826277 69.0214409,31.2208761 C69.2870804,30.9591244 69.4366751,30.6013775 69.4366197,30.228 L69.4366197,27.828 C69.3701128,27.1123367 68.7709474,26.5651046 68.0538732,26.5651046 C67.3367991,26.5651046 66.7376336,27.1123367 66.6711268,27.828 L66.6711268,30.228 C66.6708748,30.9829382 67.2710295,31.6004758 68.0239437,31.62 Z" id="Shape"></path>
                                <path d="M69.4366197,39.288 C69.4854975,38.7620384 69.2331547,38.2536645 68.785136,37.9755107 C68.3371174,37.697357 67.770629,37.697357 67.3226104,37.9755107 C66.8745918,38.2536645 66.6222489,38.7620384 66.6711268,39.288 L66.6711268,41.688 C66.7376336,42.4036633 67.3367991,42.9508954 68.0538732,42.9508954 C68.7709474,42.9508954 69.3701128,42.4036633 69.4366197,41.688 L69.4366197,39.288 Z" id="Shape"></path>
                                <path d="M72.5373239,36.144 L74.9316901,36.144 C75.6456735,36.0773366 76.191621,35.4767614 76.191621,34.758 C76.191621,34.0392386 75.6456735,33.4386634 74.9316901,33.372 L72.5373239,33.372 C71.8233406,33.4386634 71.2773931,34.0392386 71.2773931,34.758 C71.2773931,35.4767614 71.8233406,36.0773366 72.5373239,36.144 L72.5373239,36.144 Z" id="Shape"></path>
                                <path d="M61.1521127,36.144 L63.5464789,36.144 C64.0712058,36.1929928 64.5783864,35.9400562 64.8558872,35.4909834 C65.133388,35.0419107 65.133388,34.4740893 64.8558872,34.0250166 C64.5783864,33.5759438 64.0712058,33.3230072 63.5464789,33.372 L61.1521127,33.372 C60.4381293,33.4386634 59.8921818,34.0392386 59.8921818,34.758 C59.8921818,35.4767614 60.4381293,36.0773366 61.1521127,36.144 Z" id="Shape"></path>
                                <path d="M37.4957746,13.44 L47.1450704,13.44 C48.295534,13.44 49.228169,12.5051706 49.228169,11.352 L49.228169,7.92 C49.228169,6.76682944 48.295534,5.832 47.1450704,5.832 L37.4957746,5.832 C36.9412312,5.82880542 36.4083061,6.04737941 36.0150563,6.43930215 C35.6218064,6.83122489 35.4006951,7.36414255 35.4007042,7.92 L35.4007042,11.34 C35.3974959,11.8979343 35.6171955,12.433948 36.0107951,12.8284736 C36.4043946,13.2229993 36.9391501,13.4432158 37.4957746,13.44 Z M38.178169,8.64 L46.4507042,8.64 L46.4507042,10.656 L38.178169,10.656 L38.178169,8.64 Z" id="Shape"></path>
                                <path d="M7.96126761,25.308 L6.76408451,25.308 C6.05010116,25.3746634 5.50415366,25.9752386 5.50415366,26.694 C5.50415366,27.4127614 6.05010116,28.0133366 6.76408451,28.08 L7.96126761,28.08 C8.67525096,28.0133366 9.22119845,27.4127614 9.22119845,26.694 C9.22119845,25.9752386 8.67525096,25.3746634 7.96126761,25.308 L7.96126761,25.308 Z" id="Shape"></path>
                                <path d="M7.96126761,32.94 L6.76408451,32.94 C6.05010116,33.0066634 5.50415366,33.6072386 5.50415366,34.326 C5.50415366,35.0447614 6.05010116,35.6453366 6.76408451,35.712 L7.96126761,35.712 C8.67525096,35.6453366 9.22119845,35.0447614 9.22119845,34.326 C9.22119845,33.6072386 8.67525096,33.0066634 7.96126761,32.94 L7.96126761,32.94 Z" id="Shape"></path>
                                <path d="M7.96126761,40.572 L6.76408451,40.572 C6.05010116,40.6386634 5.50415366,41.2392386 5.50415366,41.958 C5.50415366,42.6767614 6.05010116,43.2773366 6.76408451,43.344 L7.96126761,43.344 C8.67525096,43.2773366 9.22119845,42.6767614 9.22119845,41.958 C9.22119845,41.2392386 8.67525096,40.6386634 7.96126761,40.572 L7.96126761,40.572 Z" id="Shape"></path>
                                <path d="M7.96126761,48.204 L6.76408451,48.204 C6.05010116,48.2706634 5.50415366,48.8712386 5.50415366,49.59 C5.50415366,50.3087614 6.05010116,50.9093366 6.76408451,50.976 L7.96126761,50.976 C8.67525096,50.9093366 9.22119845,50.3087614 9.22119845,49.59 C9.22119845,48.8712386 8.67525096,48.2706634 7.96126761,48.204 Z" id="Shape"></path>
                                <path d="M65.4021127,52.26 L60.7450704,52.26 C60.0310871,52.3266634 59.4851396,52.9272386 59.4851396,53.646 C59.4851396,54.3647614 60.0310871,54.9653366 60.7450704,55.032 L65.4021127,55.032 C66.116096,54.9653366 66.6620435,54.3647614 66.6620435,53.646 C66.6620435,52.9272386 66.116096,52.3266634 65.4021127,52.26 Z" id="Shape"></path>
                                <path d="M75.3147887,52.26 L70.6338028,52.26 C70.1090759,52.2110072 69.6018953,52.4639438 69.3243945,52.9130166 C69.0468937,53.3620893 69.0468937,53.9299107 69.3243945,54.3789834 C69.6018953,54.8280562 70.1090759,55.0809928 70.6338028,55.032 L75.2908451,55.032 C75.815572,55.0809928 76.3227526,54.8280562 76.6002534,54.3789834 C76.8777542,53.9299107 76.8777542,53.3620893 76.6002534,52.9130166 C76.3227526,52.4639438 75.815572,52.2110072 75.2908451,52.26 L75.3147887,52.26 Z" id="Shape"></path>
                            </g>
                        </g>
                    </g>
                </g>
                <g id="Icon_Fichier-2Smartphone" transform="translate(270.000000, 0.000000)">
                    <g id="190ae0f8-2409-4618-848d-bcf062445bd8">
                        <g>
                            <g id="27d74645-a24a-4859-bfc1-86438e0d83c4">
                                <path d="M42.4944,9.72842281e-16 L8.9024,9.72842281e-16 C3.98811604,0.00563436021 0.00573094924,3.9209006 0,8.75235955 L0,81.7977528 C0.00573094924,86.6292118 3.98811604,90.544478 8.9024,90.5501124 L42.4944,90.5501124 C47.408684,90.544478 51.3910691,86.6292118 51.3968,81.7977528 L51.3968,8.75235955 C51.3910691,3.9209006 47.408684,0.00563436021 42.4944,0 L42.4944,9.72842281e-16 Z M3.12,16.6151685 L48.2768,16.6151685 L48.2768,71.0106742 L3.12,71.0106742 L3.12,16.6151685 Z M8.9024,3.06741573 L42.4944,3.06741573 C45.6855573,3.07304332 48.2710759,5.61498576 48.2768,8.75235955 L48.2768,13.5477528 L3.12,13.5477528 L3.12,8.75235955 C3.12572406,5.61498576 5.71124265,3.07304332 8.9024,3.06741573 L8.9024,3.06741573 Z M42.4944,87.5133708 L8.9024,87.5133708 C7.36424629,87.5106656 5.8903387,86.9066367 4.80562836,85.8344539 C3.72091801,84.7622711 3.11447454,83.3099752 3.12,81.7977528 L3.12,74.0883146 L48.2768,74.0883146 L48.2768,81.7977528 C48.2823255,83.3099752 47.675882,84.7622711 46.5911716,85.8344539 C45.5064613,86.9066367 44.0325537,87.5106656 42.4944,87.5133708 L42.4944,87.5133708 Z" id="Shape"></path>
                                <path d="M21.7048,9.26359551 L29.692,9.26359551 C30.5535642,9.26359551 31.252,8.57693111 31.252,7.72988764 C31.252,6.88284418 30.5535642,6.19617978 29.692,6.19617978 L21.7048,6.19617978 C20.8432358,6.19617978 20.1448,6.88284418 20.1448,7.72988764 C20.1448,8.57693111 20.8432358,9.26359551 21.7048,9.26359551 Z" id="Shape"></path>
                                <path d="M25.8336,76.3275281 C20.8832,76.3275281 20.1448,79.0370787 20.1448,80.6525843 C20.1448,82.2680899 20.8832,84.9776404 25.8336,84.9776404 C30.784,84.9776404 31.5224,82.2680899 31.5224,80.6525843 C31.5224,79.0370787 30.784,76.3275281 25.8336,76.3275281 Z M25.8336,81.9204494 C23.2648,81.9204494 23.2648,81.1944944 23.2648,80.662809 C23.2648,80.1311236 23.2648,79.4051685 25.8336,79.4051685 C28.4024,79.4051685 28.4024,80.1311236 28.4024,80.662809 C28.4024,81.1944944 28.4024,81.9204494 25.8336,81.9204494 Z" id="Shape"></path>
                            </g>
                        </g>
                    </g>
                </g>
            </g>
        </g>
    </g>
</svg>