<?xml version="1.0" encoding="UTF-8"?>
<svg width="111px" height="87px" viewBox="0 0 111 87" version="1.1" xmlns="http://www.w3.org/2000/svg" xmlns:xlink="http://www.w3.org/1999/xlink">
    <!-- Generator: Sketch 42 (36781) - http://www.bohemiancoding.com/sketch -->
    <title>Heart2Fichier 2</title>
    <desc>Created with Sketch.</desc>
    <defs></defs>
    <g id="LANDINGS-DESKTOP-HD" stroke="none" stroke-width="1" fill="none" fill-rule="evenodd">
        <g id="Landing-HV-V3-OBJETS" transform="translate(-1070.000000, -1292.000000)" fill-rule="nonzero" fill="#FFFFFF">
            <g id="Group-17" transform="translate(166.000000, 1278.000000)">
                <g id="Group-3" transform="translate(901.024020, 14.385965)">
                    <g id="Heart2Fichier-2" transform="translate(3.399494, 0.000000)">
                        <g id="cc32f94d-680d-4256-9bed-fdec8bb13bb9">
                            <g>
                                <g id="2957574d-3c6c-44cc-8d1a-3d7bef216485">
                                    <path d="M97.1518757,41.4775459 C99.8019347,35.9308627 100.483524,30.3024603 100.259718,27.1767051 C99.857886,21.5585176 98.1386539,16.583868 95.1427138,12.4366241 C94.9239949,12.1148552 94.7001896,11.8237309 94.4712977,11.547929 C91.0124875,7.36493304 85.2901911,2.04297727 77.6095978,0.510744316 C76.0042571,0.196887472 74.372225,0.0412227161 72.7367446,0.0459669885 C68.2530753,0.0872023054 63.8487154,1.2380014 59.9137143,3.3964497 C58.3381338,4.23871508 56.8327439,5.20715904 55.4121745,6.29236998 L54.9340449,6.63967611 L54.4762612,6.29747742 C51.7765139,4.25901667 48.8016192,2.61668501 45.6410356,1.4198692 C43.0903119,0.471119642 40.3905954,-0.00980793668 37.6705126,4.78811327e-14 C33.2134104,0.0302373131 28.837308,1.1990767 24.9542985,3.3964497 C20.3096182,6.01399863 16.3964077,9.76416754 13.5758302,14.3008409 C11.6480521,17.5440673 10.4730739,21.2367487 9.88812808,25.9253815 C9.25740386,30.9970726 10.1322794,36.3701028 12.568706,42.3560262 L13.0010573,43.4132669 L0,43.4132669 L0,46.8454687 L15.1577272,46.8454687 L15.386619,47.1519153 C20.0865318,53.3932108 29.8831031,63.3833697 33.8709079,67.3876051 C38.596253,72.1273124 43.2453009,76.5810028 46.9686084,79.9723451 C53.4640505,85.8663345 54.2829747,85.8663345 55.0001692,85.8663345 C55.6410664,85.8663345 56.3023095,85.8663345 61.1039519,81.7446278 C64.0693731,79.1909063 67.7163833,75.8097789 71.3939124,72.2141389 C76.8924034,66.8308938 87.1620179,56.3095609 94.2576653,46.3551542 L94.4865572,46.0333852 L109.974906,46.0333852 L109.974906,42.5756462 L96.6127082,42.5756462 L97.1518757,41.4775459 Z M89.3237743,47.2438493 C78.4539545,61.4527562 60.4579683,78.3022111 55.4477799,81.9182809 L54.9950827,82.2451573 L54.547472,81.9131735 C51.9533643,79.9978823 44.8424574,73.5727188 35.3409022,63.9911554 C29.2371194,57.8622236 23.9929527,52.2031766 20.5239695,48.0916848 L19.460894,46.8301464 L36.7549452,46.8301464 L39.2015448,40.7931486 L47.812965,64.7317347 L55.3663962,33.5303644 L63.2148435,59.2463407 L68.9371398,45.9669885 L90.2596876,45.9669885 L89.3237743,47.2438493 Z M92.8843142,42.2028029 L92.6605088,42.5756462 L66.7194321,42.5756462 L63.7896164,49.3583307 L54.9899962,20.5727811 L47.1720678,52.8518219 L39.3897448,31.2115852 L34.4507672,43.4132669 L16.8973053,43.4132669 L16.6734999,43.045531 C16.4944999,42.7586083 16.3347684,42.4600107 16.1953703,42.1517284 C13.6521274,36.2832762 12.6856952,31.1145438 13.280814,26.3544067 C13.7894626,22.1560884 14.8067597,18.8873248 16.5107324,16.0629088 C19.018109,12.0407238 22.4939592,8.71742011 26.6175793,6.39962628 C29.991471,4.48483981 33.795136,3.4636549 37.6705126,3.43220181 C39.9842386,3.42325841 42.2807677,3.83152094 44.450798,4.63755839 C47.8761951,5.93745779 51.0590785,7.80740132 53.8658829,10.1689193 L54.9696503,11.0831517 L56.0632447,10.1587045 C57.7395805,8.72424912 59.5641772,7.47430191 61.5057843,6.43027094 C66.5922699,3.7386484 71.8313502,2.85506073 76.9534412,3.87654936 C83.6472563,5.21469947 88.7388284,9.96462161 91.8364982,13.7134849 C92.0094387,13.9228901 92.1772927,14.1425101 92.3451467,14.3723451 L92.3756656,14.4132046 C94.9952057,18.0343818 96.505892,22.4012457 96.861946,27.3963251 C97.0145405,29.9245095 96.4194217,36.2628465 92.8792277,42.2028029 L92.8843142,42.2028029 Z" id="Shape"></path>
                                </g>
                            </g>
                        </g>
                    </g>
                </g>
            </g>
        </g>
    </g>
</svg>