<?xml version="1.0" encoding="UTF-8" standalone="no"?>
<svg width="47px" height="86px" viewBox="0 0 47 86" version="1.1" xmlns="http://www.w3.org/2000/svg" xmlns:xlink="http://www.w3.org/1999/xlink">
    <!-- Generator: Sketch 42 (36781) - http://www.bohemiancoding.com/sketch -->
    <title>Icon_Fichier 2Smartphone</title>
    <desc>Created with Sketch.</desc>
    <defs></defs>
    <g id="Page-1" stroke="none" stroke-width="1" fill="none" fill-rule="evenodd">
        <g id="FACEBOOK-ADS-:-inventaire" transform="translate(-676.000000, -374.000000)" fill-rule="nonzero" fill="#FFFFFF">
            <g id="Group-6-Copy" transform="translate(-243.000000, 2.000000)">
                <g id="Group" transform="translate(717.857143, 372.220588)">
                    <g id="Icon_Fichier-2Smartphone" transform="translate(201.823267, 0.333020)">
                        <g id="190ae0f8-2409-4618-848d-bcf062445bd8">
                            <g>
                                <g id="27d74645-a24a-4859-bfc1-86438e0d83c4">
                                    <path d="M38.1537044,9.13277847e-16 L7.99304233,9.13277847e-16 C3.58074006,0.00528938396 0.00514554725,3.68083473 0,8.21647685 L0,76.7895033 C0.00514554725,81.3251454 3.58074006,85.0006908 7.99304233,85.0059802 L38.1537044,85.0059802 C42.5660067,85.0006908 46.1416012,81.3251454 46.1467467,76.7895033 L46.1467467,8.21647685 C46.1416012,3.68083473 42.5660067,0.00528938396 38.1537044,0 L38.1537044,9.13277847e-16 Z M2.80129988,15.5978679 L43.3454468,15.5978679 L43.3454468,66.6628876 L2.80129988,66.6628876 L2.80129988,15.5978679 Z M7.99304233,2.87960637 L38.1537044,2.87960637 C41.0188931,2.8848894 43.3403075,5.27119575 43.3454468,8.21647685 L43.3454468,12.7182615 L2.80129988,12.7182615 L2.80129988,8.21647685 C2.80643925,5.27119575 5.12785365,2.8848894 7.99304233,2.87960637 L7.99304233,2.87960637 Z M38.1537044,82.1551699 L7.99304233,82.1551699 C6.61200714,82.1526303 5.28865548,81.5855844 4.31474556,80.5790484 C3.34083564,79.5725123 2.79633883,78.2091366 2.80129988,76.7895033 L2.80129988,69.5520926 L43.3454468,69.5520926 L43.3454468,76.7895033 C43.3504079,78.2091366 42.8059111,79.5725123 41.8320012,80.5790484 C40.8580912,81.5855844 39.5347396,82.1526303 38.1537044,82.1551699 L38.1537044,82.1551699 Z" id="Shape"></path>
                                    <path d="M19.4877095,8.69641125 L26.6590372,8.69641125 C27.4325948,8.69641125 28.0596872,8.05178941 28.0596872,7.25660806 C28.0596872,6.46142672 27.4325948,5.81680488 26.6590372,5.81680488 L19.4877095,5.81680488 C18.7141519,5.81680488 18.0870596,6.46142672 18.0870596,7.25660806 C18.0870596,8.05178941 18.7141519,8.69641125 19.4877095,8.69641125 Z" id="Shape"></path>
                                    <path d="M23.194763,71.6542053 C18.7500339,71.6542053 18.0870596,74.1978576 18.0870596,75.7144503 C18.0870596,77.231043 18.7500339,79.7746953 23.194763,79.7746953 C27.6394922,79.7746953 28.3024665,77.231043 28.3024665,75.7144503 C28.3024665,74.1978576 27.6394922,71.6542053 23.194763,71.6542053 Z M23.194763,76.9046876 C20.8883595,76.9046876 20.8883595,76.2231807 20.8883595,75.724049 C20.8883595,75.2249172 20.8883595,74.5434103 23.194763,74.5434103 C25.5011666,74.5434103 25.5011666,75.2249172 25.5011666,75.724049 C25.5011666,76.2231807 25.5011666,76.9046876 23.194763,76.9046876 Z" id="Shape"></path>
                                </g>
                            </g>
                        </g>
                    </g>
                </g>
            </g>
        </g>
    </g>
</svg>