<?xml version="1.0" encoding="UTF-8" standalone="no"?>
<svg width="158px" height="96px" viewBox="0 0 158 96" version="1.1" xmlns="http://www.w3.org/2000/svg" xmlns:xlink="http://www.w3.org/1999/xlink">
    <!-- Generator: Sketch 42 (36781) - http://www.bohemiancoding.com/sketch -->
    <title>thiefFichier 2</title>
    <desc>Created with Sketch.</desc>
    <defs></defs>
    <g id="Page-1" stroke="none" stroke-width="1" fill="none" fill-rule="evenodd">
        <g id="FACEBOOK-ADS-:-inventaire-Copy-2" transform="translate(-536.000000, -418.000000)">
            <g id="Group-6-Copy" transform="translate(-252.000000, -5.000000)">
                <g id="thiefFichier-2" transform="translate(788.000000, 423.000000)">
                    <g id="fe1fb3f8-3199-43ab-9d7a-cbd20453ac1a">
                        <g>
                            <g id="26d3ce62-136b-4a98-b5f1-dda9076f0ee3">
                                <path d="M15.1808897,7.86253473e-16 L142.178283,7.86253473e-16 C146.421945,-4.33751316e-07 149.862673,3.16866026 149.864672,7.07860588 L149.864672,85.3969418 C149.864672,85.4522115 149.816043,85.4970164 149.756056,85.4970164 L7.60311674,85.4970164 C7.5431298,85.4970164 7.49450078,85.4522115 7.49450078,85.3969418 L7.49450078,7.08527752 C7.49354026,5.2064519 8.30292987,3.40427521 9.74451154,2.07543195 C11.1860932,0.746588687 13.1417052,-2.0842824e-07 15.1808897,0 L15.1808897,7.86253473e-16 Z" id="08a0c116-4b53-4c69-948d-2aef5544f34f"></path>
                                <path d="M157.485644,92.0685779 L157.485644,92.0685779 C157.486635,92.4508468 157.380519,92.8309924 157.170905,93.1960844 C157.380519,92.8309924 157.486635,92.4508468 157.485644,92.0685779 L157.485644,92.0685779 Z" id="73641592-801f-45af-8a92-ebd4c3007a34" fill="#FFFFFF" fill-rule="nonzero"></path>
                                <path d="M103.655825,88.6126704 C102.709432,89.3362533 101.518535,89.7326781 100.28873,89.7335053 L60.9697552,89.7335053 C58.3551591,89.7308254 56.1321295,87.9742027 55.7308457,85.5937551 L2.19404226,85.5937551 L2.19404226,92.085257 C2.19404226,93.070899 3.06125976,93.8699196 4.13102676,93.8699196 L153.239008,93.8699196 C154.308775,93.8699196 155.175992,93.070899 155.175992,92.085257 L155.175992,85.5970909 L105.524019,85.5970909 C105.352441,86.6215974 104.831252,87.5691533 104.035981,88.3024393 C103.910469,88.3958422 103.78375,88.4992526 103.655825,88.6126704 Z" id="1c5b97a1-1043-4c3f-900d-e4ff868fb8b8"></path>
                                <polygon id="0eb3379a-861c-406d-baa0-e241cb465432" fill="#FFFFFF" fill-rule="nonzero" points="55.8467027 83.5689135 0 83.5689135 0 83.5689135"></polygon>
                                <polygon id="f632a1f3-ed3a-4c2c-87b7-2eecab5edafa" fill="#FFFFFF" fill-rule="nonzero" points="105.397301 83.5689135 105.397301 83.5689135 157.355552 83.5689135 157.355552 83.5689135"></polygon>
                                <path d="M157.411999,93.1927486 C157.280633,93.4437068 157.102793,93.6866208 156.881263,93.9176891 C157.102793,93.6866208 157.280633,93.4437068 157.411999,93.1927486 L157.411999,93.1927486 Z" id="ad2ac795-f314-440b-a19e-033ed3970452" fill="#000000" fill-rule="nonzero"></path>
                                <path d="M153.239008,95.8547314 L4.1237857,95.8547314 C2.75433485,95.8571637 1.4732323,95.2319739 0.706003697,94.1868224 C1.4732323,95.2319739 2.75433485,95.8571637 4.1237857,95.8547314 L153.239008,95.8547314 C154.749706,95.8553405 156.1394,95.0934966 156.859539,93.8699196 C156.1394,95.0934966 154.749706,95.8553405 153.239008,95.8547314 L153.239008,95.8547314 Z" id="a45f6780-0cf6-45be-bbd7-b359405f6f1f" fill="#000000" fill-rule="nonzero"></path>
                                <path d="M104.025119,88.2790886 C104.82039,87.5458025 105.34158,86.5982467 105.513158,85.5737402 L105.513158,85.5737402 C105.34158,86.5982467 104.82039,87.5458025 104.025119,88.2790886 L104.025119,88.2790886 Z" id="30d983ad-841c-444b-8c96-3efcbef4cba6" fill="#FFFFFF" fill-rule="nonzero"></path>
                                <polygon id="2e3fe1d2-eb9c-4fb4-ae67-3a084ce81a42" fill="#FFFFFF" fill-rule="nonzero" points="103.08016 83.5689135 103.08016 83.5689135 58.1710841 83.5689135 58.1710841 83.5689135"></polygon>
                                <path d="M60.9697552,87.7086637 L100.28873,87.7086637 C101.704889,87.711988 102.943356,86.8304346 103.297392,85.5670685 L57.993678,85.5670685 C58.3446489,86.8196488 59.5657379,87.6983486 60.9697552,87.7086637 Z" id="7001b0f3-eecc-45cc-a3c6-fe39f9bb5f79"></path>
                                <path d="M60.9697552,89.7134904 C59.738707,89.7134406 58.5463899,89.3169697 57.5990401,88.5926555 C58.5463899,89.3169697 59.738707,89.7134406 60.9697552,89.7134904 L100.28873,89.7134904 C101.519778,89.7134406 102.712096,89.3169697 103.659445,88.5926555 C102.712096,89.3169697 101.519778,89.7134406 100.28873,89.7134904 L60.9697552,89.7134904 Z" id="06cfa627-b637-48d5-b72d-74406f27cab5" fill="#FFFFFF" fill-rule="nonzero"></path>
                                <ellipse id="38f7ad0d-263b-4e57-8f2d-36651a03f9a1" fill="#FFFFFF" fill-rule="nonzero" cx="105.444696" cy="83.6072637" rx="0.123426992" ry="0.108402324"></ellipse>
                                <path d="M105.722901,84.8331886 C105.716437,85.072381 105.677245,85.3109872 105.605645,85.5470536 L105.605645,85.5470536 C105.813803,84.8801852 105.746363,84.1966806 105.408162,83.5455628 L105.408162,83.5455628 C105.619766,83.9651631 105.725634,84.3982808 105.722901,84.8331886 Z" id="8407d7c8-c3a3-4847-a919-81157464d585" fill="#FFFFFF" fill-rule="nonzero"></path>
                                <ellipse id="a7072c8b-55cb-4328-85c3-a4803cc92a92" fill="#000000" fill-rule="nonzero" cx="55.8940985" cy="83.6072637" rx="0.123426992" ry="0.108402324"></ellipse>
                                <path d="M57.5954195,88.6126704 C56.5966014,87.8549738 55.9322996,86.7874237 55.7272251,85.6104342 L55.7272251,85.6104342 C55.9322996,86.7874237 56.5966014,87.8549738 57.5954195,88.6126704 L57.5954195,88.6126704 Z" id="d8a4a70b-8eb5-4789-be89-0ccdc14156ff" fill="#000000" fill-rule="nonzero"></path>
                                <path d="M55.6659381,84.8331886 C55.6670574,84.4060982 55.7728918,83.9809717 55.980677,83.5689135 L55.980677,83.5689135 C55.6428806,84.2200674 55.5754453,84.9035233 55.7831938,85.5704044 L55.7831938,85.5704044 C55.7090996,85.3255399 55.6698991,85.0779617 55.6659381,84.8298528 L55.6659381,84.8331886 Z" id="fad8bc17-89a2-4238-be0b-2719dafb796b" fill="#000000" fill-rule="nonzero"></path>
                                <polygon id="3263d706-c921-42f1-bc86-a855863d48a6" fill="#000000" fill-rule="nonzero" points="58.1710841 83.5689135 55.8467027 83.5689135 55.8467027 83.5689135"></polygon>
                                <polygon id="888dbe2c-7397-48d1-b62c-b2c29e91f336" fill="#000000" fill-rule="nonzero" points="105.397301 83.5689135 105.397301 83.5689135 103.08016 83.5689135 103.08016 83.5689135"></polygon>
                                <path d="M149.868292,83.5689135 L149.868292,7.08527752 C149.869253,5.20587377 149.059367,3.40319119 147.617002,2.07425191 C146.174637,0.745312634 144.218095,-0.000885467163 142.178283,1.68888236e-12 L15.1808897,1.68888236e-12 C13.1417052,-2.08426553e-07 11.1860932,0.746588687 9.74451154,2.07543195 C8.30292987,3.40427521 7.49354026,5.2064519 7.49450078,7.08527752 L7.49450078,83.542227 L0,83.542227 L0,92.0385555 C-4.22877362e-07,93.0441688 0.433821225,94.0085461 1.20592735,94.7193092 C1.97803347,95.4300723 3.02510218,95.8289301 4.11654463,95.8280448 L153.239008,95.8280448 C154.33045,95.8289301 155.377519,95.4300723 156.149625,94.7193092 C156.921731,94.0085461 157.355553,93.0441688 157.355552,92.0385555 L157.355552,83.5689135 L149.868292,83.5689135 Z M9.81888218,7.08527752 C9.82486391,4.35962603 12.2225992,2.15193711 15.1808897,2.14826682 L142.178283,2.14826682 L142.178283,2.14826682 C145.136574,2.15193711 147.534309,4.35962603 147.540291,7.08527752 L147.540291,83.3687645 L9.81888218,83.3687645 L9.81888218,7.08527752 Z M105.52764,85.5103596 L105.52764,85.5437178 L105.52764,85.5103596 Z M155.175992,92.0385555 C155.175992,92.5118775 154.971917,92.9658134 154.608662,93.3005026 C154.245407,93.6351918 153.752728,93.8232182 153.239008,93.8232182 L4.1237857,93.8232182 C3.60756083,93.8267744 3.11115259,93.6403191 2.74475929,93.3052437 C2.37836599,92.9701683 2.17230464,92.5141985 2.17231907,92.0385555 L2.17231907,85.5470536 L55.7308457,85.5470536 L55.7308457,85.5103596 L55.7561894,85.5103596 L55.7561894,85.5670685 L55.7272251,85.5670685 C56.128509,87.9475161 58.3515386,89.7041388 60.9661346,89.7068187 L100.28873,89.7068187 C101.519778,89.706769 102.712096,89.3102981 103.659445,88.5859839 C103.789785,88.4859093 103.910469,88.381387 104.021499,88.272417 C104.816769,87.5391309 105.337959,86.591575 105.509537,85.5670685 L103.27929,85.5670685 C102.924589,86.8328511 101.682238,87.7150458 100.263387,87.7086637 L60.9697552,87.7086637 C59.5570306,87.7112489 58.3211936,86.8332519 57.9647138,85.5737402 L103.243084,85.5737402 C103.243084,85.5537253 103.243084,85.5303745 103.261187,85.5103596 L103.297392,85.5103596 L103.297392,85.5470536 L155.175992,85.5470536 L155.175992,92.0385555 Z" id="Shape" fill="#FFFFFF" fill-rule="nonzero"></path>
                                <path d="M144.053718,79.6860213 L13.214941,79.6860213 L13.214941,6.0645172 L144.053718,6.0645172 L144.053718,79.6860213 Z M15.0252069,78.0181123 L142.243453,78.0181123 L142.243453,7.73242622 L15.0252069,7.73242622 L15.0252069,78.0181123 Z" id="Shape" fill="#FFFFFF" fill-rule="nonzero"></path>
                                <path d="M50.4484898,38.2851836 C53.5476211,39.2481042 56.7145059,40.0149023 59.927042,40.5802265 L69.322322,47.3219147 C69.8514016,47.7122059 70.6035083,47.7122059 71.1325879,47.3219147 L77.8305716,42.5350158 L78.1238347,42.7451724 L84.532176,47.3252505 C85.0612556,47.7155417 85.8133623,47.7155417 86.3424419,47.3252505 L96.0635697,40.350055 C96.1522735,40.2855102 96.232471,40.2116193 96.3025248,40.129891 C99.3521923,39.4074959 102.340945,38.4821564 105.245238,37.361162 C105.726417,37.1758414 106.063739,36.7680791 106.130138,36.2914754 C106.196537,35.8148718 105.981925,35.3418341 105.567145,35.0505511 C105.152365,34.7592681 104.600432,34.6939927 104.119253,34.8793134 C101.183735,36.0043287 98.157447,36.9166621 95.0679234,37.6080126 L88.6342385,20.8722135 C88.3767649,20.1873942 87.5730719,19.8171484 86.8239726,20.038259 L75.701699,23.3073606 L69.043541,20.1283261 C68.6604094,19.9418973 68.2068079,19.9233163 67.8072316,20.0776827 C67.4076552,20.2320492 67.1040847,20.5431448 66.9798379,20.9255866 L61.2666388,38.0283257 C57.9353088,37.4820662 54.6495088,36.72187 51.4332745,35.7532978 C50.6744397,35.5018209 49.8380206,35.8647406 49.5650801,36.5639015 C49.2921395,37.2630625 49.6860346,38.0337068 50.4448693,38.2851836 L50.4484898,38.2851836 Z M70.2383165,44.5531857 L65.9805711,41.4975764 C68.3447784,41.7844568 70.915356,42.0079566 73.6343753,42.1247102 L70.2383165,44.5531857 Z M85.4228268,44.5531857 L81.9905627,42.1013595 C84.6438797,41.9715463 87.2880445,41.7143391 89.9122862,41.3307855 L85.4228268,44.5531857 Z M69.2499113,23.2606592 L74.8834588,25.959336 L74.8834588,25.959336 L80.0571987,28.4378488 C80.5202686,28.6595186 81.0765158,28.6367323 81.5164074,28.3780734 C81.9562989,28.1194144 82.2130047,27.6641792 82.1898263,27.1838505 C82.1666478,26.7035218 81.8671065,26.2710728 81.4040365,26.0494031 L79.3403334,25.0486577 L86.3496829,22.9871221 L89.6552284,31.5801894 L66.4838251,31.5801894 L69.2499113,23.2606592 Z M65.571451,34.2855378 L90.6907005,34.2855378 L92.1932212,38.1984524 C81.6936791,40.1132119 71.6611855,39.5327796 64.1703052,38.4853327 L65.571451,34.2855378 Z" id="Shape" fill="#FFFFFF" fill-rule="nonzero"></path>
                                <path d="M109.499363,61.3523654 C109.462399,60.7730688 109.023309,60.2822016 108.413204,60.1381276 L95.2199858,56.9424139 L96.9433589,45.3404388 C97.0356444,44.802377 96.7636731,44.2666547 96.2562742,43.9870368 C95.7488753,43.7074188 95.1079436,43.7400574 94.6370802,44.0694921 L78.7067403,54.7441099 L62.7764005,44.0694921 C62.3055371,43.7400574 61.6646054,43.7074188 61.1572065,43.9870368 C60.6498076,44.2666547 60.3778362,44.802377 60.4701218,45.3404388 L62.1934949,56.9424139 L48.9894155,60.1381276 C48.3793104,60.2822016 47.94022,60.7730688 47.903256,61.3523654 L46.7048599,77.9714109 C46.6712292,78.4481201 46.9161808,78.9051484 47.347444,79.1703378 C47.7787072,79.4355271 48.3307628,79.4685889 48.7956567,79.257069 C49.2605507,79.0455492 49.5676546,78.6215826 49.6012854,78.1448734 L50.6874449,62.496551 L63.399132,59.4209267 L72.4106356,66.309391 C73.0305006,66.7847099 73.95121,66.7070481 74.4670976,66.1359284 C74.9829852,65.5648088 74.8986949,64.7165028 74.27883,64.2411838 L65.169572,57.2426376 L63.8118726,48.1024961 L77.2331839,57.0825183 L77.2331839,77.8579931 C77.2331839,78.6013697 77.8872442,79.2039956 78.6940685,79.2039956 C79.5008927,79.2039956 80.1549531,78.6013697 80.1549531,77.8579931 L80.1549531,57.0791825 L93.5762644,48.0991603 L92.2185649,57.2393017 L83.0875838,64.2445196 C82.4677188,64.7198386 82.3834285,65.5681446 82.8993161,66.1392643 C83.4152038,66.7103839 84.3359132,66.7880457 84.9557782,66.3127268 L93.9419381,59.4242626 L106.653625,62.4998868 L107.739785,78.1482092 C107.783967,78.8550159 108.419594,79.4069839 109.187997,79.4058126 L109.282131,79.4058126 C109.669834,79.3853293 110.032364,79.2222403 110.288329,78.953162 C110.544293,78.6840837 110.672243,78.3315629 110.643451,77.9747467 L109.499363,61.3523654 Z" id="Shape" fill="#FFFFFF" fill-rule="nonzero"></path>
                            </g>
                        </g>
                    </g>
                </g>
            </g>
        </g>
    </g>
</svg>