<?xml version="1.0" encoding="UTF-8" standalone="no"?>
<svg width="48px" height="86px" viewBox="0 0 48 86" version="1.1" xmlns="http://www.w3.org/2000/svg" xmlns:xlink="http://www.w3.org/1999/xlink">
    <!-- Generator: Sketch 42 (36781) - http://www.bohemiancoding.com/sketch -->
    <title>WatchFichier 1</title>
    <desc>Created with Sketch.</desc>
    <defs></defs>
    <g id="Page-1" stroke="none" stroke-width="1" fill="none" fill-rule="evenodd">
        <g id="FACEBOOK-ADS-:-inventaire" transform="translate(-591.000000, -374.000000)">
            <g id="Group-6-Copy" transform="translate(-243.000000, 2.000000)">
                <g id="Group" transform="translate(717.857143, 372.220588)">
                    <g id="WatchFichier-1" transform="translate(115.928001, 0.333020)">
                        <g id="68a796d3-0f0c-4455-8a3f-fc34d323184f">
                            <g>
                                <g id="1e98d019-25a3-4321-b3df-75d7adf19128">
                                    <path d="M22.0825287,64.5685112 C15.1674411,64.5685707 8.68454005,61.1031865 4.70315038,55.2784999 L6.53985437,67.0293569 L37.6252031,67.0293569 L39.4619071,55.2784999 C35.4808004,61.1035202 28.9977183,64.5690013 22.0825287,64.5685112 L22.0825287,64.5685112 Z" id="Shape"></path>
                                    <polygon id="Shape" points="9.80483088 8.59893443 9.25778023 15.7341119 34.9072772 15.7341119 34.3602266 8.59893443"></polygon>
                                    <path d="M43.9001958,42.8595169 L43.6526616,44.4201776 L45.2987642,44.4201776 L45.2987642,40.8933904 L43.6526616,40.8933904 L43.9001958,42.4540511 C43.9211891,42.5883412 43.9211891,42.7252268 43.9001958,42.8595169 L43.9001958,42.8595169 Z" id="Shape"></path>
                                    <polygon id="Shape" points="10.492976 2.55009918 10.0647418 6.04883525 34.1003156 6.04883525 33.6696061 2.55009918"></polygon>
                                    <polygon id="Shape" points="33.6696061 82.7609187 34.1003156 79.2647327 10.0647418 79.2647327 10.492976 82.7609187"></polygon>
                                    <polygon id="Shape" points="34.3602266 76.7146335 34.9072772 69.579456 9.25778023 69.579456 9.80483088 76.7146335"></polygon>
                                    <path d="M22.0825287,23.2926059 C11.8331262,23.2924889 3.47333495,31.7520025 3.29005169,42.309255 C3.10676843,52.8665074 11.1675777,61.6285763 21.4104293,62.006036 C31.6532808,62.3834957 40.3011856,54.2371604 40.8505741,43.6933993 L40.8505741,41.627819 C40.3117014,31.352196 32.0714606,23.3019932 22.0825287,23.2926059 L22.0825287,23.2926059 Z M32.4566883,37.8434718 L22.7087903,43.7546017 C22.3214748,43.9893025 21.8411073,43.9893025 21.4537918,43.7546017 L13.7183471,39.0726196 C13.1291297,38.715595 12.9324156,37.9340889 13.2789739,37.3270767 C13.6255321,36.7200646 14.3841282,36.5174096 14.9733456,36.8744341 L22.0825287,41.1764514 L31.1893131,35.6452863 C31.7785305,35.2882617 32.5371266,35.4909167 32.8836849,36.0979289 C33.2302432,36.7049411 33.033529,37.4864472 32.4443116,37.8434718 L32.4566883,37.8434718 Z" id="Shape"></path>
                                    <path d="M22.0825287,20.7425067 C28.9950955,20.7445052 35.4748844,24.2097066 39.454481,30.032518 L37.6252031,18.2842111 L6.5472804,18.2842111 L4.70315038,30.0350681 C8.68399589,24.2094152 15.1669875,20.7430313 22.0825287,20.7425067 Z" id="Shape"></path>
                                    <path d="M40.8431481,41.6227188 L40.8431481,43.6882991 C40.8845156,43.3465858 40.9081542,43.0023224 40.9081542,42.6555089 C40.9081542,42.3086954 40.9022445,41.9644321 40.8431481,41.6227188 Z" id="Shape" fill="#FFFFFF" fill-rule="nonzero"></path>
                                    <path d="M43.3184904,41.5462158 C43.3382504,41.9134301 43.3481305,42.2831945 43.3481305,42.6555089 C43.3481305,43.0278234 43.3382504,43.3975878 43.3184904,43.7648021 L43.3184904,44.4176275 L43.6795605,44.4176275 L43.9490159,42.8569668 C43.9718683,42.7226767 43.9718683,42.5857911 43.9490159,42.451501 L43.6795605,40.8908403 L43.3184904,40.8908403 L43.3184904,41.5462158 Z" id="Shape" fill="#FFFFFF" fill-rule="nonzero"></path>
                                    <path d="M43.3529065,44.4201776 L43.3529065,43.7673522 C43.2954893,44.8434015 43.154089,45.9139609 42.9298616,46.9702767 L43.2801536,46.9702767 L43.7139767,44.4201776 L43.3529065,44.4201776 Z" id="Shape" fill="#FFFFFF" fill-rule="nonzero"></path>
                                    <path d="M43.3529065,41.5462158 L43.3529065,40.8933904 L43.7139767,40.8933904 L43.2801536,38.3432912 L42.9298616,38.3432912 C43.1540793,39.3996086 43.2954795,40.4701673 43.3529065,41.5462158 L43.3529065,41.5462158 Z" id="Shape" fill="#FFFFFF" fill-rule="nonzero"></path>
                                    <path d="M40.8431481,41.6227188 C40.8620099,41.9644321 40.8727882,42.3086954 40.8727882,42.6555089 C40.8727882,43.0023224 40.8727882,43.3465858 40.8431481,43.6882991 L40.8431481,45.6926771 C40.8453708,45.805801 40.8634936,45.9181418 40.8970391,46.02674 L41.470979,42.6529588 L40.9024282,39.2715273 C40.8688827,39.3801256 40.8507599,39.4924663 40.8485372,39.6055903 L40.8431481,41.6227188 Z" id="Shape" fill="#FFFFFF" fill-rule="nonzero"></path>
                                    <path d="M43.3184904,41.5462158 L43.3184904,43.7648021 C43.3618278,43.3975878 43.3834965,43.0278234 43.3834965,42.6555089 C43.3834965,42.2831945 43.3618278,41.9134301 43.3184904,41.5462158 Z" id="Shape" fill="#FFFFFF" fill-rule="nonzero"></path>
                                    <path d="M46.5364354,38.3432912 L43.2590822,38.3432912 L43.6576123,40.8933904 L45.2987642,40.8933904 L45.2987642,44.4201776 L43.6526616,44.4201776 L43.2541315,46.9702767 L46.5364354,46.9702767 C46.8646862,46.9702767 47.1794927,46.8359415 47.411601,46.5968234 C47.6437094,46.3577052 47.7741065,46.0333913 47.7741065,45.6952272 L47.7741065,39.6183408 C47.7741065,39.2801766 47.6437094,38.9558628 47.411601,38.7167446 C47.1794927,38.4776264 46.8646862,38.3432912 46.5364354,38.3432912 Z" id="Shape" fill="#FFFFFF" fill-rule="nonzero"></path>
                                    <path d="M43.3184904,43.7648021 L43.3184904,41.5462158 C43.2657353,40.4701673 43.1358384,39.3996086 42.9298616,38.3432912 L43.2516561,38.3432912 L39.8926166,16.8051536 C39.7965019,16.1863324 39.2781187,15.7312103 38.6697975,15.7315618 L37.3875702,15.7315618 L36.7340798,7.22188087 C36.7340798,7.22188087 36.7340798,7.22188087 36.7340798,7.20658027 L36.7340798,7.16322859 L35.9914771,1.11439334 C35.9124918,0.473576867 35.3808116,-0.00514555871 34.753806,-3.25189562e-13 L9.40630077,-3.25189562e-13 C8.77929518,-0.00514555871 8.24761493,0.473576867 8.16862961,1.11439334 L7.42602692,7.16322859 L7.42602692,7.20658027 C7.42602692,7.22188087 7.42602692,7.20658027 7.42602692,7.22188087 L6.77501189,15.7341119 L5.49278458,15.7341119 C4.88446336,15.7337604 4.36608015,16.1888825 4.26996548,16.8077037 L0.262386285,42.4540511 C0.241393043,42.5883412 0.241393043,42.7252268 0.262386285,42.8595169 L4.26996548,68.5058643 C4.36608015,69.1246855 4.88446336,69.5798075 5.49278458,69.579456 L6.77501189,69.579456 L7.42602692,78.089137 C7.42602692,78.089137 7.42602692,78.089137 7.42602692,78.1044376 L7.42602692,78.1477893 L8.16862961,84.1966245 C8.24761493,84.837441 8.77929518,85.3161634 9.40630077,85.3110179 L34.761232,85.3110179 C35.3882376,85.3161634 35.9199179,84.837441 35.9989032,84.1966245 L36.7415059,78.1477893 L36.7415059,78.1044376 C36.7415059,78.089137 36.7415059,78.1044376 36.7415059,78.089137 L37.3949962,69.579456 L38.6772235,69.579456 C39.2855448,69.5798075 39.803928,69.1246855 39.9000426,68.5058643 L43.2665082,46.9677266 L42.9447137,46.9677266 C43.1457113,45.9110265 43.2706437,44.8404705 43.3184904,43.7648021 L43.3184904,43.7648021 Z M10.492976,2.55009918 L33.6646554,2.55009918 L34.0953649,6.04883525 L10.0647418,6.04883525 L10.492976,2.55009918 Z M9.80483088,8.59893443 L34.3602266,8.59893443 L34.9072772,15.7392121 L9.25778023,15.7392121 L9.80483088,8.59893443 Z M6.5472804,18.2893113 L37.6252031,18.2893113 L39.4619071,30.0401683 C35.4844192,24.2154412 29.0040665,20.7494144 22.0911924,20.7494144 C15.1783184,20.7494144 8.69796568,24.2154412 4.72047778,30.0401683 L6.5472804,18.2893113 Z M33.6646554,82.7609187 L10.492976,82.7609187 L10.0622665,79.2621826 L34.0978403,79.2621826 L33.6646554,82.7609187 Z M34.3552759,76.7120834 L9.80483088,76.7120834 L9.25778023,69.5718057 L34.9023265,69.5718057 L34.3552759,76.7120834 Z M37.6128264,67.0217066 L6.5472804,67.0217066 L4.70315038,55.2784999 C8.68063828,61.103227 15.160991,64.5692538 22.073865,64.5692538 C28.9867391,64.5692538 35.4670918,61.103227 39.4445797,55.2784999 L37.6128264,67.0217066 Z M40.8951302,46.0216398 C40.8643138,45.9130416 40.8476653,45.8007008 40.8456234,45.6875769 L40.8456234,43.6831989 C40.3023679,54.1608909 31.7570782,62.2863504 21.5756694,62.0064197 C11.3942605,61.726489 3.28183051,53.1430372 3.28183051,42.6504087 C3.28183051,32.1577803 11.3942605,23.5743285 21.5756694,23.2943978 C31.7570782,23.0144671 40.3023679,31.1399265 40.8456234,41.6176186 L40.8456234,39.6132406 C40.8476653,39.5001166 40.8643138,39.3877759 40.8951302,39.2791776 L41.4223782,42.6529588 L40.8951302,46.0216398 Z" id="Shape" fill="#FFFFFF" fill-rule="nonzero"></path>
                                    <path d="M31.1893131,35.6452863 L22.0825287,41.1764514 L14.9733456,36.8744341 C14.3841282,36.5174096 13.6255321,36.7200646 13.2789739,37.3270767 C12.9324156,37.9340889 13.1291297,38.715595 13.7183471,39.0726196 L21.4537918,43.7546017 C21.8411073,43.9893025 22.3214748,43.9893025 22.7087903,43.7546017 L32.4566883,37.8434718 C33.0459058,37.4864472 33.2426199,36.7049411 32.8960616,36.0979289 C32.5495033,35.4909167 31.7909072,35.2882617 31.2016898,35.6452863 L31.1893131,35.6452863 Z" id="Shape" fill="#FFFFFF" fill-rule="nonzero"></path>
                                </g>
                            </g>
                        </g>
                    </g>
                </g>
            </g>
        </g>
    </g>
</svg>