<?xml version="1.0" encoding="UTF-8" standalone="no"?>
<svg width="332px" height="591px" viewBox="0 0 332 591" version="1.1" xmlns="http://www.w3.org/2000/svg" xmlns:xlink="http://www.w3.org/1999/xlink">
    <!-- Generator: Sketch 41.2 (35397) - http://www.bohemiancoding.com/sketch -->
    <title>Group 7</title>
    <desc>Created with Sketch.</desc>
    <defs></defs>
    <g id="Page-1" stroke="none" stroke-width="1" fill="none" fill-rule="evenodd">
        <g id="Product-page" transform="translate(-976.000000, -2544.000000)">
            <g id="Group-7" transform="translate(970.000000, 2544.000000)">
                <g id="Group-16" transform="translate(6.000000, 0.000000)">
                    <path d="M28.0340006,133 L262.005169,133 C269.733303,133 276,126.728766 276,118.992807 L276,79.0071931 C276,71.2753906 269.734301,65 262.005169,65 L13.9948306,65 C6.26669702,65 0,71.2712339 0,79.0071931 L0,109.329737 L0,133 L28.0340006,133 Z" id="Combined-Shape" fill="#ECEBEB"></path>
                    <path d="M83.9734153,198 L318.005169,198 C325.733303,198 332,191.72812 332,183.991365 L332,163.008635 C332,155.268121 325.734301,149 318.005169,149 L69.9948306,149 C62.266697,149 56,155.27188 56,163.008635 L56,178.985878 L56,198 L83.9734153,198 Z" id="Combined-Shape-Copy-2" fill="#98D0F2" transform="translate(194.000000, 173.500000) scale(-1, 1) translate(-194.000000, -173.500000) "></path>
                    <path d="M83.9734153,49 L318.005169,49 C325.733303,49 332,42.7281203 332,34.9913647 L332,14.0086353 C332,6.26812146 325.734301,0 318.005169,0 L69.9948306,0 C62.266697,0 56,6.27187967 56,14.0086353 L56,29.9858784 L56,49 L83.9734153,49 Z" id="Combined-Shape-Copy-9" fill="#98D0F2" opacity="0.225746269" transform="translate(194.000000, 24.500000) scale(-1, 1) translate(-194.000000, -24.500000) "></path>
                    <path d="M83.9734153,510 L318.005169,510 C325.733303,510 332,503.72812 332,495.991365 L332,475.008635 C332,467.268121 325.734301,461 318.005169,461 L69.9948306,461 C62.266697,461 56,467.27188 56,475.008635 L56,490.985878 L56,510 L83.9734153,510 Z" id="Combined-Shape-Copy-10" fill="#98D0F2" opacity="0.409981343" transform="translate(194.000000, 485.500000) scale(-1, 1) translate(-194.000000, -485.500000) "></path>
                    <path d="M30.4997359,448 L300.000528,448 C307.727731,448 314,441.728766 314,433.992807 L314,394.007193 C314,386.275391 307.732223,380 300.000528,380 L13.9994717,380 C6.27226904,380 0,386.271234 0,394.007193 L0,424.496403 L0,448 L30.4997359,448 Z" id="Combined-Shape-Copy" fill="#ECEBEB"></path>
                    <path d="M30.4997359,591 L300.000528,591 C307.727731,591 314,584.728766 314,576.992807 L314,537.007193 C314,529.275391 307.732223,523 300.000528,523 L13.9994717,523 C6.27226904,523 0,529.271234 0,537.007193 L0,567.496403 L0,591 L30.4997359,591 Z" id="Combined-Shape-Copy-11" fill="#ECEBEB" opacity="0.270522388"></path>
                    <text id="…" opacity="0.131413246" font-family="WorkSans-Light, Work Sans" font-size="30" font-weight="300" letter-spacing="0.0722222105" fill="#000000">
                        <tspan x="70" y="487">…</tspan>
                    </text>
                    <path d="M30.9997359,281 L300.000528,281 C307.727731,281 314,274.728766 314,266.992807 L314,227.007193 C314,219.275391 307.732223,213 300.000528,213 L13.9994717,213 C6.27226904,213 0,219.271234 0,227.007193 L0,257.496403 L0,281 L30.9997359,281 Z" id="Combined-Shape-Copy-3" fill="#ECEBEB"></path>
                    <path d="M83.9734153,364 L318.005169,364 C325.733303,364 332,357.728766 332,349.992807 L332,310.007193 C332,302.275391 325.734301,296 318.005169,296 L69.9948306,296 C62.266697,296 56,302.271234 56,310.007193 L56,340.329737 L56,364 L83.9734153,364 Z" id="Combined-Shape-Copy-8" fill="#98D0F2" transform="translate(194.000000, 330.000000) scale(-1, 1) translate(-194.000000, -330.000000) "></path>
                </g>
            </g>
        </g>
    </g>
</svg>