<svg xmlns="http://www.w3.org/2000/svg" viewBox="0 0 1560.13 357.5"><title>Clouds-largesFichier 3</title><g id="c2eb2110-c5c5-4ff0-bbad-956e7cedde08" data-name="Calque 2"><g id="1e7355d1-c423-49a8-95e9-fb107b79e6b0" data-name="Calque 1"><g id="43d6a107-1d6f-40f8-ac7f-08df27b538ec" data-name="Page-1" opacity="0.37"><g id="23b3c428-4016-4593-88f9-f664cb122495" data-name="LANDING-HV"><g id="22bbbd5a-51ff-49a8-9bba-7fee9f86618c" data-name="cloud-largeFichier-2"><path id="0f48f595-0216-4119-8414-31659e479904" data-name="Shape-Copy-13" d="M559.82,297.06h183.8a17.18,17.18,0,0,1,17.5,18.46,10.87,10.87,0,0,1-10.94,9.89H738.62c-8.3,0-15,6-15,13.37v5.34c0,7.32,6.73,13.37,15,13.37h142c8.3,0,15-6,15-13.37v-5.34c0-7.32-6.73-13.37-15-13.37h-2.88A12.57,12.57,0,0,1,865.45,310a21.67,21.67,0,0,1,2.26-5.62,14.5,14.5,0,0,1,12.62-7.33H986.09a22.91,22.91,0,0,0,22.91-23v-9.2a22.91,22.91,0,0,0-22.91-23H779.42a17.27,17.27,0,0,1-16.83-12.68,18.54,18.54,0,0,1-.42-2.15,12,12,0,0,1,12-13.52h10.38c8.3,0,15-6,15-13.37v-5.34c0-7.32-6.73-13.37-15-13.37H642.63c-8.3,0-15,6-15,13.37v5.37c0,7.32,6.73,13.37,15,13.37H654a13.11,13.11,0,0,1,12.46,8.61c1.69,4.85,0,8.7-4.66,14a16.84,16.84,0,0,1-12.64,5.7H560a22.91,22.91,0,0,0-22.91,23v9.17a22.91,22.91,0,0,0,22.69,23Z" fill="#fff"/></g></g></g><g id="829e8fe0-45b6-4071-a656-cfec7af5a63e" data-name="Page-1" opacity="0.27"><g id="9410f88e-ccfa-45cb-9387-56cd32cc86df" data-name="LANDING-HV"><g id="cd6c90f0-2451-4d0b-99cc-4ed2026e08d3" data-name="cloud-largeFichier-2"><path id="f776b8d5-3d8b-4073-93fa-8fc3d7630fd4" data-name="Shape-Copy-13" d="M19,174.52H172.47a14.35,14.35,0,0,1,14.61,15.42,9.08,9.08,0,0,1-9.14,8.26H168.3c-6.93,0-12.55,5-12.55,11.17v4.46c0,6.11,5.62,11.17,12.55,11.17H286.91c6.93,0,12.55-5,12.55-11.17v-4.46c0-6.11-5.62-11.17-12.55-11.17H284.5a10.5,10.5,0,0,1-10.27-12.87,18.1,18.1,0,0,1,1.89-4.69,12.11,12.11,0,0,1,10.54-6.12H375a19.14,19.14,0,0,0,19.14-19.18v-7.68A19.14,19.14,0,0,0,375,128.48H202.37a14.43,14.43,0,0,1-14.06-10.59,15.48,15.48,0,0,1-.35-1.8,10,10,0,0,1,10-11.29h8.67c6.93,0,12.55-5,12.55-11.17V89.17c0-6.11-5.62-11.17-12.55-11.17H88.12c-6.93,0-12.53,5-12.53,11.17v4.48c0,6.11,5.62,11.17,12.55,11.17h9.44A11,11,0,0,1,108,112c1.41,4.05,0,7.26-3.89,11.73a14.06,14.06,0,0,1-10.56,4.76H19.14A19.14,19.14,0,0,0,0,147.68v7.66a19.14,19.14,0,0,0,19,19.18Z" fill="#fff"/></g></g></g><g id="ff40e772-e98f-453c-aa90-acf013c1eae4" data-name="Page-1" opacity="0.48"><g id="f0bd5d9a-4c46-4070-b4e0-b5f1a1abfda2" data-name="LANDING-HV"><g id="3c1fd25b-6b67-4682-b2a2-ef44aca217f1" data-name="cloud-largeFichier-2"><path id="32544fac-0d14-4252-8396-b8fb6c998edb" data-name="Shape-Copy-13" d="M1185,50.48a19.14,19.14,0,0,0-19,19.18v7.66a19.14,19.14,0,0,0,19.14,19.18h74.42a14.06,14.06,0,0,1,10.56,4.76c3.93,4.47,5.3,7.68,3.89,11.73a11,11,0,0,1-10.41,7.19h-9.44c-6.93,0-12.55,5.05-12.55,11.17v4.48c0,6.15,5.6,11.17,12.53,11.17h118.51c6.93,0,12.55-5.05,12.55-11.17v-4.46c0-6.18-5.62-11.17-12.55-11.17H1364a10,10,0,0,1-10-11.29,15.48,15.48,0,0,1,.35-1.8,14.43,14.43,0,0,1,14.06-10.59H1541a19.14,19.14,0,0,0,19.14-19.18V69.66A19.14,19.14,0,0,0,1541,50.48h-88.34a12.11,12.11,0,0,1-10.54-6.12,18.1,18.1,0,0,1-1.89-4.69A10.5,10.5,0,0,1,1450.5,26.8h2.41c6.93,0,12.55-5.05,12.55-11.17V11.17C1465.46,5,1459.84,0,1452.91,0H1334.3c-6.93,0-12.55,5.05-12.55,11.17v4.46c0,6.15,5.62,11.17,12.55,11.17h9.65a9.08,9.08,0,0,1,9.14,8.26,14.35,14.35,0,0,1-14.61,15.42Z" fill="#fff"/></g></g></g></g></g></svg>