<?xml version="1.0" encoding="UTF-8" standalone="no"?>
<svg width="1440px" height="226px" viewBox="0 0 1440 226" version="1.1" xmlns="http://www.w3.org/2000/svg" xmlns:xlink="http://www.w3.org/1999/xlink">
    <!-- Generator: Sketch 41.2 (35397) - http://www.bohemiancoding.com/sketch -->
    <title>Shape</title>
    <desc>Created with Sketch.</desc>
    <defs></defs>
    <g id="Page-1" stroke="none" stroke-width="1" fill="none" fill-rule="evenodd" opacity="0.289937034">
        <g id="LANDING-HV" transform="translate(0.000000, -4957.000000)" fill="#99D0F2">
            <g id="Group-29" transform="translate(-34.000000, 4957.000000)">
                <polygon id="Shape" points="33 200.872158 33 122.200775 68.2792623 122.200775 68.2792623 151.893011 91.76674 151.893011 91.76674 63.2006706 122.941528 63.2006706 122.941528 74.5531803 153.979042 74.5531803 153.979042 31.5179713 231.250236 31.5179713 231.250236 86.0017814 278.829194 86.0017814 278.829194 44.3804883 324.66478 44.3804883 324.66478 68.2386042 364.528974 68.2386042 364.528974 100.168396 413.425757 100.168396 413.425757 142.160327 483.558734 142.160327 483.558734 35.1008069 512.921513 35.1008069 512.921513 45.6159489 548.653778 45.6159489 548.653778 0 625.56806 0 625.56806 63.7360369 671.774285 63.7360369 671.774285 17.1866289 713.491669 17.1866289 713.491669 40.2348318 757.350519 40.2348318 757.350519 131.988368 773.823326 131.988368 773.823326 77.532013 803.337106 77.532013 803.337106 136.820392 844.244577 136.820392 844.244577 93.5655454 868.102693 93.5655454 868.102693 48.9654197 908.268888 48.9654197 908.268888 132.166824 931.811275 132.166824 931.811275 38.8895526 984.441895 38.8895526 984.441895 99.2349366 1023.6609 99.2349366 1023.6609 24.5993922 1064.92529 24.5993922 1064.92529 1.37273394 1109.70387 1.37273394 1109.70387 59.1785602 1132.60107 59.1785602 1132.60107 49.8714241 1172.02599 49.8714241 1172.02599 116.737294 1228.12962 116.737294 1228.12962 160.623598 1250.24437 160.623598 1250.24437 79.2204757 1303.87708 79.2204757 1303.87708 101.445038 1322.07953 101.445038 1322.07953 57.6548255 1350.34413 57.6548255 1350.34413 132.578644 1376.41234 132.578644 1376.41234 29.7471445 1435.838 29.7471445 1435.838 155.118935 1474 155.118935 1474 225.581369 33 225.581369 33 208.161375"></polygon>
            </g>
        </g>
    </g>
</svg>