<svg xmlns="http://www.w3.org/2000/svg" viewBox="0 0 2008 160"><title>Cloud2-OKFichier 2</title><g id="8ff23a76-82d8-45ad-994a-2ecdae4754af" data-name="Calque 2"><g id="68b3e6dd-1b1d-4ad0-ad8f-4b9114f9891d" data-name="Calque 1"><polygon points="1980.81 109.99 1980.81 21.12 1938.51 21.12 1938.51 94.05 1920.02 94.05 1920.02 40.85 1899.82 40.85 1899.82 71.93 1886.92 71.93 1886.92 56.19 1848.73 56.19 1848.73 113.87 1833.04 113.87 1833.04 82.79 1793.04 82.79 1793.04 35.37 1765.05 35.37 1765.05 41.94 1748.75 41.94 1748.75 1 1716.86 1 1716.86 17.43 1687.46 17.43 1687.46 70.34 1659.57 70.34 1659.57 27.6 1622.08 27.6 1622.08 93.75 1605.38 93.75 1605.38 34.77 1576.79 34.77 1576.79 66.35 1559.79 66.35 1559.79 97.04 1530.69 97.04 1530.69 54.99 1509.7 54.99 1509.7 93.65 1497.9 93.65 1497.9 28.49 1466.71 28.49 1466.71 12.15 1437.01 12.15 1437.01 45.23 1404.12 45.23 1404.12 0 1349.43 0 1349.43 32.38 1323.94 32.38 1323.94 24.91 1303.04 24.91 1303.04 100.82 1253.15 100.82 1253.15 71.03 1218.36 71.03 1218.36 48.42 1189.96 48.42 1189.96 31.48 1157.37 31.48 1157.37 60.97 1123.48 60.97 1123.48 22.32 1068.49 22.32 1068.49 52.9 1046.39 52.9 1046.39 44.83 1024.2 44.83 1024.2 107.7 1007.5 107.7 1007.5 86.67 982.4 86.67 982.4 109.99 964.01 109.99 964.01 21.12 921.72 21.12 921.72 94.05 903.22 94.05 903.22 40.85 883.02 40.85 883.02 71.93 870.13 71.93 870.13 56.19 831.93 56.19 831.93 113.87 816.24 113.87 816.24 82.79 776.25 82.79 776.25 35.37 748.25 35.37 748.25 41.94 731.95 41.94 731.95 1 700.06 1 700.06 17.43 670.67 17.43 670.67 70.34 642.77 70.34 642.77 27.6 605.28 27.6 605.28 93.75 588.58 93.75 588.58 34.77 559.99 34.77 559.99 66.35 542.99 66.35 542.99 97.04 513.9 97.04 513.9 54.99 492.9 54.99 492.9 93.65 481.1 93.65 481.1 28.49 449.91 28.49 449.91 12.15 420.22 12.15 420.22 45.23 387.32 45.23 387.32 0 332.63 0 332.63 32.38 307.14 32.38 307.14 24.91 286.24 24.91 286.24 100.82 236.35 100.82 236.35 71.03 201.56 71.03 201.56 48.42 173.17 48.42 173.17 31.48 140.57 31.48 140.57 60.97 106.68 60.97 106.68 22.32 51.69 22.32 51.69 52.9 29.59 52.9 29.59 44.83 7.4 44.83 7.4 107.7 0 107.7 0 160 2008 160 2008 109.99 1980.81 109.99" fill="#b6dff6"/></g></g></svg>