<?xml version="1.0" encoding="UTF-8" standalone="no"?>
<svg width="1440px" height="226px" viewBox="0 0 1440 226" version="1.1" xmlns="http://www.w3.org/2000/svg" xmlns:xlink="http://www.w3.org/1999/xlink">
    <!-- Generator: Sketch 41.2 (35397) - http://www.bohemiancoding.com/sketch -->
    <title>Shape</title>
    <desc>Created with Sketch.</desc>
    <defs></defs>
    <g id="Page-1" stroke="none" stroke-width="1" fill="none" fill-rule="evenodd" opacity="0.289937034">
        <g id="LANDING-HV" transform="translate(0.000000, -5518.000000)" fill="#99D0F2">
            <polygon id="Shape" points="0 5718.87216 0 5640.20078 35.2792623 5640.20078 35.2792623 5669.89301 58.76674 5669.89301 58.76674 5581.20067 89.9415278 5581.20067 89.9415278 5592.55318 120.979042 5592.55318 120.979042 5549.51797 198.250236 5549.51797 198.250236 5604.00178 245.829194 5604.00178 245.829194 5562.38049 291.66478 5562.38049 291.66478 5586.2386 331.528974 5586.2386 331.528974 5618.1684 380.425757 5618.1684 380.425757 5660.16033 450.558734 5660.16033 450.558734 5553.10081 479.921513 5553.10081 479.921513 5563.61595 515.653778 5563.61595 515.653778 5518 592.56806 5518 592.56806 5581.73604 638.774285 5581.73604 638.774285 5535.18663 680.491669 5535.18663 680.491669 5558.23483 724.350519 5558.23483 724.350519 5649.98837 740.823326 5649.98837 740.823326 5595.53201 770.337106 5595.53201 770.337106 5654.82039 811.244577 5654.82039 811.244577 5611.56555 835.102693 5611.56555 835.102693 5566.96542 875.268888 5566.96542 875.268888 5650.16682 898.811275 5650.16682 898.811275 5556.88955 951.441895 5556.88955 951.441895 5617.23494 990.660903 5617.23494 990.660903 5542.59939 1031.92529 5542.59939 1031.92529 5519.37273 1076.70387 5519.37273 1076.70387 5577.17856 1099.60107 5577.17856 1099.60107 5567.87142 1139.02599 5567.87142 1139.02599 5634.73729 1195.12962 5634.73729 1195.12962 5678.6236 1217.24437 5678.6236 1217.24437 5597.22048 1270.87708 5597.22048 1270.87708 5619.44504 1289.07953 5619.44504 1289.07953 5575.65483 1317.34413 5575.65483 1317.34413 5650.57864 1343.41234 5650.57864 1343.41234 5547.74714 1402.838 5547.74714 1402.838 5673.11894 1441 5673.11894 1441 5743.58137 0 5743.58137 0 5726.16137"></polygon>
        </g>
    </g>
</svg>