<?xml version="1.0" encoding="UTF-8" standalone="no"?>
<svg width="259px" height="504px" viewBox="0 0 259 504" version="1.1" xmlns="http://www.w3.org/2000/svg" xmlns:xlink="http://www.w3.org/1999/xlink">
    <!-- Generator: Sketch 41.2 (35397) - http://www.bohemiancoding.com/sketch -->
    <title>Group 19</title>
    <desc>Created with Sketch.</desc>
    <defs>
        <path d="M31.9756335,56.7902003 C46.0763977,55.0757712 57,43.0635576 57,28.5 C57,12.7598846 44.2401154,0 28.5,0 C12.7598846,0 0,12.7598846 0,28.5 C0,38.1654213 4.81141155,46.7070773 12.1697878,51.8605211 L11.9737206,51.9737206 L32.5,65.5262794 L31.9756335,56.7902003 Z" id="path-1"></path>
    </defs>
    <g id="Page-1" stroke="none" stroke-width="1" fill="none" fill-rule="evenodd">
        <g id="LANDING-HV" transform="translate(-507.000000, -5081.000000)">
            <g id="Group-21" transform="translate(507.000000, 5081.000000)">
                <g id="Group-19">
                    <g id="smartphoneFichier-18-Copy-10">
                        <g id="smartphoneFichier-18">
                            <g id="9bd80a80-a90c-4d69-8f80-a3751340f9a5">
                                <g id="5bb1948c-3dda-4bf7-8d60-b466f3a91d19">
                                    <g id="81d76407-8e5a-456d-9b55-a97a6cd9d2fb">
                                        <g id="24aa2961-fda4-4933-a3f5-e76f82f8e56f">
                                            <path d="M257.398703,48 C257.819876,50.0596648 258.04197,52.1918642 258.044004,54.3756098 L258.044004,471.594756 C258.02767,489.132859 243.817346,503.346224 226.282995,503.362561 L176,503.362561 L176,48 L257.398703,48 Z" id="Combined-Shape" fill="#ECEBEB" style="mix-blend-mode: multiply;"></path>
                                            <path d="M34.3682567,2.60780488 C16.8339056,2.6241422 2.62358089,16.8375072 2.60724706,34.3756098 L2.60724706,451.594756 C2.62358089,469.132859 16.8339056,483.346224 34.3682567,483.362561 L216.282995,483.362561 C233.817346,483.346224 248.02767,469.132859 248.044004,451.594756 L248.044004,34.3756098 C248.02767,16.8375072 233.817346,2.6241422 216.282995,2.60780488 L34.3682567,2.60780488 Z" id="Shape-Copy-5" fill="#FFFFFF"></path>
                                            <g id="Girl2Fichier-2-Copy" transform="translate(97.000000, 90.000000)">
                                                <mask id="mask-2" fill="white">
                                                    <use xlink:href="#path-1"></use>
                                                </mask>
                                                <use id="Mask" fill="#98D0F2" xlink:href="#path-1"></use>
                                                <g mask="url(#mask-2)" id="Girl2Fichier-2">
                                                    <g transform="translate(7.000000, 2.000000)">
                                                        <g>
                                                            <g id="8affa77c-758c-4e25-a874-7ca6ab9b5268">
                                                                <g id="98e0a106-964b-4007-a57e-90baafcffcb0">
                                                                    <ellipse id="Oval" fill="#231F20" transform="translate(11.993056, 176.733855) rotate(-38.120000) translate(-11.993056, -176.733855) " cx="11.9930556" cy="176.733855" rx="8.35151163" ry="3.84576545"></ellipse>
                                                                    <ellipse id="Oval" fill="#231F20" transform="translate(31.390229, 176.732212) rotate(-51.880000) translate(-31.390229, -176.732212) " cx="31.3902293" cy="176.732212" rx="3.81872093" ry="8.41065777"></ellipse>
                                                                    <polygon id="Shape" fill="#FFFFFF" points="9.61534884 97.2071934 13.7652326 172.809314 18.4532558 172.809314 20.2643023 107.931564 22.6962791 107.67101 24.9212791 172.809314 30.0956977 172.288208 35.5288372 96.4672222"></polygon>
                                                                    <path d="M24.9212791,173.841105 C24.3497286,173.841105 23.8863953,173.37449 23.8863953,172.798892 L21.744186,108.817445 L21.3095349,108.817445 L19.5295349,172.78847 C19.5295349,173.364068 19.0662017,173.830683 18.4946512,173.830683 L13.7652326,173.830683 C13.2170782,173.831677 12.7632373,173.402045 12.7303488,172.851003 L8.59081395,97.259304 C8.57367907,96.9722261 8.67509879,96.6907774 8.87106525,96.4815818 C9.06703172,96.2723862 9.3401245,96.1540402 9.62569767,96.1545584 L35.4977907,95.4041651 C35.7888251,95.403907 36.068033,95.5201302 36.2739535,95.7272511 C36.473376,95.9400675 36.5747755,96.2275096 36.5533721,96.5193329 L31.1202326,172.340318 C31.0823759,172.845399 30.6894131,173.249939 30.1888372,173.299154 L25.0144186,173.820261 L24.9212791,173.841105 Z M14.7483721,171.756679 L17.4494186,171.756679 L19.2294186,107.889875 C19.226204,107.356229 19.6237766,106.906355 20.1504651,106.847662 L22.5824419,106.587109 C22.8743515,106.55756 23.1649973,106.654175 23.3820814,106.852921 C23.5991654,107.051668 23.7222849,107.333867 23.720814,107.629322 L25.8837209,171.652458 L29.0918605,171.329372 L34.3801163,97.5302793 L10.6709302,98.2181398 L14.7483721,171.756679 Z" id="Shape" fill="#231F20"></path>
                                                                    <polygon id="Shape" fill="#E0E0E0" style="mix-blend-mode: multiply;" points="10.7019767 101.292668 33.6556977 100.927893 33.4797674 102.783032 10.8365116 103.773134"></polygon>
                                                                    <path d="M13.4651163,66.1492502 L17.8219767,85.3780774 L8.50802326,93.4031164 C8.50802326,93.4031164 3.84069767,57.5197277 4.77209302,51.3810939 C5.56895349,46.1700297 11.2918605,46.8995787 15.2347674,45.2007717 C17.3203981,44.3960779 19.5151706,43.9146577 21.744186,43.7729401 C23.9368543,44.0817049 26.1002897,44.5732325 28.2122093,45.2424602 C32.1551163,46.9412672 37.8780233,46.1804518 38.6748837,51.4227825 C39.6166279,57.5614162 34.97,93.4343828 34.97,93.4343828 L25.6560465,85.4093438 L30.0232558,66.1492502 L13.4651163,66.1492502 Z" id="Shape" fill="#FFFFFF"></path>
                                                                    <path d="M34.9389535,94.4453293 C34.6922946,94.4453484 34.4537398,94.3566428 34.2662791,94.1951982 L24.9523256,86.1701592 C24.6513686,85.9161407 24.5190928,85.5124663 24.610814,85.1279463 L28.677907,67.1810409 L14.7483721,67.1810409 L18.8154651,85.1487906 C18.9071863,85.5333105 18.7749105,85.936985 18.4739535,86.1910034 L9.16,94.2160424 C8.87145232,94.4636917 8.47153884,94.5326225 8.11763526,94.3957089 C7.76373168,94.2587953 7.51249413,93.9379557 7.4627907,93.5594483 C7.25581395,92.069084 2.80581395,57.4363507 3.75790698,51.224762 C4.4305814,46.7849352 8.1044186,46.0136977 11.3436047,45.2424602 C12.5383023,45.0016156 13.7090089,44.6527997 14.8415116,44.2002473 C17.0178211,43.3680819 19.3067171,42.8726246 21.6303488,42.7307272 C21.7128393,42.7206857 21.7962304,42.7206857 21.8787209,42.7307272 C24.1608587,43.0490257 26.4114587,43.5650992 28.6054651,44.2732022 C29.7378942,44.7259691 30.9086203,45.0747908 32.1033721,45.3154151 C35.3425581,46.034542 39.0060465,46.8578901 39.6890698,51.2977169 C40.6411628,57.5509941 36.1704651,92.1316167 35.984186,93.611559 C35.9162274,94.1336993 35.4721869,94.5227505 34.9493023,94.5182842 L34.9389535,94.4453293 Z M21.744186,44.8151529 C19.6728026,44.9679088 17.6357241,45.4316052 15.7004651,46.1908739 C14.4506929,46.6817788 13.1584721,47.0550948 11.8403488,47.3060417 C8.36313953,48.0460128 6.22093023,48.6609184 5.79662791,51.547848 C5.02046512,56.6651131 8.33209302,83.8564466 9.26348837,91.3603792 L16.6525581,85.0028808 L12.4302326,66.3889591 C12.3599587,66.0756035 12.437104,65.7471206 12.6393201,65.4986698 C12.8415361,65.2502191 13.1462236,65.1095669 13.4651163,65.1174594 L30.0232558,65.1174594 C30.3421485,65.1095669 30.6468359,65.2502191 30.849052,65.4986698 C31.051268,65.7471206 31.1284134,66.0756035 31.0581395,66.3889591 L26.7737209,84.9924586 L34.1627907,91.3603792 C35.1045349,83.8668688 38.4161628,56.6651131 37.6296512,51.547848 C37.195,48.6609184 35.0631395,48.0460128 31.6376744,47.2851974 C30.3195511,47.0342505 29.0273304,46.6609346 27.7775581,46.1700297 C25.8079659,45.547887 23.7896466,45.0946457 21.744186,44.8151529 L21.744186,44.8151529 Z" id="Shape" fill="#231F20"></path>
                                                                    <path d="M11.0331395,57.3217072 C11.0331395,57.3217072 5.44476744,63.5749844 12.0680233,67.5770818 L8.16651163,100.927893 L36.7189535,100.146234 L30.3544186,66.5869796 C30.3544186,66.5869796 36.9466279,62.4181281 31.7101163,57.1132647" id="Shape" fill="#FFFFFF"></path>
                                                                    <path d="M8.16651163,101.970106 C7.86910691,101.972271 7.58515284,101.845473 7.38707143,101.622051 C7.18899003,101.398628 7.09593064,101.100181 7.13162791,100.802828 L10.9606977,68.0564997 C9.32518241,67.0618386 8.19401987,65.4062397 7.85604651,63.5124516 C7.30755814,59.9272394 10.1327907,56.7068017 10.2569767,56.571314 C10.6445681,56.1776753 11.2703138,56.1584839 11.6809719,56.5276405 C12.09163,56.8967971 12.1434746,57.525101 11.7989535,57.9574571 L11.7989535,57.9574571 C11.7989535,57.9574571 9.50151163,60.6046777 9.90511628,63.1685214 C10.2317997,64.6636978 11.2189922,65.9265801 12.5854651,66.5974017 C12.9447267,66.8120099 13.1406559,67.2230865 13.0822093,67.6396145 L9.3255814,99.854414 L35.4667442,99.1457093 L29.3298837,66.8371106 C29.2652741,66.4273215 29.4481861,66.0179717 29.7955814,65.7948978 C29.7955814,65.7948978 32.424186,64.0752466 32.6725581,61.7302676 C32.7189043,60.2696166 32.0924554,58.8693585 30.9753488,57.9366128 C30.6237194,57.5231042 30.6473608,56.9067042 31.0296148,56.521743 C31.4118688,56.1367818 32.0239341,56.112973 32.4345349,56.4670927 C34.0129363,57.8377182 34.8599589,59.8757057 34.7216279,61.9699766 C34.3535873,64.0642333 33.1921893,65.932641 31.4824419,67.1810409 L37.6917442,100.094123 C37.7511242,100.402849 37.6689151,100.72207 37.4680295,100.962817 C37.2671439,101.203564 36.9690611,101.340095 36.6568605,101.334356 L8.1044186,102.116016 L8.16651163,101.970106 Z" id="Shape" fill="#231F20"></path>
                                                                    <ellipse id="Oval" fill="#E0E0E0" style="mix-blend-mode: multiply;" cx="22.1788372" cy="37.1444663" rx="11.4768605" ry="12.3398002"></ellipse>
                                                                    <g id="Group-12" transform="translate(22.000000, 24.000000) scale(-1, 1) translate(-22.000000, -24.000000) ">
                                                                        <path d="M22.2409302,5.21106429 C31.9895349,5.21106429 39.9167442,14.4971809 39.9167442,25.9406781 C39.9167442,37.3841752 31.9895349,46.7015582 22.2409302,46.7015582 C12.4923256,46.7015582 4.56511628,37.4154416 4.56511628,25.9719444 C4.56511628,14.5284473 12.4302326,5.21106429 22.2409302,5.21106429 Z" id="Shape" fill="#FBCFA1"></path>
                                                                        <path d="M39.8236047,19.4268477 C40.3662231,21.4448185 40.6377117,23.5269515 40.630814,25.6175921 C40.630814,37.0819335 32.7243023,46.3263616 22.955,46.3263616 C22.0815666,46.3270946 21.2094773,46.257391 20.347093,46.117919 C33.8419767,44.1898252 40.0512791,28.1397472 32.9830233,15.6331929 C35.6219767,15.7061478 37.9090698,17.1444015 39.8236047,19.4268477 Z" id="Shape" fill="#EFBE8A"></path>
                                                                        <path d="M12.7613953,42.0532889 L12.5026744,42.3763748 L6.68662791,42.3763748 C6.68662791,42.3763748 1.7605814,36.3523845 1.5122093,29.5571567 C1.26383721,22.7619288 2.71267442,14.6847792 5.8794186,9.49455914 C9.04616279,4.30433911 18.9086047,-0.0937991573 26.007907,1.43825375 C33.1072093,2.97030665 39.5752326,11.1933661 41.5311628,16.5920287 C43.487093,21.9906913 42.3590698,30.4638819 41.8519767,33.2674345 C41.3448837,36.070987 36.4498837,42.3451085 36.4498837,42.3451085 L31.917093,42.3451085 C33.8209411,39.6754487 35.5262457,36.8677211 37.0190698,33.9448728 C38.0463277,31.7964856 38.4891466,29.4120645 38.3023256,27.0350016 L33.9765116,23.1996582 L30.1681395,17.7176186 C30.1681395,17.7176186 25.5215116,24.1376498 20.4402326,26.7014934 C15.3589535,29.2653371 5.7655814,28.5774766 5.7655814,28.5774766 C5.7655814,28.5774766 8.29069767,38.5618758 12.7613953,42.0532889 Z" id="Shape" fill="#E3602D"></path>
                                                                        <path d="M12.7613953,42.0532889 L12.5026744,42.3763748 L6.68662791,42.3763748 C6.68662791,42.3763748 1.7605814,36.3523845 1.5122093,29.5571567 L1.5122093,26.7223377 C2.86136956,27.5121091 4.29525312,28.1449686 5.78627907,28.608743 C5.90011628,29.098583 8.39418605,38.6348307 12.7924419,42.063711 L12.7613953,42.0532889 Z M42.4418605,20.8442572 C42.7987663,25.0205739 42.6038876,29.2261196 41.8623256,33.3508115 C41.3345349,36.1856305 36.4602326,42.4284855 36.4602326,42.4284855 L31.917093,42.4284855 C33.8209411,39.7588257 35.5262457,36.9510982 37.0190698,34.0282498 C38.0608948,31.8549401 38.5040803,29.4397509 38.3023256,27.0350016 L33.9765116,23.1996582 L30.1681395,17.7176186 C30.1681395,17.7176186 25.5215116,24.1376498 20.4402326,26.7014934 C20.0676744,26.8890918 19.6744186,27.0454237 19.2604651,27.2121777 C26.835814,23.0120599 32.0930233,14.0594515 32.0930233,14.0594515 C32.0930233,14.0594515 34.6802326,19.5727575 42.4418605,20.8755236 L42.4418605,20.8442572 Z" id="Shape" fill="#C34F27"></path>
                                                                        <path d="M1.65709302,23.9708958 C2.13313953,18.7598315 3.55093023,13.3090582 5.8794186,9.49455914 C9.04616279,4.28349485 18.9086047,-0.0937991573 26.007907,1.43825375 C27.5390606,1.79874876 29.0053595,2.39645391 30.3544186,3.21001561 C13.9722093,1.6779627 5.55860465,10.7556367 1.65709302,23.9708958 Z" id="Shape" fill="#FF734F"></path>
                                                                        <path d="M35.5288372,41.1152973 C33.5373937,43.410332 31.0332813,45.1963424 28.2225581,46.3263616 C24.1352107,48.0005807 19.5601381,48.0005807 15.4727907,46.3263616 C12.6588115,45.2023813 10.1533796,43.4154297 8.16651163,41.1152973 L10.619186,41.1152973 C13.6071012,44.1066138 17.6348646,45.807638 21.8476744,45.8573658 C26.0773303,45.8156631 30.1241018,44.114451 33.127907,41.1152973 L35.5288372,41.1152973 Z" id="Shape" fill="#231F20"></path>
                                                                        <path d="M21.8476744,0 C33.9040698,0 43.6837209,11.1516776 43.6837209,24.8984652 C43.7460989,31.2958265 41.515782,37.5013128 37.4019767,42.3763748 L34.9906977,42.3763748 C39.5172712,37.7104101 42.0123326,31.4210802 41.9244186,24.8984652 C41.9244186,12.1417798 32.9312791,1.79260612 21.8476744,1.79260612 C10.7640698,1.79260612 1.77093023,12.1522019 1.77093023,24.8984652 C1.68301619,31.4210802 4.1780776,37.7104101 8.70465116,42.3763748 L6.29337209,42.3763748 C2.17956683,37.5013128 -0.0507500964,31.2958265 0.011627907,24.8984652 C0.011627907,11.1516776 9.78093023,0 21.8476744,0 Z" id="Shape" fill="#231F20"></path>
                                                                        <path d="M41.2310465,29.5780009 C40.2887545,29.3007347 39.3685516,28.9523438 38.4782558,28.5357881 C36.4783614,27.6407881 34.6633851,26.3750952 33.127907,24.804666 C31.6066768,23.2214726 30.4047244,21.3562243 29.5886047,19.3122043 C29.4230233,18.9161634 29.2884884,18.5409668 29.1539535,18.1449259 L29.1539535,17.3736884 L30.7683721,17.3736884 C31.4878623,19.6922424 32.7312164,21.8112818 34.400814,23.5644327 C36.2605056,25.5309183 38.6021488,26.9688615 41.1896512,27.7332842 L41.2310465,29.5780009 Z" id="Shape" fill="#231F20"></path>
                                                                        <path d="M33.19,12.5899313 C31.911402,16.5437582 29.6907011,20.1220431 26.7219767,23.0120599 C20.409186,29.1298494 10.7123256,32.0376233 2.46430233,28.2960791 L2.22627907,28.1397472 L2.22627907,26.1595428 C9.13930233,29.8802427 18.6809302,28.2960791 25.4904651,21.6884496 C28.1200112,19.1585139 30.1228135,16.0420022 31.3375581,12.5899313 L33.19,12.5899313 Z" id="Shape" fill="#231F20"></path>
                                                                        <path d="M14.9656977,32.8818157 C15.9373335,32.8818157 16.725,32.0885709 16.725,31.1100538 C16.725,30.1315368 15.9373335,29.338292 14.9656977,29.338292 C13.9940618,29.338292 13.2063953,30.1315368 13.2063953,31.1100538 C13.2063953,32.0885709 13.9940618,32.8818157 14.9656977,32.8818157 L14.9656977,32.8818157 Z" id="Shape" fill="#231F20"></path>
                                                                        <path d="M28.7296512,32.8818157 C29.6940408,32.853238 30.4556561,32.0477882 30.4368758,31.0763325 C30.4180956,30.1048767 29.6259272,29.3298918 28.6611639,29.3391387 C27.6964006,29.3483856 26.919022,30.1384141 26.9186047,31.1100538 C26.9213413,31.5827209 27.1104159,32.0349331 27.4442324,32.3672046 C27.7780489,32.6994762 28.2292616,32.8845879 28.6986047,32.8818157 L28.7296512,32.8818157 Z" id="Shape" fill="#231F20"></path>
                                                                        <path d="M21.8476744,41.8865348 C19.5398837,41.8865348 16.9733721,40.4482811 16.9733721,37.8635932 L18.7326744,37.8635932 C18.7326744,39.1246707 20.1401163,40.1251951 21.8373256,40.1251951 C23.5345349,40.1251951 24.9419767,39.0829822 24.9419767,37.8635932 L26.7219767,37.8635932 C26.7219767,40.4482811 24.1347674,41.8865348 21.8476744,41.8865348 L21.8476744,41.8865348 Z" id="Shape" fill="#231F20"></path>
                                                                        <path d="M32.175814,7.23295724 C30.9050907,11.1855872 28.691343,14.7641196 25.7284884,17.6550858 C19.395,23.7311868 9.71883721,26.6493828 1.43976744,22.9286829 L1.2327907,22.8140395 L1.2327907,20.8442572 C8.14581395,24.5649571 17.6874419,22.9807935 24.4969767,16.373164 C27.1284225,13.8488375 29.1255722,10.7300821 30.3233721,7.27464576 L32.175814,7.23295724 Z" id="Shape" fill="#231F20"></path>
                                                                        <path d="M31.0581395,3.37676966 C29.7247222,6.67750782 27.7187106,9.65990408 25.1696512,12.1313577 C19.0534884,18.0615488 9.73953488,20.9693227 1.65709302,17.7176186 C1.6741992,17.6458554 1.69847004,17.5760191 1.72953488,17.509176 C2.14251306,17.1646498 2.38152313,16.6526789 2.38151163,16.1126108 C9.10825581,18.7702536 17.677093,16.9255368 23.9381395,10.9015465 C26.2576825,8.67759565 28.0905904,5.99040774 29.3195349,3.01199516 C29.5086514,3.09845286 29.702089,3.17498439 29.8990698,3.24128199 C30.2665783,3.38948259 30.6666943,3.43625354 31.0581395,3.37676966 Z" id="Shape" fill="#231F20"></path>
                                                                        <path d="M39.1095349,27.7645506 C38.5929243,33.2796554 36.1808841,38.4401585 32.2896512,42.3555306 L29.5886047,42.3555306 C34.0156862,38.7382501 36.8126614,33.4802541 37.3502326,27.7645506 L39.1095349,27.7645506 Z M11.3953488,42.3763748 C7.49868193,38.4625396 5.07954686,33.3025174 4.55476744,27.7853948 L6.34511628,27.7853948 C6.87353574,33.5038759 9.67229634,38.7652283 14.1067442,42.3763748 L11.3953488,42.3763748 Z" id="Shape" fill="#231F20"></path>
                                                                    </g>
                                                                </g>
                                                            </g>
                                                        </g>
                                                    </g>
                                                </g>
                                            </g>
                                            <path d="M249.229117,51.2078049 L1.30362353,51.2078049 C0.583652135,51.2078049 8.81710664e-17,50.6240279 0,49.9039024 C-8.81710664e-17,49.183777 0.583652135,48.6 1.30362353,48.6 L249.229117,48.6 C249.949088,48.6 250.53274,49.183777 250.53274,49.9039024 C250.53274,50.6240279 249.949088,51.2078049 249.229117,51.2078049 L249.229117,51.2078049 Z" id="Shape" fill="#000000"></path>
                                            <path d="M249.229117,417.916896 L1.30362353,417.916896 C0.583652135,417.916896 8.81710664e-17,417.333119 0,416.612993 C-8.81710664e-17,415.892868 0.583652135,415.309091 1.30362353,415.309091 L249.229117,415.309091 C249.949088,415.309091 250.53274,415.892868 250.53274,416.612993 C250.53274,417.333119 249.949088,417.916896 249.229117,417.916896 L249.229117,417.916896 Z" id="Shape" fill="#000000"></path>
                                            <path d="M148.100573,453.26235 L98.5036232,453.26235 C97.7836519,453.26235 97.2,452.678573 97.2,451.958448 C97.2,451.238323 97.7836519,450.654546 98.5036232,450.654545 L148.100573,450.654545 C148.566313,450.654545 148.996674,450.903068 149.229544,451.306497 C149.462414,451.709925 149.462414,452.20697 149.229544,452.610399 C148.996674,453.013828 148.566313,453.26235 148.100573,453.26235 L148.100573,453.26235 Z" id="Shape" fill="#000000"></path>
                                            <path d="M216.282995,486 L34.3682567,486 C15.3824011,485.983643 -7.04264801e-06,470.584681 0,451.594756 L0,34.3756098 C0.0163360343,15.3972569 15.3939634,0.0163395294 34.3682567,0 L216.282995,0 C235.257288,0.0163395294 250.634915,15.3972569 250.651251,34.3756098 L250.651251,451.594756 C250.651258,470.584681 235.26885,485.983643 216.282995,486 Z M34.3682567,2.60780488 C16.8339056,2.6241422 2.62358089,16.8375072 2.60724706,34.3756098 L2.60724706,451.594756 C2.62358089,469.132859 16.8339056,483.346224 34.3682567,483.362561 L216.282995,483.362561 C233.817346,483.346224 248.02767,469.132859 248.044004,451.594756 L248.044004,34.3756098 C248.02767,16.8375072 233.817346,2.6241422 216.282995,2.60780488 L34.3682567,2.60780488 Z" id="Shape-Copy-4" fill="#000000"></path>
                                            <path d="M124.442509,36.8163858 C119.157265,36.8163858 114.872727,32.5309319 114.872727,27.2445565 C114.872727,21.9581812 119.157265,17.6727273 124.442509,17.6727273 C129.727754,17.6727273 134.012291,21.9581812 134.012291,27.2445565 C134.012291,32.5309319 129.727754,36.8163858 124.442509,36.8163858 L124.442509,36.8163858 Z M124.442509,20.2805322 C120.597207,20.2805322 117.479974,23.3984321 117.479974,27.2445565 C117.479974,31.090681 120.597207,34.2085809 124.442509,34.2085809 C128.287811,34.2085809 131.405044,31.090681 131.405044,27.2445565 C131.340372,23.4448024 128.242001,20.3985182 124.442509,20.3990687 L124.442509,20.2805322 Z" id="Shape" fill="#000000"></path>
                                            <path d="M229.126389,404.993714 L18.9763508,404.993714 C18.6306083,404.993714 18.2990266,404.856339 18.0545498,404.61181 C17.8100729,404.367281 17.6727273,404.035628 17.6727273,403.689812 L17.6727273,71.9948115 C17.6727273,71.2746861 18.2563794,70.6909091 18.9763508,70.6909091 L229.126389,70.6909091 C229.846361,70.6909091 230.430013,71.2746861 230.430013,71.9948115 L230.430013,403.689812 C230.430013,404.409937 229.846361,404.993714 229.126389,404.993714 L229.126389,404.993714 Z M20.2799743,402.267373 L227.674627,402.267373 L227.674627,73.3283481 L20.2799743,73.3283481 L20.2799743,402.267373 Z" id="Shape" fill="#000000"></path>
                                        </g>
                                    </g>
                                </g>
                            </g>
                        </g>
                    </g>
                    <path d="M57.5001289,228 L187.999742,228 C195.733936,228 202,221.73045 202,213.996569 L202,191.003431 C202,183.266374 195.731871,177 187.999742,177 L52.0002577,177 C44.2660636,177 38,183.26955 38,191.003431 L38,208.498284 L38,228 L57.5001289,228 Z" id="Combined-Shape-Copy-9" fill="#ECEBEB"></path>
                    <path d="M110.502708,292 L204.994585,292 C212.737031,292 219,285.73045 219,277.996569 L219,255.003431 C219,247.266374 212.729562,241 204.994585,241 L108.005415,241 C100.262969,241 94,247.26955 94,255.003431 L94,272.498284 L94,292 L110.502708,292 Z" id="Combined-Shape-Copy-8" fill="#ECEBEB" transform="translate(156.500000, 266.500000) scale(-1, 1) translate(-156.500000, -266.500000) "></path>
                    <path d="M55.9995469,353 L170.000906,353 C177.726562,353 184,346.73045 184,338.996569 L184,316.003431 C184,308.266374 177.732392,302 170.000906,302 L51.9990938,302 C44.2734375,302 38,308.26955 38,316.003431 L38,333.498284 L38,353 L55.9995469,353 Z" id="Combined-Shape-Copy-3" fill="#98D0F2"></path>
                    <path d="M66.6816667,325.459 C67.3116699,325.885002 67.7646653,326.481996 68.0406667,327.25 L67.1946667,327.646 C66.9906657,326.985997 66.6486691,326.482002 66.1686667,326.134 C65.6886643,325.785998 65.0886703,325.612 64.3686667,325.612 C63.3246615,325.612 62.5086697,325.956997 61.9206667,326.647 C61.3326638,327.337003 61.0386667,328.287994 61.0386667,329.5 C61.0386667,330.724006 61.3296638,331.677997 61.9116667,332.362 C62.4936696,333.046003 63.3066615,333.388 64.3506667,333.388 C65.1186706,333.388 65.7696641,333.199002 66.3036667,332.821 C66.8376694,332.442998 67.1646661,331.918003 67.2846667,331.246 L68.1126667,331.534 C67.8726655,332.350004 67.4196701,332.994998 66.7536667,333.469 C66.0876634,333.943002 65.2926713,334.18 64.3686667,334.18 C63.0366601,334.18 61.9986704,333.766004 61.2546667,332.938 C60.510663,332.109996 60.1386667,330.964007 60.1386667,329.5 C60.1386667,328.035993 60.513663,326.890004 61.2636667,326.062 C62.0136705,325.233996 63.0546601,324.82 64.3866667,324.82 C65.2866712,324.82 66.0516636,325.032998 66.6816667,325.459 Z M71.396,321.868 C71.5760009,322.108001 71.666,322.419998 71.666,322.804 C71.666,323.320003 71.5370013,323.796998 71.279,324.235 C71.0209988,324.673002 70.6340026,325.017999 70.118,325.27 L69.614,324.82 C70.0340021,324.675999 70.3789987,324.418002 70.649,324.046 C70.9190014,323.673998 71.0420002,323.314002 71.018,322.966 L70.964,322.948 C70.8919997,323.056001 70.7540011,323.11 70.55,323.11 C70.3699991,323.11 70.2080008,323.041001 70.064,322.903 C69.9199993,322.764999 69.848,322.576001 69.848,322.336 C69.848,322.107999 69.9259993,321.913001 70.082,321.751 C70.2380008,321.588999 70.4299989,321.508 70.658,321.508 C70.9700016,321.508 71.2159991,321.627999 71.396,321.868 Z M80.9793334,329.878 L73.8333334,329.878 C73.8933337,330.982006 74.2203304,331.842997 74.8143334,332.461 C75.4083363,333.079003 76.2033284,333.388 77.1993334,333.388 C77.9073369,333.388 78.5163308,333.244001 79.0263334,332.956 C79.5363359,332.667999 79.9053322,332.260003 80.1333334,331.732 L80.8893334,332.128 C80.5533317,332.788003 80.0733365,333.294998 79.4493334,333.649 C78.8253303,334.003002 78.0753378,334.18 77.1993334,334.18 C75.8673267,334.18 74.8263371,333.766004 74.0763334,332.938 C73.3263296,332.109996 72.9513334,330.964007 72.9513334,329.5 C72.9513334,328.035993 73.3143297,326.890004 74.0403334,326.062 C74.766337,325.233996 75.7833268,324.82 77.0913334,324.82 C78.3153395,324.82 79.2753299,325.227996 79.9713334,326.044 C80.6673369,326.860004 81.0153334,327.939993 81.0153334,329.284 C81.0153334,329.488001 81.0033335,329.685999 80.9793334,329.878 Z M74.7873334,326.521 C74.2233306,327.127003 73.9053337,327.975995 73.8333334,329.068 L80.1693334,329.068 C80.1093331,327.987995 79.812336,327.142003 79.2783334,326.53 C78.7443307,325.917997 78.015338,325.612 77.0913334,325.612 C76.1193285,325.612 75.3513362,325.914997 74.7873334,326.521 Z M84.1906667,333.64 C83.5186633,333.279998 83.056668,332.758003 82.8046667,332.074 L83.5426667,331.588 C83.7226676,332.188003 84.0886639,332.637999 84.6406667,332.938 C85.1926695,333.238002 85.8706627,333.388 86.6746667,333.388 C87.4906708,333.388 88.1296644,333.232002 88.5916667,332.92 C89.053669,332.607998 89.2846667,332.194003 89.2846667,331.678 C89.2846667,331.233998 89.0866687,330.880001 88.6906667,330.616 C88.2946647,330.351999 87.5986717,330.130001 86.6026667,329.95 C85.3426604,329.721999 84.4546693,329.416002 83.9386667,329.032 C83.4226641,328.647998 83.1646667,328.102004 83.1646667,327.394 C83.1646667,326.925998 83.3086653,326.494002 83.5966667,326.098 C83.8846681,325.701998 84.2926641,325.390001 84.8206667,325.162 C85.3486693,324.933999 85.9486633,324.82 86.6206667,324.82 C87.5686714,324.82 88.3276638,324.999998 88.8976667,325.36 C89.4676695,325.720002 89.8606656,326.271996 90.0766667,327.016 L89.3026667,327.466 C88.966665,326.229994 88.072674,325.612 86.6206667,325.612 C86.1406643,325.612 85.7056686,325.689999 85.3156667,325.846 C84.9256647,326.002001 84.6196678,326.208999 84.3976667,326.467 C84.1756656,326.725001 84.0646667,327.003999 84.0646667,327.304 C84.0646667,327.796002 84.2686647,328.179999 84.6766667,328.456 C85.0846687,328.732001 85.8046615,328.959999 86.8366667,329.14 C88.0606728,329.344001 88.9246642,329.637998 89.4286667,330.022 C89.9326692,330.406002 90.1846667,330.945997 90.1846667,331.642 C90.1846667,332.410004 89.85767,333.024998 89.2036667,333.487 C88.5496634,333.949002 87.6706722,334.18 86.5666667,334.18 C85.6546621,334.18 84.8626701,334.000002 84.1906667,333.64 Z M97.734,333.424 C97.4939988,333.664001 97.2000018,333.849999 96.852,333.982 C96.5039983,334.114001 96.1200021,334.18 95.7,334.18 C94.9679964,334.18 94.3950021,333.979002 93.981,333.577 C93.566998,333.174998 93.36,332.566004 93.36,331.75 L93.36,325.774 L91.56,325.774 L91.56,325 L93.36,325 L93.36,322.75 L94.26,322.498 L94.26,325 L97.644,325 L97.644,325.774 L94.26,325.774 L94.26,331.624 C94.26,332.188003 94.3949987,332.616999 94.665,332.911 C94.9350014,333.205001 95.3279974,333.352 95.844,333.352 C96.444003,333.352 96.9659978,333.130002 97.41,332.686 L97.734,333.424 Z M111.860667,325 L108.098667,334 L107.198667,334 L103.436667,325 L104.444667,325 L107.666667,333.082 L110.906667,325 L111.860667,325 Z M121.498,333.28 L121.444,334 C121.227999,334.120001 120.934002,334.18 120.562,334.18 C120.141998,334.18 119.800001,334.066001 119.536,333.838 C119.271999,333.609999 119.122,333.214003 119.086,332.65 C118.809999,333.130002 118.366003,333.504999 117.754,333.775 C117.141997,334.045001 116.500003,334.18 115.828,334.18 C114.939996,334.18 114.229003,333.982002 113.695,333.586 C113.160997,333.189998 112.894,332.626004 112.894,331.894 C112.894,330.501993 114.033989,329.602002 116.314,329.194 L119.068,328.708 L119.068,327.916 C119.068,327.195996 118.855002,326.632002 118.429,326.224 C118.002998,325.815998 117.400004,325.612 116.62,325.612 C115.191993,325.612 114.232002,326.247994 113.74,327.52 L113.056,327.016 C113.320001,326.307996 113.757997,325.765002 114.37,325.387 C114.982003,325.008998 115.731996,324.82 116.62,324.82 C117.664005,324.82 118.482997,325.074997 119.077,325.585 C119.671003,326.095003 119.968,326.835995 119.968,327.808 L119.968,332.452 C119.968,333.088003 120.243997,333.406 120.796,333.406 C121.096001,333.406 121.329999,333.364 121.498,333.28 Z M117.394,333.127 C117.874002,332.952999 118.272998,332.695002 118.591,332.353 C118.909002,332.010998 119.068,331.600002 119.068,331.12 L119.068,329.446 L116.602,329.896 C115.629995,330.076001 114.922002,330.327998 114.478,330.652 C114.033998,330.976002 113.812,331.389997 113.812,331.894 C113.812,332.374002 113.997998,332.742999 114.37,333.001 C114.742002,333.259001 115.257997,333.388 115.918,333.388 C116.422003,333.388 116.913998,333.301001 117.394,333.127 Z M124.205333,331.822 C124.205333,332.374003 124.292332,332.763999 124.466333,332.992 C124.640334,333.220001 124.931331,333.334 125.339333,333.334 C125.579335,333.334 125.783332,333.316 125.951333,333.28 C126.119334,333.244 126.311332,333.178 126.527333,333.082 L126.401333,333.946 C126.065332,334.102001 125.669336,334.18 125.213333,334.18 C124.56533,334.18 124.085335,333.997002 123.773333,333.631 C123.461332,333.264998 123.305333,332.692004 123.305333,331.912 L123.305333,320.86 L124.205333,320.86 L124.205333,331.822 Z M128.253667,323.047 C128.115666,322.908999 128.046667,322.726001 128.046667,322.498 C128.046667,322.269999 128.115666,322.087001 128.253667,321.949 C128.391667,321.810999 128.574666,321.742 128.802667,321.742 C129.030668,321.742 129.213666,321.810999 129.351667,321.949 C129.489667,322.087001 129.558667,322.269999 129.558667,322.498 C129.558667,322.726001 129.489667,322.908999 129.351667,323.047 C129.213666,323.185001 129.030668,323.254 128.802667,323.254 C128.574666,323.254 128.391667,323.185001 128.253667,323.047 Z M129.252667,334 L128.352667,334 L128.352667,325 L129.252667,325 L129.252667,334 Z M140.276,320.86 L140.276,334 L139.466,334 L139.412,331.984 C139.159999,332.668003 138.740003,333.204998 138.152,333.595 C137.563997,333.985002 136.868004,334.18 136.064,334.18 C134.791994,334.18 133.787004,333.766004 133.049,332.938 C132.310996,332.109996 131.942,330.964007 131.942,329.5 C131.942,328.035993 132.310996,326.890004 133.049,326.062 C133.787004,325.233996 134.791994,324.82 136.064,324.82 C136.844004,324.82 137.521997,325.005998 138.098,325.378 C138.674003,325.750002 139.099999,326.259997 139.376,326.908 L139.376,320.86 L140.276,320.86 Z M138.44,332.443 C139.016003,331.812997 139.328,330.958005 139.376,329.878 L139.376,329.122 C139.316,328.041995 139.001003,327.187003 138.431,326.557 C137.860997,325.926997 137.108005,325.612 136.172,325.612 C135.127995,325.612 134.312003,325.956997 133.724,326.647 C133.135997,327.337003 132.842,328.287994 132.842,329.5 C132.842,330.712006 133.135997,331.662997 133.724,332.353 C134.312003,333.043003 135.127995,333.388 136.172,333.388 C137.108005,333.388 137.863997,333.073003 138.44,332.443 Z M150.975333,329.878 L143.829333,329.878 C143.889334,330.982006 144.21633,331.842997 144.810333,332.461 C145.404336,333.079003 146.199328,333.388 147.195333,333.388 C147.903337,333.388 148.512331,333.244001 149.022333,332.956 C149.532336,332.667999 149.901332,332.260003 150.129333,331.732 L150.885333,332.128 C150.549332,332.788003 150.069336,333.294998 149.445333,333.649 C148.82133,334.003002 148.071338,334.18 147.195333,334.18 C145.863327,334.18 144.822337,333.766004 144.072333,332.938 C143.32233,332.109996 142.947333,330.964007 142.947333,329.5 C142.947333,328.035993 143.31033,326.890004 144.036333,326.062 C144.762337,325.233996 145.779327,324.82 147.087333,324.82 C148.311339,324.82 149.27133,325.227996 149.967333,326.044 C150.663337,326.860004 151.011333,327.939993 151.011333,329.284 C151.011333,329.488001 150.999333,329.685999 150.975333,329.878 Z M144.783333,326.521 C144.21933,327.127003 143.901334,327.975995 143.829333,329.068 L150.165333,329.068 C150.105333,327.987995 149.808336,327.142003 149.274333,326.53 C148.740331,325.917997 148.011338,325.612 147.087333,325.612 C146.115328,325.612 145.347336,325.914997 144.783333,326.521 Z M148.941333,320.662 L147.249333,323.506 L146.511333,323.506 L147.951333,320.662 L148.941333,320.662 Z M160.242,327.88 L160.134,330.58 L159.414,330.58 L159.306,327.88 L159.306,322.12 L160.242,322.12 L160.242,327.88 Z M160.359,332.749 C160.509001,332.899001 160.584,333.093999 160.584,333.334 C160.584,333.574001 160.509001,333.768999 160.359,333.919 C160.208999,334.069001 160.014001,334.144 159.774,334.144 C159.533999,334.144 159.339001,334.069001 159.189,333.919 C159.038999,333.768999 158.964,333.574001 158.964,333.334 C158.964,333.093999 159.038999,332.899001 159.189,332.749 C159.339001,332.598999 159.533999,332.524 159.774,332.524 C160.014001,332.524 160.208999,332.598999 160.359,332.749 Z" id="c’est-validé-!-copy" fill="#000000"></path>
                </g>
            </g>
        </g>
    </g>
</svg>