<?xml version="1.0" encoding="UTF-8" standalone="no"?>
<svg width="518px" height="1003px" viewBox="0 0 518 1003" version="1.1" xmlns="http://www.w3.org/2000/svg" xmlns:xlink="http://www.w3.org/1999/xlink">
    <!-- Generator: Sketch 41.2 (35397) - http://www.bohemiancoding.com/sketch -->
    <title>smartphoneFichier 18 Copy 11</title>
    <desc>Created with Sketch.</desc>
    <defs>
        <rect id="path-1" x="0" y="0" width="245.585657" height="371.474104" rx="4"></rect>
        <mask id="mask-2" maskContentUnits="userSpaceOnUse" maskUnits="objectBoundingBox" x="0" y="0" width="245.585657" height="371.474104" fill="white">
            <use xlink:href="#path-1"></use>
        </mask>
    </defs>
    <g id="Symbols" stroke="none" stroke-width="1" fill="none" fill-rule="evenodd">
        <g id="smartphone-2">
            <g id="smartphoneFichier-18-Copy-11">
                <g id="smartphoneFichier-18">
                    <g id="9bd80a80-a90c-4d69-8f80-a3751340f9a5">
                        <g id="5bb1948c-3dda-4bf7-8d60-b466f3a91d19">
                            <g id="81d76407-8e5a-456d-9b55-a97a6cd9d2fb">
                                <g id="24aa2961-fda4-4933-a3f5-e76f82f8e56f">
                                    <path d="M75.0548086,3.31809931 C38.8683788,3.35181537 9.54189203,32.6845766 9.50818317,68.8787484 L9.50818317,929.912684 C9.54189203,966.106856 38.8683788,995.439617 75.0548086,995.473333 L450.480443,995.473333 C486.666873,995.439617 515.99336,966.106856 516.027069,929.912684 L516.027069,68.8787484 C515.99336,32.6845766 486.666873,3.35181537 450.480443,3.31809931 L75.0548086,3.31809931 Z" id="Shape-Copy-5" fill="#FFFFFF"></path>
                                    <path d="M514.345348,105.679852 L2.69034657,105.679852 C1.20450919,105.679852 1.81962599e-16,104.475085 0,102.98893 C-1.81962599e-16,101.502775 1.20450919,100.298008 2.69034657,100.298008 L514.345348,100.298008 C515.831186,100.298008 517.035695,101.502775 517.035695,102.98893 C517.035695,104.475085 515.831186,105.679852 514.345348,105.679852 L514.345348,105.679852 Z" id="Shape" fill="#000000"></path>
                                    <path d="M514.345348,862.473912 L2.69034657,862.473912 C1.20450919,862.473912 1.81962599e-16,861.269146 0,859.78299 C-1.81962599e-16,858.296835 1.20450919,857.092068 2.69034657,857.092068 L514.345348,857.092068 C515.831186,857.092068 517.035695,858.296835 517.035695,859.78299 C517.035695,861.269146 515.831186,862.473912 514.345348,862.473912 L514.345348,862.473912 Z" id="Shape" fill="#000000"></path>
                                    <path d="M305.64182,935.417918 L203.286362,935.417918 C201.800525,935.417918 200.596016,934.213151 200.596016,932.726996 C200.596016,931.240841 201.800525,930.036074 203.286362,930.036074 L305.64182,930.036074 C306.602988,930.036074 307.491145,930.54896 307.971729,931.381535 C308.452313,932.214109 308.452313,933.239883 307.971729,934.072457 C307.491145,934.905032 306.602988,935.417918 305.64182,935.417918 L305.64182,935.417918 Z" id="Shape" fill="#000000"></path>
                                    <path d="M446.352953,1002.98008 L70.9273186,1002.98008 C31.7453536,1002.94632 -1.45342298e-05,971.166791 0,931.976429 L0,70.9424934 C0.0337134095,31.7760122 31.7692152,0.0337206224 70.9273186,0 L446.352953,0 C485.511056,0.0337206224 517.246558,31.7760122 517.280272,70.9424934 L517.280272,931.976429 C517.280286,971.166791 485.534918,1002.94632 446.352953,1002.98008 Z M70.9273186,5.38184433 C34.7408888,5.41556039 5.41440199,34.7483216 5.38069313,70.9424934 L5.38069313,931.976429 C5.41440199,968.170601 34.7408888,997.503362 70.9273186,997.537078 L446.352953,997.537078 C482.539383,997.503362 511.86587,968.170601 511.899579,931.976429 L511.899579,70.9424934 C511.86587,34.7483216 482.539383,5.41556039 446.352953,5.38184433 L70.9273186,5.38184433 Z" id="Shape" fill="#000000"></path>
                                    <path d="M256.817608,75.9796329 C245.910211,75.9796329 237.068019,67.1355486 237.068019,56.2258179 C237.068019,45.3160871 245.910211,36.4720029 256.817608,36.4720029 C267.725006,36.4720029 276.567198,45.3160871 276.567198,56.2258179 C276.567198,67.1355486 267.725006,75.9796329 256.817608,75.9796329 L256.817608,75.9796329 Z M256.817608,41.8538472 C248.881886,41.8538472 242.448712,48.2883977 242.448712,56.2258179 C242.448712,64.1632381 248.881886,70.5977885 256.817608,70.5977885 C264.753331,70.5977885 271.186505,64.1632381 271.186505,56.2258179 C271.053038,48.3840943 264.65879,42.0973403 256.817608,42.0984765 L256.817608,41.8538472 Z" id="Shape" fill="#000000"></path>
                                    <path d="M472.858445,835.80376 L39.1623495,835.80376 C38.4488252,835.80376 37.764525,835.520253 37.2599872,835.015607 C36.7554493,834.510962 36.4720029,833.826515 36.4720029,833.112838 L36.4720029,148.578934 C36.4720029,147.092778 37.6765121,145.888012 39.1623495,145.888012 L472.858445,145.888012 C474.344282,145.888012 475.548791,147.092778 475.548791,148.578934 L475.548791,833.112838 C475.548791,834.598993 474.344282,835.80376 472.858445,835.80376 L472.858445,835.80376 Z M41.852696,830.177287 L469.862377,830.177287 L469.862377,151.331013 L41.852696,151.331013 L41.852696,830.177287 Z" id="Shape" fill="#000000"></path>
                                </g>
                                <rect id="Rectangle-13" fill="#ECEBEB" x="82.5498008" y="185.737052" width="332.262948" height="35.0836653" rx="4"></rect>
                                <rect id="Rectangle-13-Copy" fill="#ECEBEB" x="82.5498008" y="249.713147" width="268.286853" height="35.0836653" rx="4"></rect>
                                <ellipse id="Oval-6-Copy-8" stroke="#FFFFFF" stroke-width="2.4" fill="#81BD23" cx="395.207171" cy="267.25498" rx="23.7330677" ry="23.7330677"></ellipse>
                                <polygon id="Shape-Copy-17" fill="#FFFFFF" points="390.985875 273.862044 384.09109 266.746744 381.792829 269.118511 390.985875 278.605578 410.685259 258.276149 408.386997 255.904382"></polygon>
                            </g>
                        </g>
                    </g>
                </g>
                <g id="Group-11" transform="translate(136.207171, 359.091633)">
                    <use id="Rectangle-12" stroke="#000000" mask="url(#mask-2)" stroke-width="6" fill="#EBF5FB" xlink:href="#path-1"></use>
                    <ellipse id="Oval-3" stroke="#000000" stroke-width="3" fill="#ECEBEB" cx="123.824701" cy="185.737052" rx="76.3585657" ry="76.3585657"></ellipse>
                    <path d="M95.0726056,175.129402 C95.6669671,170.820281 96.9299664,166.622666 98.8616414,162.53643 C100.793316,158.450195 103.337889,154.828358 106.495434,151.670813 C109.65298,148.513267 113.386257,145.987268 117.695378,144.092741 C122.0045,142.198214 126.833615,141.250964 132.182869,141.250964 C139.240912,141.250964 145.258732,142.86686 150.23651,146.098701 C155.214288,149.330542 158.928992,153.472437 161.380733,158.52451 L156.700159,161.199124 C155.288551,158.450201 153.635507,156.147085 151.74098,154.289705 C149.846453,152.432325 147.803366,150.92787 145.611657,149.776295 C143.419949,148.624719 141.135406,147.788911 138.75796,147.268845 C136.380514,146.748778 134.040251,146.488749 131.7371,146.488749 C127.279388,146.488749 123.286081,147.28741 119.75706,148.884757 C116.228038,150.482104 113.144834,152.618058 110.507355,155.292685 C107.869875,157.967312 105.733921,161.031943 104.099426,164.486669 C102.464932,167.941396 101.387668,171.488938 100.867602,175.129402 L140.875363,175.129402 L139.203729,178.918438 L100.421833,178.918438 L100.421833,181.035841 C100.421833,182.818925 100.533274,184.527689 100.756159,186.162183 L136.752,186.162183 L134.968924,189.951219 L101.424813,189.951219 C102.316355,193.665979 103.709369,197.120653 105.603896,200.315347 C107.498424,203.51004 109.782967,206.277494 112.457594,208.617793 C115.132221,210.958091 118.141131,212.815443 121.484414,214.189904 C124.827698,215.564365 128.356667,216.251586 132.071426,216.251586 C134.448872,216.251586 136.900577,215.954409 139.426614,215.360048 C141.95265,214.765686 144.367208,213.83701 146.670359,212.573992 C148.97351,211.310974 151.128038,209.695078 153.134008,207.726255 C155.139978,205.757432 156.811595,203.435742 158.148908,200.761116 L163.052367,203.101402 C161.715053,206.07321 159.894848,208.71065 157.591697,211.013801 C155.288546,213.316952 152.725401,215.248598 149.902183,216.808797 C147.078966,218.368996 144.088629,219.539128 140.931084,220.319227 C137.773538,221.099327 134.67176,221.489371 131.625657,221.489371 C127.019355,221.489371 122.747446,220.634989 118.809801,218.926199 C114.872156,217.21741 111.343187,214.914293 108.222789,212.016781 C105.102391,209.119268 102.483525,205.757461 100.366112,201.931259 C98.2486986,198.105057 96.7070965,194.11175 95.741259,189.951219 L82.7025179,189.951219 L84.3741514,186.162183 L95.0726056,186.162183 C94.84972,184.379099 94.7382789,182.558894 94.7382789,180.701514 L94.7382789,178.918438 L86.3801116,178.918438 L88.051745,175.129402 L95.0726056,175.129402 Z" id="€" fill="#000000" transform="translate(122.877442, 181.370167) rotate(90.000000) translate(-122.877442, -181.370167) "></path>
                    <path d="M124.856574,285.828685 L124.856574,337.463569" id="Line-Copy-8" stroke="#000000" stroke-width="3" stroke-linecap="round"></path>
                    <path d="M147.557769,285.828685 L147.557769,337.463569" id="Line-Copy-7" stroke="#000000" stroke-width="3" stroke-linecap="round"></path>
                    <path d="M100.091633,285.828685 L100.091633,337.463569" id="Line-Copy-6" stroke="#000000" stroke-width="3" stroke-linecap="round"></path>
                    <path d="M124.856574,29.9243028 L124.856574,81.5591867" id="Line-Copy-11" stroke="#000000" stroke-width="3" stroke-linecap="round"></path>
                    <path d="M147.557769,29.9243028 L147.557769,81.5591867" id="Line-Copy-10" stroke="#000000" stroke-width="3" stroke-linecap="round"></path>
                    <path d="M100.091633,29.9243028 L100.091633,81.5591867" id="Line-Copy-9" stroke="#000000" stroke-width="3" stroke-linecap="round"></path>
                </g>
            </g>
        </g>
    </g>
</svg>