<?xml version="1.0" encoding="UTF-8"?>
<svg width="251px" height="487px" viewBox="0 0 251 487" version="1.1" xmlns="http://www.w3.org/2000/svg" xmlns:xlink="http://www.w3.org/1999/xlink">
    <!-- Generator: Sketch 42 (36781) - http://www.bohemiancoding.com/sketch -->
    <title>smartphoneFichier 18 Copy 11</title>
    <desc>Created with Sketch.</desc>
    <defs>
        <rect id="path-1" x="0" y="0" width="118.721311" height="179.679144" rx="3.8"></rect>
        <mask id="mask-2" maskContentUnits="userSpaceOnUse" maskUnits="objectBoundingBox" x="0" y="0" width="118.721311" height="179.679144" fill="white">
            <use xlink:href="#path-1"></use>
        </mask>
    </defs>
    <g id="Symbols" stroke="none" stroke-width="1" fill="none" fill-rule="evenodd">
        <g id="Rembourssement" transform="translate(-175.000000, -46.000000)">
            <g id="Group-2">
                <g id="Group-21">
                    <g id="smartphoneFichier-18-Copy-11" transform="translate(175.587822, 46.916221)">
                        <g id="smartphoneFichier-18" transform="translate(0.000000, -0.000000)">
                            <g id="9bd80a80-a90c-4d69-8f80-a3751340f9a5">
                                <g id="5bb1948c-3dda-4bf7-8d60-b466f3a91d19">
                                    <g id="81d76407-8e5a-456d-9b55-a97a6cd9d2fb">
                                        <g id="24aa2961-fda4-4933-a3f5-e76f82f8e56f">
                                            <path d="M36.2830851,1.60493892 C18.7897981,1.62124711 4.61275283,15.8092763 4.59645725,33.3161167 L4.59645725,449.791557 C4.61275283,467.298397 18.7897981,481.486426 36.2830851,481.502735 L217.771793,481.502735 C235.26508,481.486426 249.442126,467.298397 249.458421,449.791557 L249.458421,33.3161167 C249.442126,15.8092763 235.26508,1.62124711 217.771793,1.60493892 L36.2830851,1.60493892 Z" id="Shape-Copy-5" fill="#FFFFFF"></path>
                                            <path d="M248.645442,51.1165254 L1.30057055,51.1165254 C0.582285268,51.1165254 8.79645768e-17,50.533789 0,49.8149472 C-8.79645768e-17,49.0961054 0.582285268,48.513369 1.30057055,48.513369 L248.645442,48.513369 C249.363727,48.513369 249.946012,49.0961054 249.946012,49.8149472 C249.946012,50.533789 249.363727,51.1165254 248.645442,51.1165254 L248.645442,51.1165254 Z" id="Shape" fill="#000000"></path>
                                            <path d="M248.645442,417.171946 L1.30057055,417.171946 C0.582285268,417.171946 8.79645768e-17,416.589209 0,415.870368 C-8.79645768e-17,415.151526 0.582285268,414.568789 1.30057055,414.568789 L248.645442,414.568789 C249.363727,414.568789 249.946012,415.151526 249.946012,415.870368 C249.946012,416.589209 249.363727,417.171946 248.645442,417.171946 L248.645442,417.171946 Z" id="Shape" fill="#000000"></path>
                                            <path d="M147.753733,452.454396 L98.2729356,452.454396 C97.5546504,452.454396 96.9723653,451.87166 96.9723653,451.152818 C96.9723653,450.433976 97.5546504,449.85124 98.2729356,449.85124 L147.753733,449.85124 C148.218382,449.85124 148.647736,450.099319 148.880061,450.502029 C149.112385,450.904738 149.112385,451.400897 148.880061,451.803607 C148.647736,452.206317 148.218382,452.454396 147.753733,452.454396 L147.753733,452.454396 Z" id="Shape" fill="#000000"></path>
                                            <path d="M215.776477,485.13369 L34.287769,485.13369 C15.3463767,485.117362 -7.02615469e-06,469.745849 0,450.789774 L0,34.3143342 C0.0162977766,15.3698108 15.3579119,0.0163104037 34.287769,0 L215.776477,0 C234.706334,0.0163104037 250.047948,15.3698108 250.064246,34.3143342 L250.064246,450.789774 C250.064253,469.745849 234.717869,485.117362 215.776477,485.13369 Z M34.287769,2.60315638 C16.7944819,2.61946458 2.61743667,16.8074938 2.60114109,34.3143342 L2.60114109,450.789774 C2.61743667,468.296615 16.7944819,482.484644 34.287769,482.500952 L215.776477,482.500952 C233.269764,482.484644 247.446809,468.296615 247.463105,450.789774 L247.463105,34.3143342 C247.446809,16.8074938 233.269764,2.61946458 215.776477,2.60315638 L34.287769,2.60315638 Z" id="Shape" fill="#000000"></path>
                                            <path d="M124.151075,36.7507595 C118.878208,36.7507595 114.603704,32.4729445 114.603704,27.1959923 C114.603704,21.9190401 118.878208,17.6412251 124.151075,17.6412251 C129.423942,17.6412251 133.698445,21.9190401 133.698445,27.1959923 C133.698445,32.4729445 129.423942,36.7507595 124.151075,36.7507595 L124.151075,36.7507595 Z M124.151075,20.2443815 C120.314778,20.2443815 117.204846,23.3567236 117.204846,27.1959923 C117.204846,31.0352609 120.314778,34.1476031 124.151075,34.1476031 C127.987371,34.1476031 131.097304,31.0352609 131.097304,27.1959923 C131.032783,23.4030114 127.941668,20.3621572 124.151075,20.3627068 L124.151075,20.2443815 Z" id="Shape" fill="#000000"></path>
                                            <path d="M228.589794,404.2718 L18.9319097,404.2718 C18.5869769,404.2718 18.2561717,404.13467 18.0122674,403.890577 C17.7683632,403.646483 17.6313392,403.315422 17.6313392,402.970222 L17.6313392,71.8664785 C17.6313392,71.1476367 18.2136244,70.5649003 18.9319097,70.5649003 L228.589794,70.5649003 C229.308079,70.5649003 229.890364,71.1476367 229.890364,71.8664785 L229.890364,402.970222 C229.890364,403.689064 229.308079,404.2718 228.589794,404.2718 L228.589794,404.2718 Z M20.2324802,401.550318 L227.141431,401.550318 L227.141431,73.197638 L20.2324802,73.197638 L20.2324802,401.550318 Z" id="Shape" fill="#000000"></path>
                                        </g>
                                        <rect id="Rectangle-13" fill="#ECEBEB" x="39.9063232" y="89.8395722" width="160.622951" height="16.969697" rx="3.8"></rect>
                                        <rect id="Rectangle-13-Copy" fill="#ECEBEB" x="39.9063232" y="120.784314" width="129.69555" height="16.969697" rx="3.8"></rect>
                                        <ellipse id="Oval-6-Copy-8" stroke="#FFFFFF" stroke-width="2.28" fill="#81BD23" cx="191.051522" cy="129.269162" rx="11.4730679" ry="11.4795009"></ellipse>
                                        <polygon id="Shape-Copy-17" fill="#FFFFFF" points="189.010858 132.464948 185.677773 129.023333 184.566745 130.170538 189.010858 134.759358 198.533958 124.926171 197.42293 123.778966"></polygon>
                                    </g>
                                </g>
                            </g>
                        </g>
                        <g id="Group-11" transform="translate(65.845433, 173.689840)">
                            <use id="Rectangle-12" stroke="#000000" mask="url(#mask-2)" stroke-width="5.7" fill="#EBF5FB" xlink:href="#path-1"></use>
                            <text id="€" font-family="Raleway-Light, Raleway" font-size="43.7" font-weight="300" letter-spacing="0.105203699" fill="#000000">
                                <tspan x="66.5303161" y="163.561497">€</tspan>
                            </text>
                            <path d="M59.5009514,51.8359779 L59.5009514,125.957914" id="Line-Copy-8" stroke="#000000" stroke-width="2.85" stroke-linecap="round" transform="translate(59.500951, 88.867333) rotate(-90.000000) translate(-59.500951, -88.867333) "></path>
                            <path d="M59.5009514,40.4349084 L59.5009514,114.556845" id="Line-Copy-7" stroke="#000000" stroke-width="2.85" stroke-linecap="round" transform="translate(59.500951, 77.466263) rotate(-90.000000) translate(-59.500951, -77.466263) "></path>
                            <path d="M59.5009514,29.0338389 L59.5009514,103.155775" id="Line-Copy-13" stroke="#000000" stroke-width="2.85" stroke-linecap="round" transform="translate(59.500951, 66.065194) rotate(-90.000000) translate(-59.500951, -66.065194) "></path>
                            <path d="M59.5009514,63.2370474 L59.5009514,137.358984" id="Line-Copy-6" stroke="#000000" stroke-width="2.85" stroke-linecap="round" transform="translate(59.500951, 100.268402) rotate(-90.000000) translate(-59.500951, -100.268402) "></path>
                            <path d="M55.1517857,31.3529412 L98.6469807,31.3529412" id="Line-Copy-11" stroke="#000000" stroke-width="2.85" stroke-linecap="round"></path>
                            <path d="M55.1517857,38.0035651 L98.6469807,38.0035651" id="Line-Copy-10" stroke="#000000" stroke-width="2.85" stroke-linecap="round"></path>
                            <path d="M73.21875,24.7023173 L98.2152711,24.7023173" id="Line-Copy-9" stroke="#000000" stroke-width="2.85" stroke-linecap="round"></path>
                        </g>
                    </g>
                </g>
            </g>
        </g>
    </g>
</svg>