<?xml version="1.0" encoding="utf-8"?>
<!-- Generator: Adobe Illustrator 21.0.0, SVG Export Plug-In . SVG Version: 6.00 Build 0)  -->
<svg version="1.1" id="Calque_1" xmlns="http://www.w3.org/2000/svg" xmlns:xlink="http://www.w3.org/1999/xlink" x="0px" y="0px"
	 viewBox="0 0 889 800" width="889" height="900" style="enable-background:new 0 0 889 800;" xml:space="preserve">
<title>Group</title>
<desc>Created with Sketch.</desc>
<g id="Group-2">
	<circle id="Oval" cx="444.6" cy="444.6" r="142"/>
	<path id="Shape" d="M311.5,0.9l-81.2,88.7H89.6c-48.8,0-88.7,39.9-88.7,88.7v532.4c0,48.8,39.9,88.7,88.7,88.7h709.9
		c48.8,0,88.7-39.9,88.7-88.7V178.4c0-48.8-39.9-88.7-88.7-88.7H658.9L577.7,0.9H311.5z M444.6,666.4
		c-122.5,0-221.9-99.4-221.9-221.9s99.4-221.9,221.9-221.9s221.9,99.4,221.9,221.9S567.1,666.4,444.6,666.4z"/>
</g>
</svg>
