
<svg width="1600px" height="1000px" viewBox="1090 14759 1600 1000" version="1.1" xmlns="http://www.w3.org/2000/svg" xmlns:xlink="http://www.w3.org/1999/xlink">
    <!-- Generator: Sketch 41.2 (35397) - http://www.bohemiancoding.com/sketch -->
    <desc>Created with Sketch.</desc>
    <defs></defs>
    <path d="M2513.89937,15169.8911 L2513.89937,14996.6238 L2388.11321,14996.6238 L2388.11321,15169.8911 L2206.98114,15169.8911 L2206.98114,15293.6535 L2388.11321,15293.6535 L2388.11321,15471.8713 L2513.89937,15471.8713 L2513.89937,15293.6535 L2690,15293.6535 L2690,15169.8911 L2513.89937,15169.8911 L2513.89937,15169.8911 Z M1598.1761,15159.9901 L1598.1761,15358.0099 C1598.1761,15358.0099 1793.41636,15357.7525 1872.91321,15357.7525 C1829.86415,15486.1238 1762.92579,15556.0297 1598.1761,15556.0297 C1431.44907,15556.0297 1301.32075,15423.0445 1301.32075,15259 C1301.32075,15094.9555 1431.44907,14961.9703 1598.1761,14961.9703 C1686.32705,14961.9703 1743.25787,14992.4555 1795.47925,15034.9455 C1837.28051,14993.8168 1833.78868,14987.9555 1940.13838,14889.1386 C1849.85913,14808.2871 1729.86919,14759 1598.1761,14759 C1317.51697,14759 1090,14982.8564 1090,15259 C1090,15535.1386 1317.51697,15759 1598.1761,15759 C2017.68303,15759 2120.21886,15399.594 2086.22642,15159.9901 L1598.1761,15159.9901 L1598.1761,15159.9901 Z" id="GooglePlus" stroke="none" fill="#FFFFFF" fill-rule="evenodd"></path>
</svg>