<?xml version="1.0" encoding="utf-8"?>
<!-- Generator: Adobe Illustrator 18.0.0, SVG Export Plug-In . SVG Version: 6.00 Build 0)  -->
<!DOCTYPE svg PUBLIC "-//W3C//DTD SVG 1.1//EN" "http://www.w3.org/Graphics/SVG/1.1/DTD/svg11.dtd">
<svg version="1.1" id="Calque_1" xmlns="http://www.w3.org/2000/svg" xmlns:xlink="http://www.w3.org/1999/xlink" x="0px" y="0px"
	 viewBox="0 -400 960 960" enable-background="new 0 -400 960 960" xml:space="preserve">
<path d="M816.4-58.8l-45,45c0,0,69.4,69.4,96.8,96.8c-27.4,27.4-96.8,96.8-96.8,96.8l45,45L958.2,83C958.2,83,816.4-58.8,816.4-58.8
	z"/>
<path d="M90.9,83c27.4-27.4,96.8-96.8,96.8-96.8l-45-45L0,83l141.8,141.8l45-45C187.7,179.8,118.3,110.4,90.9,83z"/>
<path d="M534.8,20.4v-144.7H423.4V20.4H277.7v111.5h145.7v144.7h111.5V131.9h144.7V20.4H534.8z"/>
</svg>
