<?xml version="1.0" encoding="UTF-8"?>
<svg width="937px" height="799px" viewBox="0 0 937 799" version="1.1" xmlns="http://www.w3.org/2000/svg" xmlns:xlink="http://www.w3.org/1999/xlink">
    <!-- Generator: Sketch 42 (36781) - http://www.bohemiancoding.com/sketch -->
    <title>Group 2</title>
    <desc>Created with Sketch.</desc>
    <defs></defs>
    <g id="Symbols" stroke="none" stroke-width="1" fill="none" fill-rule="evenodd">
        <g id="maison" fill-rule="nonzero" fill="#FFFFFF">
            <g id="d76248a5-b48b-42a4-b15d-eebdf764fcd7">
                <g id="Group-2">
                    <path d="M898.593397,128.097906 C897.956629,124.479071 894.812974,121.861103 891.17226,121.917744 L565.124584,121.917744 L474.104333,2.77170909 C472.644934,1.01797304 470.492057,0.00531275421 468.223081,0.00531275421 C465.954106,0.00531275421 463.801229,1.01797304 462.34183,2.77170909 L371.432896,121.917744 L45.1996915,121.917744 C41.5589769,121.861103 38.4153224,124.479071 37.778554,128.097906 L0.376021052,338.073598 C-0.0119800938,340.275564 0.594996635,342.537357 2.0309927,344.240561 C3.46698876,345.943764 5.58178541,346.910207 7.79715854,346.875647 L54.7358532,346.875647 L54.7358532,705.999251 L32.4724407,705.999251 C28.3738596,705.999251 25.0513032,709.353133 25.0513032,713.490357 L25.0513032,787.390114 C25.0513032,791.527337 28.3738596,794.88122 32.4724407,794.88122 L333.399566,794.88122 C334.65708,797.400326 337.209888,798.992778 340.004378,799.001328 L596.515996,799.001328 C599.310486,798.992778 601.863294,797.400326 603.120808,794.88122 L904.15925,794.88122 C908.257831,794.88122 911.580388,791.527337 911.580388,787.390114 L911.580388,713.490357 C911.580388,709.353133 908.257831,705.999251 904.15925,705.999251 L881.895838,705.999251 L881.895838,346.913102 L928.834533,346.913102 C931.049906,346.947663 933.164702,345.98122 934.600698,344.278016 C936.036694,342.574813 936.643671,340.31302 936.25567,338.111053 L898.593397,128.097906 Z M39.7451554,720.981462 L370.245514,720.981462 L370.245514,726.637247 L361.006197,726.637247 C356.907616,726.637247 353.58506,729.991129 353.58506,734.128353 L353.58506,755.253271 L339.967273,755.253271 C335.868692,755.253271 332.546135,758.607153 332.546135,762.744376 L332.546135,779.749186 L39.7451554,779.749186 L39.7451554,720.981462 Z M347.38841,784.019116 L347.38841,770.385304 L589.057753,770.385304 L589.057753,784.019116 L347.38841,784.019116 Z M408.315949,713.153257 L551.39548,713.153257 L551.39548,726.637247 L385.087789,726.637247 L385.087789,713.003435 L408.315949,713.153257 Z M567.870405,755.403093 L368.427335,755.403093 L368.427335,741.619458 L568.093039,741.619458 L567.870405,755.403093 Z M526.683092,484.899268 L409.651754,484.899268 L409.651754,465.160205 L526.86862,465.160205 L526.683092,484.899268 Z M402.045088,499.881479 L545.978049,499.881479 L545.978049,512.69127 L390.134162,512.69127 L390.134162,499.881479 L402.045088,499.881479 Z M415.588664,527.673481 L520.523548,527.673481 L520.523548,698.171046 L415.774192,698.171046 L415.588664,527.673481 Z M896.552584,779.899008 L603.937133,779.899008 L603.937133,762.894198 C603.937133,758.756975 600.614577,755.403093 596.515996,755.403093 L582.935314,755.403093 L582.935314,734.128353 C582.935314,729.991129 579.612758,726.637247 575.514177,726.637247 L566.237755,726.637247 L566.237755,720.83164 L896.738113,720.83164 L896.552584,779.899008 Z M866.868034,705.999251 L566.311966,705.999251 L566.311966,705.662151 C566.311966,701.524928 562.98941,698.171046 558.890829,698.171046 L535.625563,698.171046 L535.625563,527.673481 L553.621821,527.673481 C557.720402,527.673481 561.042958,524.319599 561.042958,520.182376 L561.042958,492.390374 C561.042958,488.25315 557.720402,484.899268 553.621821,484.899268 L541.748001,484.899268 L541.748001,457.669099 C541.748001,453.531876 538.425445,450.177993 534.326864,450.177993 L402.230616,450.177993 C398.132035,450.177993 394.809479,453.531876 394.809479,457.669099 L394.809479,484.899268 L382.935659,484.899268 C378.837078,484.899268 375.514521,488.25315 375.514521,492.390374 L375.514521,520.182376 C375.514521,524.319599 378.837078,527.673481 382.935659,527.673481 L400.931917,527.673481 L400.931917,698.171046 L377.666651,698.171046 C373.56807,698.171046 370.245514,701.524928 370.245514,705.662151 L370.245514,705.999251 L69.6894452,705.999251 L69.6894452,346.913102 L866.942246,346.913102 L866.868034,705.999251 Z M706.756993,331.930891 L229.726275,331.930891 L468.241634,19.5892413 L706.756993,331.930891 Z M211.025009,331.930891 L16.6654178,331.930891 L51.3963413,136.937411 L359.930132,136.937411 L211.025009,331.930891 Z M874.363383,331.930891 L725.495365,331.930891 L576.553136,136.899956 L885.086927,136.899956 L919.81785,331.893435 L874.363383,331.930891 Z" id="Shape"></path>
                    <path d="M541.67379,165.890534 L541.67379,149.822113 C541.67379,145.684889 538.351233,142.331007 534.252652,142.331007 L402.230616,142.331007 C398.132035,142.331007 394.809479,145.684889 394.809479,149.822113 L394.809479,165.92799 L382.935659,165.92799 C378.837078,165.92799 375.514521,169.281872 375.514521,173.419096 L375.514521,192.14686 C375.514521,196.284083 378.837078,199.637965 382.935659,199.637965 L400.931917,199.637965 L400.931917,309.90704 C400.931917,314.044264 404.254474,317.398146 408.353055,317.398146 L528.130214,317.398146 C532.228795,317.398146 535.551351,314.044264 535.551351,309.90704 L535.551351,254.285581 C536.533766,252.265773 536.533766,249.900494 535.551351,247.880686 L535.551351,199.750332 L553.54761,199.750332 C557.646191,199.750332 560.968747,196.39645 560.968747,192.259226 L560.968747,173.531462 C560.968747,169.394239 557.646191,166.040357 553.54761,166.040357 L541.67379,165.890534 Z M451.692498,302.415935 L451.692498,199.750332 L485.495779,199.750332 L485.495779,302.415935 L451.692498,302.415935 Z M415.774192,302.415935 L415.774192,258.443145 L436.850223,258.443145 L436.850223,302.415935 L415.774192,302.415935 Z M436.850223,199.712876 L436.850223,243.460933 L415.774192,243.460933 L415.774192,199.750332 L436.850223,199.712876 Z M500.338054,302.415935 L500.338054,258.443145 L520.709076,258.443145 L520.709076,302.415935 L500.338054,302.415935 Z M520.709076,243.460933 L500.338054,243.460933 L500.338054,199.750332 L520.709076,199.750332 L520.709076,243.460933 Z M546.126472,184.618299 L390.282585,184.618299 L390.282585,180.872746 L546.126472,180.872746 L546.126472,184.618299 Z M526.831515,165.890534 L409.651754,165.890534 L409.651754,157.313218 L526.86862,157.313218 L526.831515,165.890534 Z" id="Shape"></path>
                    <path d="M624.567895,439.840268 C620.469314,439.840268 617.146758,443.19415 617.146758,447.331373 L617.146758,598.951352 C617.146758,603.088575 620.469314,606.442457 624.567895,606.442457 L778.927555,606.442457 C783.026136,606.442457 786.348693,603.088575 786.348693,598.951352 L786.348693,526.737093 C787.599586,524.519573 787.599586,521.800607 786.348693,519.583087 L786.348693,447.331373 C786.348693,443.19415 783.026136,439.840268 778.927555,439.840268 L624.567895,439.840268 Z M726.126162,454.822479 L726.126162,591.460246 L678.259825,591.460246 L678.259825,454.822479 L726.126162,454.822479 Z M631.989033,530.632468 L663.454656,530.632468 L663.454656,591.460246 L631.989033,591.460246 L631.989033,530.632468 Z M663.454656,515.650257 L631.989033,515.650257 L631.989033,454.822479 L663.454656,454.822479 L663.454656,515.650257 Z M740.968437,591.460246 L740.968437,530.632468 L771.469312,530.632468 L771.469312,591.460246 L740.968437,591.460246 Z M771.469312,515.650257 L740.968437,515.650257 L740.968437,454.822479 L771.469312,454.822479 L771.469312,515.650257 Z" id="Shape"></path>
                    <path d="M321.785486,519.545632 L321.785486,447.331373 C321.785486,443.19415 318.462929,439.840268 314.364348,439.840268 L159.930477,439.840268 C155.831896,439.840268 152.50934,443.19415 152.50934,447.331373 L152.50934,598.951352 C152.50934,603.088575 155.831896,606.442457 159.930477,606.442457 L314.290137,606.442457 C318.388718,606.442457 321.711274,603.088575 321.711274,598.951352 L321.711274,526.737093 C322.976302,524.509997 322.976302,521.772728 321.711274,519.545632 L321.785486,519.545632 Z M306.943211,515.800079 L276.40523,515.800079 L276.40523,454.822479 L306.906105,454.822479 L306.943211,515.800079 Z M213.733724,454.822479 L261.562955,454.822479 L261.562955,591.460246 L213.733724,591.460246 L213.733724,454.822479 Z M198.891449,454.822479 L198.891449,515.650257 L167.351615,515.650257 L167.351615,454.822479 L198.891449,454.822479 Z M167.351615,530.632468 L198.891449,530.632468 L198.891449,591.460246 L167.351615,591.460246 L167.351615,530.632468 Z M276.331019,591.460246 L276.331019,530.632468 L306.831894,530.632468 L306.831894,591.460246 L276.331019,591.460246 Z" id="Shape"></path>
                </g>
            </g>
        </g>
    </g>
</svg>