<?xml version="1.0" encoding="UTF-8"?>
<svg width="452px" height="800px" viewBox="0 0 452 800" version="1.1" xmlns="http://www.w3.org/2000/svg" xmlns:xlink="http://www.w3.org/1999/xlink">
    <!-- Generator: Sketch 42 (36781) - http://www.bohemiancoding.com/sketch -->
    <title>WatchFichier 1</title>
    <desc>Created with Sketch.</desc>
    <defs></defs>
    <g id="Symbols" stroke="none" stroke-width="1" fill="none" fill-rule="evenodd">
        <g id="WatchFichier-1" transform="translate(-2.000000, 0.000000)">
            <g id="68a796d3-0f0c-4455-8a3f-fc34d323184f">
                <g>
                    <g>
                        <g id="1e98d019-25a3-4321-b3df-75d7adf19128">
                            <path d="M209.394844,604.850526 C143.823382,604.851084 82.3500754,572.388829 44.597041,517.825626 L62.0133591,627.902689 L356.776328,627.902689 L374.192646,517.825626 C336.442295,572.391955 274.967272,604.855117 209.394844,604.850526 L209.394844,604.850526 Z" id="Shape"></path>
                            <polygon id="Shape" points="92.9730945 80.5511838 87.7857544 147.390511 331.003933 147.390511 325.816593 80.5511838"></polygon>
                            <path d="M416.27817,401.489842 L413.930957,416.109452 L429.539921,416.109452 L429.539921,383.072 L413.930957,383.072 L416.27817,397.69161 C416.477235,398.949583 416.477235,400.231869 416.27817,401.489842 L416.27817,401.489842 Z" id="Shape"></path>
                            <polygon id="Shape" points="99.4983457 23.8882514 95.4376678 56.6629324 323.352019 56.6629324 319.267869 23.8882514"></polygon>
                            <polygon id="Shape" points="319.267869 775.269312 323.352019 742.518519 95.4376678 742.518519 99.4983457 775.269312"></polygon>
                            <polygon id="Shape" points="325.816593 718.630268 331.003933 651.79094 87.7857544 651.79094 92.9730945 718.630268"></polygon>
                            <path d="M209.394844,218.195289 C112.206153,218.194192 32.9354685,297.439342 31.1975077,396.335221 C29.4595469,495.231101 105.895173,577.310459 203.021744,580.846342 C300.148315,584.382225 382.151001,508.070798 387.360509,409.3013 L387.360509,389.951816 C382.250716,293.694123 304.113653,218.283225 209.394844,218.195289 L209.394844,218.195289 Z M307.766527,354.501651 L215.333292,409.874618 C211.66062,412.073196 207.105595,412.073196 203.432923,409.874618 L130.082527,366.015788 C124.495346,362.671333 122.630029,355.350514 125.916225,349.664281 C129.202421,343.978047 136.395714,342.079661 141.982895,345.424116 L209.394844,385.723596 L295.748798,333.909979 C301.33598,330.565523 308.529273,332.46391 311.815469,338.150143 C315.101665,343.836377 313.236348,351.157196 307.649167,354.501651 L307.766527,354.501651 Z" id="Shape"></path>
                            <path d="M209.394844,194.307037 C274.942402,194.325758 336.386198,226.7863 374.12223,281.331937 L356.776328,171.278763 L62.0837755,171.278763 L44.597041,281.355825 C82.3449155,226.783571 143.81908,194.311951 209.394844,194.307037 Z" id="Shape"></path>
                            <path d="M387.290093,389.90404 L387.290093,409.253524 C387.682355,406.052498 387.906505,402.827584 387.906505,399.578782 C387.906505,396.32998 387.850468,393.105066 387.290093,389.90404 Z" id="Shape" fill="#FFFFFF" fill-rule="nonzero"></path>
                            <path d="M410.76222,389.187392 C410.949592,392.627301 411.043278,396.091097 411.043278,399.578782 C411.043278,403.066466 410.949592,406.530263 410.76222,409.970171 L410.76222,416.085563 L414.186023,416.085563 L416.7411,401.465954 C416.957795,400.207981 416.957795,398.925694 416.7411,397.667722 L414.186023,383.048112 L410.76222,383.048112 L410.76222,389.187392 Z" id="Shape" fill="#FFFFFF" fill-rule="nonzero"></path>
                            <path d="M411.088567,416.109452 L411.088567,409.994059 C410.544115,420.074034 409.203304,430.102583 407.077096,439.997703 L410.398696,439.997703 L414.51237,416.109452 L411.088567,416.109452 Z" id="Shape" fill="#FFFFFF" fill-rule="nonzero"></path>
                            <path d="M411.088567,389.187392 L411.088567,383.072 L414.51237,383.072 L410.398696,359.183749 L407.077096,359.183749 C409.203212,369.078883 410.544022,379.107425 411.088567,389.187392 L411.088567,389.187392 Z" id="Shape" fill="#FFFFFF" fill-rule="nonzero"></path>
                            <path d="M387.290093,389.90404 C387.468948,393.105066 387.571151,396.32998 387.571151,399.578782 C387.571151,402.827584 387.571151,406.052498 387.290093,409.253524 L387.290093,428.029689 C387.31117,429.089387 387.483017,430.141748 387.801108,431.15905 L393.243423,399.554893 L387.85221,367.879072 C387.534119,368.896375 387.362271,369.948735 387.341195,371.008433 L387.290093,389.90404 Z" id="Shape" fill="#FFFFFF" fill-rule="nonzero"></path>
                            <path d="M410.76222,389.187392 L410.76222,409.970171 C411.173161,406.530263 411.378632,403.066466 411.378632,399.578782 C411.378632,396.091097 411.173161,392.627301 410.76222,389.187392 Z" id="Shape" fill="#FFFFFF" fill-rule="nonzero"></path>
                            <path d="M441.275985,359.183749 L410.198889,359.183749 L413.977901,383.072 L429.539921,383.072 L429.539921,416.109452 L413.930957,416.109452 L410.151945,439.997703 L441.275985,439.997703 C444.388582,439.997703 447.373696,438.739308 449.574635,436.49935 C451.775574,434.259392 453.012048,431.221357 453.012048,428.053577 L453.012048,371.127874 C453.012048,367.960095 451.775574,364.92206 449.574635,362.682102 C447.373696,360.442144 444.388582,359.183749 441.275985,359.183749 Z" id="Shape" fill="#FFFFFF" fill-rule="nonzero"></path>
                            <path d="M410.76222,409.970171 L410.76222,389.187392 C410.261976,379.107425 409.030245,369.078883 407.077096,359.183749 L410.128472,359.183749 L378.276796,157.423577 C377.365401,151.626722 372.449896,147.363331 366.681566,147.366623 L354.523004,147.366623 L348.326362,67.6515281 C348.326362,67.6515281 348.326362,67.6515281 348.326362,67.5081986 L348.326362,67.1020983 L341.284724,10.4391659 C340.535756,4.43626796 335.494164,-0.0482014195 329.548661,-5.23887552e-12 L89.194082,-5.23887552e-12 C83.2485793,-0.0482014195 78.2069871,4.43626796 77.4580186,10.4391659 L70.4163805,67.1020983 L70.4163805,67.5081986 C70.4163805,67.6515281 70.4163805,67.5081986 70.4163805,67.6515281 L64.2432112,147.390511 L52.0846495,147.390511 C46.3163189,147.387219 41.4008143,151.65061 40.4894188,157.447465 L2.48804545,397.69161 C2.28897963,398.949583 2.28897963,400.231869 2.48804545,401.489842 L40.4894188,641.733987 C41.4008143,647.530842 46.3163189,651.794233 52.0846495,651.79094 L64.2432112,651.79094 L70.4163805,731.506035 C70.4163805,731.506035 70.4163805,731.506035 70.4163805,731.649365 L70.4163805,732.055465 L77.4580186,788.718398 C78.2069871,794.721296 83.2485793,799.205765 89.194082,799.157563 L329.619077,799.157563 C335.56458,799.205765 340.606172,794.721296 341.355141,788.718398 L348.396779,732.055465 L348.396779,731.649365 C348.396779,731.506035 348.396779,731.649365 348.396779,731.506035 L354.59342,651.79094 L366.751982,651.79094 C372.520313,651.794233 377.435817,647.530842 378.347213,641.733987 L410.269305,439.973815 L407.217929,439.973815 C409.123864,430.075095 410.308519,420.046578 410.76222,409.970171 L410.76222,409.970171 Z M99.4983457,23.8882514 L319.220925,23.8882514 L323.305075,56.6629324 L95.4376678,56.6629324 L99.4983457,23.8882514 Z M92.9730945,80.5511838 L325.816593,80.5511838 L331.003933,147.438288 L87.7857544,147.438288 L92.9730945,80.5511838 Z M62.0837755,171.326539 L356.776328,171.326539 L374.192646,281.403602 C336.47661,226.84002 275.027468,194.371746 209.476996,194.371746 C143.926524,194.371746 82.4773823,226.84002 44.7613459,281.403602 L62.0837755,171.326539 Z M319.220925,775.269312 L99.4983457,775.269312 L95.4141956,742.494631 L323.328547,742.494631 L319.220925,775.269312 Z M325.769649,718.60638 L92.9730945,718.60638 L87.7857544,651.719276 L330.956989,651.719276 L325.769649,718.60638 Z M356.658967,627.831024 L62.0837755,627.831024 L44.597041,517.825626 C82.3130774,572.389209 143.762219,604.857483 209.312691,604.857483 C274.863163,604.857483 336.312305,572.389209 374.028341,517.825626 L356.658967,627.831024 Z M387.783008,431.111274 C387.490794,430.093971 387.332927,429.04161 387.313565,427.981913 L387.313565,409.205747 C382.162212,507.356338 301.132561,583.472209 204.588612,580.849936 C108.044664,578.227664 31.1195514,497.821514 31.1195514,399.531005 C31.1195514,301.240496 108.044664,220.834347 204.588612,218.212074 C301.132561,215.589802 382.162212,291.705672 387.313565,389.856263 L387.313565,371.080098 C387.332927,370.0204 387.490794,368.968039 387.783008,367.950737 L392.782571,399.554893 L387.783008,431.111274 Z" id="Shape" fill="#FFFFFF" fill-rule="nonzero"></path>
                            <path d="M295.748798,333.909979 L209.394844,385.723596 L141.982895,345.424116 C136.395714,342.079661 129.202421,343.978047 125.916225,349.664281 C122.630029,355.350514 124.495346,362.671333 130.082527,366.015788 L203.432923,409.874618 C207.105595,412.073196 211.66062,412.073196 215.333292,409.874618 L307.766527,354.501651 C313.353709,351.157196 315.219026,343.836377 311.93283,338.150143 C308.646634,332.46391 301.45334,330.565523 295.866159,333.909979 L295.748798,333.909979 Z" id="Shape" fill="#FFFFFF" fill-rule="nonzero"></path>
                        </g>
                    </g>
                </g>
            </g>
        </g>
    </g>
</svg>