<?xml version="1.0" encoding="UTF-8" standalone="no"?>
<svg width="265px" height="389px" viewBox="0 0 265 389" version="1.1" xmlns="http://www.w3.org/2000/svg" xmlns:xlink="http://www.w3.org/1999/xlink">
    <!-- Generator: Sketch 42 (36781) - http://www.bohemiancoding.com/sketch -->
    <title>Group 7</title>
    <desc>Created with Sketch.</desc>
    <defs></defs>
    <g id="Page-1" stroke="none" stroke-width="1" fill="none" fill-rule="evenodd">
        <g id="Product-page-:-Risques-digitaux" transform="translate(-166.000000, -1875.000000)">
            <g id="Group-7" transform="translate(166.000000, 1875.000000)">
                <rect id="Rectangle-5" fill="#FEFABF" x="14" y="59.55" width="232" height="272"></rect>
                <g id="Ipad3Fichier-38" transform="translate(0.000000, 0.550000)" fill-rule="nonzero" fill="#000000">
                    <g id="a606dd29-4c85-4333-a1e8-ab44c4f4c4b9">
                        <g>
                            <g id="443e819b-5c98-422b-a9fd-4895e16aa5b4">
                                <path d="M251.913077,388.381449 L12.2307692,388.381449 C5.47590191,388.381449 8.27232665e-16,382.842752 0,376.010424 L0,12.3710247 C-8.27232665e-16,5.53869643 5.47590191,1.25507835e-15 12.2307692,0 L251.953846,0 C258.708713,4.18359449e-16 264.184615,5.53869643 264.184615,12.3710247 L264.184615,376.079152 C264.147185,382.900743 258.657395,388.404293 251.913077,388.381449 L251.913077,388.381449 Z M12.2307692,3.57385159 C9.92185105,3.56651905 7.70540966,4.49100658 6.07274991,6.14238875 C4.44009016,7.79377091 3.52608393,10.0356292 3.53333333,12.3710247 L3.53333333,376.079152 C3.55580119,380.917148 7.44759472,384.822817 12.2307692,384.807597 L251.953846,384.807597 C256.731688,384.800028 260.60303,380.884292 260.610513,376.051661 L260.610513,12.3710247 C260.60303,7.53839314 256.731688,3.62265708 251.953846,3.61508834 L12.2307692,3.57385159 Z" id="Shape"></path>
                                <path d="M249.602821,332.835548 L14.5002564,332.835548 L14.5002564,58.1438163 L249.602821,58.1438163 L249.602821,332.835548 Z M18.0471795,329.261696 L246.069487,329.261696 L246.069487,61.7176678 L18.0471795,61.7176678 L18.0471795,329.261696 Z" id="Shape"></path>
                                <path d="M131.752564,369.068905 C124.997697,369.068905 119.521795,363.530208 119.521795,356.69788 C119.521795,349.865552 124.997697,344.326855 131.752564,344.326855 C138.507431,344.326855 143.983333,349.865552 143.983333,356.69788 C143.938867,363.511492 138.488927,369.023929 131.752564,369.068905 Z M131.752564,347.763251 C126.911576,347.763251 122.987179,351.73265 122.987179,356.629152 C122.987179,361.525654 126.911576,365.495053 131.752564,365.495053 C136.593552,365.495053 140.517949,361.525654 140.517949,356.629152 C140.510466,351.735789 136.590449,347.77082 131.752564,347.763251 L131.752564,347.763251 Z" id="Shape"></path>
                            </g>
                        </g>
                    </g>
                </g>
                <g id="cart-outline(1)" transform="translate(88.000000, 152.550000)" fill-rule="nonzero" fill="#000000">
                    <path d="M67.7222222,68.4937799 C72.397466,68.4937799 76.1875,72.3269936 76.1875,77.0555024 C76.1875,81.7840112 72.397466,85.6172249 67.7222222,85.6172249 C63.0239931,85.6172249 59.2569444,81.7644498 59.2569444,77.0555024 C59.2569444,72.3037464 63.0239931,68.4937799 67.7222222,68.4937799 L67.7222222,68.4937799 Z M0,0 L13.8407292,0 L17.8194097,8.56172249 L80.4201389,8.56172249 C82.7577608,8.56172249 84.6527778,10.4783294 84.6527778,12.8425837 C84.6527778,13.5703301 84.4411458,14.2980766 84.1448611,14.9830144 L68.9920139,42.6801866 C67.5529167,45.291512 64.759375,47.0894737 61.5848958,47.0894737 L30.0517361,47.0894737 L26.2423611,54.0672775 L26.1153819,54.5809809 C26.1153819,55.1720445 26.5891362,55.6511962 27.1735417,55.6511962 L76.1875,55.6511962 L76.1875,64.2129187 L25.3958333,64.2129187 C20.6976042,64.2129187 16.9305556,60.3601435 16.9305556,55.6511962 C16.9305556,54.1528947 17.3114931,52.7402105 17.9463889,51.5415694 L23.7027778,41.0534593 L8.46527778,8.56172249 L0,8.56172249 L0,0 L0,0 Z M25.3958333,68.4937799 C30.0710772,68.4937799 33.8611111,72.3269936 33.8611111,77.0555024 C33.8611111,81.7840112 30.0710772,85.6172249 25.3958333,85.6172249 C20.6976042,85.6172249 16.9305556,81.7644498 16.9305556,77.0555024 C16.9305556,72.3037464 20.6976042,68.4937799 25.3958333,68.4937799 L25.3958333,68.4937799 Z M63.4895833,38.5277512 L75.2563194,17.123445 L21.7557639,17.123445 L31.7447917,38.5277512 L63.4895833,38.5277512 Z" id="Shape"></path>
                </g>
                <circle id="Oval-7" fill="#D0011B" cx="166" cy="157" r="24"></circle>
                <text id="€" font-family="WorkSans-Light, Work Sans" font-size="48" font-weight="300" letter-spacing="-0.800000072" fill="#FFFFFF">
                    <tspan x="150.176" y="174.55">€</tspan>
                </text>
            </g>
        </g>
    </g>
</svg>