<?xml version="1.0" encoding="UTF-8" standalone="no"?>
<svg width="37px" height="37px" viewBox="0 0 37 37" version="1.1" xmlns="http://www.w3.org/2000/svg" xmlns:xlink="http://www.w3.org/1999/xlink">
    <!-- Generator: Sketch 42 (36781) - http://www.bohemiancoding.com/sketch -->
    <title>checkbox-marked-outline(1) copy</title>
    <desc>Created with Sketch.</desc>
    <defs></defs>
    <g id="Page-1" stroke="none" stroke-width="1" fill="none" fill-rule="evenodd">
        <g id="Product-page-:-Risques-digitaux" transform="translate(-701.000000, -2427.000000)" fill-rule="nonzero" fill="#FFFFFF">
            <g id="checkbox-marked-outline(1)-copy" transform="translate(701.000000, 2427.000000)">
                <path d="M32.8888889,32.8888889 L4.11111111,32.8888889 L4.11111111,4.11111111 L24.6666667,4.11111111 L24.6666667,0 L4.11111111,0 C1.82944444,0 0,1.82944444 0,4.11111111 L0,32.8888889 C0,35.1593929 1.84060714,37 4.11111111,37 L32.8888889,37 C35.1593929,37 37,35.1593929 37,32.8888889 L37,16.4444444 L32.8888889,16.4444444 L32.8888889,32.8888889 Z M10.0927778,14.5533333 L7.19444444,17.4722222 L16.4444444,26.7222222 L37,6.16666667 L34.1016667,3.24777778 L16.4444444,20.905 L10.0927778,14.5533333 Z" id="Shape"></path>
            </g>
        </g>
    </g>
</svg>