<?xml version="1.0" encoding="UTF-8" standalone="no"?>
<svg width="320px" height="152px" viewBox="0 0 320 152" version="1.1" xmlns="http://www.w3.org/2000/svg" xmlns:xlink="http://www.w3.org/1999/xlink">
    <!-- Generator: Sketch 42 (36781) - http://www.bohemiancoding.com/sketch -->
    <title>INSIDE</title>
    <desc>Created with Sketch.</desc>
    <defs></defs>
    <g id="Page-1" stroke="none" stroke-width="1" fill="none" fill-rule="evenodd">
        <g id="INSIDE" fill-rule="nonzero">
            <g id="ExteriorFichier-34" transform="translate(60.000000, 28.000000)">
                <g id="4523a489-5915-4b54-b9a4-18557c2b8e66">
                    <g>
                        <g id="ac86f78e-3818-497b-8d65-a53b2d348478" transform="translate(156.989474, 0.000000)">
                            <path d="M13.6801053,94.6552174 C12.7595919,94.6552174 12.0133684,93.9112314 12.0133684,92.9934783 L12.0133684,20.1113043 C12.0133684,19.1935512 12.7595919,18.4495652 13.6801053,18.4495652 C14.6006186,18.4495652 15.3468421,19.1935512 15.3468421,20.1113043 L15.3468421,92.9934783 C15.3468421,93.9112314 14.6006186,94.6552174 13.6801053,94.6552174 L13.6801053,94.6552174 Z" id="Shape" fill="#000000"></path>
                            <ellipse id="Oval" fill="#FEFABF" cx="13.6801053" cy="13.4004348" rx="12.0517895" ry="12.0156522"></ellipse>
                            <path d="M13.6801053,26.8008696 C6.25699128,26.8008696 0.239368421,20.8012906 0.239368421,13.4004348 C0.239368421,5.99957901 6.25699128,1.35951515e-15 13.6801053,0 C21.1032192,-1.35951515e-15 27.1208421,5.99957901 27.1208421,13.4004348 C27.1090764,20.7964262 21.0983403,26.7891392 13.6801053,26.8008696 L13.6801053,26.8008696 Z M13.6801053,2.76956522 C9.35874549,2.76956522 5.46289463,5.36488407 3.80918184,9.34532866 C2.15546905,13.3257732 3.06956475,17.9074631 6.12522755,20.9539635 C9.18089035,24.0004639 13.7763598,24.9118187 17.7687756,23.2630646 C21.7611915,21.6143105 24.3643158,17.7301413 24.3643158,13.4217391 C24.3643158,7.53870593 19.5808318,2.76956522 13.6801053,2.76956522 L13.6801053,2.76956522 Z" id="Shape" fill="#000000"></path>
                            <path d="M28.0183158,94.1013043 C27.0069248,94.0578907 26.0068552,93.8713882 25.0481053,93.5473913 C19.8539074,91.7621311 15.0517205,88.9993896 10.9022105,85.4091304 C9.51326316,84.1095652 7.76105263,82.1921739 8.76536842,80.5304348 C10.5816842,77.3773913 19.0222105,81.893913 21.5864211,83.363913 C23.9811212,84.7025199 26.2235975,86.295404 28.2747368,88.1147826 C29.6636842,89.4143478 31.4158947,91.3317391 30.4115789,92.9934783 C29.8901412,93.7865763 28.962488,94.2159811 28.0183158,94.1013043 Z M11.6928421,82.2347826 C13.8052191,84.4619554 16.2660741,86.332641 18.9794737,87.773913 C21.6166848,89.4036499 24.5041263,90.5911481 27.5268421,91.2891304 C25.4154816,89.0608309 22.9544308,87.1899965 20.2402105,85.75 C17.6029994,84.1202631 14.7155579,82.9327649 11.6928421,82.2347826 L11.6928421,82.2347826 Z" id="Shape" fill="#000000"></path>
                            <ellipse id="Oval" fill="#FF4C28" cx="27.7832632" cy="91.3743478" rx="2.842" ry="2.83347826"></ellipse>
                            <path d="M27.7832632,95.5713043 C25.4229725,95.5713043 23.5095789,93.6636481 23.5095789,91.3104348 C23.5095789,88.9572215 25.4229725,87.0495652 27.7832632,87.0495652 C30.1435538,87.0495652 32.0569474,88.9572215 32.0569474,91.3104348 C32.0569474,93.6636481 30.1435538,95.5713043 27.7832632,95.5713043 Z M27.7832632,89.9043478 C26.9807643,89.9043478 26.3302105,90.552951 26.3302105,91.3530435 C26.3302105,92.153136 26.9807643,92.8017391 27.7832632,92.8017391 C28.585762,92.8017391 29.2363158,92.153136 29.2363158,91.3530435 C29.224636,90.5612831 28.5774906,89.9255665 27.7832632,89.9256522 L27.7832632,89.9043478 Z" id="Shape" fill="#000000"></path>
                        </g>
                        <g id="e39d3481-2fdc-444d-a83f-53892117af6e" transform="translate(0.000000, 1.000000)">
                            <ellipse id="Oval" fill="#A1AD84" cx="47.3310526" cy="33.853913" rx="13.0988421" ry="13.0595652"></ellipse>
                            <path d="M47.3310526,48.5326087 C41.3790967,48.5584844 35.9987628,45.0037782 33.7030419,39.5287857 C31.407321,34.0537932 32.649244,27.7389337 36.8487463,23.5336867 C41.0482487,19.3284397 47.3766126,18.0626566 52.8780511,20.3275464 C58.3794896,22.5924362 61.9683645,27.941052 61.9684211,33.8752174 C61.9568162,41.9405628 55.4205268,48.4857935 47.3310526,48.5326087 Z M47.3310526,22.3921739 C42.6812695,22.3921739 38.489334,25.184737 36.709939,29.4676954 C34.9305441,33.7506537 35.914111,38.6805521 39.2020042,41.9585865 C42.4898974,45.2366209 47.4346225,46.2172387 51.7304619,44.4431792 C56.0263014,42.6691198 58.8272632,38.4897538 58.8272632,33.853913 C58.7920547,27.5452781 53.6587482,22.4463895 47.3310526,22.4347826 L47.3310526,22.3921739 Z" id="Shape" fill="#000000"></path>
                            <path d="M47.3310526,94.8695652 C46.4459437,94.8695652 45.7284211,94.1541941 45.7284211,93.2717391 L45.7284211,34.3226087 L51.1346316,28.9752174 C51.7601086,28.3457328 52.7789907,28.3409637 53.4103684,28.9645652 C54.0417462,29.5881667 54.0465296,30.6039937 53.4210526,31.2334783 L48.9336842,35.6434783 L48.9336842,93.1652174 C48.9633001,93.6071215 48.807619,94.0414577 48.5037976,94.3645621 C48.1999763,94.6876664 47.775273,94.8705506 47.3310526,94.8695652 Z" id="Shape" fill="#000000"></path>
                            <path d="M47.3310526,40.65 L40.4931579,33.4278261" id="Shape" fill="#CCE6F8"></path>
                            <path d="M47.3310526,42.2478261 C46.8850001,42.24788 46.4591052,42.0625922 46.1557895,41.7365217 L39.3178947,34.5143478 C38.8918507,33.8599339 39.0021235,32.9944503 39.5787481,32.4670232 C40.1553726,31.9395961 41.0297253,31.9044622 41.6470526,32.383913 L48.5063158,39.4782609 C48.9396642,39.9441191 49.0549904,40.6216944 48.8000442,41.2040018 C48.5450979,41.7863092 47.9683297,42.1626857 47.3310526,42.1626087 L47.3310526,42.2478261 Z" id="Shape" fill="#000000"></path>
                            <path d="M8.73968421,78.2947826 C8.51427269,75.8959659 9.71788071,73.5876345 11.8167368,72.3934783 C13.7728314,71.2923289 16.1643265,71.2923289 18.1204211,72.3934783 C19.3121416,70.7001359 21.0097133,69.4251828 22.9710526,68.7504348 C25.1401312,68.0311759 27.5032522,68.1684207 29.5738947,69.133913 C33.2954321,70.7465922 35.328027,74.781659 34.4031579,78.7208696 C37.9424818,79.9762679 40.117125,83.5305671 39.6170526,87.2426087 C39.1502797,90.7464593 36.1745637,93.3775605 32.6295789,93.4208696 L11.2611579,93.4208696 C7.24489699,93.7248812 3.66349451,90.9135148 3.01758368,86.9497435 C2.37167286,82.9859721 4.87619364,79.1888211 8.78242105,78.2095652 L8.73968421,78.2947826 Z" id="Shape" fill="#628470"></path>
                            <path d="M11.2184211,95.103913 C6.63640658,95.3983095 2.51960267,92.3279631 1.50892375,87.8624897 C0.498244821,83.3970162 2.89361832,78.8615824 7.15842105,77.1656522 C7.30721632,74.5778622 8.77487015,72.2463051 11.0474737,70.9873913 C13.0809708,69.9005548 15.4828881,69.7300573 17.6503158,70.5186957 C18.9455725,69.0531899 20.6031918,67.9514239 22.4582105,67.3230435 C25.0149746,66.4907845 27.7925143,66.6505466 30.2363158,67.7704348 C34.151441,69.5284939 36.5250674,73.5609571 36.1553684,77.826087 C39.7041566,79.642461 41.7169955,83.4938156 41.1769474,87.4343478 C40.5854064,91.7037104 36.9521031,94.9004862 32.6295789,94.9547826 L11.2184211,95.103913 Z M14.8296842,73.2243478 C13.5442956,73.208121 12.3148157,73.7475407 11.4584952,74.7034171 C10.6021746,75.6592935 10.2028947,76.9379933 10.3636842,78.2095652 L10.3636842,79.4665217 L9.14568421,79.8286957 C5.97819457,80.5605291 3.9282342,83.6227181 4.46551718,86.8198337 C5.00280016,90.0169494 7.94192101,92.2457318 11.1756842,91.9082609 L32.5441053,91.9082609 C35.3009662,91.8683921 37.6114237,89.8187949 37.9716842,87.0934783 C38.3064999,84.1228941 36.5313576,81.3177302 33.698,80.34 L32.48,79.8073913 L32.7791579,78.5078261 C33.5435263,75.3069624 31.8829475,72.0227567 28.8473684,70.7317391 C27.1751283,69.9477622 25.2685589,69.8185042 23.5052632,70.3695652 C21.8597471,70.936825 20.437865,72.0112307 19.4452632,73.4373913 L18.6118947,74.5878261 L17.3725263,73.906087 C16.5970123,73.4665584 15.7217122,73.2318893 14.8296842,73.2243478 L14.8296842,73.2243478 Z" id="Shape" fill="#000000"></path>
                            <path d="M56.9895789,82.4704348 C57.1585882,80.6867016 56.2640315,78.9696351 54.7031579,78.0817391 C53.2418974,77.2699981 51.4633657,77.2699981 50.0021053,78.0817391 C49.117381,76.8153598 47.8532228,75.8607618 46.3908421,75.3547826 C44.7747234,74.8231316 43.0156147,74.9298868 41.4761053,75.6530435 C38.710402,76.8582829 37.2008935,79.8592891 37.8862105,82.79 C35.2291586,83.7258309 33.6022519,86.3995041 33.9971579,89.1813043 C34.3473156,91.7935187 36.567855,93.7533479 39.2110526,93.7830435 L55.1305263,93.7830435 C58.1602265,94.0757811 60.8968405,91.9715153 61.3825927,88.9756396 C61.868345,85.9797639 59.9361102,83.1230225 56.9682105,82.4491304 L56.9895789,82.4704348 Z" id="Shape" fill="#84AF96"></path>
                            <path d="M55.1305263,95.103913 L39.1896842,95.103913 C35.9362374,95.0290482 33.2191984,92.6091047 32.7791579,89.3943478 C32.3282538,86.4338055 33.7903817,83.5097931 36.4331579,82.0869565 C36.1603631,78.853643 37.9692894,75.8022198 40.9418947,74.4813043 C42.7863629,73.6285483 44.8869953,73.5066961 46.8182105,74.1404348 C48.1923734,74.6086636 49.4216961,75.4233082 50.3867368,76.5052174 C52.0133937,75.9384294 53.8038813,76.0775295 55.3228421,76.8886957 C57.0260194,77.834083 58.1352044,79.5730063 58.2716842,81.5117391 C61.4936589,82.8131376 63.2894096,86.2559829 62.5077208,89.6331442 C61.726032,93.0103054 58.5986742,95.3204553 55.1305263,95.0826087 L55.1305263,95.103913 Z M44.3181053,76.3986957 C43.5275597,76.3997332 42.7469396,76.5743005 42.0316842,76.91 C39.8297235,77.8499574 38.6224188,80.2303783 39.1683158,82.5556522 L39.4247368,83.6208696 L38.4204211,84.0682609 C36.3535915,84.7662258 35.0545601,86.806509 35.3006316,88.9682609 C35.5643339,90.9301599 37.2259749,92.4057628 39.2110526,92.4408696 L55.1305263,92.4408696 C57.4540243,92.6476574 59.545751,91.0367412 59.9319734,88.7430973 C60.3181959,86.4494533 58.8687934,84.2458235 56.6049474,83.6847826 L55.5578947,83.4291304 L55.5578947,82.3852174 C55.7000834,81.1042705 55.0719233,79.8600677 53.9552632,79.2108696 C52.890806,78.6271595 51.6007729,78.6271595 50.5363158,79.2108696 L49.5106316,79.7647826 L48.8268421,78.8273913 C48.1060793,77.7894225 47.0736035,77.0061986 45.878,76.5904348 C45.370611,76.4489447 44.8447697,76.3843093 44.3181053,76.3986957 L44.3181053,76.3986957 Z" id="Shape" fill="#000000"></path>
                            <ellipse id="Oval" fill="#84AF96" cx="21.3043158" cy="21.9234783" rx="19.7016842" ry="19.6426087"></ellipse>
                            <path d="M21.3684211,43.163913 C9.56696798,43.163913 1.44526117e-15,33.6256316 0,21.8595652 C-1.44526117e-15,10.0934988 9.56696798,0.555217391 21.3684211,0.555217391 C33.1698741,0.555217391 42.7368421,10.0934988 42.7368421,21.8595652 C42.7368421,27.5098296 40.4855328,32.9286738 36.4781765,36.924014 C32.4708202,40.9193543 27.0356787,43.163913 21.3684211,43.163913 Z M21.3684211,3.87869565 C11.3725903,3.87869565 3.26936842,11.95762 3.26936842,21.9234783 C3.26936842,31.8893365 11.3725903,39.9682609 21.3684211,39.9682609 C31.3642518,39.9682609 39.4674737,31.8893365 39.4674737,21.9234783 C39.4556988,11.9624867 31.3593704,3.89043519 21.3684211,3.87869565 L21.3684211,3.87869565 Z" id="Shape" fill="#000000"></path>
                            <path d="M21.3043158,21.9234783 L21.3043158,93.1865217" id="Shape" fill="#7CC3F5"></path>
                            <path d="M21.3684211,94.8695652 C20.4833121,94.8695652 19.7657895,94.1541941 19.7657895,93.2717391 L19.7657895,21.9234783 C19.7657895,21.0410233 20.4833121,20.3256522 21.3684211,20.3256522 C22.25353,20.3256522 22.9710526,21.0410233 22.9710526,21.9234783 L22.9710526,93.1865217 C22.9945345,93.6248539 22.8361107,94.0535129 22.5329763,94.371857 C22.2298419,94.6902012 21.8086977,94.87019 21.3684211,94.8695652 L21.3684211,94.8695652 Z" id="Shape" fill="#000000"></path>
                            <path d="M21.3043158,30.913913 L9.29526316,19.5373913" id="Shape" fill="#7CC3F5"></path>
                            <path d="M21.3684211,32.5117391 C20.9539434,32.5114743 20.5556871,32.3511223 20.2572632,32.0643478 L8.18410526,20.7091304 C7.7032125,20.0936541 7.73845207,19.2219232 8.26746539,18.6470277 C8.79647871,18.0721322 9.6645653,17.96219 10.3209474,18.3869565 L22.33,29.7421739 C22.7998369,30.1726852 22.9687337,30.8400724 22.7599963,31.4412832 C22.551259,32.042494 22.004667,32.4629547 21.3684211,32.5117391 Z" id="Shape" fill="#000000"></path>
                            <path d="M14.8724211,24.8208696 L16.0690526,16.4056522" id="Shape" fill="#7CC3F5"></path>
                            <path d="M14.9578947,26.4186957 L14.6587368,26.4186957 C14.2272651,26.3612703 13.8377848,26.1313294 13.5798408,25.7817381 C13.3218968,25.4321469 13.2176826,24.9929842 13.2911579,24.5652174 L14.4664211,16.0434783 C14.5903363,15.1669063 15.4035286,14.5564564 16.2827368,14.68 C17.1619451,14.8035437 17.774231,15.6142976 17.6503158,16.4908696 L16.4750526,25.0126087 C16.3819018,25.7879552 15.7402944,26.3825906 14.9578947,26.4186957 L14.9578947,26.4186957 Z" id="Shape" fill="#000000"></path>
                            <path d="M21.3043158,27.2069565 L34.0826316,17.6626087" id="Shape" fill="#7CC3F5"></path>
                            <path d="M21.3684211,28.826087 C20.6785997,28.826087 20.0661719,28.3859976 19.8480312,27.7335378 C19.6298906,27.0810781 19.854985,26.3626518 20.4068421,25.95 L33.2278947,16.4269565 C33.6859468,16.0844475 34.2924804,16.0115913 34.81902,16.2358321 C35.3455596,16.4600729 35.7121115,16.9473432 35.780599,17.514093 C35.8490865,18.0808428 35.6091048,18.6409693 35.1510526,18.9834783 L22.33,28.5065217 C22.0525906,28.7139549 21.7151828,28.826087 21.3684211,28.826087 L21.3684211,28.826087 Z" id="Shape" fill="#000000"></path>
                            <path d="M199.068211,93.506087 L20.5564211,93.506087" id="Shape" fill="#7CC3F5"></path>
                            <path d="M18.7187368,93.506087 C18.787234,92.5694623 19.5943931,91.8593987 20.5350526,91.9082609 L199.068211,91.9082609 C199.703234,91.8045289 200.339794,92.0844012 200.69122,92.6218386 C201.042647,93.159276 201.042647,93.852898 200.69122,94.3903353 C200.339794,94.9277727 199.703234,95.207645 199.068211,95.103913 L20.5564211,95.103913 C19.6076708,95.1648837 18.7871916,94.4514951 18.7187368,93.506087 Z" id="Shape" fill="#000000"></path>
                            <path d="M161.352947,60.1008696 C159.108386,60.0963465 156.885457,60.5381507 154.814211,61.4004348 L150.006316,52.0904348 L156.737368,52.0904348 C157.469058,52.0904348 158.06221,52.6818083 158.06221,53.4113043 C158.06221,54.1408004 157.469058,54.7321739 156.737368,54.7321739 L155.305684,54.7321739 C154.550391,54.7321739 153.938105,55.3426239 153.938105,56.0956522 C153.938105,56.8486804 154.550391,57.4591304 155.305684,57.4591304 L156.737368,57.4591304 C158.979645,57.4591304 160.797368,55.646857 160.797368,53.4113043 C160.797368,51.1757517 158.979645,49.3634783 156.737368,49.3634783 L147.762632,49.3634783 C147.287248,49.3638678 146.846173,49.6103568 146.597756,50.0144541 C146.349339,50.4185513 146.329223,50.9222742 146.544632,51.3447826 L148.937895,55.9678261 L129.214842,55.9678261 L127.227579,52.0691304 L130.347368,52.0691304 C131.102661,52.0691304 131.714947,51.4586804 131.714947,50.7056522 C131.714947,49.9526239 131.102661,49.3421739 130.347368,49.3421739 L121.372632,49.3421739 C120.617339,49.3421739 120.005053,49.9526239 120.005053,50.7056522 C120.005053,51.4586804 120.617339,52.0691304 121.372632,52.0691304 L124.150526,52.0691304 L126.800211,57.2673913 L123.680421,62.0821739 C117.086349,58.5092908 108.921323,59.6801131 103.604478,64.9609598 C98.2876328,70.2418064 97.0823472,78.3778538 100.640955,84.9656493 C104.199562,91.5534449 111.676474,95.0276106 119.02498,93.5078325 C126.373485,91.9880545 131.847449,85.835459 132.484211,78.38 L136.501474,78.38 L134.941579,83.4291304 L134.044105,83.4291304 C133.288812,83.4291304 132.676526,84.0395804 132.676526,84.7926087 C132.676526,85.5456369 133.288812,86.156087 134.044105,86.156087 L138.958842,86.156087 C139.714135,86.156087 140.326421,85.5456369 140.326421,84.7926087 C140.326421,84.0395804 139.714135,83.4291304 138.958842,83.4291304 L137.804947,83.4291304 L139.599895,77.5917391 L150.967895,60.0795652 L152.292737,62.636087 C145.109654,67.095741 142.320673,76.1505678 145.755245,83.8609879 C149.189817,91.5714081 157.797799,95.5799079 165.932723,93.2570828 C174.067646,90.9342577 179.242203,82.9903274 178.062104,74.6361706 C176.882006,66.2820138 169.708076,60.0719712 161.246105,60.0795652 L161.352947,60.1008696 Z M128.231895,60.1008696 L136.202316,75.6956522 L132.484211,75.6956522 C132.152352,70.9418439 129.824731,66.5480965 126.073684,63.5947826 L128.231895,60.1008696 Z M129.813158,75.6530435 L118.167368,75.6530435 L124.577895,65.8956522 C127.593756,68.3138114 129.491748,71.8522608 129.834526,75.6956522 L129.813158,75.6530435 Z M115.645895,91.2052174 C109.750875,91.1884906 104.476432,87.5499403 102.382793,82.0557272 C100.289155,76.5615141 101.809774,70.3491255 106.206539,66.4340692 C110.603305,62.5190129 116.965937,61.7118375 122.206,64.4043478 L114.513368,76.2708696 C114.225914,76.6919612 114.197851,77.2376861 114.440604,77.6858795 C114.683356,78.134073 115.15644,78.4099899 115.667263,78.4013043 L129.834526,78.4013043 C129.110267,85.6630006 122.986716,91.1972674 115.667263,91.2052174 L115.645895,91.2052174 Z M138.574211,74.2895652 L130.603789,58.6521739 L148.702842,58.6521739 L138.574211,74.2895652 Z M161.352947,91.2052174 C155.014297,91.2302691 149.423117,87.0726647 147.639913,81.008198 C145.856709,74.9437313 148.311393,68.4344773 153.660316,65.0434783 L158.126316,73.5652174 C158.474459,74.2358831 159.302001,74.4981859 159.974684,74.1510869 C160.647367,73.803988 160.910459,72.9789267 160.562316,72.3082609 L156.053579,63.7865217 C161.376728,61.6795039 167.448056,62.9592198 171.460362,67.0339666 C175.472668,71.1087134 176.644038,77.1844101 174.432865,82.4518338 C172.221692,87.7192574 167.058888,91.1519 161.331579,91.1626087 L161.352947,91.2052174 Z" id="Shape" fill="#000000"></path>
                            <ellipse id="Oval" fill="#000000" cx="161.075158" cy="76.7182609" rx="1.32484211" ry="1.32086957"></ellipse>
                        </g>
                    </g>
                </g>
            </g>
        </g>
    </g>
</svg>