<svg xmlns="http://www.w3.org/2000/svg" viewBox="0 0 44 44"><title>Picto-EmailFichier 1Googleplay</title><g id="8d018346-81e7-4296-91b4-263d27bea145" data-name="Calque 2"><g id="e5b7eac4-c95d-4598-bfd2-a85d56540fa0" data-name="Calque 1"><g id="4e48087c-5f39-40e0-9e95-1c04373439b6" data-name="Page-1"><g id="bf855511-80df-4889-a68d-8036c73b0cd4" data-name="LANDING-HV"><path id="44b244ab-bd9b-485a-8bc1-c2039f391ebc" data-name="Shape-Copy-10" d="M40.75,0H3.25A3.21,3.21,0,0,0,0,3.18V40.82A3.21,3.21,0,0,0,3.25,44h37.5A3.21,3.21,0,0,0,44,40.82V3.18A3.21,3.21,0,0,0,40.75,0Z" fill="#4a90e2"/></g></g><g id="f52cac15-4798-49b1-b594-a1bcfb37e215" data-name="Page-1"><g id="109de4f7-e430-4104-80a9-284ed49e81da" data-name="LANDING-HV"><g id="0d03e5ac-79c0-4798-9383-be357a2883b3" data-name="email-outline(1)"><path id="e223fba9-7086-48a1-b261-5a6aec73566f" data-name="Shape" d="M34,10H10a3,3,0,0,0-3,3V31a3,3,0,0,0,3,3H34a3,3,0,0,0,3-3V13a3,3,0,0,0-3-3Zm0,21H10V16l12,7.5L34,16V31Zm0-18L22,20.5,10,13H34Z" fill="#fff"/></g></g></g></g></g></svg>