<?xml version="1.0" encoding="utf-8"?>
<!-- Generator: Adobe Illustrator 18.0.0, SVG Export Plug-In . SVG Version: 6.00 Build 0)  -->
<!DOCTYPE svg PUBLIC "-//W3C//DTD SVG 1.1//EN" "http://www.w3.org/Graphics/SVG/1.1/DTD/svg11.dtd">
<svg version="1.1" id="Calque_1" xmlns="http://www.w3.org/2000/svg" xmlns:xlink="http://www.w3.org/1999/xlink" x="0px" y="0px"
	 viewBox="0 0 30 24" enable-background="new 0 0 30 24" xml:space="preserve">
<title>email-outline(1)</title>
<desc>Created with Sketch.</desc>
<g id="Page-1">
	<g id="LANDING-HV" transform="translate(-875.000000, -5667.000000)">
		<g id="email-outline_x28_1_x29_" transform="translate(875.000000, 5667.000000)">
			<path id="Shape" fill="#3996D0" d="M27,0H3C1.3,0,0,1.3,0,3v18c0,1.7,1.3,3,3,3h24c1.7,0,3-1.3,3-3V3C30,1.3,28.7,0,27,0L27,0z
				 M27,21H3V6l12,7.5L27,6V21L27,21z M27,3l-12,7.5L3,3l0,0H27L27,3z"/>
		</g>
	</g>
</g>
</svg>
