<?xml version="1.0" encoding="UTF-8" standalone="no"?>
<svg width="320px" height="152px" viewBox="0 0 320 152" version="1.1" xmlns="http://www.w3.org/2000/svg" xmlns:xlink="http://www.w3.org/1999/xlink">
    <!-- Generator: Sketch 42 (36781) - http://www.bohemiancoding.com/sketch -->
    <title>OUTSIDE</title>
    <desc>Created with Sketch.</desc>
    <defs></defs>
    <g id="Page-1" stroke="none" stroke-width="1" fill="none" fill-rule="evenodd">
        <g id="OUTSIDE" fill-rule="nonzero">
            <g id="ObjetInteriorFichier-32" transform="translate(27.000000, 24.000000)">
                <g id="d7516721-b531-4d45-80f3-ff5adfb349de">
                    <g>
                        <g id="e5da51cd-a4fc-4cf5-8ae3-6e21c4626f8f">
                            <ellipse id="Oval" fill="#FEFABF" transform="translate(245.288175, 65.817093) rotate(-35.660000) translate(-245.288175, -65.817093) " cx="245.288175" cy="65.8170934" rx="8.22363402" ry="8.24819967"></ellipse>
                            <path d="M150.400052,7.58925259 C149.195293,3.46223557 144.893066,1.08640399 140.77183,2.27223131 L87.2389175,17.3598472 C83.0959893,18.5392182 80.6848536,22.8576794 81.8471134,27.0168303 L101.624613,97.2742226 C102.184101,99.2734343 103.513712,100.9672 105.320053,101.981773 C107.126393,102.996345 109.260995,103.248333 111.252835,102.682133 L164.785747,87.5036279 C168.928676,86.324257 171.339811,82.0057958 170.177552,77.8466448 L150.400052,7.58925259 Z M130.305387,92.8660938 L130.101495,92.1389798 L143.195876,88.4125205 L143.399768,89.1396345 L130.305387,92.8660938 Z M164.01549,78.5737589 L106.948454,94.7520458 L106.948454,94.3884888 L87.148299,24.6537098 L87.5107732,24.6537098 L144.645773,8.36181124 L144.645773,8.72536825 L164.287345,78.4601473 L164.01549,78.5737589 Z" id="Shape" fill="#FFFFFF"></path>
                            <polygon id="Shape" fill="#6993B2" points="88.0997938 25.176323 107.424201 93.820431 163.449124 77.9148118 144.124716 9.31614839"></polygon>
                            <path d="M170.925155,77.642144 L151.125,7.38475177 C149.83909,2.82585058 145.115464,0.172311659 140.567938,1.45422804 L87.0350258,16.6327332 C84.837677,17.2467565 82.9753772,18.7146883 81.8611145,20.7109962 C80.7468518,22.7073042 80.4727197,25.0669943 81.0995103,27.2667758 L100.899665,97.4787234 C101.516983,99.6733082 102.979038,101.531613 104.96359,102.644066 C106.948142,103.756518 109.29229,104.031803 111.479381,103.409247 L165.012294,88.230742 C169.549288,86.930416 172.189912,82.2016554 170.925155,77.642144 Z M164.808402,87.5036279 L111.252835,102.682133 C109.260995,103.248333 107.126393,102.996345 105.320053,101.981773 C103.513712,100.9672 102.184101,99.2734343 101.624613,97.2742226 L81.8471134,27.0395526 C81.2820066,25.0388035 81.5326329,22.8948308 82.5438379,21.0794521 C83.5550429,19.2640734 85.2439611,17.9260538 87.2389175,17.3598472 L140.77183,2.27223131 C142.76367,1.70603102 144.898272,1.95801908 146.704612,2.97259159 C148.510953,3.98716409 149.840564,5.68093015 150.400052,7.68014184 L170.177552,77.9375341 C171.284019,82.0607085 168.896949,86.3136985 164.808402,87.5036279 L164.808402,87.5036279 Z" id="Shape" fill="#000000"></path>
                            <path d="M109.213918,104.886197 C104.825224,104.890158 100.975755,101.95024 99.8122423,97.7059465 L80.0120876,27.5394435 C79.3113101,25.0411881 79.6351689,22.3656308 80.9115991,20.1081355 C82.1880292,17.8506401 84.3111334,16.1984968 86.8084794,15.5193399 L140.250773,0.36355701 C142.738491,-0.33237213 145.400227,-0.00410326935 147.645745,1.27557063 C149.891263,2.55524452 151.534986,4.68056661 152.212423,7.18025095 L172.012577,77.2558647 C172.700106,79.7508397 172.370005,82.4176395 171.095062,84.6682432 C169.820118,86.9188469 167.705036,88.5684233 165.216186,89.253246 L111.773892,104.52264 C110.940407,104.757107 110.079537,104.879365 109.213918,104.886197 L109.213918,104.886197 Z M142.901366,3.02206765 C142.288636,3.02108435 141.678721,3.10519816 141.088995,3.27201309 L87.5334278,18.4505183 C84.0162017,19.4934157 81.9941536,23.1845366 83.0025,26.7214403 L102.78,96.9788325 C103.869993,100.465682 107.507406,102.470231 111.026289,101.523295 L164.491237,86.34479 C167.967701,85.2515413 169.96628,81.603262 169.022165,78.073868 L149.312629,7.90736498 C148.470734,5.04786568 145.873689,3.06895189 142.901366,3.02206765 L142.901366,3.02206765 Z" id="Shape" fill="#000000"></path>
                            <path d="M144.645773,8.36181124 L87.5107732,24.5400982 L87.148299,24.5400982 L106.789871,94.2748773 L106.789871,94.6384343 L163.902216,78.4601473 L164.264691,78.4601473 L144.736392,8.72536825 L144.645773,8.36181124 Z M107.424201,93.820431 L88.0997938,25.176323 L144.124716,9.27070376 L163.449124,77.9375341 L107.424201,93.820431 Z" id="Shape" fill="#000000"></path>
                            <path d="M106.110232,96.1608292 L105.702448,94.7066012 L85.766366,23.8811511 L145.46134,6.95302782 L165.850515,79.2327059 L106.110232,96.1608292 Z M89.4817268,25.9716039 L108.194459,92.4343699 L162.044536,77.2558647 L143.331804,10.7022095 L89.4817268,25.9716039 Z" id="Shape" fill="#000000"></path>
                            <polygon id="Shape" fill="#000000" points="130.101495 92.1389798 130.41866 93.4795963 143.558351 89.7531369 143.241186 88.4125205"></polygon>
                            <path d="M1.64969072,74.2565194 L10.1451804,43.8540644 C10.3211633,43.2272494 10.9696113,42.8614078 11.5950773,43.0360611 L27.1135052,47.3987452 C27.3698692,47.4906395 27.6500534,47.4906395 27.9064175,47.3987452 L35.5183763,39.9003819 C35.7747404,39.8084876 36.0549246,39.8084876 36.3112887,39.9003819 L59.1471649,46.2171849 C59.4122064,46.2873855 59.6445416,46.4480953 59.8041495,46.6716312 L62.409433,57.033006 C62.5690408,57.2565419 62.8013761,57.4172517 63.0664175,57.4874523 L76.0475258,61.1457447 C76.6724739,61.3222532 77.0372259,61.9726383 76.8630928,62.5999727 L68.435567,93.02515 C68.2595842,93.651965 67.6111362,94.0178066 66.9856701,93.8431533 L2.53322165,75.6653028 C1.90298797,75.5187097 1.50854997,74.8897813 1.64969072,74.2565194 L1.64969072,74.2565194 Z" id="Shape" fill="#3F3F3F"></path>
                            <path d="M67.2348711,95.0019913 C67.0319169,95.0297258 66.8261501,95.0297258 66.6231959,95.0019913 L2.14809278,76.8014184 C1.54106648,76.6631314 1.01751662,76.2804149 0.700406039,75.743155 C0.383295463,75.2058951 0.300566611,74.561433 0.471649485,73.9611293 L9.05775773,43.535952 C9.38893486,42.3468756 10.6061458,41.6406004 11.7989691,41.9453901 L27.249433,46.2853519 L34.9520103,38.8097109 C35.4497499,38.6292213 35.9947862,38.6292213 36.4925258,38.8097109 L59.3737113,45.1265139 C59.8904904,45.2693932 60.3400136,45.5914403 60.6423711,46.0354064 L60.8009536,46.3989634 L63.3156186,56.4195035 L76.2514175,60.0550736 C76.8511445,60.2082324 77.3622956,60.6008016 77.666106,61.1415688 C77.9699165,61.6823359 78.0399364,62.3242215 77.8598969,62.9180851 L69.4550258,93.3205401 C69.1856345,94.3244427 68.2712958,95.0169241 67.2348711,95.0019913 L67.2348711,95.0019913 Z M2.7371134,74.5746318 L67.1895619,92.7524823 L75.7303608,62.3045827 L62.7039433,58.6008456 C62.1871642,58.4579663 61.737641,58.1359192 61.4352835,57.6919531 L61.2540464,57.3283961 L58.7167268,47.307856 L36.039433,40.9001637 L28.3368557,48.3758047 C27.8323013,48.5618166 27.2782399,48.5618166 26.7736856,48.3758047 L11.300567,44.1267321 L2.7371134,74.5746318 Z" id="Shape" fill="#000000"></path>
                            <path d="M40.6383247,82.5501637 C34.6834154,82.5281685 29.2811541,79.0459085 26.7875413,73.6220451 C24.2939285,68.1981817 25.1611595,61.816286 29.011023,57.2595905 C32.8608865,52.7028951 38.9952426,50.7977174 44.7388144,52.3749318 C52.1463901,54.4090902 56.9061494,61.6317695 55.8689653,69.2643384 C54.8317812,76.8969074 48.3184659,82.5785312 40.6383247,82.5501637 L40.6383247,82.5501637 Z M40.6383247,56.3513366 C35.0448819,56.3328994 30.3659225,60.6070928 29.8629612,66.1945481 C29.36,71.7820035 33.200025,76.8276313 38.706309,77.8143271 C44.2125929,78.8010228 49.556996,75.4011939 51.0141495,69.9847245 L51.0141495,69.9847245 C51.8867532,66.7411187 51.2070131,63.2749753 49.1746032,60.6044761 C47.1421933,57.9339768 43.9879096,56.3623776 40.6383247,56.3513366 L40.6383247,56.3513366 Z" id="Shape" fill="#000000"></path>
                            <ellipse id="Oval" fill="#6993B2" transform="translate(40.438058, 67.309627) rotate(-74.291362) translate(-40.438058, -67.309627) " cx="40.4380577" cy="67.3096266" rx="12.0416709" ry="12.0776418"></ellipse>
                            <path d="M43.5154639,56.6467267 C42.2333305,56.2922995 40.8972507,56.1767762 39.5735567,56.305892 C45.2405309,56.7558296 49.6105312,61.4995578 49.6105312,67.2012411 C49.6105312,72.9029244 45.2405309,77.6466526 39.5735567,78.0965903 C45.1917165,78.6053227 50.2715001,74.7382096 51.2940374,69.1740793 C52.3165746,63.609949 48.9452564,58.1804584 43.5154639,56.6467267 L43.5154639,56.6467267 Z" id="Shape" fill="#FFFFFF" opacity="0.46"></path>
                            <path d="M16.3298969,59.4870158 L15.6729124,59.4870158 C13.6693388,59.1441155 12.1385959,57.5049506 11.9283969,55.4772774 C11.7181979,53.4496042 12.8799839,51.5296478 14.7703673,50.7806646 C16.6607507,50.0316815 18.8171046,50.6369675 20.0452577,52.2613202 C21.0580971,53.6512217 21.2009249,55.4958317 20.4141789,57.0259085 C19.6274328,58.5559853 18.0462034,59.5088028 16.3298969,59.4870158 Z M16.3298969,52.0795417 C15.0798242,52.0632097 13.9646124,52.8646605 13.5780883,54.0571386 C13.1915642,55.2496166 13.6236787,56.5556112 14.6443399,57.2797079 C15.6650012,58.0038047 17.0366834,57.9774935 18.0289948,57.2147845 C19.2686755,56.2667963 19.5208081,54.4965958 18.5953608,53.2383797 C18.1439208,52.6281132 17.4658531,52.2266124 16.7150258,52.1249864 L16.3298969,52.0795417 Z" id="Shape" fill="#000000"></path>
                            <rect id="Rectangle-path" fill="#5E5E5E" transform="translate(20.280782, 42.979347) rotate(15.370000) translate(-20.280782, -42.979347) " x="15.2967614" y="40.4912536" width="9.96804124" height="4.97618658" rx="0.47"></rect>
                            <path d="M23.67,47.7168576 C23.4744964,47.7425672 23.276483,47.7425672 23.0809794,47.7168576 L15.5369845,45.4446263 C14.4188051,45.0656625 13.7780672,43.8891152 14.064433,42.740671 L14.8120361,39.9912711 C15.1621506,38.84243 16.3433647,38.1654342 17.5079381,38.4461538 L25.0745876,40.5366067 C26.1610914,40.9132282 26.7941262,42.0463266 26.5471392,43.172395 L25.7995361,45.9217949 C25.5169238,46.8585259 24.6680594,47.5085195 23.6926546,47.5350791 L23.67,47.7168576 Z M16.8736082,40.7411075 L16.2166237,43.4450627 L23.67,45.421904 L24.3949485,42.7179487 L16.8736082,40.7411075 Z" id="Shape" fill="#000000"></path>
                            <polygon id="Shape" fill="#000000" points="253.365387 63.6224768 252.731057 61.8274141 251.553015 60.3277414 254.339536 58.7826241 256.151907 62.1000818"></polygon>
                            <path d="M245.368299,75.2790235 C240.866529,75.2765928 237.004679,72.0590515 236.176616,67.6208752 C235.348553,63.1826988 237.789058,58.7822457 241.985322,57.1472495 C246.181586,55.5122533 250.943839,57.1062853 253.320077,60.9412439 L253.77317,61.7592471 C255.186626,64.6668561 255.007398,68.0996224 253.298886,70.8432552 C251.590373,73.5868881 248.593475,75.2545391 245.368299,75.2563011 L245.368299,75.2790235 Z M245.368299,58.7599018 C244.171733,58.7610697 242.994921,59.0659226 241.947448,59.646072 L241.947448,59.646072 C238.560249,61.5132175 237.287802,65.7571604 239.08639,69.1884464 C240.884979,72.6197324 245.092013,73.9742924 248.545775,72.2341326 C251.999537,70.4939729 253.427678,66.3001597 251.756907,62.8044735 L251.371778,62.0773595 C250.073683,59.997035 247.79242,58.7411729 245.345644,58.7599018 L245.368299,58.7599018 Z" id="Shape" fill="#000000"></path>
                            <polygon id="Shape" fill="#FFFFFF" points="252.345928 61.532024 252.776366 62.3045827 252.572474 61.9183033"></polygon>
                            <polygon id="Shape" fill="#000000" points="251.779562 62.8499182 251.349124 62.0773595 253.320077 60.9412439 253.569278 61.3729678 253.795825 61.8274141"></polygon>
                            <polygon id="Shape" fill="#FFFFFF" points="253.274768 60.9866885 253.727861 61.8274141 253.501314 61.3956901"></polygon>
                            <polygon id="Shape" fill="#000000" points="252.731057 62.3727496 252.277964 61.532024 254.248918 60.3959083 254.520773 60.8503546 254.74732 61.3048009"></polygon>
                            <path d="M253.863789,59.0780142 L252.595129,59.7596836 L246.908814,52.4203764 C246.744248,52.2172258 246.458985,52.1600027 246.229175,52.2840426 L245.730773,52.5567103 L243.737165,49.5119203 L243.737165,49.5119203 L242.219304,47.3987452 C242.058749,47.1755958 241.757589,47.1073888 241.51701,47.239689 L231.775515,52.5794326 C231.531794,52.7101125 231.424584,53.0033781 231.526314,53.261102 L232.477809,55.6696672 L232.477809,55.6696672 L233.973015,58.9871249 L233.474613,59.2597927 C233.24219,59.3888757 233.13681,59.6675246 233.225412,59.9187398 L236.918119,70.4391708 L236.918119,70.598227 L243.71451,79.3463175 C243.879077,79.5494681 244.16434,79.6066912 244.394149,79.4826514 L244.892552,79.2099836 L246.88616,82.2547736 L246.88616,82.2547736 L248.404021,84.3679487 C248.564576,84.5910981 248.865736,84.6593052 249.106314,84.5270049 L258.847809,79.1872613 C259.091531,79.0565815 259.198741,78.7633158 259.09701,78.5055919 L258.145515,76.0970267 L258.145515,76.0970267 L256.718273,72.7114021 L257.216675,72.4387343 C257.449099,72.3096514 257.554479,72.0310024 257.465876,71.7797872 L254.362191,63.0089744 L255.630851,62.327305 C255.88225,62.1790109 255.972215,61.8581821 255.834742,61.6001909 L254.588737,59.3279596 C254.456712,59.0588918 254.132852,58.9472324 253.863789,59.0780142 L253.863789,59.0780142 Z M252.345928,61.5093017 L252.572474,61.895581 L252.776366,62.2818603 C254.738213,66.2945166 253.156924,71.1443502 249.210303,73.2190238 C245.263682,75.2936973 240.387602,73.8383959 238.21395,69.9370825 C236.040297,66.035769 237.359898,61.1078328 241.189864,58.8237849 C245.01983,56.5397371 249.96673,57.7305678 252.345928,61.5093017 L252.345928,61.5093017 Z M254.611392,61.5093017 L253.977062,61.8501364 L253.750515,61.2139116 L253.750515,61.0548554 L253.342732,60.5322422 L253.977062,60.1914075 L254.611392,61.5093017 Z" id="Shape" fill="#000000"></path>
                            <path d="M248.925077,85.7085652 C248.390274,85.7085652 247.886681,85.4560166 247.565799,85.0268958 L245.708119,82.5956083 L245.708119,82.4819967 L244.507423,80.6414894 C243.884794,80.7677629 243.24449,80.5302304 242.853634,80.0279869 L235.830696,70.9390616 L232.13799,60.4867976 C231.929564,59.8844847 232.078704,59.2157483 232.523119,58.7599018 L230.461546,53.8518822 C230.151216,53.0656482 230.47132,52.1705699 231.209149,51.7614294 L240.950644,46.4216858 C241.717404,45.9528445 242.716325,46.1732637 243.216108,46.9215767 L244.847242,49.193808 L246.229175,51.3069831 C246.852226,51.1750903 247.495433,51.4136995 247.882964,51.9204855 L252.980258,58.487234 L253.388041,58.2600109 C254.195603,57.8195446 255.206188,58.1134899 255.653505,58.918958 L256.89951,61.1911893 C257.338665,62.0011632 257.045595,63.0147677 256.242526,63.4634206 L255.834742,63.6906438 L258.621263,71.5525641 C258.835306,72.1545435 258.685489,72.8263155 258.236134,73.2794599 L260.297706,78.1874795 C260.608037,78.9737135 260.287932,79.8687918 259.550103,80.2779324 L249.67268,85.5040644 C249.442822,85.6298551 249.186782,85.699893 248.925077,85.7085652 Z M248.086856,81.8003273 L249.106314,83.1863884 L257.941624,78.3465357 L257.194021,76.4378614 L255.291031,72.1660666 L256.26518,71.6434534 L254.656701,67.0989907 C254.285,69.8027842 252.758081,72.2103033 250.473987,73.6939442 C248.189894,75.1775852 245.374967,75.5903281 242.763015,74.8245772 C242.305789,74.691247 241.859028,74.5241604 241.426392,74.3246863 L244.394149,78.1420349 L245.368299,77.6194217 L248.086856,81.8003273 Z M245.368299,58.6917349 C242.211294,58.697905 239.438586,60.7966926 238.566881,63.8400352 C237.695175,66.8833778 238.934448,70.1381942 241.606803,71.82406 C244.279157,73.5099258 247.740875,73.2207493 250.098355,71.1147135 C252.455835,69.0086777 253.141206,65.5930851 251.779562,62.7363066 L251.417088,62.0546372 C250.098847,59.9757768 247.801817,58.7292683 245.345644,58.7599018 L245.368299,58.6917349 Z M234.494072,59.9869067 L236.102552,64.5313693 C236.168134,64.0704519 236.266556,63.6148393 236.397062,63.1680306 C237.16198,60.5506388 239.024415,58.396537 241.499462,57.2665684 C243.974509,56.1365998 246.817252,56.1425798 249.287552,57.2829514 L246.342448,53.4883252 L245.368299,54.0109384 L241.607629,48.4212493 L232.77232,53.261102 L233.610541,55.3969995 L235.422912,59.4642935 L234.494072,59.9869067 Z" id="Shape" fill="#000000"></path>
                            <path d="M241.245155,74.2565194 L244.34884,78.2556465 L244.869897,77.9602564 L255.744124,71.9842881 L256.26518,71.688898 L254.566082,66.9172122 C254.229255,69.9348584 252.44728,72.5985099 249.790871,74.0550783 C247.134463,75.5116466 243.936987,75.5783394 241.2225,74.2337971" id="Shape" fill="#D1D3D4"></path>
                            <polygon id="Shape" fill="#D1D3D4" points="233.678505 55.7378342 234.92451 58.5099564 244.779278 53.1020458 243.102835 50.5571468"></polygon>
                            <polygon id="Shape" fill="#D1D3D4" points="232.704356 53.329269 233.270722 54.7153301 242.49116 49.6709765 241.607629 48.4439716"></polygon>
                            <polygon id="Shape" fill="#D1D3D4" points="257.986933 78.437425 257.420567 77.0286416 248.200129 82.0957174 249.08366 83.3227223"></polygon>
                            <polygon id="Shape" fill="#D1D3D4" points="257.012784 76.0288598 255.766778 73.2340153 245.91201 78.6419258 247.588454 81.2095472"></polygon>
                            <path d="M240.88268,57.6919531 C243.538301,56.2399322 246.731641,56.1721464 249.446134,57.5101746 L246.342448,53.5110475 L245.821392,53.8064375 L234.947165,59.7824059 L234.426108,60.077796 L236.125206,64.8494817 C236.455846,61.8295072 238.230483,59.1595993 240.88268,57.6919531 Z" id="Shape" fill="#D1D3D4"></path>
                            <polygon id="Shape" fill="#D1D3D4" points="232.704356 53.329269 241.607629 48.4439716 242.49116 49.6709765 233.270722 54.7153301"></polygon>
                            <polygon id="Shape" fill="#D1D3D4" points="233.678505 55.7378342 243.102835 50.5571468 244.779278 53.1020458 234.92451 58.5099564"></polygon>
                            <path d="M234.403454,60.0323513 L234.92451,59.7369613 L245.798737,53.7609929 L246.319794,53.4656028 L249.423479,57.46473 C246.702216,56.1187508 243.497047,56.1907116 240.838558,57.6574744 C238.18007,59.1242371 236.40343,61.8008809 236.079897,64.8267594 L234.403454,60.0323513 Z" id="Shape" fill="#D1D3D4"></path>
                            <polygon id="Shape" fill="#D1D3D4" points="257.986933 78.437425 249.08366 83.3227223 248.200129 82.0957174 257.420567 77.0286416"></polygon>
                            <polygon id="Shape" fill="#D1D3D4" points="257.012784 76.0288598 247.588454 81.2095472 245.91201 78.6419258 255.766778 73.2340153"></polygon>
                            <path d="M256.287835,71.7116203 L255.766778,72.0070104 L244.892552,77.9829787 L244.371495,78.2783688 L241.267809,74.2792417 C243.982296,75.6237841 247.179772,75.5570912 249.836181,74.1005229 C252.492589,72.6439545 254.274564,69.980303 254.611392,66.9626568 L256.287835,71.7116203 Z" id="Shape" fill="#D1D3D4"></path>
                            <path d="M123.010593,42.8315603 C122.861282,42.8687037 122.722022,42.9385417 122.602809,43.0360611 C122.505639,43.1157296 122.428112,43.2168162 122.376263,43.3314512 C122.353036,43.4515172 122.353036,43.5749421 122.376263,43.6950082 C122.356664,43.8230177 122.356664,43.953278 122.376263,44.0812875 C122.406514,44.2111799 122.460264,44.3344047 122.534845,44.4448445 C122.658344,44.6250879 122.860569,44.7349534 123.078557,44.7402346 L123.441031,44.7402346 C123.572991,44.7051754 123.696365,44.6433041 123.803505,44.5584561 C123.884742,44.4958488 123.953849,44.4188348 124.007397,44.331233 C124.021781,44.2485424 124.021781,44.1639781 124.007397,44.0812875 C124.013841,43.9980977 124.013841,43.9145318 124.007397,43.8313421 C124.012771,43.7632817 124.012771,43.6949016 124.007397,43.6268412 L124.007397,43.6268412 C123.937991,43.2068116 123.542853,42.9222753 123.123866,42.9906165 L122.965284,42.9906165 L123.010593,42.8315603 Z" id="Shape" fill="#FFFFFF"></path>
                            <path d="M123.848814,34.5833606 L123.735541,34.4470267 L123.599613,34.4470267 L123.441031,34.4470267 L123.123866,34.5606383 C123.0151,34.612008 122.91558,34.6811122 122.829356,34.7651391 C122.741834,34.8572013 122.672632,34.9651699 122.625464,35.0832515 C122.592958,35.2329793 122.592958,35.38797 122.625464,35.5376978 L122.625464,36.4011457 L122.625464,37.4236498 L122.625464,38.5597654 L122.625464,39.7413257 L122.625464,40.922886 L122.625464,41.3773322 L122.036443,40.9001637 C121.770304,40.7442174 121.489552,40.6148378 121.198222,40.5138843 C120.90526,40.4142724 120.60066,40.3531704 120.292036,40.3321058 C119.977217,40.2773923 119.655361,40.2773923 119.340541,40.3321058 C118.945258,40.4328748 118.580018,40.6277314 118.275773,40.9001637 C118.017933,41.1096463 117.80912,41.373381 117.664098,41.6727223 C117.519104,41.979285 117.434488,42.3110433 117.414897,42.6497818 C117.399425,43.0183904 117.445364,43.3870059 117.550825,43.7404528 C117.587148,43.8870534 117.632545,44.0312409 117.686753,44.1721768 L117.686753,44.1721768 L117.460206,44.4221222 L117.211005,44.6720676 L116.984459,44.8538462 L116.780567,44.8538462 L116.780567,44.8538462 L116.644639,44.7175123 L116.508711,44.5130115 C116.500229,44.4299135 116.500229,44.346164 116.508711,44.263066 L116.508711,44.263066 C116.504648,44.1873798 116.504648,44.1115291 116.508711,44.0358429 L116.508711,43.8086197 L116.508711,43.6268412 C116.505007,43.5738876 116.505007,43.5207387 116.508711,43.4677851 C116.508711,43.1193763 116.591778,42.7558192 116.757912,42.377114 L117.007113,41.2409984 C117.097732,40.8622931 117.173247,40.4835879 117.23366,40.1048827 C117.294072,39.7261775 117.346933,39.3474723 117.392242,38.968767 C117.417198,38.6056409 117.417198,38.2412222 117.392242,37.878096 C117.376854,37.532467 117.323675,37.1895776 117.23366,36.8555919 C117.191749,36.7152378 117.138719,36.5784684 117.075077,36.4465903 C117.017735,36.3218302 116.941296,36.2068297 116.848531,36.1057556 C116.768961,36.0139532 116.6677,35.9436399 116.554021,35.9012548 C116.428747,35.8612224 116.294166,35.8612224 116.168892,35.9012548 C115.941774,35.9630932 115.737259,36.0893241 115.579871,36.2648118 C115.392651,36.4740991 115.23972,36.7118512 115.126778,36.9692035 C114.992442,37.2770189 114.886284,37.5964458 114.809613,37.9235406 C114.720002,38.2903537 114.651921,38.6621234 114.605722,39.036934 C114.585773,39.4381122 114.585773,39.8400384 114.605722,40.2412166 L114.605722,41.4682215 C114.586415,41.8542581 114.586415,42.2410228 114.605722,42.6270595 C114.653216,42.9641921 114.721308,43.2980811 114.809613,43.6268412 C114.90309,43.9694468 115.024318,44.3038197 115.172088,44.626623 L114.922887,44.9220131 L114.69634,45.1719585 L114.447139,45.421904 L114.220593,45.6036825 L114.016701,45.6036825 L114.016701,45.6036825 L113.880773,45.4673486 L113.744845,45.2628478 C113.736363,45.1797498 113.736363,45.0960003 113.744845,45.0129023 L113.744845,45.0129023 C113.740782,44.9372161 113.740782,44.8613654 113.744845,44.7856792 L113.744845,44.5584561 L113.744845,44.3766776 C113.741141,44.323724 113.741141,44.270575 113.744845,44.2176214 C113.744845,43.8692126 113.827912,43.5056556 113.994046,43.1269504 L114.243247,41.9908347 C114.333866,41.6121295 114.409381,41.2334243 114.469794,40.854719 C114.530206,40.4760138 114.583067,40.0973086 114.628376,39.7186034 C114.653332,39.3554772 114.653332,38.9910585 114.628376,38.6279324 C114.612988,38.2823033 114.559809,37.9394139 114.469794,37.6054283 C114.427883,37.4650742 114.374853,37.3283047 114.311211,37.1964266 C114.253869,37.0716665 114.17743,36.9566661 114.084665,36.8555919 C114.005095,36.7637895 113.903834,36.6934763 113.790155,36.6510911 C113.664881,36.6110587 113.5303,36.6110587 113.405026,36.6510911 C113.177908,36.7129295 112.973393,36.8391605 112.816005,37.0146481 C112.628785,37.2239354 112.475854,37.4616875 112.362912,37.7190398 C112.228576,38.0268553 112.122418,38.3462821 112.045747,38.673377 C111.956136,39.04019 111.888055,39.4119597 111.841856,39.7867703 C111.821907,40.1879485 111.821907,40.5898747 111.841856,40.9910529 L111.841856,42.2180578 L111.841856,43.3768958 C111.88935,43.7140284 111.957442,44.0479174 112.045747,44.3766776 C112.130266,44.679275 112.236258,44.9754209 112.362912,45.2628478 L112.20433,45.4673486 C112.050664,45.66735 111.884178,45.857104 111.705928,46.0354064 C111.531852,46.2180922 111.342358,46.3853449 111.139562,46.5352973 C110.954239,46.6685042 110.747278,46.7684499 110.527887,46.8306874 L110.165412,46.8306874 L109.984175,46.8306874 L109.780284,46.6489089 C110.044868,46.4910035 110.288455,46.3001331 110.505232,46.0808511 C110.709056,45.8784867 110.884363,45.6491433 111.026289,45.3991817 C111.15589,45.1733276 111.247725,44.9277034 111.298144,44.6720676 C111.351139,44.447953 111.351139,44.2145129 111.298144,43.9903983 C111.250387,43.8082953 111.165537,43.6380891 111.048943,43.4905074 C110.94419,43.3585932 110.812982,43.2502164 110.663814,43.172395 C110.507897,43.0954124 110.338708,43.0491321 110.165412,43.0360611 C109.978199,43.0014719 109.78626,43.0014719 109.599046,43.0360611 C109.376982,43.0910394 109.168703,43.1916216 108.987371,43.3314512 C108.818588,43.4655574 108.673137,43.6267993 108.556933,43.8086197 C108.438203,43.9993883 108.346696,44.2058948 108.285077,44.4221222 C108.218208,44.6367365 108.172677,44.857461 108.149149,45.0810693 C108.111416,45.5161152 108.14975,45.9544283 108.262423,46.3762411 L108.262423,46.580742 L108.262423,46.580742 L108.081186,46.876132 L107.854639,47.1487998 L107.605438,47.3533006 L107.356237,47.4669122 C107.294717,47.5088915 107.213865,47.5088915 107.152345,47.4669122 C107.075537,47.3746879 107.021238,47.2657643 106.993763,47.1487998 C106.959904,46.9000079 106.959904,46.6477554 106.993763,46.3989634 L106.993763,45.6718494 L106.993763,44.9447354 C107.027222,44.7111373 107.027222,44.4739418 106.993763,44.2403437 C106.973842,44.1429931 106.935381,44.0504119 106.88049,43.9676759 L106.721907,43.8313421 L106.563325,43.8313421 L106.427397,43.8313421 C106.241245,43.8885074 106.075857,43.9990952 105.951649,44.1494544 C105.788777,44.3395518 105.644626,44.54501 105.521211,44.7629569 C105.387327,44.9985548 105.266324,45.2412849 105.158737,45.4900709 L104.841572,46.2171849 L104.728299,46.2171849 L104.932191,45.353737 C104.932191,45.0356247 105.000155,44.69479 105.136082,44.331233 C105.27201,43.9676759 105.332423,43.5965448 105.31732,43.2178396 C105.31732,42.8391344 105.355077,42.4680033 105.430593,42.1044463 C105.450583,41.7563259 105.450583,41.4073402 105.430593,41.0592199 C105.418003,40.7671725 105.372402,40.4775022 105.294665,40.195772 C105.256508,40.0395244 105.203401,39.8873363 105.136082,39.7413257 C105.076636,39.6186445 104.99166,39.51017 104.886881,39.4232133 C104.789477,39.3412192 104.672283,39.2863652 104.547062,39.2641571 C104.390343,39.2296731 104.228033,39.2296731 104.071314,39.2641571 C103.73001,39.3536964 103.427522,39.5532965 103.210438,39.8322149 C102.978876,40.1284139 102.809352,40.4684746 102.712036,40.8319967 C102.594654,41.2544229 102.526238,41.6890183 102.508144,42.1271686 C102.478376,42.6266136 102.478376,43.1273962 102.508144,43.6268412 C102.508144,44.1418803 102.576108,44.6569194 102.712036,45.1719585 C102.847964,45.6869976 102.938582,46.1717403 102.983892,46.6261866 C103.07451,47.0806328 103.17268,47.4972086 103.278402,47.8759138 L103.527603,48.7848063 L103.663531,49.193808 C103.703517,49.3130105 103.75671,49.4273371 103.822113,49.5346427 C103.877,49.6285786 103.955004,49.7068151 104.04866,49.7618658 C104.192834,49.8577513 104.380233,49.8577513 104.524407,49.7618658 C104.536741,49.6942601 104.536741,49.6249706 104.524407,49.557365 C104.53283,49.4514958 104.53283,49.3451218 104.524407,49.2392526 L104.524407,48.7848063 C104.586847,48.4317725 104.670059,48.0827537 104.773608,47.7395799 C104.87933,47.3911711 104.985052,47.0806328 105.090773,46.8079651 C105.196495,46.5352973 105.302216,46.3005001 105.407938,46.1035734 C105.463079,45.9755896 105.531415,45.8537411 105.61183,45.7400164 L105.61183,45.7400164 L105.61183,45.8763502 L105.61183,46.149018 L105.61183,46.5352973 L105.61183,46.9670213 L105.61183,47.3987452 C105.598151,47.5271395 105.598151,47.6566302 105.61183,47.7850245 C105.659737,47.9591926 105.728184,48.1270081 105.815722,48.2849154 C105.906855,48.4518459 106.021283,48.6048718 106.155541,48.7393617 C106.283209,48.8698842 106.437877,48.9707187 106.608634,49.0347518 C106.784837,49.0953446 106.976143,49.0953446 107.152345,49.0347518 L107.51482,48.8756956 L107.877294,48.6030278 L108.217113,48.2849154 L108.511624,47.9440807 L108.73817,47.6486907 L108.964716,47.8531915 C109.181684,48.0040821 109.42925,48.1049561 109.689665,48.1485816 C109.980468,48.2148612 110.282392,48.2148612 110.573196,48.1485816 C110.777481,48.0954566 110.975089,48.0192268 111.162216,47.9213584 L111.479381,47.7168576 L111.932474,47.307856 L112.317603,46.876132 L112.521495,46.6034643 L112.521495,46.6034643 C112.683955,46.8189145 112.883417,47.0035833 113.110515,47.1487998 C113.298583,47.2296457 113.511469,47.2296457 113.699536,47.1487998 L114.06201,46.9897436 L114.424485,46.7397981 L114.786959,46.4444081 L115.126778,46.1262957 L115.489253,45.7400164 C115.648857,45.9372258 115.8403,46.1061986 116.055619,46.2399073 C116.243686,46.3207532 116.456572,46.3207532 116.644639,46.2399073 L117.007113,46.0808511 L117.369588,45.8309056 L117.732062,45.5355155 L118.275773,45.4446263 L118.479665,45.2174032 L118.479665,45.2174032 C118.668911,45.3861806 118.893379,45.5103947 119.136649,45.5809602 C119.403253,45.6567609 119.685613,45.6567609 119.952216,45.5809602 C120.155171,45.5716887 120.354755,45.5254933 120.541237,45.4446263 C120.705447,45.3231324 120.850543,45.1776029 120.971675,45.0129023 C121.094234,44.845479 121.193327,44.6619917 121.266186,44.4675668 C121.3405,44.2692573 121.393658,44.0636086 121.424768,43.8540644 C121.445374,43.642493 121.445374,43.429411 121.424768,43.2178396 C121.407382,42.7808177 121.291182,42.3534765 121.084948,41.9681124 C120.979959,41.7638289 120.850637,41.5730816 120.69982,41.4000546 L120.69982,41.4000546 L121.220876,41.5818331 L121.855206,41.8317785 L122.466881,42.1044463 L122.784046,42.2862248 L122.965284,42.2862248 C123.05786,42.2610085 123.143226,42.2143064 123.214485,42.1498909 L123.214485,42.1498909 C123.228398,42.1055175 123.228398,42.0579304 123.214485,42.013557 C123.320206,41.2258502 123.418376,40.5214584 123.508995,39.9003819 C123.599613,39.2793053 123.675129,38.7112475 123.735541,38.1962084 C123.735541,37.6811693 123.780851,37.2040007 123.871469,36.7647027 C123.896785,36.3333521 123.896785,35.9008814 123.871469,35.4695308 C123.876746,35.3711386 123.876746,35.272533 123.871469,35.1741408 L123.871469,34.9469176 C123.888455,34.8254403 123.880749,34.7017713 123.848814,34.5833606 L123.848814,34.5833606 Z M103.618222,45.4446263 L103.618222,46.2399073 C103.542706,45.8460538 103.474742,45.4370522 103.41433,45.0129023 L103.41433,44.4448445 L103.41433,43.8313421 L103.41433,43.1951173 L103.41433,42.5588925 C103.474313,42.0763806 103.565118,41.5982287 103.686186,41.1273868 C103.776804,40.7941262 103.867423,40.6123477 103.958041,40.5820513 C103.958041,40.5820513 104.093969,40.5820513 104.161933,40.9456083 C104.193169,41.2249745 104.193169,41.5069676 104.161933,41.7863339 C104.189504,42.2631018 104.189504,42.7410717 104.161933,43.2178396 L104.161933,43.8313421 L104.161933,44.6039007 L103.618222,45.4446263 Z M109.010026,45.7400164 C109.002757,45.6265218 109.002757,45.5126763 109.010026,45.3991817 C108.999613,45.278221 108.999613,45.1565853 109.010026,45.0356247 C108.992938,44.9226595 108.992938,44.8077552 109.010026,44.69479 C109.056588,44.5830771 109.126056,44.4824355 109.213918,44.3993999 C109.3181,44.3099831 109.442562,44.2475661 109.576392,44.2176214 C109.653495,44.1729729 109.74849,44.1729729 109.825593,44.2176214 C109.916383,44.3210152 109.978836,44.4462927 110.00683,44.5811784 C110.044931,44.6993514 110.044931,44.8265624 110.00683,44.9447354 C109.949667,45.0905116 109.873488,45.2280436 109.780284,45.353737 C109.682011,45.4814592 109.567806,45.5960061 109.440464,45.6945717 C109.327891,45.7891989 109.196646,45.8588893 109.055335,45.8990726 L109.055335,45.6264048 L109.010026,45.7400164 Z M112.49884,42.1498909 C112.479652,41.7941681 112.479652,41.437665 112.49884,41.0819422 L112.49884,40.0821604 C112.516676,39.7920665 112.554524,39.5035601 112.612113,39.2187125 C112.65515,39.0067099 112.723612,38.8007112 112.816005,38.60521 C112.864342,38.4800081 112.963032,38.3810237 113.087861,38.3325423 L113.087861,38.3325423 L113.087861,38.5824877 C113.124062,38.9375448 113.124062,39.2953794 113.087861,39.6504364 C113.10974,40.0439842 113.10974,40.438449 113.087861,40.8319967 C113.087861,41.2409984 113.019897,41.6348518 112.883969,42.013557 C112.748041,42.3922622 112.664974,42.7482451 112.634768,43.0815057 C112.579847,42.7885785 112.542025,42.492685 112.521495,42.1953355 L112.49884,42.1498909 Z M115.421289,41.3318876 C115.402101,40.9761648 115.402101,40.6196617 115.421289,40.2639389 L115.421289,39.2641571 C115.439125,38.9740632 115.476973,38.6855568 115.534562,38.4007092 C115.577598,38.1887067 115.64606,37.9827079 115.738454,37.7872068 C115.786791,37.6620048 115.88548,37.5630205 116.010309,37.514539 L116.010309,37.514539 L116.010309,37.7644845 C116.04651,38.1195415 116.04651,38.4773761 116.010309,38.8324332 C116.032189,39.2259809 116.032189,39.6204457 116.010309,40.0139935 C116.010309,40.4229951 115.942345,40.8168485 115.806418,41.1955537 C115.67049,41.574259 115.587423,41.9302419 115.557216,42.2635025 C115.465148,41.9202622 115.39702,41.5710089 115.353325,41.2182761 L115.421289,41.3318876 Z M120.314691,43.104228 C120.337598,43.3232762 120.337598,43.5441269 120.314691,43.7631751 C120.28981,43.9447152 120.23628,44.1211263 120.156108,44.2857883 C120.107771,44.4109903 120.009082,44.5099746 119.884253,44.5584561 C119.652775,44.6311435 119.400198,44.5699945 119.227268,44.3993999 C119.135075,44.3150151 119.058392,44.2150297 119.000722,44.1040098 C118.934407,43.9812291 118.881249,43.8517465 118.842139,43.7177305 C118.742835,43.2764082 118.742835,42.8184364 118.842139,42.377114 C118.879248,42.1851867 118.948167,42.0008548 119.046031,41.8317785 C119.115899,41.6921154 119.238087,41.5859028 119.385851,41.5363884 C119.481282,41.503495 119.58493,41.503495 119.680361,41.5363884 C119.776208,41.5770463 119.861466,41.6392373 119.929562,41.7181669 C120.011471,41.8145315 120.080053,41.9215328 120.133454,42.0362793 C120.198977,42.1751846 120.252047,42.3196623 120.292036,42.4680033 C120.315232,42.6794401 120.315232,42.8927912 120.292036,43.104228 L120.314691,43.104228 Z" id="Shape" fill="#FFFFFF"></path>
                            <path d="M139.525825,32.7428532 L139.253969,32.7428532 L139.571134,33.8789689 L139.79768,33.8789689 C140.024227,33.8789689 140.114845,33.6971904 140.046881,33.379078 L140.046881,33.015521 C139.865644,32.7655756 139.729716,32.6746863 139.525825,32.7428532 Z" id="Shape" fill="#FFFFFF"></path>
                            <path d="M133.794201,29.8343972 C128.764871,31.2431806 125.366675,34.8333061 126.204897,37.8553737 C126.606946,39.090732 127.537142,40.082017 128.742216,40.559329 L127.88134,43.3087289 L130.894407,41.2182761 C132.872496,41.5453153 134.897845,41.4367673 136.829923,40.9001637 C141.859253,39.4913803 145.257448,35.9012548 144.419227,32.8791871 C143.581005,29.8571195 138.823531,28.4483361 133.794201,29.8343972 Z M131.68732,38.3552646 L130.803789,38.60521 L129.195309,35.0378069 L129.78433,34.8787507 L131.05299,37.7872068 L131.05299,37.7872068 L130.645206,34.6288052 L131.188918,34.469749 L131.68732,38.3552646 Z M133.114562,37.9689853 L132.525541,38.1280415 L131.506082,34.4015821 L132.095103,34.2425259 L133.114562,37.9689853 Z M134.541804,34.9241953 L133.998093,35.0832515 L133.998093,34.6742499 C133.998093,34.4015821 133.771546,34.3334152 133.590309,34.4015821 C133.409072,34.469749 133.318454,34.5833606 133.386418,34.8560284 L133.930129,36.8555919 C133.930129,37.1282597 134.156675,37.1737043 134.337912,37.1282597 C134.519149,37.0828151 134.609768,36.9464812 134.541804,36.6738134 L134.405876,36.1512002 L134.949588,35.992144 L135.085515,36.4920349 C135.196758,36.8127775 135.120446,37.1689674 134.887654,37.4155607 C134.654861,37.6621541 134.304425,37.7580133 133.979044,37.6641034 C133.653664,37.5701936 133.407622,37.3021813 133.341108,36.9692035 L132.797397,35.0378069 C132.686154,34.7170643 132.762467,34.3608744 132.995259,34.1142811 C133.228051,33.8676877 133.578488,33.7718285 133.903868,33.8657384 C134.229248,33.9596482 134.47529,34.2276605 134.541804,34.5606383 L134.541804,34.9241953 Z M136.399485,33.6290235 L135.787809,33.7880797 L136.67134,36.9692035 L136.08232,37.1282597 L135.198789,33.9471358 L134.587113,34.106192 L134.451186,33.5835788 L136.263557,33.0836879 L136.399485,33.6290235 Z M139.004768,35.3786416 C139.156581,35.7125683 139.098781,36.1047768 138.857143,36.3803738 C138.615505,36.6559708 138.235059,36.7635965 137.885454,36.6552587 C137.535849,36.5469208 137.282236,36.242809 137.237706,35.8785325 L136.693995,33.9471358 C136.542182,33.6132091 136.599982,33.2210006 136.84162,32.9454036 C137.083258,32.6698067 137.463704,32.5621809 137.813309,32.6705187 C138.162914,32.7788566 138.416527,33.0829685 138.461057,33.447245 L139.004768,35.3786416 Z M140.839794,35.8330878 C140.75179,35.7024651 140.690213,35.5557827 140.658557,35.4013639 L140.499974,34.8105837 C140.499974,34.469749 140.250773,34.3788598 139.978918,34.4470267 L139.775026,34.4470267 L140.182809,35.9694217 L139.593789,36.1284779 L138.57433,32.4020185 L139.457861,32.1520731 C139.684287,32.0388215 139.951728,32.044326 140.173332,32.166799 C140.394936,32.2892719 140.542438,32.5130928 140.567938,32.7655756 L140.567938,33.0609656 C140.700629,33.3577449 140.627429,33.7064837 140.386701,33.9244135 L140.386701,33.9244135 C140.703866,33.9244135 140.885103,34.2198036 140.998376,34.6060829 L141.156959,35.1741408 C141.186815,35.3291135 141.248539,35.4761463 141.338196,35.6058647 L140.839794,35.8330878 Z" id="Shape" fill="#FFFFFF"></path>
                            <path d="M137.396289,33.2881888 C137.215052,33.2881888 137.124433,33.4699673 137.192397,33.742635 L137.736108,35.7421986 C137.736108,36.0148663 137.962655,36.0830333 138.143892,36.0148663 C138.325129,35.9466994 138.415747,35.8330878 138.347784,35.5604201 L137.804072,33.5608565 C137.736108,33.3109111 137.577526,33.2427441 137.396289,33.2881888 Z" id="Shape" fill="#FFFFFF"></path>
                            <rect id="Rectangle-path" fill="#5E5E5E" transform="translate(204.491110, 46.345497) rotate(24.310000) translate(-204.491110, -46.345497) " x="188.632863" y="17.1473249" width="31.7164948" height="58.3963448" rx="2.6"></rect>
                            <path d="M204.023582,78.7555374 C203.031967,78.7584114 202.051131,78.5492642 201.146443,78.1420349 L183.022732,69.9165576 C181.30613,69.1560735 179.962938,67.740149 179.290989,65.9827436 C178.61904,64.2253383 178.673862,62.2716807 179.443299,60.5549645 L198.586469,18.1778505 C200.191667,14.6303755 204.356512,13.055 207.897526,14.655892 L226.021237,22.8813693 C229.558147,24.4913626 231.12883,28.6686485 229.532706,32.22024 L210.434845,74.5973541 C209.296622,77.1253234 206.789112,78.7516312 204.023582,78.7555374 Z M202.097938,76.0515821 C204.494307,77.125359 207.305658,76.0603459 208.395928,73.6657392 L227.516443,31.2204583 C228.524512,28.8352626 227.461118,26.0782786 225.115052,24.9945445 L206.99134,16.7690671 C204.625357,15.6800899 201.825586,16.6902104 200.693351,19.0412984 L181.527526,61.5093017 C180.465529,63.9313281 181.560536,66.758379 183.974227,67.8261047 L202.097938,76.0515821 Z" id="Shape" fill="#000000"></path>
                            <rect id="Rectangle-path" fill="#B2B2B2" transform="translate(204.617655, 46.295055) rotate(24.310000) translate(-204.617655, -46.295055) " x="192.520078" y="26.4698365" width="24.1951546" height="39.6504364"></rect>
                            <path d="M208.056108,70.8481724 L183.974227,59.9187398 L201.146443,21.7225314 L225.250979,32.651964 L208.056108,70.8481724 Z M186.941985,58.7826241 L206.923376,67.8715494 L222.260567,33.7880797 L202.279175,24.6991544 L186.941985,58.7826241 Z" id="Shape" fill="#000000"></path>
                            <ellipse id="Oval" fill="#B2B2B2" transform="translate(194.606468, 68.746919) rotate(-65.690000) translate(-194.606468, -68.746919) " cx="194.606468" cy="68.7469189" rx="2.15219072" ry="2.15861975"></ellipse>
                            <path d="M194.599253,71.7570649 C193.262504,71.7580228 192.084934,70.8754994 191.706979,69.5894648 C191.329023,68.3034301 191.84105,66.9213762 192.964589,66.1949479 C194.088128,65.4685197 195.554539,65.5714069 196.566299,66.4476531 C197.578059,67.3238993 197.893255,68.7639934 197.340464,69.9847245 L197.340464,69.9847245 C196.85204,71.0633133 195.78035,71.7562186 194.599253,71.7570649 L194.599253,71.7570649 Z M194.599253,67.4398254 C193.927638,67.4449108 193.367958,67.957178 193.301627,68.6275243 C193.235295,69.2978707 193.683666,69.9104829 194.341182,70.0478746 C194.998698,70.1852663 195.653676,69.8032052 195.859758,69.1620604 C196.06584,68.5209155 195.756679,67.8270991 195.142964,67.553437 C194.972088,67.4764612 194.78656,67.4376942 194.599253,67.4398254 Z" id="Shape" fill="#000000"></path>
                            <path d="M219.020954,27.5167212 C218.864159,27.5504996 218.702001,27.5504996 218.545206,27.5167212 L209.279459,23.3130933 C208.885338,23.163567 208.606544,22.8069742 208.555745,22.3874236 C208.504947,21.967873 208.69054,21.5547162 209.037522,21.3149209 C209.384504,21.0751257 209.835519,21.04833 210.208299,21.2453628 L219.474046,25.4489907 C220.099637,25.5807572 220.500279,26.1962313 220.368905,26.8236907 C220.237531,27.45115 219.62389,27.8529885 218.998299,27.721222 L219.020954,27.5167212 Z" id="Shape" fill="#000000"></path>
                            <path d="M197.385773,44.3539553 C196.929092,44.435525 196.49295,44.1303312 196.411624,43.6722859 C196.330297,43.2142405 196.634582,42.7767961 197.091263,42.6952264 L207.670979,38.6279324 C207.95426,38.5183407 208.274314,38.5686535 208.51058,38.7599185 C208.746847,38.9511834 208.863432,39.2543428 208.816418,39.5551994 C208.769404,39.8560561 208.565935,40.1089026 208.282655,40.2184943 L197.680284,44.3085106 L197.385773,44.3539553 Z" id="Shape" fill="#000000"></path>
                            <path d="M195.075,49.6709765 C194.618319,49.7525462 194.182177,49.4473524 194.100851,48.9893071 C194.019524,48.5312618 194.323809,48.0938174 194.78049,48.0122477 L212.904201,41.1955537 C213.187481,41.085962 213.507535,41.1362748 213.743802,41.3275398 C213.980069,41.5188048 214.096653,41.8219642 214.04964,42.1228208 C214.002626,42.4236775 213.799157,42.676524 213.515876,42.7861157 L195.392165,49.6028096 L195.075,49.6709765 Z" id="Shape" fill="#000000"></path>
                            <path d="M200.39884,52.2613202 C200.103419,52.3140866 199.802372,52.2047687 199.609101,51.9745457 C199.41583,51.7443226 199.359696,51.4281707 199.461846,51.1451812 C199.563996,50.8621918 199.808909,50.6553577 200.10433,50.6025914 L210.684046,46.6034643 C210.967327,46.4938726 211.287381,46.5441854 211.523647,46.7354504 C211.759914,46.9267153 211.876499,47.2298747 211.829485,47.5307314 C211.782471,47.831588 211.579002,48.0844345 211.295722,48.1940262 L200.693351,52.2613202 L200.39884,52.2613202 Z" id="Shape" fill="#000000"></path>
                            <path d="M248.358711,61.895581 L245.821392,66.1673759 C245.7234,66.3376269 245.541635,66.4418034 245.345644,66.4400436 L241.426392,66.3264321 C241.126108,66.3264321 240.88268,66.0822771 240.88268,65.7810966 C240.88268,65.4799161 241.126108,65.235761 241.426392,65.235761 L245.028479,65.235761 L247.407216,61.3502455 C247.563614,61.0929872 247.898327,61.0116022 248.15482,61.168467 C248.411312,61.3253319 248.492454,61.661045 248.336057,61.9183033 L248.358711,61.895581 Z" id="Shape" fill="#000000"></path>
                        </g>
                    </g>
                </g>
            </g>
        </g>
    </g>
</svg>