<?xml version="1.0" encoding="UTF-8" standalone="no"?>
<svg width="44px" height="44px" viewBox="0 0 44 44" version="1.1" xmlns="http://www.w3.org/2000/svg" xmlns:xlink="http://www.w3.org/1999/xlink">
    <!-- Generator: Sketch 42 (36781) - http://www.bohemiancoding.com/sketch -->
    <title>Facebook-color</title>
    <desc>Created with Sketch.</desc>
    <defs></defs>
    <g id="Page-1" stroke="none" stroke-width="1" fill="none" fill-rule="evenodd">
        <g id="LANDING-HV" transform="translate(-598.000000, -5657.000000)" fill="#4F7CB0">
            <g id="Group-5" transform="translate(598.000000, 5657.000000)">
                <g id="Facebook-color">
                    <g id="Icons">
                        <g>
                            <g id="Color-">
                                <path d="M23.2860501,44 L2.40616643,44 C1.07688816,44 0,42.9124593 0,41.5713861 L0,2.42844342 C0,1.08702917 1.07705709,0 2.40616643,0 L41.1900299,0 C42.5188005,0 43.5960265,1.08702917 43.5960265,2.42844342 L43.5960265,41.5713861 C43.5960265,42.9126298 42.5186315,44 41.1900299,44 L30.080627,44 L30.080627,26.9607754 L35.7473984,26.9607754 L36.595917,20.3202872 L30.080627,20.3202872 L30.080627,16.0807543 C30.080627,14.1581798 30.6095985,12.8480092 33.3412329,12.8480092 L36.8253011,12.8464719 L36.8253011,6.90716675 C36.222745,6.82624067 34.1545658,6.64543917 31.7483994,6.64543917 C26.7251217,6.64543917 23.2860501,9.7400655 23.2860501,15.4231083 L23.2860501,20.3202872 L17.6047313,20.3202872 L17.6047313,26.9607754 L23.2860501,26.9607754 L23.2860501,44 L23.2860501,44 Z" id="Facebook"></path>
                            </g>
                        </g>
                    </g>
                </g>
            </g>
        </g>
    </g>
</svg>