<?xml version="1.0" encoding="UTF-8" standalone="no"?>
<svg width="44px" height="44px" viewBox="0 0 44 44" version="1.1" xmlns="http://www.w3.org/2000/svg" xmlns:xlink="http://www.w3.org/1999/xlink">
    <!-- Generator: Sketch 42 (36781) - http://www.bohemiancoding.com/sketch -->
    <title>Logo-Google+Fichier 1</title>
    <desc>Created with Sketch.</desc>
    <defs></defs>
    <g id="Page-1" stroke="none" stroke-width="1" fill="none" fill-rule="evenodd">
        <g id="LANDING-HV" transform="translate(-739.000000, -5657.000000)">
            <g id="Group-5" transform="translate(598.000000, 5657.000000)">
                <g id="Logo-Google+Fichier-1" transform="translate(141.000000, 0.000000)">
                    <g id="41c48918-1bea-4e8e-bc67-1926675d5915">
                        <g>
                            <g id="15ce755f-4194-421f-97e5-d3ace834211c">
                                <path d="M1.52690476,0.468809524 C2.04809524,0.261904762 2.61904762,0.293333333 3.16904762,0.261904762 C15.8661905,0.275873016 28.5633333,0.275873016 41.2604762,0.261904762 C41.9457321,0.196486608 42.6244607,0.440089125 43.111719,0.926334452 C43.5989773,1.41257978 43.8439919,2.0907999 43.78,2.77619048 C43.8088095,15.5938095 43.78,28.4140476 43.78,41.2342857 C43.8397446,41.9239344 43.5933216,42.6049836 43.1061147,43.0967297 C42.6189078,43.5884758 41.9401731,43.8412038 41.25,43.7878571 L2.79452381,43.7878571 C2.10335789,43.8414175 1.42365778,43.5880097 0.936247399,43.0950491 C0.448837015,42.6020885 0.203141277,41.9195628 0.26452381,41.2290476 C0.275,28.4297619 0.261904762,15.6095238 0.288095238,2.79190476 C0.219472003,1.84364659 0.701249534,0.940186397 1.52690476,0.468809524 L1.52690476,0.468809524 Z M10.1069048,22.0209524 C10.0414286,25.187381 12.2230952,28.2097619 15.2245238,29.1971429 C18.0504762,30.1478571 21.5259524,29.4354762 23.4064286,27.0154762 C24.7788095,25.3183333 25.0904762,23.047619 24.9438095,20.952381 C22.5238095,20.9314286 20.1038095,20.9366667 17.6864286,20.952381 L17.6864286,23.537381 C19.1347619,23.5766667 20.5857143,23.5583333 22.0340476,23.5871429 C21.667381,24.8416667 20.8345238,26.0071429 19.5695238,26.4680952 C17.1259524,27.5445238 14.0119048,26.1380952 13.2419048,23.5871429 C12.3095238,21.0964286 13.8364286,18.1342857 16.3428571,17.4219048 C17.8985714,16.8745238 19.4988095,17.49 20.8292857,18.2992857 C21.502381,17.6680952 22.1388095,16.9897619 22.7542857,16.3140476 C21.2430952,15.0490476 19.2997619,14.2738095 17.3040476,14.4440476 C13.3859524,14.4911905 9.95238095,18.1054762 10.1069048,22.0209524 Z M29.6528571,18.7602381 C29.6528571,19.4804762 29.6371429,20.2059524 29.6345238,20.9261905 L27.4685714,20.9419048 L27.4685714,23.1 L29.6345238,23.1157143 C29.6345238,23.8359524 29.6345238,24.5588095 29.6502381,25.2816667 L31.8109524,25.2816667 C31.8109524,24.5561905 31.8109524,23.8359524 31.8266667,23.1104762 L33.992619,23.1104762 L33.992619,20.952381 L31.8266667,20.9366667 C31.8266667,20.2164286 31.8266667,19.4909524 31.8109524,18.7707143 L29.6528571,18.7602381 Z" id="Shape" fill="#DC4E41"></path>
                                <path d="M10.1069048,22.0209524 C9.95238095,18.1054762 13.3859524,14.4911905 17.3040476,14.4440476 C19.2997619,14.2738095 21.232619,15.0490476 22.7542857,16.3140476 C22.1335714,16.995 21.505,17.6680952 20.8292857,18.2992857 C19.4988095,17.49 17.8985714,16.8745238 16.3428571,17.4219048 C13.8364286,18.1369048 12.317381,21.0885714 13.2445238,23.5504762 C14.0119048,26.1119048 17.1285714,27.5183333 19.5721429,26.4314286 C20.8371429,25.9783333 21.667381,24.8128571 22.0366667,23.5504762 C20.5883333,23.5216667 19.137381,23.5504762 17.6890476,23.5007143 L17.6890476,20.9157143 L24.9464286,20.9157143 C25.0957143,23.0292857 24.7840476,25.2895238 23.4090476,26.9866667 C21.5285714,29.4066667 18.0530952,30.1295238 15.2271429,29.1683333 C12.2230952,28.2097619 10.0414286,25.187381 10.1069048,22.0209524 Z" id="Shape" fill="#FFFFFF"></path>
                                <path d="M29.6528571,18.757619 L31.8083333,18.757619 C31.8083333,19.4778571 31.8083333,20.2033333 31.8240476,20.9235714 L33.99,20.9392857 L33.99,23.1 L31.8240476,23.1 C31.8240476,23.8254762 31.8240476,24.5457143 31.8083333,25.2711905 L29.647619,25.2711905 C29.647619,24.5457143 29.647619,23.8254762 29.6319048,23.1052381 L27.4659524,23.0895238 L27.4659524,20.952381 L29.6319048,20.9366667 C29.6397619,20.2059524 29.647619,19.4804762 29.6528571,18.757619 Z" id="Shape" fill="#FFFFFF"></path>
                            </g>
                        </g>
                    </g>
                </g>
            </g>
        </g>
    </g>
</svg>