<?xml version="1.0" encoding="UTF-8"?>
<svg width="1440px" height="809px" viewBox="0 0 1440 809" version="1.1" xmlns="http://www.w3.org/2000/svg" xmlns:xlink="http://www.w3.org/1999/xlink">
    <!-- Generator: Sketch 42 (36781) - http://www.bohemiancoding.com/sketch -->
    <title>Logo HV Angel Copy 5</title>
    <desc>Created with Sketch.</desc>
    <defs></defs>
    <g id="LANDINGS-DESKTOP-HD" stroke="none" stroke-width="1" fill="none" fill-rule="evenodd" opacity="0.29191931">
        <g id="Landing-HV-V3-OBJETS" transform="translate(0.000000, -1316.000000)" fill="#FFFFFF">
            <g id="Group-5" transform="translate(-119.000000, 1316.000000)">
                <g id="Logo-HV-Angel-Copy-5" style="mix-blend-mode: screen;">
                    <path d="M1901.38236,47.7028674 C1900.19218,43.1894751 1897.95972,39.0161655 1894.86333,35.5163701 C1892.1257,32.6188765 1888.65305,30.5134694 1884.81317,29.4231214 C1880.69879,28.300765 1876.44793,27.7539126 1872.18256,27.7982551 C1863.06981,27.8522281 1853.97988,28.7131801 1845.01995,30.3709601 C1835.50104,32.0061726 1826.32144,35.2093918 1817.85735,39.8493469 C1809.04965,44.8019659 1801.26178,51.3719307 1794.90495,59.2123371 C1787.3605,68.8335978 1781.98682,79.9643899 1779.15063,91.8450689 C1773.53703,111.162924 1767.018,132.872943 1759.59356,156.975127 C1752.16911,181.07731 1744.3825,206.849495 1736.23372,234.291682 C1728.08494,261.372787 1719.84561,290.078759 1711.51575,320.409596 C1703.18588,350.740434 1695.39927,381.071272 1688.15591,411.40211 C1680.822,442.094029 1674.34825,472.785948 1668.73464,503.477867 C1666.42582,515.79977 1664.66025,527.850862 1662.75887,539.901954 C1650.80733,525.548968 1638.31253,511.466793 1625.00285,497.926241 C1607.66359,480.199734 1588.60151,464.233809 1568.09719,450.263496 C1547.75917,436.428828 1525.70996,425.278002 1502.4995,417.089142 C1478.36798,408.66725 1452.96156,404.453185 1427.3949,404.631834 C1398.37706,404.194439 1369.60712,410.014302 1343.05501,421.69293 C1318.78494,432.527495 1297.14968,448.462765 1279.63033,468.407836 C1261.96637,488.867238 1248.4522,512.549542 1239.83711,538.141682 C1230.51072,565.981594 1225.9203,595.180635 1226.25581,624.530408 C1226.2504,636.344035 1226.97612,648.14674 1228.42882,659.87125 L1220.68747,665.287471 C1213.08194,670.34261 1205.20479,675.30748 1197.05601,680.182079 C1188.90723,685.056678 1180.9848,689.570195 1173.28873,693.722631 C1166.21953,697.247711 1158.91332,700.279061 1151.42283,702.794802 C1145.52483,704.866277 1139.33897,706.008369 1133.08807,706.17994 C1130.77925,706.17994 1128.47043,704.555073 1125.88998,701.305341 C1122.85905,697.154768 1120.43544,692.595626 1118.69189,687.764788 C1116.26512,681.800575 1114.35672,675.639542 1112.98774,669.349637 C1111.42876,662.370873 1110.65438,655.240683 1110.67892,648.090969 L1110.67892,642.268531 C1111.4938,636.716905 1112.5803,630.894467 1114.07425,625.07203 C1115.56819,619.249592 1116.92632,613.697965 1118.28445,608.41715 C1119.64258,603.136334 1121.13653,598.397141 1122.76628,593.928759 C1124.0172,590.178714 1125.51438,586.514842 1127.24811,582.960911 C1140.19562,557.775483 1154.04855,531.913028 1168.8069,505.373545 C1183.56525,478.834062 1198.23305,451.752957 1212.81032,424.130229 C1227.38758,397.049124 1241.4216,369.516667 1254.91236,341.532859 C1268.40312,313.54905 1280.26412,285.881187 1290.49537,258.529271 C1300.51955,231.67563 1308.68744,204.169094 1314.94171,176.202711 C1320.89211,149.755029 1323.94316,122.741135 1324.04119,95.6364236 C1324.06057,84.0282337 1323.15228,72.4369549 1321.32493,60.972609 C1319.73622,50.392483 1316.53001,40.1177175 1311.81801,30.5063657 C1307.59545,21.8452079 1301.24092,14.3917269 1293.34744,8.84148151 C1284.44519,3.0484552 1273.9551,0.161686968 1263.33276,0.581744437 C1244.73395,0.841130417 1226.59513,6.38388016 1211.04475,16.5595965 C1192.411,28.5225558 1175.77532,43.3263772 1161.74462,60.4309869 C1144.75811,80.8722751 1129.6663,102.807566 1116.6547,125.967261 C1101.79263,152.241084 1088.50494,179.36972 1076.86148,207.210577 C1064.39599,236.748068 1053.42658,266.891213 1043.99473,297.526063 C1034.30673,328.940145 1025.93159,360.173686 1018.86932,391.226687 C1011.80704,422.279687 1006.46506,452.475119 1002.84338,481.812983 C999.353968,508.756496 997.539662,535.889418 997.410859,563.056299 C997.658485,591.109672 1000.2021,619.096106 1005.01639,646.736914 C996.324355,653.100974 987.632322,659.194222 979.347727,664.745849 C971.063132,670.297475 963.865042,674.765858 955.716261,679.640457 C947.567479,684.515056 939.55451,688.848032 931.948981,693.181009 C924.879787,696.706089 917.573578,699.737439 910.083084,702.253179 C904.185081,704.324655 897.999222,705.466747 891.748325,705.638318 C889.439504,705.638318 887.130683,704.013451 884.550235,700.763719 C881.519308,696.613146 879.095691,692.054004 877.352145,687.223166 C874.925373,681.258952 873.016975,675.09792 871.647998,668.808015 C870.089013,661.829251 869.314631,654.699061 869.339176,647.549347 L869.339176,641.726909 C870.154054,636.175283 871.240559,630.352845 872.734502,624.530408 C874.228445,618.70797 875.586575,613.156343 876.944706,607.875528 C878.302836,602.594712 879.796779,597.855519 881.426536,593.387137 C882.677819,589.637227 884.17499,585.973379 885.908365,582.419289 C898.855874,557.233861 912.708802,531.371406 927.467151,504.831923 C942.2255,478.29244 956.893307,451.211334 971.470571,423.588607 C986.047836,396.507502 1000.08185,368.975045 1013.57261,340.991236 C1027.06337,313.007428 1038.92437,285.339565 1049.15562,257.987649 C1059.1798,231.134008 1067.34769,203.627472 1073.60197,175.661089 C1079.55342,149.213584 1082.60449,122.199575 1082.70144,95.0948015 C1082.72083,83.4866116 1081.81253,71.8953328 1079.98518,60.4309869 C1078.39857,49.8503826 1075.19226,39.575304 1070.47827,29.9647435 C1066.2557,21.3035858 1059.90117,13.8501048 1052.0077,8.29985941 C1043.10545,2.5068331 1032.61535,-0.379935135 1021.99302,0.0401223336 C1003.3942,0.299508314 985.255381,5.84225806 969.705002,16.0179744 C951.07125,27.9809337 934.435573,42.7847551 920.404874,59.8893648 C903.41836,80.330653 888.326557,102.265943 875.314949,125.425639 C860.452884,151.699462 847.165198,178.828097 835.521733,206.668955 C823.055387,236.206113 812.085965,266.349301 802.654981,296.984441 C792.966985,328.398523 784.591848,359.632064 777.529571,390.685064 C770.467294,421.738065 764.808418,452.159173 760.552943,481.948389 C757.06353,508.891901 755.249225,536.024823 755.120422,563.191704 C755.102182,588.110228 756.872271,612.998118 760.41713,637.664744 C755.256235,641.862315 749.959527,646.059886 744.25538,650.392863 C728.243666,662.483758 711.457738,673.520183 694.00456,683.431811 C676.657351,693.370919 658.481379,701.797387 639.67935,708.617239 C622.607556,715.026011 604.545369,718.416829 586.304831,718.637248 C581.277903,718.690389 576.262592,718.144905 571.365398,717.012382 C566.520054,715.913509 561.917199,713.94022 557.784096,711.189944 C553.039291,707.923509 548.82532,703.950515 545.289297,699.409663 C540.599885,693.450288 536.420291,687.109119 532.794499,680.45289 C556.536828,673.975153 579.355677,664.510994 600.701012,652.28854 C620.56792,641.25855 638.84283,627.593492 655.026222,611.666883 C669.454884,597.291814 681.469458,580.695614 690.609235,562.514677 C698.905656,546.369942 703.322731,528.522878 703.511472,510.383549 C703.71691,495.517215 700.850623,480.767865 695.091065,467.053781 C689.740938,454.514722 681.778339,443.252834 671.731224,434.014833 C661.488909,424.735847 649.544811,417.517326 636.555651,412.756165 C622.511739,407.610579 607.649682,405.041607 592.688043,405.173456 C574.508916,404.919183 556.474136,408.423108 539.720963,415.464276 C523.966211,422.054579 509.417663,431.205933 496.668234,442.545381 C483.661938,454.479806 472.373118,468.149784 463.122417,483.167039 C453.608628,498.405391 445.646614,514.553805 439.355138,531.371406 C427.317393,563.982737 421.111735,598.446834 421.020379,633.196361 L421.020379,649.445024 C418.711558,651.746918 416.402736,654.184218 414.093915,656.350706 C407.665432,662.48909 400.784238,668.446933 393.450335,674.224236 C386.326545,679.810697 378.840545,684.92209 371.041186,689.52506 C363.786848,693.866708 356.149525,697.53794 348.224597,700.492908 C341.378131,703.15002 334.112065,704.571364 326.766139,704.690479 C320.597513,704.468536 315.200959,700.487068 313.184837,694.67047 C309.449459,686.146929 307.730126,676.88112 308.159755,667.589365 C308.054416,647.696735 310.65865,627.881949 315.901097,608.687961 C321.061992,589.911728 326.81141,571.496577 333.149352,553.442506 C339.487293,535.388436 345.327253,517.334366 350.669232,499.280296 C356.004191,481.209047 358.702842,462.466376 358.6822,443.628625 C358.941848,435.692942 357.65026,427.782705 354.879436,420.338875 C352.73615,415.189603 349.491719,410.568607 345.372524,406.798322 C341.944707,403.650618 337.864485,401.293039 333.420978,399.89264 C329.732496,398.704491 325.888294,398.065713 322.012683,397.996963 C306.471559,398.676923 291.46498,403.852303 278.824141,412.891571 C262.259418,423.835374 246.79527,436.350958 232.647713,450.263496 C217.262432,465.306423 202.708955,481.17229 189.051732,497.790835 C174.746093,515.122743 161.798584,531.371406 150.209206,546.536825 L141.788799,540.578982 L174.927177,479.240278 C187.421975,455.950528 200.143129,431.216452 213.090637,405.03805 C226.038145,378.859648 238.668757,351.778543 250.982471,323.794735 C263.386727,295.901196 274.432854,268.368739 284.120849,241.197364 C293.379288,215.476685 301.178237,189.25681 307.48069,162.662159 C313.03936,140.097211 316.001077,116.974269 316.308536,93.7407462 C316.41474,80.9780879 315.277628,68.2353051 312.913211,55.6917935 C311.048251,45.2097857 306.974788,35.2412857 300.961665,26.4441999 C295.051652,18.1761009 287.034056,11.6316824 277.737637,7.48742626 C265.920494,2.58187812 253.18185,0.272710454 240.389055,0.717149963 C212.608172,0.345090208 185.451879,8.9425307 162.975631,25.2255501 C139.027732,43.1378845 118.975366,65.7097229 104.032778,91.5742578 C86.2078457,121.428105 71.8980877,153.233123 61.3874875,186.358126 C49.4397746,223.845251 39.7347076,262.006464 32.3235001,300.64039 C24.6274286,340.630155 18.6516555,381.251813 14.3961807,422.505363 C10.1407059,463.758913 6.9264643,502.710569 4.75345589,539.360332 C2.48990547,576.371176 1.17704622,610.087151 0.814878153,640.50826 C0.452710085,670.929368 0.181084034,695.573173 0,714.439677 C0,726.174822 0.407439077,737.684292 1.22231723,748.968086 C1.86780342,759.163023 3.69069185,769.249698 6.65483825,779.028113 C8.94266924,786.996529 13.1372604,794.291805 18.8780105,800.28678 C29.9329866,809.562259 45.6395937,810.916885 58.1279749,803.671918 C63.1744009,800.053914 67.4262663,795.446188 70.6227733,790.131366 C75.0945381,782.738303 78.9553206,774.994622 82.1668804,766.977021 C86.1507292,757.949986 91.2210821,746.937003 97.3779393,733.938072 C109.760225,708.413305 123.637099,683.636474 138.936725,659.735844 C154.238326,635.814201 169.087217,614.239588 183.483397,595.012003 C197.879578,575.784418 210.736545,559.896837 222.054297,547.349258 C229.250054,538.661723 237.354067,530.763593 246.229015,523.788696 L255.056862,525.007346 C252.96813,527.904916 251.149709,530.986956 249.624341,534.214922 C246.817538,539.540873 243.512755,546.401419 239.70999,554.796562 C235.907225,563.191704 231.832835,572.715226 227.486818,583.367128 C223.140801,594.019029 219.202223,604.941741 215.671085,616.135265 C212.139946,627.328788 209.19733,638.477177 206.843238,649.58043 C204.609901,659.448875 203.426313,669.52457 203.312099,679.640457 C203.419954,694.111757 205.24345,708.519602 208.74462,722.564008 C212.195383,737.220028 217.729108,751.309207 225.177996,764.404316 C232.20726,776.708141 241.792347,787.372449 253.291293,795.682992 C265.135777,804.175979 279.451437,808.552942 294.0352,808.140301 C304.8193,808.052049 315.53013,806.363538 325.815448,803.130296 C337.200162,799.638558 348.319908,795.339757 359.089639,790.266771 C370.465231,784.9372 381.52906,778.969809 392.228018,772.393242 C403.183602,765.622966 413.369579,758.94296 422.785948,752.353224 C431.613795,746.12457 439.626764,740.302132 446.960667,734.885911 C450.945914,742.04408 455.486876,748.880358 460.54197,755.332146 C474.012991,771.64484 490.942859,784.778144 510.113724,793.787315 C531.859411,803.746998 555.589256,808.654662 579.51418,808.140301 C596.336527,808.144047 613.104485,806.236055 629.493373,802.453269 C645.776197,798.718947 661.720824,793.646469 677.163745,787.28785 C692.276109,781.097129 706.934577,773.857755 721.031352,765.622966 C734.974823,757.498634 747.967602,749.238897 760.009691,740.843754 C767.61522,735.562939 774.949124,730.011312 782.283027,724.188875 C783.641157,727.709418 784.863474,731.229962 786.357418,734.479695 C794.286507,754.468411 805.842518,772.829109 820.446487,788.641905 C831.162498,800.904536 846.515454,808.165497 862.820151,808.681923 C873.216863,808.601942 883.566746,807.283678 893.649708,804.755162 C905.102026,801.936698 916.353989,798.363158 927.331338,794.058126 C938.830174,789.544608 950.283739,784.444334 961.692034,778.757302 C973.100328,773.070269 984.146454,767.247832 994.830412,761.289989 C1006.69142,754.429442 1018.64296,747.117544 1030.68505,739.354293 C1038.46761,757.560073 1049.35822,774.282211 1062.87274,788.77731 C1073.58875,801.039941 1088.9417,808.300903 1105.2464,808.817328 C1115.64311,808.737348 1125.993,807.419083 1136.07596,804.890568 C1147.52828,802.072104 1158.78024,798.498564 1169.75759,794.193531 C1181.25642,789.680014 1192.70999,784.579739 1204.11828,778.892707 C1215.52658,773.205675 1226.5727,767.383237 1237.25666,761.425394 C1244.18313,757.498634 1250.83796,753.030252 1258.17187,748.697275 L1259.25837,750.457547 C1270.28515,767.598352 1285.04763,782.03883 1302.44691,792.704071 C1321.63927,803.9492 1343.61928,809.580222 1365.8716,808.952734 C1382.44281,809.063266 1398.88815,806.078 1414.35685,800.151375 C1429.47212,794.306245 1443.61923,786.226879 1456.32307,776.184597 C1469.27678,765.884101 1480.74736,753.85562 1490.41214,740.437538 C1500.3963,726.669458 1508.86546,711.870199 1515.67336,696.295336 C1522.5295,680.606367 1527.80681,664.277665 1531.42768,647.549347 C1539.15625,613.999295 1539.15625,579.139037 1531.42768,545.588986 C1527.43485,527.758852 1521.27789,510.480172 1513.09292,494.134886 L1516.48824,489.531098 C1526.62895,496.211104 1538.71631,504.561112 1552.75032,514.581121 C1566.78433,524.601129 1581.0447,535.162761 1595.53142,546.266014 C1610.01815,557.459537 1623.59945,568.969007 1636.27533,580.794423 C1643.88086,587.700105 1649.85663,594.334975 1656.37566,600.699035 C1656.153,605.006715 1658.28274,609.098042 1661.94399,611.396072 C1663.57615,612.277473 1665.30895,612.959423 1667.10489,613.427154 L1667.10489,613.427154 C1669.88097,614.25233 1672.76433,614.663003 1675.66111,614.645804 C1683.47947,614.563827 1691.16409,612.61361 1698.07026,608.958772 C1701.33824,607.219746 1704.27913,604.929075 1706.76229,602.188496 C1709.21913,599.5242 1710.78522,596.164832 1711.24412,592.574703 C1735.96209,534.530868 1758.5976,482.896228 1779.15063,437.670782 C1799.70367,392.445336 1817.81208,350.87584 1833.47584,312.962293 C1849.23016,275.139016 1862.81146,239.753038 1874.21975,206.80436 C1885.19786,174.503262 1894.26761,141.588415 1901.38236,108.229137 C1903.10266,99.8339949 1904.2797,92.3415558 1904.9135,85.7518202 C1905.59352,79.6814925 1905.95618,73.5799901 1906,67.4720742 C1905.40259,60.6983629 1903.848,54.0428173 1901.38236,47.7028674 L1901.38236,47.7028674 Z M117.342454,451.888362 L92.4886704,509.435711 C95.0238468,477.480006 98.6907985,444.847275 103.489525,411.537515 C105.48145,397.2748 107.790271,382.199651 110.41599,366.31207 C113.041708,350.424488 115.984324,334.31123 119.243836,317.972297 C122.503349,301.543093 126.170301,285.068754 130.244691,268.54928 C134.319082,252.029806 138.846183,236.051954 143.825994,220.615724 C158.398233,184.944995 175.274432,150.253579 194.34844,116.759686 C208.654078,92.9283131 219.473849,81.0126268 226.807753,81.0126268 C232.421358,81.0126268 235.22816,91.6645282 235.22816,112.968331 C233.944098,135.02226 230.209013,156.865987 224.091492,178.098389 C214.220399,214.874383 202.203116,251.044123 188.10104,286.42281 C183.030687,299.060659 176.647475,314.406618 168.951404,332.460688 L144.233433,390.008037 L117.342454,451.888362 Z M524.781531,588.106321 C525.36688,579.012356 526.546429,569.966126 528.312669,561.025216 C530.209348,551.788163 532.889984,542.728528 536.325638,533.944111 C539.56004,525.167863 544.141725,516.945575 549.90694,509.571116 C555.779923,502.340475 563.084717,496.394329 571.365398,492.103803 C580.982282,487.372601 591.610595,485.048824 602.330768,485.333527 C609.892419,485.828548 616.52111,490.54912 619.443209,497.520024 C624.424401,507.125671 626.811509,517.858759 626.369674,528.663295 C625.789192,538.577771 622.081591,548.055917 615.776258,555.7444 C608.389849,565.892986 599.664458,575.002108 589.83597,582.825506 C579.736423,590.806866 568.643471,597.45177 556.833405,602.594712 C546.436842,607.411119 535.155848,610.038526 523.695026,610.312827 C523.4234,604.264714 523.604484,596.862545 524.238278,588.106321 L524.781531,588.106321 Z M869.203363,388.653982 C873.040446,360.718287 878.390239,333.009954 885.2293,305.650394 C892.019952,278.569289 899.670752,253.203321 908.181702,229.552489 C915.785235,208.059403 924.860803,187.112501 935.344307,166.85973 C943.001246,151.558538 952.486506,137.236941 963.593416,124.20699 C969.783579,115.525131 979.340517,109.827819 989.941143,108.499949 C992.204693,108.499949 993.517553,111.3886 993.879721,117.165902 C994.241889,122.943205 994.241889,129.894022 993.879721,138.018353 C990.819386,166.076543 984.903694,193.751503 976.224027,220.615724 C967.169826,250.224399 956.214242,279.833074 943.357275,309.441749 C930.500309,339.050424 916.919006,367.936936 902.613368,396.101285 C888.398271,424.175364 874.816968,449.405927 861.86946,471.792974 C862.395488,443.944908 864.845928,416.166094 869.203363,388.653982 Z M1111.62961,388.653982 C1115.46722,360.718373 1120.81701,333.010068 1127.65555,305.650394 C1134.4462,278.569289 1142.097,253.203321 1150.60795,229.552489 C1158.21149,208.059403 1167.28705,187.112501 1177.77056,166.85973 C1185.42634,151.557874 1194.91169,137.236143 1206.01967,124.20699 C1212.20983,115.525131 1221.76677,109.827819 1232.36739,108.499949 C1234.63094,108.499949 1235.9438,111.3886 1236.30597,117.165902 C1236.66814,122.943205 1236.66814,129.894022 1236.30597,138.018353 C1233.24657,166.076692 1227.33085,193.751745 1218.65028,220.615724 C1209.59608,250.224399 1198.64049,279.833074 1185.78353,309.441749 C1172.92656,339.050424 1159.34526,367.936936 1145.03962,396.101285 C1130.82452,424.175364 1117.24322,449.405927 1104.29571,471.792974 C1104.77722,443.948055 1107.18228,416.169289 1111.4938,388.653982 L1111.62961,388.653982 Z M1449.93986,627.373924 C1446.19668,644.136334 1440.73546,660.470813 1433.6423,676.119913 C1427.76552,689.481905 1419.7881,701.823519 1410.01083,712.679405 C1403.37878,721.073434 1393.53254,726.325368 1382.84823,727.167796 C1363.61967,727.896915 1345.51415,718.14512 1335.58529,701.711557 C1330.52377,693.356416 1326.94046,684.195999 1324.99188,674.630452 C1322.67233,663.725382 1321.53403,652.603507 1321.59655,641.456098 C1322.08185,605.341373 1330.7157,569.798884 1346.85777,537.464654 C1353.71714,523.479153 1362.90102,510.751871 1374.02038,499.821918 C1382.60751,490.790868 1394.41288,485.489527 1406.88713,485.062716 C1414.91245,484.871349 1422.76527,487.401537 1429.16047,492.239209 C1435.67783,497.420746 1440.88731,504.052183 1444.37153,511.602199 C1448.62071,520.76921 1451.59091,530.473128 1453.19937,540.443576 C1455.2455,552.29432 1456.24529,564.301135 1456.18726,576.32604 C1455.98945,593.571674 1453.84827,610.740517 1449.80405,627.509329 L1449.93986,627.373924 Z" id="Shape-Copy"></path>
                </g>
            </g>
        </g>
    </g>
</svg>