<?xml version="1.0" encoding="UTF-8"?>
<svg width="300px" height="143px" viewBox="0 0 300 143" version="1.1" xmlns="http://www.w3.org/2000/svg" xmlns:xlink="http://www.w3.org/1999/xlink">
    <!-- Generator: Sketch 42 (36781) - http://www.bohemiancoding.com/sketch -->
    <title>Group 16</title>
    <desc>Created with Sketch.</desc>
    <defs></defs>
    <g id="LANDINGS-DESKTOP-HD" stroke="none" stroke-width="1" fill="none" fill-rule="evenodd" opacity="0.626107743">
        <g id="Landing-HV-V3-OBJETS" transform="translate(-127.000000, -1737.000000)" fill="#000000">
            <g id="Group-16" transform="translate(127.000000, 1737.000000)">
                <g id="Group-14">
                    <g id="Logo-HV-Angel-Copy-4">
                        <path d="M261.516473,116.66483 C259.624435,116.615246 257.745061,117.020681 256.00664,117.853459 C254.543713,118.567363 253.24972,119.649713 252.226638,121.015212 C251.254059,122.358112 250.528406,123.900948 250.091044,125.555774 C249.624732,127.242473 249.3872,128.997204 249.386298,130.761969 C249.344535,132.62318 249.612432,134.476933 250.176467,136.229662 C251.091644,139.101958 253.188136,141.311931 255.814436,142.172806 C257.254697,142.654297 258.752825,142.886807 260.256473,142.862211 C261.955886,142.924168 263.648859,142.60064 265.232407,141.911308 C266.453696,141.357169 267.569637,140.550532 268.521223,139.53405 C269.348857,138.6361 270.015607,137.571205 270.485969,136.39607 C270.901305,135.349089 271.244002,134.268238 271.511055,133.162999 C271.72732,132.289833 271.884372,131.399821 271.980885,130.500471 C272.000452,130.023088 272.079513,129.551047 272.215801,129.097888 C272.246796,128.949305 272.246796,128.794793 272.215801,128.646209 C272.521691,125.401289 271.495403,122.176045 269.422831,119.868942 C267.35026,117.561839 264.452883,116.419416 261.537829,116.759921 L261.516473,116.66483 Z" id="Shape"></path>
                        <path d="M299.124289,9.23655144 C298.93714,8.44415416 298.586096,7.71146376 298.099204,7.09701944 C297.668724,6.58831869 297.122667,6.21868123 296.518864,6.02725344 C295.871898,5.83020605 295.203471,5.73419747 294.532761,5.74198251 C293.099826,5.75145831 291.670478,5.90261203 290.261573,6.19366148 C288.764769,6.48074884 287.321322,7.04312455 285.990384,7.85774193 C284.605416,8.72725238 283.380811,9.88071341 282.38123,11.2572205 C281.194902,12.9463847 280.349916,14.900571 279.90394,16.9864118 C279.021228,20.3779662 277.996143,24.1895028 276.828685,28.4210217 C275.661226,32.6525405 274.436819,37.1772545 273.155462,41.9951636 C271.874106,46.7496791 270.578512,51.7894656 269.268681,57.114523 C267.958849,62.4395804 266.734442,67.7646379 265.595458,73.0896953 C264.442238,78.4781462 263.424271,83.8665972 262.541559,89.2550481 C262.178508,91.4183527 261.90088,93.5341121 261.601897,95.6498716 C259.722574,93.1299783 257.757827,90.6576302 255.664945,88.2803725 C252.938431,85.1682044 249.941009,82.3651341 246.716805,79.9124251 C243.518749,77.4835308 240.051616,75.5258272 236.401884,74.0881435 C232.607319,72.6095474 228.612281,71.8697018 224.592048,71.9010664 C220.029133,71.8242748 215.505199,72.8460438 211.330007,74.8964112 C207.513656,76.7985902 204.111615,79.5962784 201.356781,83.0979505 C198.57921,86.6899215 196.454172,90.8477238 195.09949,95.3408281 C193.632961,100.228564 192.911138,105.354917 192.963896,110.507733 C192.963046,112.581801 193.077161,114.653953 193.305591,116.712375 L192.088302,117.663279 C190.892369,118.550788 189.653724,119.422449 188.372368,120.278262 C187.091011,121.134075 185.845248,121.926494 184.635078,122.65552 C183.523481,123.274403 182.374615,123.806605 181.196771,124.248283 C180.269338,124.611963 179.296642,124.812475 178.313719,124.842597 C177.950668,124.842597 177.587617,124.557326 177.181854,123.986784 C176.705255,123.258086 176.324153,122.457656 176.049989,121.609526 C175.668391,120.562415 175.368304,119.480748 175.153039,118.376456 C174.907896,117.151224 174.786128,115.899406 174.789988,114.644161 L174.789988,113.62194 C174.918124,112.647265 175.088971,111.625044 175.323887,110.602823 C175.558802,109.580602 175.772361,108.605926 175.985921,107.678796 C176.19948,106.751665 176.434396,105.919625 176.690667,105.13513 C176.887367,104.476751 177.122792,103.8335 177.395413,103.209551 C179.431346,98.7878518 181.609653,94.2472895 183.930332,89.5878642 C186.251011,84.928439 188.557453,80.1739234 190.849657,75.3243176 C193.141862,70.569802 195.348643,65.7360446 197.47,60.8230452 C199.591357,55.9100458 201.456442,51.0525157 203.065257,46.250455 C204.641511,41.5358743 205.925872,36.7066678 206.909327,31.7967277 C207.844997,27.1534195 208.324761,22.410704 208.340175,17.652044 C208.343224,15.614043 208.200399,13.579011 207.913056,11.5662641 C207.66324,9.70875591 207.159078,7.90485862 206.41814,6.21743406 C205.754161,4.69683108 204.754943,3.38825483 203.513732,2.41382162 C202.113896,1.3967644 200.464379,0.889946658 198.794068,0.963694378 C195.869494,1.00923368 193.017252,1.9823509 190.57203,3.76885855 C187.641962,5.86914493 185.026082,8.46818948 182.819823,11.4711737 C180.148775,15.0599646 177.775662,18.9110511 175.72965,22.9771014 C173.392661,27.5898858 171.303237,32.352746 169.472358,37.240648 C167.512219,42.4264209 165.787333,47.7185258 164.30422,53.0969574 C162.780829,58.6121954 161.463879,64.0957367 160.35337,69.5475812 C159.242861,74.9994257 158.402861,80.3007105 157.833369,85.4514357 C157.284676,90.1817947 156.999385,94.9454075 156.979131,99.7149824 C157.018069,104.640195 157.418041,109.553655 158.175064,114.406435 C156.808284,115.523747 155.441503,116.593513 154.138791,117.568188 C152.836078,118.542864 151.704213,119.327359 150.422857,120.183172 C149.1415,121.038985 147.8815,121.799707 146.685567,122.56043 C145.57397,123.179313 144.425104,123.711514 143.24726,124.153192 C142.319827,124.516872 141.347131,124.717385 140.364208,124.747507 C140.001157,124.747507 139.638106,124.462236 139.232343,123.891694 C138.755744,123.162995 138.374642,122.362566 138.100478,121.514436 C137.718879,120.467324 137.418793,119.385658 137.203528,118.281366 C136.958385,117.056134 136.836617,115.804316 136.840477,114.549071 L136.840477,113.52685 C136.968613,112.552174 137.13946,111.529953 137.374376,110.507733 C137.609291,109.485512 137.82285,108.510836 138.03641,107.583706 C138.249969,106.656575 138.484885,105.824535 138.741156,105.04004 C138.937914,104.381684 139.173337,103.738438 139.445902,103.114461 C141.481835,98.6927615 143.660142,94.1521992 145.980821,89.4927739 C148.3015,84.8333487 150.607942,80.0788331 152.900146,75.2292273 C155.192351,70.4747117 157.399132,65.6409542 159.520489,60.7279548 C161.641846,55.8149554 163.506931,50.9574254 165.115746,46.1553647 C166.692,41.440784 167.976361,36.6115774 168.959816,31.7016374 C169.895653,27.0583603 170.375418,22.3156245 170.390664,17.5569536 C170.393712,15.5189527 170.250888,13.4839207 169.963545,11.4711737 C169.714058,9.61358162 169.209881,7.80962936 168.468629,6.12234375 C167.80465,4.60174077 166.805432,3.29316452 165.564221,2.31873131 C164.164385,1.30167408 162.514868,0.794856347 160.844557,0.868604067 C157.919983,0.914143371 155.067741,1.88726059 152.622519,3.67376824 C149.692451,5.77405462 147.076571,8.37309916 144.870312,11.3760834 C142.199264,14.9648743 139.826151,18.8159608 137.780138,22.8820111 C135.44315,27.4947955 133.353726,32.2576557 131.522847,37.1455577 C129.562574,42.3312722 127.837686,47.6233847 126.354709,53.0018671 C124.831318,58.5171051 123.514368,64.0006464 122.403859,69.4524909 C121.29335,74.9043354 120.403519,80.2452412 119.734366,85.4752083 C119.185673,90.2055673 118.900382,94.9691801 118.880129,99.7387549 C118.877261,104.113595 119.155599,108.483057 119.713011,112.813673 C118.901485,113.550623 118.068603,114.287573 117.171653,115.048295 C114.653889,117.171043 112.014382,119.108661 109.269954,120.848804 C106.542189,122.593771 103.684105,124.073171 100.727577,125.270503 C98.0431198,126.395665 95.202928,126.990976 92.3346914,127.029674 C91.5442312,127.039004 90.7555977,126.943236 89.9855376,126.744403 C89.2236307,126.551479 88.4998539,126.205037 87.8499433,125.722182 C87.1038457,125.148708 86.4412191,124.451186 85.8851965,123.653968 C85.1478091,122.607706 84.490588,121.494413 83.9204498,120.325807 C87.6538165,119.188538 91.2419704,117.526956 94.5984214,115.381111 C97.7223968,113.444622 100.596038,111.045505 103.140799,108.249338 C105.409636,105.725568 107.29887,102.811843 108.736056,99.619892 C110.040628,96.7854289 110.735192,93.6520952 110.76487,90.4674496 C110.797174,87.85743 110.346465,85.2679487 109.440802,82.8602247 C108.59952,80.658795 107.34744,78.6815928 105.76758,77.0597158 C104.157025,75.4306433 102.278873,74.163318 100.23639,73.3274211 C98.0280529,72.4240322 95.6910662,71.9730086 93.3384207,71.9961567 C90.4798407,71.9515151 87.6439585,72.5666844 85.0096029,73.8028726 C82.5322441,74.9599044 80.2445551,76.5665691 78.2397689,78.5573882 C76.1945916,80.6526649 74.419479,83.0526454 72.9648509,85.6891615 C71.4688535,88.3644947 70.2168652,91.1996038 69.2275609,94.1521992 C67.3346836,99.8776332 66.3588738,105.928349 66.3445085,112.029178 L66.3445085,114.881887 C65.9814575,115.286021 65.6184065,115.713927 65.2553554,116.094288 C64.2445075,117.171979 63.162473,118.217972 62.0092521,119.232269 C60.8890705,120.21306 59.7119331,121.110446 58.4855214,121.91857 C57.3448119,122.680815 56.1438796,123.325358 54.897723,123.844149 C53.8211492,124.310647 52.6785954,124.560186 51.523484,124.581099 C50.5534973,124.542133 49.7049151,123.843124 49.3878896,122.821928 C48.8005195,121.325486 48.5301626,119.698727 48.5977197,118.067412 C48.5811557,114.574947 48.990659,111.096149 49.8150085,107.726341 C50.6265343,104.429877 51.5306026,101.196806 52.5272133,98.0271293 C53.523824,94.8574523 54.4421295,91.6877753 55.28213,88.5180982 C56.1210265,85.3454052 56.5453764,82.0548334 56.5421306,78.7475688 C56.582959,77.3543343 56.379863,75.9655674 55.9441642,74.6586854 C55.6071429,73.7546494 55.0969717,72.9433607 54.4492482,72.2814276 C53.9102404,71.7287985 53.2686453,71.3148883 52.5699252,71.0690262 C51.9899292,70.8604278 51.3854469,70.7482802 50.776026,70.7362101 C48.332259,70.8555878 45.9725469,71.7642075 43.984836,73.3511936 C41.3801132,75.2725511 38.9484505,77.4698595 36.7238153,79.9124251 C34.3045541,82.5534484 32.0160901,85.3389518 29.8685576,88.2565999 C27.6190649,91.2994898 25.5831316,94.1521992 23.7607578,96.8147279 L22.4366893,95.7687344 L27.6475395,84.9997567 C29.6122863,80.9108734 31.6126263,76.5684158 33.6485595,71.9723841 C35.6844928,67.3763524 37.6705955,62.6218369 39.6068677,57.7088375 C41.5573771,52.8116865 43.2943272,47.977929 44.8177178,43.207565 C46.2735626,38.6918938 47.4999097,34.0885809 48.49094,29.4194699 C49.365014,25.457837 49.8307299,21.3982396 49.8790763,17.3192279 C49.8957763,15.0785417 49.716971,12.841345 49.3451778,10.6391335 C49.0519218,8.79885158 48.4113894,7.04872402 47.4658548,5.50425673 C46.5365338,4.05266142 45.2758055,2.90368543 43.8139885,2.17609584 C41.9557997,1.31484942 39.9527095,0.909438583 37.9411041,0.987466956 C33.5726943,0.922145992 29.3024981,2.4315624 25.7682165,5.29030353 C22.0025249,8.43509661 18.8493871,12.3979392 16.4997371,16.9388666 C13.6968526,22.1801808 11.4467122,27.7640538 9.79397098,33.5796711 C7.91525074,40.1611277 6.38917578,46.8609311 5.22379914,53.6437267 C4.01362903,60.6645613 3.07396753,67.7963346 2.40481464,75.0390467 C1.73566175,82.2817587 1.23023777,89.1203369 0.888542674,95.5547812 C0.532610288,102.052619 0.326169504,107.971991 0.269220322,113.312897 C0.21227114,118.653803 0.169559254,122.980412 0.141084663,126.292724 C0.141084663,128.353014 0.205152492,130.373683 0.333288152,132.354732 C0.434787742,134.144614 0.721428155,135.915489 1.18752588,137.632244 C1.54727627,139.031225 2.20685549,140.312026 3.10956077,141.364539 C4.84790243,142.992995 7.31769064,143.230821 9.28142835,141.958853 C10.0749545,141.323655 10.7435398,140.514696 11.2461751,139.581595 C11.9493386,138.283626 12.556428,136.924101 13.0614303,135.516484 C13.6878713,133.931646 14.4851598,131.998143 15.4532959,129.715975 C17.4003506,125.2347 19.5824222,120.884736 21.9882145,116.688603 C24.3943175,112.488781 26.7292339,108.701017 28.9929639,105.325311 C31.2566939,101.949605 33.2783898,99.1602889 35.0580518,96.9573633 C36.18955,95.4321295 37.4638669,94.0454879 38.8594097,92.8209348 L40.247546,93.034888 C39.919103,93.5436021 39.6331651,94.084703 39.3933082,94.6514233 C38.9519521,95.586478 38.4322908,96.7909553 37.8343244,98.2648551 C37.236358,99.7387549 36.5956797,101.41076 35.9122895,103.280869 C35.2288993,105.150978 34.609577,107.068633 34.0543224,109.033833 C33.4990679,110.999033 33.0363558,112.956308 32.6661861,114.90566 C32.3150046,116.638221 32.1288912,118.407168 32.1109316,120.183172 C32.1278913,122.723837 32.4146272,125.253362 32.9651693,127.719079 C33.5077851,130.292175 34.3779367,132.765752 35.5492385,135.064805 C36.6545563,137.224936 38.1617649,139.097224 39.9699187,140.556271 C41.8324067,142.047349 44.0834753,142.815794 46.3767017,142.743348 C48.0724493,142.727854 49.7566757,142.431409 51.3739924,141.863763 C53.1641837,141.250733 54.9127101,140.496011 56.6061984,139.605368 C58.3949554,138.669677 60.1346891,137.622008 61.8170486,136.467388 C63.5397613,135.278759 65.1414571,134.105978 66.6221358,132.949046 C68.0102721,131.855507 69.2702727,130.833287 70.4234937,129.882384 C71.0501546,131.139113 71.7641989,132.33933 72.559088,133.472043 C74.6773412,136.335994 77.3394812,138.641753 80.3540073,140.223455 C83.7734117,141.972034 87.5048153,142.833652 91.2668942,142.743348 C93.9121272,142.744006 96.5488077,142.409028 99.1258813,141.7449 C101.686277,141.089281 104.193493,140.198727 106.621817,139.082371 C108.998164,137.995492 111.303137,136.724506 113.519787,135.278759 C115.712331,133.852404 117.755382,132.402277 119.648943,130.928377 C120.844876,130.001246 121.998096,129.026571 123.151317,128.00435 C123.364877,128.622437 123.55708,129.240524 123.791996,129.811066 C125.038807,133.3204 126.855934,136.543911 129.152337,139.320097 C130.837378,141.472995 133.251557,142.747772 135.815392,142.838438 C137.450224,142.824397 139.077694,142.592954 140.663191,142.149034 C142.464013,141.654208 144.233329,141.026816 145.959465,140.271 C147.767601,139.478581 149.568619,138.583147 151.362518,137.584699 C153.156418,136.58625 154.893368,135.56403 156.573368,134.518036 C158.438454,133.313559 160.317777,132.02984 162.211337,130.666879 C163.435107,133.863191 165.147603,136.799026 167.272696,139.343869 C168.957737,141.496768 171.371915,142.771544 173.93575,142.862211 C175.570583,142.848169 177.198052,142.616727 178.783549,142.172806 C180.584371,141.67798 182.353688,141.050589 184.079823,140.294773 C185.88796,139.502353 187.688978,138.60692 189.482877,137.608471 C191.276776,136.610023 193.013726,135.587802 194.693727,134.541809 C195.78288,133.852404 196.829321,133.067909 197.982542,132.307186 L198.15339,132.61623 C199.887298,135.625569 202.208626,138.160823 204.94458,140.033274 C207.962485,142.007534 211.418736,142.996149 214.917805,142.885984 C217.523548,142.905389 220.109499,142.381279 222.541877,141.340766 C224.918681,140.314561 227.143245,138.896101 229.140863,137.13302 C231.177771,135.324605 232.981465,133.212815 234.501205,130.857059 C236.071166,128.439855 237.402901,125.841612 238.473411,123.107199 C239.551505,120.352753 240.381336,117.485991 240.9507,114.549071 C242.165981,108.65883 242.165981,102.538561 240.9507,96.6483198 C240.322847,93.5179584 239.354696,90.4844133 238.067648,87.6147403 L238.601546,86.8064726 C240.196123,87.9792531 242.096802,89.4452288 244.303583,91.2043995 C246.510364,92.9635703 248.752738,94.8178313 251.030705,96.7671827 C253.308672,98.7323825 255.444267,100.753052 257.437488,102.82919 C258.633421,104.041592 259.573082,105.206448 260.598168,106.323759 C260.563156,107.08004 260.898047,107.798337 261.473761,108.201793 C261.73041,108.356537 262.002885,108.476264 262.285287,108.558381 L262.285287,108.558381 C262.721812,108.703254 263.175207,108.775354 263.630712,108.772334 C264.860111,108.757942 266.068481,108.415551 267.154442,107.773886 C267.668317,107.468573 268.130757,107.066409 268.521223,106.585257 C268.907548,106.117498 269.153809,105.527708 269.225969,104.897404 C273.11275,94.7068926 276.672074,85.6416163 279.90394,77.7015754 C283.135806,69.7615344 285.983266,62.463353 288.446318,55.8070312 C290.923607,49.1665579 293.059201,42.9539909 294.853101,37.1693303 C296.579355,31.4983625 298.00553,25.7196414 299.124289,19.8628937 C299.394798,18.3889939 299.579883,17.0735779 299.679544,15.9166458 C299.786475,14.8509039 299.843501,13.7796888 299.850391,12.7073478 C299.756451,11.5181158 299.512,10.3496297 299.124289,9.23655144 L299.124289,9.23655144 Z M18.5926196,80.197696 L14.684482,90.3010416 C15.0831262,84.6907132 15.6597367,78.961522 16.4143134,73.1134679 C16.7275339,70.609423 17.0905849,67.9627427 17.5034665,65.1734269 C17.916348,62.3841111 18.3790601,59.5551743 18.8916028,56.6866166 C19.4041454,53.8022105 19.9807559,50.9098802 20.6214342,48.0096257 C21.2621125,45.1093713 21.9739772,42.3042071 22.7570285,39.5941332 C25.0484428,33.3315736 27.7021437,27.2409478 30.7014394,21.3605661 C32.950932,17.1765924 34.6522888,15.0846056 35.8055098,15.0846056 C36.6882221,15.0846056 37.1295783,16.954715 37.1295783,20.6949339 C36.9276657,24.5668493 36.3403415,28.4018604 35.3783909,32.1295438 C33.8262092,38.5861502 31.9365493,44.936319 29.719066,51.147606 C28.9217774,53.3663799 27.9180481,56.0606054 26.707878,59.2302824 L22.8210963,69.333628 L18.5926196,80.197696 Z M82.6604491,104.112909 C82.7524925,102.51632 82.9379709,100.928112 83.2157036,99.3583937 C83.5139473,97.7366833 83.9354643,96.1461213 84.4757043,94.6038781 C84.9842985,93.0630693 85.7047463,91.6195169 86.6112986,90.3248141 C87.5347969,89.055361 88.6834405,88.0114212 89.9855376,87.2581516 C91.4977462,86.4275143 93.1689972,86.0195386 94.8546927,86.0695227 C96.0437258,86.1564314 97.0860555,86.9852025 97.5455415,88.2090547 C98.3288099,89.8954776 98.7041712,91.7798408 98.6346946,93.6767476 C98.5434167,95.4173904 97.9604143,97.0814286 96.9689311,98.4312632 C95.807454,100.213008 94.4354282,101.812258 92.8899459,103.185779 C91.3018409,104.587033 89.5575276,105.75365 87.7004517,106.656575 C86.0656424,107.502171 84.2917605,107.963454 82.4896016,108.011612 C82.4468897,106.94977 82.4753643,105.650203 82.5750254,104.112909 L82.6604491,104.112909 Z M136.819121,69.0959022 C137.422484,64.19135 138.263713,59.3267147 139.339122,54.5233121 C140.406919,49.7687965 141.609971,45.3154003 142.948277,41.1631234 C144.143896,37.3896728 145.570985,33.7121136 147.219465,30.1564199 C148.423482,27.470054 149.914994,24.9556715 151.661502,22.6680579 C152.634875,21.1438205 154.137657,20.1435675 155.804555,19.9104388 C156.160487,19.9104388 156.366928,20.4175872 156.423877,21.4318838 C156.480826,22.4461805 156.480826,23.6665061 156.423877,25.0928608 C155.942654,30.018919 155.01244,34.8776952 153.647604,39.5941332 C152.223875,44.7924036 150.501162,49.9906739 148.479466,55.1889442 C146.45777,60.3872146 144.322176,65.4586978 142.072683,70.403394 C139.837428,75.3322418 137.701833,79.7618654 135.6659,83.692265 C135.748615,78.8030973 136.133935,73.926088 136.819121,69.0959022 Z M174.93948,69.0959022 C175.542925,64.1913651 176.384153,59.3267347 177.459481,54.5233121 C178.527278,49.7687965 179.73033,45.3154003 181.068635,41.1631234 C182.264254,37.3896728 183.691344,33.7121136 185.339824,30.1564199 C186.543659,27.4699375 188.035185,24.9555314 189.78186,22.6680579 C190.755233,21.1438205 192.258016,20.1435675 193.924913,19.9104388 C194.280845,19.9104388 194.487286,20.4175872 194.544235,21.4318838 C194.601185,22.4461805 194.601185,23.6665061 194.544235,25.0928608 C194.063159,30.0189451 193.132942,34.8777377 191.767963,39.5941332 C190.344233,44.7924036 188.621521,49.9906739 186.599825,55.1889442 C184.578129,60.3872146 182.442534,65.4586978 180.193042,70.403394 C177.957786,75.3322418 175.822192,79.7618654 173.786259,83.692265 C173.861974,78.8036498 174.240158,73.9266489 174.918124,69.0959022 L174.93948,69.0959022 Z M228.137134,111.006957 C227.548537,113.949863 226.689787,116.817638 225.574421,119.565085 C224.650326,121.910993 223.395915,124.077759 221.858487,125.983681 C220.815629,127.457385 219.267355,128.379445 217.587298,128.527347 C214.563701,128.655355 211.716695,126.943273 210.15543,124.058102 C209.35953,122.591225 208.796071,120.982969 208.489666,119.303586 C208.124929,117.389029 207.945937,115.436408 207.955768,113.479305 C208.032079,107.138795 209.389711,100.89875 211.927973,95.2219652 C213.006576,92.7665897 214.450696,90.5321142 216.199162,88.6131885 C217.549446,87.0276451 219.405784,86.096911 221.3673,86.0219776 C222.629243,85.9883802 223.864062,86.4325946 224.869675,87.2819242 C225.894498,88.1916249 226.713664,89.3558782 227.26154,90.6814028 C227.929704,92.2908162 228.396754,93.9944924 228.649677,95.7449619 C228.971421,97.8255471 229.128633,99.933533 229.119507,102.044695 C229.088402,105.072438 228.751713,108.0867 228.115778,111.030729 L228.137134,111.006957 Z" id="Shape"></path>
                    </g>
                </g>
            </g>
        </g>
    </g>
</svg>