<?xml version="1.0" encoding="UTF-8"?>
<svg width="122px" height="35px" viewBox="0 0 122 35" version="1.1" xmlns="http://www.w3.org/2000/svg" xmlns:xlink="http://www.w3.org/1999/xlink">
    <!-- Generator: Sketch 42 (36781) - http://www.bohemiancoding.com/sketch -->
    <title>Group 14</title>
    <desc>Created with Sketch.</desc>
    <defs></defs>
    <g id="LANDINGS-DESKTOP-HD" stroke="none" stroke-width="1" fill="none" fill-rule="evenodd">
        <g id="Landing-HV-V3-OBJETS" transform="translate(-177.000000, -6908.000000)">
            <g id="Group-14" transform="translate(177.000000, 6908.000000)">
                <g id="Logo-HV-Angel">
                    <path d="M57.5410712,29.1203851 C57.124769,29.1097199 56.7112531,29.1969263 56.328751,29.3760513 C56.0068655,29.5296073 55.7221502,29.7624137 55.4970429,30.0561235 C55.2830479,30.3449724 55.1233836,30.6768262 55.0271513,31.0327686 C54.9245496,31.3955664 54.8722857,31.7729974 54.8720871,32.1525867 C54.8628982,32.552921 54.9218432,32.951651 55.045947,33.3286514 C55.2473118,33.9464634 55.7085999,34.4218141 56.2864607,34.6069827 C56.603359,34.7105482 56.9329899,34.7605595 57.2638352,34.7552691 C57.6377545,34.7685956 58.0102569,34.6990069 58.3586825,34.5507361 C58.6274007,34.4315444 58.8729397,34.2580421 59.0823155,34.0394036 C59.2644187,33.8462605 59.4111227,33.6172086 59.5146158,33.3644447 C59.6060015,33.1392459 59.6814046,32.9067621 59.7401637,32.6690325 C59.7877482,32.4812203 59.8223041,32.2897845 59.8435399,32.0963401 C59.847845,31.9936583 59.8652407,31.8921254 59.8952279,31.794654 C59.9020477,31.7626948 59.9020477,31.72946 59.8952279,31.6975008 C59.9625325,30.9995398 59.7367198,30.3058112 59.2806951,29.8095684 C58.8246703,29.3133257 58.1871649,29.0675981 57.5457701,29.1408384 L57.5410712,29.1203851 Z" id="Shape" fill="#000000"></path>
                    <path d="M65.8158616,6.01327004 C65.7746835,5.8428306 65.6974438,5.68523373 65.5903137,5.5530708 C65.4955958,5.44365262 65.3754478,5.36414604 65.2425939,5.32297118 C65.100243,5.28058758 64.9531699,5.25993677 64.8055948,5.26161128 C64.4903081,5.26364946 64.175811,5.29616163 63.8658117,5.35876445 C63.5364722,5.42051505 63.2188727,5.54147836 62.9260285,5.71669719 C62.6212961,5.90372316 62.3518481,6.15182503 62.1319118,6.44790265 C61.8708859,6.81123074 61.684965,7.23156334 61.5868376,7.68021394 C61.3926157,8.40971495 61.1670678,9.22955137 60.9101937,10.1397232 C60.6533197,11.049895 60.3839152,12.0231312 60.1019802,13.0594317 C59.8200453,14.0820967 59.5349777,15.1661215 59.2467776,16.3115063 C58.9585774,17.4568911 58.6891729,18.6022758 58.4385641,19.7476606 C58.1848226,20.9066809 57.960841,22.0657012 57.7666192,23.2247215 C57.6867376,23.6900341 57.6256517,24.14512 57.5598669,24.6002059 C57.1463623,24.0581935 56.714062,23.5264077 56.2535683,23.0150752 C55.6536575,22.3456683 54.9941394,21.7427464 54.2847227,21.2151848 C53.5810593,20.6927457 52.8181914,20.2716565 52.0151464,19.9624203 C51.180234,19.644384 50.3012119,19.485248 49.4166461,19.4919944 C48.4126749,19.475477 47.4172806,19.6952528 46.4986194,20.1362733 C45.6589136,20.5454195 44.9103676,21.1471838 44.3042258,21.9003704 C43.6930811,22.6729797 43.2255122,23.5672956 42.9274435,24.5337327 C42.6047653,25.5850525 42.4459439,26.6876972 42.457552,27.7960339 C42.457365,28.2421525 42.4824736,28.6878585 42.5327346,29.1306117 L42.2648964,29.3351447 C42.0017572,29.5260422 41.7292201,29.7135308 41.4472851,29.8976105 C41.1653502,30.0816902 40.8912468,30.2521343 40.6249749,30.4089429 C40.380392,30.5420607 40.1276087,30.6565337 39.8684495,30.7515357 C39.6643879,30.8297609 39.450367,30.8728898 39.2340959,30.8793688 C39.1542143,30.8793688 39.0743327,30.8180089 38.9850533,30.6952891 C38.880188,30.5385509 38.7963347,30.3663838 38.7360108,30.1839567 C38.6520483,29.9587298 38.5860208,29.7260704 38.5386563,29.4885445 C38.4847179,29.2250051 38.4579255,28.9557474 38.4587748,28.6857525 L38.4587748,28.4658795 C38.4869683,28.2562332 38.5245596,28.0363602 38.5762477,27.8164872 C38.6279357,27.5966143 38.6749249,27.386968 38.721914,27.1875483 C38.7689032,26.9881286 38.8205913,26.8091622 38.8769783,26.6404225 C38.9202579,26.4988094 38.972058,26.3604505 39.0320425,26.2262432 C39.4800058,25.2751648 39.9592952,24.2985197 40.4699107,23.2963081 C40.9805262,22.2940964 41.4880091,21.2714314 41.9923593,20.2283131 C42.4967096,19.2056482 42.9822642,18.1659388 43.4490232,17.109185 C43.9157821,16.0524312 44.3261541,15.0076085 44.6801391,13.9747168 C45.0269599,12.9606416 45.3095559,11.9219111 45.5259439,10.8658153 C45.7318181,9.86707031 45.8373797,8.84694346 45.8407712,7.82338704 C45.8414421,7.38502645 45.8100165,6.94730447 45.7467929,6.51437587 C45.6918263,6.11483811 45.5808963,5.72683168 45.4178688,5.36387778 C45.2717747,5.0368061 45.0519182,4.75533996 44.7788163,4.5457458 C44.4708126,4.32698349 44.1078719,4.21797034 43.740356,4.23383298 C43.0968664,4.24362819 42.4692919,4.45293929 41.9312734,4.83720532 C41.2865751,5.28896308 40.711007,5.84800044 40.2255671,6.49392257 C39.6378606,7.26584785 39.1157081,8.09419119 38.6655271,8.96877181 C38.1513231,9.96095135 37.6915902,10.9854112 37.2887448,12.0367667 C36.8574584,13.1521923 36.4779343,14.2904892 36.1516072,15.4473544 C35.8164179,16.6336458 35.5266514,17.8131194 35.2823078,18.9857752 C35.0379642,20.158431 34.8531402,21.2987025 34.7278358,22.4065895 C34.6071076,23.4240586 34.5443355,24.4486803 34.5398791,25.4745845 C34.5484466,26.5339652 34.6364518,27.5908182 34.8030184,28.6346192 C34.5022878,28.8749455 34.2015572,29.1050451 33.9149233,29.3146914 C33.6282895,29.5243377 33.379247,29.6930775 33.097312,29.8771572 C32.8153771,30.0612369 32.5381411,30.2248633 32.2750018,30.3884896 C32.0304189,30.5216074 31.7776356,30.6360804 31.5184764,30.7310824 C31.3144148,30.8093076 31.1003939,30.8524365 30.8841228,30.8589155 C30.8042412,30.8589155 30.7243596,30.7975556 30.6350802,30.6748358 C30.5302149,30.5180976 30.4463616,30.3459305 30.3860377,30.1635034 C30.3020752,29.9382765 30.2360477,29.7056171 30.1886832,29.4680912 C30.1347448,29.2045518 30.1079524,28.9352941 30.1088017,28.6652992 L30.1088017,28.4454262 C30.1369952,28.2357799 30.1745865,28.0159069 30.2262746,27.7960339 C30.2779626,27.576161 30.3249518,27.3665147 30.371941,27.167095 C30.4189301,26.9676753 30.4706182,26.7887089 30.5270052,26.6199692 C30.5702976,26.4783612 30.6220973,26.3400032 30.6820694,26.2057899 C31.1300327,25.2547115 31.6093221,24.2780664 32.1199376,23.2758548 C32.6305531,22.2736431 33.138036,21.2509781 33.6423862,20.2078598 C34.1467365,19.1851949 34.6322911,18.1454855 35.0990501,17.0887317 C35.565809,16.0319779 35.976181,14.9871552 36.330166,13.9542635 C36.6769868,12.9401883 36.9595828,11.9014578 37.1759708,10.845362 C37.3818816,9.84662371 37.4874437,8.8264925 37.4907982,7.80293374 C37.491469,7.36457315 37.4600434,6.92685117 37.3968198,6.49392257 C37.3419257,6.09436675 37.2309924,5.7063485 37.0678957,5.34342448 C36.9218016,5.0163528 36.7019451,4.73488667 36.4288432,4.5252925 C36.1208395,4.30653019 35.7578988,4.19751704 35.3903829,4.21337969 C34.7468933,4.22317489 34.1193188,4.43248599 33.5813003,4.81675202 C32.936602,5.26850978 32.3610339,5.82754714 31.875594,6.47346927 C31.2878875,7.24539455 30.765735,8.07373789 30.315554,8.94831851 C29.80135,9.94049805 29.3416171,10.9649579 28.9387717,12.0163134 C28.5074558,13.1317264 28.1279312,14.270025 27.8016341,15.4269011 C27.4664448,16.6131925 27.1766783,17.7926661 26.9323347,18.9653219 C26.6879911,20.1379777 26.4922029,21.2867714 26.3449702,22.4117029 C26.2242421,23.4291719 26.16147,24.4537936 26.1570136,25.4796978 C26.1563825,26.4206971 26.2176248,27.3605396 26.3402713,28.2920265 C26.1617125,28.4505395 25.9784548,28.6090526 25.7811004,28.772679 C25.2271204,29.229268 24.6463539,29.646037 24.0425016,30.0203303 C23.4423156,30.3956612 22.8134558,30.7138703 22.1629353,30.9714087 C21.5722783,31.2134234 20.9473552,31.341471 20.3162615,31.3497947 C20.1423377,31.3518015 19.9688159,31.3312024 19.7993808,31.2884348 C19.6317395,31.2469381 19.472488,31.1724206 19.3294892,31.0685619 C19.1653265,30.9452113 19.0195297,30.795179 18.897189,30.6237026 C18.7349427,30.3986584 18.5903354,30.1591966 18.4648887,29.9078371 C19.2863357,29.663218 20.0758317,29.3058226 20.8143465,28.8442655 C21.5017101,28.4277395 22.1339931,27.9117053 22.6939128,27.3102681 C23.1931216,26.7674217 23.6088069,26.1406987 23.9250287,25.4541312 C24.2120717,24.8444568 24.3648955,24.1704974 24.3714257,23.4855011 C24.3785335,22.9241031 24.2793645,22.3671227 24.0800929,21.8492371 C23.894987,21.3757241 23.6194937,20.9504409 23.2718794,20.6015859 C22.9175115,20.2511831 22.5042647,19.9785898 22.0548603,19.7987939 C21.5689631,19.6044809 21.0547595,19.5074687 20.5371105,19.5124477 C19.9081415,19.5028455 19.2841667,19.6351644 18.7045334,19.9010604 C18.1594439,20.1499303 17.6560872,20.4955133 17.2149772,20.9237253 C16.7649799,21.3744056 16.3744046,21.8906256 16.054345,22.4577228 C15.725183,23.0331693 15.4497099,23.6429826 15.2320347,24.2780664 C14.8155478,25.5095696 14.6008419,26.8110388 14.5976811,28.1232867 L14.5976811,28.7368857 C14.5177996,28.8238122 14.437918,28.9158521 14.3580364,28.9976653 C14.1356211,29.2294693 13.8975427,29.4544556 13.6438013,29.6726242 C13.3973294,29.8835859 13.1383257,30.0766077 12.8684802,30.2504299 C12.6174916,30.4143837 12.3532523,30.5530206 12.0790624,30.6646092 C11.8421855,30.7649499 11.5907911,30.8186241 11.3366337,30.8231223 C11.123209,30.814741 10.9364967,30.6643887 10.8667421,30.4447362 C10.737504,30.1228614 10.6780177,29.7729562 10.6928822,29.4220712 C10.6892377,28.670865 10.7793401,27.9225983 10.9607204,27.1977749 C11.1392792,26.4887272 11.3382,25.793315 11.5574827,25.1115384 C11.7767654,24.4297617 11.9788188,23.7479851 12.1636428,23.0662084 C12.348224,22.3837831 12.441593,21.6760028 12.4408789,20.9646319 C12.4498623,20.6649564 12.4051754,20.3662418 12.3093092,20.0851401 C12.2351549,19.8906879 12.1229028,19.716185 11.9803851,19.5738076 C11.8617881,19.4549407 11.7206189,19.3659113 11.5668805,19.313028 C11.4392649,19.2681599 11.3062616,19.2440377 11.1721716,19.2414414 C10.6344733,19.2671188 10.1152694,19.4625569 9.67791646,19.8039072 C9.10480326,20.2171785 8.56976822,20.6898051 8.08028514,21.2151848 C7.54797878,21.7832516 7.04445152,22.382395 6.57193322,23.0099619 C6.07698077,23.6644675 5.62901748,24.2780664 5.22804334,24.8507588 L4.93671057,24.6257725 L6.08324599,22.3094364 C6.51554623,21.4299445 6.955678,20.4959105 7.40364129,19.5073343 C7.85160458,18.5187582 8.28860373,17.4960932 8.71463875,16.4393394 C9.14380638,15.3859945 9.52598485,14.3462851 9.86117417,13.3202113 C10.1815015,12.3489201 10.4513328,11.3587778 10.6693877,10.3544828 C10.8617088,9.5023617 10.9641796,8.62916905 10.9748172,7.75180049 C10.9784916,7.26984366 10.9391494,6.78863739 10.8573443,6.3149562 C10.7928196,5.91912368 10.6518843,5.54268277 10.4438397,5.21047803 C10.2393626,4.89824944 9.9619665,4.65111228 9.64032513,4.49461255 C9.2314707,4.30936412 8.79073379,4.22216292 8.34812333,4.23894631 C7.38694878,4.2248962 6.44738402,4.54956173 5.66974142,5.16445811 C4.84118202,5.84088238 4.14740192,6.69326372 3.63041203,7.66998729 C3.01369761,8.79735944 2.51860264,9.99841374 2.15495251,11.2493147 C1.74158056,12.6649427 1.40580061,14.1060262 1.14938457,15.5649609 C0.88311268,17.0750962 0.676360392,18.6090936 0.529127702,20.1669532 C0.381895011,21.7248129 0.270687341,23.195746 0.195504691,24.5797526 C0.11718943,25.9773947 0.071766579,27.2506126 0.0592361373,28.3994063 C0.0467056956,29.5481999 0.0373078643,30.4788251 0.0310426434,31.1912816 C0.0310426434,31.6344365 0.0451393904,32.0690691 0.0733328842,32.4951795 C0.0956656844,32.8801714 0.158734738,33.2610749 0.26128951,33.6303376 C0.34044484,33.9312493 0.485571052,34.2067411 0.684191918,34.4331296 C1.06667659,34.7833999 1.61010032,34.8345547 2.04217854,34.5609627 C2.21677689,34.4243359 2.3638847,34.2503341 2.47447878,34.0496302 C2.62919476,33.7704457 2.76277172,33.4780207 2.87388661,33.1752517 C3.01172147,32.8343634 3.18714765,32.4184796 3.40016516,31.9276004 C3.82857264,30.9637075 4.30869051,30.028059 4.83803335,29.1254984 C5.36744451,28.2221443 5.88119262,27.4074213 6.37927768,26.6813291 C6.87736274,25.955237 7.32219342,25.3552735 7.71376972,24.8814388 C7.96273154,24.553371 8.24311755,24.2551136 8.5501767,23.9917202 L8.85560622,24.0377402 C8.78333942,24.1471612 8.72042493,24.2635485 8.6676496,24.3854463 C8.57053867,24.5865704 8.45619839,24.8456455 8.32462875,25.1626716 C8.19305912,25.4796978 8.05209165,25.839335 7.90172635,26.2415832 C7.75136105,26.6438314 7.61509249,27.0563063 7.49292068,27.4790078 C7.37074888,27.9017093 7.26893904,28.3227064 7.18749117,28.741999 C7.11022124,29.1146616 7.06927098,29.4951505 7.06531936,29.8771572 C7.06905098,30.4236375 7.13214105,30.9677216 7.25327599,31.4980811 C7.3726669,32.0515371 7.56412504,32.5835874 7.82184478,33.0780985 C8.06504617,33.5427284 8.396675,33.9454451 8.79452032,34.2592766 C9.20432073,34.5799976 9.69961991,34.7452851 10.204195,34.7297025 C10.5773078,34.7263698 10.9478856,34.6626065 11.3037413,34.5405094 C11.6976343,34.4086508 12.0823599,34.246315 12.4549756,34.0547436 C12.8485531,33.8534827 13.231344,33.6281359 13.601511,33.3797847 C13.9805569,33.1241184 14.3329756,32.8718611 14.658767,32.6230126 C14.9641966,32.3877997 15.2414326,32.1679267 15.495174,31.9633937 C15.6330573,32.233708 15.7901673,32.4918666 15.9650656,32.7355058 C16.4311416,33.3515228 17.0168882,33.8474763 17.6801698,34.18769 C18.4325362,34.563798 19.2535512,34.7491263 20.0813157,34.7297025 C20.6633423,34.7298439 21.2434871,34.6577923 21.8105166,34.5149428 C22.3738766,34.3739235 22.9255354,34.1823712 23.459836,33.9422504 C23.9826999,33.70847 24.4898597,33.4350892 24.9775858,33.1241184 C25.4600078,32.817319 25.9095374,32.5054061 26.3261746,32.18838 C26.5893139,31.9889603 26.8430553,31.779314 27.0967967,31.559441 C27.1437859,31.6923875 27.1860761,31.8253339 27.2377642,31.9480537 C27.5120981,32.7028885 27.9119178,33.3962444 28.417192,33.9933837 C28.787949,34.456458 29.319137,34.7306539 29.8832537,34.7501558 C30.2429635,34.7471355 30.6010531,34.6973538 30.9499076,34.6018693 C31.3461397,34.4954355 31.7354397,34.3604878 32.1152387,34.1979167 C32.5130802,34.0274725 32.9093554,33.8348706 33.3040643,33.620111 C33.6987732,33.4053513 34.0809517,33.1854783 34.4505997,32.9604921 C34.8609717,32.7014169 35.2744763,32.4252974 35.6911135,32.1321334 C35.9603776,32.8196391 36.3371756,33.4511179 36.8047565,33.998497 C37.1755135,34.4615713 37.7067015,34.7357673 38.2708181,34.7552691 C38.6305279,34.7522488 38.9886175,34.7024671 39.337472,34.6069827 C39.7337041,34.5005489 40.1230042,34.3656011 40.5028031,34.20303 C40.9006446,34.0325858 41.2969198,33.8399839 41.6916287,33.6252243 C42.0863376,33.4104646 42.4685161,33.1905917 42.8381642,32.9656054 C43.0778088,32.817319 43.3080557,32.6485792 43.5617972,32.4849528 L43.5993885,32.5514261 C43.9808977,33.1987151 44.4916559,33.7440315 45.0936437,34.1467834 C45.7576688,34.5714337 46.5181423,34.7840783 47.2880373,34.7603824 C47.8613748,34.7645564 48.4303577,34.6518237 48.9655502,34.4280163 C49.4885147,34.2072864 49.9779821,33.9021849 50.4175151,33.5229578 C50.8656927,33.1339797 51.2625568,32.6797476 51.5969429,32.17304 C51.942379,31.6531154 52.2353986,31.0942503 52.4709412,30.5060961 C52.7081528,29.9136329 52.8907392,29.2970114 53.0160154,28.6652992 C53.2834118,27.3983471 53.2834118,26.0819176 53.0160154,24.8149655 C52.8778699,24.1416454 52.6648491,23.4891499 52.3816618,22.8719021 L52.4991347,22.6980491 C52.8499871,22.9503064 53.2681906,23.2656281 53.7537452,23.6440142 C54.2392998,24.0224002 54.7326859,24.4212395 55.2339036,24.8405322 C55.7351213,25.2632337 56.2050129,25.6978663 56.6435783,26.14443 C56.9067176,26.4052096 57.1134699,26.6557625 57.3390178,26.8960888 C57.3313143,27.0587599 57.4049999,27.2132608 57.5316734,27.3000414 C57.5881433,27.3333258 57.6480957,27.3590784 57.7102322,27.3767413 L57.7102322,27.3767413 C57.8062801,27.4079024 57.9060398,27.4234107 58.0062638,27.4227612 C58.2767667,27.4196655 58.5426425,27.3460194 58.7815849,27.2080016 C58.894652,27.1423307 58.9964019,27.055828 59.0823155,26.9523353 C59.1673182,26.8517234 59.2215026,26.7248634 59.2373797,26.5892893 C60.0925824,24.3973774 60.875735,22.4474961 61.5868376,20.7396456 C62.2979401,19.0317951 62.9244622,17.4620044 63.4664038,16.0302734 C64.011478,14.6019514 64.4813696,13.2656691 64.8760785,12.0214267 C65.2559036,10.8016389 65.5697027,9.5586741 65.8158616,8.29892625 C65.8753812,7.98190011 65.9161052,7.6989628 65.9380335,7.45011432 C65.9615613,7.22088027 65.9741087,6.99046896 65.9756248,6.75981547 C65.9549552,6.50401951 65.901169,6.25268584 65.8158616,6.01327004 L65.8158616,6.01327004 Z M4.09090576,21.2765447 L3.2310042,23.4497078 C3.31871729,22.2429631 3.44558801,21.0106519 3.61161636,19.7527739 C3.68053379,19.2141704 3.76041536,18.6448869 3.85126106,18.0449234 C3.94210676,17.44496 4.0439166,16.8364743 4.15669058,16.2194665 C4.26946455,15.5990497 4.39633528,14.9769285 4.53730275,14.3531029 C4.67827021,13.7292773 4.83490074,13.1259049 5.00719431,12.5429859 C5.5113707,11.1959506 6.09526047,9.88589707 6.75519093,8.62106571 C7.25014338,7.72112054 7.62449032,7.27114795 7.87823177,7.27114795 C8.07245361,7.27114795 8.16956454,7.67339617 8.16956454,8.47789262 C8.12513802,9.31071611 7.99590998,10.1356017 7.78425345,10.9374019 C7.44272927,12.3261754 7.02695029,13.6920549 6.53904081,15.0280618 C6.36361463,15.5053054 6.14276559,16.0848156 5.8764937,16.7665922 L5.02129106,18.9397553 L4.09090576,21.2765447 Z M18.1876527,26.4205496 C18.2079048,26.0771337 18.2487154,25.7355206 18.3098245,25.3978846 C18.3754466,25.0490654 18.4681923,24.706946 18.5870605,24.3752196 C18.6989657,24.0438018 18.8574848,23.7333032 19.0569521,23.4548211 C19.260148,23.1817701 19.5128823,22.9572255 19.7993808,22.7952022 C20.1321097,22.6165376 20.4998325,22.5287847 20.8707335,22.539536 C21.1323547,22.5582295 21.3616969,22.7364927 21.4627969,22.9997352 C21.6351382,23.3624737 21.7177284,23.7677878 21.7024416,24.1757999 C21.6823578,24.5502007 21.5540807,24.9081244 21.3359262,25.1984649 C21.0803681,25.5817064 20.7784834,25.9256946 20.4384333,26.2211299 C20.0890049,26.5225304 19.7052064,26.7734621 19.2965968,26.9676753 C18.9368922,27.1495575 18.5465876,27.2487764 18.1500614,27.2591348 C18.1406635,27.0307397 18.1469288,26.7512112 18.168857,26.4205496 L18.1876527,26.4205496 Z M30.1041028,18.888622 C30.2368598,17.8336852 30.4219541,16.7873342 30.6585748,15.7541539 C30.8935206,14.7314889 31.1582262,13.7735927 31.4526915,12.8804653 C31.7157618,12.068821 32.029762,11.2778022 32.3924747,10.5129959 C32.6573926,9.93517632 32.9855676,9.39434921 33.3698491,8.90229858 C33.584019,8.57444517 33.9146739,8.35929734 34.2814388,8.3091529 C34.359754,8.3091529 34.4051769,8.41823716 34.4177073,8.63640569 C34.4302378,8.85457422 34.4302378,9.11705823 34.4177073,9.42385772 C34.3118246,10.4834204 34.107151,11.5285111 33.8068483,12.5429859 C33.4935872,13.6610996 33.1145414,14.7792133 32.6697107,15.897327 C32.22488,17.0154407 31.7549885,18.1062833 31.260036,19.1698549 C30.7682162,20.2300176 30.2983246,21.1828005 29.8503613,22.0282035 C29.868561,20.9765757 29.9533424,19.9275632 30.1041028,18.888622 Z M38.4916672,18.888622 C38.6244423,17.8336884 38.8095365,16.7873385 39.0461392,15.7541539 C39.281085,14.7314889 39.5457906,13.7735927 39.840256,12.8804653 C40.1033262,12.068821 40.4173265,11.2778022 40.7800391,10.5129959 C41.0449171,9.93515125 41.3730952,9.39431908 41.7574136,8.90229858 C41.9715834,8.57444517 42.3022383,8.35929734 42.6690032,8.3091529 C42.7473184,8.3091529 42.7927413,8.41823716 42.8052717,8.63640569 C42.8178022,8.85457422 42.8178022,9.11705823 42.8052717,9.42385772 C42.6994212,10.483426 42.4947469,11.5285203 42.1944127,12.5429859 C41.8811517,13.6610996 41.5021058,14.7792133 41.0572751,15.897327 C40.6124444,17.0154407 40.1425529,18.1062833 39.6476004,19.1698549 C39.1557806,20.2300176 38.685889,21.1828005 38.2379257,22.0282035 C38.2545853,20.9766946 38.3377965,19.9276838 38.4869683,18.888622 L38.4916672,18.888622 Z M50.196666,27.9034138 C50.0671578,28.5364134 49.8782085,29.1532531 49.6327962,29.7442107 C49.4294689,30.2488002 49.1534628,30.7148571 48.8151849,31.1248084 C48.5857265,31.4417925 48.2450621,31.6401215 47.8754017,31.6719342 C47.2101241,31.6994679 46.5837019,31.3312105 46.2401791,30.7106291 C46.0650584,30.3951135 45.9410814,30.0491883 45.8736637,29.6879641 C45.793411,29.2761555 45.7540276,28.8561596 45.7561908,28.4351995 C45.7729814,27.0713976 46.071699,25.729205 46.6301891,24.5081661 C46.8675124,23.980031 47.1852599,23.49941 47.5699722,23.0866617 C47.8670732,22.7456218 48.2755203,22.545427 48.7071098,22.5293093 C48.9847732,22.5220828 49.2564684,22.6176303 49.477732,22.8003156 C49.7032222,22.9959862 49.8834621,23.2464094 50.0040105,23.531521 C50.1510256,23.8776952 50.2537899,24.2441447 50.30944,24.6206592 C50.3802329,25.0681794 50.4148241,25.5215933 50.4128162,25.9756903 C50.4059721,26.6269379 50.3318909,27.2752857 50.1919671,27.9085271 L50.196666,27.9034138 Z" id="Shape" fill="#000000"></path>
                    <path d="M108.796843,13.253738 L107.993328,13.253738 L107.993328,16.7972722 L108.646478,16.7972722 C109.266735,16.7972722 109.647347,16.5006993 109.647347,15.5803008 L109.647347,14.4451427 C109.642648,13.6167841 109.388906,13.253738 108.796843,13.253738 Z" id="Shape" fill="#4990E2"></path>
                    <path d="M95.6962662,0.306799492 C81.3081865,0.306799492 69.6501768,7.94610683 69.6501768,17.3648512 C69.6501768,21.0106519 71.4028723,24.3905596 74.3819849,27.1619817 L70.0965738,34.422903 L79.6447704,30.7924423 C84.0711489,33.0627585 89.639364,34.422903 95.6962662,34.422903 C110.079647,34.422903 121.732958,26.7887089 121.732958,17.3853045 C121.732958,7.98190011 110.079647,0.306799492 95.6962662,0.306799492 Z M83.8268053,23.1326817 L81.3222833,23.1326817 L79.6870606,11.6021341 L81.3692724,11.6021341 L82.6238829,21.0055385 L82.6520764,21.0055385 L83.9066869,11.6021341 L85.4338345,11.6021341 L83.8268053,23.1326817 Z M87.9007652,23.1326817 L86.237349,23.1326817 L86.237349,11.6072474 L87.9007652,11.6072474 L87.9007652,23.1326817 Z M93.9388718,15.488261 L92.364735,15.488261 L92.364735,14.2508364 C92.364735,13.4275911 92.031112,13.1156783 91.5001346,13.1156783 C90.9691571,13.1156783 90.6355341,13.4275911 90.6355341,14.2508364 L90.6355341,20.4788661 C90.6355341,21.3021114 90.9691571,21.5986842 91.5001346,21.5986842 C92.031112,21.5986842 92.364735,21.3021114 92.364735,20.4788661 L92.364735,18.8323755 L93.9388718,18.8323755 L93.9388718,20.3663729 C93.9388718,22.2122832 93.093067,23.2656281 91.4578443,23.2656281 C89.8226217,23.2656281 88.9768169,22.2122832 88.9768169,20.3663729 L88.9768169,14.3735562 C88.9768169,12.5276459 89.8226217,11.474301 91.4578443,11.474301 C93.093067,11.474301 93.9388718,12.5276459 93.9388718,14.3735562 L93.9388718,15.488261 Z M99.6151619,13.2486247 L97.8765631,13.2486247 L97.8765631,23.1326817 L96.2131469,23.1326817 L96.2131469,13.253738 L94.4792471,13.253738 L94.4792471,11.6072474 L99.6480543,11.6072474 L99.6151619,13.2486247 Z M105.253861,20.3663729 C105.253861,22.2122832 104.361067,23.2656281 102.725844,23.2656281 C101.090621,23.2656281 100.197827,22.2122832 100.197827,20.3663729 L100.197827,14.3735562 C100.197827,12.5276459 101.090621,11.474301 102.725844,11.474301 C104.361067,11.474301 105.253861,12.5276459 105.253861,14.3735562 L105.253861,20.3663729 Z M109.811809,23.1326817 C109.674905,22.6763022 109.623769,22.1946167 109.661444,21.7162907 L109.661444,19.9061737 C109.661444,18.8374888 109.327821,18.4386494 108.571295,18.4386494 L107.998027,18.4386494 L107.998027,23.1326817 L106.334611,23.1326817 L106.334611,11.6072474 L108.848531,11.6072474 C110.573033,11.6072474 111.315462,12.481626 111.315462,14.261063 L111.315462,15.1661215 C111.315462,16.3524129 110.967742,17.109185 110.225313,17.487571 L110.225313,17.518251 C111.057021,17.896637 111.329559,18.7556756 111.329559,19.9573069 L111.329559,21.736744 C111.299674,22.2125784 111.362112,22.6899318 111.512816,23.137795 L109.811809,23.1326817 Z" id="Shape" fill="#4990E2"></path>
                    <path d="M102.725844,13.1207916 C102.194867,13.1207916 101.861244,13.4327044 101.861244,14.2559497 L101.861244,20.4839794 C101.861244,21.3072247 102.194867,21.6191375 102.725844,21.6191375 C103.256821,21.6191375 103.590445,21.3072247 103.590445,20.4839794 L103.590445,14.261063 C103.590445,13.4378177 103.256821,13.1207916 102.725844,13.1207916 Z" id="Shape" fill="#4990E2"></path>
                </g>
            </g>
        </g>
    </g>
</svg>