<?xml version="1.0" encoding="UTF-8" standalone="no"?>
<svg width="89px" height="100px" viewBox="0 0 89 100" version="1.1" xmlns="http://www.w3.org/2000/svg" xmlns:xlink="http://www.w3.org/1999/xlink">
    <!-- Generator: Sketch 41.2 (35397) - http://www.bohemiancoding.com/sketch -->
    <title>Group 27 Copy</title>
    <desc>Created with Sketch.</desc>
    <defs>
        <path d="M41.3550151,75.3658223 C60.2546101,73.4213383 75,57.3363372 75,37.781512 C75,16.9153591 58.2106781,0 37.5,0 C16.7893219,0 0,16.9153591 0,37.781512 C0,51.6327164 7.39815563,63.7430175 18.4305038,70.320196 L42.0251731,86 L41.3550151,75.3658223 Z" id="path-1"></path>
        <filter x="-50%" y="-50%" width="200%" height="200%" filterUnits="objectBoundingBox" id="filter-2">
            <feMorphology radius="0.5" operator="dilate" in="SourceAlpha" result="shadowSpreadOuter1"></feMorphology>
            <feOffset dx="0" dy="1" in="shadowSpreadOuter1" result="shadowOffsetOuter1"></feOffset>
            <feGaussianBlur stdDeviation="3" in="shadowOffsetOuter1" result="shadowBlurOuter1"></feGaussianBlur>
            <feComposite in="shadowBlurOuter1" in2="SourceAlpha" operator="out" result="shadowBlurOuter1"></feComposite>
            <feColorMatrix values="0 0 0 0 0   0 0 0 0 0   0 0 0 0 0  0 0 0 0.228798687 0" type="matrix" in="shadowBlurOuter1"></feColorMatrix>
        </filter>
        <mask id="mask-3" maskContentUnits="userSpaceOnUse" maskUnits="objectBoundingBox" x="0" y="0" width="75" height="86" fill="white">
            <use xlink:href="#path-1"></use>
        </mask>
    </defs>
    <g id="Page-1" stroke="none" stroke-width="1" fill="none" fill-rule="evenodd">
        <g id="Product-page" transform="translate(-176.000000, -2920.000000)">
            <g id="Group-27-Copy" transform="translate(183.000000, 2926.000000)">
                <g id="Combined-Shape-Copy-14">
                    <use fill="black" fill-opacity="1" filter="url(#filter-2)" xlink:href="#path-1"></use>
                    <use stroke="#FFFFFF" mask="url(#mask-3)" stroke-width="6" fill="#3996D0" fill-rule="evenodd" xlink:href="#path-1"></use>
                </g>
                <path d="M28.72,35.88 C29.3066696,36.4666696 29.6,37.2733282 29.6,38.3 C29.6,39.2533381 29.3066696,40.0416635 28.72,40.665 C28.1333304,41.2883365 27.3266718,41.6 26.3,41.6 C25.3466619,41.6 24.5583364,41.2883365 23.935,40.665 C23.3116635,40.0416635 23,39.2533381 23,38.3 C23,37.2733282 23.3116635,36.4666696 23.935,35.88 C24.5583364,35.2933304 25.3466619,35 26.3,35 C27.3266718,35 28.1333304,35.2933304 28.72,35.88 Z" id="." fill="#FFFFFF"></path>
                <path d="M39.72,35.88 C40.3066696,36.4666696 40.6,37.2733282 40.6,38.3 C40.6,39.2533381 40.3066696,40.0416635 39.72,40.665 C39.1333304,41.2883365 38.3266718,41.6 37.3,41.6 C36.3466619,41.6 35.5583364,41.2883365 34.935,40.665 C34.3116635,40.0416635 34,39.2533381 34,38.3 C34,37.2733282 34.3116635,36.4666696 34.935,35.88 C35.5583364,35.2933304 36.3466619,35 37.3,35 C38.3266718,35 39.1333304,35.2933304 39.72,35.88 Z" id=".-copy" fill="#FFFFFF"></path>
                <path d="M51.72,35.88 C52.3066696,36.4666696 52.6,37.2733282 52.6,38.3 C52.6,39.2533381 52.3066696,40.0416635 51.72,40.665 C51.1333304,41.2883365 50.3266718,41.6 49.3,41.6 C48.3466619,41.6 47.5583364,41.2883365 46.935,40.665 C46.3116635,40.0416635 46,39.2533381 46,38.3 C46,37.2733282 46.3116635,36.4666696 46.935,35.88 C47.5583364,35.2933304 48.3466619,35 49.3,35 C50.3266718,35 51.1333304,35.2933304 51.72,35.88 Z" id=".-copy-2" fill="#FFFFFF"></path>
            </g>
        </g>
    </g>
</svg>