<?xml version="1.0" encoding="utf-8"?>
<!-- Generator: Adobe Illustrator 18.0.0, SVG Export Plug-In . SVG Version: 6.00 Build 0)  -->
<!DOCTYPE svg PUBLIC "-//W3C//DTD SVG 1.1//EN" "http://www.w3.org/Graphics/SVG/1.1/DTD/svg11.dtd">
<svg version="1.1" id="Calque_1" xmlns="http://www.w3.org/2000/svg" xmlns:xlink="http://www.w3.org/1999/xlink" x="0px" y="0px"
	 viewBox="198 0 563 560" enable-background="new 198 0 563 560" xml:space="preserve">
<title>Fichier 1IconLinkedin</title>
<g id="f9cbcd05-155a-4c50-8a83-f5dec47d3cce">
	<g id="b557fa1d-7a40-4f7d-b4b6-1f6cba4be968">
		<path fill="#007CB3" d="M718.6,0H241.4c-22.6-0.3-41.1,17.8-41.4,40.4c0,0,0,0,0,0v479.1c0.3,22.6,18.8,40.7,41.4,40.4
			c0,0,0,0,0,0h477.2c22.6,0.3,41.1-17.8,41.4-40.4c0,0,0,0,0,0V40.4C759.7,17.9,741.2-0.3,718.6,0C718.6,0,718.6,0,718.6,0z"/>
		<path fill="#FFFFFF" d="M282.9,210H366v267.2h-83.1V210z M324.4,77.8c26.6,0,48.2,21.6,48.2,48.2c0,26.6-21.6,48.2-48.2,48.2
			c-26.6,0-48.2-21.6-48.2-48.2S297.8,77.8,324.4,77.8L324.4,77.8"/>
		<path fill="#FFFFFF" d="M417.8,210h79.6v36.6h1.1c16.3-27.7,46.4-44.3,78.6-43.1c84.2,0,99.7,55.4,99.7,127.2v146.5h-82.6v-130
			c0-31.1,0-70.9-43.1-70.9s-49.8,33.8-49.8,68.6v132.2h-83.5V210z"/>
	</g>
</g>
</svg>
