<?xml version="1.0" encoding="UTF-8" standalone="no"?>
<svg width="278px" height="73px" viewBox="0 0 278 73" version="1.1" xmlns="http://www.w3.org/2000/svg" xmlns:xlink="http://www.w3.org/1999/xlink">
    <!-- Generator: Sketch 41.2 (35397) - http://www.bohemiancoding.com/sketch -->
    <title>Logo HV Angel</title>
    <desc>Created with Sketch.</desc>
    <defs></defs>
    <g id="Page-1" stroke="none" stroke-width="1" fill="none" fill-rule="evenodd">
        <g id="LANDING-HV" transform="translate(-583.000000, -75.000000)" fill="#3996D0">
            <g id="Group-29" transform="translate(-647.000000, 75.000000)">
                <g id="Logo-HV-Angel" transform="translate(1230.000000, 0.000000)">
                    <path d="M131.118179,60.4475803 C130.169556,60.4254417 129.227282,60.6064632 128.355678,60.9782878 C127.622202,61.2970365 126.973424,61.7802919 126.460475,62.3899696 C125.972847,62.9895569 125.609022,63.6784133 125.389738,64.4172721 C125.155941,65.1703614 125.036848,65.9538261 125.036395,66.7417708 C125.015456,67.5727776 125.149774,68.4004544 125.432568,69.1830252 C125.891415,70.4654683 126.942547,71.4521928 128.259312,71.8365625 C128.981425,72.0515421 129.732551,72.1553547 130.486444,72.1443728 C131.33849,72.1720358 132.187307,72.0275848 132.98126,71.7198069 C133.593585,71.4723909 134.153092,71.1122378 134.630194,70.6583919 C135.045151,70.2574689 135.379443,69.782007 135.615272,69.2573242 C135.823512,68.7898606 135.995332,68.3072748 136.129226,67.8137999 C136.237656,67.4239426 136.316398,67.0265636 136.364788,66.6250152 C136.374598,66.41187 136.414237,66.2011098 136.482569,65.9987804 C136.498109,65.93244 136.498109,65.8634519 136.482569,65.7971115 C136.635935,64.3482965 136.121378,62.9082668 135.08224,61.8781749 C134.043101,60.8480831 132.590425,60.3380059 131.128886,60.4900369 L131.118179,60.4475803 Z" id="Shape"></path>
                    <path d="M149.973849,12.4822396 C149.880017,12.1284444 149.704011,11.8013076 149.459895,11.5269661 C149.244063,11.2998378 148.970283,11.1347995 148.66755,11.0493294 C148.343177,10.9613503 148.008043,10.9184837 147.671765,10.9219596 C146.953325,10.9261905 146.236684,10.9936786 145.530292,11.1236285 C144.77983,11.2518093 144.05612,11.5029028 143.388819,11.8666189 C142.694429,12.2548441 142.080441,12.7698496 141.579274,13.3844423 C140.984478,14.1386323 140.560822,15.0111513 140.33722,15.9424523 C139.894649,17.4567376 139.380695,19.1585395 138.795359,21.0478581 C138.210023,22.9371766 137.596135,24.9574031 136.953693,27.1085373 C136.311251,29.2313672 135.661671,31.4815668 135.004952,33.8591363 C134.348234,36.2367057 133.734345,38.6142752 133.163285,40.9918446 C132.585088,43.3977185 132.074703,45.8035923 131.632132,48.2094661 C131.450107,49.1753537 131.310911,50.120013 131.161008,51.0646723 C130.21876,49.9395725 129.233682,48.835701 128.184361,47.774286 C126.817351,46.3847431 125.314514,45.1332084 123.697975,44.0381055 C122.094545,42.9536355 120.356207,42.0795461 118.526317,41.4376389 C116.623812,40.7774648 114.620794,40.4471333 112.605144,40.4611372 C110.317407,40.4268507 108.049213,40.8830574 105.955871,41.79852 C104.042442,42.6478184 102.336739,43.8969501 100.955531,45.4604015 C99.5629224,47.0641702 98.4974785,48.9205753 97.818273,50.9266884 C97.0829899,53.1089995 96.7210852,55.3978498 96.7475365,57.6985156 C96.7471104,58.6245606 96.804325,59.5497494 96.9188543,60.4688086 L96.3085345,60.8933746 C95.7089221,61.2896361 95.0878949,61.6788216 94.445453,62.060931 C93.8030111,62.4430404 93.1784148,62.7968453 92.5716641,63.1223459 C92.0143358,63.3986694 91.4383214,63.6362904 90.8477783,63.8334939 C90.3827855,63.9958724 89.8950985,64.0853986 89.402284,64.0988477 C89.2202588,64.0988477 89.0382336,63.9714779 88.8347936,63.7167383 C88.5958383,63.3913838 88.4047627,63.0340024 88.2673033,62.6553234 C88.075979,62.1878014 87.9255228,61.7048512 87.817594,61.211799 C87.6946851,60.6647487 87.6336336,60.1058284 87.6355687,59.5453776 L87.6355687,59.0889692 C87.6998129,58.6537891 87.7854719,58.1973806 87.9032529,57.7409722 C88.0210339,57.2845638 88.1281075,56.8493837 88.2351812,56.4354319 C88.3422548,56.02148 88.4600359,55.6499848 88.5885242,55.2997179 C88.6871451,55.0057599 88.8051814,54.7185568 88.9418673,54.4399718 C89.9626361,52.46574 91.0547874,50.4384375 92.218321,48.3580642 C93.3818547,46.277691 94.5382501,44.1548611 95.6875073,41.9895747 C96.8367645,39.8667448 97.9431923,37.7085344 99.0067905,35.5149436 C100.070389,33.3213527 101.005499,31.1525282 101.81212,29.0084701 C102.602417,26.9034706 103.246365,24.7472922 103.739446,22.5550673 C104.208569,20.48189 104.449111,18.3643288 104.456839,16.2396484 C104.458368,15.3297073 104.386759,14.4210917 104.242692,13.5224262 C104.11744,12.6930728 103.864665,11.8876559 103.493177,11.1342426 C103.160273,10.455313 102.659289,9.87105059 102.036975,9.43597873 C101.33513,8.9818758 100.508102,8.75558822 99.6706472,8.78851562 C98.2043348,8.80884834 96.7742881,9.24333262 95.5483116,10.0409852 C94.0792449,10.978736 92.7677045,12.1391759 91.661538,13.4799696 C90.322338,15.0823184 89.1325151,16.8017789 88.1066928,18.6172179 C86.9349822,20.6767666 85.8873941,22.8033223 84.9694348,24.9857075 C83.9866676,27.3010881 83.1218504,29.6639447 82.3782525,32.0653451 C81.6144604,34.5278277 80.9541729,36.9761581 80.3973899,39.4103364 C79.8406069,41.8445146 79.4194505,44.2114699 79.1339208,46.5112023 C78.8588189,48.6232465 78.7157809,50.7501382 78.7056262,52.8796918 C78.7251488,55.0787357 78.9256853,57.2725323 79.3052387,59.4392361 C78.6199673,59.9381011 77.9346959,60.4157378 77.2815466,60.850918 C76.6283974,61.2860981 76.060907,61.636365 75.4184651,62.0184744 C74.7760232,62.4005838 74.1442887,62.7402365 73.5446762,63.0798893 C72.9873479,63.3562128 72.4113336,63.5938338 71.8207904,63.7910373 C71.3557976,63.9534158 70.8681106,64.042942 70.3752961,64.0563911 C70.1932709,64.0563911 70.0112457,63.9290213 69.8078058,63.6742817 C69.5688504,63.3489272 69.3777748,62.9915458 69.2403154,62.6128668 C69.0489911,62.1453448 68.8985349,61.6623946 68.7906061,61.1693424 C68.6676973,60.6222921 68.6066457,60.0633718 68.6085809,59.502921 L68.6085809,59.0465126 C68.6728251,58.6113325 68.758484,58.154924 68.876265,57.6985156 C68.994046,57.2421072 69.1011197,56.8069271 69.2081933,56.3929753 C69.315267,55.9790234 69.433048,55.6075282 69.5615364,55.2572613 C69.6601863,54.9633139 69.7782218,54.6761127 69.9148794,54.3975152 C70.9356482,52.4232834 72.0277995,50.3959809 73.1913332,48.3156076 C74.3548668,46.2352344 75.5112623,44.1124045 76.6605195,41.9471181 C77.8097767,39.8242882 78.9162044,37.6660778 79.9798027,35.472487 C81.0434009,33.2788961 81.9785108,31.1100716 82.7851323,28.9660135 C83.5754288,26.861014 84.2193772,24.7048356 84.7124581,22.5126107 C85.1816646,20.4394473 85.4222078,18.321877 85.4298515,16.1971918 C85.4313801,15.2872507 85.3597711,14.3786352 85.2157042,13.4799696 C85.0906175,12.6505787 84.8378351,11.8451373 84.4661887,11.091786 C84.1332856,10.4128564 83.6323011,9.82859399 83.009987,9.39352214 C82.3081424,8.9394192 81.4811137,8.71313162 80.6436593,8.74605903 C79.1773469,8.76639174 77.7473003,9.20087603 76.5213237,9.99852865 C75.0522571,10.9362794 73.7407167,12.0967193 72.6345502,13.437513 C71.2953502,15.0398618 70.1055272,16.7593223 69.0797049,18.5747613 C67.9079943,20.63431 66.8604062,22.7608657 65.9424469,24.9432509 C64.9596125,27.2586055 64.0947941,29.6214654 63.3512646,32.0228885 C62.5874725,34.4853711 61.927185,36.9337015 61.370402,39.3678798 C60.813619,41.802058 60.3674788,44.1867036 60.0319814,46.5218164 C59.7568795,48.6338607 59.6138415,50.7607523 59.6036868,52.890306 C59.6022487,54.8436157 59.7418008,56.7945242 60.021274,58.7280881 C59.6143941,59.0571267 59.1968069,59.3861654 58.7470976,59.7258181 C57.4847498,60.6735975 56.1613638,61.5387193 54.7853725,62.3156706 C53.4177355,63.094776 51.9847598,63.7553087 50.5024264,64.2899023 C49.156503,64.7922723 47.7324979,65.0580712 46.2944319,65.0753494 C45.8981138,65.079515 45.5027116,65.0367557 45.1166217,64.9479796 C44.7346196,64.8618413 44.371735,64.7071594 44.0458852,64.4915712 C43.6718095,64.2355223 43.3395842,63.9240878 43.0608076,63.5681402 C42.691099,63.1009975 42.3615838,62.6039268 42.07573,62.0821593 C43.9475519,61.5743833 45.7465674,60.8325082 47.4294126,59.8744162 C48.9957,59.0097989 50.436476,57.9386242 51.7123587,56.6901714 C52.8499001,55.5633406 53.7971173,54.2624 54.5176883,52.8372352 C55.17177,51.571684 55.5200078,50.1726909 55.534888,48.7507878 C55.5510845,47.5854477 55.3251093,46.4292777 54.8710314,45.35426 C54.4492327,44.37135 53.8214692,43.4885547 53.0293646,42.7644076 C52.2218706,42.0370477 51.2802096,41.4712033 50.256157,41.0979861 C49.1489488,40.6946346 47.9772389,40.4932584 46.797678,40.5035937 C45.3644536,40.4836618 43.9426093,40.758327 42.6218056,41.3102691 C41.3797165,41.8268689 40.2327233,42.5442239 39.2275709,43.433099 C38.2021673,44.368613 37.3121678,45.4401733 36.5828517,46.6173437 C35.832794,47.8118455 35.2050766,49.0776851 34.7090628,50.3959809 C33.7600189,52.9523134 33.2707709,55.6538801 33.2635685,58.3778212 L33.2635685,59.6515191 C33.0815433,59.8319596 32.8995181,60.0230143 32.7174929,60.1928407 C32.2106776,60.6740155 31.6681711,61.141038 31.0899734,61.5939084 C30.5283408,62.0318191 29.9381519,62.4324903 29.3232581,62.7933073 C28.7513333,63.1336398 28.1492142,63.4214198 27.5244208,63.6530534 C26.9846521,63.8613388 26.4118027,63.9727548 25.8326571,63.982092 C25.3463287,63.9646944 24.9208696,63.6525956 24.7619206,63.196645 C24.467427,62.5285028 24.3318765,61.8021759 24.365748,61.0738151 C24.3574432,59.5144745 24.5627585,57.9612358 24.9760679,56.4566602 C25.3829477,54.9848315 25.8362262,53.5413071 26.3359032,52.1260872 C26.8355803,50.7108673 27.295997,49.2956474 27.7171533,47.8804275 C28.1377563,46.463861 28.3505152,44.9946631 28.3488879,43.5180122 C28.3693583,42.8959509 28.2675307,42.2758844 28.0490817,41.6923785 C27.8801072,41.2887381 27.6243194,40.9265081 27.2995661,40.6309635 C27.0293204,40.3842218 26.7076397,40.1994162 26.357318,40.0896419 C26.0665217,39.9965054 25.7634486,39.946433 25.4578993,39.9410438 C24.2326523,39.9943445 23.0495484,40.4000314 22.0529572,41.1086003 C20.7470107,41.9664616 19.5278325,42.9475314 18.412453,44.0381055 C17.1994926,45.2172883 16.0521108,46.4609797 14.9753888,47.7636719 C13.8475463,49.122283 12.8267775,50.3959809 11.9130824,51.5847656 L11.2492257,51.1177431 L13.8618228,46.3095334 C14.8469004,44.4838997 15.8498236,42.5450485 16.8705924,40.4929796 C17.8913613,38.4409107 18.8871462,36.3180809 19.8579473,34.12449 C20.8358867,31.9379753 21.7067524,29.7797649 22.4705444,27.6498589 C23.2004706,25.63367 23.815332,23.5783501 24.3122112,21.4936523 C24.7504513,19.7248344 24.9839502,17.9122765 25.00819,16.0910503 C25.0165629,15.0906129 24.9269142,14.0917334 24.7405058,13.1084744 C24.5934742,12.2868122 24.2723264,11.5054029 23.7982577,10.8158181 C23.3323181,10.1676996 22.7002188,9.65469661 21.9672983,9.32983724 C21.0356463,8.94530182 20.0313442,8.76429111 19.0227728,8.79912977 C16.8325554,8.76996481 14.69158,9.44389976 12.9195747,10.7202908 C11.0315459,12.1244003 9.45063716,13.8937584 8.27257822,15.921224 C6.86727815,18.2614031 5.73911093,20.7545304 4.91046556,23.3511285 C3.96851964,26.289664 3.20338173,29.2810398 2.61908942,32.3094705 C2.01233873,35.4441826 1.54121466,38.6284274 1.20571722,41.8622049 C0.87021978,45.0959823 0.616812138,48.1493193 0.445494296,51.0222157 C0.26703821,53.9234165 0.16353368,56.5663397 0.134980706,58.9509852 C0.106427733,61.3356308 0.0850130023,63.267406 0.0707365154,64.7463108 C0.0707365154,65.6662037 0.102858611,66.5684064 0.167102802,67.4529188 C0.217992297,68.2520781 0.361707025,69.042751 0.595397408,69.80926 C0.77576775,70.4338871 1.10646518,71.0057482 1.55906027,71.4756814 C2.4306237,72.2027663 3.66891713,72.3089526 4.6534888,71.7410352 C5.05134405,71.4574276 5.38655694,71.0962378 5.6385664,70.6796202 C5.99111593,70.1000939 6.29549622,69.4930833 6.54869243,68.8646007 C6.86277514,68.1569907 7.26251678,67.2937066 7.74791733,66.2747483 C8.72412454,64.2739163 9.81816363,62.3317137 11.0243711,60.4581944 C12.2307342,58.5830281 13.4014061,56.8918403 14.5363868,55.3846311 C15.6713675,53.8774219 16.6849981,52.6320284 17.5772785,51.6484505 C18.144585,50.9674533 18.7834974,50.3483357 19.4831895,49.8015885 L20.1791683,49.8971159 C20.0144947,50.1242502 19.8711322,50.3658447 19.7508737,50.618878 C19.5295881,51.0363679 19.2690422,51.5741515 18.969236,52.2322287 C18.6694298,52.890306 18.3482088,53.6368345 18.0055731,54.4718142 C17.6629375,55.306794 17.3524239,56.163002 17.0740324,57.0404384 C16.7956409,57.9178747 16.563648,58.791773 16.3780536,59.6621332 C16.2019795,60.4356996 16.1086667,61.2255117 16.0996622,62.0184744 C16.1081653,63.1528487 16.251928,64.2822487 16.5279568,65.3831597 C16.8000115,66.5320138 17.2362849,67.6364343 17.8235479,68.6629319 C18.3777282,69.6274024 19.133407,70.4633546 20.0399725,71.1148003 C20.97378,71.7805474 22.1024126,72.1236482 23.2521821,72.0913021 C24.1023898,72.0843843 24.9468212,71.9520255 25.7577055,71.6985786 C26.6552651,71.4248687 27.5319349,71.0878949 28.38101,70.6902344 C29.2778504,70.2724607 30.1501118,69.8046897 30.9936071,69.2891667 C31.8573345,68.7584592 32.6603869,68.2348278 33.4027642,67.7182726 C34.098743,67.2300217 34.7304775,66.7736133 35.3086752,66.3490473 C35.6228682,66.9101609 35.9808731,67.4460421 36.3794118,67.9517839 C37.4414538,69.230501 38.7761879,70.2599926 40.2876,70.9662023 C42.0020086,71.7469205 43.8728462,72.1316218 45.7590636,72.0913021 C47.0853209,72.0915958 48.4072902,71.9420324 49.699374,71.6455078 C50.9830958,71.3527824 52.2401545,70.9551616 53.4576592,70.4567231 C54.6491031,69.9714457 55.8047623,69.4039667 56.9161381,68.7584592 C58.0154276,68.1216102 59.0397655,67.4741471 59.9891519,66.8160699 C60.5887644,66.4021181 61.1669621,65.9669379 61.7451598,65.5105295 C61.8522335,65.7864974 61.9485997,66.0624653 62.0663808,66.3172049 C62.6915023,67.8840775 63.6025669,69.3233333 64.7539294,70.5628646 C65.5987691,71.524106 66.8091811,72.0932772 68.0946273,72.1337587 C68.9142938,72.1274892 69.7302685,72.0241533 70.5251992,71.8259484 C71.4280887,71.605015 72.3151824,71.3248928 73.1806258,70.9874306 C74.0871827,70.6336256 74.9901705,70.233826 75.8895892,69.7880317 C76.7890078,69.3422374 77.6598735,68.885829 78.5021863,68.4188064 C79.4372962,67.8810229 80.3795443,67.3078588 81.3289307,66.6993142 C81.9424999,68.1264263 82.801105,69.4372389 83.8665762,70.5734787 C84.7114159,71.5347201 85.9218279,72.1038913 87.2072741,72.1443728 C88.0269406,72.1381033 88.8429153,72.0347674 89.637846,71.8365625 C90.5407355,71.6156291 91.4278292,71.335507 92.2932726,70.9980447 C93.1998295,70.6442397 94.1028173,70.2444401 95.002236,69.7986458 C95.9016546,69.3528516 96.7725203,68.8964431 97.6148331,68.4294206 C98.1609087,68.1216102 98.6855696,67.7713433 99.2637673,67.4316905 L99.3494262,67.5696745 C100.218767,68.9133056 101.382626,70.0452637 102.754368,70.8812891 C104.267475,71.7627707 106.000357,72.2041744 107.754708,72.154987 C109.061166,72.1636514 110.3577,71.9296427 111.577237,71.4650673 C112.768911,71.0068801 113.884254,70.3735558 114.885813,69.5863628 C115.90707,68.778929 116.8114,67.8360422 117.573362,66.7842274 C118.360503,65.7049771 119.028203,64.5448949 119.564932,63.3240148 C120.105463,62.09419 120.52152,60.814218 120.806986,59.502921 C121.416299,56.8730043 121.416299,54.1403833 120.806986,51.5104666 C120.492195,50.1128006 120.006787,48.7583618 119.361492,47.4770898 L119.629176,47.1162088 C120.428659,47.6398401 121.381615,48.2943793 122.488042,49.0798264 C123.59447,49.8652734 124.718743,50.6931771 125.860862,51.5635373 C127.002981,52.4409737 128.073718,53.3431764 129.073072,54.2701454 C129.672684,54.811467 130.143808,55.3315603 130.657762,55.8304253 C130.640208,56.1680952 130.808114,56.4888055 131.096764,56.6689431 C131.225441,56.7380343 131.362054,56.7914909 131.503644,56.8281554 L131.503644,56.8281554 C131.722507,56.8928391 131.949828,56.9250309 132.178208,56.9236827 C132.7946,56.9172567 133.400448,56.7643834 133.944923,56.4778885 C134.202568,56.3415699 134.434424,56.1620092 134.630194,55.947181 C134.823889,55.7383326 134.947358,55.4749988 134.983537,55.1935764 C136.932278,50.6436444 138.716839,46.5961155 140.33722,43.0509896 C141.957601,39.5058637 143.38525,36.2473199 144.620166,33.2753581 C145.86222,30.3104724 146.932957,27.5366413 147.832376,24.953865 C148.697879,22.4218511 149.412929,19.8417266 149.973849,17.2267643 C150.109475,16.5686871 150.202272,15.9813708 150.25224,15.4648155 C150.305853,14.9889755 150.334444,14.5106918 150.337899,14.0319054 C150.2908,13.5009287 150.168237,12.9792147 149.973849,12.4822396 L149.973849,12.4822396 Z M9.32190001,44.1654753 L7.36245219,48.6764887 C7.562323,46.1715495 7.85142186,43.6135395 8.22974876,41.0024588 C8.38679012,39.884435 8.56881533,38.7027264 8.77582439,37.4573329 C8.98283345,36.2119394 9.21482636,34.9488556 9.47180312,33.6680816 C9.72877988,32.3802315 10.0178787,31.0888433 10.3390997,29.7939171 C10.6603207,28.4989909 11.0172328,27.2465213 11.4098362,26.0365082 C12.5586972,23.2403562 13.8892001,20.5209703 15.3929761,17.8954557 C16.5208185,16.0273655 17.3738386,15.0933203 17.9520363,15.0933203 C18.3946074,15.0933203 18.615893,15.9283001 18.615893,17.5982595 C18.5146588,19.3270198 18.2201883,21.0393028 17.737889,22.7036654 C16.9596618,25.5864568 16.012231,28.4217253 14.9004373,31.1949848 C14.5006956,32.1856387 13.9974495,33.3885757 13.3906988,34.8037956 L11.4419583,39.314809 L9.32190001,44.1654753 Z M41.4439955,54.8433095 C41.4901438,54.130453 41.5831383,53.4213384 41.722387,52.7204796 C41.8719193,51.9964068 42.0832579,51.2862414 42.3541215,50.5976497 C42.6091186,49.9096985 42.9703341,49.2651709 43.424858,48.6871029 C43.8878782,48.1203084 44.463781,47.6542027 45.1166217,47.3178776 C45.8748073,46.9470088 46.7127331,46.7648529 47.557901,46.7871701 C48.1540541,46.8259738 48.6766535,47.1960093 48.907029,47.7424436 C49.2997412,48.4954096 49.4879385,49.3367535 49.4531046,50.1836979 C49.40734,50.9608725 49.1150364,51.703844 48.6179301,52.3065278 C48.035593,53.1020537 47.3476917,53.8160983 46.5728234,54.4293576 C45.776585,55.0549994 44.9020276,55.5758792 43.9709336,55.9790234 C43.1512789,56.3565713 42.2618964,56.5625281 41.3583365,56.5840299 C41.3369218,56.1099313 41.3511983,55.5296911 41.401166,54.8433095 L41.4439955,54.8433095 Z M68.5978735,39.2086675 C68.9003854,37.0188482 69.3221578,34.8468513 69.8613426,32.702194 C70.3967108,30.5793641 70.9998924,28.5909802 71.6708873,26.7370421 C72.2703424,25.0522451 72.9858512,23.4102623 73.8123603,21.822691 C74.4160259,20.6232633 75.1638345,19.5006239 76.0394923,18.4792339 C76.5275186,17.7986816 77.2809782,17.3520816 78.1167211,17.2479926 C78.2951772,17.2479926 78.3986817,17.4744278 78.4272347,17.9272982 C78.4557877,18.3801685 78.4557877,18.9250282 78.4272347,19.5618772 C78.185961,21.7612986 77.7195736,23.9306795 77.0352772,26.0365082 C76.3214529,28.3574689 75.4577254,30.6784295 74.4440949,32.9993902 C73.4304643,35.3203508 72.3597278,37.5847027 71.2318853,39.7924457 C70.1111811,41.9931127 69.0404446,43.9708825 68.0196758,45.7257552 C68.0611473,43.5428049 68.2543376,41.3652832 68.5978735,39.2086675 Z M87.7105203,39.2086675 C88.0130734,37.018855 88.4348454,34.8468603 88.9739894,32.702194 C89.5093576,30.5793641 90.1125392,28.5909802 90.7835341,26.7370421 C91.3829892,25.0522451 92.098498,23.4102623 92.9250071,21.822691 C93.5285816,20.6232112 94.2763972,19.5005614 95.1521391,18.4792339 C95.6401654,17.7986816 96.393625,17.3520816 97.2293679,17.2479926 C97.407824,17.2479926 97.5113285,17.4744278 97.5398815,17.9272982 C97.5684345,18.3801685 97.5684345,18.9250282 97.5398815,19.5618772 C97.298681,21.7613103 96.8322921,23.9306985 96.147924,26.0365082 C95.4340997,28.3574689 94.5703722,30.6784295 93.5567417,32.9993902 C92.5431111,35.3203508 91.4723746,37.5847027 90.3445321,39.7924457 C89.2238279,41.9931127 88.1530914,43.9708825 87.1323226,45.7257552 C87.1702845,43.5430516 87.3598969,41.3655336 87.6998129,39.2086675 L87.7105203,39.2086675 Z M114.382567,57.9214128 C114.087458,59.2353823 113.656901,60.5158071 113.097683,61.7425065 C112.634364,62.7899245 112.005432,63.7573572 111.234602,64.6083268 C110.711737,65.2663168 109.935469,65.6780047 109.093129,65.7440408 C107.577168,65.8011948 106.149747,65.0367725 105.366965,63.7485807 C104.96792,63.0936391 104.685415,62.3755736 104.531791,61.6257509 C104.34892,60.7709258 104.259178,59.8991058 104.264107,59.0252843 C104.302368,56.1943283 104.983052,53.4082286 106.255677,50.8736176 C106.796463,49.7773241 107.52051,48.7796597 108.39715,47.9228841 C109.07415,47.2149594 110.004874,46.7993987 110.988332,46.7659418 C111.621041,46.750941 112.240149,46.949277 112.74434,47.3284918 C113.258162,47.7346614 113.668873,48.2544855 113.943565,48.8463151 C114.278566,49.5648974 114.512734,50.3255668 114.639544,51.1071289 C114.800859,52.0360834 114.879681,52.9772719 114.875106,53.9198785 C114.85951,55.2717268 114.690702,56.6175557 114.37186,57.9320269 L114.382567,57.9214128 Z" id="Shape"></path>
                    <path d="M247.914118,27.511875 L246.083158,27.511875 L246.083158,34.8674805 L247.571482,34.8674805 C248.984854,34.8674805 249.852151,34.2518598 249.852151,32.3413129 L249.852151,29.9849718 C249.841443,28.2654796 249.263246,27.511875 247.914118,27.511875 Z" id="Shape"></path>
                    <path d="M218.061984,0.636848958 C185.276032,0.636848958 158.711059,16.494388 158.711059,36.045651 C158.711059,43.6135395 162.704906,50.6294922 169.493375,56.3823611 L159.728258,71.4544531 L181.485624,63.9184071 C191.571962,68.6310894 204.26019,71.4544531 218.061984,71.4544531 C250.837228,71.4544531 277.391494,55.6075282 277.391494,36.0881076 C277.391494,16.5686871 250.837228,0.636848958 218.061984,0.636848958 Z M191.015179,48.0184115 L185.308154,48.0184115 L181.581991,24.0835048 L185.415227,24.0835048 L188.274094,43.6029253 L188.338338,43.6029253 L191.197205,24.0835048 L194.677098,24.0835048 L191.015179,48.0184115 Z M200.298465,48.0184115 L196.508058,48.0184115 L196.508058,24.0941189 L200.298465,24.0941189 L200.298465,48.0184115 Z M214.057429,32.1502582 L210.470462,32.1502582 L210.470462,29.5816341 C210.470462,27.8727561 209.710239,27.225293 208.500307,27.225293 C207.290374,27.225293 206.530151,27.8727561 206.530151,29.5816341 L206.530151,42.509668 C206.530151,44.218546 207.290374,44.8341667 208.500307,44.8341667 C209.710239,44.8341667 210.470462,44.218546 210.470462,42.509668 L210.470462,39.0919119 L214.057429,39.0919119 L214.057429,42.2761567 C214.057429,46.1078646 212.130103,48.2943793 208.40394,48.2943793 C204.677777,48.2943793 202.750452,46.1078646 202.750452,42.2761567 L202.750452,29.8363737 C202.750452,26.0046658 204.677777,23.818151 208.40394,23.818151 C212.130103,23.818151 214.057429,26.0046658 214.057429,29.8363737 L214.057429,32.1502582 Z M226.991926,27.5012609 L223.030201,27.5012609 L223.030201,48.0184115 L219.239794,48.0184115 L219.239794,27.511875 L215.288776,27.511875 L215.288776,24.0941189 L227.066878,24.0941189 L226.991926,27.5012609 Z M239.840764,42.2761567 C239.840764,46.1078646 237.806365,48.2943793 234.080202,48.2943793 C230.354039,48.2943793 228.31964,46.1078646 228.31964,42.2761567 L228.31964,29.8363737 C228.31964,26.0046658 230.354039,23.818151 234.080202,23.818151 C237.806365,23.818151 239.840764,26.0046658 239.840764,29.8363737 L239.840764,42.2761567 Z M250.226909,48.0184115 C249.914948,47.071067 249.798425,46.0711927 249.884273,45.0782921 L249.884273,41.3208832 C249.884273,39.102526 249.12405,38.2746224 247.400164,38.2746224 L246.093866,38.2746224 L246.093866,48.0184115 L242.303458,48.0184115 L242.303458,24.0941189 L248.031899,24.0941189 C251.961502,24.0941189 253.653265,25.9091385 253.653265,29.6028624 L253.653265,31.4815668 C253.653265,33.9440495 252.86092,35.5149436 251.169157,36.3003906 L251.169157,36.3640755 C253.06436,37.1495226 253.685388,38.9326997 253.685388,41.4270247 L253.685388,45.1207487 C253.61729,46.1084773 253.759567,47.0993591 254.102975,48.0290256 L250.226909,48.0184115 Z" id="Shape"></path>
                    <path d="M234.080202,27.2359071 C232.87027,27.2359071 232.110047,27.8833702 232.110047,29.5922483 L232.110047,42.5202821 C232.110047,44.2291602 232.87027,44.8766233 234.080202,44.8766233 C235.290134,44.8766233 236.050357,44.2291602 236.050357,42.5202821 L236.050357,29.6028624 C236.050357,27.8939844 235.290134,27.2359071 234.080202,27.2359071 Z" id="Shape"></path>
                </g>
            </g>
        </g>
    </g>
</svg>