<?xml version="1.0" encoding="UTF-8" standalone="no"?>
<svg width="149px" height="39px" viewBox="0 0 149 39" version="1.1" xmlns="http://www.w3.org/2000/svg" xmlns:xlink="http://www.w3.org/1999/xlink">
    <!-- Generator: Sketch 41.2 (35397) - http://www.bohemiancoding.com/sketch -->
    <title>Logo-HV-White-04</title>
    <desc>Created with Sketch.</desc>
    <defs></defs>
    <g id="Page-1" stroke="none" stroke-width="1" fill="none" fill-rule="evenodd">
        <g id="LANDING-HV" transform="translate(-646.000000, -7171.000000)" fill="#FFFFFF">
            <g id="Group-28" transform="translate(0.000000, 7151.800000)">
                <g id="Logo-HV-White-04" transform="translate(646.000000, 19.000000)">
                    <path d="M70.6431298,32.6276042 C70.1359043,32.6156545 69.6320737,32.7133639 69.1660305,32.9140625 C68.773843,33.0861125 68.426944,33.3469578 68.1526718,33.6760417 C67.8919388,33.9996791 67.6974027,34.371501 67.5801527,34.7703125 C67.455142,35.1768052 67.3914633,35.5996935 67.3912214,36.025 C67.3800255,36.47355 67.4518445,36.9203025 67.6030534,37.3427083 C67.8483977,38.0349287 68.4104343,38.5675299 69.1145038,38.775 C69.5006148,38.8910389 69.9022394,38.9470735 70.3053435,38.9411458 C70.7609294,38.9560774 71.2147888,38.8781075 71.639313,38.7119792 C71.966721,38.5784322 72.2658874,38.3840335 72.5209924,38.1390625 C72.7428681,37.9226575 72.9216132,37.6660189 73.0477099,37.3828125 C73.1590549,37.1304911 73.2509266,36.8700073 73.3225191,36.6036458 C73.3804964,36.3932137 73.4225995,36.1787217 73.4484733,35.9619792 C73.4537186,35.8469304 73.4749137,35.733169 73.5114504,35.6239583 C73.5197596,35.58815 73.5197596,35.5509125 73.5114504,35.5151042 C73.5934547,34.7330817 73.318323,33.9558013 72.7626994,33.3997918 C72.2070757,32.8437823 71.4303347,32.5684595 70.648855,32.6505208 L70.6431298,32.6276042 Z" id="Shape"></path>
                    <path d="M80.7251908,6.7375 C80.6750191,6.54653308 80.5809097,6.36995545 80.4503817,6.221875 C80.3349768,6.09927865 80.1885876,6.0101964 80.0267176,5.9640625 C79.8532762,5.91657428 79.6740814,5.89343632 79.4942748,5.8953125 C79.1101274,5.89759616 78.726942,5.93402405 78.3492366,6.00416667 C77.9479672,6.07335442 77.5610018,6.20888639 77.2041985,6.40520833 C76.8329104,6.61475945 76.5046131,6.89274237 76.2366412,7.22447917 C75.9186055,7.63156599 75.6920782,8.10252287 75.5725191,8.60520833 C75.3358779,9.42256944 75.0610687,10.3411458 74.7480916,11.3609375 C74.4351145,12.3807292 74.1068702,13.4711806 73.7633588,14.6322917 C73.4198473,15.778125 73.0725191,16.9927083 72.721374,18.2760417 C72.370229,19.559375 72.0419847,20.8427083 71.7366412,22.1260417 C71.4274809,23.4246528 71.1545802,24.7232639 70.9179389,26.021875 C70.8206107,26.5432292 70.7461832,27.053125 70.6660305,27.5630208 C70.1622137,26.9557292 69.6354962,26.3598958 69.0744275,25.7869792 C68.3434921,25.0369499 67.5399307,24.3614128 66.6755725,23.7703125 C65.8182243,23.1849515 64.8887408,22.7131469 63.9103053,22.3666667 C62.8930424,22.0103265 61.8220359,21.8320245 60.7442748,21.8395833 C59.5210295,21.8210766 58.3082343,22.0673219 57.1889313,22.5614583 C56.165828,23.0198815 55.2537945,23.6941215 54.5152672,24.5380208 C53.7706442,25.4036821 53.2009551,26.4057082 52.8377863,27.4885417 C52.4446329,28.666481 52.2511238,29.9019267 52.2652672,31.14375 C52.2650393,31.6435984 52.2956318,32.1429847 52.3568702,32.6390625 L52.0305344,32.8682292 C51.7099237,33.0821181 51.3778626,33.2921875 51.0343511,33.4984375 C50.6908397,33.7046875 50.3568702,33.8956597 50.0324427,34.0713542 C49.7344413,34.2205044 49.4264484,34.3487644 49.110687,34.4552083 C48.862057,34.5428549 48.6012925,34.5911781 48.3377863,34.5984375 C48.240458,34.5984375 48.1431298,34.5296875 48.0343511,34.3921875 C47.9065826,34.2165719 47.8044151,34.0236692 47.730916,33.8192708 C47.6286156,33.566918 47.5481672,33.3062374 47.490458,33.0401042 C47.4247391,32.7448245 47.3920951,32.4431378 47.3931298,32.140625 L47.3931298,31.8942708 C47.4274809,31.659375 47.4732824,31.4130208 47.5362595,31.1666667 C47.5992366,30.9203125 47.6564885,30.6854167 47.7137405,30.4619792 C47.7709924,30.2385417 47.8339695,30.0380208 47.9026718,29.8489583 C47.955404,29.6902895 48.0185176,29.5352668 48.0916031,29.3848958 C48.6374046,28.3192708 49.221374,27.225 49.8435115,26.1020833 C50.4656489,24.9791667 51.0839695,23.8333333 51.6984733,22.6645833 C52.3129771,21.51875 52.9045802,20.3538194 53.4732824,19.1697917 C54.0419847,17.9857639 54.5419847,16.8151042 54.9732824,15.6578125 C55.3958512,14.5216034 55.7401682,13.3577696 56.0038168,12.1744792 C56.2546553,11.0554467 56.3832723,9.91245715 56.3874046,8.765625 C56.3882219,8.27446887 56.3499328,7.78402826 56.2729008,7.29895833 C56.205929,6.85130079 56.0707712,6.41656341 55.8721374,6.00989583 C55.6941353,5.64343209 55.4262606,5.32806656 55.0935115,5.09322917 C54.7182376,4.84811943 54.2760282,4.72597688 53.8282443,4.74375 C53.0442122,4.75472493 52.2795712,4.98924517 51.6240458,5.41979167 C50.838541,5.92595851 50.1372649,6.55232556 49.5458015,7.27604167 C48.829736,8.14093656 48.1935418,9.06904443 47.6450382,10.0489583 C47.0185286,11.1606346 46.4583869,12.308479 45.9675573,13.4864583 C45.442075,14.7362242 44.9796603,16.0116161 44.5820611,17.3078125 C44.1736641,18.6369792 43.8206107,19.9585069 43.5229008,21.2723958 C43.2251908,22.5862847 43,23.8638889 42.8473282,25.1052083 C42.7002322,26.24522 42.6237503,27.3932457 42.6183206,28.5427083 C42.6287593,29.7296795 42.7359854,30.9138183 42.9389313,32.0833333 C42.5725191,32.3526042 42.2061069,32.6104167 41.8568702,32.8453125 C41.5076336,33.0802083 41.2041985,33.2692708 40.860687,33.4755208 C40.5171756,33.6817708 40.1793893,33.8651042 39.8587786,34.0484375 C39.5607771,34.1975878 39.2527843,34.3258477 38.9370229,34.4322917 C38.6883929,34.5199382 38.4276283,34.5682615 38.1641221,34.5755208 C38.0667939,34.5755208 37.9694656,34.5067708 37.860687,34.3692708 C37.7329184,34.1936552 37.630751,34.0007526 37.5572519,33.7963542 C37.4549515,33.5440013 37.3745031,33.2833208 37.3167939,33.0171875 C37.251075,32.7219078 37.2184309,32.4202211 37.2194656,32.1177083 L37.2194656,31.8713542 C37.2538168,31.6364583 37.2996183,31.3901042 37.3625954,31.14375 C37.4255725,30.8973958 37.4828244,30.6625 37.5400763,30.4390625 C37.5973282,30.215625 37.6603053,30.0151042 37.7290076,29.8260417 C37.7817554,29.6673786 37.8448686,29.5123569 37.9179389,29.3619792 C38.4637405,28.2963542 39.0477099,27.2020833 39.6698473,26.0791667 C40.2919847,24.95625 40.9103053,23.8104167 41.5248092,22.6416667 C42.139313,21.4958333 42.730916,20.3309028 43.2996183,19.146875 C43.8683206,17.9628472 44.3683206,16.7921875 44.7996183,15.6348958 C45.2221871,14.4986868 45.5665041,13.334853 45.8301527,12.1515625 C46.0810358,11.0325375 46.2096534,9.8895431 46.2137405,8.74270833 C46.2145578,8.2515522 46.1762687,7.76111159 46.0992366,7.27604167 C46.0323532,6.82836389 45.8971913,6.39361326 45.6984733,5.98697917 C45.5204712,5.62051542 45.2525965,5.3051499 44.9198473,5.0703125 C44.5445735,4.82520276 44.1023641,4.70306021 43.6545802,4.72083333 C42.870548,4.73180826 42.1059071,4.9663285 41.4503817,5.396875 C40.6648769,5.90304185 39.9636008,6.5294089 39.3721374,7.253125 C38.6560718,8.11801989 38.0198777,9.04612776 37.471374,10.0260417 C36.8448645,11.1377179 36.2847228,12.2855623 35.7938931,13.4635417 C35.268375,14.7132935 34.8059596,15.9886871 34.4083969,17.2848958 C34,18.6140625 33.6469466,19.9355903 33.3492366,21.2494792 C33.0515267,22.5633681 32.8129771,23.8505208 32.6335878,25.1109375 C32.4864918,26.2509491 32.4100098,27.3989749 32.4045802,28.5484375 C32.4038112,29.6027695 32.4784292,30.6558053 32.6278626,31.6994792 C32.4103053,31.8770833 32.1870229,32.0546875 31.9465649,32.2380208 C31.2715919,32.7496008 30.563982,33.2165649 29.8282443,33.6359375 C29.0969736,34.0564728 28.3307665,34.4130066 27.5381679,34.7015625 C26.8185074,34.9727252 26.0570968,35.1161946 25.2881679,35.1255208 C25.0762581,35.1277693 24.8648379,35.1046892 24.6583969,35.0567708 C24.4541417,35.0102763 24.2601086,34.9267841 24.0858779,34.8104167 C23.8858609,34.67221 23.7082212,34.5041079 23.5591603,34.3119792 C23.3614784,34.059831 23.1852878,33.7915287 23.0324427,33.5098958 C24.0332994,33.2358152 24.9952267,32.8353755 25.8950382,32.3182292 C26.7325266,31.8515373 27.5029045,31.2733527 28.1851145,30.5994792 C28.793354,29.9912532 29.2998277,29.2890484 29.6851145,28.5197917 C30.0348497,27.836689 30.2210512,27.0815588 30.2290076,26.3140625 C30.2376678,25.6850505 30.1168397,25.0609881 29.8740458,24.4807292 C29.6485115,23.9501869 29.3128486,23.4736832 28.889313,23.0828125 C28.4575487,22.6902077 27.9540459,22.3847836 27.4064885,22.1833333 C26.8144682,21.9656176 26.187959,21.8569213 25.5572519,21.8625 C24.7909118,21.8517414 24.0306566,21.9999966 23.3244275,22.2979167 C22.6602868,22.5767601 22.0469935,22.9639647 21.509542,23.44375 C20.9612623,23.9487095 20.4853826,24.5271024 20.0954198,25.1625 C19.6943666,25.8072526 19.3587283,26.4905109 19.0935115,27.2020833 C18.586061,28.581907 18.3244618,30.0401234 18.3206107,31.5104167 L18.3206107,32.1979167 C18.2232824,32.2953125 18.1259542,32.3984375 18.028626,32.4901042 C17.7576336,32.7498264 17.4675573,33.0019097 17.1583969,33.2463542 C16.858094,33.4827239 16.542522,33.6989929 16.2137405,33.89375 C15.9079342,34.0774502 15.5859833,34.2327844 15.2519084,34.3578125 C14.963296,34.4702381 14.6569954,34.5303768 14.3473282,34.5354167 C14.0872901,34.526026 13.8597987,34.3575654 13.7748092,34.1114583 C13.6173445,33.7508173 13.5448661,33.3587701 13.5629771,32.965625 C13.5585365,32.1239445 13.6683179,31.2855576 13.889313,30.4734375 C14.1068702,29.6789931 14.3492366,28.8998264 14.6164122,28.1359375 C14.8835878,27.3720486 15.129771,26.6081597 15.3549618,25.8442708 C15.5798567,25.0796551 15.6936182,24.2866307 15.6927481,23.4895833 C15.7036935,23.1538153 15.6492467,22.8191239 15.5324427,22.5041667 C15.4420927,22.2862949 15.3053238,22.0907752 15.1316794,21.93125 C14.9871799,21.798067 14.8151784,21.698315 14.6278626,21.6390625 C14.4723748,21.5887905 14.3103227,21.5617631 14.1469466,21.5588542 C13.4918113,21.5876241 12.8592097,21.8066005 12.3263359,22.1890625 C11.6280508,22.6521077 10.9761605,23.1816567 10.379771,23.7703125 C9.73120529,24.4067964 9.11770425,25.0780998 8.54198473,25.78125 C7.9389313,26.5145833 7.39312977,27.2020833 6.90458015,27.84375 L6.54961832,27.5916667 L7.94656489,24.9963542 C8.47328244,24.0109375 9.00954198,22.9644097 9.55534351,21.8567708 C10.101145,20.7491319 10.6335878,19.6032986 11.1526718,18.4192708 C11.6755725,17.2390625 12.1412214,16.0741319 12.5496183,14.9244792 C12.9399073,13.8362071 13.2686716,12.7268134 13.5343511,11.6015625 C13.7686766,10.6468131 13.8935276,9.66845428 13.9064885,8.68541667 C13.9109655,8.14541362 13.8630307,7.60625153 13.7633588,7.07552083 C13.6847415,6.63201479 13.5130249,6.21023586 13.259542,5.83802083 C13.0104057,5.48818786 12.6724244,5.21128584 12.2805344,5.0359375 C11.7823833,4.828378 11.2453865,4.73067441 10.7061069,4.74947917 C9.53500524,4.73373688 8.39023314,5.09750468 7.44274809,5.78645833 C6.43322568,6.54435022 5.58791927,7.49939118 4.95801527,8.59375 C4.20660622,9.8569013 3.60337913,11.2026089 3.16030534,12.6041667 C2.65665014,14.1902909 2.24753356,15.8049366 1.9351145,17.4395833 C1.61068702,19.1315972 1.35877863,20.8503472 1.17938931,22.5958333 C1,24.3413194 0.864503817,25.9894097 0.772900763,27.5401042 C0.677480916,29.1060764 0.622137405,30.5326389 0.606870229,31.8197917 C0.591603053,33.1069444 0.580152672,34.1496528 0.572519084,34.9479167 C0.572519084,35.4444444 0.589694656,35.9314236 0.624045802,36.4088542 C0.651256237,36.8402139 0.728100002,37.266993 0.853053435,37.6807292 C0.949496828,38.0178822 1.12631959,38.3265539 1.36832061,38.5802083 C1.83434254,38.9726647 2.49645372,39.0299805 3.02290076,38.7234375 C3.23563258,38.5703555 3.41486974,38.3753972 3.54961832,38.1505208 C3.73812533,37.8377117 3.90087641,37.5100674 4.03625954,37.1708333 C4.20419847,36.7888889 4.41793893,36.3229167 4.67748092,35.7729167 C5.19945551,34.6929338 5.7844344,33.644597 6.42938931,32.6333333 C7.07442748,31.6211806 7.70038168,30.7083333 8.30725191,29.8947917 C8.91412214,29.08125 9.45610687,28.4090278 9.93320611,27.878125 C10.2365429,27.5105452 10.5781671,27.176366 10.9522901,26.88125 L11.3244275,26.9328125 C11.2363771,27.0554121 11.1597217,27.1858168 11.0954198,27.3223958 C10.9770992,27.5477431 10.8377863,27.8380208 10.6774809,28.1932292 C10.5171756,28.5484375 10.3454198,28.9513889 10.1622137,29.4020833 C9.97900763,29.8527778 9.8129771,30.3149306 9.66412214,30.7885417 C9.51526718,31.2621528 9.39122137,31.7338542 9.29198473,32.2036458 C9.19783853,32.6211913 9.14794445,33.0475058 9.14312977,33.4755208 C9.1476764,34.0878185 9.22454577,34.6974313 9.3721374,35.2916667 C9.51760411,35.9117801 9.75087801,36.5079098 10.0648855,37.0619792 C10.3612037,37.5825685 10.7652626,38.0337878 11.25,38.3854167 C11.7493036,38.7447649 12.3527795,38.9299593 12.9675573,38.9125 C13.4221604,38.908766 13.8736749,38.8373231 14.3072519,38.7005208 C14.7871739,38.5527813 15.2559262,38.370894 15.7099237,38.15625 C16.1894611,37.9307496 16.6558562,37.6782623 17.1068702,37.4 C17.5687023,37.1135417 17.9980916,36.8309028 18.3950382,36.5520833 C18.7671756,36.2885417 19.1049618,36.0421875 19.4141221,35.8130208 C19.58212,36.1158914 19.773544,36.4051423 19.9866412,36.678125 C20.5545114,37.3683342 21.2681891,37.9240197 22.0763359,38.3052083 C22.9930242,38.7266142 23.9933545,38.9342632 25.0019084,38.9125 C25.7110535,38.9126585 26.4179059,38.8319291 27.1087786,38.671875 C27.7951802,38.5138715 28.4673251,38.299249 29.1183206,38.0302083 C29.7553815,37.7682717 30.3733085,37.4619653 30.9675573,37.1135417 C31.5553435,36.7697917 32.1030534,36.4203125 32.610687,36.0651042 C32.9312977,35.8416667 33.240458,35.6067708 33.5496183,35.3604167 C33.6068702,35.509375 33.6583969,35.6583333 33.721374,35.7958333 C34.0556244,36.6415794 34.5427674,37.418442 35.1583969,38.0875 C35.6101298,38.6063463 36.2573329,38.9135661 36.9446565,38.9354167 C37.3829293,38.9320326 37.8192281,38.8762553 38.2442748,38.7692708 C38.7270467,38.6500183 39.2013726,38.4988176 39.6641221,38.3166667 C40.148855,38.1256944 40.6316794,37.9098958 41.1125954,37.6692708 C41.5935115,37.4286458 42.0591603,37.1822917 42.509542,36.9302083 C43.009542,36.6399306 43.5133588,36.3305556 44.0209924,36.0020833 C44.3490657,36.7723912 44.8081589,37.4799245 45.3778626,38.0932292 C45.8295954,38.6120755 46.4767985,38.9192953 47.1641221,38.9411458 C47.602395,38.9377618 48.0386937,38.8819845 48.4637405,38.775 C48.9465123,38.6557475 49.4208382,38.5045468 49.8835878,38.3223958 C50.3683206,38.1314236 50.851145,37.915625 51.3320611,37.675 C51.8129771,37.434375 52.278626,37.1880208 52.7290076,36.9359375 C53.0209924,36.7697917 53.3015267,36.5807292 53.610687,36.3973958 L53.6564885,36.471875 C54.1213219,37.1971226 54.7436332,37.8081162 55.4770992,38.259375 C56.286152,38.7351696 57.2127181,38.9734248 58.1507634,38.946875 C58.8493218,38.9515518 59.5425744,38.8252416 60.1946565,38.5744792 C60.8318401,38.3271649 61.4282105,37.9853174 61.9637405,37.5604167 C62.5098031,37.1245906 62.9933451,36.6156515 63.4007634,36.0479167 C63.8216451,35.4653731 64.1786621,34.839199 64.4656489,34.1802083 C64.754669,33.5163896 64.9771335,32.8255031 65.129771,32.1177083 C65.4555686,30.6981663 65.4555686,29.2231879 65.129771,27.8036458 C64.9614535,27.049232 64.7019075,26.3181507 64.3568702,25.6265625 L64.5,25.4317708 C64.9274809,25.7144097 65.4370229,26.0677083 66.028626,26.4916667 C66.620229,26.915625 67.221374,27.3625 67.8320611,27.8322917 C68.4427481,28.3059028 69.0152672,28.7928819 69.5496183,29.2932292 C69.870229,29.5854167 70.1221374,29.8661458 70.3969466,30.1354167 C70.3875606,30.3176797 70.4773395,30.4907885 70.6316794,30.5880208 C70.7004827,30.625314 70.7735291,30.6541681 70.8492366,30.6739583 L70.8492366,30.6739583 C70.9662621,30.7088725 71.08781,30.7262485 71.2099237,30.7255208 C71.5395062,30.7220523 71.863451,30.6395363 72.1545802,30.4848958 C72.2923419,30.4113156 72.4163146,30.3143946 72.5209924,30.1984375 C72.6245601,30.085708 72.6905788,29.9435692 72.7099237,29.7916667 C73.7519084,27.3357639 74.7061069,25.1510417 75.5725191,23.2375 C76.4389313,21.3239583 77.2022901,19.5651042 77.8625954,17.9609375 C78.5267176,16.3605903 79.0992366,14.8633681 79.5801527,13.4692708 C80.0429342,12.1025735 80.4252692,10.7099077 80.7251908,9.2984375 C80.7977099,8.94322917 80.8473282,8.62621528 80.8740458,8.34739583 C80.9027123,8.09055314 80.9180002,7.83239142 80.9198473,7.57395833 C80.8946634,7.28735466 80.8291299,7.00575072 80.7251908,6.7375 L80.7251908,6.7375 Z M5.51908397,23.8390625 L4.47137405,26.2739583 C4.57824427,24.921875 4.73282443,23.5411458 4.9351145,22.1317708 C5.01908397,21.5282986 5.11641221,20.8904514 5.22709924,20.2182292 C5.33778626,19.5460069 5.46183206,18.8642361 5.59923664,18.1729167 C5.73664122,17.4777778 5.89122137,16.7807292 6.0629771,16.0817708 C6.23473282,15.3828125 6.42557252,14.7067708 6.63549618,14.0536458 C7.24978813,12.5443754 7.96120341,11.0765409 8.76526718,9.659375 C9.36832061,8.65104167 9.82442748,8.146875 10.1335878,8.146875 C10.370229,8.146875 10.4885496,8.59756944 10.4885496,9.49895833 C10.43442,10.4320859 10.2769677,11.3563197 10.019084,12.2546875 C9.60296858,13.810723 9.09638063,15.3411071 8.5019084,16.8380208 C8.28816794,17.3727431 8.01908397,18.0220486 7.69465649,18.7859375 L6.65267176,21.2208333 L5.51908397,23.8390625 Z M22.6946565,29.6026042 C22.7193319,29.2178278 22.7690557,28.8350712 22.8435115,28.4567708 C22.9234659,28.0659403 23.0364679,27.6826165 23.1812977,27.3109375 C23.3176438,26.9396042 23.5107844,26.5917095 23.7538168,26.2796875 C24.0013921,25.9737506 24.3093253,25.7221622 24.6583969,25.540625 C25.0637962,25.3404423 25.5118321,25.2421205 25.9637405,25.2541667 C26.2825015,25.2751116 26.5619336,25.4748445 26.6851145,25.7697917 C26.8950964,26.1762178 26.9957248,26.6303474 26.9770992,27.0875 C26.9526291,27.5069931 26.7963353,27.9080246 26.5305344,28.2333333 C26.2191607,28.6627319 25.8513423,29.0481496 25.4370229,29.3791667 C25.011277,29.7168674 24.5436542,29.9980211 24.0458015,30.215625 C23.607535,30.4194128 23.1319853,30.5305815 22.648855,30.5421875 C22.6374046,30.2862847 22.6450382,29.9730903 22.6717557,29.6026042 L22.6946565,29.6026042 Z M37.2137405,21.1635417 C37.3754925,19.9815497 37.6010127,18.8091776 37.889313,17.6515625 C38.1755725,16.5057292 38.4980916,15.4324653 38.8568702,14.4317708 C39.1773968,13.5223731 39.5599769,12.6360852 40.0019084,11.7791667 C40.3246862,11.1317553 40.7245369,10.5257917 41.1927481,9.97447917 C41.4536941,9.60713954 41.8565663,9.3660796 42.3034351,9.30989583 C42.398855,9.30989583 42.4541985,9.43211806 42.4694656,9.6765625 C42.4847328,9.92100694 42.4847328,10.2151042 42.4694656,10.5588542 C42.3404574,11.7460291 42.0910817,12.9169891 41.7251908,14.0536458 C41.3435115,15.3064236 40.8816794,16.5592014 40.3396947,17.8119792 C39.7977099,19.0647569 39.2251908,20.2869792 38.6221374,21.4786458 C38.0229008,22.6664931 37.4503817,23.7340278 36.9045802,24.68125 C36.9267548,23.5029657 37.030053,22.3276114 37.2137405,21.1635417 Z M47.4332061,21.1635417 C47.5949802,19.9815533 47.8205002,18.8091824 48.1087786,17.6515625 C48.3950382,16.5057292 48.7175573,15.4324653 49.0763359,14.4317708 C49.3968624,13.5223731 49.7794425,12.6360852 50.221374,11.7791667 C50.5441032,11.1317272 50.9439576,10.5257579 51.4122137,9.97447917 C51.6731597,9.60713954 52.0760319,9.3660796 52.5229008,9.30989583 C52.6183206,9.30989583 52.6736641,9.43211806 52.6889313,9.6765625 C52.7041985,9.92100694 52.7041985,10.2151042 52.6889313,10.5588542 C52.5599622,11.7460354 52.3105857,12.9169994 51.9446565,14.0536458 C51.5629771,15.3064236 51.101145,16.5592014 50.5591603,17.8119792 C50.0171756,19.0647569 49.4446565,20.2869792 48.8416031,21.4786458 C48.2423664,22.6664931 47.6698473,23.7340278 47.1240458,24.68125 C47.1443439,23.5030988 47.245729,22.3277466 47.4274809,21.1635417 L47.4332061,21.1635417 Z M61.6946565,31.2640625 C61.5368628,31.9732998 61.3066457,32.6644307 61.0076336,33.3265625 C60.7598983,33.8919241 60.4236106,34.4141122 60.0114504,34.8734375 C59.7318767,35.2285987 59.3168089,35.4508142 58.8664122,35.4864583 C58.0558335,35.5173082 57.2925963,35.1046983 56.8740458,34.409375 C56.6606776,34.0558592 56.5096231,33.6682712 56.4274809,33.2635417 C56.3297006,32.8021354 56.2817156,32.3315558 56.2843511,31.8598958 C56.304809,30.3318394 56.6687686,28.827995 57.3492366,27.4598958 C57.6383929,26.8681529 58.0255387,26.3296466 58.4942748,25.8671875 C58.8562647,25.4850732 59.3539195,25.2607672 59.879771,25.2427083 C60.218078,25.2346114 60.5491133,25.3416666 60.8187023,25.5463542 C61.0934412,25.7655911 61.3130467,26.0461749 61.4599237,26.365625 C61.6390478,26.753492 61.7642565,27.1640762 61.8320611,27.5859375 C61.9183156,28.0873564 61.9604617,28.5953788 61.9580153,29.1041667 C61.9496764,29.8338497 61.8594153,30.5602836 61.6889313,31.2697917 L61.6946565,31.2640625 Z" id="Shape"></path>
                    <path d="M133.093511,14.85 L132.114504,14.85 L132.114504,18.8203125 L132.910305,18.8203125 C133.666031,18.8203125 134.129771,18.4880208 134.129771,17.4567708 L134.129771,16.1848958 C134.124046,15.2567708 133.814885,14.85 133.093511,14.85 Z" id="Shape"></path>
                    <path d="M117.131679,0.34375 C99.601145,0.34375 85.3969466,8.903125 85.3969466,19.45625 C85.3969466,23.5411458 87.5324427,27.328125 91.1622137,30.4333333 L85.9408397,38.56875 L97.5744275,34.5010417 C102.967557,37.0447917 109.751908,38.56875 117.131679,38.56875 C134.656489,38.56875 148.854962,30.0151042 148.854962,19.4791667 C148.854962,8.94322917 134.656489,0.34375 117.131679,0.34375 Z M102.669847,25.91875 L99.6183206,25.91875 L97.6259542,12.9994792 L99.6755725,12.9994792 L101.204198,23.5354167 L101.23855,23.5354167 L102.767176,12.9994792 L104.627863,12.9994792 L102.669847,25.91875 Z M107.633588,25.91875 L105.60687,25.91875 L105.60687,13.0052083 L107.633588,13.0052083 L107.633588,25.91875 Z M114.990458,17.3536458 L113.072519,17.3536458 L113.072519,15.9671875 C113.072519,15.0447917 112.666031,14.6953125 112.019084,14.6953125 C111.372137,14.6953125 110.965649,15.0447917 110.965649,15.9671875 L110.965649,22.9453125 C110.965649,23.8677083 111.372137,24.2 112.019084,24.2 C112.666031,24.2 113.072519,23.8677083 113.072519,22.9453125 L113.072519,21.1005208 L114.990458,21.1005208 L114.990458,22.8192708 C114.990458,24.8875 113.959924,26.0677083 111.967557,26.0677083 C109.975191,26.0677083 108.944656,24.8875 108.944656,22.8192708 L108.944656,16.1046875 C108.944656,14.0364583 109.975191,12.85625 111.967557,12.85625 C113.959924,12.85625 114.990458,14.0364583 114.990458,16.1046875 L114.990458,17.3536458 Z M121.906489,14.8442708 L119.788168,14.8442708 L119.788168,25.91875 L117.76145,25.91875 L117.76145,14.85 L115.648855,14.85 L115.648855,13.0052083 L121.946565,13.0052083 L121.906489,14.8442708 Z M128.776718,22.8192708 C128.776718,24.8875 127.688931,26.0677083 125.696565,26.0677083 C123.704198,26.0677083 122.616412,24.8875 122.616412,22.8192708 L122.616412,16.1046875 C122.616412,14.0364583 123.704198,12.85625 125.696565,12.85625 C127.688931,12.85625 128.776718,14.0364583 128.776718,16.1046875 L128.776718,22.8192708 Z M134.330153,25.91875 C134.163348,25.4074048 134.101044,24.8677058 134.146947,24.3317708 L134.146947,22.3036458 C134.146947,21.10625 133.740458,20.659375 132.818702,20.659375 L132.120229,20.659375 L132.120229,25.91875 L130.093511,25.91875 L130.093511,13.0052083 L133.156489,13.0052083 C135.257634,13.0052083 136.162214,13.9848958 136.162214,15.9786458 L136.162214,16.9927083 C136.162214,18.321875 135.73855,19.1697917 134.833969,19.59375 L134.833969,19.628125 C135.847328,20.0520833 136.179389,21.0145833 136.179389,22.3609375 L136.179389,24.3546875 C136.142978,24.8878307 136.219053,25.4226759 136.402672,25.9244792 L134.330153,25.91875 Z" id="Shape"></path>
                    <path d="M125.696565,14.7010417 C125.049618,14.7010417 124.64313,15.0505208 124.64313,15.9729167 L124.64313,22.9510417 C124.64313,23.8734375 125.049618,24.2229167 125.696565,24.2229167 C126.343511,24.2229167 126.75,23.8734375 126.75,22.9510417 L126.75,15.9786458 C126.75,15.05625 126.343511,14.7010417 125.696565,14.7010417 Z" id="Shape"></path>
                </g>
            </g>
        </g>
    </g>
</svg>