<svg id="de30c25f-8f30-449e-adb8-639c3c34e262" data-name="Calque 1" xmlns="http://www.w3.org/2000/svg" viewBox="0 0 288.67 120.67"><title>Logo-HV-White-NoPadding-04</title><path d="M139.06,69.28a6.16,6.16,0,0,0-2.58.5,4.83,4.83,0,0,0-1.77,1.33,5.53,5.53,0,0,0-1,1.91,7.46,7.46,0,0,0-.33,2.19,6.35,6.35,0,0,0,.37,2.3,4,4,0,0,0,2.64,2.5,6.88,6.88,0,0,0,2.08.29,5.87,5.87,0,0,0,2.33-.4,4.89,4.89,0,0,0,1.54-1,4.27,4.27,0,0,0,.92-1.32,9.43,9.43,0,0,0,.48-1.36,7.61,7.61,0,0,0,.22-1.12,2.17,2.17,0,0,1,.11-.59.42.42,0,0,0,0-.19,4.55,4.55,0,0,0-5-5Z" fill="#fff"/><path d="M156.71,24.1a2.21,2.21,0,0,0-.48-.9,1.63,1.63,0,0,0-.74-.45,3.39,3.39,0,0,0-.93-.12,11.33,11.33,0,0,0-2,.19,6.41,6.41,0,0,0-2,.7,5.9,5.9,0,0,0-1.69,1.43,6.27,6.27,0,0,0-1.16,2.41q-.62,2.14-1.44,4.81t-1.72,5.71q-.9,3-1.82,6.36T141,51q-.81,3.4-1.43,6.8c-.17.91-.3,1.8-.44,2.69-.88-1.06-1.8-2.1-2.78-3.1a27.62,27.62,0,0,0-4.19-3.52,21,21,0,0,0-4.83-2.45,16.39,16.39,0,0,0-5.53-.92,14.83,14.83,0,0,0-6.21,1.26,13.59,13.59,0,0,0-4.67,3.45A15.41,15.41,0,0,0,108,60.3a19.44,19.44,0,0,0-1,6.38,21.21,21.21,0,0,0,.16,2.61l-.57.4q-.84.56-1.74,1.1t-1.75,1a12.57,12.57,0,0,1-1.61.67,4.43,4.43,0,0,1-1.35.25c-.17,0-.34-.12-.53-.36a4,4,0,0,1-.53-1A8.3,8.3,0,0,1,98.65,70a7.11,7.11,0,0,1-.17-1.57V68c.06-.41.14-.84.25-1.27s.21-.84.31-1.23.21-.74.33-1.07a6.65,6.65,0,0,1,.33-.81q1.43-2.79,3.06-5.73t3.24-6q1.61-3,3.1-6.1t2.62-6.13a46.35,46.35,0,0,0,1.8-6.08,27.64,27.64,0,0,0,.67-5.95,16.14,16.14,0,0,0-.2-2.56,7.73,7.73,0,0,0-.7-2.25,4.21,4.21,0,0,0-1.36-1.6,3.77,3.77,0,0,0-2.21-.61,7.2,7.2,0,0,0-3.85,1.18,15.6,15.6,0,0,0-3.63,3.24,32.42,32.42,0,0,0-3.32,4.84,56.4,56.4,0,0,0-2.93,6,70.67,70.67,0,0,0-2.42,6.67Q92.49,46,91.71,49.48t-1.18,6.69a48.65,48.65,0,0,0-.4,6,38.08,38.08,0,0,0,.5,6.19c-.64.47-1.28.92-1.89,1.33s-1.14.74-1.74,1.1-1.19.68-1.75,1a12.57,12.57,0,0,1-1.61.67,4.43,4.43,0,0,1-1.35.25c-.17,0-.34-.12-.53-.36a4,4,0,0,1-.53-1A8.3,8.3,0,0,1,80.8,70a7.11,7.11,0,0,1-.17-1.57V68c.06-.41.14-.84.25-1.27s.21-.84.31-1.23.21-.74.33-1.07a6.66,6.66,0,0,1,.33-.81q1.43-2.79,3.06-5.73t3.24-6q1.61-3,3.1-6.1t2.62-6.13a46.35,46.35,0,0,0,1.8-6.08,27.63,27.63,0,0,0,.67-5.95,16.14,16.14,0,0,0-.2-2.56,7.72,7.72,0,0,0-.7-2.25,4.21,4.21,0,0,0-1.36-1.6,3.77,3.77,0,0,0-2.21-.61A7.2,7.2,0,0,0,88,21.82a15.6,15.6,0,0,0-3.63,3.24,32.42,32.42,0,0,0-3.32,4.84,56.4,56.4,0,0,0-2.93,6,70.63,70.63,0,0,0-2.42,6.67Q74.64,46,73.86,49.48t-1.18,6.69a48.65,48.65,0,0,0-.4,6,38.58,38.58,0,0,0,.39,5.5c-.38.31-.77.62-1.19.94a34,34,0,0,1-3.7,2.44,25.58,25.58,0,0,1-4,1.86,11.55,11.55,0,0,1-3.93.74,4.65,4.65,0,0,1-1.1-.12,3,3,0,0,1-1-.43,4.15,4.15,0,0,1-.92-.87,10,10,0,0,1-.92-1.4,21.36,21.36,0,0,0,5-2.08,18.52,18.52,0,0,0,4-3,14,14,0,0,0,2.62-3.63,8.64,8.64,0,0,0,.95-3.85,8,8,0,0,0-.62-3.2,7.1,7.1,0,0,0-1.72-2.44A7.91,7.91,0,0,0,63.55,51a9.13,9.13,0,0,0-3.23-.56,9.69,9.69,0,0,0-3.9.76,11.37,11.37,0,0,0-3.17,2,14.12,14.12,0,0,0-2.47,3A19.89,19.89,0,0,0,49,59.82a21.94,21.94,0,0,0-1.38,7.48c0,.4,0,.8,0,1.2-.17.17-.34.35-.51.51q-.71.68-1.52,1.32A15.16,15.16,0,0,1,44,71.46a10.22,10.22,0,0,1-1.68.81,4.56,4.56,0,0,1-1.58.31,1.1,1.1,0,0,1-1-.74,4.48,4.48,0,0,1-.37-2A16.23,16.23,0,0,1,40,65.5q.57-2.08,1.27-4.08t1.29-4a14.5,14.5,0,0,0,.59-4.11,4.52,4.52,0,0,0-.28-1.72,2.83,2.83,0,0,0-.7-1,2.34,2.34,0,0,0-.88-.51,2.9,2.9,0,0,0-.84-.14A5.9,5.9,0,0,0,37.27,51a22.69,22.69,0,0,0-3.4,2.76,43.77,43.77,0,0,0-3.29,3.59q-1.58,1.92-2.86,3.6l-.62-.44L29.54,56q1.38-2.58,2.81-5.48t2.79-6q1.37-3.09,2.44-6.1a53.78,53.78,0,0,0,1.72-5.8A22.59,22.59,0,0,0,40,27.5a14.56,14.56,0,0,0-.25-2.81,5.56,5.56,0,0,0-.88-2.16,4.21,4.21,0,0,0-1.71-1.4,6.56,6.56,0,0,0-2.75-.5,9.48,9.48,0,0,0-5.71,1.8,16.29,16.29,0,0,0-4.33,4.86,33.35,33.35,0,0,0-3.14,7.08A73.4,73.4,0,0,0,19,42.82q-.85,4.43-1.32,9T17,60.4q-.25,4.1-.29,7.47t0,5.45q0,1.3.09,2.55a9.81,9.81,0,0,0,.4,2.22,3.78,3.78,0,0,0,.9,1.57,2.18,2.18,0,0,0,1.61.59A2.19,2.19,0,0,0,21,79.9a3.36,3.36,0,0,0,.92-1,11.75,11.75,0,0,0,.85-1.71q.44-1,1.12-2.44a53.42,53.42,0,0,1,3.06-5.48q1.69-2.65,3.28-4.78T33,61a11.71,11.71,0,0,1,1.78-1.74l.65.09a4.32,4.32,0,0,0-.4.68q-.31.59-.73,1.52t-.9,2.11q-.48,1.18-.87,2.42t-.65,2.47a10.63,10.63,0,0,0-.26,2.22,13.56,13.56,0,0,0,.4,3.17A11.67,11.67,0,0,0,33.25,77a7.34,7.34,0,0,0,2.06,2.33,4.9,4.9,0,0,0,3,.92,8,8,0,0,0,2.34-.37,18.4,18.4,0,0,0,2.45-.95,24.52,24.52,0,0,0,2.44-1.32q1.21-.75,2.25-1.48c.65-.46,1.24-.89,1.78-1.29a11.59,11.59,0,0,0,1,1.51,10.56,10.56,0,0,0,3.65,2.84,11.64,11.64,0,0,0,5.11,1.06A16.3,16.3,0,0,0,63,79.82a22.28,22.28,0,0,0,3.51-1.12,25.74,25.74,0,0,0,3.23-1.6q1.54-.9,2.87-1.83c.56-.39,1.1-.8,1.64-1.23.1.26.19.52.3.76a12.92,12.92,0,0,0,2.51,4,4.32,4.32,0,0,0,3.12,1.48,9.61,9.61,0,0,0,2.27-.29,19.62,19.62,0,0,0,2.48-.79q1.27-.5,2.53-1.13t2.44-1.29q1.31-.76,2.64-1.62a12.64,12.64,0,0,0,2.37,3.65A4.32,4.32,0,0,0,98,80.24a9.61,9.61,0,0,0,2.27-.29,19.62,19.62,0,0,0,2.48-.79q1.27-.5,2.53-1.13t2.44-1.29c.51-.29,1-.62,1.54-.94l.08.13A10,10,0,0,0,112.56,79a8.73,8.73,0,0,0,4.67,1.2,9.77,9.77,0,0,0,3.57-.65,11.9,11.9,0,0,0,3.09-1.77,13.3,13.3,0,0,0,2.51-2.64,17.49,17.49,0,0,0,1.86-3.26,19.1,19.1,0,0,0,1.16-3.6,16.82,16.82,0,0,0,0-7.53A16.61,16.61,0,0,0,128,57l.25-.34q1.12.74,2.67,1.85t3.15,2.34q1.6,1.24,3,2.55c.56.51,1,1,1.48,1.47a.88.88,0,0,0,.41.79,1.7,1.7,0,0,0,.38.15h0a2.16,2.16,0,0,0,.63.09,3.6,3.6,0,0,0,1.65-.42,2.36,2.36,0,0,0,.64-.5,1.29,1.29,0,0,0,.33-.64q2.73-6.43,5-11.44t4-9.21q1.74-4.19,3-7.84a64.46,64.46,0,0,0,2-7.28q.19-.93.26-1.66a13,13,0,0,0,.08-1.35A5.33,5.33,0,0,0,156.71,24.1ZM25.3,53.95,23.47,58.2q.28-3.54.81-7.23.22-1.58.51-3.34t.65-3.57q.36-1.82.81-3.65t1-3.54A65.82,65.82,0,0,1,31,29.2q1.58-2.64,2.39-2.64.62,0,.62,2.36a22.05,22.05,0,0,1-.82,4.81,72.2,72.2,0,0,1-2.65,8q-.56,1.4-1.41,3.4L27.26,49.4ZM55.26,64a15.48,15.48,0,0,1,.26-2,12.29,12.29,0,0,1,.59-2,6.67,6.67,0,0,1,1-1.8,5,5,0,0,1,1.58-1.29A4.86,4.86,0,0,1,61,56.4a1.47,1.47,0,0,1,1.26.9,4.6,4.6,0,0,1,.51,2.3,3.48,3.48,0,0,1-.78,2,10.3,10.3,0,0,1-1.91,2,11,11,0,0,1-2.45,1.48,6.14,6.14,0,0,1-2.44.57Q55.2,65,55.26,64Zm25.4-14.73a57.75,57.75,0,0,1,1.18-6.13q.75-3,1.69-5.62a36.75,36.75,0,0,1,2-4.63,15.66,15.66,0,0,1,2.08-3.15,2.81,2.81,0,0,1,1.94-1.16q.25,0,.29.64t0,1.54a30.73,30.73,0,0,1-1.3,6.1q-1,3.28-2.42,6.56t-3,6.4q-1.57,3.11-3,5.59A44.77,44.77,0,0,1,80.66,49.27Zm17.85,0a57.77,57.77,0,0,1,1.18-6.13q.75-3,1.69-5.62a36.75,36.75,0,0,1,2-4.63,15.65,15.65,0,0,1,2.08-3.15,2.81,2.81,0,0,1,1.94-1.16q.25,0,.29.64t0,1.54a30.72,30.72,0,0,1-1.3,6.1q-1,3.28-2.42,6.56t-3,6.4q-1.57,3.11-3,5.59A44.78,44.78,0,0,1,98.51,49.27Zm24.91,17.63a18.51,18.51,0,0,1-1.2,3.6,10.13,10.13,0,0,1-1.74,2.7,2.83,2.83,0,0,1-2,1.07A3.89,3.89,0,0,1,115,72.4a6.29,6.29,0,0,1-.78-2,11.5,11.5,0,0,1-.25-2.45,17.77,17.77,0,0,1,1.86-7.68,10.19,10.19,0,0,1,2-2.78,3.5,3.5,0,0,1,2.42-1.09,2.61,2.61,0,0,1,1.64.53A3.93,3.93,0,0,1,123,58.36a8.17,8.17,0,0,1,.65,2.13,15.19,15.19,0,0,1,.22,2.65A17,17,0,0,1,123.42,66.91Z" fill="#fff"/><path d="M248.14,38.25h-1.71v6.93h1.39c1.32,0,2.13-.58,2.13-2.38V40.57C249.94,39,249.39,38.25,248.14,38.25Z" fill="#fff"/><path d="M220.25,12.94c-30.62,0-55.43,14.94-55.43,33.36,0,7.13,3.73,13.74,10.07,19.16l-9.12,14.2,20.32-7.1c9.42,4.44,21.27,7.1,34.16,7.1,30.62,0,55.43-14.94,55.43-33.36S250.87,12.94,220.25,12.94ZM195,57.58h-5.28L186.23,35h3.58l2.67,18.39h.06L195.21,35h3.25Zm8.67,0h-3.54V35h3.54Zm12.85-14.95h-3.35V40.22c0-1.61-.71-2.22-1.84-2.22s-1.84.61-1.84,2.22V52.4c0,1.61.71,2.19,1.84,2.19s1.84-.58,1.84-2.19V49.17h3.35v3c0,3.61-1.8,5.67-5.28,5.67s-5.28-2.06-5.28-5.67V40.44c0-3.61,1.8-5.67,5.28-5.67s5.28,2.06,5.28,5.67Zm12.08-4.38h-3.7V57.58h-3.54V38.25h-3.7V35h11Zm12,13.92c0,3.61-1.9,5.67-5.38,5.67s-5.38-2.06-5.38-5.67V40.44c0-3.61,1.9-5.67,5.38-5.67s5.38,2.06,5.38,5.67Zm9.7,5.41a7,7,0,0,1-.32-2.77V51.27c0-2.09-.71-2.87-2.32-2.87h-1.22v9.18h-3.54V35h5.35c3.67,0,5.25,1.71,5.25,5.19V42c0,2.32-.74,3.8-2.32,4.54v.06c1.77.74,2.35,2.42,2.35,4.77v3.48a6.65,6.65,0,0,0,.39,2.74Z" fill="#fff"/><path d="M235.22,38c-1.13,0-1.84.61-1.84,2.22V52.4c0,1.61.71,2.22,1.84,2.22s1.84-.61,1.84-2.22V40.22C237.06,38.61,236.35,38,235.22,38Z" fill="#fff"/><path d="M15.89,105.21V95.29h.71v9.28h5.92v.64Z" fill="#fff"/><path d="M22.53,97.68V95.24h.63v2.45Z" fill="#fff"/><path d="M26.86,105.35a2.47,2.47,0,0,1-.94-.17,2.52,2.52,0,0,1-.76-.47,2.11,2.11,0,0,1-.51-.71,2.18,2.18,0,0,1-.18-.89,1.71,1.71,0,0,1,.22-.87,2.14,2.14,0,0,1,.62-.68,3.05,3.05,0,0,1,1-.45,4.43,4.43,0,0,1,1.23-.16,6.77,6.77,0,0,1,1.18.1,5.81,5.81,0,0,1,1.07.29v-.71A2.26,2.26,0,0,0,29.17,99a2.11,2.11,0,0,0-1.59-.61,3.2,3.2,0,0,0-1.13.22,5.78,5.78,0,0,0-1.21.64L25,98.77a4.77,4.77,0,0,1,2.66-1,2.78,2.78,0,0,1,2.07.76,2.86,2.86,0,0,1,.75,2.1v3.55c0,.23.1.35.31.35v.63l-.15,0h-.13a.57.57,0,0,1-.45-.19.79.79,0,0,1-.19-.45V104a3.26,3.26,0,0,1-1.29,1A4.11,4.11,0,0,1,26.86,105.35Zm.14-.56a3.57,3.57,0,0,0,1.49-.31,2.55,2.55,0,0,0,1-.81.94.94,0,0,0,.22-.56v-1.29a5.56,5.56,0,0,0-1-.29,6.33,6.33,0,0,0-1.13-.1,3.86,3.86,0,0,0-1,.12,2.69,2.69,0,0,0-.77.33,1.52,1.52,0,0,0-.49.51,1.29,1.29,0,0,0-.17.66,1.69,1.69,0,0,0,.14.69,1.6,1.6,0,0,0,.39.55,1.81,1.81,0,0,0,.59.36A2,2,0,0,0,27,104.79Z" fill="#fff"/><path d="M34.88,105.35a4.66,4.66,0,0,1-1.61-.28,3.69,3.69,0,0,1-1.34-.84l.35-.47a4.07,4.07,0,0,0,1.22.78,3.68,3.68,0,0,0,1.38.25,2.66,2.66,0,0,0,1.53-.4,1.27,1.27,0,0,0,.58-1.11,1,1,0,0,0-.15-.57,1.18,1.18,0,0,0-.44-.39,3.55,3.55,0,0,0-.73-.29l-1-.27q-.62-.14-1.07-.28a2.83,2.83,0,0,1-.75-.33,1.3,1.3,0,0,1-.44-.47,1.53,1.53,0,0,1-.15-.71,2,2,0,0,1,.21-1,1.88,1.88,0,0,1,.58-.67,2.66,2.66,0,0,1,.85-.4,3.85,3.85,0,0,1,1-.13,3.75,3.75,0,0,1,1.51.29,2.64,2.64,0,0,1,1,.73l-.39.38a2.22,2.22,0,0,0-.94-.63,3.61,3.61,0,0,0-1.24-.21,3.37,3.37,0,0,0-.76.08,1.86,1.86,0,0,0-.62.27,1.3,1.3,0,0,0-.42.47,1.42,1.42,0,0,0-.15.68,1.09,1.09,0,0,0,.1.52.89.89,0,0,0,.33.34A2.52,2.52,0,0,0,34,101l.87.23,1.22.32a3.55,3.55,0,0,1,.89.38,1.66,1.66,0,0,1,.54.53,1.48,1.48,0,0,1,.19.78,1.86,1.86,0,0,1-.76,1.56A3.28,3.28,0,0,1,34.88,105.35Z" fill="#fff"/><path d="M41.61,105.35a4.66,4.66,0,0,1-1.61-.28,3.69,3.69,0,0,1-1.34-.84l.35-.47a4.07,4.07,0,0,0,1.22.78,3.68,3.68,0,0,0,1.38.25,2.66,2.66,0,0,0,1.53-.4,1.27,1.27,0,0,0,.58-1.11,1,1,0,0,0-.15-.57,1.18,1.18,0,0,0-.44-.39,3.55,3.55,0,0,0-.73-.29l-1-.27q-.62-.14-1.07-.28a2.83,2.83,0,0,1-.75-.33,1.3,1.3,0,0,1-.44-.47A1.53,1.53,0,0,1,39,100a2,2,0,0,1,.21-1,1.88,1.88,0,0,1,.58-.67,2.66,2.66,0,0,1,.85-.4,3.85,3.85,0,0,1,1-.13,3.75,3.75,0,0,1,1.51.29,2.64,2.64,0,0,1,1,.73l-.39.38a2.22,2.22,0,0,0-.94-.63,3.61,3.61,0,0,0-1.24-.21,3.37,3.37,0,0,0-.76.08,1.86,1.86,0,0,0-.62.27,1.3,1.3,0,0,0-.42.47,1.42,1.42,0,0,0-.15.68,1.09,1.09,0,0,0,.1.52.89.89,0,0,0,.33.34,2.52,2.52,0,0,0,.59.24l.87.23,1.22.32a3.55,3.55,0,0,1,.89.38,1.66,1.66,0,0,1,.54.53,1.48,1.48,0,0,1,.19.78,1.86,1.86,0,0,1-.76,1.56A3.28,3.28,0,0,1,41.61,105.35Z" fill="#fff"/><path d="M48.27,105.35q-2.32,0-2.32-3.21V97.95h.7V102q0,2.68,1.83,2.68a2.58,2.58,0,0,0,.89-.16,3.15,3.15,0,0,0,.81-.45,3.12,3.12,0,0,0,.66-.69,3.52,3.52,0,0,0,.45-.89V97.95H52v6.29c0,.23.1.35.29.35v.63h-.21a.77.77,0,0,1-.5-.17.57.57,0,0,1-.22-.47V103.5a3.5,3.5,0,0,1-3.1,1.86Z" fill="#fff"/><path d="M57.66,98.58a2.86,2.86,0,0,0-2.74,2.1v4.54h-.7V97.95h.67v1.79a3.5,3.5,0,0,1,1-1.25,2.56,2.56,0,0,1,1.33-.55h.43Z" fill="#fff"/><path d="M60.68,105.35a2.47,2.47,0,0,1-.94-.17,2.52,2.52,0,0,1-.76-.47,2.11,2.11,0,0,1-.51-.71,2.18,2.18,0,0,1-.18-.89,1.71,1.71,0,0,1,.22-.87,2.14,2.14,0,0,1,.62-.68,3.05,3.05,0,0,1,1-.45,4.43,4.43,0,0,1,1.23-.16,6.77,6.77,0,0,1,1.18.1,5.81,5.81,0,0,1,1.07.29v-.71A2.26,2.26,0,0,0,63,99a2.11,2.11,0,0,0-1.59-.61,3.2,3.2,0,0,0-1.13.22,5.78,5.78,0,0,0-1.21.64l-.26-.47a4.77,4.77,0,0,1,2.66-1,2.78,2.78,0,0,1,2.07.76,2.86,2.86,0,0,1,.75,2.1v3.55c0,.23.1.35.31.35v.63l-.15,0H64.3a.57.57,0,0,1-.45-.19.79.79,0,0,1-.19-.45V104a3.26,3.26,0,0,1-1.29,1A4.11,4.11,0,0,1,60.68,105.35Zm.14-.56a3.57,3.57,0,0,0,1.49-.31,2.55,2.55,0,0,0,1-.81.94.94,0,0,0,.22-.56v-1.29a5.56,5.56,0,0,0-1-.29,6.33,6.33,0,0,0-1.13-.1,3.86,3.86,0,0,0-1,.12,2.69,2.69,0,0,0-.77.33,1.52,1.52,0,0,0-.49.51,1.29,1.29,0,0,0-.17.66,1.69,1.69,0,0,0,.14.69,1.6,1.6,0,0,0,.39.55,1.81,1.81,0,0,0,.59.36A2,2,0,0,0,60.82,104.79Z" fill="#fff"/><path d="M72.34,105.21h-.7v-4.05a4,4,0,0,0-.4-2.05A1.38,1.38,0,0,0,70,98.46a2.63,2.63,0,0,0-.91.17,3.09,3.09,0,0,0-.85.47,3.48,3.48,0,0,0-.68.72,3,3,0,0,0-.43.89v4.5h-.7V97.95h.66v1.73a3.42,3.42,0,0,1,.55-.76,3.46,3.46,0,0,1,.74-.59,3.72,3.72,0,0,1,.87-.38,3.41,3.41,0,0,1,1-.13,1.79,1.79,0,0,1,1.68.83,4.76,4.76,0,0,1,.49,2.38Z" fill="#fff"/><path d="M73.95,101.55a4,4,0,0,1,.26-1.45A3.61,3.61,0,0,1,75,98.91a3.48,3.48,0,0,1,2.57-1.09,3.36,3.36,0,0,1,1.75.45,2.81,2.81,0,0,1,1.13,1.24l-.68.22a2.35,2.35,0,0,0-.92-.94,2.58,2.58,0,0,0-1.31-.34,2.66,2.66,0,0,0-1.12.24,2.78,2.78,0,0,0-.9.66,3.15,3.15,0,0,0-.61,1,3.39,3.39,0,0,0,.62,3.47,2.88,2.88,0,0,0,.91.68,2.53,2.53,0,0,0,1.11.25,2.55,2.55,0,0,0,.75-.11,3.22,3.22,0,0,0,.68-.29,2.37,2.37,0,0,0,.54-.43,1.32,1.32,0,0,0,.31-.51l.68.19a2.27,2.27,0,0,1-.43.71,2.86,2.86,0,0,1-.68.57,3.43,3.43,0,0,1-.87.37,3.61,3.61,0,0,1-1,.13,3.39,3.39,0,0,1-1.43-.3,3.51,3.51,0,0,1-1.14-.82,3.89,3.89,0,0,1-.75-1.21A3.93,3.93,0,0,1,73.95,101.55Z" fill="#fff"/><path d="M85.08,105.35a3.39,3.39,0,0,1-1.43-.3,3.51,3.51,0,0,1-1.14-.82,3.89,3.89,0,0,1-.75-1.21,3.93,3.93,0,0,1-.27-1.47,3.84,3.84,0,0,1,1-2.63,3.5,3.5,0,0,1,1.13-.8,3.52,3.52,0,0,1,2.83,0,3.55,3.55,0,0,1,1.13.81,3.71,3.71,0,0,1,.74,1.19,3.88,3.88,0,0,1,.27,1.43v.17a.37.37,0,0,1,0,.13H82.22a3.23,3.23,0,0,0,.29,1.17,3.31,3.31,0,0,0,.64.93,2.88,2.88,0,0,0,.89.61,2.61,2.61,0,0,0,1.08.22,2.66,2.66,0,0,0,.74-.1,3,3,0,0,0,.68-.29,2.45,2.45,0,0,0,.56-.44,2.1,2.1,0,0,0,.38-.57l.61.17a2.31,2.31,0,0,1-.45.72,3.09,3.09,0,0,1-.7.57,3.66,3.66,0,0,1-1.85.5Zm2.85-4.05a3.3,3.3,0,0,0-.29-1.17,3.18,3.18,0,0,0-.63-.92,2.86,2.86,0,0,0-.89-.6,2.78,2.78,0,0,0-2.15,0,2.84,2.84,0,0,0-.89.6,2.92,2.92,0,0,0-.62.92,3.52,3.52,0,0,0-.27,1.17Z" fill="#fff"/><path d="M93.73,96.3V95h.7V96.3Zm0,8.92V97.95h.7v7.27Z" fill="#fff"/><path d="M102.57,105.21h-.7v-4.05a4,4,0,0,0-.4-2.05,1.38,1.38,0,0,0-1.27-.64,2.63,2.63,0,0,0-.91.17,3.09,3.09,0,0,0-.85.47,3.48,3.48,0,0,0-.68.72,3,3,0,0,0-.43.89v4.5h-.7V97.95h.66v1.73a3.42,3.42,0,0,1,.55-.76,3.46,3.46,0,0,1,.74-.59,3.72,3.72,0,0,1,.87-.38,3.41,3.41,0,0,1,1-.13,1.79,1.79,0,0,1,1.68.83,4.76,4.76,0,0,1,.49,2.38Z" fill="#fff"/><path d="M107.85,104.86l-.19.1a1.92,1.92,0,0,1-.34.15l-.45.13a2.56,2.56,0,0,1-.54.06,1.77,1.77,0,0,1-.55-.08,1.32,1.32,0,0,1-.45-.25,1.2,1.2,0,0,1-.31-.4,1.31,1.31,0,0,1-.11-.56V98.52h-1v-.57h1V95.46h.7v2.49h1.69v.57H105.6v5.31a.7.7,0,0,0,.28.61,1,1,0,0,0,.63.2,1.75,1.75,0,0,0,.75-.15l.38-.19Z" fill="#fff"/><path d="M112,105.35a3.39,3.39,0,0,1-1.43-.3,3.51,3.51,0,0,1-1.14-.82,3.89,3.89,0,0,1-.75-1.21,3.93,3.93,0,0,1-.27-1.47,3.84,3.84,0,0,1,1-2.63,3.5,3.5,0,0,1,1.13-.8,3.52,3.52,0,0,1,2.83,0,3.55,3.55,0,0,1,1.13.81,3.71,3.71,0,0,1,.74,1.19,3.88,3.88,0,0,1,.27,1.43v.17a.37.37,0,0,1,0,.13h-6.37a3.23,3.23,0,0,0,.29,1.17,3.31,3.31,0,0,0,.64.93,2.88,2.88,0,0,0,.89.61,2.61,2.61,0,0,0,1.08.22,2.66,2.66,0,0,0,.74-.1,3,3,0,0,0,.68-.29A2.45,2.45,0,0,0,114,104a2.1,2.1,0,0,0,.38-.57l.61.17a2.31,2.31,0,0,1-.45.72,3.09,3.09,0,0,1-.7.57,3.66,3.66,0,0,1-1.85.5Zm2.85-4.05a3.3,3.3,0,0,0-.29-1.17,3.18,3.18,0,0,0-.63-.92,2.86,2.86,0,0,0-.89-.6,2.78,2.78,0,0,0-2.15,0,2.84,2.84,0,0,0-.89.6,2.92,2.92,0,0,0-.62.92,3.52,3.52,0,0,0-.27,1.17Z" fill="#fff"/><path d="M117.1,95h.71v8.76a.88.88,0,0,0,.23.64.85.85,0,0,0,.64.24,2.27,2.27,0,0,0,.37,0,1.94,1.94,0,0,0,.4-.1l.14.56a3,3,0,0,1-.59.16,3.49,3.49,0,0,1-.6.06,1.28,1.28,0,0,1-.94-.36,1.3,1.3,0,0,1-.36-1Z" fill="#fff"/><path d="M120.72,95h.71v8.76a.88.88,0,0,0,.23.64.85.85,0,0,0,.64.24,2.27,2.27,0,0,0,.37,0,1.94,1.94,0,0,0,.4-.1l.14.56a3,3,0,0,1-.59.16,3.49,3.49,0,0,1-.6.06,1.28,1.28,0,0,1-.94-.36,1.3,1.3,0,0,1-.36-1Z" fill="#fff"/><path d="M124.28,96.3V95h.7V96.3Zm0,8.92V97.95h.7v7.27Z" fill="#fff"/><path d="M130.11,105.33a3.05,3.05,0,0,1-1.38-.31,3.48,3.48,0,0,1-1.08-.84,4,4,0,0,1-.71-1.2,3.79,3.79,0,0,1-.26-1.38,4.22,4.22,0,0,1,.24-1.43,3.85,3.85,0,0,1,.69-1.21,3.33,3.33,0,0,1,1.07-.83,3.05,3.05,0,0,1,1.38-.31,2.8,2.8,0,0,1,1.66.5,4.77,4.77,0,0,1,1.2,1.21V97.95h.64v7.41a2.86,2.86,0,0,1-.28,1.3,2.72,2.72,0,0,1-.75.93,3.26,3.26,0,0,1-1.09.56,4.45,4.45,0,0,1-1.31.19,4.93,4.93,0,0,1-1.13-.12,3.39,3.39,0,0,1-.89-.33,2.91,2.91,0,0,1-.68-.53,3.72,3.72,0,0,1-.52-.69l.47-.32a2.61,2.61,0,0,0,1.17,1.08,3.72,3.72,0,0,0,1.58.34,3.55,3.55,0,0,0,1.05-.15,2.57,2.57,0,0,0,.87-.45,2.16,2.16,0,0,0,.59-.75,2.36,2.36,0,0,0,.22-1v-1.59a3.36,3.36,0,0,1-1.19,1.14A3.06,3.06,0,0,1,130.11,105.33Zm.17-.6a2.41,2.41,0,0,0,.9-.17,3.18,3.18,0,0,0,.8-.45,2.69,2.69,0,0,0,.59-.63,1.78,1.78,0,0,0,.29-.7v-2.39a3.16,3.16,0,0,0-.45-.78,3.05,3.05,0,0,0-.64-.61,3.19,3.19,0,0,0-.77-.4,2.45,2.45,0,0,0-.83-.15,2.42,2.42,0,0,0-1.17.28,2.79,2.79,0,0,0-.87.73,3.27,3.27,0,0,0-.54,1,3.56,3.56,0,0,0-.19,1.14,3.16,3.16,0,0,0,.22,1.19,3.3,3.3,0,0,0,.61,1,2.91,2.91,0,0,0,.92.68A2.61,2.61,0,0,0,130.28,104.72Z" fill="#fff"/><path d="M138.82,105.35a3.39,3.39,0,0,1-1.43-.3,3.51,3.51,0,0,1-1.14-.82,3.89,3.89,0,0,1-.75-1.21,3.93,3.93,0,0,1-.27-1.47,3.84,3.84,0,0,1,1-2.63,3.5,3.5,0,0,1,1.13-.8,3.52,3.52,0,0,1,2.83,0,3.55,3.55,0,0,1,1.13.81,3.71,3.71,0,0,1,.74,1.19,3.88,3.88,0,0,1,.27,1.43v.17a.37.37,0,0,1,0,.13H136a3.23,3.23,0,0,0,.29,1.17,3.31,3.31,0,0,0,.64.93,2.88,2.88,0,0,0,.89.61,2.61,2.61,0,0,0,1.08.22,2.66,2.66,0,0,0,.74-.1,3,3,0,0,0,.68-.29,2.45,2.45,0,0,0,.56-.44,2.1,2.1,0,0,0,.38-.57l.61.17a2.31,2.31,0,0,1-.45.72,3.09,3.09,0,0,1-.7.57,3.66,3.66,0,0,1-1.85.5Zm2.85-4.05a3.3,3.3,0,0,0-.29-1.17,3.18,3.18,0,0,0-.63-.92,2.86,2.86,0,0,0-.89-.6,2.78,2.78,0,0,0-2.15,0,2.84,2.84,0,0,0-.89.6,2.92,2.92,0,0,0-.62.92,3.52,3.52,0,0,0-.27,1.17Z" fill="#fff"/><path d="M149.82,105.21h-.7v-4.05a4,4,0,0,0-.4-2.05,1.38,1.38,0,0,0-1.27-.64,2.63,2.63,0,0,0-.91.17,3.09,3.09,0,0,0-.85.47,3.48,3.48,0,0,0-.68.72,3,3,0,0,0-.43.89v4.5h-.7V97.95h.66v1.73a3.42,3.42,0,0,1,.55-.76,3.46,3.46,0,0,1,.74-.59,3.72,3.72,0,0,1,.87-.38,3.41,3.41,0,0,1,1-.13,1.79,1.79,0,0,1,1.68.83,4.76,4.76,0,0,1,.49,2.38Z" fill="#fff"/><path d="M155.1,104.86l-.19.1a1.92,1.92,0,0,1-.34.15l-.45.13a2.56,2.56,0,0,1-.54.06,1.77,1.77,0,0,1-.55-.08,1.32,1.32,0,0,1-.45-.25,1.2,1.2,0,0,1-.31-.4,1.31,1.31,0,0,1-.11-.56V98.52h-1v-.57h1V95.46h.7v2.49h1.69v.57h-1.69v5.31a.7.7,0,0,0,.28.61,1,1,0,0,0,.63.2,1.75,1.75,0,0,0,.75-.15l.38-.19Z" fill="#fff"/><path d="M159.24,105.35a3.39,3.39,0,0,1-1.43-.3,3.51,3.51,0,0,1-1.14-.82,3.89,3.89,0,0,1-.75-1.21,3.93,3.93,0,0,1-.27-1.47,3.84,3.84,0,0,1,1-2.63,3.5,3.5,0,0,1,1.13-.8,3.52,3.52,0,0,1,2.83,0,3.55,3.55,0,0,1,1.13.81,3.71,3.71,0,0,1,.74,1.19,3.88,3.88,0,0,1,.27,1.43v.17a.37.37,0,0,1,0,.13h-6.37a3.23,3.23,0,0,0,.29,1.17,3.31,3.31,0,0,0,.64.93,2.88,2.88,0,0,0,.89.61,2.61,2.61,0,0,0,1.08.22,2.66,2.66,0,0,0,.74-.1,3,3,0,0,0,.68-.29,2.45,2.45,0,0,0,.56-.44,2.1,2.1,0,0,0,.38-.57l.61.17a2.31,2.31,0,0,1-.45.72,3.09,3.09,0,0,1-.7.57,3.66,3.66,0,0,1-1.85.5Zm2.85-4.05a3.3,3.3,0,0,0-.29-1.17,3.18,3.18,0,0,0-.63-.92,2.86,2.86,0,0,0-.89-.6,2.78,2.78,0,0,0-2.15,0,2.84,2.84,0,0,0-.89.6,2.92,2.92,0,0,0-.62.92,3.52,3.52,0,0,0-.27,1.17Z" fill="#fff"/><path d="M164.56,106.35l.21-1.1h-.25V104h.71v1.22l-.29,1.1Z" fill="#fff"/><path d="M174.45,104.86l-.19.1a1.92,1.92,0,0,1-.34.15l-.45.13a2.56,2.56,0,0,1-.54.06,1.77,1.77,0,0,1-.55-.08,1.32,1.32,0,0,1-.45-.25,1.2,1.2,0,0,1-.31-.4,1.31,1.31,0,0,1-.11-.56V98.52h-1v-.57h1V95.46h.7v2.49h1.69v.57H172.2v5.31a.7.7,0,0,0,.28.61,1,1,0,0,0,.63.2,1.75,1.75,0,0,0,.75-.15l.38-.19Z" fill="#fff"/><path d="M178.55,105.35a3.34,3.34,0,0,1-1.42-.3,3.47,3.47,0,0,1-1.12-.82,3.77,3.77,0,0,1-.74-1.2,3.94,3.94,0,0,1-.26-1.44,3.92,3.92,0,0,1,1-2.66,3.55,3.55,0,0,1,1.13-.82,3.32,3.32,0,0,1,1.4-.3,3.28,3.28,0,0,1,1.4.3,3.66,3.66,0,0,1,1.12.82,3.85,3.85,0,0,1,.76,1.2,3.94,3.94,0,0,1-.75,4.09,3.49,3.49,0,0,1-1.13.82A3.3,3.3,0,0,1,178.55,105.35Zm-2.85-3.73a3.28,3.28,0,0,0,.22,1.21,3.15,3.15,0,0,0,.61,1,2.85,2.85,0,0,0,.9.66,2.61,2.61,0,0,0,2.21,0,2.86,2.86,0,0,0,.91-.68,3.37,3.37,0,0,0,.61-3.43,3.2,3.2,0,0,0-.61-1,3.06,3.06,0,0,0-.9-.68,2.44,2.44,0,0,0-1.1-.25,2.49,2.49,0,0,0-1.1.25,2.87,2.87,0,0,0-.9.68,3.39,3.39,0,0,0-.61,1A3.25,3.25,0,0,0,175.7,101.62Z" fill="#fff"/><path d="M186,105.35q-2.32,0-2.32-3.21V97.95h.7V102q0,2.68,1.83,2.68a2.58,2.58,0,0,0,.89-.16,3.15,3.15,0,0,0,.81-.45,3.12,3.12,0,0,0,.66-.69,3.52,3.52,0,0,0,.45-.89V97.95h.7v6.29c0,.23.1.35.29.35v.63h-.21a.77.77,0,0,1-.5-.17.57.57,0,0,1-.22-.47V103.5a3.5,3.5,0,0,1-3.1,1.86Z" fill="#fff"/><path d="M195.22,104.86l-.19.1a1.92,1.92,0,0,1-.34.15l-.45.13a2.56,2.56,0,0,1-.54.06,1.77,1.77,0,0,1-.55-.08,1.32,1.32,0,0,1-.45-.25,1.2,1.2,0,0,1-.31-.4,1.31,1.31,0,0,1-.11-.56V98.52h-1v-.57h1V95.46h.7v2.49h1.69v.57H193v5.31a.7.7,0,0,0,.28.61,1,1,0,0,0,.63.2,1.75,1.75,0,0,0,.75-.15l.38-.19Z" fill="#fff"/><path d="M202.35,105.35a4.66,4.66,0,0,1-1.61-.28,3.69,3.69,0,0,1-1.34-.84l.35-.47a4.07,4.07,0,0,0,1.22.78,3.68,3.68,0,0,0,1.38.25,2.66,2.66,0,0,0,1.53-.4,1.27,1.27,0,0,0,.58-1.11,1,1,0,0,0-.15-.57,1.18,1.18,0,0,0-.44-.39,3.55,3.55,0,0,0-.73-.29l-1-.27q-.62-.14-1.07-.28a2.83,2.83,0,0,1-.75-.33,1.3,1.3,0,0,1-.44-.47,1.53,1.53,0,0,1-.15-.71,2,2,0,0,1,.21-1,1.88,1.88,0,0,1,.58-.67,2.66,2.66,0,0,1,.85-.4,3.85,3.85,0,0,1,1-.13,3.75,3.75,0,0,1,1.51.29,2.64,2.64,0,0,1,1,.73l-.39.38a2.22,2.22,0,0,0-.94-.63,3.61,3.61,0,0,0-1.24-.21,3.37,3.37,0,0,0-.76.08,1.86,1.86,0,0,0-.62.27,1.3,1.3,0,0,0-.42.47,1.42,1.42,0,0,0-.15.68,1.09,1.09,0,0,0,.1.52.89.89,0,0,0,.33.34,2.52,2.52,0,0,0,.59.24l.87.23,1.22.32a3.55,3.55,0,0,1,.89.38,1.66,1.66,0,0,1,.54.53,1.48,1.48,0,0,1,.19.78,1.86,1.86,0,0,1-.76,1.56A3.28,3.28,0,0,1,202.35,105.35Z" fill="#fff"/><path d="M206.77,96.3V95h.7V96.3Zm0,8.92V97.95h.7v7.27Z" fill="#fff"/><path d="M220.34,105.21h-.7v-4.05a3.81,3.81,0,0,0-.43-2,1.45,1.45,0,0,0-1.31-.66,2.21,2.21,0,0,0-.85.17,2.57,2.57,0,0,0-.74.47,3,3,0,0,0-.58.71,3.75,3.75,0,0,0-.38.92v4.49h-.7v-4.05a3.88,3.88,0,0,0-.42-2,1.44,1.44,0,0,0-1.3-.65,2.23,2.23,0,0,0-.85.16,2.48,2.48,0,0,0-.73.46,3.29,3.29,0,0,0-.59.71,3.4,3.4,0,0,0-.4.91v4.5h-.7V97.95h.66v1.73a3.54,3.54,0,0,1,1.17-1.37,2.81,2.81,0,0,1,1.61-.49,2.08,2.08,0,0,1,1.5.54,2.31,2.31,0,0,1,.69,1.43,3.15,3.15,0,0,1,2.85-2,1.83,1.83,0,0,1,1.7.85,4.61,4.61,0,0,1,.51,2.37Z" fill="#fff"/><path d="M226,105.35a2.91,2.91,0,0,1-1.67-.5,4.06,4.06,0,0,1-1.18-1.21v4.54h-.7V97.95h.64V99.4a3.55,3.55,0,0,1,1.18-1.14,3,3,0,0,1,1.57-.44,3.09,3.09,0,0,1,1.4.32,3.62,3.62,0,0,1,1.1.85,4,4,0,0,1,1,2.61,4.36,4.36,0,0,1-.24,1.44,3.69,3.69,0,0,1-.68,1.2,3.21,3.21,0,0,1-1.05.82A3,3,0,0,1,226,105.35Zm-.17-.63a2.48,2.48,0,0,0,1.15-.26,2.78,2.78,0,0,0,.88-.71,3.25,3.25,0,0,0,.56-1,3.55,3.55,0,0,0,.19-1.15,3.24,3.24,0,0,0-.22-1.19,3.19,3.19,0,0,0-.62-1,3.09,3.09,0,0,0-.93-.69,2.55,2.55,0,0,0-1.13-.26,2.3,2.3,0,0,0-.8.16,3.45,3.45,0,0,0-.8.43,3.08,3.08,0,0,0-.64.62,1.47,1.47,0,0,0-.31.74v2.39a3.5,3.5,0,0,0,.46.75,3.63,3.63,0,0,0,.63.62,2.86,2.86,0,0,0,.75.41A2.44,2.44,0,0,0,225.83,104.72Z" fill="#fff"/><path d="M231.05,95h.71v8.76a.88.88,0,0,0,.23.64.85.85,0,0,0,.64.24,2.27,2.27,0,0,0,.37,0,1.94,1.94,0,0,0,.4-.1l.14.56a3,3,0,0,1-.59.16,3.49,3.49,0,0,1-.6.06,1.28,1.28,0,0,1-.94-.36,1.3,1.3,0,0,1-.36-1Z" fill="#fff"/><path d="M237.71,105.35a3.39,3.39,0,0,1-1.43-.3,3.51,3.51,0,0,1-1.14-.82,3.89,3.89,0,0,1-.75-1.21,3.93,3.93,0,0,1-.27-1.47,3.84,3.84,0,0,1,1-2.63,3.5,3.5,0,0,1,1.13-.8,3.52,3.52,0,0,1,2.83,0,3.55,3.55,0,0,1,1.13.81,3.71,3.71,0,0,1,.74,1.19,3.88,3.88,0,0,1,.27,1.43v.17a.37.37,0,0,1,0,.13h-6.37a3.23,3.23,0,0,0,.29,1.17,3.31,3.31,0,0,0,.64.93,2.88,2.88,0,0,0,.89.61,2.61,2.61,0,0,0,1.08.22,2.66,2.66,0,0,0,.74-.1,3,3,0,0,0,.68-.29,2.45,2.45,0,0,0,.56-.44,2.1,2.1,0,0,0,.38-.57l.61.17a2.31,2.31,0,0,1-.45.72,3.09,3.09,0,0,1-.7.57,3.66,3.66,0,0,1-1.85.5Zm2.85-4.05a3.3,3.3,0,0,0-.29-1.17,3.18,3.18,0,0,0-.63-.92,2.86,2.86,0,0,0-.89-.6,2.78,2.78,0,0,0-2.15,0,2.84,2.84,0,0,0-.89.6,2.92,2.92,0,0,0-.62.92,3.52,3.52,0,0,0-.27,1.17Z" fill="#fff"/><path d="M253.44,105.21h-.7v-4.05a3.81,3.81,0,0,0-.43-2,1.45,1.45,0,0,0-1.31-.66,2.21,2.21,0,0,0-.85.17,2.57,2.57,0,0,0-.74.47,3,3,0,0,0-.58.71,3.75,3.75,0,0,0-.38.92v4.49h-.7v-4.05a3.88,3.88,0,0,0-.42-2,1.44,1.44,0,0,0-1.3-.65,2.23,2.23,0,0,0-.85.16,2.48,2.48,0,0,0-.73.46,3.29,3.29,0,0,0-.59.71,3.4,3.4,0,0,0-.4.91v4.5h-.7V97.95h.66v1.73a3.54,3.54,0,0,1,1.17-1.37,2.81,2.81,0,0,1,1.61-.49,2.08,2.08,0,0,1,1.5.54,2.31,2.31,0,0,1,.69,1.43,3.15,3.15,0,0,1,2.85-2,1.83,1.83,0,0,1,1.7.85,4.61,4.61,0,0,1,.51,2.37Z" fill="#fff"/><path d="M258.64,105.35a3.39,3.39,0,0,1-1.43-.3,3.51,3.51,0,0,1-1.14-.82,3.89,3.89,0,0,1-.75-1.21,3.93,3.93,0,0,1-.27-1.47,3.84,3.84,0,0,1,1-2.63,3.5,3.5,0,0,1,1.13-.8,3.52,3.52,0,0,1,2.83,0,3.55,3.55,0,0,1,1.13.81,3.71,3.71,0,0,1,.74,1.19,3.88,3.88,0,0,1,.27,1.43v.17a.37.37,0,0,1,0,.13h-6.37a3.23,3.23,0,0,0,.29,1.17,3.31,3.31,0,0,0,.64.93,2.88,2.88,0,0,0,.89.61,2.61,2.61,0,0,0,1.08.22,2.66,2.66,0,0,0,.74-.1,3,3,0,0,0,.68-.29,2.45,2.45,0,0,0,.56-.44,2.1,2.1,0,0,0,.38-.57l.61.17a2.31,2.31,0,0,1-.45.72,3.09,3.09,0,0,1-.7.57,3.66,3.66,0,0,1-1.85.5Zm2.85-4.05a3.3,3.3,0,0,0-.29-1.17,3.18,3.18,0,0,0-.63-.92,2.86,2.86,0,0,0-.89-.6,2.78,2.78,0,0,0-2.15,0,2.84,2.84,0,0,0-.89.6,2.92,2.92,0,0,0-.62.92,3.52,3.52,0,0,0-.27,1.17Z" fill="#fff"/><path d="M269.64,105.21h-.7v-4.05a4,4,0,0,0-.4-2.05,1.38,1.38,0,0,0-1.27-.64,2.63,2.63,0,0,0-.91.17,3.09,3.09,0,0,0-.85.47,3.48,3.48,0,0,0-.68.72,3,3,0,0,0-.43.89v4.5h-.7V97.95h.66v1.73a3.42,3.42,0,0,1,.55-.76,3.46,3.46,0,0,1,.74-.59,3.72,3.72,0,0,1,.87-.38,3.41,3.41,0,0,1,1-.13,1.79,1.79,0,0,1,1.68.83,4.76,4.76,0,0,1,.49,2.38Z" fill="#fff"/><path d="M274.92,104.86l-.19.1a1.92,1.92,0,0,1-.34.15l-.45.13a2.56,2.56,0,0,1-.54.06,1.77,1.77,0,0,1-.55-.08,1.32,1.32,0,0,1-.45-.25,1.2,1.2,0,0,1-.31-.4A1.31,1.31,0,0,1,272,104V98.52h-1v-.57h1V95.46h.7v2.49h1.69v.57h-1.69v5.31a.7.7,0,0,0,.28.61,1,1,0,0,0,.63.2,1.75,1.75,0,0,0,.75-.15l.38-.19Z" fill="#fff"/><path d="M276,105.21V104h.62v1.19Z" fill="#fff"/></svg>