<?xml version="1.0" encoding="UTF-8" standalone="no"?>
<svg width="353px" height="233px" viewBox="0 0 353 233" version="1.1" xmlns="http://www.w3.org/2000/svg" xmlns:xlink="http://www.w3.org/1999/xlink">
    <!-- Generator: Sketch 42 (36781) - http://www.bohemiancoding.com/sketch -->
    <title>PiratageFichier 1</title>
    <desc>Created with Sketch.</desc>
    <defs></defs>
    <g id="Page-1" stroke="none" stroke-width="1" fill="none" fill-rule="evenodd">
        <g id="Product-page-:-Risques-digitaux" transform="translate(-127.000000, -973.000000)">
            <g id="PiratageFichier-1" transform="translate(127.000000, 973.000000)">
                <g id="0a57df46-4e88-4f2f-876f-61886164b8e7">
                    <g>
                        <g id="0aadc254-d909-49aa-b1b8-f7a210b7c0f8">
                            <g id="605a8378-a196-4608-afaa-e81093a42104">
                                <g id="8b93eb43-e7d3-489f-964b-df16ef89599c">
                                    <g id="4923c062-b847-4f6b-a094-c73d79a3ee66">
                                        <path d="M350.54902,204.090741 L334.174118,204.090741 L334.174118,203.227778 L334.174118,20.7111111 C334.174118,9.27268029 324.903778,7.00401884e-16 313.468235,0 L36.9411765,0 C25.5056334,-7.00401884e-16 16.2352941,9.27268029 16.2352941,20.7111111 L16.2352941,203.227778 L16.2352941,204.090741 L2,204.090741 L2,222.817037 C2.00949015,227.197831 5.55756704,230.746804 9.9372549,230.756296 L344.078431,230.756296 C348.458119,230.746804 352.006196,227.197831 352.015686,222.817037 L352.015686,205.506 C352.011185,205.123017 351.853543,204.757787 351.577964,204.491867 C351.302384,204.225947 350.93182,204.081485 350.54902,204.090741 Z" id="Shape" fill="#ADADAD" fill-rule="nonzero"></path>
                                        <rect id="Rectangle-path" fill="#DFE8A0" fill-rule="nonzero" x="30" y="16" width="292.039216" height="178.115556"></rect>
                                        <path d="M318.063529,0 C327.559558,-0.000118731067 335.270951,7.67465536 335.318431,17.172963 L335.318431,207.111111 C335.318431,207.249185 17.3105882,207.352741 17.3105882,207.352741 L17,17.2592593 C17,7.72723358 24.7252827,1.75100471e-15 34.254902,0 L318.063529,0 Z" id="930e8d13-b333-465d-982e-40aa5e77b3c1"></path>
                                        <path d="M231.798431,215.335185 C229.682317,217.086483 227.021826,218.044746 224.275294,218.044889 L136.413333,218.044889 C130.565568,218.045497 125.591018,213.780521 124.697255,208 L5,208 L5,223.740444 C5,226.132983 6.93904597,228.072519 9.33098039,228.072519 L342.643922,228.072519 C345.00891,228.044261 346.913883,226.12344 346.923137,223.757704 L346.923137,208.017259 L235.974118,208.017259 C235.588378,210.501652 234.422001,212.798726 232.643922,214.575778 C232.367843,214.805901 232.086013,215.059037 231.798431,215.335185 Z" id="7ee70a2a-46b2-4676-8a16-904a0c919cfa"></path>
                                        <polygon id="05eeb85b-6e7a-4b30-95d8-6c6c670c2051" fill="#FFFFFF" fill-rule="nonzero" points="124.839216 203 0 203 0 203"></polygon>
                                        <polygon id="ea91c27b-d489-46d2-9c2e-a62b2382968b" fill="#FFFFFF" fill-rule="nonzero" points="218 203 218 203 334.142745 203 334.142745 203"></polygon>
                                        <path d="M342.974118,232.815333 L9.64392157,232.815333 C6.58277005,232.825464 3.71722399,231.311452 2,228.776667 C3.71722399,231.311452 6.58277005,232.825464 9.64392157,232.815333 L342.974118,232.815333 C346.350865,232.817955 349.457486,230.969413 351.066667,228 C349.457486,230.969413 346.350865,232.817955 342.974118,232.815333 L342.974118,232.815333 Z" id="c2a819df-1d35-421f-9685-35492a14498a" fill="#FFFFFF" fill-rule="nonzero"></path>
                                        <polygon id="8bdf210f-785f-45d4-b722-8496b556fe42" fill="#FFFFFF" fill-rule="nonzero" points="213.38902 203 213.38902 203 113 203 113 203"></polygon>
                                        <ellipse id="a9f390f4-96e3-4c0b-acbe-d8943c3df683" fill="#FFFFFF" fill-rule="nonzero" cx="218.189804" cy="203.189852" rx="0.189803922" ry="0.189851852"></ellipse>
                                        <path d="M218.655686,206.123926 C218.642575,206.706676 218.561503,207.285904 218.414118,207.849852 L218.414118,207.849852 C218.850766,206.234844 218.704131,204.51755 218,203 L218,203 C218.435364,203.983728 218.658772,205.048125 218.655686,206.123926 Z" id="ebdcdaaf-4f1e-4421-becb-587aff591e5f" fill="#FFFFFF" fill-rule="nonzero"></path>
                                        <ellipse id="99319086-201b-41ed-a22b-6b9304e0886a" fill="#FFFFFF" fill-rule="nonzero" cx="107.189804" cy="203.189852" rx="0.189803922" ry="0.189851852"></ellipse>
                                        <path d="M107.004958,206.072148 C107.00908,205.013796 107.232332,203.967772 107.660645,203 L107.660645,203 C106.956514,204.51755 106.809878,206.234844 107.246527,207.849852 L107.246527,207.849852 C107.098986,207.285935 107.017912,206.706689 107.004958,206.123926 L107.004958,206.072148 Z" id="ab16d2a3-e1dc-4680-a82c-e252f52707f9" fill="#FFFFFF" fill-rule="nonzero"></path>
                                        <polygon id="31b7c916-6e4f-4bb2-a76f-4779e1ef594b" fill="#FFFFFF" fill-rule="nonzero" points="113.193725 203 108 203 108 203"></polygon>
                                        <polygon id="4e731cdb-4b0b-4872-b8c9-cf50c4f68dba" fill="#FFFFFF" fill-rule="nonzero" points="218.176471 203 218.176471 203 213 203 213 203"></polygon>
                                        <path d="M335.003922,202.675481 L335.003922,17.2592593 C335.003922,7.72723358 327.278639,5.83668237e-16 317.74902,0 L33.9403922,0 C24.4107729,-5.83668237e-16 16.6854902,7.72723358 16.6854902,17.2592593 L16.6854902,202.606444 L0,202.606444 L0,223.214 C0.009516991,228.287828 4.12430654,232.395935 9.19686275,232.395926 L342.544314,232.395926 C347.61687,232.395935 351.731659,228.287828 351.741176,223.214 L351.741176,202.675481 L335.003922,202.675481 Z M21.9482353,17.2592593 C21.948066,10.6203973 27.3033756,5.22519822 33.9403922,5.17777778 L317.818039,5.17777778 C324.448307,5.23462508 329.793185,10.6270739 329.792941,17.2592593 L329.792941,202.192222 L21.9482353,202.192222 L21.9482353,17.2592593 Z M346.823529,223.214 C346.823529,225.606538 344.884483,227.546074 342.492549,227.546074 L9.21411765,227.546074 C8.0595026,227.555277 6.94901442,227.102929 6.12931889,226.289508 C5.30962337,225.476087 4.8485908,224.368943 4.84862745,223.214 L4.84862745,207.473556 L124.580392,207.473556 L124.580392,207.387259 L124.580392,207.387259 L124.580392,207.525333 L124.580392,207.525333 C125.475149,213.312324 130.459423,217.579354 136.313725,217.570222 L224.210196,217.570222 C226.962654,217.574101 229.629909,216.6156 231.750588,214.860519 C232.036135,214.624151 232.306967,214.370542 232.561569,214.101111 C234.339648,212.324059 235.506025,210.026985 235.891765,207.542593 L230.870588,207.542593 C230.077932,210.613873 227.294954,212.749689 224.123922,212.72037 L136.313725,212.72037 C133.155518,212.733802 130.391099,210.601321 129.601569,207.542593 L230.818824,207.542593 C230.800333,207.492466 230.800333,207.437385 230.818824,207.387259 L230.818824,207.387259 L230.818824,207.473556 L346.823529,207.473556 L346.823529,223.214 Z" id="e2d96ebe-4028-4f56-9281-22a480e6f72c" fill="#000000" fill-rule="nonzero"></path>
                                        <path d="M321.470588,194.547037 L29,194.547037 L29,16 L321.470588,16 L321.470588,194.547037 Z M33.054902,190.50837 L317.415686,190.50837 L317.415686,20.0386667 L33.054902,20.0386667 L33.054902,190.50837 Z" id="c9b64743-3b8e-45be-9c69-7485b70f93fa" fill="#000000" fill-rule="nonzero"></path>
                                        <path d="M114.125934,93.414914 C121.052201,95.7766521 128.131692,97.662302 135.314954,99.0586918 L156.314169,115.40321 C157.49928,116.352298 159.18396,116.352298 160.369071,115.40321 L175.346326,103.787729 L176.002013,104.305507 L190.323581,115.42047 C191.508692,116.369557 193.193372,116.369557 194.378483,115.42047 L216.102405,98.5063955 C216.300956,98.3495259 216.480477,98.1699597 216.637307,97.9713585 C223.451154,96.2193396 230.12905,93.9755076 236.618483,91.2575066 C238.281402,90.5616688 239.065518,88.6491784 238.369856,86.98584 C237.674193,85.3225015 235.762186,84.5381873 234.099267,85.2340251 C227.534636,87.9603425 220.767457,90.1704739 213.859267,91.8443214 L199.485934,51.2505437 C198.905681,49.5886809 197.106514,48.6926995 195.431032,49.2312103 L170.618483,57.0841733 L155.727503,49.3692844 C154.87146,48.9216119 153.86049,48.8788333 152.969706,49.2525897 C152.078923,49.6263461 151.401009,50.3777492 151.120444,51.3023214 L138.351816,92.7245437 C130.90455,91.3980533 123.559072,89.5525695 116.369071,87.2015807 C114.672799,86.5915311 112.803281,87.4724357 112.193385,89.1691363 C111.583489,90.8658368 112.464172,92.7358274 114.160444,93.345877 L114.125934,93.414914 Z M156.14162,56.9806177 L168.737699,63.521877 L168.737699,63.521877 L180.298483,69.5280992 C181.334133,70.0645534 182.577236,70.0076053 183.559526,69.3787068 C184.541817,68.7498082 185.114062,67.6445039 185.060703,66.4791512 C185.007343,65.3137985 184.336486,64.2654422 183.300836,63.7289881 L178.693777,61.2954326 L194.361228,56.2902474 L201.677307,77.1566918 L149.912601,77.1566918 L156.14162,56.9806177 Z M147.928287,83.7152103 L204.075738,83.7152103 L207.440444,93.2078029 C186.731141,97.0157769 165.522367,97.2434464 144.73613,93.880914 L147.928287,83.7152103 Z" id="154bf8d1-104f-4fc0-a852-d5bf01f5bdee" fill="#000000" fill-rule="nonzero"></path>
                                        <path d="M245.36999,149.523288 C245.26034,148.146088 244.290881,146.98937 242.954303,146.640992 L213.465676,138.891584 L217.313519,110.758992 C217.524059,109.446988 216.913568,108.139182 215.772747,107.45832 C214.631926,106.777458 213.191374,106.861166 212.137048,107.669584 L176.522931,133.558473 L140.908813,107.669584 C139.854488,106.861166 138.413936,106.777458 137.273115,107.45832 C136.132294,108.139182 135.521802,109.446988 135.732343,110.758992 L139.580186,138.891584 L110.177833,146.640992 C108.811691,146.991186 107.82827,148.184146 107.744892,149.592325 L105.001362,189.78914 C104.951186,191.53601 106.293177,193.008823 108.036759,193.120441 C109.780341,193.232058 111.299086,191.942378 111.47195,190.203362 L113.904892,152.232992 L142.323715,144.915066 L162.460186,161.535733 C163.357132,162.281836 164.583886,162.492627 165.678341,162.088703 C166.772795,161.68478 167.568676,160.727507 167.766184,159.577481 C167.963691,158.427455 167.532819,157.259391 166.635872,156.513288 L146.275088,139.547436 L143.25548,117.300251 L173.261754,139.081436 L173.261754,189.461214 C173.261754,191.267533 174.725695,192.731844 176.531558,192.731844 C178.337421,192.731844 179.801362,191.267533 179.801362,189.461214 L179.801362,139.150473 L209.773127,117.300251 L206.805284,139.547436 L186.392735,156.530547 C185.495788,157.27665 185.064915,158.444714 185.262423,159.59474 C185.45993,160.744767 186.255812,161.702039 187.350266,162.105963 C188.444721,162.509886 189.671474,162.299095 190.568421,161.552992 L210.601362,144.915066 L239.020186,152.371066 L241.453127,190.341436 C241.553762,192.058915 242.977059,193.399272 244.697048,193.396325 L244.904107,193.396325 C245.765097,193.343116 246.569441,192.949079 247.13932,192.301326 C247.709199,191.653573 247.997673,190.805457 247.94097,189.944473 L245.36999,149.523288 Z" id="0dfb71b1-4685-4084-804f-2814e9c72151" fill="#000000" fill-rule="nonzero"></path>
                                        <path d="M69,46 L91.4313725,46" id="Shape" stroke="#000000" stroke-width="2" stroke-linecap="round"></path>
                                        <path d="M81,68 L119.823529,68" id="Shape" stroke="#000000" stroke-width="2" stroke-linecap="round"></path>
                                        <path d="M235,55 L258.72549,55" id="Shape" stroke="#000000" stroke-width="2" stroke-linecap="round"></path>
                                        <path d="M249,69 L295.156863,69" id="Shape" stroke="#000000" stroke-width="2" stroke-linecap="round"></path>
                                        <path d="M85.4313725,131 L63,131" id="Shape" stroke="#000000" stroke-width="2" stroke-linecap="round"></path>
                                        <path d="M69.7843137,154 L37,154" id="Shape" stroke="#000000" stroke-width="2" stroke-linecap="round"></path>
                                        <path d="M251,85 L279.039216,85" id="Shape" stroke="#000000" stroke-width="2" stroke-linecap="round"></path>
                                        <path d="M247,136 L277.403137,136" id="Shape" stroke="#000000" stroke-width="2" stroke-linecap="round"></path>
                                        <path d="M262,155 L303.946667,155" id="Shape" stroke="#000000" stroke-width="2" stroke-linecap="round"></path>
                                    </g>
                                </g>
                            </g>
                        </g>
                    </g>
                </g>
            </g>
        </g>
    </g>
</svg>