<?xml version="1.0" encoding="UTF-8" standalone="no"?>
<svg width="44px" height="44px" viewBox="0 0 44 44" version="1.1" xmlns="http://www.w3.org/2000/svg" xmlns:xlink="http://www.w3.org/1999/xlink">
    <!-- Generator: Sketch 42 (36781) - http://www.bohemiancoding.com/sketch -->
    <title>Twitter-color</title>
    <desc>Created with Sketch.</desc>
    <defs></defs>
    <g id="Page-1" stroke="none" stroke-width="1" fill="none" fill-rule="evenodd">
        <g id="LANDING-HV" transform="translate(-669.000000, -5657.000000)">
            <g id="Group-5" transform="translate(598.000000, 5657.000000)">
                <g id="Twitter-color" transform="translate(71.000000, 0.000000)">
                    <g id="Icons">
                        <g>
                            <g id="Color-">
                                <g id="Twitter_Logo_White_On_Blue">
                                    <g id="Twitter_Logo_White-on-Blue">
                                        <g id="Dark_Blue" fill="#1DA1F2">
                                            <rect id="Rectangle-path" x="0" y="0" width="43.3712095" height="43.3712095" rx="3"></rect>
                                        </g>
                                        <g id="Logo_FIXED">
                                            <path d="M16.656713,32.7008077 C26.8858128,32.7008077 32.4806988,24.2260733 32.4806988,16.8768219 C32.4806988,16.6361117 32.4806988,16.3964857 32.4644346,16.1579441 C33.5528691,15.37066 34.4924241,14.3958579 35.2391077,13.2791801 C34.2240903,13.7289414 33.147346,14.0238948 32.0448181,14.1541942 C33.2058047,13.4591511 34.0747247,12.3659689 34.4898701,11.0780912 C33.3981706,11.7259002 32.2038236,12.1824436 30.9583693,12.4280201 C29.2344535,10.5949297 26.4951676,10.1462744 24.2765458,11.3336343 C22.057924,12.5209941 20.9117268,15.0490786 21.4806758,17.500283 C17.008991,17.2761076 12.842731,15.1640096 10.0187494,11.6896252 C8.54263495,14.2307929 9.29660561,17.4816979 11.7405864,19.113692 C10.8555331,19.0874606 9.98977674,18.8487082 9.21638201,18.4175841 L9.21638201,18.4880623 C9.21710646,21.1354333 11.0832431,23.415612 13.6781952,23.9398234 C12.8594222,24.1631201 12.0003589,24.1957615 11.1670022,24.03524 C11.895582,26.3007599 13.9835009,27.8527564 16.3628731,27.8974462 C14.3935329,29.4451825 11.9607598,30.2853867 9.45600795,30.2828627 C9.01351705,30.2820133 8.57145654,30.2552217 8.13210178,30.202626 C10.6754285,31.8347676 13.6347301,32.7005007 16.656713,32.6964705" id="Shape" fill="#FFFFFF"></path>
                                            <rect id="Rectangle-path" x="0" y="0" width="43.3712095" height="43.3712095"></rect>
                                        </g>
                                    </g>
                                </g>
                            </g>
                        </g>
                    </g>
                </g>
            </g>
        </g>
    </g>
</svg>