<?xml version="1.0" encoding="UTF-8" standalone="no"?>
<svg width="320px" height="152px" viewBox="0 0 320 152" version="1.1" xmlns="http://www.w3.org/2000/svg" xmlns:xlink="http://www.w3.org/1999/xlink">
    <!-- Generator: Sketch 42 (36781) - http://www.bohemiancoding.com/sketch -->
    <title>EXTENDED WARRANTY</title>
    <desc>Created with Sketch.</desc>
    <defs></defs>
    <g id="Page-1" stroke="none" stroke-width="1" fill="none" fill-rule="evenodd">
        <g id="EXTENDED-WARRANTY">
            <g id="WarrantyFichier-27-Copy" transform="translate(112.000000, 29.000000)">
                <g id="WarrantyFichier-27" transform="translate(0.000000, -0.000000)">
                    <g id="d100eddc-7808-4e4c-86b2-6ec22d41ed28">
                        <g id="9049617c-cd1f-4579-bb37-c1d8f04dbea7">
                            <path d="M71.461485,58.1342431 L36.8503634,93.1478196 C35.1274405,94.8907765 31.8778771,94.4715843 29.6315346,92.1770588 L4.46377516,66.716651 C2.28286013,64.5103765 1.78124967,61.1568392 3.50417255,59.4138824 L38.1152941,24.3341176" id="Shape" fill="#FEFABF"></path>
                            <path d="M34.1024105,95.6629725 L33.2736627,95.6629725 C31.5139485,95.394552 29.8897914,94.5497801 28.6501229,93.2581333 L3.46055425,67.7315373 C2.16772058,66.4837163 1.31698128,64.8399875 1.03973856,63.0542353 C0.765763395,61.3635481 1.29041502,59.6406447 2.45733333,58.3989961 L37.1338824,23.3854196 L39.1403242,25.4151922 L4.52920261,60.4287686 C3.99951156,61.0291853 3.77407806,61.8436669 3.91854641,62.6350431 C4.07392795,63.7920508 4.59400847,64.8675183 5.40156863,65.7017647 L30.6347556,91.1621725 C31.4358293,92.0030799 32.4836568,92.5601663 33.6226092,92.7506902 C34.4048892,92.8968384 35.2100088,92.6687836 35.8035242,92.1329333 L70.4582641,57.1193569 L72.4647059,59.1491294 L37.8535843,94.1627059 C36.8501963,95.1475913 35.5002763,95.6874863 34.1024105,95.6629725 L34.1024105,95.6629725 Z" id="Shape" fill="#000000"></path>
                            <path d="M79.3563974,48.1177569 C79.804053,47.6358592 80.0400347,46.9913 80.0106719,46.3306745 L80.0106719,32.5855843 C79.9383824,31.2608547 79.3689293,30.0140083 78.4186039,29.0996706 L66.4671895,17.207851 C65.6041422,16.2030112 64.3783244,15.5909245 63.0649621,15.5090196 L49.7613804,15.6634588 C49.1299369,15.6466888 48.5178585,15.8848409 48.0602667,16.3253412 L39.118515,25.3710667 L70.6327373,57.2737961 L70.4582641,57.0972941 L79.3563974,48.1177569 Z M66.0746248,35.3654902 C63.64685,35.3644569 61.5223184,33.7142623 60.8943891,31.3418285 C60.2664599,28.9693947 61.2916422,26.4660424 63.3940865,25.2379163 C65.4965308,24.0097902 68.1522101,24.3629963 69.869417,26.0991373 L69.869417,26.0991373 C71.4047635,27.6514125 71.8642163,29.9866564 71.0334164,32.0153537 C70.2026166,34.0440511 68.2452866,35.3664141 66.0746248,35.3654902 L66.0746248,35.3654902 Z" id="Shape" fill="#BADCF5"></path>
                            <polygon id="Shape" fill="#BADCF5" points="38.1371033 24.4003059 38.8568052 25.1283765 38.1371033 24.4003059"></polygon>
                            <path d="M82.7586248,32.5414588 C82.687885,30.4616217 81.8196503,28.4913128 80.3378092,27.0478353 L68.6481046,15.1780784 C67.1890507,13.6605784 65.2005486,12.7814828 63.1085804,12.7291137 L49.8268078,12.8835529 C48.4510689,12.8741898 47.1269989,13.4131466 46.1410614,14.3838196 L37.1993098,23.4074824 L38.1152941,24.3341176 L47.0570458,15.2883922 C47.7808411,14.5790795 48.7538011,14.1901327 49.7613804,14.2073176 L63.0649621,14.0528784 C64.7741763,14.1066472 66.3946544,14.8352342 67.5794562,16.082651 L79.3345882,27.9744706 C80.5319767,29.1349593 81.2491212,30.7120972 81.3410301,32.3870196 L81.3410301,46.1321098 C81.3791742,47.181285 80.9933265,48.2009337 80.2723817,48.9561412 L71.3742484,57.9577412 L70.5455007,57.1193569 L72.3774693,58.9726275 L81.2756026,49.9710275 C82.2288993,49.0247365 82.7903405,47.7468048 82.8458614,46.3968627 L82.7586248,32.5414588 Z" id="Shape" fill="#000000"></path>
                            <polygon id="Shape" fill="#000000" points="39.1403242 25.4151922 39.1403242 25.4151922 38.8568052 25.1283765"></polygon>
                            <path d="M80.3596183,49.1326431 C81.0587324,48.3990983 81.4428602,47.4157166 81.4282667,46.3968627 L81.4282667,32.6517725 C81.3363578,30.9768501 80.6192133,29.3997123 79.4218248,28.2392235 L67.5794562,16.1929647 C66.3946544,14.9455479 64.7741763,14.2169609 63.0649621,14.1631922 L49.7613804,14.3176314 C48.7538011,14.3004464 47.7808411,14.6893932 47.0570458,15.3987059 L38.1152941,24.3341176 L38.8349961,25.0621882 L39.118515,25.3490039 L48.0602667,16.3032784 C48.5178585,15.8627781 49.1299369,15.624626 49.7613804,15.6413961 L63.0649621,15.5090196 C64.3959381,15.5447402 65.6554299,16.1260652 66.5544261,17.1196 L78.3095582,29.0114196 C79.2598836,29.9257573 79.8293366,31.1726037 79.9016261,32.4973333 L79.9016261,46.2424235 C79.9309889,46.903049 79.6950073,47.5476082 79.2473516,48.0295059 L70.3492183,57.0311059 L70.5236915,57.2076078 L71.3524392,58.0459922 L80.3596183,49.1326431 Z" id="Shape" fill="#000000"></path>
                            <path d="M69.8476078,26.032949 L69.8476078,26.032949 C67.7520959,23.9143313 64.3557137,23.9150126 62.2610324,26.0344709 C60.1663512,28.1539291 60.1663512,31.5898042 62.2610324,33.7092624 C64.3557137,35.8287207 67.7520959,35.829402 69.8476078,33.7107843 C70.8544404,32.6928501 71.4201235,31.3118714 71.4201235,29.8718667 C71.4201235,28.4318619 70.8544404,27.0508832 69.8476078,26.032949 L69.8476078,26.032949 Z M68.8443869,32.6517725 C67.3027223,34.2110303 64.8034846,34.2108502 63.2620396,32.6513703 C61.7205946,31.0918905 61.7205946,28.5635919 63.2620396,27.004112 C64.8034846,25.4446322 67.3027223,25.4444521 68.8443869,27.0037098 C69.5982971,27.7543524 70.0228539,28.7796918 70.0228539,29.8498039 C70.0228539,30.9199161 69.5982971,31.9452554 68.8443869,32.695898 L68.8443869,32.6517725 Z" id="Shape" fill="#000000"></path>
                            <path d="M68.8443869,27.0478353 C67.3027223,25.4885776 64.8034846,25.4887577 63.2620396,27.0482375 C61.7205946,28.6077174 61.7205946,31.136016 63.2620396,32.6954958 C64.8034846,34.2549757 67.3027223,34.2551558 68.8443869,32.695898 C69.584861,31.9469738 70.0008683,30.9311186 70.0008683,29.8718667 C70.0008683,28.8126147 69.584861,27.7967595 68.8443869,27.0478353 L68.8443869,27.0478353 Z M67.841166,31.6810118 C67.1177491,32.4132758 66.0294926,32.6325157 65.0839635,32.2364772 C64.1384344,31.8404387 63.5218907,30.9071366 63.5218907,29.8718667 C63.5218907,28.8365967 64.1384344,27.9032947 65.0839635,27.5072562 C66.0294926,27.1112177 67.1177491,27.3304576 67.841166,28.0627216 C68.8284294,29.0620588 68.8284294,30.6816746 67.841166,31.6810118 L67.841166,31.6810118 Z" id="Shape" fill="#000000"></path>
                            <path d="M66.0528157,31.3059451 C65.2947549,31.3067623 64.6702079,30.7041135 64.6352209,29.9380549 C64.6352209,29.5409255 64.2644654,20.2304471 69.7603712,15.2663294 C72.9142733,12.6372285 77.1012629,11.6497203 81.0793203,12.5967373 C86.3135163,13.4571843 89.8029804,12.5967373 91.7221856,10.0595216 C93.1773804,7.68877636 93.513133,4.78552015 92.6381699,2.13899608 C92.288869,1.42008594 92.5817977,0.550837176 93.2924445,0.197474577 C94.0030913,-0.155888022 94.8623487,0.140446765 95.2116497,0.859356863 C96.5791548,4.47461868 96.1321857,8.53589547 94.0121464,11.7583529 C92.2674144,14.1411294 88.5380497,16.7224706 80.6213281,15.4207686 C77.4907876,14.6383813 74.1786035,15.3721108 71.6577673,17.4064157 C67.1650824,21.443898 67.4704105,29.7174275 67.4704105,29.8056784 C67.4881691,30.1861251 67.3555969,30.5580914 67.1019335,30.8395379 C66.8482701,31.1209844 66.4943538,31.2887904 66.1182431,31.3059451 L66.0528157,31.3059451 Z" id="Shape" fill="#000000"></path>
                            <path d="M38.1152941,66.8269647 L35.1492497,63.8264314 L38.1152941,60.8479608 C38.7158284,60.1959851 38.6981085,59.1799958 38.0752128,58.5498572 C37.4523172,57.9197185 36.4480058,57.9017926 35.8035242,58.5093098 L32.8374797,61.5098431 L29.8714353,58.5093098 C29.2269536,57.9017926 28.2226423,57.9197185 27.5997467,58.5498572 C26.976851,59.1799958 26.9591311,60.1959851 27.5596654,60.8479608 L30.5257098,63.8484941 L27.5596654,66.8490275 C26.9591311,67.5010031 26.976851,68.5169924 27.5997467,69.1471311 C28.2226423,69.7772697 29.2269536,69.7951957 29.8714353,69.1876784 L32.7938614,66.2533333 L35.7599059,69.2538667 C36.1884471,69.6795087 36.8089028,69.8415358 37.3875533,69.6789137 C37.9662038,69.5162917 38.4151382,69.0537268 38.5652474,68.4654627 C38.7153566,67.8771986 38.5438354,67.2526067 38.1152941,66.8269647 L38.1152941,66.8269647 Z" id="Shape" fill="#000000"></path>
                            <path d="M38.1371033,24.4003059 L71.461485,58.1342431" id="Shape" fill="#FFFFFF"></path>
                            <rect id="Rectangle-path" fill="#000000" transform="translate(54.796975, 41.275156) rotate(-45.000000) translate(-54.796975, -41.275156) " x="53.3793807" y="17.425329" width="2.83518954" height="47.6996549"></rect>
                        </g>
                    </g>
                </g>
            </g>
        </g>
    </g>
</svg>