<?xml version="1.0" encoding="UTF-8"?>
<svg width="69px" height="54px" viewBox="0 0 69 54" version="1.1" xmlns="http://www.w3.org/2000/svg" xmlns:xlink="http://www.w3.org/1999/xlink">
    <!-- Generator: Sketch 42 (36781) - http://www.bohemiancoding.com/sketch -->
    <title>Heart2Fichier 2</title>
    <desc>Created with Sketch.</desc>
    <defs></defs>
    <g id="FORMULAIRES-SMARTPHONE-720-LARGER" stroke="none" stroke-width="1" fill="none" fill-rule="evenodd">
        <g id="FORM-:-NUMÉRIQUE-Ma-sélection-Objets" transform="translate(-597.000000, -1337.000000)" fill-rule="nonzero" fill="#FFFFFF">
            <g id="Group-5-Copy" transform="translate(563.000000, 1288.000000)">
                <g id="Bitmap-Copy-6">
                    <g id="Heart2Fichier-2" transform="translate(34.000000, 49.000000)">
                        <g id="cc32f94d-680d-4256-9bed-fdec8bb13bb9">
                            <g>
                                <g id="2957574d-3c6c-44cc-8d1a-3d7bef216485">
                                    <path d="M60.940722,26.0440405 C62.6030317,22.5612393 63.030574,19.0271262 62.890187,17.0644427 C62.6381285,13.5367436 61.5597011,10.4131264 59.6804296,7.80904304 C59.5432332,7.60700209 59.4028462,7.42420314 59.2592686,7.25102518 C57.0896512,4.62449284 53.5002108,1.28279968 48.6823841,0.32069992 C47.6753976,0.123627017 46.6516684,0.025884031 45.6257762,0.0288629928 C42.8132927,0.0547549359 40.0505578,0.777349714 37.582239,2.13265447 C36.5939203,2.66151877 35.6496303,3.26961149 34.7585458,3.95102301 L34.4586281,4.16909895 L34.1714729,3.95423001 C32.4779951,2.67426628 30.6119248,1.64303477 28.6293769,0.891545777 C27.0293774,0.29581931 25.3359189,-0.00615847187 23.6296852,1.25244582e-13 C20.8338666,0.0189862199 18.0888568,0.752908623 15.6531509,2.13265447 C12.7396696,3.7762317 10.2850194,6.13098892 8.51574801,8.97959775 C7.30650541,11.0160422 6.56947364,13.3347027 6.20255307,16.2787279 C5.80691697,19.4632781 6.35570252,22.8370413 7.8840065,26.5956443 L8.15520866,27.2594932 L0,27.2594932 L0,29.4145966 L9.50802888,29.4145966 L9.65160649,29.6070166 C12.5997336,33.5259696 18.7448556,39.79886 21.2462967,42.3131474 C24.2103769,45.2892426 27.1265978,48.0857459 29.4621271,50.2151934 C33.5365408,53.9160705 34.0502296,53.9160705 34.5001061,53.9160705 C34.9021235,53.9160705 35.3169032,53.9160705 38.3288426,51.3280221 C40.1889704,49.7245225 42.4766404,47.6014891 44.7834541,45.3437616 C48.2325076,41.9635845 54.6743567,35.3571661 59.1252628,29.1067247 L59.2688404,28.9046838 L68.9842592,28.9046838 L68.9842592,26.7335453 L60.6025169,26.7335453 L60.940722,26.0440405 Z M56.0303675,29.6647426 C49.212026,38.5866143 37.9236346,49.1665047 34.7808801,51.4370601 L34.4969155,51.6423081 L34.2161415,51.4338531 C32.5889285,50.2312284 28.1284505,46.1968234 22.1683841,40.1804929 C18.3396476,36.3320939 15.0501249,32.7787388 12.8741263,30.1971044 L12.2072881,29.4049756 L23.0553747,29.4049756 L24.5900599,25.6143026 L29.9917689,40.6455078 L34.7298303,21.0539497 L39.6529473,37.2011907 L43.2423877,28.8629928 L56.6174404,28.8629928 L56.0303675,29.6647426 Z M58.2637971,26.4994344 L58.1234101,26.7335453 L41.8512801,26.7335453 L40.0134866,30.9924402 L34.4937249,12.9177928 L29.5897516,33.1860277 L24.7081126,19.5979721 L21.6100267,27.2594932 L10.5992188,27.2594932 L10.4588318,27.0285892 C10.3465499,26.8484284 10.2463547,26.6609369 10.1589141,26.4673644 C8.56360722,22.7825223 7.95739061,19.5370391 8.33069242,16.5481159 C8.64975379,13.9119625 9.28787653,11.859483 10.3567321,10.0860125 C11.9295411,7.56045451 14.1098471,5.4737289 16.6964816,4.01836999 C18.8128318,2.81606221 21.1987671,2.17485308 23.6296852,2.15510346 C25.0810224,2.14948784 26.5215724,2.40583873 27.8827733,2.91195527 C30.0314315,3.72817117 32.0279674,4.90232176 33.7885993,6.3851354 L34.4809624,6.95918826 L35.1669444,6.3787214 C36.2184642,5.47801689 37.3629839,4.69316632 38.5809011,4.03761199 C41.7715148,2.34752341 45.0578469,1.79271255 48.2707949,2.43411239 C52.4696426,3.27434618 55.6634469,6.25685543 57.6065307,8.61079284 C57.7150115,8.74227981 57.8203018,8.88018077 57.925592,9.02449574 L57.9447357,9.05015173 C59.5879018,11.3239142 60.5355141,14.0658985 60.758857,17.2023437 C60.8545754,18.7898083 60.4812736,22.7696943 58.2606065,26.4994344 L58.2637971,26.4994344 Z" id="Shape"></path>
                                </g>
                            </g>
                        </g>
                    </g>
                </g>
            </g>
        </g>
    </g>
</svg>