<?xml version="1.0" encoding="UTF-8"?>
<svg width="118px" height="90px" viewBox="0 0 118 90" version="1.1" xmlns="http://www.w3.org/2000/svg" xmlns:xlink="http://www.w3.org/1999/xlink">
    <!-- Generator: Sketch 42 (36781) - http://www.bohemiancoding.com/sketch -->
    <title>Artboard</title>
    <desc>Created with Sketch.</desc>
    <defs></defs>
    <g id="-------" stroke="none" stroke-width="1" fill="none" fill-rule="evenodd">
        <g id="Artboard" fill-rule="nonzero" fill="#FFFFFF">
            <g id="Icon_Fichier-1House" transform="translate(8.000000, 2.000000)">
                <g id="e7520c57-7fe0-4a15-a9bb-de4b4811687a">
                    <g id="d76248a5-b48b-42a4-b15d-eebdf764fcd7">
                        <path d="M98.2129297,13.8346262 C98.1435906,13.4437904 97.8012711,13.1610489 97.4048256,13.1671661 L61.9007728,13.1671661 L51.9893762,0.299345712 C51.830459,0.109941503 51.5960275,0.000573779623 51.3489537,0.000573779623 C51.1018799,0.000573779623 50.8674484,0.109941503 50.7085312,0.299345712 L40.8092562,13.1671661 L5.2850007,13.1671661 C4.88855523,13.1610489 4.54623573,13.4437904 4.47689662,13.8346262 L0.404052041,36.5120865 C0.361801738,36.7498998 0.427896777,36.9941743 0.584265566,37.178121 C0.740634355,37.3620677 0.970919241,37.4664439 1.21215612,37.4627114 L6.32341445,37.4627114 L6.32341445,76.2482072 L3.8991022,76.2482072 C3.45279864,76.2482072 3.09099812,76.6104279 3.09099812,77.0572497 L3.09099812,85.0384536 C3.09099812,85.4852754 3.45279864,85.8474961 3.8991022,85.8474961 L36.6677228,85.8474961 C36.8046562,86.1195606 37.0826372,86.2915461 37.3869354,86.2924694 L65.319053,86.2924694 C65.6233513,86.2915461 65.9013322,86.1195606 66.0382657,85.8474961 L98.8190078,85.8474961 C99.2653113,85.8474961 99.6271119,85.4852754 99.6271119,85.0384536 L99.6271119,77.0572497 C99.6271119,76.6104279 99.2653113,76.2482072 98.8190078,76.2482072 L96.3946955,76.2482072 L96.3946955,37.4667566 L101.505954,37.4667566 C101.747191,37.4704892 101.977476,37.3661129 102.133844,37.1821662 C102.290213,36.9982195 102.356308,36.753945 102.314058,36.5161317 L98.2129297,13.8346262 Z M4.6910442,77.8662921 L40.6799595,77.8662921 L40.6799595,78.4771192 L39.67387,78.4771192 C39.2275664,78.4771192 38.8657659,78.8393398 38.8657659,79.2861617 L38.8657659,81.5676614 L37.3828949,81.5676614 C36.9365913,81.5676614 36.5747908,81.9298821 36.5747908,82.3767039 L36.5747908,84.2132303 L4.6910442,84.2132303 L4.6910442,77.8662921 Z M38.190999,84.6743845 L38.190999,83.2019272 L64.5069084,83.2019272 L64.5069084,84.6743845 L38.190999,84.6743845 Z M44.8255335,77.0208428 L60.4057802,77.0208428 L60.4057802,78.4771192 L42.2961677,78.4771192 L42.2961677,77.0046619 L44.8255335,77.0208428 Z M62.1997713,81.5838423 L40.481974,81.5838423 L40.481974,80.0952041 L62.2240144,80.0952041 L62.1997713,81.5838423 Z M57.7147936,52.3693188 L44.9709922,52.3693188 L44.9709922,50.2374919 L57.7349962,50.2374919 L57.7147936,52.3693188 Z M44.1426855,53.9874038 L59.8158642,53.9874038 L59.8158642,55.3708664 L42.8456785,55.3708664 L42.8456785,53.9874038 L44.1426855,53.9874038 Z M45.6174755,56.9889513 L57.0440672,56.9889513 L57.0440672,75.4027578 L45.6376781,75.4027578 L45.6174755,56.9889513 Z M97.9907011,84.2294111 L66.1271571,84.2294111 L66.1271571,82.3928847 C66.1271571,81.9460629 65.7653566,81.5838423 65.319053,81.5838423 L63.8402226,81.5838423 L63.8402226,79.2861617 C63.8402226,78.8393398 63.478422,78.4771192 63.0321185,78.4771192 L62.0219884,78.4771192 L62.0219884,77.8501113 L98.0109037,77.8501113 L97.9907011,84.2294111 Z M94.7582848,76.2482072 L62.0300694,76.2482072 L62.0300694,76.2118003 C62.0300694,75.7649785 61.6682689,75.4027578 61.2219653,75.4027578 L58.688559,75.4027578 L58.688559,56.9889513 L60.6482114,56.9889513 C61.094515,56.9889513 61.4563155,56.6267307 61.4563155,56.1799088 L61.4563155,53.1783613 C61.4563155,52.7315395 61.094515,52.3693188 60.6482114,52.3693188 L59.3552449,52.3693188 L59.3552449,49.4284495 C59.3552449,48.9816276 58.9934444,48.619407 58.5471408,48.619407 L44.1628881,48.619407 C43.7165846,48.619407 43.3547841,48.9816276 43.3547841,49.4284495 L43.3547841,52.3693188 L42.0618175,52.3693188 C41.615514,52.3693188 41.2537134,52.7315395 41.2537134,53.1783613 L41.2537134,56.1799088 C41.2537134,56.6267307 41.615514,56.9889513 42.0618175,56.9889513 L44.0214699,56.9889513 L44.0214699,75.4027578 L41.4880636,75.4027578 C41.0417601,75.4027578 40.6799595,75.7649785 40.6799595,76.2118003 L40.6799595,76.2482072 L7.95174418,76.2482072 L7.95174418,37.4667566 L94.7663658,37.4667566 L94.7582848,76.2482072 Z M77.3234392,35.8486717 L25.3785087,35.8486717 L51.350974,2.11564605 L77.3234392,35.8486717 Z M23.3420864,35.8486717 L2.1778405,35.8486717 L5.95976761,14.7892963 L39.5566949,14.7892963 L23.3420864,35.8486717 Z M95.5744699,35.8486717 L79.363902,35.8486717 L63.145253,14.7852511 L96.7421803,14.7852511 L100.524107,35.8446265 L95.5744699,35.8486717 Z" id="Shape"></path>
                        <path d="M59.3471639,17.9162454 L59.3471639,16.1808493 C59.3471639,15.7340275 58.9853633,15.3718069 58.5390598,15.3718069 L44.1628881,15.3718069 C43.7165846,15.3718069 43.3547841,15.7340275 43.3547841,16.1808493 L43.3547841,17.9202906 L42.0618175,17.9202906 C41.615514,17.9202906 41.2537134,18.2825113 41.2537134,18.7293331 L41.2537134,20.7519393 C41.2537134,21.1987611 41.615514,21.5609817 42.0618175,21.5609817 L44.0214699,21.5609817 L44.0214699,33.4700868 C44.0214699,33.9169086 44.3832704,34.2791293 44.829574,34.2791293 L57.8723739,34.2791293 C58.3186775,34.2791293 58.680478,33.9169086 58.680478,33.4700868 L58.680478,27.4629465 C58.7874553,27.2448064 58.7874553,26.9893553 58.680478,26.7712152 L58.680478,21.5731174 L60.6401304,21.5731174 C61.0864339,21.5731174 61.4482345,21.2108967 61.4482345,20.7640749 L61.4482345,18.7414687 C61.4482345,18.2946469 61.0864339,17.9324263 60.6401304,17.9324263 L59.3471639,17.9162454 Z M49.5489018,32.6610444 L49.5489018,21.5731174 L53.2298159,21.5731174 L53.2298159,32.6610444 L49.5489018,32.6610444 Z M45.6376781,32.6610444 L45.6376781,27.9119651 L47.9326937,27.9119651 L47.9326937,32.6610444 L45.6376781,32.6610444 Z M47.9326937,21.5690721 L47.9326937,26.2938801 L45.6376781,26.2938801 L45.6376781,21.5731174 L47.9326937,21.5690721 Z M54.8460241,32.6610444 L54.8460241,27.9119651 L57.0642698,27.9119651 L57.0642698,32.6610444 L54.8460241,32.6610444 Z M57.0642698,26.2938801 L54.8460241,26.2938801 L54.8460241,21.5731174 L57.0642698,21.5731174 L57.0642698,26.2938801 Z M59.8320263,19.9388516 L42.8618406,19.9388516 L42.8618406,19.5343303 L59.8320263,19.5343303 L59.8320263,19.9388516 Z M57.7309557,17.9162454 L44.9709922,17.9162454 L44.9709922,16.9898918 L57.7349962,16.9898918 L57.7309557,17.9162454 Z" id="Shape"></path>
                        <path d="M68.3736865,47.5029284 C67.9273829,47.5029284 67.5655824,47.865149 67.5655824,48.3119709 L67.5655824,64.6869904 C67.5655824,65.1338122 67.9273829,65.4960328 68.3736865,65.4960328 L85.1822514,65.4960328 C85.6285549,65.4960328 85.9903555,65.1338122 85.9903555,64.6869904 L85.9903555,56.887821 C86.126568,56.648328 86.126568,56.3546785 85.9903555,56.1151854 L85.9903555,48.3119709 C85.9903555,47.865149 85.6285549,47.5029284 85.1822514,47.5029284 L68.3736865,47.5029284 Z M79.4325908,49.1210133 L79.4325908,63.8779479 L74.2203195,63.8779479 L74.2203195,49.1210133 L79.4325908,49.1210133 Z M69.1817905,57.3085231 L72.6081519,57.3085231 L72.6081519,63.8779479 L69.1817905,63.8779479 L69.1817905,57.3085231 Z M72.6081519,55.6904381 L69.1817905,55.6904381 L69.1817905,49.1210133 L72.6081519,49.1210133 L72.6081519,55.6904381 Z M81.048799,63.8779479 L81.048799,57.3085231 L84.3701068,57.3085231 L84.3701068,63.8779479 L81.048799,63.8779479 Z M84.3701068,55.6904381 L81.048799,55.6904381 L81.048799,49.1210133 L84.3701068,49.1210133 L84.3701068,55.6904381 Z" id="Shape"></path>
                        <path d="M35.4030399,56.1111402 L35.4030399,48.3119709 C35.4030399,47.865149 35.0412394,47.5029284 34.5949358,47.5029284 L17.7782898,47.5029284 C17.3319863,47.5029284 16.9701857,47.865149 16.9701857,48.3119709 L16.9701857,64.6869904 C16.9701857,65.1338122 17.3319863,65.4960328 17.7782898,65.4960328 L34.5868548,65.4960328 C35.0331583,65.4960328 35.3949588,65.1338122 35.3949588,64.6869904 L35.3949588,56.887821 C35.5327105,56.6472937 35.5327105,56.3516676 35.3949588,56.1111402 L35.4030399,56.1111402 Z M33.7868317,55.706619 L30.4614834,55.706619 L30.4614834,49.1210133 L33.7827912,49.1210133 L33.7868317,55.706619 Z M23.6370444,49.1210133 L28.8452752,49.1210133 L28.8452752,63.8779479 L23.6370444,63.8779479 L23.6370444,49.1210133 Z M22.0208363,49.1210133 L22.0208363,55.6904381 L18.5863939,55.6904381 L18.5863939,49.1210133 L22.0208363,49.1210133 Z M18.5863939,57.3085231 L22.0208363,57.3085231 L22.0208363,63.8779479 L18.5863939,63.8779479 L18.5863939,57.3085231 Z M30.4534024,63.8779479 L30.4534024,57.3085231 L33.7747101,57.3085231 L33.7747101,63.8779479 L30.4534024,63.8779479 Z" id="Shape"></path>
                    </g>
                </g>
            </g>
        </g>
    </g>
</svg>