<?xml version="1.0" encoding="UTF-8"?>
<svg width="64px" height="59px" viewBox="0 0 64 59" version="1.1" xmlns="http://www.w3.org/2000/svg" xmlns:xlink="http://www.w3.org/1999/xlink">
    <!-- Generator: Sketch 42 (36781) - http://www.bohemiancoding.com/sketch -->
    <title>noun_40328_cc</title>
    <desc>Created with Sketch.</desc>
    <defs></defs>
    <g id="FORMULAIRES-SMARTPHONE-720-LARGER" stroke="none" stroke-width="1" fill="none" fill-rule="evenodd">
        <g id="FORM-:-NUMÉRIQUE-détail" transform="translate(-31.000000, -1666.000000)" fill-rule="nonzero" fill="#3A96D0">
            <g id="Group-2-Copy" transform="translate(-6.000000, 1628.000000)">
                <g id="noun_40328_cc" transform="translate(37.000000, 38.000000)">
                    <g id="Group">
                        <path d="M62.1979645,34.6165025 C62.1474794,34.5777761 57.4958411,30.9248172 56.0521084,28.3195845 C56.4048027,28.2702963 56.7434734,28.1907311 57.0660169,28.08793 C59.3462592,27.3577607 60.8439829,25.4819931 60.9218141,25.379192 L61.2436564,24.9701 L60.9091928,24.5736822 C59.1071563,22.4282378 57.0477861,21.3122124 54.7906828,21.2565871 C51.8345015,21.183359 49.3579284,22.9513967 48.1876564,23.9639169 C47.9674854,22.53808 47.6835069,21.1453367 47.3392268,19.7913197 C44.6221483,9.11127357 38.1986244,3.76984225 30.2254893,1.00759138 C28.3351039,0.352762601 26.3591743,0 24.3243455,0 C22.2888156,0 20.3135872,0.352762601 18.4232018,1.00759138 C10.4507679,3.76984225 4.02724394,9.11127357 1.30876316,19.7913197 C0.855098717,21.5734398 0.50731268,23.4252674 0.270313325,25.3299038 C0.256289694,25.4383378 0.241564882,25.5460677 0.228242433,25.6552058 C-0.787068415,34.4397691 1.56820033,42.4610696 7.6306158,49.6543286 C9.29592192,51.6307849 11.1666742,53.2777145 13.209216,54.6549673 C14.5730141,55.6125664 15.9858949,56.404698 17.4170063,57.0271374 C18.7254111,57.777726 20.1018304,58.3170796 21.5259301,58.6297076 C21.5658974,58.6430858 21.6037612,58.6578723 21.6437286,58.6712505 L21.734181,58.6712505 C22.5896225,58.8451674 23.4597887,58.9444479 24.3467834,58.9444479 C25.233778,58.9444479 26.1046454,58.8451674 26.9600869,58.6712505 L27.0042613,58.6712505 C27.0238944,58.6649134 27.0428263,58.6571681 27.0624594,58.6508311 C28.567195,58.3332743 30.0165372,57.7608272 31.3915541,56.9574298 C32.7686747,56.344848 34.1282656,55.5766564 35.4415786,54.6535591 C37.4827181,53.2770104 39.3527692,51.6300808 41.0173741,49.6550327 C45.8940916,43.8685995 48.3671589,37.5456291 48.6216878,30.7206233 C49.1230326,31.3655945 49.5654781,31.8810081 49.8066845,32.1133667 C50.2659584,32.5534398 50.7098063,32.7104579 51.1228023,32.5780839 C51.3107189,32.5175298 51.4551623,32.4083917 51.5708573,32.2668642 C52.9767262,34.4369527 56.0822592,37.6336437 61.5577857,35.8803925 C61.7113445,35.8325125 61.8656044,35.7797037 62.0219679,35.7205579 L63.1066957,35.3269565 L62.1979645,34.6165025 Z M9.64020205,13.6155098 L39.0091902,13.6155098 C42.6686566,13.6162139 42.6686566,17.9430127 43.3291696,21.929723 L40.8259516,21.929723 C40.2236366,21.5537245 39.5666295,21.2326472 38.8395043,20.9995845 C34.2032921,19.5153059 29.4037045,23.5386302 24.0775297,23.5639785 C18.9539962,23.5872143 13.8662231,19.9258061 8.7272637,21.2305348 C8.12424759,21.3840323 7.57662482,21.6248403 7.07668239,21.9304271 L5.31952149,21.9304271 C5.98073567,17.9430127 5.98073567,13.6162139 9.64020205,13.6155098 Z M37.8410218,29.0237014 C35.3630463,32.7386225 30.8614609,32.9336629 28.200477,29.4412428 C30.4491662,26.0924625 35.0895855,25.8917891 37.8410218,29.0237014 Z M20.3577617,29.370127 C17.5684616,32.8294536 13.6628805,32.7343978 10.6078326,29.2349365 C12.9448706,25.9657214 17.5937041,25.9636091 20.3577617,29.370127 Z M38.2603284,46.6540862 C38.1607606,46.7723778 38.0597904,46.887853 37.9581191,47.0040323 C35.2193041,50.1528434 31.6502901,52.5602193 27.138187,54.0944902 C26.7567443,54.2247518 26.3507602,54.3141747 25.932856,54.3796576 C25.4798927,54.442324 25.0192164,54.4803463 24.5592414,54.4923163 C24.480709,54.4937245 24.4021767,54.4972451 24.3236444,54.496541 C24.245112,54.4972451 24.1665797,54.4937245 24.0880474,54.4923163 C23.6280723,54.4796422 23.167396,54.442324 22.7144328,54.3796576 C22.2972298,54.3134706 21.8905445,54.2240477 21.5091017,54.0944902 C16.9962974,52.5595152 13.4279846,50.1514352 10.6884684,47.0026241 C10.5874983,46.887853 10.4865281,46.7723778 10.3876616,46.6547903 C7.68530795,43.4214852 5.82717691,39.4361831 4.71650538,34.8164717 C4.68705575,34.6953636 4.83290151,34.5334167 4.92685983,34.3228857 L5.37351247,34.3228857 C7.18676789,37.1977953 10.4725045,39.2911351 14.6718807,39.8121816 C17.056599,40.1079107 18.8305883,39.5270142 20.3963266,37.509015 C23.8363232,33.0744863 24.6265548,33.072374 28.0896903,37.4815544 C29.7255468,39.5650366 31.692361,40.5339015 34.0272955,39.7030435 C36.764007,38.7292497 39.7236942,37.6625125 41.8363541,35.7916737 C42.3475155,35.3382224 42.7731327,34.8404117 43.1503683,34.3228857 L43.7204289,34.3228857 C43.8150884,34.5334167 43.9595318,34.6953636 43.9307834,34.8164717 C42.820813,39.435479 40.9633831,43.4207811 38.2603284,46.6540862 Z" id="Shape"></path>
                    </g>
                </g>
            </g>
        </g>
    </g>
</svg>