<?xml version="1.0" encoding="UTF-8"?>
<svg width="461px" height="324px" viewBox="0 0 461 324" version="1.1" xmlns="http://www.w3.org/2000/svg" xmlns:xlink="http://www.w3.org/1999/xlink">
    <!-- Generator: Sketch 42 (36781) - http://www.bohemiancoding.com/sketch -->
    <title>d0d7dbbe-3737-47b3-80a8-dc73290764a6</title>
    <desc>Created with Sketch.</desc>
    <defs></defs>
    <g id="LANDINGS-DESKTOP-HD" stroke="none" stroke-width="1" fill="none" fill-rule="evenodd">
        <g id="Landing-HV-V3-OBJETS" transform="translate(-71.000000, -4804.000000)">
            <g id="Group-10" transform="translate(71.000000, 4785.000000)">
                <g id="Coverage-conceptFichier-1" transform="translate(0.000000, 19.000000)">
                    <g id="98447032-8d7a-4e6e-86f4-810b4729b703">
                        <g>
                            <g id="d0d7dbbe-3737-47b3-80a8-dc73290764a6">
                                <path d="M228.834896,268.851064 L228.600955,268.851064 L228.600955,267.47234 L228.834896,267.47234 C230.582567,267.47234 232.344,267.47234 234.07791,267.348255 L234.07791,268.726979 C232.399045,268.851064 230.61009,268.851064 228.834896,268.851064 Z M223.068955,268.699404 C221.224955,268.602894 219.367194,268.465021 217.564478,268.272 L217.70209,266.893277 C219.491045,267.072511 221.335045,267.22417 223.206567,267.320681 L223.068955,268.699404 Z M239.664955,268.313362 L239.527343,266.934638 C241.343821,266.755404 243.17406,266.521021 244.949254,266.259064 L245.155672,267.637787 C243.352955,267.954894 241.508955,268.189277 239.664955,268.368511 L239.664955,268.313362 Z M212.06,267.555064 C210.257284,267.279319 208.413284,266.948426 206.555522,266.57617 L206.830746,265.197447 C208.619701,265.569702 210.422418,265.886809 212.211373,266.17634 L212.06,267.555064 Z M250.591343,266.658894 L250.316119,265.28017 C252.105075,264.921702 253.89403,264.508085 255.641701,264.053106 L255.985731,265.43183 C254.23806,265.941957 252.421582,266.355574 250.618866,266.72783 L250.591343,266.658894 Z M201.202418,265.28017 C199.413463,264.811404 197.624507,264.301277 195.876836,263.749787 L196.289672,262.371064 C198.009821,262.922553 199.785015,263.432681 201.546448,263.88766 L201.202418,265.28017 Z M261.311313,263.901447 L260.898478,262.522723 C262.646149,261.985021 264.38006,261.39217 266.072687,260.757957 L266.554328,262.053957 C264.861701,262.812255 263.100269,263.418894 261.338836,263.970383 L261.311313,263.901447 Z M190.647582,261.957447 C188.941194,261.323234 187.207284,260.578723 185.500896,259.875574 L186.051343,258.607149 C187.74397,259.337872 189.450358,259.985872 191.129224,260.661447 L190.647582,261.957447 Z M271.714776,260.082383 L271.17809,258.813957 C272.843194,258.097021 274.508299,257.338723 276.132119,256.539064 L276.737612,257.779915 C275.086269,258.648511 273.393642,259.420596 271.714776,260.137532 L271.714776,260.082383 Z M180.47806,257.545532 C178.826716,256.732085 177.175373,255.849702 175.579075,254.953532 L176.253373,253.754043 C177.83591,254.650213 179.473493,255.505021 181.097313,256.318468 L180.47806,257.545532 Z M281.650358,255.215489 L280.989821,254.016 C282.572358,253.133617 284.168657,252.196085 285.696149,251.258553 L286.425493,252.430468 C284.856716,253.436936 283.246657,254.374468 281.636597,255.270638 L281.650358,255.215489 Z M170.817701,252.113362 C169.262687,251.134468 167.707672,250.100426 166.207701,249.038809 L167.005851,247.908255 C168.49206,248.956085 170.033313,249.97634 171.560806,250.941447 L170.817701,252.113362 Z M291.049254,249.355915 L290.264866,248.225362 C291.737313,247.191319 293.223522,246.102128 294.668448,244.985362 L295.507881,246.074553 C294.035433,247.274043 292.535463,248.377021 291.035493,249.411064 L291.049254,249.355915 Z M161.69403,245.729872 C160.31791,244.599319 158.81794,243.413617 157.414299,242.20034 L158.308776,241.152511 C159.684896,242.352 161.061015,243.523915 162.533463,244.626894 L161.69403,245.729872 Z M299.787612,242.655319 L298.893134,241.607489 C300.269254,240.435574 301.645373,239.194723 303.021493,237.940085 L303.971015,238.932766 C302.567373,240.201191 301.177493,241.45583 299.787612,242.655319 Z M153.368507,238.519149 C151.992388,237.250723 150.726358,235.927149 149.460328,234.576 L150.464896,233.624681 C151.703403,235.003404 153.010716,236.258043 154.31803,237.512681 L153.368507,238.519149 Z M307.824149,235.003404 L306.833343,234.052085 C308.071851,232.742298 309.310358,231.377362 310.507582,229.998638 L311.553433,230.894809 C310.328687,232.301106 309.090179,233.693617 307.824149,235.017191 L307.824149,235.003404 Z M145.772328,230.453617 C144.575104,229.074894 143.405403,227.59966 142.290746,226.152 L143.377881,225.310979 C144.478776,226.689702 145.634716,228.178723 146.818179,229.571234 L145.772328,230.453617 Z M315.035015,226.593191 L313.947881,225.75217 C315.062537,224.373447 316.163433,222.815489 317.195522,221.340255 L318.32394,222.126128 C317.291851,223.642723 316.190955,225.145532 315.048776,226.606979 L315.035015,226.593191 Z M138.98806,221.684936 C137.942209,220.154553 136.910119,218.596596 135.960597,217.052426 L137.130299,216.321702 C138.079821,217.852085 139.084388,219.396255 140.116478,220.899064 L138.98806,221.684936 Z M321.365164,217.548766 L320.195463,216.818043 C321.172507,215.260085 322.108269,213.674553 322.947701,212.102809 L324.144925,212.778383 C323.38806,214.322553 322.383493,215.93566 321.406448,217.507404 L321.365164,217.548766 Z M133.194597,212.323404 C132.313881,210.710298 131.460687,209.05583 130.648776,207.401362 L131.887284,206.794723 C132.685433,208.435404 133.524866,210.062298 134.405582,211.64783 L133.194597,212.323404 Z M326.787075,207.870128 L325.548567,207.263489 C326.346716,205.622809 327.117343,203.954553 327.846687,202.286298 L329.112716,202.837787 C328.397134,204.450894 327.612746,206.146723 326.800836,207.801191 L326.787075,207.870128 Z M128.350657,202.355234 C127.635075,200.659404 126.974537,198.936 126.314,197.212596 L127.607552,196.74383 C128.226806,198.43966 128.901104,200.149277 129.616687,201.831319 L128.350657,202.355234 Z M331.176896,197.653787 L329.883343,197.171234 C330.516358,195.461617 331.10809,193.724426 331.658537,191.973447 L333.034657,192.387064 C332.429164,194.110468 331.823672,195.875234 331.190657,197.598638 L331.176896,197.653787 Z M124.566328,191.890723 C124.015881,190.125957 123.520478,188.333617 123.066358,186.555064 L124.442478,186.210383 C124.882836,187.961362 125.392,189.739915 125.928687,191.477106 L124.566328,191.890723 Z M334.507104,186.996255 L333.130985,186.651574 C333.585104,184.886809 333.99794,183.094468 334.369493,181.315915 L335.745612,181.59166 C335.387821,183.370213 334.961224,185.217702 334.507104,187.010043 L334.507104,186.996255 Z M121.841612,181.150468 C121.483821,179.34434 121.167313,177.510638 120.89209,175.635574 L122.268209,175.428766 C122.529672,177.221106 122.846179,179.041021 123.20397,180.819574 L121.841612,181.150468 Z M336.722657,176.145702 L335.346537,175.938894 C335.621761,174.146553 335.855701,172.326638 336.034597,170.506723 L337.410716,170.644596 C337.231821,172.478298 336.997881,174.325787 336.722657,176.145702 L336.722657,176.145702 Z M120.217791,170.17583 C120.038896,168.342128 119.915045,166.480851 119.832478,164.660936 L121.208597,164.660936 C121.291164,166.467064 121.415015,168.314553 121.59391,170.17583 L120.217791,170.17583 Z M337.837313,165.102128 L336.461194,165.033191 C336.557522,163.227064 336.598806,161.379574 336.598806,159.518298 L337.974925,159.518298 C337.974925,161.407149 337.919881,163.282213 337.837313,165.102128 Z M121.098507,159.104681 L119.722388,159.104681 C119.722388,157.257191 119.722388,155.395915 119.887522,153.589787 L121.263642,153.658723 C121.098507,155.437277 121.098507,157.284766 121.098507,159.104681 Z M336.516239,154.968511 C336.447433,153.148596 336.323582,151.301106 336.158448,149.453617 L337.534567,149.329532 C337.699701,151.149447 337.823552,153.010723 337.906119,154.844426 L336.516239,154.968511 Z M121.690239,148.074894 L120.314119,147.937021 C120.506776,146.103319 120.740716,144.25583 121.029701,142.422128 L122.405821,142.628936 C122.103075,144.531574 121.869134,146.351489 121.676478,148.171404 L121.690239,148.074894 Z M335.511672,143.938723 C335.250209,142.132596 334.947463,140.312681 334.603433,138.534128 L335.979552,138.27217 C336.337343,140.064511 336.64009,141.912 336.901552,143.787064 L335.511672,143.938723 Z M123.369104,137.348426 L121.992985,137.058894 C122.364537,135.252766 122.804896,133.432851 123.259015,131.654298 L124.635134,131.998979 C124.167254,133.73617 123.740657,135.556085 123.369104,137.348426 Z M333.392448,133.350128 C332.95209,131.585362 332.456687,129.806809 331.933761,128.069617 L333.309881,127.669787 C333.846567,129.420766 334.34197,131.226894 334.782328,133.019234 L333.392448,133.350128 Z M126.148866,126.75983 L124.772746,126.346213 C125.336955,124.595234 125.942448,122.830468 126.589224,121.093277 L127.882776,121.57583 C127.304806,123.285447 126.699313,125.022638 126.148866,126.75983 Z M330.268657,122.87183 C329.649403,121.148426 328.975104,119.438809 328.287045,117.78434 L329.553075,117.246638 C330.254896,118.928681 330.929194,120.665872 331.562209,122.403064 L330.268657,122.87183 Z M130.002,116.48834 L128.73597,115.936851 C129.479075,114.241021 130.263463,112.545191 131.075373,110.904511 L132.300119,111.524936 C131.515731,113.138043 130.731343,114.806298 130.002,116.48834 Z M325.988925,112.807149 C325.204537,111.166468 324.365104,109.525787 323.498149,107.940255 L324.709134,107.278468 C325.589851,108.891574 326.429284,110.546043 327.227433,112.214298 L325.988925,112.807149 Z M134.859701,106.658043 L133.662478,105.982468 C134.570716,104.383149 135.520239,102.770043 136.497284,101.212085 L137.666985,101.942809 C136.717463,103.500766 135.781701,105.086298 134.859701,106.658043 Z M320.732149,103.18366 C319.782627,101.625702 318.77806,100.081532 317.759731,98.5925106 L318.888149,97.8066383 C319.920239,99.323234 320.938567,100.881191 321.901851,102.452936 L320.732149,103.18366 Z M140.735731,97.3930213 L139.607313,96.5933617 C140.666925,95.0905532 141.781582,93.5877447 142.91,92.1400851 L143.997134,92.9948936 C142.882478,94.428766 141.740299,95.904 140.735731,97.3930213 Z M314.580896,94.1668085 C313.493761,92.7880851 312.337821,91.2990638 311.154358,89.892766 L312.200209,88.9965957 C313.397433,90.3753191 314.567134,91.8643404 315.66803,93.3257872 L314.580896,94.1668085 Z M147.478716,88.776 L146.446627,87.8660426 C147.657612,86.4873191 148.909881,85.1085957 150.189672,83.7298723 L151.180478,84.6811915 C149.914448,86.0461277 148.620896,87.3972766 147.478716,88.776 Z M307.521403,85.8117447 C306.282896,84.4330213 305.003104,83.178383 303.68203,81.9099574 L304.645313,80.9172766 C306.021433,82.1994894 307.273701,83.5368511 308.52597,84.8742128 L307.521403,85.8117447 Z M155.047373,80.8897021 L154.111612,79.883234 C155.487731,78.6148085 156.863851,77.3739574 158.23997,76.1882553 L159.134448,77.2360851 C157.758328,78.408 156.382209,79.6350638 155.061134,80.8759149 L155.047373,80.8897021 Z M299.65,78.2149787 C298.273881,77.0154894 296.897761,75.8435745 295.439075,74.7130213 L296.292269,73.6238298 C297.668388,74.754383 299.168358,75.9538723 300.558239,77.1671489 L299.65,78.2149787 Z M163.414179,73.8030638 L162.574746,72.7138723 C164.033433,71.5971064 165.547164,70.4941277 167.047134,69.4600851 L167.831522,70.5906383 C166.317791,71.6108936 164.831582,72.6862979 163.386657,73.7892766 L163.414179,73.8030638 Z M291.090537,71.4316596 C289.604328,70.3838298 288.076836,69.3497872 286.549343,68.3708936 L287.292448,67.212766 C288.847463,68.2054468 290.388716,69.2394894 291.888687,70.3011064 L291.090537,71.4316596 Z M172.386478,67.5574468 L171.670896,66.3855319 C173.239672,65.4204255 174.849731,64.4828936 176.44603,63.6280851 L177.106567,64.8413617 C175.52403,65.7099574 173.941493,66.6337021 172.386478,67.5574468 Z M281.829254,65.5169362 C280.232955,64.620766 278.609134,63.7521702 276.999075,62.9387234 L277.618328,61.7116596 C279.25591,62.5388936 280.907254,63.4074894 282.517313,64.331234 L281.829254,65.5169362 Z M181.950507,62.3045106 L181.345015,61.0636596 C182.996358,60.264 184.688985,59.4919149 186.381612,58.7749787 L186.918299,60.0434043 C185.266955,60.7741277 183.58809,61.5324255 181.964269,62.3320851 L181.950507,62.3045106 Z M272.045045,60.6638298 C270.366179,59.9331064 268.659791,59.2851064 266.967164,58.5957447 L267.448806,57.2997447 C269.168955,57.9477447 270.889104,58.6784681 272.581731,59.3954043 L272.045045,60.6638298 Z M192.00994,58.1131915 L191.54206,56.8171915 C193.27597,56.1829787 195.037403,55.5901277 196.798836,55.0524255 L197.19791,56.4311489 C195.408955,56.8723404 193.716328,57.4514043 192.00994,58.0718298 L192.00994,58.1131915 Z M261.806716,56.7344681 C260.072806,56.1829787 258.311373,55.6590638 256.563701,55.1902979 L256.921493,53.8115745 C258.696687,54.2803404 260.485642,54.8042553 262.233313,55.3695319 L261.806716,56.7344681 Z M202.454687,54.845617 L202.124418,53.4668936 C203.899612,53.0119149 205.71609,52.6120851 207.532567,52.253617 L207.79403,53.6323404 C206.005075,54.018383 204.216119,54.4182128 202.454687,54.8594043 L202.454687,54.845617 Z M251.238119,53.9218723 C249.462925,53.549617 247.660209,53.2049362 245.857493,52.9291915 L246.077672,51.5504681 C247.894149,51.84 249.724388,52.1846809 251.582149,52.5569362 L251.238119,53.9218723 Z M213.174657,52.722383 L212.982,51.3436596 C214.798478,51.0817021 216.642478,50.8611064 218.486478,50.6818723 L218.610328,52.0605957 C216.793851,52.253617 214.963612,52.4742128 213.174657,52.7361702 L213.174657,52.722383 Z M240.435582,52.2122553 C238.646627,52.019234 236.802627,51.8675745 234.931104,51.7710638 L235.013672,50.3923404 C236.857672,50.5026383 238.715433,50.6542979 240.518149,50.8473191 L240.435582,52.2122553 Z M224.059761,51.7021277 L224.059761,50.3234043 C225.65606,50.2544681 227.279881,50.2131064 228.903701,50.2131064 L229.605522,50.2131064 L229.605522,51.5918298 L228.917463,51.5918298 C227.252358,51.605617 225.683582,51.6331915 224.059761,51.7021277 L224.059761,51.7021277 Z" id="Shape" fill="#3A96D0" fill-rule="nonzero"></path>
                                <path d="M227.059701,158.553191 L223.564358,154.292936 L224.62397,153.42434 L228.119313,157.684596 L227.059701,158.553191 Z M220.069015,150.032681 L216.573672,145.772426 L217.633284,144.90383 L221.128627,149.164085 L220.069015,150.032681 Z M213.078328,141.51217 L209.582985,137.251915 L210.642597,136.383319 L214.13794,140.643574 L213.078328,141.51217 Z M206.087642,132.99166 L202.592299,128.731404 L203.65191,127.862809 L207.147254,132.123064 L206.087642,132.99166 Z M199.096955,124.471149 L195.601612,120.210894 L196.661224,119.342298 L200.156567,123.602553 L199.096955,124.471149 Z M192.106269,115.950638 L188.652209,111.676596 L189.711821,110.808 L193.207164,115.068255 L192.106269,115.950638 Z M185.115582,107.430128 L181.647761,103.128511 L182.707373,102.259915 L186.202716,106.52017 L185.115582,107.430128 Z M178.124896,98.909617 L174.629552,94.6493617 L175.689164,93.780766 L179.184507,98.0410213 L178.124896,98.909617 Z M171.134209,90.3891064 L167.638866,86.1288511 L168.698478,85.2602553 L172.193821,89.5205106 L171.134209,90.3891064 Z M164.143522,81.8685957 L160.648179,77.6083404 L161.707791,76.7397447 L165.203134,81 L164.143522,81.8685957 Z M157.152836,73.3480851 L153.657493,69.0878298 L154.717104,68.219234 L158.253731,72.4243404 L157.152836,73.3480851 Z M150.203433,64.8 L146.70809,60.5397447 L147.767701,59.6711489 L151.263045,63.9314043 L150.203433,64.8 Z M143.212746,56.2794894 L139.717403,52.019234 L140.777015,51.1506383 L144.272358,55.4108936 L143.212746,56.2794894 Z M136.235821,47.7451915 L132.740478,43.4849362 L133.80009,42.6163404 L137.281672,46.8765957 L136.235821,47.7451915 Z M129.245134,39.2246809 L125.749791,34.9644255 L126.809403,34.0958298 L130.304746,38.3560851 L129.245134,39.2246809 Z M122.254448,30.7041702 L118.759104,26.4439149 L119.818716,25.5753191 L123.31406,29.8355745 L122.254448,30.7041702 Z M115.263761,22.1836596 L111.754657,17.9234043 L112.814269,17.0548085 L116.309612,21.3150638 L115.263761,22.1836596 Z M108.259313,13.6631489 L104.76397,9.40289362 L105.823582,8.53429787 L109.318925,12.7945532 L108.259313,13.6631489 Z M101.268627,5.1426383 L97.7870448,0.868595745 L98.8466567,0 L102.342,4.26025532 L101.268627,5.1426383 Z" id="Shape" fill="#3A96D0" fill-rule="nonzero"></path>
                                <path d="M97.1127463,323.572596 L96.0531343,322.690213 L99.5484776,318.485106 L100.60809,319.367489 L97.1127463,323.572596 Z M104.117194,315.065872 L103.057582,314.183489 L106.552925,309.923234 L107.612537,310.805617 L104.117194,315.065872 Z M111.121642,306.559149 L110.089552,305.662979 L113.584896,301.402723 L114.644507,302.285106 L111.121642,306.559149 Z M118.12609,298.052426 L117.066478,297.170043 L120.561821,292.909787 L121.621433,293.79217 L118.12609,298.052426 Z M125.116776,289.531915 L124.057164,288.649532 L127.552507,284.389277 L128.612119,285.27166 L125.116776,289.531915 Z M132.107463,281.011404 L131.047851,280.129021 L134.543194,275.868766 L135.602806,276.751149 L132.107463,281.011404 Z M139.11191,272.504681 L138.052299,271.622298 L141.547642,267.362043 L142.607254,268.244426 L139.11191,272.504681 Z M146.116358,263.997957 L145.056746,263.115574 L148.55209,258.855319 L149.611701,259.737702 L146.116358,263.997957 Z M153.120806,255.491234 L152.061194,254.608851 L155.556537,250.348596 L156.616149,251.230979 L153.120806,255.491234 Z M160.125254,246.984511 L159.065642,246.102128 L162.560985,241.841872 L163.620597,242.724255 L160.125254,246.984511 Z M167.129701,238.477787 L166.07009,237.595404 L169.565433,233.335149 L170.625045,234.217532 L167.129701,238.477787 Z M174.134149,229.971064 L173.074537,229.088681 L176.556119,224.731915 L177.615731,225.614298 L174.134149,229.971064 Z M181.138597,221.46434 L180.078985,220.581957 L183.574328,216.321702 L184.63394,217.204085 L181.138597,221.46434 Z M188.143045,212.957617 L187.083433,212.075234 L190.578776,207.814979 L191.638388,208.697362 L188.143045,212.957617 Z M195.147493,204.450894 L194.087881,203.568511 L197.583224,199.308255 L198.642836,200.190638 L195.147493,204.450894 Z M202.15194,195.94417 L201.092328,195.061787 L204.587672,190.801532 L205.647284,191.683915 L202.15194,195.94417 Z M209.170149,187.368511 L208.110537,186.486128 L211.605881,182.225872 L212.665493,183.108255 L209.170149,187.368511 Z M216.174597,178.861787 L215.114985,177.979404 L218.610328,173.719149 L219.66994,174.601532 L216.174597,178.861787 Z M223.179045,170.355064 L222.119433,169.472681 L225.614776,165.212426 L226.674388,166.094809 L223.179045,170.355064 Z" id="Shape" fill="#3A96D0" fill-rule="nonzero"></path>
                                <path d="M0,165.791489 L0,164.412766 L5.50447761,164.412766 L5.50447761,165.791489 L0,165.791489 Z M11.0089552,165.694979 L11.0089552,164.316255 L16.5134328,164.316255 L16.5134328,165.694979 L11.0089552,165.694979 Z M22.0179104,165.598468 L22.0179104,164.219745 L27.5223881,164.219745 L27.5223881,165.598468 L22.0179104,165.598468 Z M33.0268657,165.501957 L33.0268657,164.123234 L38.5313433,164.123234 L38.5313433,165.501957 L33.0268657,165.501957 Z M44.0358209,165.405447 L44.0358209,164.026723 L49.5402985,164.026723 L49.5402985,165.405447 L44.0358209,165.405447 Z M55.0447761,165.308936 L55.0447761,163.930213 L60.5492537,163.930213 L60.5492537,165.308936 L55.0447761,165.308936 Z M66.0537313,165.212426 L66.0537313,163.833702 L71.558209,163.833702 L71.558209,165.212426 L66.0537313,165.212426 Z M77.0626866,165.115915 L77.0626866,163.737191 L82.5671642,163.737191 L82.5671642,165.115915 L77.0626866,165.115915 Z M88.0716418,165.019404 L88.0716418,163.640681 L93.5761194,163.640681 L93.5761194,165.019404 L88.0716418,165.019404 Z M99.080597,164.922894 L99.080597,163.54417 L104.585075,163.54417 L104.585075,164.922894 L99.080597,164.922894 Z M110.089552,164.826383 L110.089552,163.44766 L115.59403,163.44766 L115.59403,164.826383 L110.089552,164.826383 Z M121.098507,164.729872 L121.098507,163.351149 L126.602985,163.351149 L126.602985,164.729872 L121.098507,164.729872 Z M132.107463,164.633362 L132.107463,163.254638 L137.61194,163.254638 L137.61194,164.633362 L132.107463,164.633362 Z M143.116418,164.536851 L143.116418,163.158128 L148.620896,163.158128 L148.620896,164.536851 L143.116418,164.536851 Z M154.125373,164.44034 L154.125373,163.061617 L159.629851,163.061617 L159.629851,164.44034 L154.125373,164.44034 Z M165.134328,164.34383 L165.134328,162.965106 L170.638806,162.965106 L170.638806,164.34383 L165.134328,164.34383 Z M176.143284,164.247319 L176.143284,162.868596 L181.647761,162.868596 L181.647761,164.247319 L176.143284,164.247319 Z M187.152239,164.150809 L187.152239,162.772085 L192.656716,162.772085 L192.656716,164.150809 L187.152239,164.150809 Z M198.161194,164.054298 L198.161194,162.675574 L203.665672,162.675574 L203.665672,164.054298 L198.161194,164.054298 Z M209.170149,163.957787 L209.170149,162.579064 L214.674627,162.579064 L214.674627,163.957787 L209.170149,163.957787 Z M220.179104,163.861277 L220.179104,162.482553 L225.683582,162.482553 L225.683582,163.861277 L220.179104,163.861277 Z" id="Shape" fill="#3A96D0" fill-rule="nonzero"></path>
                                <path d="M232.743075,158.36017 L231.683463,157.477787 L235.192567,153.231319 L236.252179,154.113702 L232.743075,158.36017 Z M239.747522,149.853447 L238.68791,148.971064 L242.197015,144.765957 L243.256627,145.64834 L239.747522,149.853447 Z M246.75197,141.346723 L245.692358,140.46434 L249.201463,136.217872 L250.261075,137.100255 L246.75197,141.346723 Z M253.756418,132.84 L252.696806,131.957617 L256.20591,127.711149 L257.265522,128.593532 L253.756418,132.84 Z M260.760866,124.333277 L259.701254,123.450894 L263.210358,119.204426 L264.26997,120.086809 L260.760866,124.333277 Z M267.792836,115.812766 L266.733224,114.930383 L270.242328,110.683915 L271.30194,111.566298 L267.792836,115.812766 Z M274.797284,107.306043 L273.737672,106.42366 L277.246776,102.177191 L278.306388,103.059574 L274.797284,107.306043 Z M281.801731,98.7993191 L280.728358,97.8893617 L284.251224,93.7531915 L285.310836,94.6355745 L281.801731,98.7993191 Z M288.806179,90.2925957 L287.746567,89.4102128 L291.255672,85.1637447 L292.315284,86.0461277 L288.806179,90.2925957 Z M295.865672,81.8134468 L294.80606,80.9310638 L298.315164,76.6845957 L299.374776,77.5669787 L295.865672,81.8134468 Z M302.870119,73.3067234 L301.810507,72.4243404 L305.319612,68.1778723 L306.379224,69.0602553 L302.870119,73.3067234 Z M309.847045,64.8 L308.787433,63.917617 L312.296537,59.6711489 L313.356149,60.5535319 L309.847045,64.8 Z M316.851493,56.2932766 L315.791881,55.4108936 L319.259701,51.1644255 L320.319313,52.0468085 L316.851493,56.2932766 Z M323.85594,47.7865532 L322.796328,46.9041702 L326.305433,42.6577021 L327.365045,43.5400851 L323.85594,47.7865532 Z M330.860388,39.2798298 L329.800776,38.3974468 L333.309881,34.1509787 L334.369493,35.0333617 L330.860388,39.2798298 Z M337.864836,30.7731064 L336.805224,29.8907234 L340.314328,25.6442553 L341.37394,26.5266383 L337.864836,30.7731064 Z M344.869284,22.266383 L343.809672,21.384 L347.318776,17.1375319 L348.378388,18.0199149 L344.869284,22.266383 Z M351.915015,13.787234 L350.910448,12.8910638 L354.419552,8.64459574 L355.479164,9.52697872 L351.915015,13.787234 Z M358.919463,5.28051064 L357.791045,4.38434043 L361.355194,0.13787234 L362.414806,1.02025532 L358.919463,5.28051064 Z" id="Shape" fill="#3A96D0" fill-rule="nonzero"></path>
                                <path d="M363.295522,322.800511 L359.758896,318.485106 L360.818507,317.602723 L364.327612,321.849191 L363.295522,322.800511 Z M356.249791,314.348936 L352.740687,310.102468 L353.800299,309.220085 L357.309403,313.466553 L356.249791,314.348936 Z M349.245343,305.842213 L345.736239,301.595745 L346.795851,300.713362 L350.304955,304.973617 L349.245343,305.842213 Z M342.240896,297.335489 L338.731791,293.075234 L339.791403,292.192851 L343.300507,296.439319 L342.240896,297.335489 Z M335.236448,288.828766 L331.727343,284.568511 L332.786955,283.686128 L336.29606,287.946383 L335.236448,288.828766 Z M328.232,280.322043 L324.764179,276.020426 L325.823791,275.138043 L329.332896,279.384511 L328.232,280.322043 Z M321.227552,271.815319 L317.704687,267.47234 L318.764299,266.589957 L322.273403,270.836426 L321.227552,271.815319 Z M314.223104,263.308596 L310.714,259.062128 L311.773612,258.179745 L315.282716,262.426213 L314.223104,263.308596 Z M307.218657,254.801872 L303.709552,250.555404 L304.769164,249.673021 L308.278269,253.919489 L307.218657,254.801872 Z M300.214209,246.295149 L296.705104,242.048681 L297.764716,241.166298 L301.232537,245.412766 L300.214209,246.295149 Z M293.113433,237.747064 L289.604328,233.500596 L290.66394,232.618213 L294.173045,236.864681 L293.113433,237.747064 Z M286.108985,229.24034 L282.599881,224.980085 L283.659493,224.097702 L287.168597,228.357957 L286.108985,229.24034 Z M279.104537,220.733617 L275.636716,216.459574 L276.696328,215.577191 L280.205433,219.837447 L279.104537,220.733617 Z M272.10009,212.226894 L268.590985,207.966638 L269.650597,207.084255 L273.159701,211.330723 L272.10009,212.226894 Z M265.095642,203.72017 L261.586537,199.473702 L262.646149,198.591319 L266.155254,202.837787 L265.095642,203.72017 Z M258.091194,195.213447 L254.58209,190.966979 L255.641701,190.084596 L259.150806,194.331064 L258.091194,195.213447 Z M251.086746,186.706723 L247.577642,182.460255 L248.637254,181.577872 L252.146358,185.82434 L251.086746,186.706723 Z M244.082299,178.2 L240.573194,173.953532 L241.632806,173.071149 L245.14191,177.317617 L244.082299,178.2 Z M237.077851,169.693277 L233.582507,165.446809 L234.642119,164.564426 L238.151224,168.810894 L237.077851,169.693277 Z" id="Shape" fill="#3A96D0" fill-rule="nonzero"></path>
                                <path d="M460.18809,165.157277 L454.683612,165.157277 L454.683612,163.778553 L460.18809,163.778553 L460.18809,165.157277 Z M449.179134,165.060766 L443.674657,165.060766 L443.674657,163.682043 L449.179134,163.682043 L449.179134,165.060766 Z M438.170179,164.964255 L432.665701,164.964255 L432.665701,163.585532 L438.170179,163.585532 L438.170179,164.964255 Z M427.161224,164.867745 L421.656746,164.867745 L421.656746,163.489021 L427.161224,163.489021 L427.161224,164.867745 Z M416.152269,164.771234 L410.647791,164.771234 L410.647791,163.392511 L416.152269,163.392511 L416.152269,164.771234 Z M405.143313,164.674723 L399.638836,164.674723 L399.638836,163.296 L405.143313,163.296 L405.143313,164.674723 Z M394.134358,164.578213 L388.629881,164.578213 L388.629881,163.199489 L394.134358,163.199489 L394.134358,164.578213 Z M383.125403,164.481702 L377.620925,164.481702 L377.620925,163.102979 L383.125403,163.102979 L383.125403,164.481702 Z M372.116448,164.385191 L366.61197,164.385191 L366.61197,163.006468 L372.116448,163.006468 L372.116448,164.385191 Z M361.107493,164.288681 L355.603015,164.288681 L355.603015,162.909957 L361.107493,162.909957 L361.107493,164.288681 Z M350.098537,164.19217 L344.59406,164.19217 L344.59406,162.813447 L350.098537,162.813447 L350.098537,164.19217 Z M339.089582,164.09566 L333.585104,164.09566 L333.585104,162.716936 L339.089582,162.716936 L339.089582,164.09566 Z M328.080627,163.999149 L322.576149,163.999149 L322.576149,162.620426 L328.080627,162.620426 L328.080627,163.999149 Z M317.071672,163.902638 L311.567194,163.902638 L311.567194,162.523915 L317.071672,162.523915 L317.071672,163.902638 Z M306.062716,163.806128 L300.558239,163.806128 L300.558239,162.427404 L306.062716,162.427404 L306.062716,163.806128 Z M295.053761,163.709617 L289.549284,163.709617 L289.549284,162.330894 L295.053761,162.330894 L295.053761,163.709617 Z M284.044806,163.613106 L278.540328,163.613106 L278.540328,162.234383 L284.044806,162.234383 L284.044806,163.613106 Z M273.035851,163.516596 L267.531373,163.516596 L267.531373,162.137872 L273.035851,162.137872 L273.035851,163.516596 Z M262.026896,163.420085 L256.522418,163.420085 L256.522418,162.041362 L262.026896,162.041362 L262.026896,163.420085 Z M251.01794,163.323574 L245.513463,163.323574 L245.513463,161.944851 L251.01794,161.944851 L251.01794,163.323574 Z M240.008985,163.227064 L234.504507,163.227064 L234.504507,161.84834 L240.008985,161.84834 L240.008985,163.227064 Z" id="Shape" fill="#3A96D0" fill-rule="nonzero"></path>
                                <circle id="Oval-2" fill="#FFFFFF" opacity="0.55" cx="229" cy="160" r="104"></circle>
                                <path d="M230.871552,228.744 C230.871552,228.744 173.693791,195.916596 173.693791,117.839489 L230.871552,96.3865532 L230.871552,228.744 Z" id="Shape" fill="#4D4D4D" fill-rule="nonzero"></path>
                                <path d="M230.871552,228.744 C230.871552,228.744 288.049313,195.916596 288.049313,117.839489 L230.871552,96.4003404 L230.871552,228.744 Z" id="Shape" fill="#313131" fill-rule="nonzero"></path>
                                <path d="M230.871552,228.744 C230.871552,228.744 173.693791,195.916596 173.693791,117.839489 L230.871552,96.3865532 L230.871552,228.744 Z" id="Shape" fill="#3A96D0" fill-rule="nonzero"></path>
                                <path d="M230.871552,228.744 C230.871552,228.744 288.049313,195.916596 288.049313,117.839489 L230.871552,96.4003404 L230.871552,228.744 Z" id="Shape" fill="#3488B2" fill-rule="nonzero"></path>
                                <polygon id="Shape" fill="#FFFFFF" fill-rule="nonzero" points="267.806597 147.233872 261.95809 138.547915 225.683582 163.089191 209.789403 146.668596 202.275791 153.962043 224.266179 176.697191 224.293701 176.683404 224.293701 176.683404"></polygon>
                                <ellipse id="Oval" fill="#3A96D0" fill-rule="nonzero" transform="translate(120.063696, 163.076896) rotate(-3.160000) translate(-120.063696, -163.076896) " cx="120.063696" cy="163.076896" rx="13.9400896" ry="13.9664681"></ellipse>
                                <path d="M120.052657,172.037106 C123.72614,172.037106 127.037908,169.820066 128.443689,166.419788 C129.84947,163.01951 129.07242,159.105621 126.474875,156.503161 C123.87733,153.900701 119.970833,153.12218 116.576977,154.530621 C113.183121,155.939063 110.970269,159.257098 110.970269,162.937532 C110.970269,167.963088 115.036592,172.037106 120.052657,172.037106 L120.052657,172.037106 Z M113.805075,161.310638 L118.043522,161.310638 C118.286726,161.310638 118.483881,161.11311 118.483881,160.869447 L118.483881,156.622979 C118.483881,156.379315 118.681036,156.181787 118.924239,156.181787 L121.208597,156.181787 C121.326531,156.17791 121.4408,156.223146 121.524237,156.306741 C121.607674,156.390336 121.652825,156.504821 121.648955,156.622979 L121.648955,160.869447 C121.648955,161.11311 121.84611,161.310638 122.089313,161.310638 L126.327761,161.310638 C126.56569,161.310522 126.760684,161.49978 126.768119,161.738043 L126.768119,164.068085 C126.768119,164.311748 126.570964,164.509277 126.327761,164.509277 L122.061791,164.509277 C121.823862,164.50916 121.628868,164.698418 121.621433,164.936681 L121.621433,169.183149 C121.621493,169.298933 121.574664,169.409788 121.49166,169.49035 C121.408656,169.570913 121.29658,169.614288 121.181075,169.610553 L118.910478,169.610553 C118.672549,169.61067 118.477555,169.421412 118.470119,169.183149 L118.470119,164.936681 C118.47018,164.820896 118.423351,164.710042 118.340347,164.629479 C118.257343,164.548917 118.145267,164.505542 118.029761,164.509277 L113.805075,164.509277 C113.561872,164.509277 113.364716,164.311748 113.364716,164.068085 L113.364716,161.779404 C113.352717,161.656632 113.394248,161.534652 113.478635,161.444822 C113.563021,161.354991 113.682032,161.306072 113.805075,161.310638 L113.805075,161.310638 Z" id="Shape" fill="#FFFFFF" fill-rule="nonzero"></path>
                                <ellipse id="Oval" fill="#3A96D0" fill-rule="nonzero" transform="translate(159.750094, 76.376267) rotate(-3.160000) translate(-159.750094, -76.376267) " cx="159.750094" cy="76.3762672" rx="13.9400896" ry="13.9664681"></ellipse>
                                <path d="M159.753701,85.3291915 C164.769766,85.3291915 168.83609,81.2551732 168.83609,76.229617 C168.83609,71.2040608 164.769766,67.1300426 159.753701,67.1300426 C154.737637,67.1300426 150.671313,71.2040608 150.671313,76.229617 C150.671313,81.2551732 154.737637,85.3291915 159.753701,85.3291915 L159.753701,85.3291915 Z M153.492358,74.6578723 L157.730806,74.6578723 C157.974009,74.6578723 158.171164,74.4603442 158.171164,74.2166809 L158.171164,69.9564255 C158.171164,69.7127622 158.368319,69.515234 158.611522,69.515234 L160.895881,69.515234 C161.013815,69.5113569 161.128084,69.5565932 161.211521,69.6401879 C161.294958,69.7237827 161.340109,69.8382683 161.336239,69.9564255 L161.336239,74.2028936 C161.336239,74.4465569 161.533394,74.6440851 161.776597,74.6440851 L166.015045,74.6440851 C166.252974,74.6439687 166.447968,74.8332267 166.455403,75.0714894 L166.455403,77.3601702 C166.455403,77.6038335 166.258248,77.8013617 166.015045,77.8013617 L161.776597,77.8013617 C161.538668,77.8012453 161.343674,77.9905033 161.336239,78.228766 L161.336239,82.475234 C161.336239,82.7188974 161.139084,82.9164255 160.895881,82.9164255 L158.611522,82.9164255 C158.368319,82.9164255 158.171164,82.7188974 158.171164,82.475234 L158.171164,78.2425532 C158.163729,78.0042905 157.968735,77.8150325 157.730806,77.8151489 L153.492358,77.8151489 C153.249155,77.8151489 153.052,77.6176208 153.052,77.3739574 L153.052,75.0852766 C153.047857,74.9646035 153.094852,74.8478046 153.181371,74.7637488 C153.26789,74.6796931 153.385859,74.6362238 153.506119,74.6440851 L153.492358,74.6578723 Z" id="Shape" fill="#FFFFFF" fill-rule="nonzero"></path>
                                <ellipse id="Oval" fill="#3A96D0" fill-rule="nonzero" transform="translate(161.143761, 242.681515) rotate(-3.433630) translate(-161.143761, -242.681515) " cx="161.143761" cy="242.681515" rx="13.9651592" ry="13.9915851"></ellipse>
                                <path d="M160.799552,252.044426 C165.815617,252.044426 169.88194,247.970407 169.88194,242.944851 C169.88194,237.919295 165.815617,233.845277 160.799552,233.845277 C155.783488,233.845277 151.717164,237.919295 151.717164,242.944851 C151.717164,247.970407 155.783488,252.044426 160.799552,252.044426 L160.799552,252.044426 Z M154.538209,241.373106 L158.776657,241.373106 C159.01986,241.373106 159.217015,241.175578 159.217015,240.931915 L159.217015,236.685447 C159.22445,236.447184 159.419444,236.257926 159.657373,236.258043 L161.941731,236.258043 C162.057237,236.254308 162.169313,236.297683 162.252317,236.378245 C162.335321,236.458808 162.38215,236.569662 162.38209,236.685447 L162.38209,240.931915 C162.38209,241.175578 162.579245,241.373106 162.822448,241.373106 L167.060896,241.373106 C167.298824,241.37299 167.493818,241.562248 167.501254,241.800511 L167.501254,244.034043 C167.501254,244.277706 167.304099,244.475234 167.060896,244.475234 L162.822448,244.475234 C162.584519,244.475118 162.389525,244.664376 162.38209,244.902638 L162.38209,249.149106 C162.38209,249.39277 162.184934,249.590298 161.941731,249.590298 L159.629851,249.590298 C159.386648,249.590298 159.189493,249.39277 159.189493,249.149106 L159.189493,244.902638 C159.182057,244.664376 158.987063,244.475118 158.749134,244.475234 L154.538209,244.475234 C154.305816,244.460654 154.124918,244.267331 154.125373,244.034043 L154.125373,241.745362 C154.157683,241.539011 154.329994,241.383637 154.538209,241.373106 Z" id="Shape" fill="#FFFFFF" fill-rule="nonzero"></path>
                                <path d="M326.236627,161.696681 C325.899756,167.34136 328.993401,172.632536 334.072476,175.098624 C339.151552,177.564711 345.213647,176.719002 349.427071,172.956539 C353.640494,169.194076 355.173682,163.257421 353.310459,157.919672 C351.447236,152.581923 346.55533,148.896541 340.919821,148.585021 C337.236674,148.370463 333.619502,149.631856 330.865312,152.091267 C328.111122,154.550677 326.445924,158.006285 326.236627,161.696681 L326.236627,161.696681 Z" id="Shape" fill="#3A96D0" fill-rule="nonzero"></path>
                                <path d="M349.231582,162.317106 C349.248297,158.632954 347.046073,155.302246 343.653575,153.880763 C340.261076,152.459281 336.347827,153.227559 333.741715,155.826734 C331.135604,158.425909 330.350957,162.343022 331.754284,165.74838 C333.157612,169.153739 336.471962,171.375281 340.149194,171.375319 C342.553076,171.382642 344.861206,170.431971 346.564882,168.73283 C348.268559,167.033688 349.22794,164.725546 349.231582,162.317106 L349.231582,162.317106 Z M346.78209,161.172766 L346.78209,163.44766 C346.774654,163.685922 346.57966,163.87518 346.341731,163.875064 L342.103284,163.875064 C341.865355,163.874947 341.670361,164.064205 341.662925,164.302468 L341.662925,168.535149 C341.65549,168.773412 341.460496,168.96267 341.222567,168.962553 L338.938209,168.962553 C338.822703,168.966288 338.710627,168.922913 338.627624,168.84235 C338.54462,168.761788 338.497791,168.650933 338.497851,168.535149 L338.497851,164.302468 C338.490415,164.064205 338.295421,163.874947 338.057493,163.875064 L333.819045,163.875064 C333.581116,163.87518 333.386122,163.685922 333.378687,163.44766 L333.378687,161.172766 C333.386122,160.934503 333.581116,160.745245 333.819045,160.745362 L338.057493,160.745362 C338.300696,160.745362 338.497851,160.547834 338.497851,160.30417 L338.497851,156.071489 C338.497791,155.955705 338.54462,155.84485 338.627624,155.764288 C338.710627,155.683726 338.822703,155.64035 338.938209,155.644085 L341.277612,155.644085 C341.515541,155.643969 341.710535,155.833227 341.71797,156.071489 L341.71797,160.30417 C341.71797,160.547834 341.915125,160.745362 342.158328,160.745362 L346.396776,160.745362 C346.616124,160.766727 346.783124,160.95197 346.78209,161.172766 Z" id="Shape" fill="#FFFFFF" fill-rule="nonzero"></path>
                                <path d="M286.535582,75.3885957 C286.198711,81.033275 289.292356,86.324451 294.371432,88.7905387 C299.450507,91.2566264 305.512602,90.4109172 309.726026,86.6484541 C313.93945,82.8859911 315.472637,76.9493362 313.609414,71.611587 C311.746191,66.2738378 306.854285,62.5884558 301.218776,62.2769362 C297.535629,62.0623776 293.918457,63.3237712 291.164267,65.7831816 C288.410077,68.242592 286.744879,71.6981994 286.535582,75.3885957 Z" id="Shape" fill="#3A96D0" fill-rule="nonzero"></path>
                                <path d="M309.530537,76.0090213 C309.547252,72.3248693 307.345028,68.994161 303.95253,67.5726782 C300.560031,66.1511954 296.646782,66.9194738 294.040671,69.5186486 C291.434559,72.1178235 290.649912,76.0349366 292.05324,79.4402952 C293.456567,82.8456539 296.770918,85.067196 300.448149,85.067234 C302.852031,85.0745573 305.160161,84.1238864 306.863838,82.4247445 C308.567514,80.7256026 309.526895,78.4174605 309.530537,76.0090213 L309.530537,76.0090213 Z M307.13609,74.8646809 L307.13609,77.2085106 C307.13609,77.452174 306.938934,77.6497021 306.695731,77.6497021 L302.457284,77.6497021 C302.341778,77.6459671 302.229702,77.6893428 302.146698,77.769905 C302.063694,77.8504673 302.016865,77.961322 302.016925,78.0771064 L302.016925,82.3097872 C302.00949,82.5480499 301.814496,82.7373079 301.576567,82.7371915 L299.30597,82.7371915 C299.190465,82.7409265 299.078389,82.6975508 298.995385,82.6169886 C298.912381,82.5364264 298.865552,82.4255716 298.865612,82.3097872 L298.865612,78.0219574 C298.858177,77.7836948 298.663183,77.5944368 298.425254,77.5945532 L294.186806,77.5945532 C293.943603,77.5945532 293.746448,77.397025 293.746448,77.1533617 L293.746448,74.8646809 C293.753883,74.6264182 293.948877,74.4371602 294.186806,74.4372766 L298.425254,74.4372766 C298.668457,74.4372766 298.865612,74.2397484 298.865612,73.9960851 L298.865612,69.7771915 C298.865552,69.6614071 298.912381,69.5505524 298.995385,69.4699901 C299.078389,69.3894279 299.190465,69.3460522 299.30597,69.3497872 L301.590328,69.3497872 C301.705834,69.3460522 301.81791,69.3894279 301.900914,69.4699901 C301.983918,69.5505524 302.030747,69.6614071 302.030687,69.7771915 L302.030687,74.0098723 C302.030687,74.2535357 302.227842,74.4510638 302.471045,74.4510638 L306.709493,74.4510638 C306.939824,74.4509437 307.12866,74.6340331 307.13609,74.8646809 L307.13609,74.8646809 Z" id="Shape" fill="#FFFFFF" fill-rule="nonzero"></path>
                                <ellipse id="Oval" fill="#3A96D0" fill-rule="nonzero" transform="translate(299.430847, 242.114851) rotate(-86.850000) translate(-299.430847, -242.114851) " cx="299.430847" cy="242.114851" rx="13.8712836" ry="13.9664681"></ellipse>
                                <path d="M308.484687,241.95217 C308.501401,238.268018 306.299177,234.93731 302.906679,233.515827 C299.514181,232.094344 295.600932,232.862623 292.99482,235.461798 C290.388708,238.060972 289.604061,241.978086 291.007389,245.383444 C292.410717,248.788803 295.725067,251.010345 299.402299,251.010383 C301.806181,251.017706 304.11431,250.067035 305.817987,248.367893 C307.521663,246.668752 308.481044,244.360609 308.484687,241.95217 Z M306.090239,240.80783 L306.090239,243.082723 C306.082804,243.320986 305.887809,243.510244 305.649881,243.510128 L301.370149,243.510128 C301.254644,243.506393 301.142568,243.549768 301.059564,243.630331 C300.97656,243.710893 300.929731,243.821748 300.929791,243.937532 L300.929791,248.170213 C300.922356,248.408475 300.727362,248.597733 300.489433,248.597617 L298.205075,248.597617 C298.089569,248.601352 297.977493,248.557976 297.894489,248.477414 C297.811485,248.396852 297.764656,248.285997 297.764716,248.170213 L297.764716,243.937532 C297.757281,243.699269 297.562287,243.510011 297.324358,243.510128 L293.113433,243.510128 C292.875504,243.510244 292.68051,243.320986 292.673075,243.082723 L292.673075,240.80783 C292.68051,240.569567 292.875504,240.380309 293.113433,240.380426 L297.351881,240.380426 C297.595084,240.380426 297.792239,240.182897 297.792239,239.939234 L297.792239,235.761702 C297.792179,235.645918 297.839008,235.535063 297.922012,235.454501 C298.005016,235.373939 298.117091,235.330563 298.232597,235.334298 L300.516955,235.334298 C300.754884,235.334181 300.949878,235.523439 300.957313,235.761702 L300.957313,239.897872 C300.957313,240.141536 301.154469,240.339064 301.397672,240.339064 L305.636119,240.339064 C305.76646,240.325159 305.895945,240.37206 305.987277,240.466256 C306.07861,240.560453 306.12165,240.691488 306.104,240.821617 L306.090239,240.80783 Z" id="Shape" fill="#FFFFFF" fill-rule="nonzero"></path>
                            </g>
                        </g>
                    </g>
                </g>
            </g>
        </g>
    </g>
</svg>