<?xml version="1.0" encoding="UTF-8"?>
<svg width="441px" height="797px" viewBox="0 0 441 797" version="1.1" xmlns="http://www.w3.org/2000/svg" xmlns:xlink="http://www.w3.org/1999/xlink">
    <!-- Generator: Sketch 42 (36781) - http://www.bohemiancoding.com/sketch -->
    <title>Icon_Fichier 2Smartphone</title>
    <desc>Created with Sketch.</desc>
    <defs></defs>
    <g id="Symbols" stroke="none" stroke-width="1" fill="none" fill-rule="evenodd">
        <g id="Icon_Fichier-2Smartphone" fill-rule="nonzero" fill="#FFFFFF">
            <g id="190ae0f8-2409-4618-848d-bcf062445bd8">
                <g id="27d74645-a24a-4859-bfc1-86438e0d83c4">
                    <path d="M364.39082,8.55245961e-15 L76.3383607,8.55245961e-15 C34.1982208,0.049532837 0.0491430704,34.4694558 0,76.9438202 L0,719.101124 C0.0491430704,761.575488 34.1982208,795.995411 76.3383607,796.044944 L364.39082,796.044944 C406.53096,795.995411 440.680037,761.575488 440.72918,719.101124 L440.72918,76.9438202 C440.680037,34.4694558 406.53096,0.049532837 364.39082,0 L364.39082,8.55245961e-15 Z M26.7540984,146.067416 L413.975082,146.067416 L413.975082,624.269663 L26.7540984,624.269663 L26.7540984,146.067416 Z M76.3383607,26.9662921 L364.39082,26.9662921 C391.755095,27.0157655 413.925998,49.3625121 413.975082,76.9438202 L413.975082,119.101124 L26.7540984,119.101124 L26.7540984,76.9438202 C26.8031824,49.3625121 48.9740858,27.0157655 76.3383607,26.9662921 L76.3383607,26.9662921 Z M364.39082,769.348315 L76.3383607,769.348315 C63.1486441,769.324533 50.50984,764.014389 41.2084146,754.588606 C31.9069893,745.162823 26.7067173,732.395387 26.7540984,719.101124 L26.7540984,651.325843 L413.975082,651.325843 L413.975082,719.101124 C414.022463,732.395387 408.822191,745.162823 399.520766,754.588606 C390.21934,764.014389 377.580536,769.324533 364.39082,769.348315 L364.39082,769.348315 Z" id="Shape"></path>
                    <path d="M186.119344,81.4382022 L254.609836,81.4382022 C261.997776,81.4382022 267.986885,75.4015921 267.986885,67.9550562 C267.986885,60.5085202 261.997776,54.4719101 254.609836,54.4719101 L186.119344,54.4719101 C178.731404,54.4719101 172.742295,60.5085202 172.742295,67.9550562 C172.742295,75.4015921 178.731404,81.4382022 186.119344,81.4382022 Z" id="Shape"></path>
                    <path d="M221.523934,671.011236 C179.074098,671.011236 172.742295,694.831461 172.742295,709.033708 C172.742295,723.235955 179.074098,747.05618 221.523934,747.05618 C263.97377,747.05618 270.305574,723.235955 270.305574,709.033708 C270.305574,694.831461 263.97377,671.011236 221.523934,671.011236 Z M221.523934,720.179775 C199.496393,720.179775 199.496393,713.797753 199.496393,709.123596 C199.496393,704.449438 199.496393,698.067416 221.523934,698.067416 C243.551475,698.067416 243.551475,704.449438 243.551475,709.123596 C243.551475,713.797753 243.551475,720.179775 221.523934,720.179775 Z" id="Shape"></path>
                </g>
            </g>
        </g>
    </g>
</svg>