<?xml version="1.0" encoding="UTF-8"?>
<svg width="1423px" height="800px" viewBox="0 0 1423 800" version="1.1" xmlns="http://www.w3.org/2000/svg" xmlns:xlink="http://www.w3.org/1999/xlink">
    <!-- Generator: Sketch 42 (36781) - http://www.bohemiancoding.com/sketch -->
    <title>Shape</title>
    <desc>Created with Sketch.</desc>
    <defs></defs>
    <g id="Symbols" stroke="none" stroke-width="1" fill="none" fill-rule="evenodd">
        <g id="Shape" fill="#FFFFFF" fill-rule="nonzero">
            <path d="M1121.37753,193.105395 C1081.26025,193.024211 1041.52961,200.954055 1004.50999,216.430997 L918.577981,49.3279127 L1038.8828,49.3279127 C1051.96037,49.3279138 1062.56184,59.9423417 1062.56184,73.0359018 C1062.56184,86.1294618 1051.96037,96.7438897 1038.8828,96.7438908 L1013.29416,96.7438908 C999.794724,96.7438908 988.851272,107.70072 988.851272,121.216654 C988.851272,134.732587 999.794724,145.689417 1013.29416,145.689417 L1038.8828,145.689417 C1078.95924,145.689417 1111.44761,113.16133 1111.44761,73.0359018 C1111.44761,32.9104735 1078.95924,0.38238692 1038.8828,0.38238692 L878.476375,0.38238692 C869.979798,0.389378094 862.096419,4.8135542 857.656429,12.0666042 C853.216438,19.3196542 852.856915,28.3608626 856.706931,35.9443705 L899.481978,118.922332 L546.969762,118.922332 L511.451196,48.9455258 L567.211525,48.9455258 C580.710957,48.9455258 591.654409,37.9886966 591.654409,24.4727629 C591.654409,10.9568292 580.710957,0 567.211525,0 L406.805099,0 C393.305667,0 382.362215,10.9568292 382.362215,24.4727629 C382.362215,37.9886966 393.305667,48.9455258 406.805099,48.9455258 L456.454707,48.9455258 L503.812795,142.247934 L448.052466,228.667378 C330.195921,164.538507 184.261529,185.553333 89.2329953,280.338055 C-5.79553834,375.122777 -27.3377354,521.154851 36.2656336,639.397703 C99.8690025,757.640555 233.50464,819.99757 364.845265,792.719417 C496.185889,765.441264 594.022621,655.00972 605.403531,521.193372 L677.204502,521.193372 L649.324338,611.819072 L633.283695,611.819072 C619.784263,611.819072 608.840812,622.775902 608.840812,636.291835 C608.840812,649.807769 619.784263,660.764598 633.283695,660.764598 L721.125309,660.764598 C734.624742,660.764598 745.568193,649.807769 745.568193,636.291835 C745.568193,622.775902 734.624742,611.819072 721.125309,611.819072 L700.501626,611.819072 L732.582911,507.045056 L935.764384,192.723008 L959.443428,238.609438 C831.059428,318.65476 781.211664,481.177797 842.598138,619.570385 C903.984612,757.962973 1057.83599,829.910629 1203.23234,788.218767 C1348.6287,746.526904 1441.11409,603.943096 1420.02207,453.996225 C1398.93005,304.049354 1270.70963,192.586704 1119.46793,192.723008 L1121.37753,193.105395 Z M529.401439,193.105395 L671.857622,473.01262 L605.403531,473.01262 C599.472186,387.687592 557.870375,308.825213 490.827513,255.81685 L529.401439,193.105395 Z M557.663523,472.247847 L349.51709,472.247847 L464.093108,297.114637 C517.99592,340.517629 551.918939,404.028458 558.045443,473.01262 L557.663523,472.247847 Z M304.450523,751.390298 C199.0882,751.090072 104.817525,685.782556 67.3977018,587.168168 C29.9778782,488.55378 57.1560708,377.049023 135.739922,306.778563 C214.323774,236.508103 328.043777,222.020294 421.699982,270.347553 L284.20876,483.337067 C279.071062,490.895146 278.569487,500.690238 282.908226,508.734761 C287.246965,516.779285 295.702446,521.731654 304.832443,521.575759 L558.045443,521.575759 C545.100672,651.914303 435.653795,751.247605 304.832443,751.390298 L304.450523,751.390298 Z M714.250748,447.775084 L571.794566,167.103084 L895.280857,167.103084 L714.250748,447.775084 Z M1121.37753,751.390298 C1008.08616,751.839946 908.154398,677.216045 876.28301,568.366304 C844.411622,459.516562 888.284438,342.683435 983.886311,281.81916 L1063.7076,434.773928 C1069.93,446.811556 1084.72076,451.519568 1096.74369,445.289568 C1108.76662,439.059567 1113.46889,424.250728 1107.24649,412.2131 L1026.66136,259.258332 C1121.80256,221.439946 1230.31606,244.409277 1302.02843,317.545985 C1373.74079,390.682694 1394.67681,499.733999 1355.15629,594.277795 C1315.63577,688.821592 1223.36041,750.433316 1120.99561,750.625524 L1121.37753,751.390298 Z"></path>
        </g>
    </g>
</svg>