<?xml version="1.0" encoding="UTF-8" standalone="no"?>
<svg width="74px" height="144px" viewBox="0 0 74 144" version="1.1" xmlns="http://www.w3.org/2000/svg" xmlns:xlink="http://www.w3.org/1999/xlink">
    <!-- Generator: Sketch 41.2 (35397) - http://www.bohemiancoding.com/sketch -->
    <title>smartphoneFichier 18 Copy 2</title>
    <desc>Created with Sketch.</desc>
    <defs></defs>
    <g id="Page-1" stroke="none" stroke-width="1" fill="none" fill-rule="evenodd">
        <g id="LANDING-HV" transform="translate(-749.000000, -3648.000000)">
            <g id="smartphoneFichier-18-Copy-2" transform="translate(749.000000, 3648.200000)">
                <g id="smartphoneFichier-18">
                    <g id="9bd80a80-a90c-4d69-8f80-a3751340f9a5">
                        <g id="5bb1948c-3dda-4bf7-8d60-b466f3a91d19">
                            <g id="81d76407-8e5a-456d-9b55-a97a6cd9d2fb">
                                <g id="24aa2961-fda4-4933-a3f5-e76f82f8e56f">
                                    <path d="M73.2338824,15.0673171 L0.383058824,15.0673171 C0.171501277,15.0673171 2.59083272e-17,14.8955473 0,14.6836585 C-2.59083272e-17,14.4717698 0.171501277,14.3 0.383058824,14.3 L73.2338824,14.3 C73.4454399,14.3 73.6169412,14.4717698 73.6169412,14.6836585 C73.6169412,14.8955473 73.4454399,15.0673171 73.2338824,15.0673171 L73.2338824,15.0673171 Z" id="Shape" fill="#000000"></path>
                                    <path d="M73.2338824,122.967317 L0.383058824,122.967317 C0.171501277,122.967317 2.59083272e-17,122.795547 0,122.583659 C-2.59083272e-17,122.37177 0.171501277,122.2 0.383058824,122.2 L73.2338824,122.2 C73.4454399,122.2 73.6169412,122.37177 73.6169412,122.583659 C73.6169412,122.795547 73.4454399,122.967317 73.2338824,122.967317 L73.2338824,122.967317 Z" id="Shape" fill="#000000"></path>
                                    <path d="M43.5181093,133.367317 L28.9444622,133.367317 C28.7329047,133.367317 28.5614035,133.195547 28.5614035,132.983659 C28.5614035,132.77177 28.7329047,132.6 28.9444622,132.6 L43.5181093,132.6 C43.6549631,132.6 43.7814212,132.673125 43.849848,132.791829 C43.9182749,132.910534 43.9182749,133.056783 43.849848,133.175488 C43.7814212,133.294192 43.6549631,133.367317 43.5181093,133.367317 L43.5181093,133.367317 Z" id="Shape" fill="#000000"></path>
                                    <path d="M63.5529412,143 L10.0988235,143 C4.51998934,142.995187 -2.06942296e-06,138.464217 0,132.876646 L0,10.1146341 C0.00480020646,4.53046859 4.52338682,0.00480772162 10.0988235,0 L63.5529412,0 C69.1283779,0.00480772162 73.6469645,4.53046859 73.6517647,10.1146341 L73.6517647,132.876646 C73.6517668,138.464217 69.1317754,142.995187 63.5529412,143 Z M10.0988235,0.767317073 C4.94650175,0.772124145 0.770917205,4.95424594 0.766117647,10.1146341 L0.766117647,132.876646 C0.770917205,138.037035 4.94650175,142.219156 10.0988235,142.223963 L63.5529412,142.223963 C68.705263,142.219156 72.8808475,138.037035 72.8856471,132.876646 L72.8856471,10.1146341 C72.8808475,4.95424594 68.705263,0.772124145 63.5529412,0.767317073 L10.0988235,0.767317073 Z" id="Shape" fill="#000000"></path>
                                    <g id="Finger-PointerFichier-1" transform="translate(38.407990, 60.245341) rotate(-329.000000) translate(-38.407990, -60.245341) translate(11.407990, 39.745341)" fill="#3996D0">
                                        <path d="M53.6393431,28.5231132 L47.1812708,18.1600957 C47.1457916,18.1014854 47.1036807,18.0471067 47.0557605,17.9980216 L37.878843,8.8732501 C37.0546433,8.05439276 35.8898083,7.67085957 34.7369841,7.83876263 C33.5841599,8.00666569 32.5788858,8.70626435 32.0255019,9.72575983 C31.9700818,9.82840676 31.920095,9.93267442 31.8755416,10.0385628 C31.748594,10.3392024 31.6625321,10.6553317 31.6196311,10.9785926 C31.5853256,11.2353821 31.5782233,11.4950428 31.5984411,11.7533067 C31.5120509,11.7533067 31.4272908,11.7435823 31.3409006,11.7435823 L31.2805905,11.7435823 C31.1779003,11.7435823 31.0752101,11.7435823 30.9725199,11.758169 L30.9252498,11.758169 C30.8192996,11.7695142 30.7149794,11.7841008 30.6106592,11.8035497 L30.5845792,11.8035497 C30.4759123,11.8240791 30.3710487,11.8494707 30.2699886,11.8797245 L30.2536885,11.8797245 C30.1493683,11.9105186 30.0483081,11.9461749 29.9472479,11.9866934 L29.9064979,12.0029008 C29.8086977,12.0417986 29.7141575,12.0871794 29.6196173,12.1341809 L29.5723472,12.158492 C29.4799804,12.2081947 29.3892435,12.2622194 29.3001367,12.3205661 L29.2561266,12.3497394 C29.1664765,12.4097068 29.0784563,12.4729157 28.9920661,12.5426076 L28.9627261,12.5669187 C28.8730759,12.639852 28.7866857,12.7176476 28.7019256,12.8003054 C28.6038448,12.8977237 28.5113328,13.0005319 28.424825,13.1082462 C28.0912587,13.523633 27.8531431,14.0065624 27.7271837,14.523153 C27.6350357,14.9016043 27.6036781,15.2921675 27.6342735,15.680362 C27.5478834,15.680362 27.4631232,15.6706376 27.376733,15.6706376 L27.3180529,15.6706376 C27.2267728,15.6706376 27.1371226,15.6706376 27.0458424,15.6836035 L27.0099823,15.6836035 L26.9627123,15.6836035 C26.8567621,15.6949487 26.7524419,15.7095354 26.6481217,15.7289843 L26.6122616,15.7581576 C26.5035947,15.778687 26.3987312,15.8040786 26.297671,15.8343324 L26.281371,15.8343324 C26.1770508,15.8651265 26.0759906,15.9007828 25.9749304,15.9413013 L25.9341803,15.9575087 C25.8380101,15.9964065 25.7418399,16.0417873 25.6472998,16.0887888 L25.6000297,16.1130999 C25.5076628,16.1617221 25.416926,16.2157468 25.3278191,16.275174 L25.3278191,16.275174 L25.2854391,16.3027266 C25.1957889,16.362694 25.1077687,16.4259029 25.0213786,16.4955947 L24.9920385,16.5199058 C24.9023883,16.5928392 24.8159982,16.6706347 24.732868,16.7532925 L24.732868,16.7532925 C24.5497885,16.9337787 24.385921,17.1325611 24.2438671,17.3464837 C24.198227,17.4167158 24.1547602,17.4880284 24.1134668,17.5604215 C23.9510049,17.8483863 23.8287189,18.1569988 23.7499761,18.4777609 L20.6529702,15.3983531 L20.2096094,14.9575116 L16.6692427,11.4437452 C16.4932902,11.2686542 16.2999644,11.1117229 16.0922216,10.9753511 C15.9583828,10.8890926 15.818989,10.8116705 15.6749408,10.7435851 C15.5408425,10.6814505 15.4031341,10.6273296 15.26255,10.581511 C15.1227621,10.5334314 14.9801409,10.4939192 14.8354892,10.463197 L14.723019,10.4405066 C14.6219588,10.4221382 14.5198119,10.4080918 14.4165784,10.3983673 C14.3399682,10.3983673 14.2633581,10.3886429 14.1867479,10.3854014 L14.1085078,10.3854014 L14.0628677,10.3854014 C13.8839053,10.3860903 13.7052267,10.3996317 13.5282267,10.4259199 L13.4923666,10.4259199 C13.4010864,10.4405066 13.3098063,10.456714 13.2185261,10.4777836 L13.2087461,10.4777836 C13.1163792,10.4993935 13.0245557,10.5247851 12.9332755,10.5539584 L12.8876355,10.5717866 C12.817002,10.5955575 12.7463685,10.6214893 12.6757351,10.6495822 L12.6072749,10.6787555 C12.5225148,10.7160325 12.4442746,10.7533096 12.3546244,10.7970696 C11.3188149,11.3399733 10.6037564,12.3396162 10.4278623,13.4906589 C10.2519683,14.6417015 10.6361326,15.8074162 11.4630127,16.631737 L15.8314211,20.9753227 L16.0465815,21.1892605 L18.0025852,23.1341496 L19.1191373,24.2443571 L20.0759491,25.1973528 L24.5470477,29.6430452 L19.7825486,29.6430452 C19.3612696,29.6425086 18.9422084,29.7036726 18.5388562,29.8245682 C18.0894038,29.9596605 17.6657651,30.168359 17.2853838,30.4420705 C17.2147504,30.4928537 17.1452036,30.5468784 17.0767434,30.6041446 C16.9680766,30.6927451 16.863213,30.7872883 16.7621528,30.8877743 C16.7121661,30.937477 16.663266,30.9888004 16.6154526,31.0417446 C16.1743757,31.5241052 15.8518722,32.1016458 15.6733108,32.728936 C15.565425,33.1069829 15.5105733,33.4980354 15.5103105,33.8910072 C15.5103105,33.9990566 15.5146571,34.107106 15.5233505,34.2151554 C15.5320438,34.3232048 15.5445405,34.4312542 15.5608405,34.5393036 C15.5820841,34.6789316 15.6103732,34.8174096 15.6456007,34.9542133 C15.6803741,35.089275 15.7222109,35.2221758 15.7711109,35.3529155 C15.7950177,35.4177452 15.8205544,35.4820346 15.8477211,35.5457837 C15.9287084,35.7355368 16.0234998,35.9191672 16.1313416,36.0952149 C16.2030618,36.2119082 16.2796719,36.3248198 16.3611721,36.4339497 C16.4426722,36.5430796 16.5296057,36.6478875 16.6219726,36.7483735 C16.6676127,36.7991567 16.7148827,36.8483192 16.7637828,36.8958609 C16.9088484,37.040131 17.0640938,37.1739125 17.2283337,37.2961839 C17.2826672,37.3372427 17.3370006,37.3766807 17.391334,37.414498 C17.5000009,37.4912131 17.6173611,37.5619854 17.7434147,37.6268151 C17.8042682,37.6592299 17.8656649,37.6905642 17.9276051,37.720818 C18.241798,37.871716 18.573587,37.9833171 18.9153869,38.0530699 C18.9849337,38.0671164 19.0544805,38.079542 19.1240273,38.090347 C19.2660855,38.1121529 19.4091673,38.1267584 19.5527181,38.134107 L19.7711386,38.134107 L34.8731173,38.2880774 L41.6082901,40.717568 L41.6082901,40.717568 C41.6528486,40.7336322 41.698637,40.7460983 41.7452104,40.7548451 L41.7908505,40.7548451 C41.822734,40.7592931 41.854839,40.7619984 41.8870207,40.7629488 L41.9342908,40.7629488 C41.9758016,40.762077 42.0171984,40.7582858 42.058171,40.7516036 L42.0907711,40.7516036 C42.1402935,40.7411537 42.1888269,40.7265138 42.2358413,40.7078436 L42.2684414,40.6932569 C42.3055732,40.6768357 42.3415189,40.6578819 42.3760216,40.636531 L42.4135117,40.6122199 C42.4571473,40.5829584 42.4980607,40.5498712 42.5357619,40.5133547 L53.5073128,29.6057682 C53.7985713,29.3190286 53.8532381,28.8707583 53.6393431,28.5231132 L53.6393431,28.5231132 Z M41.6849003,38.8828893 L35.3376682,36.5879201 C35.2905197,36.5708514 35.2419848,36.5578377 35.1925979,36.5490223 C35.1436496,36.5400596 35.0940334,36.5351804 35.0442676,36.5344357 L19.7825486,36.3723616 C19.3662586,36.3726 18.9565658,36.2689477 18.5910163,36.0709038 C18.5203828,36.0330865 18.4513794,35.9914875 18.3840059,35.9461067 C17.9814727,35.6755639 17.6661791,35.2950838 17.4760942,34.8504858 C17.4445808,34.7759318 17.4163274,34.6997569 17.391334,34.6219614 C17.3418615,34.4636165 17.3085501,34.3007207 17.2919038,34.1357391 C17.2832202,34.0511951 17.2788679,33.9662665 17.2788638,33.8812828 C17.2779243,33.4725959 17.3787209,33.0700301 17.5722644,32.7094871 C17.6102978,32.6381745 17.6521345,32.5684826 17.6977746,32.5004115 C17.9285729,32.161168 18.2390946,31.8830083 18.6024263,31.690041 C18.6741465,31.6522237 18.7474966,31.6176479 18.8224768,31.5863136 C19.1264302,31.4616359 19.4521176,31.3977497 19.7809186,31.3983076 L26.5975916,31.3983076 C26.9190197,31.3990293 27.2154801,31.226111 27.3716949,30.9467917 C27.5279097,30.6674725 27.519227,30.3258308 27.349023,30.0547134 L27.2039527,29.8229475 C27.1687577,29.7641449 27.1266223,29.7097345 27.0784425,29.6608734 L21.6211921,24.2346327 L21.026241,23.6430623 L19.5934682,22.218431 L17.8004648,20.4356159 L16.6594626,19.3010973 L12.7132251,15.3853872 C12.4425919,15.1172916 12.2591726,14.7745582 12.1867341,14.4015974 C12.1399642,14.1607102 12.1399642,13.9131512 12.1867341,13.672264 C12.1986875,13.6117564 12.2133575,13.5523292 12.2307442,13.4939825 C12.3224172,13.1871825 12.4906325,12.9084169 12.7197451,12.683612 C12.7658404,12.6374433 12.8142592,12.5936271 12.8648154,12.552332 C13.2068292,12.2751411 13.6346722,12.1239853 14.0759077,12.1244564 C14.1378478,12.1244564 14.1992446,12.1271577 14.2600981,12.1325601 C14.3826811,12.1442388 14.5038556,12.1675761 14.6219588,12.202252 C14.9305408,12.2933392 15.2109149,12.4606078 15.4369603,12.6884743 L23.7679062,20.9720812 L24.706788,21.9121109 C24.7481291,21.9531831 24.7934454,21.9900988 24.8420782,22.0223213 C24.8583783,22.0336665 24.8763083,22.0401495 24.8926083,22.0498739 C24.92461,22.0692444 24.9578207,22.0865674 24.9920385,22.1017376 C25.0132285,22.1098413 25.0344186,22.1163243 25.0556086,22.1228073 C25.0870835,22.1343358 25.119192,22.1440759 25.1517788,22.1519806 C25.1745989,22.1519806 25.1990489,22.1519806 25.2218689,22.161705 C25.2531856,22.1666186 25.284744,22.1698647 25.3164091,22.1714295 L25.3359692,22.1714295 L25.4060593,22.1714295 L25.4728894,22.1714295 C25.5042151,22.1660581 25.5352294,22.1590249 25.5657996,22.1503599 L25.6261097,22.1341524 C25.6595374,22.1220871 25.6921976,22.1080147 25.7239099,22.0920132 C25.7402099,22.0920132 25.75651,22.0790473 25.77281,22.0693228 C25.8201228,22.0426765 25.8648654,22.0117516 25.9064702,21.9769406 L25.9064702,21.9769406 C26.1189427,21.7980632 26.2347894,21.5304899 26.2194308,21.2540901 C26.2101743,21.0883793 26.1536347,20.928719 26.0564305,20.7937997 L25.6342597,20.2054707 C25.6130697,20.1617107 25.5935097,20.1179507 25.5755796,20.07257 C25.5576496,20.0271892 25.5413496,19.98505 25.5283095,19.9396692 L25.5283095,19.9234618 C25.5130962,19.8759201 25.5000561,19.8278381 25.4891895,19.7792159 C25.467465,19.6832133 25.4532954,19.5856737 25.4468094,19.4874825 L25.4468094,19.3416158 C25.450387,18.99804 25.5478616,18.6618987 25.7287999,18.3691713 C25.8434099,18.1844479 25.988309,18.0201029 26.1574907,17.882949 C26.2157484,17.836723 26.2767086,17.7939686 26.3400511,17.7549104 L26.3840612,17.7273578 C26.5012701,17.6557194 26.6265567,17.5980561 26.7573319,17.5555593 L26.7997119,17.5425934 C26.845352,17.5280067 26.8926221,17.5166615 26.9382622,17.5053163 L26.9953123,17.4939711 C27.0393224,17.4858674 27.0833325,17.4777637 27.1289726,17.4729015 L27.1827627,17.4729015 C27.2447028,17.4729015 27.3066429,17.4631771 27.368583,17.4631771 C27.8777542,17.4620083 28.3663998,17.6626553 28.7263756,18.0207119 C28.7583235,18.052433 28.7926527,18.0816908 28.8290658,18.108232 C28.9340278,18.1850005 29.0548489,18.237594 29.1827765,18.2622023 L29.2479766,18.2622023 C29.2819888,18.2674152 29.3162764,18.2706622 29.3506668,18.2719268 L29.3506668,18.2719268 C29.3850574,18.2706658 29.4193453,18.2674189 29.453357,18.2622023 L29.5185571,18.2622023 C29.6915724,18.228947 29.8505659,18.1448205 29.974958,18.0207119 C30.180468,17.8070552 30.2643552,17.5050726 30.1982684,17.2168244 C30.164823,17.0447923 30.0802158,16.8867022 29.955398,16.763017 C29.4070707,16.2174588 29.2430995,15.397264 29.5398992,14.6846649 C29.8366989,13.9720658 30.5358622,13.5072952 31.3115605,13.5069484 C31.3735007,13.5069484 31.4348974,13.5096497 31.4957509,13.5150521 C31.9384167,13.5601285 32.3523945,13.7539354 32.6693531,14.0644833 C33.0145897,14.4077582 33.5743289,14.4077582 33.9195655,14.0644833 C34.2648021,13.7212084 34.2648021,13.1646499 33.9195655,12.821375 C33.8782721,12.7803163 33.8396954,12.738177 33.8038353,12.6949572 C33.6263854,12.4836252 33.4973427,12.2364084 33.4256746,11.970486 C33.3973505,11.8642619 33.3782635,11.7558132 33.3686245,11.6463378 C33.3631911,11.5858302 33.3604744,11.5247823 33.3604744,11.4631941 C33.3604744,11.401606 33.3631911,11.3405581 33.3686245,11.2800504 C33.4420018,10.5479081 33.932301,9.922992 34.6286436,9.67407933 C35.3249861,9.42516666 36.1032219,9.59663581 36.6286307,10.1147377 L45.733828,19.1665758 L51.7648395,28.8505029 L41.6849003,38.8828893 Z" id="Shape"></path>
                                        <path d="M21.52295,14.8737235 C22.1244753,11.4616498 20.5308467,8.03713716 17.5351627,6.30445692 C14.5394786,4.57177667 10.7816654,4.90105713 8.13186731,7.12842586 C5.48206921,9.35579458 4.5063257,13.0054498 5.69023336,16.261074 C6.87414101,19.5166982 9.96479812,21.6828378 13.4240828,21.6814737 C13.6828689,21.6814737 13.9383999,21.6684321 14.1906757,21.643979 L12.6249381,20.0757185 C9.06880149,19.646071 6.48561772,16.4809898 6.77240428,12.9048217 C7.05919085,9.32865346 10.1136417,6.61713387 13.6926539,6.7615266 C17.2716662,6.90591933 20.0984897,9.8547148 20.0971848,13.4424005 L20.0971848,13.4424005 L21.52295,14.8737235 Z" id="Shape"></path>
                                        <path d="M17.3489372,24.768904 C12.3144645,26.5056975 6.7390726,24.6990603 3.67760605,20.3388772 C0.616139503,15.9786941 0.807609817,10.1174755 4.14710741,5.96667501 C7.486605,1.8158745 13.1680041,0.377459328 18.0783771,2.43955972 C22.98875,4.5016601 25.9427754,9.56650289 25.3218963,14.8589813 C25.5753,14.7657148 25.8359359,14.6934485 26.1011715,14.6429125 C26.2349901,13.9456845 26.5167877,13.2853157 26.9275279,12.7064161 C26.589445,6.85687349 22.5149559,1.8953098 16.8457102,0.429642304 C11.1764646,-1.03602519 5.21018915,1.32970427 2.08290192,6.28334636 C-1.04438531,11.2369885 -0.616828125,17.6446225 3.14083913,22.1382419 C6.89850639,26.6318614 13.1261294,28.1828476 18.5503197,25.9759651 L17.3489372,24.768904 Z" id="Shape"></path>
                                    </g>
                                    <path d="M36.566386,10.8328049 C35.0133612,10.8328049 33.754386,9.57185856 33.754386,8.01640244 C33.754386,6.46094632 35.0133612,5.2 36.566386,5.2 C38.1194107,5.2 39.378386,6.46094632 39.378386,8.01640244 C39.378386,9.57185856 38.1194107,10.8328049 36.566386,10.8328049 L36.566386,10.8328049 Z M36.566386,5.96731707 C35.4364763,5.96731707 34.5205036,6.88472384 34.5205036,8.01640244 C34.5205036,9.14808104 35.4364763,10.0654878 36.566386,10.0654878 C37.6962956,10.0654878 38.6122683,9.14808104 38.6122683,8.01640244 C38.5932649,6.8983678 37.6828347,6.00203313 36.566386,6.00219512 L36.566386,5.96731707 Z" id="Shape" fill="#000000"></path>
                                    <path d="M67.3268648,119.164817 L5.57604128,119.164817 C5.47444776,119.164817 5.37701525,119.124396 5.30517779,119.052446 C5.23334032,118.980496 5.19298246,118.882911 5.19298246,118.781159 L5.19298246,21.1836585 C5.19298246,20.9717698 5.36448373,20.8 5.57604128,20.8 L67.3268648,20.8 C67.5384224,20.8 67.7099236,20.9717698 67.7099236,21.1836585 L67.7099236,118.781159 C67.7099236,118.993047 67.5384224,119.164817 67.3268648,119.164817 L67.3268648,119.164817 Z M5.9591001,118.362622 L66.9002766,118.362622 L66.9002766,21.5760366 L5.9591001,21.5760366 L5.9591001,118.362622 Z" id="Shape" fill="#000000"></path>
                                </g>
                            </g>
                        </g>
                    </g>
                </g>
            </g>
        </g>
    </g>
</svg>