<?xml version="1.0" encoding="UTF-8" standalone="no"?>
<svg width="74px" height="144px" viewBox="0 0 74 144" version="1.1" xmlns="http://www.w3.org/2000/svg" xmlns:xlink="http://www.w3.org/1999/xlink">
    <!-- Generator: Sketch 41.2 (35397) - http://www.bohemiancoding.com/sketch -->
    <title>Group 13</title>
    <desc>Created with Sketch.</desc>
    <defs></defs>
    <g id="Page-1" stroke="none" stroke-width="1" fill="none" fill-rule="evenodd">
        <g id="LANDING-HV" transform="translate(-1059.000000, -3938.000000)">
            <g id="Group-13" transform="translate(1059.000000, 3938.200000)">
                <g id="smartphoneFichier-18-Copy-7" fill="#000000">
                    <g id="smartphoneFichier-18">
                        <g id="9bd80a80-a90c-4d69-8f80-a3751340f9a5">
                            <g id="5bb1948c-3dda-4bf7-8d60-b466f3a91d19">
                                <g id="81d76407-8e5a-456d-9b55-a97a6cd9d2fb">
                                    <g id="24aa2961-fda4-4933-a3f5-e76f82f8e56f">
                                        <path d="M73.2338824,15.0673171 L0.383058824,15.0673171 C0.171501277,15.0673171 2.59083272e-17,14.8955473 0,14.6836585 C-2.59083272e-17,14.4717698 0.171501277,14.3 0.383058824,14.3 L73.2338824,14.3 C73.4454399,14.3 73.6169412,14.4717698 73.6169412,14.6836585 C73.6169412,14.8955473 73.4454399,15.0673171 73.2338824,15.0673171 L73.2338824,15.0673171 Z" id="Shape"></path>
                                        <path d="M73.2338824,122.967317 L0.383058824,122.967317 C0.171501277,122.967317 2.59083272e-17,122.795547 0,122.583659 C-2.59083272e-17,122.37177 0.171501277,122.2 0.383058824,122.2 L73.2338824,122.2 C73.4454399,122.2 73.6169412,122.37177 73.6169412,122.583659 C73.6169412,122.795547 73.4454399,122.967317 73.2338824,122.967317 L73.2338824,122.967317 Z" id="Shape"></path>
                                        <path d="M43.5181093,133.367317 L28.9444622,133.367317 C28.7329047,133.367317 28.5614035,133.195547 28.5614035,132.983659 C28.5614035,132.77177 28.7329047,132.6 28.9444622,132.6 L43.5181093,132.6 C43.6549631,132.6 43.7814212,132.673125 43.849848,132.791829 C43.9182749,132.910534 43.9182749,133.056783 43.849848,133.175488 C43.7814212,133.294192 43.6549631,133.367317 43.5181093,133.367317 L43.5181093,133.367317 Z" id="Shape"></path>
                                        <path d="M63.5529412,143 L10.0988235,143 C4.51998934,142.995187 -2.06942296e-06,138.464217 0,132.876646 L0,10.1146341 C0.00480020646,4.53046859 4.52338682,0.00480772162 10.0988235,0 L63.5529412,0 C69.1283779,0.00480772162 73.6469645,4.53046859 73.6517647,10.1146341 L73.6517647,132.876646 C73.6517668,138.464217 69.1317754,142.995187 63.5529412,143 Z M10.0988235,0.767317073 C4.94650175,0.772124145 0.770917205,4.95424594 0.766117647,10.1146341 L0.766117647,132.876646 C0.770917205,138.037035 4.94650175,142.219156 10.0988235,142.223963 L63.5529412,142.223963 C68.705263,142.219156 72.8808475,138.037035 72.8856471,132.876646 L72.8856471,10.1146341 C72.8808475,4.95424594 68.705263,0.772124145 63.5529412,0.767317073 L10.0988235,0.767317073 Z" id="Shape"></path>
                                        <path d="M36.566386,10.8328049 C35.0133612,10.8328049 33.754386,9.57185856 33.754386,8.01640244 C33.754386,6.46094632 35.0133612,5.2 36.566386,5.2 C38.1194107,5.2 39.378386,6.46094632 39.378386,8.01640244 C39.378386,9.57185856 38.1194107,10.8328049 36.566386,10.8328049 L36.566386,10.8328049 Z M36.566386,5.96731707 C35.4364763,5.96731707 34.5205036,6.88472384 34.5205036,8.01640244 C34.5205036,9.14808104 35.4364763,10.0654878 36.566386,10.0654878 C37.6962956,10.0654878 38.6122683,9.14808104 38.6122683,8.01640244 C38.5932649,6.8983678 37.6828347,6.00203313 36.566386,6.00219512 L36.566386,5.96731707 Z" id="Shape"></path>
                                        <path d="M67.3268648,119.164817 L5.57604128,119.164817 C5.47444776,119.164817 5.37701525,119.124396 5.30517779,119.052446 C5.23334032,118.980496 5.19298246,118.882911 5.19298246,118.781159 L5.19298246,21.1836585 C5.19298246,20.9717698 5.36448373,20.8 5.57604128,20.8 L67.3268648,20.8 C67.5384224,20.8 67.7099236,20.9717698 67.7099236,21.1836585 L67.7099236,118.781159 C67.7099236,118.993047 67.5384224,119.164817 67.3268648,119.164817 L67.3268648,119.164817 Z M5.9591001,118.362622 L66.9002766,118.362622 L66.9002766,21.5760366 L5.9591001,21.5760366 L5.9591001,118.362622 Z" id="Shape"></path>
                                    </g>
                                </g>
                            </g>
                            <g id="tromboneFichier-20" transform="translate(37.689188, 66.677296) rotate(-330.000000) translate(-37.689188, -66.677296) translate(31.189188, 49.177296)">
                                <g transform="translate(0.000000, 0.000000)" id="b28aaf2b-3fa1-4050-a41e-c587377883ab">
                                    <g transform="translate(0.000000, -0.000000)">
                                        <g id="9f903b4a-cc5a-422e-920e-09290f28594e" transform="translate(-0.000000, -0.000000)">
                                            <path d="M6.38962624,34.9922126 L5.38489703,34.9922126 C2.41219016,34.9891659 0.00311115574,32.6300167 1.24344979e-12,29.7189213 L1.24344979e-12,5.27329134 C0.00311115574,2.36219586 2.41219016,0.00304667491 5.38489703,2.1813662e-12 L7.39717773,2.1813662e-12 C10.3698846,0.00304667491 12.7789636,2.36219586 12.7820748,5.27329134 L12.7820748,21.0434173 C12.725996,21.2979067 12.4961776,21.4795774 12.2303204,21.4795774 C11.9644632,21.4795774 11.7346447,21.2979067 11.678566,21.0434173 L11.678566,5.27329134 C11.6770092,2.95838448 9.76107805,1.08216227 7.39717773,1.0806378 L5.38489703,1.0806378 C3.02099671,1.08216227 1.10506551,2.95838448 1.10350877,5.27329134 L1.10350877,29.721685 C1.1066213,32.0355125 3.02209741,33.9100525 5.38489703,33.9115748 L6.38962624,33.9115748 C7.56112282,33.9100523 8.51042085,32.9804291 8.51197559,31.8332126 L8.51197559,10.4581417 C8.43091942,9.37196187 7.5073967,8.53125885 6.39527079,8.53125885 C5.28314487,8.53125885 4.35962215,9.37196187 4.27856598,10.4581417 L4.27856598,21.8587323 C4.22248728,22.1132216 3.99266881,22.2948924 3.72681159,22.2948924 C3.46095438,22.2948924 3.23113591,22.1132216 3.17505721,21.8587323 L3.17505721,10.4581417 C3.17505721,8.71271101 4.61995487,7.29775984 6.40232647,7.29775984 C8.18469806,7.29775984 9.62959573,8.71271101 9.62959573,10.4581417 L9.62959573,31.8304488 C9.62884931,32.6706932 9.28689575,33.4761516 8.67912044,34.0692566 C8.07134514,34.6623615 7.24765125,34.9944144 6.38962624,34.9922126 L6.38962624,34.9922126 Z" id="Shape"></path>
                                        </g>
                                    </g>
                                </g>
                            </g>
                        </g>
                    </g>
                </g>
                <rect id="Rectangle-9-Copy-3" fill="#98D0F2" x="6.49122807" y="96.2" width="59.7192982" height="20.8"></rect>
                <path d="M19.0768561,110.62 L19.0768561,111.4 L14.1056561,111.4 L14.1056561,104.536 L18.9208561,104.536 L18.9208561,105.316 L14.9376561,105.316 L14.9376561,107.5312 L18.0368561,107.5312 L18.0368561,108.3112 L14.9376561,108.3112 L14.9376561,110.62 L19.0768561,110.62 Z M26.1280561,111.4 L25.0984561,111.4 L22.2280561,106.8032 L21.5000561,105.4512 L21.4896561,105.4512 L21.5312561,106.5536 L21.5312561,111.4 L20.7408561,111.4 L20.7408561,104.536 L21.7704561,104.536 L24.6304561,109.112 L25.3688561,110.4848 L25.3792561,110.4848 L25.3376561,109.3824 L25.3376561,104.536 L26.1280561,104.536 L26.1280561,111.4 Z M31.0992561,111.4 L30.1528561,111.4 L27.5424561,104.536 L28.4368561,104.536 L30.1840561,109.2784 L30.6208561,110.6408 L31.0576561,109.2888 L32.8048561,104.536 L33.6992561,104.536 L31.0992561,111.4 Z M39.3984561,104.8636 C39.8768585,105.151335 40.2460548,105.560397 40.5060561,106.0908 C40.7660574,106.621203 40.8960561,107.24693 40.8960561,107.968 C40.8960561,108.68907 40.7660574,109.314797 40.5060561,109.8452 C40.2460548,110.375603 39.8768585,110.784665 39.3984561,111.0724 C38.9200537,111.360135 38.3584594,111.504 37.7136561,111.504 C37.0688529,111.504 36.5072585,111.360135 36.0288561,111.0724 C35.5504537,110.784665 35.1812574,110.375603 34.9212561,109.8452 C34.6612548,109.314797 34.5312561,108.68907 34.5312561,107.968 C34.5312561,107.24693 34.6612548,106.621203 34.9212561,106.0908 C35.1812574,105.560397 35.5504537,105.151335 36.0288561,104.8636 C36.5072585,104.575865 37.0688529,104.432 37.7136561,104.432 C38.3584594,104.432 38.9200537,104.575865 39.3984561,104.8636 Z M36.0236561,105.9452 C35.6111207,106.434002 35.4048561,107.108262 35.4048561,107.968 C35.4048561,108.827738 35.6111207,109.501998 36.0236561,109.9908 C36.4361915,110.479602 36.9995192,110.724 37.7136561,110.724 C38.427793,110.724 38.9911207,110.479602 39.4036561,109.9908 C39.8161915,109.501998 40.0224561,108.827738 40.0224561,107.968 C40.0224561,107.108262 39.8161915,106.434002 39.4036561,105.9452 C38.9911207,105.456398 38.427793,105.212 37.7136561,105.212 C36.9995192,105.212 36.4361915,105.456398 36.0236561,105.9452 Z M44.7856561,108.7168 L44.7856561,111.4 L43.9536561,111.4 L43.9536561,108.7168 L41.4992561,104.536 L42.4872561,104.536 L44.3696561,107.864 L46.2520561,104.536 L47.2400561,104.536 L44.7856561,108.7168 Z M53.4384561,110.62 L53.4384561,111.4 L48.4672561,111.4 L48.4672561,104.536 L53.2824561,104.536 L53.2824561,105.316 L49.2992561,105.316 L49.2992561,107.5312 L52.3984561,107.5312 L52.3984561,108.3112 L49.2992561,108.3112 L49.2992561,110.62 L53.4384561,110.62 Z M57.5776561,108.5504 L55.9344561,108.5504 L55.9344561,111.4 L55.1024561,111.4 L55.1024561,104.536 L57.7024561,104.536 C58.4027263,104.536 58.9643207,104.716265 59.3872561,105.0768 C59.8101916,105.437335 60.0216561,105.92613 60.0216561,106.5432 C60.0216561,107.028536 59.8864575,107.437598 59.6160561,107.7704 C59.3456548,108.103202 58.9747252,108.331999 58.5032561,108.4568 L60.4376561,111.4 L59.4496561,111.4 L57.5776561,108.5504 Z M55.9344561,107.7704 L57.6920561,107.7704 C58.6627277,107.7704 59.1480561,107.361337 59.1480561,106.5432 C59.1480561,105.725063 58.6627277,105.316 57.6920561,105.316 L55.9344561,105.316 L55.9344561,107.7704 Z" id="ENVOYER-Copy" fill="#2F333F"></path>
                <ellipse id="Oval-3-Copy-2" fill="#3996D0" cx="37" cy="50.05" rx="5.84210526" ry="5.85"></ellipse>
                <path d="M38.1739316,46.194 L38.1739316,52.2 L36.9545316,52.2 L36.9545316,47.7228 C36.9545316,47.6257328 36.9575649,47.5499003 36.9636316,47.4953 C36.7452305,47.695501 36.5101495,47.865366 36.2583816,48.0049 C36.0066137,48.144434 35.7533329,48.2384664 35.4985316,48.287 L35.3347316,47.2314 C35.6137996,47.2010665 35.9489796,47.0751844 36.3402816,46.85375 C36.7315835,46.6323156 37.0030642,46.4124011 37.1547316,46.194 L38.1739316,46.194 Z" id="1" fill="#FFFFFF"></path>
            </g>
        </g>
    </g>
</svg>