<?xml version="1.0" encoding="UTF-8" standalone="no"?>
<svg width="74px" height="144px" viewBox="0 0 74 144" version="1.1" xmlns="http://www.w3.org/2000/svg" xmlns:xlink="http://www.w3.org/1999/xlink">
    <!-- Generator: Sketch 41.2 (35397) - http://www.bohemiancoding.com/sketch -->
    <title>Group 15</title>
    <desc>Created with Sketch.</desc>
    <defs></defs>
    <g id="Page-1" stroke="none" stroke-width="1" fill="none" fill-rule="evenodd">
        <g id="LANDING-HV" transform="translate(-1056.000000, -3648.000000)">
            <g id="Group-15" transform="translate(1056.000000, 3648.200000)">
                <g id="smartphoneFichier-18-Copy-6">
                    <g id="smartphoneFichier-18">
                        <g id="9bd80a80-a90c-4d69-8f80-a3751340f9a5">
                            <g id="5bb1948c-3dda-4bf7-8d60-b466f3a91d19">
                                <g id="81d76407-8e5a-456d-9b55-a97a6cd9d2fb">
                                    <g id="24aa2961-fda4-4933-a3f5-e76f82f8e56f">
                                        <path d="M73.2338824,15.0673171 L0.383058824,15.0673171 C0.171501277,15.0673171 2.59083272e-17,14.8955473 0,14.6836585 C-2.59083272e-17,14.4717698 0.171501277,14.3 0.383058824,14.3 L73.2338824,14.3 C73.4454399,14.3 73.6169412,14.4717698 73.6169412,14.6836585 C73.6169412,14.8955473 73.4454399,15.0673171 73.2338824,15.0673171 L73.2338824,15.0673171 Z" id="Shape" fill="#000000"></path>
                                        <path d="M73.2338824,122.967317 L0.383058824,122.967317 C0.171501277,122.967317 2.59083272e-17,122.795547 0,122.583659 C-2.59083272e-17,122.37177 0.171501277,122.2 0.383058824,122.2 L73.2338824,122.2 C73.4454399,122.2 73.6169412,122.37177 73.6169412,122.583659 C73.6169412,122.795547 73.4454399,122.967317 73.2338824,122.967317 L73.2338824,122.967317 Z" id="Shape" fill="#000000"></path>
                                        <path d="M43.5181093,133.367317 L28.9444622,133.367317 C28.7329047,133.367317 28.5614035,133.195547 28.5614035,132.983659 C28.5614035,132.77177 28.7329047,132.6 28.9444622,132.6 L43.5181093,132.6 C43.6549631,132.6 43.7814212,132.673125 43.849848,132.791829 C43.9182749,132.910534 43.9182749,133.056783 43.849848,133.175488 C43.7814212,133.294192 43.6549631,133.367317 43.5181093,133.367317 L43.5181093,133.367317 Z" id="Shape" fill="#000000"></path>
                                        <path d="M63.5529412,143 L10.0988235,143 C4.51998934,142.995187 -2.06942296e-06,138.464217 0,132.876646 L0,10.1146341 C0.00480020646,4.53046859 4.52338682,0.00480772162 10.0988235,0 L63.5529412,0 C69.1283779,0.00480772162 73.6469645,4.53046859 73.6517647,10.1146341 L73.6517647,132.876646 C73.6517668,138.464217 69.1317754,142.995187 63.5529412,143 Z M10.0988235,0.767317073 C4.94650175,0.772124145 0.770917205,4.95424594 0.766117647,10.1146341 L0.766117647,132.876646 C0.770917205,138.037035 4.94650175,142.219156 10.0988235,142.223963 L63.5529412,142.223963 C68.705263,142.219156 72.8808475,138.037035 72.8856471,132.876646 L72.8856471,10.1146341 C72.8808475,4.95424594 68.705263,0.772124145 63.5529412,0.767317073 L10.0988235,0.767317073 Z" id="Shape" fill="#000000"></path>
                                        <path d="M36.566386,10.8328049 C35.0133612,10.8328049 33.754386,9.57185856 33.754386,8.01640244 C33.754386,6.46094632 35.0133612,5.2 36.566386,5.2 C38.1194107,5.2 39.378386,6.46094632 39.378386,8.01640244 C39.378386,9.57185856 38.1194107,10.8328049 36.566386,10.8328049 L36.566386,10.8328049 Z M36.566386,5.96731707 C35.4364763,5.96731707 34.5205036,6.88472384 34.5205036,8.01640244 C34.5205036,9.14808104 35.4364763,10.0654878 36.566386,10.0654878 C37.6962956,10.0654878 38.6122683,9.14808104 38.6122683,8.01640244 C38.5932649,6.8983678 37.6828347,6.00203313 36.566386,6.00219512 L36.566386,5.96731707 Z" id="Shape" fill="#000000"></path>
                                        <rect id="Rectangle-10" fill="#D8D8D8" x="5.19298246" y="20.8" width="62.3157895" height="97.5"></rect>
                                        <path d="M67.3268648,119.164817 L5.57604128,119.164817 C5.47444776,119.164817 5.37701525,119.124396 5.30517779,119.052446 C5.23334032,118.980496 5.19298246,118.882911 5.19298246,118.781159 L5.19298246,21.1836585 C5.19298246,20.9717698 5.36448373,20.8 5.57604128,20.8 L67.3268648,20.8 C67.5384224,20.8 67.7099236,20.9717698 67.7099236,21.1836585 L67.7099236,118.781159 C67.7099236,118.993047 67.5384224,119.164817 67.3268648,119.164817 L67.3268648,119.164817 Z M5.9591001,118.362622 L66.9002766,118.362622 L66.9002766,21.5760366 L5.9591001,21.5760366 L5.9591001,118.362622 Z" id="Shape" fill="#000000"></path>
                                    </g>
                                </g>
                            </g>
                            <g id="VISEUR" transform="translate(12.982456, 32.500000)" stroke-linecap="round" stroke-width="1.3" stroke="#3996D0">
                                <polyline id="Path-2" points="0 2.6 1.44134217e-16 0 2.59649123 0"></polyline>
                                <polyline id="Path-2-Copy" points="0 28.6 1.44134217e-16 31.2 2.59649123 31.2"></polyline>
                                <polyline id="Path-2-Copy-3" points="46.7368421 2.6 46.7368421 0 44.1403509 0"></polyline>
                                <polyline id="Path-2-Copy-2" points="46.7368421 28.6 46.7368421 31.2 44.1403509 31.2"></polyline>
                            </g>
                        </g>
                        <g id="imacFichier-19" transform="translate(16.877193, 33.800000)">
                            <rect id="Rectangle-path" fill="#FFFFFF" x="0" y="0" width="38.3087054" height="20.1778464"></rect>
                            <path d="M38.6058925,21.4778464 L0.295341272,21.4778464 C0.132231982,21.4778464 5.77644066e-06,21.3622121 5.77644066e-06,21.21957 L5.77644066e-06,1.55989066 C-0.000485778001,1.49111223 0.0304126994,1.42500315 0.085852216,1.37621724 C0.141291733,1.32743132 0.216692563,1.29999866 0.295341272,1.3 L38.6058925,1.3 C38.6845412,1.29999866 38.7599421,1.32743132 38.8153816,1.37621724 C38.8708211,1.42500315 38.9017196,1.49111223 38.901228,1.55989066 L38.901228,21.2163415 C38.9022152,21.2853984 38.8715359,21.3519244 38.8160424,21.4010612 C38.7605489,21.4501979 38.6848642,21.4778518 38.6058925,21.4778464 L38.6058925,21.4778464 Z M0.592522614,20.9564509 L38.3087112,20.9564509 L38.3087112,1.8181671 L0.592522614,1.8181671 L0.592522614,20.9564509 Z" id="Shape" fill="#000000"></path>
                            <rect id="Rectangle-path" fill="#FFFFFF" x="0" y="20.8" width="38.3087054" height="5.55151975"></rect>
                            <path d="M38.6059387,26.9525443 L0.295387483,26.9525443 C0.21609069,26.9525585 0.140119409,26.9202262 0.0845712909,26.862824 C0.0290231723,26.8054218 -0.00143482843,26.7277724 5.19876743e-05,26.6473512 L5.19876743e-05,21.1014485 C-0.000439566767,21.021672 0.0304589107,20.9449918 0.0858984273,20.8884047 C0.141337944,20.8318177 0.216738775,20.7999984 0.295387483,20.8 L38.6059387,20.8 C38.6845875,20.7999984 38.7599883,20.8318177 38.8154278,20.8884047 C38.8708673,20.9449918 38.9017658,21.021672 38.9012742,21.1014485 L38.9012742,26.6473512 C38.9027611,26.7277724 38.8723031,26.8054218 38.8167549,26.862824 C38.7612068,26.9202262 38.6852355,26.9525585 38.6059387,26.9525443 L38.6059387,26.9525443 Z M0.592568825,26.3515197 L38.3087574,26.3515197 L38.3087574,21.4047693 L0.592568825,21.4047693 L0.592568825,26.3515197 Z" id="Shape" fill="#000000"></path>
                            <path d="M20.781773,23.4237519 C20.7807539,24.1535612 20.1968553,24.7444475 19.4773763,24.7437586 C18.7578974,24.7430697 18.1750995,24.1510663 18.1754387,23.4212563 C18.175778,22.6914464 18.7591259,22.1000007 19.4786052,22.1 C19.8245468,22.0999996 20.1562927,22.2395257 20.4007372,22.4878313 C20.6451817,22.7361369 20.782263,23.0728434 20.781773,23.4237519 L20.781773,23.4237519 Z" id="Shape" fill="#FFFFFF"></path>
                            <path d="M19.7850628,25.3466776 C19.1369552,25.3504689 18.5505832,24.9573707 18.299969,24.3510846 C18.0493548,23.7447984 18.1839864,23.0450462 18.6409481,22.5788345 C19.0979098,22.1126228 19.7869666,21.9720133 20.3861099,22.2227152 C20.9852533,22.4734171 21.376172,23.0659251 21.3761828,23.7233495 C21.3751902,24.6158237 20.6648832,25.340509 19.7850628,25.3466776 Z M19.7850628,22.7029184 C19.3772655,22.7021608 19.0092071,22.9507561 18.8526321,23.3327042 C18.696057,23.7146522 18.7818267,24.1546699 19.0699189,24.447435 C19.3580112,24.7402001 19.7916423,24.8280078 20.1684702,24.6698849 C20.545298,24.5117621 20.7910486,24.1388753 20.7910493,23.7252219 C20.7915393,23.45409 20.6858269,23.1938656 20.4971678,23.0017953 C20.3085086,22.8097249 20.0523567,22.7015422 19.7850628,22.7010461 L19.7850628,22.7029184 Z" id="Shape" fill="#000000"></path>
                            <polygon id="Shape" fill="#FFFFFF" points="23.9000249 26 19.0140683 26 14.1262659 26 11.6842105 29.2691243 19.0140683 29.2691243 26.3420803 29.2691243"></polygon>
                            <path d="M26.6369666,29.8720212 L11.9790968,29.8720212 C11.8671965,29.871144 11.7652686,29.8065792 11.7153797,29.7049734 C11.6654908,29.6033677 11.6760999,29.4819486 11.7428284,29.3908271 L14.1848838,26.1198304 C14.2408488,26.0446263 14.3282614,26.0002924 14.4211522,26 L24.1949112,26 C24.2878702,26 24.3754042,26.0443954 24.4311796,26.1198304 L26.873235,29.3908271 C26.9399635,29.4819486 26.9505725,29.6033677 26.9006836,29.7049734 C26.8507948,29.8065792 26.7488669,29.871144 26.6369666,29.8720212 Z M12.5753053,29.2709966 L26.0499873,29.2709966 L24.0380142,26.6010246 L14.5688199,26.6010246 L12.5753053,29.2709966 Z" id="Shape" fill="#000000"></path>
                            <path d="M9.0877193,29.9 L29.8055043,29.9" id="Shape"></path>
                            <path d="M30.1260886,29.3030694 L9.40830362,29.3030694 C9.29687821,29.3134975 9.18993724,29.2489736 9.13152699,29.1360735 C9.07311674,29.0231735 9.07311674,28.8809932 9.13152699,28.7680931 C9.18993724,28.6551931 9.29687821,28.5906692 9.40830362,28.6010973 L30.1260886,28.6010973 C30.2806598,28.6155633 30.399867,28.7683878 30.399867,28.9520833 C30.399867,29.1357789 30.2806598,29.2886034 30.1260886,29.3030694 Z" id="Shape" fill="#000000"></path>
                        </g>
                    </g>
                </g>
            </g>
        </g>
    </g>
</svg>