<svg xmlns="http://www.w3.org/2000/svg" xmlns:xlink="http://www.w3.org/1999/xlink" viewBox="0 0 76.69 76.99"><defs><clipPath id="4f7a455b-58c1-486a-941e-7d2e5be7192c"><circle cx="37.74" cy="36.93" r="36.8" fill="none"/></clipPath></defs><title>LaptopSmartphone</title><g id="a2dacd38-2979-421a-9688-7cfa376b9ae0" data-name="Calque 2"><g id="4b8575ec-17ef-4852-b804-6bdf80a4a389" data-name="Calque 1"><g clip-path="url(#4f7a455b-58c1-486a-941e-7d2e5be7192c)"><rect y="0.47" width="76.69" height="54.2" fill="#b6e3ef"/><rect x="1.62" y="54.8" width="72.25" height="22.19" fill="#f4f1c9"/><line x1="12.16" y1="29.76" x2="12.16" y2="54.4" fill="none"/><line x1="73.11" y1="54.67" x2="9.8" y2="54.67" fill="none"/><line x1="73.39" y1="54.67" x2="69.41" y2="54.67" fill="none"/><line x1="6.15" y1="54.67" x2="2.17" y2="54.67" fill="none"/><path d="M3.22,54.67c0-.31,3.55-.56,7.92-.56H67.55c4.38,0,7.92.25,7.92.56s-3.55.56-7.92.56H11.14C6.77,55.23,3.22,55,3.22,54.67Z"/><path d="M14.27,17.89H60.94a2.71,2.71,0,0,1,2.71,2.71V51.87a0,0,0,0,1,0,0H11.56a0,0,0,0,1,0,0V20.6A2.71,2.71,0,0,1,14.27,17.89Z" fill="#fff"/><path d="M60.84,18.74a2,2,0,0,1,2,2V51H12.41V20.7a2,2,0,0,1,2-2H60.84m0-.85H14.38a2.81,2.81,0,0,0-2.81,2.81V51.83a0,0,0,0,0,0,0h52a0,0,0,0,0,0,0V20.7a2.81,2.81,0,0,0-2.81-2.81Z"/><rect x="14.62" y="21.13" width="46.29" height="27.75" fill="#36d5ff"/><path d="M45.25,49.22H61.2V20.86H14.26V49.22h31Zm15.52-28V34.26l-8.24-6.53L44.28,21.2H60.76Zm-17.09,0L52.22,28l8.55,6.77v6.18L48.32,31.06,35.88,21.2h7.79Zm-8.41,0L48,31.3,60.76,41.4v7.47h-3.3L40,35,22.53,21.2Zm-20.57,0h7.23L39.39,35,56.85,48.88h-12L29.76,36.95,14.7,25V21.2Zm0,27.68V25.5L29.45,37.19,44.2,48.88H14.7Z"/><path d="M66.39,54.47h0a1.51,1.51,0,0,1-.07.45A1.51,1.51,0,0,0,66.39,54.47Z" fill="#fff"/><path d="M46.75,53.09a1.93,1.93,0,0,1-1.23.44H31.13a1.94,1.94,0,0,1-1.92-1.64H9.62v2.58a.71.71,0,0,0,.71.71H64.89a.71.71,0,0,0,.71-.71V51.89H47.43A1.94,1.94,0,0,1,46.88,53Z" fill="#fff"/><polygon points="29.25 51.1 8.82 51.1 8.82 51.1 29.25 51.1 29.25 51.1" fill="#fff"/><polygon points="47.38 51.1 47.38 51.1 66.39 51.1 66.39 51.1 47.38 51.1" fill="#fff"/><path d="M9.08,55.31a1.5,1.5,0,0,1-.14-.26A1.5,1.5,0,0,0,9.08,55.31Z"/><path d="M66.33,54.92a1.5,1.5,0,0,1-.11.27A1.5,1.5,0,0,0,66.33,54.92Z"/><path d="M64.89,56H10.33a1.5,1.5,0,0,1-1.25-.66,1.5,1.5,0,0,0,1.25.66H64.89a1.51,1.51,0,0,0,1.32-.79A1.51,1.51,0,0,1,64.89,56Z"/><path d="M8.82,51.1h0v3.38a1.5,1.5,0,0,0,.12.59,1.5,1.5,0,0,1-.12-.59Z"/><path d="M47.45,51.6a1.92,1.92,0,0,1,0,.3H65.6v2.58a.71.71,0,0,1-.71.71H10.33a.71.71,0,0,1-.71-.71V51.89H29.21a1.83,1.83,0,0,1,0-.8H8.82v3.38A1.51,1.51,0,0,0,10.33,56H64.89a1.5,1.5,0,0,0,1.51-1.51V51.1h-19A1.92,1.92,0,0,1,47.45,51.6Z"/><path d="M45.51,49.66a2,2,0,0,1,1.87,1.44h0a2,2,0,0,0-1.87-1.44H31.13a1.93,1.93,0,0,0-1.37.57,1.93,1.93,0,0,1,1.37-.57Z" fill="#fff"/><path d="M46.88,53a1.94,1.94,0,0,0,.54-1.07h0A1.94,1.94,0,0,1,46.88,53Z" fill="#fff"/><polygon points="46.54 51.1 46.54 51.1 30.11 51.1 30.11 51.1 46.54 51.1" fill="#fff"/><path d="M31.13,52.74H45.51a1.14,1.14,0,0,0,1.1-.85H30A1.14,1.14,0,0,0,31.13,52.74Z" fill="#fff"/><path d="M31.13,53.54a1.93,1.93,0,0,1-1.23-.44,1.93,1.93,0,0,0,1.23.44H45.51a1.93,1.93,0,0,0,1.23-.44,1.93,1.93,0,0,1-1.23.44Z" fill="#fff"/><circle cx="47.39" cy="51.1" fill="#fff"/><path d="M47.45,51.6a1.93,1.93,0,0,1,0,.3h0a1.82,1.82,0,0,0,0-.8h0A1.92,1.92,0,0,1,47.45,51.6Z" fill="#fff"/><path d="M46.66,51.6a1.13,1.13,0,0,0-.12-.5H30.1a1.07,1.07,0,0,0-.08.8H46.61A1.13,1.13,0,0,0,46.66,51.6Z"/><circle cx="29.26" cy="51.1"/><path d="M29.9,53.09a1.94,1.94,0,0,1-.68-1.2h0A1.94,1.94,0,0,0,29.9,53.09Z"/><path d="M29.19,51.6a1.92,1.92,0,0,1,.07-.5h0a1.83,1.83,0,0,0,0,.8h0A1.93,1.93,0,0,1,29.19,51.6Z"/><path d="M45.51,52.74H31.13a1.14,1.14,0,0,1-1.1-.85h-.82a1.94,1.94,0,0,0,1.92,1.64H45.51a1.93,1.93,0,0,0,1.23-.44l.14-.13a1.94,1.94,0,0,0,.54-1.07h-.82A1.14,1.14,0,0,1,45.51,52.74Z"/><polygon points="30.11 51.1 29.25 51.1 29.25 51.1 30.11 51.1 30.11 51.1"/><polygon points="47.38 51.1 47.38 51.1 46.54 51.1 46.54 51.1 47.38 51.1"/><path d="M46.66,51.6a1.13,1.13,0,0,1,0,.3h.82a1.83,1.83,0,0,0,0-.8h-.85A1.13,1.13,0,0,1,46.66,51.6Z"/><path d="M29.21,51.89H30a1.07,1.07,0,0,1,.08-.8h-.85a1.83,1.83,0,0,0,0,.8Z"/></g><path d="M37.61,73.87A36.93,36.93,0,1,1,74.54,36.93,37,37,0,0,1,37.61,73.87ZM37.61,2A34.93,34.93,0,1,0,72.54,36.93,35,35,0,0,0,37.61,2Z" fill="#47adf4"/></g></g></svg>