<svg xmlns="http://www.w3.org/2000/svg" xmlns:xlink="http://www.w3.org/1999/xlink" viewBox="0 0 79.94 76.99"><defs><style>.cls-1,.cls-12,.cls-6{fill:none;}.cls-2{clip-path:url(#clip-path);}.cls-3{fill:#e7f3f7;}.cls-4{fill:#ffa476;}.cls-5{fill:#f16474;}.cls-10,.cls-12,.cls-5,.cls-6,.cls-7,.cls-8,.cls-9{stroke:#000;}.cls-10,.cls-5,.cls-7,.cls-8,.cls-9{stroke-linejoin:round;}.cls-10,.cls-5,.cls-6,.cls-7,.cls-8,.cls-9{stroke-width:1.15px;}.cls-10,.cls-6,.cls-7,.cls-8,.cls-9{stroke-linecap:round;}.cls-12,.cls-6{stroke-miterlimit:10;}.cls-8{fill:#baa48c;}.cls-9{fill:#ed1c24;}.cls-10{fill:#e8caa3;}.cls-11{fill:#fefabf;}.cls-13{fill:#fff;}.cls-14{fill:#d1d3d4;}.cls-15{fill:#92dd96;}.cls-16{fill:#ed5b69;}.cls-17{fill:#47adf4;}</style><clipPath id="clip-path"><circle class="cls-1" cx="37.74" cy="36.93" r="36.8"/></clipPath></defs><title>Fichier 47</title><g id="Calque_2" data-name="Calque 2"><g id="Calque_3" data-name="Calque 3"><g class="cls-2"><rect class="cls-3" y="0.47" width="76.69" height="54.2"/><rect class="cls-4" x="1.62" y="54.8" width="72.25" height="22.19"/><line class="cls-1" x1="12.16" y1="29.76" x2="12.16" y2="54.4"/><line class="cls-1" x1="73.11" y1="54.67" x2="9.8" y2="54.67"/><line class="cls-1" x1="73.39" y1="54.67" x2="69.41" y2="54.67"/><line class="cls-1" x1="6.15" y1="54.67" x2="2.17" y2="54.67"/><path d="M3.22,54.67c0-.31,3.55-.56,7.92-.56H67.55c4.38,0,7.92.25,7.92.56s-3.55.56-7.92.56H11.14C6.77,55.23,3.22,55,3.22,54.67Z"/><polygon class="cls-5" points="37.92 58.28 39.77 35.01 77.55 35.01 79.36 58.16 37.92 58.28"/><path class="cls-6" d="M48.83,40.84s-.74-18.74,10.05-18.74,9.55,18.74,9.55,18.74"/><rect class="cls-7" x="47.62" y="40.84" width="2.33" height="2.33"/><rect class="cls-7" x="67.31" y="40.84" width="2.33" height="2.33"/><path class="cls-8" d="M20.9,53.5a17.83,17.83,0,0,1,8.91.81C31,54.55,27,59.42,27,59.42l-7-2.51S15.56,54.22,20.9,53.5Z"/><path class="cls-9" d="M11.41,54.37l10.1,7.7L10.87,45,4.9,42S4,43.74,5.29,46.7,11.41,54.37,11.41,54.37Z"/><path class="cls-10" d="M9.4,61.78,6.9,46.17s-2-3.29-2-4.12,2.48-5.11,4.42-5.11S19.51,52.09,20.9,53.5s2.71,2.78,4.49,2.78,3.7-2,4.42-2,8.3,2.47,8.3,4.89c0,1.77-4,2.6-4,2.6s-11.26,1.11-12.58.28S11.88,51,11.88,51l-.31,10.78Z"/><circle class="cls-11" cx="47.85" cy="65.48" r="3.87" transform="translate(-7.75 6.44) rotate(-7.13)"/><path class="cls-12" d="M50.41,69"/><polygon points="48.75 61.65 47.86 61.51 46.98 61.66 46.98 60.16 48.75 60.15 48.75 61.65"/><path d="M51.75,67.57a4.41,4.41,0,1,1-4.12-6.5h.44a4.4,4.4,0,0,1,3.68,6.5Zm-6.81-3.7a3.34,3.34,0,0,0-.41,1.61h0A3.34,3.34,0,1,0,48,62.14h-.39A3.31,3.31,0,0,0,44.94,63.87Z"/><path class="cls-13" d="M47.66,61.61h0Z"/><path d="M48.07,62.14h-.41l0-1.07h.47Z"/><path class="cls-13" d="M47.64,61.1h0Z"/><path d="M48.09,61.63h-.44l0-1.07h.49Z"/><path d="M47,60.44v.68l-4.31.71a.26.26,0,0,0-.21.25v.26l-1.7.14h0l-1.21.16a.26.26,0,0,0-.22.25v5.23a.25.25,0,0,0,.22.25l1.21.15h0l1.7.13v.26a.26.26,0,0,0,.22.25l5.13.81h.08l5.13-.84a.26.26,0,0,0,.21-.25v-.26l1.7-.14h0l1.21-.16a.26.26,0,0,0,.22-.25V62.84a.26.26,0,0,0-.22-.25L55,62.43h0l-1.7-.13V62a.25.25,0,0,0-.22-.25l-4.31-.68v-.68a.25.25,0,0,0-.26-.25H47.25A.25.25,0,0,0,47,60.44Zm.66,1.17h.41a3.87,3.87,0,1,1-.41,0Zm.56-.92V61l-.31,0h-.08l-.31.05v-.34Z"/><path d="M56.85,68.44a.8.8,0,0,1-.59.41l-1.42.22,0,0-1,.08a.79.79,0,0,1-.62.55l-5.37.84-5.14-.81a.78.78,0,0,1-.63-.54l-2.49-.25a.79.79,0,0,1-.69-.78V62.89a.79.79,0,0,1,.69-.78l1.3-.16,1.19-.1a.77.77,0,0,1,.63-.55l3.85-.63v-.22a.79.79,0,0,1,.79-.79h1.21a.79.79,0,0,1,.79.79v.22l3.86.61a.78.78,0,0,1,.63.54l2.49.25a.79.79,0,0,1,.69.78l0,5.22A.79.79,0,0,1,56.85,68.44Zm-1.77-.51.8-.11V63.08l-1-.12-2.2-.17v-.52l-2.23-.35A4.4,4.4,0,0,1,51,68.58a4.55,4.55,0,0,1-.5.44l2.24-.37v-.52Zm-2.35,1h0Zm-7.8-5A3.34,3.34,0,1,0,48,62.14h-.36A3.34,3.34,0,0,0,44.94,63.88Zm8-1.56h0ZM43,68.67l2.23.35a4.58,4.58,0,0,1-.49-.43,4.41,4.41,0,0,1,.47-6.65L43,62.31v.52l-3.15.3v4.74L41,68l2.08.16Zm0,.24h0Zm-.25-6.56h0Zm-2.91.54h0Zm-.24.28h0Z"/><path class="cls-14" d="M50.41,69l2.35-.38v-.28l0-5.84v-.28l-2.35-.37a4.38,4.38,0,0,1,0,7.16"/><polygon class="cls-14" points="41.07 68.02 42.5 68.13 42.48 62.84 41.06 62.96 41.07 68.02"/><polygon class="cls-14" points="39.86 67.88 40.56 67.97 40.55 63.02 39.85 63.11 39.86 67.88"/><polygon class="cls-14" points="55.89 63.06 55.19 62.98 55.21 67.93 55.91 67.84 55.89 63.06"/><polygon class="cls-14" points="54.68 62.92 53.26 62.81 53.27 68.1 54.7 67.98 54.68 62.92"/><path class="cls-14" d="M43.49,65.48a4.38,4.38,0,0,1,1.85-3.58L43,62.29v.28l0,5.84v.28l2.35.37A4.38,4.38,0,0,1,43.49,65.48Z"/><polygon class="cls-14" points="39.86 67.88 39.85 63.11 40.55 63.02 40.56 67.97 39.86 67.88"/><polygon class="cls-14" points="41.07 68.02 41.06 62.96 42.48 62.84 42.5 68.13 41.07 68.02"/><path class="cls-14" d="M43,68.69V68.4l0-5.84v-.28l2.35-.38a4.38,4.38,0,0,0,0,7.16Z"/><polygon class="cls-14" points="55.89 63.06 55.91 67.84 55.21 67.93 55.19 62.98 55.89 63.06"/><polygon class="cls-14" points="54.68 62.92 54.7 67.98 53.27 68.1 53.26 62.81 54.68 62.92"/><path class="cls-14" d="M52.74,62.26v.28l0,5.84v.28L50.41,69a4.38,4.38,0,0,0,0-7.16Z"/><path d="M46.91,63.34l1.19,2a.26.26,0,0,1,0,.26l-.93,1.6a.26.26,0,0,1-.44-.26l.86-1.47L46.47,63.6a.26.26,0,0,1,.44-.26Z"/><polygon class="cls-15" points="36.8 17.11 30.11 20.52 27.48 13.48 30.42 11.17 36.19 13.42 36.8 17.11"/><path d="M29.94,20.94l-2.82-7.56,3.24-2.54,6.09,2.37.67,4.07Zm-2.11-7.36,2.43,6.53,6.2-3.16-.55-3.3-5.46-2.12Z"/><polygon class="cls-15" points="30.32 19.98 30.8 14.64 30.6 11.39 35.91 13.46 33.57 15.72 30.32 19.98"/><path d="M30,20.9l.57-6.26L30.31,11l6.1,2.37L33.77,15.9Zm.94-9.1.17,2.86-.4,4.4,2.71-3.54,2-2Z"/><line class="cls-16" x1="27.48" y1="13.48" x2="36.8" y2="17.11"/><rect x="31.84" y="10.29" width="0.59" height="10" transform="translate(6.23 39.7) rotate(-68.73)"/><line class="cls-16" x1="30.63" y1="14.7" x2="33.31" y2="12.3"/><rect x="30.17" y="13.2" width="3.6" height="0.59" transform="translate(-0.82 24.86) rotate(-42)"/><line class="cls-16" x1="33.31" y1="12.3" x2="33.65" y2="15.88"/><rect x="33.18" y="12.29" width="0.59" height="3.6" transform="translate(-1.19 3.25) rotate(-5.46)"/><path d="M20.4,40.82a11.47,11.47,0,1,1,15.9-3.25A11.49,11.49,0,0,1,20.4,40.82ZM32.53,22.46a10.54,10.54,0,1,0,3,14.6A10.55,10.55,0,0,0,32.53,22.46Z"/><path d="M35.57,5.63a.34.34,0,1,0-.65-.22l-1,3q.33.09.65.22Z"/><path d="M39.9,8.7a.34.34,0,0,0,0-.49.35.35,0,0,0-.49,0l-2.36,2.09q.24.25.45.52Z"/><path d="M25.16,16.3,21.88,17a.34.34,0,1,0,.14.67L25.3,17Q25.21,16.63,25.16,16.3Z"/><path d="M41.62,18.82a.34.34,0,1,0,.22-.65l-3.06-1q-.1.33-.23.65Z"/><path d="M39,14.17l3.13-.64a.34.34,0,1,0-.14-.67l-3.12.64Q38.94,13.83,39,14.17Z"/><path d="M30.91,8.25l-.64-3.12a.34.34,0,0,0-.67.14l.64,3.13Q30.58,8.3,30.91,8.25Z"/><path d="M38.54,23.15l.07.06a.34.34,0,0,0,.45-.51l-2.18-2.47q-.25.24-.52.45Z"/><path d="M25.45,7.34a.34.34,0,0,0-.52.46l2.15,2.42q.24-.25.51-.47Z"/><path d="M22.37,11.68a.34.34,0,0,0-.3.61l.08,0,3.13,1q.09-.33.21-.66Z"/></g><path class="cls-17" d="M37.61,73.87A36.93,36.93,0,1,1,74.54,36.93,37,37,0,0,1,37.61,73.87ZM37.61,2A34.93,34.93,0,1,0,72.54,36.93,35,35,0,0,0,37.61,2Z"/></g></g></svg>