<svg xmlns="http://www.w3.org/2000/svg" xmlns:xlink="http://www.w3.org/1999/xlink" viewBox="0 0 76.69 76.99"><defs><style>.cls-1{fill:none;}.cls-2{clip-path:url(#clip-path);}.cls-16,.cls-3{fill:#fff;}.cls-4{fill:#4d4d4d;}.cls-13,.cls-5{fill:#f16474;}.cls-6{fill:#998675;}.cls-7{fill:#c7eef5;}.cls-8{fill:#e6e6e6;}.cls-9{fill:#fedc56;}.cls-10{fill:#5ac0ed;}.cls-11{fill:#eddeae;}.cls-12{fill:#e8caa3;}.cls-12,.cls-13{stroke:#000;stroke-linecap:round;stroke-linejoin:round;stroke-width:1.15px;}.cls-14{fill:#2c2e49;}.cls-15{fill:#6993b2;}.cls-16{opacity:0.46;}.cls-17{fill:#47adf4;}</style><clipPath id="clip-path"><circle class="cls-1" cx="37.74" cy="36.93" r="36.8"/></clipPath></defs><title>Fichier 42</title><g id="Calque_2" data-name="Calque 2"><g id="Calque_3" data-name="Calque 3"><g class="cls-2"><rect class="cls-3" y="0.47" width="76.69" height="54.2"/><rect class="cls-4" x="1.62" y="54.8" width="72.25" height="22.19"/><line class="cls-1" x1="12.16" y1="29.76" x2="12.16" y2="54.4"/><line class="cls-1" x1="73.11" y1="54.67" x2="9.8" y2="54.67"/><line class="cls-1" x1="73.39" y1="54.67" x2="69.41" y2="54.67"/><line class="cls-1" x1="6.15" y1="54.67" x2="2.17" y2="54.67"/><path d="M3.22,54.67c0-.31,3.55-.56,7.92-.56H67.55c4.38,0,7.92.25,7.92.56s-3.55.56-7.92.56H11.14C6.77,55.23,3.22,55,3.22,54.67Z"/><path d="M66.05,42.39a.53.53,0,0,1-.53.53H64.46a.53.53,0,1,1,0-1.06h1.06A.53.53,0,0,1,66.05,42.39Z"/><path d="M66.05,44.51a.53.53,0,0,1-.53.53H64.46a.53.53,0,1,1,0-1.06h1.06A.53.53,0,0,1,66.05,44.51Z"/><path d="M66.05,40.27a.53.53,0,0,1-.53.53H64.46a.53.53,0,0,1-.53-.53.53.53,0,0,1,.53-.53h1.06A.52.52,0,0,1,66.05,40.27Z"/><path d="M66.05,57.23a.52.52,0,0,1-.53.53H64.46a.53.53,0,0,1-.53-.53.53.53,0,0,1,.53-.53h1.06A.53.53,0,0,1,66.05,57.23Z"/><path d="M54.39,50.4a.53.53,0,0,1-.53.53H50.68a.53.53,0,0,1-.53-.53.53.53,0,0,1,.53-.53h3.18A.53.53,0,0,1,54.39,50.4Z"/><path d="M52.8,38.32v8.05a.53.53,0,0,1-1.06,0V38.32a.53.53,0,0,1,1.06,0Z"/><path d="M54.39,52.52a.53.53,0,0,1-.53.53H50.68a.53.53,0,0,1-.53-.53.53.53,0,0,1,.53-.53h3.18A.53.53,0,0,1,54.39,52.52Z"/><path d="M66.05,59.36a.53.53,0,0,1-.53.53H64.46a.54.54,0,0,1,0-1.07h1.06A.53.53,0,0,1,66.05,59.36Z"/><path d="M72.42,54.64a.53.53,0,0,1-.53.53H69.77a.53.53,0,0,1,0-1.06h2.12A.53.53,0,0,1,72.42,54.64Z"/><path d="M72.42,52.52a.53.53,0,0,1-.53.53H69.77a.53.53,0,0,1-.53-.53.52.52,0,0,1,.53-.53h2.12A.53.53,0,0,1,72.42,52.52Z"/><path d="M60.75,59.36a.53.53,0,0,1-.53.53H58.1a.54.54,0,0,1,0-1.07h2.12A.53.53,0,0,1,60.75,59.36Z"/><path d="M70.3,44.51v5.3a.53.53,0,0,1-.53.53.53.53,0,0,1-.53-.53v-5.3a.53.53,0,0,1,.53-.53A.53.53,0,0,1,70.3,44.51Z"/><path d="M72.42,44.51v5.3a.53.53,0,0,1-.53.53.53.53,0,0,1-.53-.53v-5.3a.53.53,0,0,1,.53-.53A.53.53,0,0,1,72.42,44.51Z"/><path d="M73,35.5H68.18V33.9a1.58,1.58,0,0,0-1.6-1.59H63.4a1.59,1.59,0,0,0-1.49,1.06h-5.4v-.53a1.58,1.58,0,0,0-1.59-1.59h-5.3A1.59,1.59,0,0,0,48,32.84v1.59H44.32A1.6,1.6,0,0,0,42.73,36V61.48a1.59,1.59,0,0,0,1.59,1.59H73a1.6,1.6,0,0,0,1.59-1.59V37.09A1.59,1.59,0,0,0,73,35.5ZM48,37.62H45.38a.52.52,0,0,0-.53.53.53.53,0,0,0,.53.53H48V62H44.32a.53.53,0,0,1-.53-.53V36a.52.52,0,0,1,.53-.53H48ZM55.45,62H49.09V32.84a.53.53,0,0,1,.53-.53h5.3a.52.52,0,0,1,.53.53Zm6.36,0h-5.3V34.43h5.3Zm5.31,0H62.87V33.9a.53.53,0,0,1,.53-.53h3.18a.52.52,0,0,1,.54.53Zm6.36-.53A.53.53,0,0,1,73,62H68.18V36.56H73a.53.53,0,0,1,.53.53Z"/><path d="M47,57.23a.53.53,0,0,1-.53.53H45.38a.52.52,0,0,1-.53-.53.53.53,0,0,1,.53-.53h1.06A.53.53,0,0,1,47,57.23Z"/><path d="M47,59.36a.53.53,0,0,1-.53.53H45.38a.54.54,0,0,1,0-1.07h1.06A.54.54,0,0,1,47,59.36Z"/><path d="M60.75,57.23a.52.52,0,0,1-.53.53H58.1a.53.53,0,0,1-.53-.53.53.53,0,0,1,.53-.53h2.12A.53.53,0,0,1,60.75,57.23Z"/><path d="M47,44.51a.53.53,0,0,1-.53.53H45.38a.53.53,0,1,1,0-1.06h1.06A.53.53,0,0,1,47,44.51Z"/><path d="M47,46.63a.53.53,0,0,1-.53.53H45.38a.53.53,0,1,1,0-1.06h1.06A.53.53,0,0,1,47,46.63Z"/><path class="cls-5" d="M45.38,37.62H48V35.5H44.32a.52.52,0,0,0-.53.53V61.48a.53.53,0,0,0,.53.53H48V38.68H45.38a.53.53,0,0,1-.53-.53A.52.52,0,0,1,45.38,37.62Zm1.06,22.27H45.38a.54.54,0,0,1,0-1.07h1.06a.54.54,0,0,1,0,1.07Zm0-2.13H45.38a.52.52,0,0,1-.53-.53.53.53,0,0,1,.53-.53h1.06a.53.53,0,0,1,.53.53A.53.53,0,0,1,46.44,57.76Zm0-10.6H45.38a.53.53,0,1,1,0-1.06h1.06a.53.53,0,1,1,0,1.06ZM45.38,44h1.06a.53.53,0,1,1,0,1.06H45.38a.53.53,0,1,1,0-1.06Z"/><path class="cls-6" d="M73,36.56H68.18V62H73a.53.53,0,0,0,.53-.53V37.09A.53.53,0,0,0,73,36.56Zm-3.71,7.95a.53.53,0,0,1,.53-.53.53.53,0,0,1,.53.53v5.3a.53.53,0,0,1-.53.53.53.53,0,0,1-.53-.53Zm2.65,10.66H69.77a.53.53,0,0,1,0-1.06h2.12a.53.53,0,1,1,0,1.06Zm0-2.12H69.77a.53.53,0,0,1-.53-.53.52.52,0,0,1,.53-.53h2.12a.53.53,0,0,1,.53.53A.53.53,0,0,1,71.89,53Zm.53-3.24a.53.53,0,0,1-.53.53.53.53,0,0,1-.53-.53v-5.3a.53.53,0,0,1,.53-.53.53.53,0,0,1,.53.53Z"/><path class="cls-7" d="M66.58,33.37H63.4a.53.53,0,0,0-.53.53V62h4.25V33.9A.52.52,0,0,0,66.58,33.37ZM65.52,59.89H64.46a.54.54,0,0,1,0-1.07h1.06a.54.54,0,0,1,0,1.07Zm0-2.13H64.46a.53.53,0,0,1-.53-.53.53.53,0,0,1,.53-.53h1.06a.53.53,0,0,1,.53.53A.52.52,0,0,1,65.52,57.76Zm0-12.72H64.46a.53.53,0,1,1,0-1.06h1.06a.53.53,0,1,1,0,1.06Zm0-2.12H64.46a.53.53,0,1,1,0-1.06h1.06a.53.53,0,1,1,0,1.06Zm0-2.12H64.46a.53.53,0,0,1-.53-.53.53.53,0,0,1,.53-.53h1.06a.52.52,0,0,1,.53.53A.53.53,0,0,1,65.52,40.8Z"/><path class="cls-8" d="M56.51,34.43V62h5.3V34.43Zm3.71,25.46H58.1a.54.54,0,0,1,0-1.07h2.12a.54.54,0,0,1,0,1.07Zm0-2.13H58.1a.53.53,0,0,1-.53-.53.53.53,0,0,1,.53-.53h2.12a.53.53,0,0,1,.53.53A.52.52,0,0,1,60.22,57.76Z"/><path class="cls-9" d="M54.92,32.31h-5.3a.53.53,0,0,0-.53.53V62h6.36V32.84A.52.52,0,0,0,54.92,32.31Zm-3.18,6a.53.53,0,0,1,1.06,0v8.05a.53.53,0,0,1-1.06,0ZM53.86,53H50.68a.53.53,0,0,1-.53-.53.53.53,0,0,1,.53-.53h3.18a.53.53,0,0,1,.53.53A.53.53,0,0,1,53.86,53Zm0-2.12H50.68a.53.53,0,0,1-.53-.53.53.53,0,0,1,.53-.53h3.18a.53.53,0,0,1,.53.53A.53.53,0,0,1,53.86,50.93Z"/><rect class="cls-3" x="38.2" y="7.52" width="27.98" height="14.99"/><path d="M66.76,23.11H37.61V6.91H66.76Zm-28-1.18H65.58V8.11H38.78Z"/><polygon class="cls-3" points="47.46 10.51 41.41 19.54 53.5 19.54 47.46 10.51"/><path d="M54.6,20.13H40.32L47.46,9.45ZM42.51,19H52.4l-4.95-7.39Z"/><polygon class="cls-10" points="53.64 12.62 49.02 19.54 58.27 19.54 53.64 12.62"/><path d="M59.36,20.13H47.92l5.72-8.56ZM50.11,19h7l-3.53-5.27Z"/><circle class="cls-11" cx="60.33" cy="11.46" r="1.75"/><path d="M60.33,13.81a2.34,2.34,0,1,1,2.35-2.39,2.34,2.34,0,0,1-2.35,2.39Zm0-3.52a1.17,1.17,0,1,0,1.18,1.16v0A1.18,1.18,0,0,0,60.33,10.3Z"/><rect class="cls-12" x="7.39" y="39.02" width="1.8" height="15.91" rx="0.9" ry="0.9" transform="translate(14.39 -0.33) rotate(17.36)"/><rect class="cls-12" x="22.08" y="39.02" width="1.8" height="15.91" rx="0.9" ry="0.9" transform="translate(58.93 84.95) rotate(162.64)"/><path class="cls-13" d="M29.4,37.92c0,6-6.16,10.87-13.76,10.87S1.88,43.92,1.88,37.92s9.41-15.68,13.76-15.68S29.4,31.91,29.4,37.92Z"/><path class="cls-12" d="M26,38.61c0,3.23-4.63,5.85-10.35,5.85S5.29,41.84,5.29,38.61s7.09,1,10.36,1S26,35.38,26,38.61Z"/><path class="cls-14" d="M27.17,66V52.63a.5.5,0,0,1,.5-.5h6.83a.5.5,0,0,0,.32-.11l2.25-3.92a.5.5,0,0,1,.32-.11H47.45a.5.5,0,0,1,.32.11L50,52a.5.5,0,0,0,.32.11h5.72a.5.5,0,0,1,.5.5V66a.5.5,0,0,1-.5.5H27.67A.5.5,0,0,1,27.17,66Z"/><path d="M56.33,66.93a1,1,0,0,1-.26,0H27.67a1,1,0,0,1-1-1V52.63a1,1,0,0,1,1-1h6.81l2.29-3.93a1,1,0,0,1,.62-.22H47.45a1,1,0,0,1,.62.22l.11.13,2.18,3.79h5.7a1,1,0,0,1,1,1V66A1,1,0,0,1,56.33,66.93ZM27.65,66l0,0h28.4V52.62l-5.74,0a1,1,0,0,1-.62-.22l-.11-.13-2.18-3.79h-10l-2.29,3.92a1,1,0,0,1-.62.22H27.66Z"/><path d="M44,64.9a6.5,6.5,0,1,1-1.77-12.76A6.5,6.5,0,0,1,44,64.9ZM41,54.23a4.58,4.58,0,1,0,5.81,4.41h0A4.58,4.58,0,0,0,41,54.23Z"/><circle class="cls-15" cx="42.28" cy="58.64" r="5.12"/><path class="cls-16" d="M42.28,54a4.61,4.61,0,0,0-1.65.31,4.63,4.63,0,0,1,2.48,8.88A4.63,4.63,0,0,0,42.28,54Z"/><path d="M31.52,58.28l-.27.06a1.93,1.93,0,1,1,.92-3.44,1.93,1.93,0,0,1-.65,3.38Zm-.85-3a1.21,1.21,0,1,0,1.28,1.9,1.21,1.21,0,0,0-.22-1.69,1.19,1.19,0,0,0-.89-.24Z"/></g><path class="cls-17" d="M37.61,73.87A36.93,36.93,0,1,1,74.54,36.93,37,37,0,0,1,37.61,73.87ZM37.61,2A34.93,34.93,0,1,0,72.54,36.93,35,35,0,0,0,37.61,2Z"/></g></g></svg>