<svg xmlns="http://www.w3.org/2000/svg" xmlns:xlink="http://www.w3.org/1999/xlink" viewBox="0 0 98.23 76.99"><defs><style>.cls-1,.cls-9{fill:none;}.cls-2{clip-path:url(#clip-path);}.cls-3{fill:#e7f3f7;}.cls-4{fill:#e28381;}.cls-5{fill:#4d4d4d;}.cls-10,.cls-11,.cls-5,.cls-6,.cls-8,.cls-9{stroke:#000;stroke-linejoin:round;stroke-width:1.15px;}.cls-6{fill:gray;}.cls-7,.cls-8{fill:#998675;}.cls-10,.cls-11,.cls-8,.cls-9{stroke-linecap:round;}.cls-10{fill:#84d2e2;}.cls-11{fill:#f2f2f2;}.cls-12{fill:#47adf4;}</style><clipPath id="clip-path"><circle class="cls-1" cx="37.74" cy="36.93" r="36.8"/></clipPath></defs><title>Fichier 46</title><g id="Calque_2" data-name="Calque 2"><g id="Calque_3" data-name="Calque 3"><g class="cls-2"><rect class="cls-3" y="0.47" width="76.69" height="54.2"/><rect class="cls-4" x="1.62" y="54.8" width="72.25" height="22.19"/><line class="cls-1" x1="12.16" y1="29.76" x2="12.16" y2="54.4"/><line class="cls-1" x1="73.11" y1="54.67" x2="9.8" y2="54.67"/><line class="cls-1" x1="73.39" y1="54.67" x2="69.41" y2="54.67"/><line class="cls-1" x1="6.15" y1="54.67" x2="2.17" y2="54.67"/><path d="M3.22,54.67c0-.31,3.55-.56,7.92-.56H67.55c4.38,0,7.92.25,7.92.56s-3.55.56-7.92.56H11.14C6.77,55.23,3.22,55,3.22,54.67Z"/><rect class="cls-5" x="27.82" y="16.02" width="27.66" height="38.63" rx="1.89" ry="1.89"/><circle class="cls-6" cx="41.65" cy="41.79" r="8.94"/><circle class="cls-6" cx="41.65" cy="24.57" r="5.37"/><polygon class="cls-7" points="26.37 63.07 22.08 64.17 11.12 21.53 8.32 19.55 6.89 13.96 15.38 11.78 17 16.45 15.41 20.43 26.37 63.07"/><path class="cls-8" d="M29.27,49a8.07,8.07,0,0,0,.81-5.87c-1.24-4.84-7-7.54-12.78-6S7.77,43.75,9,48.59a8.07,8.07,0,0,0,3.53,4.75c-2.92,3-4.3,7-3.31,10.88,1.66,6.47,9.32,10.09,17.1,8.09S39.08,63.45,37.42,57C36.43,53.12,33.29,50.28,29.27,49Z"/><circle class="cls-8" cx="21.88" cy="54.53" r="5.02" transform="translate(-12.88 7.16) rotate(-14.41)"/><polygon class="cls-9" points="26.71 62.98 21.76 64.25 10.86 21.84 7.48 18.98 6.19 13.93 15.98 11.41 17.2 16.17 15.81 20.57 26.71 62.98"/><rect class="cls-9" x="20.48" y="63.57" width="8.2" height="2.86" transform="translate(-15.41 8.16) rotate(-14.41)"/><line class="cls-9" x1="24.11" y1="63.65" x2="13.79" y2="23.48"/><line class="cls-9" x1="56.14" y1="61.17" x2="87.19" y2="36.37"/><line class="cls-9" x1="87.19" y1="61.17" x2="56.14" y2="36.37"/><rect class="cls-10" x="45.68" y="29.98" width="51.97" height="6.27"/><rect class="cls-11" x="50.38" y="30.35" width="42.57" height="2.76"/><line class="cls-9" x1="50.38" y1="30.35" x2="50.38" y2="33.11"/><line class="cls-9" x1="55.06" y1="30.35" x2="55.06" y2="33.11"/><line class="cls-9" x1="59.73" y1="30.35" x2="59.73" y2="33.11"/><line class="cls-9" x1="64.41" y1="30.35" x2="64.41" y2="33.11"/><line class="cls-9" x1="69.09" y1="30.35" x2="69.09" y2="33.11"/><line class="cls-9" x1="73.76" y1="30.35" x2="73.76" y2="33.11"/><line class="cls-9" x1="78.44" y1="30.35" x2="78.44" y2="33.11"/><line class="cls-9" x1="83.12" y1="30.35" x2="83.12" y2="33.11"/><line class="cls-9" x1="87.79" y1="30.35" x2="87.79" y2="33.11"/></g><path class="cls-12" d="M37.61,73.87A36.93,36.93,0,1,1,74.54,36.93,37,37,0,0,1,37.61,73.87ZM37.61,2A34.93,34.93,0,1,0,72.54,36.93,35,35,0,0,0,37.61,2Z"/></g></g></svg>