<svg xmlns="http://www.w3.org/2000/svg" xmlns:xlink="http://www.w3.org/1999/xlink" viewBox="0 0 76.69 76.99"><defs><style>.cls-1{fill:none;}.cls-2{clip-path:url(#clip-path);}.cls-3{fill:#e2cf81;}.cls-4{fill:#ffa476;}.cls-5{fill:#f16474;}.cls-6{fill:#603813;}.cls-7{fill:#e6e6e6;}.cls-8{fill:#fff;}.cls-9{fill:#47adf4;}</style><clipPath id="clip-path"><circle class="cls-1" cx="37.74" cy="36.93" r="36.8"/></clipPath></defs><title>Fichier 42</title><g id="Calque_2" data-name="Calque 2"><g id="Calque_3" data-name="Calque 3"><g class="cls-2"><rect class="cls-3" y="0.47" width="76.69" height="54.2"/><rect class="cls-4" x="1.62" y="54.8" width="72.25" height="22.19"/><line class="cls-1" x1="12.16" y1="29.76" x2="12.16" y2="54.4"/><line class="cls-1" x1="73.11" y1="54.67" x2="9.8" y2="54.67"/><line class="cls-1" x1="73.39" y1="54.67" x2="69.41" y2="54.67"/><line class="cls-1" x1="6.15" y1="54.67" x2="2.17" y2="54.67"/><path d="M3.22,54.67c0-.31,3.55-.56,7.92-.56H67.55c4.38,0,7.92.25,7.92.56s-3.55.56-7.92.56H11.14C6.77,55.23,3.22,55,3.22,54.67Z"/><polygon class="cls-5" points="5.2 56.31 6.79 36.15 39.55 36.15 41.12 56.21 5.2 56.31"/><path d="M5.2,56.89a.58.58,0,0,1-.57-.62L6.22,36.1a.57.57,0,0,1,.57-.53H39.55a.58.58,0,0,1,.57.53l1.57,20.06a.58.58,0,0,1-.57.62l-35.92.1ZM7.33,36.73l-1.51,19,34.68-.1L39,36.73Z"/><path d="M14.65,41.78a.57.57,0,0,1-.57-.55c0-.41-.35-10.09,4-14.59a7.1,7.1,0,0,1,5.31-2.25,6.93,6.93,0,0,1,5.25,2.25c4.22,4.5,3.63,14.2,3.6,14.61a.58.58,0,0,1-1.15-.08c0-.1.58-9.61-3.29-13.75a5.82,5.82,0,0,0-4.41-1.88,6,6,0,0,0-4.48,1.89c-4,4.15-3.67,13.65-3.66,13.75a.57.57,0,0,1-.55.6Z"/><rect x="13.6" y="41.21" width="2.02" height="2.02"/><path d="M15.62,43.8h-2a.58.58,0,0,1-.58-.58v-2a.58.58,0,0,1,.58-.58h2a.58.58,0,0,1,.58.58v2A.58.58,0,0,1,15.62,43.8Zm-1.45-1.15H15v-.87h-.87Z"/><rect x="30.67" y="41.21" width="2.02" height="2.02"/><path d="M32.69,43.8h-2a.58.58,0,0,1-.58-.58v-2a.58.58,0,0,1,.58-.58h2a.58.58,0,0,1,.58.58v2A.58.58,0,0,1,32.69,43.8Zm-1.45-1.15h.87v-.87h-.87Z"/><path class="cls-6" d="M32.18,64V59.95H24.57a1.81,1.81,0,0,0-1.78,2A1.87,1.87,0,0,0,24.57,64Z"/><path d="M32.18,64.61H24.57a2.45,2.45,0,0,1-2.36-2.69,2.37,2.37,0,0,1,2.36-2.54h7.61a.58.58,0,0,1,.58.58V64a.58.58,0,0,1-.58.58Zm-7.62-4.09c-.28,0-1.21.12-1.21,1.39,0,1.5,1.08,1.54,1.21,1.54h7V60.52Z"/><path class="cls-6" d="M38.5,60.19v4.09h9.93s2.33,0,2.33-2-2.33-2.12-2.33-2.12Z"/><path d="M48.44,64.85H38.51a.58.58,0,0,1-.58-.58V60.19a.58.58,0,0,1,.58-.58h9.93a2.72,2.72,0,0,1,2.9,2.69,2.34,2.34,0,0,1-1.51,2.25A3.87,3.87,0,0,1,48.44,64.85ZM39.08,63.7h9.36c.18,0,1.75-.05,1.75-1.39s-1.57-1.54-1.75-1.54H39.08Z"/><circle class="cls-7" cx="35.31" cy="62.03" r="3.88"/><path d="M35.31,66.48A4.46,4.46,0,1,1,39.77,62,4.46,4.46,0,0,1,35.31,66.48Zm0-7.76A3.31,3.31,0,1,0,38.62,62,3.31,3.31,0,0,0,35.31,58.72Z"/><circle class="cls-8" cx="51.68" cy="54.69" r="2.35"/><path d="M51.68,57.61a2.92,2.92,0,1,1,2.92-2.92A2.92,2.92,0,0,1,51.68,57.61Zm0-4.69a1.77,1.77,0,1,0,1.77,1.77A1.77,1.77,0,0,0,51.68,52.92Z"/><circle class="cls-8" cx="56.37" cy="54.69" r="2.35"/><path d="M56.37,57.61a2.92,2.92,0,1,1,2.92-2.92A2.92,2.92,0,0,1,56.37,57.61Zm0-4.69a1.77,1.77,0,1,0,1.77,1.77A1.77,1.77,0,0,0,56.37,52.92Z"/><circle class="cls-8" cx="61.06" cy="54.69" r="2.35"/><path d="M61.06,57.61A2.92,2.92,0,1,1,64,54.69,2.92,2.92,0,0,1,61.06,57.61Zm0-4.69a1.77,1.77,0,1,0,1.77,1.77A1.77,1.77,0,0,0,61.06,52.92Z"/><circle class="cls-8" cx="65.75" cy="54.69" r="2.35"/><path d="M65.75,57.61a2.92,2.92,0,1,1,2.92-2.92A2.92,2.92,0,0,1,65.75,57.61Zm0-4.69a1.77,1.77,0,1,0,1.77,1.77A1.77,1.77,0,0,0,65.75,52.92Z"/></g><path class="cls-9" d="M37.61,73.87A36.93,36.93,0,1,1,74.54,36.93,37,37,0,0,1,37.61,73.87ZM37.61,2A34.93,34.93,0,1,0,72.54,36.93,35,35,0,0,0,37.61,2Z"/></g></g></svg>