<svg xmlns="http://www.w3.org/2000/svg" xmlns:xlink="http://www.w3.org/1999/xlink" viewBox="0 0 86.66 76.99"><defs><style>.cls-1,.cls-7{fill:none;}.cls-2{clip-path:url(#clip-path);}.cls-3{fill:#e7f3f7;}.cls-4{fill:#e2cf81;}.cls-5,.cls-6{fill:#ba7958;}.cls-10,.cls-11,.cls-6,.cls-7,.cls-8,.cls-9{stroke:#000;stroke-linejoin:round;stroke-width:1.15px;}.cls-10,.cls-11,.cls-6,.cls-7{stroke-linecap:round;}.cls-10,.cls-8{fill:#4d4d4d;}.cls-9{fill:gray;}.cls-11{fill:#f2f2f2;}.cls-12{fill:#fff;}.cls-13{fill:#5ac0ed;}.cls-14{fill:#eddeae;}.cls-15{fill:#47adf4;}</style><clipPath id="clip-path"><circle class="cls-1" cx="37.74" cy="36.93" r="36.8"/></clipPath></defs><title>Fichier 40</title><g id="Calque_2" data-name="Calque 2"><g id="Calque_3" data-name="Calque 3"><g class="cls-2"><rect class="cls-3" y="0.47" width="76.69" height="54.2"/><rect class="cls-4" x="1.62" y="54.8" width="72.25" height="22.19"/><line class="cls-1" x1="12.16" y1="29.76" x2="12.16" y2="54.4"/><line class="cls-1" x1="73.11" y1="54.67" x2="9.8" y2="54.67"/><line class="cls-1" x1="73.39" y1="54.67" x2="69.41" y2="54.67"/><line class="cls-1" x1="6.15" y1="54.67" x2="2.17" y2="54.67"/><path d="M3.22,54.67c0-.31,3.55-.56,7.92-.56H67.55c4.38,0,7.92.25,7.92.56s-3.55.56-7.92.56H11.14C6.77,55.23,3.22,55,3.22,54.67Z"/><polygon class="cls-5" points="21.06 49.03 18.28 49.03 18.28 20.81 16.89 19.74 16.89 16.11 22.39 16.11 22.39 19.56 21.06 20.81 21.06 49.03"/><path class="cls-6" d="M25,41a5.07,5.07,0,0,0,1.41-3.44c0-3.14-3.06-5.68-6.83-5.68s-6.83,2.54-6.83,5.68A5.07,5.07,0,0,0,14.17,41a7.26,7.26,0,0,0-3.71,6.1c0,4.2,4.09,7.6,9.14,7.6s9.14-3.4,9.14-7.6A7.26,7.26,0,0,0,25,41Z"/><circle class="cls-6" cx="19.67" cy="43.13" r="3.15"/><polygon class="cls-7" points="21.28 49.03 18.07 49.03 18.07 21.53 16.46 19.26 16.46 15.98 22.82 15.98 22.82 19.07 21.28 21.53 21.28 49.03"/><rect class="cls-7" x="17.09" y="49.03" width="5.15" height="1.79"/><line class="cls-7" x1="19.6" y1="49.03" x2="19.6" y2="22.98"/><rect class="cls-8" x="33.06" y="34.24" width="14.62" height="20.41" rx="1.89" ry="1.89"/><circle class="cls-9" cx="40.36" cy="47.85" r="4.31"/><circle class="cls-9" cx="40.36" cy="39.64" r="2.08"/><line class="cls-7" x1="59.02" y1="54.61" x2="79.26" y2="38.45"/><line class="cls-7" x1="79.26" y1="54.61" x2="59.02" y2="38.45"/><rect class="cls-10" x="52.2" y="34.28" width="33.88" height="4.08"/><rect class="cls-11" x="55.26" y="34.52" width="27.75" height="1.8"/><line class="cls-7" x1="55.26" y1="34.52" x2="55.26" y2="36.32"/><line class="cls-7" x1="58.31" y1="34.52" x2="58.31" y2="36.32"/><line class="cls-7" x1="61.36" y1="34.52" x2="61.36" y2="36.32"/><line class="cls-7" x1="64.41" y1="34.52" x2="64.41" y2="36.32"/><line class="cls-7" x1="67.46" y1="34.52" x2="67.46" y2="36.32"/><line class="cls-7" x1="70.51" y1="34.52" x2="70.51" y2="36.32"/><line class="cls-7" x1="73.56" y1="34.52" x2="73.56" y2="36.32"/><line class="cls-7" x1="76.61" y1="34.52" x2="76.61" y2="36.32"/><line class="cls-7" x1="79.66" y1="34.52" x2="79.66" y2="36.32"/><rect class="cls-12" x="48.7" y="15.13" width="23.03" height="12.34"/><path d="M72.21,28h-24V14.62h24Zm-23-1H71.24V15.61H49.18Z"/><polygon class="cls-12" points="56.32 17.58 51.34 25.02 61.3 25.02 56.32 17.58"/><path d="M62.2,25.5H50.44l5.88-8.79Zm-10-1h8.14l-4.07-6.08Z"/><polygon class="cls-13" points="61.41 19.32 57.6 25.02 65.22 25.02 61.41 19.32"/><path d="M66.12,25.5H56.7l4.71-7Zm-7.61-1h5.8L61.4,20.2Z"/><circle class="cls-14" cx="66.91" cy="18.37" r="1.44"/><path d="M66.91,20.31a1.93,1.93,0,1,1,1.93-2,1.93,1.93,0,0,1-1.93,2Zm0-2.89a1,1,0,1,0,1,1h0A1,1,0,0,0,66.91,17.41Z"/></g><path class="cls-15" d="M37.61,73.87A36.93,36.93,0,1,1,74.54,36.93,37,37,0,0,1,37.61,73.87ZM37.61,2A34.93,34.93,0,1,0,72.54,36.93,35,35,0,0,0,37.61,2Z"/></g></g></svg>