<svg xmlns="http://www.w3.org/2000/svg" xmlns:xlink="http://www.w3.org/1999/xlink" viewBox="0 0 76.69 76.99"><defs><clipPath id="30caa559-1ffd-4f46-aa15-7e606115dcbe"><circle cx="37.74" cy="36.93" r="36.8" fill="none"/></clipPath></defs><title>mobileAndFamilyFichier 16devices</title><g style="isolation:isolate"><g id="c5556b02-1968-4ff6-a357-a7487b9741a1" data-name="Calque 2"><g id="25fea903-1c0a-4827-a0ea-1b734b7fb198" data-name="Calque 1"><g clip-path="url(#30caa559-1ffd-4f46-aa15-7e606115dcbe)"><rect y="0.47" width="76.69" height="54.2" fill="#ffe39a"/><path d="M47.86,28.95l1.33,5.84-2.85,2.44s-1.42-10.9-1.13-12.76c.24-1.59,2-1.36,3.2-1.88a6.75,6.75,0,0,1,2-.45,12.24,12.24,0,0,1,2,.45c1.21.52,3,.29,3.2,1.88.29,1.86-1.13,12.76-1.13,12.76l-2.85-2.44,1.33-5.84Z" fill="#f6e4a8"/><path d="M54.43,37.54a.31.31,0,0,1-.21-.08L51.38,35a.32.32,0,0,1-.1-.31l1.24-5.45H48.26l1.24,5.45a.32.32,0,0,1-.1.31l-2.85,2.44a.32.32,0,0,1-.52-.2c-.06-.45-1.42-11-1.13-12.85.21-1.35,1.33-1.6,2.32-1.82a6.2,6.2,0,0,0,1.07-.3,7.05,7.05,0,0,1,2.08-.47h.08a12.24,12.24,0,0,1,2.06.47,6.19,6.19,0,0,0,1.07.3c1,.22,2.11.47,2.32,1.82.29,1.89-1.08,12.4-1.13,12.85a.32.32,0,0,1-.2.25ZM50.38,22.46a6.38,6.38,0,0,0-1.85.42,6.65,6.65,0,0,1-1.18.34c-1,.23-1.7.42-1.83,1.29-.24,1.55.77,9.81,1.06,12.09l2.26-1.93L47.55,29a.32.32,0,0,1,.31-.39h5.06a.32.32,0,0,1,.31.39l-1.29,5.65,2.26,1.93c.29-2.28,1.3-10.54,1.06-12.09-.13-.88-.78-1.06-1.83-1.29a6.64,6.64,0,0,1-1.18-.34A11.2,11.2,0,0,0,50.38,22.46Z" fill="#231f20"/><ellipse cx="47.42" cy="62.53" rx="2.55" ry="1.17" transform="translate(-28.49 42.61) rotate(-38.12)" fill="#231f20"/><ellipse cx="52.63" cy="52.77" rx="1.17" ry="2.55" transform="matrix(0.94, -0.33, 0.33, 0.94, -14.47, 20.34)" fill="#231f20"/><polygon points="46.69 38.38 47.96 61.34 49.39 61.34 49.94 41.63 50.69 41.55 51.69 51.87 52.95 51.71 54.61 38.15 46.69 38.38" fill="#fff"/><path d="M51.68,52.18a.32.32,0,0,1-.32-.31l-1-10h-.13l-.55,19.43a.32.32,0,0,1-.32.31H48a.32.32,0,0,1-.32-.3l-1.27-23a.32.32,0,0,1,.31-.33l7.93-.23a.34.34,0,0,1,.24.1.32.32,0,0,1,.09.24L53.27,51.73A.32.32,0,0,1,53,52l-1.27.16ZM48.26,61h.83l.55-19.39a.32.32,0,0,1,.28-.31l.74-.08a.32.32,0,0,1,.35.3l1,10,.66-.1,1.62-12.94L47,38.69Z" fill="#231f20"/><polygon points="47.02 39.62 54.04 39.51 53.99 40.07 47.06 40.37 47.02 39.62" fill="#e0e0e0" fill-rule="evenodd" style="mix-blend-mode:multiply"/><path d="M47.12,26.25s-1.71,1.91.32,3.12L46.25,39.51,55,39.27,53,29.08s2-1.28.42-2.88" fill="#f6e4a8"/><path d="M46.25,39.83a.32.32,0,0,1-.31-.35l1.17-9.94a2,2,0,0,1-.95-1.38A2.92,2.92,0,0,1,46.89,26a.32.32,0,0,1,.47.42h0a2.32,2.32,0,0,0-.58,1.59,1.52,1.52,0,0,0,.82,1,.32.32,0,0,1,.15.31L46.6,39.18l8-.22-1.88-9.83a.32.32,0,0,1,.14-.33,2,2,0,0,0,.88-1.24,1.44,1.44,0,0,0-.52-1.15.32.32,0,0,1,.45-.45,2,2,0,0,1,.7,1.67,2.49,2.49,0,0,1-1,1.57l1.91,10a.32.32,0,0,1-.3.38l-8.73.24Z" fill="#231f20"/><polygon points="51.6 47.02 53.15 46.73 52.65 51.42 51.99 51.52 51.6 47.02" fill="#e0e0e0" style="mix-blend-mode:multiply"/><path d="M52.68,22.74c-3.15,8.39-4.55.49-4.5.29A21,21,0,0,1,52.68,22.74Z" fill="#eebd89"/><path d="M50.1,26.72a.92.92,0,0,1-.24,0C48.51,26.48,48,23.16,48,23s.17-.14.23-.16a22.83,22.83,0,0,1,4.53-.21l.07.05,0,.08C51.86,25.35,51,26.64,50.1,26.72Zm-1.77-3.63c0,.43.61,3.27,1.64,3.38.41,0,1.26-.38,2.5-3.63A28.15,28.15,0,0,0,48.33,23.09Z" fill="#231f20"/><path d="M52.5,22.79c-3,7.82-3.93.38-3.85.2a4.88,4.88,0,0,1,2-.25C51.57,22.73,52.5,22.79,52.5,22.79Z" fill="#fccfa0"/><ellipse cx="50.39" cy="20.86" rx="3.45" ry="2.95" transform="translate(-1.64 4.5) rotate(-5.04)" fill="#e0e0e0" style="mix-blend-mode:multiply"/><path d="M50.27,12.6c2.63,0,4.76,2.48,4.76,5.54s-2.13,5.54-4.76,5.54-4.76-2.48-4.76-5.54,2.13-5.54,4.76-5.54Z" fill="#fccfa0" fill-rule="evenodd"/><path d="M54.81,16.67A6.28,6.28,0,0,1,55,18.33c0,3.06-2.13,5.54-4.76,5.54a4.4,4.4,0,0,1-.7-.06C53.2,23.3,54.87,19,53,15.66a2.53,2.53,0,0,1,1.84,1Z" fill="#eebd89" fill-rule="evenodd"/><path d="M51.73,11.93c-.47-.08-4.31-.63-5.6,1.76-1.37,2.55-1.07,8.53-1.07,8.53h0v.59h1.33l-.08-4.35L48.4,17a15.21,15.21,0,0,0,2.72,2,20.14,20.14,0,0,0,2.95,0V22.8h1.2l0-7.31-.63-1.28" fill="#513321" fill-rule="evenodd"/><path d="M45.06,22.21v.59h1.33l-.08-4.35.71-.5c-.11.07-1.92.62-1.92.62-.12,2,0,3.65,0,3.65ZM48.47,17A14,14,0,0,0,51.12,19a20.14,20.14,0,0,0,2.95,0V22.8h1.2l0-7.31-.1-.21c-2.41,3.18-6.4,1.57-6.4,1.57Z" fill="#331f10" fill-rule="evenodd"/><path d="M51.78,11.94s-4.27-.8-5.65,1.75a13.23,13.23,0,0,0-1,4.88l.41-.25c-.28-5.1,4.47-7.08,7.61-5.42,0,0-.88-.63-.8-.81" fill="#744c2c" fill-rule="evenodd"/><path d="M55.24,18.53a5.4,5.4,0,0,1-.94.5,4.63,4.63,0,0,1-3.43,0A5.44,5.44,0,0,1,48,16.24l.42-.22a4.7,4.7,0,0,0,4.17,2.87,4.27,4.27,0,0,0,2.69-1c0,.2,0,.42,0,.62Z" fill="#231f20" fill-rule="evenodd"/><path d="M48.72,16.87a5.13,5.13,0,0,1-2,1.44,4.64,4.64,0,0,1-1.47.32l0-.47a4.5,4.5,0,0,0,3.23-1.73Z" fill="#231f20" fill-rule="evenodd"/><path d="M55.09,15.57a4.65,4.65,0,0,1-3.93.23A5.45,5.45,0,0,1,48.3,13l.42-.22a4.7,4.7,0,0,0,4.17,2.87,4.17,4.17,0,0,0,2-.53v.07a.47.47,0,0,0,.15.35Z" fill="#231f20" fill-rule="evenodd"/><path d="M50.19,11.43h0a5.33,5.33,0,0,1,5.32,5.31V22.8H55V16.74a4.86,4.86,0,0,0-4.85-4.84h0a4.85,4.85,0,0,0-4.84,4.84V22.8h-.47V16.74a5.33,5.33,0,0,1,5.31-5.31Z" fill="#231f20" fill-rule="evenodd"/><path d="M54.07,21.73a4.48,4.48,0,0,1-7.89-.27V18.31h0v1.17a4,4,0,0,0,7.88,1Z" fill="#231f20" fill-rule="evenodd"/><path d="M48.18,20.27a.47.47,0,1,0-.47-.47.47.47,0,0,0,.47.47Z" fill="#231f20" fill-rule="evenodd"/><rect x="51.13" y="19.6" width="1.22" height="0.4" fill="#231f20"/><path d="M50.19,22.68a1.21,1.21,0,0,1-1.31-1.08h.47c0,.34.37.6.83.6s.84-.27.84-.6h.47a1.21,1.21,0,0,1-1.31,1.08Z" fill="#231f20" fill-rule="evenodd"/><rect x="46.04" y="18.28" width="0.48" height="4.53" fill="#231f20"/><rect x="53.87" y="18.77" width="0.48" height="4.04" fill="#231f20"/><rect x="41" y="36.89" width="5.59" height="4.22" rx="2.11" ry="2.11" transform="translate(-10.18 61.93) rotate(-64.7)" fill="#d7a880"/><path d="M44.2,24l-.83,13.55,2.85.65S48.7,22.44,48.7,20.56c0-2.07-.14-2-.86-2.42-1.1-.7-4.22-1.44-6.64-1.81-1.76-.27-7.63.83-9.25,1.46-1,.38-1.31,1.07-2.44,3.32-.72,1.44-2.6,4.4-2.6,4.4l-5.52-2.25a11.27,11.27,0,0,0-1.15,2.45c0,.21,4.53,2.63,4.75,2.79.43.31,3.42,1.41,4.21.76,1-.84,3.63-3.86,3.63-3.86" fill="#86d3ec"/><path d="M46.22,38.53h-.07l-2.85-.65a.32.32,0,0,1-.25-.33L43.89,24l.63,0L43.7,37.32l2.26.52c.36-2.29,2.42-15.59,2.42-17.28s-.06-1.76-.53-2l-.18-.11c-1-.66-4.13-1.4-6.51-1.76-1.67-.25-7.45.8-9.08,1.44-.82.32-1.12.87-2.27,3.17-.72,1.44-2.54,4.31-2.61,4.43a.32.32,0,0,1-.39.12l-5.26-2.15a11.42,11.42,0,0,0-.95,1.95c.48.35,2.48,1.46,3.48,2,.77.42,1,.58,1.12.63.5.36,3.25,1.25,3.82.77,1-.82,3.57-3.8,3.59-3.83l.48.42c-.11.12-2.65,3-3.67,3.9s-4.22-.47-4.6-.74l-1.05-.59C19.91,26,19.92,26,19.94,25.68a10.38,10.38,0,0,1,1.2-2.59.32.32,0,0,1,.39-.13l5.27,2.15c.45-.72,1.85-3,2.44-4.15,1.14-2.28,1.52-3.05,2.6-3.47,1.55-.61,7.52-1.76,9.41-1.47,2.51.38,5.64,1.14,6.76,1.85l.17.1c.72.44.83.65.83,2.58s-2.38,17.06-2.48,17.71a.32.32,0,0,1-.31.27Z" fill="#231f20"/><ellipse cx="35.41" cy="61.95" rx="3.52" ry="1.61" transform="translate(-30.69 35.07) rotate(-38.12)" fill="#231f20"/><ellipse cx="41.23" cy="62.79" rx="1.61" ry="3.52" transform="translate(-20.74 20.33) rotate(-22.29)" fill="#231f20"/><polygon points="33.91 37.08 35.6 59.89 42.03 59.89 43.86 36.71 33.91 37.08" fill="#00aeeb"/><path d="M42,60.21H35.6a.32.32,0,0,1-.32-.29L33.59,37.11a.32.32,0,0,1,.3-.34l9.95-.38a.31.31,0,0,1,.24.1.32.32,0,0,1,.09.24L42.35,59.92A.32.32,0,0,1,42,60.21Zm-6.14-.63h5.85L43.51,37l-9.26.35Z" fill="#231f20"/><polygon points="34.31 37.47 43.46 37.36 43.39 37.92 34.37 38.22 34.31 37.47" fill="#e0e0e0" fill-rule="evenodd" style="mix-blend-mode:multiply"/><path d="M49.31,21.17" fill="#fff" stroke="#231f20" stroke-linecap="round" stroke-linejoin="round" stroke-width="2"/><polyline points="32.1 22.69 33.56 37.27 43.96 37.14 45.66 22.63" fill="#86d3ec"/><path d="M33.56,37.58a.32.32,0,0,1-.31-.28L31.79,22.72a.32.32,0,1,1,.63-.06l1.43,14.29,9.82-.12L45.34,22.6a.32.32,0,0,1,.63.07l-1.7,14.5a.32.32,0,0,1-.31.28l-10.39.13Z" fill="#231f20"/><polygon points="35.71 59.89 35.6 58.79 42.2 58.58 42.03 59.89 35.71 59.89" fill="#fff"/><path d="M42,60.21H35.71a.32.32,0,0,1-.31-.29l-.11-1.11a.32.32,0,0,1,.3-.35l6.59-.21a.3.3,0,0,1,.24.1.32.32,0,0,1,.08.25l-.16,1.32A.32.32,0,0,1,42,60.21Zm-6-.63h5.76l.08-.67-5.89.19Z" fill="#231f20"/><line x1="38.6" y1="41.12" x2="38.6" y2="59.79" fill="#fff"/><path d="M38.6,60.11a.32.32,0,0,1-.32-.32V41.12a.32.32,0,0,1,.63,0V59.79A.32.32,0,0,1,38.6,60.11Z" fill="#231f20"/><path d="M37.23,17c.07-.18,1.06-.18,2-.09s1.91.27,1.91.27" fill="#eebd89"/><ellipse cx="38.89" cy="15.32" rx="2.64" ry="3.75" fill="#e0e0e0" style="mix-blend-mode:multiply"/><path d="M39.28,5.22c3,0,5.43,2.83,5.43,6.32s-2.43,6.32-5.43,6.32S33.85,15,33.85,11.53s2.43-6.32,5.43-6.32Z" fill="#eebd89" fill-rule="evenodd"/><path d="M44.47,9.65a7.17,7.17,0,0,1,.25,1.89c0,3.49-2.43,6.32-5.43,6.32a5,5,0,0,1-.8-.06c4.15-.59,6.06-5.49,3.88-9.3a2.89,2.89,0,0,1,2.1,1.15Z" fill="#d7a880" fill-rule="evenodd"/><path d="M34.54,14.61a5.36,5.36,0,0,0,4.74,3.25A5.93,5.93,0,0,0,44,14.58,21.5,21.5,0,0,1,34.54,14.61Z" fill="#d3d3d3" fill-rule="evenodd" style="mix-blend-mode:multiply"/><path d="M39.28,18.14c-3.15,0-5.71-3-5.71-6.6s2.56-6.6,5.71-6.6S45,7.9,45,11.53,42.43,18.14,39.28,18.14Zm0-12.64c-2.84,0-5.15,2.71-5.15,6s2.31,6,5.15,6,5.15-2.71,5.15-6S42.13,5.5,39.28,5.5Z" fill="#231f20"/><path d="M42,5.41a5.16,5.16,0,0,0-5.38-.81,5.64,5.64,0,0,0-3.46,5.84c.09,1.13.16,1.9.19,2.18.49.69-.05,1.23.74,1.41l1.37-.4s2.72-.69,3.77-1.9a18.67,18.67,0,0,0,2.11-3.46,21,21,0,0,1,2.4,3.37,8.86,8.86,0,0,1,.36,1.26,1.87,1.87,0,0,1,1.09-.45C45.27,11.44,45.74,6.18,42,5.41Z" fill="#513321" fill-rule="evenodd"/><path d="M40.9,9.06c.24-.46.39-.78.39-.78a21,21,0,0,1,2.4,3.37c.31.89.55,1.85.55,1.85l.88-.87a11.3,11.3,0,0,0-.16-4l-.12-.06c0-1.35-2.52-3-3.54-.92a5.31,5.31,0,0,0-.4,1.42Z" fill="#331f10" fill-rule="evenodd"/><path d="M40.81,4.67a5.15,5.15,0,0,0-4.24-.07,5.64,5.64,0,0,0-3.46,5.84c.09,1,.15,1.72.18,2.07a2.39,2.39,0,0,0,.65.23c-1.43-4.88,1.8-8.57,6.86-8.06Z" fill="#744c2c" fill-rule="evenodd"/><path d="M37.11,14.2a.54.54,0,1,0-.54-.54.54.54,0,0,0,.54.54Z" fill="#231f20" fill-rule="evenodd"/><path d="M41.34,14.2a.54.54,0,1,0-.54-.54.54.54,0,0,0,.54.54Z" fill="#231f20" fill-rule="evenodd"/><path d="M39.71,16.93A1.39,1.39,0,0,1,38,16.08l.53-.13a.86.86,0,0,0,1.08.45c.51-.12.86-.52.78-.89l.53-.12a1.38,1.38,0,0,1-1.18,1.54Z" fill="#231f20" fill-rule="evenodd"/><path d="M45.66,10.19a6,6,0,0,0-1.78-4.14,3,3,0,0,0-2-.94,3.11,3.11,0,0,0-2.19-1.19,6,6,0,0,0-2.87.35,6.08,6.08,0,0,0-4.07,5.91,7.3,7.3,0,0,0,.34,2.19l.65,2.42L34,14.5a2.24,2.24,0,0,1,1.31-.57h0a6.89,6.89,0,0,0,5-3.23,9.72,9.72,0,0,0,1-2.19,11.43,11.43,0,0,1,2.31,3.95v0c0,.15.08.3.11.45a3.84,3.84,0,0,1,.08.66c0,.31.19.39.26.41l.1,0c.15,0,.39-.13.87-1l.16-.44A7.26,7.26,0,0,0,45.66,10.19Zm-1.29,2.95a6.07,6.07,0,0,0-.22-.93A13.11,13.11,0,0,0,41,7.36s-.71,5.28-5.77,6l-.33.06a3.1,3.1,0,0,0-.93.37l-.3-1.08a14.19,14.19,0,0,1-.46-2.55c0-5.86,7.13-7.06,8.3-4.51,1.58-.37,3.56,2.14,3.56,4.51a6.71,6.71,0,0,1-.39,2.24h0c-.07.21-.14.36-.14.36Z" fill="#231f20"/><ellipse cx="24.91" cy="62.46" rx="2.55" ry="1.17" transform="translate(-33.24 28.7) rotate(-38.12)" fill="#231f20"/><ellipse cx="30.06" cy="62.79" rx="1.17" ry="2.55" transform="translate(-19.05 13.45) rotate(-19.28)" fill="#231f20"/><path d="M25.33,53.29l.22,8h1.12l.22-7.94C26.36,53.3,25.84,53.28,25.33,53.29Z" fill="#231f20"/><path d="M30.25,53.45l.69-15.37-6,.23.42,15c.51,0,1,0,1.56,0l.33-11.77.74-.08.6,12A15.3,15.3,0,0,0,30.25,53.45Z" fill="#d7a880"/><path d="M28.57,53.44,29,61.27l.95-.16.34-7.66A15.3,15.3,0,0,1,28.57,53.44Z" fill="#231f20"/><path d="M25.64,53.29l-.4-14.67,5.35-.21-.66,15.06.63,0,.68-15.32a.32.32,0,0,0-.09-.24.34.34,0,0,0-.24-.1l-6,.23a.32.32,0,0,0-.31.33l.42,15Z" fill="#231f20"/><path d="M26.36,60.95h-.51l-.21-7.66-.63,0,.22,8a.32.32,0,0,0,.32.3h1.12a.32.32,0,0,0,.32-.31l.22-7.92-.63,0Z" fill="#231f20"/><path d="M29.94,53.47l-.32,7.35-.35.1-.38-7.46-.64,0,.4,7.86a.32.32,0,0,0,.32.31h0l.95-.16a.32.32,0,0,0,.28-.29l.34-7.7Z" fill="#231f20"/><path d="M28.28,41.47a.32.32,0,0,0-.35-.3l-.74.08a.32.32,0,0,0-.28.31l-.33,11.76.63,0,.32-11.5h.13l.59,11.59.64,0Z" fill="#231f20"/><polygon points="25.25 39.55 30.37 39.44 30.31 40 25.29 40.3 25.25 39.55" fill="#e0e0e0" fill-rule="evenodd" style="mix-blend-mode:multiply"/><path d="M25.14,28.88l1.33,5.84-2.85,2.44s-1.42-10.9-1.13-12.76c.24-1.59,2-1.36,3.2-1.88a6.75,6.75,0,0,1,2-.45,12.24,12.24,0,0,1,2,.45c1.21.52,3,.29,3.2,1.88.29,1.86-1.13,12.76-1.13,12.76l-2.85-2.44,1.33-5.84Z" fill="#e18560"/><path d="M31.71,37.47a.31.31,0,0,1-.21-.08L28.66,35a.32.32,0,0,1-.1-.31L29.8,29.2H25.53l1.24,5.45a.32.32,0,0,1-.1.31l-2.85,2.44a.32.32,0,0,1-.52-.2c-.06-.45-1.42-11-1.13-12.85.21-1.35,1.33-1.6,2.32-1.82a6.2,6.2,0,0,0,1.07-.3,7.05,7.05,0,0,1,2.08-.47h.08a12.24,12.24,0,0,1,2.06.47,6.19,6.19,0,0,0,1.07.3c1,.22,2.11.47,2.32,1.82.29,1.89-1.08,12.4-1.13,12.85a.32.32,0,0,1-.2.25ZM27.66,22.39a6.38,6.38,0,0,0-1.85.42,6.65,6.65,0,0,1-1.18.34c-1,.23-1.7.42-1.83,1.29-.24,1.55.77,9.81,1.06,12.09l2.26-1.93-1.29-5.65a.32.32,0,0,1,.31-.39h5.06a.32.32,0,0,1,.31.39L29.21,34.6l2.26,1.93c.29-2.28,1.3-10.54,1.06-12.09-.13-.88-.78-1.06-1.83-1.29a6.64,6.64,0,0,1-1.18-.34A11.2,11.2,0,0,0,27.66,22.39Z" fill="#231f20"/><path d="M24.4,26.18s-1.71,1.91.32,3.12l-.95,16.4,8.73-.24L30.31,29s2-1.28.42-2.88" fill="#e18560"/><path d="M23.77,46a.32.32,0,0,1-.31-.35l.92-16.21a2,2,0,0,1-.95-1.38A2.92,2.92,0,0,1,24.16,26a.32.32,0,0,1,.47.42h0A2.32,2.32,0,0,0,24.06,28a1.52,1.52,0,0,0,.82,1,.32.32,0,0,1,.15.31l-.91,16,8-.22L30,29.07a.32.32,0,0,1,.14-.33A2,2,0,0,0,31,27.51a1.44,1.44,0,0,0-.52-1.15.32.32,0,0,1,.45-.45,2,2,0,0,1,.7,1.67,2.49,2.49,0,0,1-1,1.57l2.16,16.26a.32.32,0,0,1-.3.38L23.78,46Z" fill="#231f20"/><path d="M27.79,11.14c2.72,0,4.91,2.56,4.91,5.72s-2.2,5.72-4.91,5.72S22.88,20,22.88,16.85s2.2-5.72,4.91-5.72Z" fill="#fccfa0" fill-rule="evenodd"/><path d="M32.66,15.09a6.45,6.45,0,0,1,.22,1.71c0,3.16-2.2,5.72-4.91,5.72a4.48,4.48,0,0,1-.73-.06c3.74-.53,5.48-5,3.51-8.41a2.63,2.63,0,0,1,1.9,1Z" fill="#eebd89" fill-rule="evenodd"/><path d="M20,22.36h6.1c-1.94-.27-3-2.92-3.41-4.66a6.39,6.39,0,0,0,7.24-3.6l.08,0a10.63,10.63,0,0,0,2.88,3.26c-.22,1.89-1.23,4.65-3.35,4.95h6.09C35.79,19.74,34,18.6,34,15.87a8.32,8.32,0,0,0-1.48-4.39c-.92-1.41-3-1.79-4.19-1.88l-.12-.31s-3.73.09-5.11,2.2a8.32,8.32,0,0,0-1.48,4.39c0,2.73-1.8,3.87-1.62,6.49Z" fill="#513321" fill-rule="evenodd"/><path d="M21.27,22.36h4.8c-1.8-.25-2.88-2.56-3.32-4.28-1.15.82-1.43,2.88-1.48,4.28Zm3-4.51a6.36,6.36,0,0,0,1.62-.25c-.57.12-1.14.2-1.62.25Zm5.81-3.53a10.84,10.84,0,0,0,2.79,3.09c-.22,1.89-1.23,4.65-3.35,4.95h6.09c.16-2.25-1.15-3.42-1.52-5.42-2.45.14-3.86-2.85-3.86-2.85l-.15.23Z" fill="#331f10" fill-rule="evenodd"/><path d="M31.52,10.53a7.15,7.15,0,0,0-3.21-.93l-.12-.31s-3.73.09-5.11,2.2a8.32,8.32,0,0,0-1.48,4.39,6,6,0,0,1-.15,1.32A3.32,3.32,0,0,0,22.52,15c.48-2.63,2.64-5.93,8-4.66.34.08.66.14,1,.18Z" fill="#744c2c" fill-rule="evenodd"/><path d="M33.11,17.41a6.11,6.11,0,0,1-3.59,5.12,4.79,4.79,0,0,1-3.55,0,6.05,6.05,0,0,1-3.55-4.82h.49a5.18,5.18,0,0,0,4.83,4.68c2.49,0,4.55-2.16,4.87-5Z" fill="#231f20" fill-rule="evenodd"/><path d="M31.33,10.33c2.25.48,2.85,3.94,2.85,5.87A4.85,4.85,0,0,0,34.55,18c.28.73.61,1.4.83,2.15a7.92,7.92,0,0,1,.35,2.2h-.49c-.06-2.88-1.55-3.9-1.55-6.16s-.75-5.14-2.59-5.41c-2.51-2.5-9.24-1.44-9.29,5.41,0,2.24-1.56,3-1.57,6.16h-.49a8.27,8.27,0,0,1,.35-2.4c.23-.75.58-1.39.87-2.11a4.28,4.28,0,0,0,.36-1.65c0-2.88,1.25-5.54,4-6.67a5.87,5.87,0,0,1,6,.8Z" fill="#231f20" fill-rule="evenodd"/><path d="M30.58,13.18a7,7,0,0,1-1.75,2.92,6.22,6.22,0,0,1-6.71,1.59v-.54a5.68,5.68,0,0,0,6.37-1.39,6.45,6.45,0,0,0,1.59-2.57Z" fill="#231f20" fill-rule="evenodd"/><path d="M29.84,14.41a7,7,0,0,0,1.35,1.89,7.11,7.11,0,0,0,2.17,1.48v-.53A6.48,6.48,0,0,1,31.53,16a6.56,6.56,0,0,1-1.4-2.06Z" fill="#231f20" fill-rule="evenodd"/><path d="M29.68,12.2a7.11,7.11,0,0,1-1.52,2.27,6.24,6.24,0,0,1-6.72,1.59v-.54a5.68,5.68,0,0,0,6.37-1.39A6.78,6.78,0,0,0,28.7,13,.48.48,0,0,0,29,12.9a.51.51,0,0,0,.19-.13.84.84,0,0,0,.23-.26.8.8,0,0,0,.12-.17l.1-.13Z" fill="#231f20" fill-rule="evenodd"/><path d="M30.51,11A7.14,7.14,0,0,1,29.13,13a6.22,6.22,0,0,1-6.71,1.58V14a5.65,5.65,0,0,0,6.37-1.39A6.54,6.54,0,0,0,30,11Z" fill="#231f20" fill-rule="evenodd"/><path d="M25.85,18.81a.49.49,0,1,0-.49-.49.49.49,0,0,0,.49.49Z" fill="#231f20" fill-rule="evenodd"/><path d="M29.68,18.81a.49.49,0,1,0-.49-.49.49.49,0,0,0,.49.49Z" fill="#231f20" fill-rule="evenodd"/><path d="M27.76,21.3a1.26,1.26,0,0,1-1.36-1.12h.49c0,.35.39.62.86.62s.87-.28.87-.62h.49a1.25,1.25,0,0,1-1.36,1.12Z" fill="#231f20" fill-rule="evenodd"/><rect x="19.56" y="22.87" width="4.22" height="4.22" rx="2.11" ry="2.11" transform="translate(8.74 -5.46) rotate(17.93)" fill="#d7a880"/><line x1="26.41" y1="22.72" x2="26.56" y2="45.59" fill="none" stroke="#231f20" stroke-miterlimit="10"/><circle cx="28.14" cy="32.86" r="0.93" fill="none" stroke="#231f20" stroke-miterlimit="10"/><rect x="1.62" y="54.8" width="72.25" height="22.19" fill="#ffa476"/><line x1="12.16" y1="29.76" x2="12.16" y2="54.4" fill="none"/><line x1="73.11" y1="54.67" x2="9.8" y2="54.67" fill="none"/><line x1="73.39" y1="54.67" x2="69.41" y2="54.67" fill="none"/><line x1="6.15" y1="54.67" x2="2.17" y2="54.67" fill="none"/><path d="M3.22,54.67c0-.31,3.55-.56,7.92-.56H67.55c4.38,0,7.92.25,7.92.56s-3.55.56-7.92.56H11.14C6.77,55.23,3.22,55,3.22,54.67Z"/><path d="M12.38,26.67H48.92a2.71,2.71,0,0,1,2.71,2.71V54a0,0,0,0,1,0,0h-42a0,0,0,0,1,0,0V29.38A2.71,2.71,0,0,1,12.38,26.67Z" fill="#cecece"/><path d="M49.36,27.36a1.58,1.58,0,0,1,1.58,1.58V53.35H10.36V28.94a1.58,1.58,0,0,1,1.58-1.58H49.36m0-.69H11.94a2.27,2.27,0,0,0-2.27,2.27V54a0,0,0,0,0,0,0H51.6a0,0,0,0,0,0,0V28.94a2.27,2.27,0,0,0-2.27-2.27Z"/><rect x="12.13" y="29.28" width="37.28" height="22.35" fill="#36d5ff"/><path d="M36.8,51.91H49.65V29.07H11.85V51.91h25ZM49.3,29.34V39.86L42.66,34.6,36,29.34H49.3Zm-13.77,0,6.88,5.45,6.88,5.45v5l-10-7.94-10-7.94h6.28Zm-6.77,0L39,37.48,49.3,45.61v6H46.64L32.58,40.49,18.51,29.34Zm-16.57,0H18L32.08,40.49,46.15,51.63h-9.7L24.32,42,12.2,32.41V29.34Zm0,22.29V32.8l11.88,9.41L36,51.63H12.2Z"/><path d="M53.84,56.14h0a1.21,1.21,0,0,1-.05.36A1.21,1.21,0,0,0,53.84,56.14Z" fill="#fff"/><path d="M38,55a1.55,1.55,0,0,1-1,.36H25.43a1.56,1.56,0,0,1-1.54-1.32H8.11v2.08a.57.57,0,0,0,.57.57H52.62a.57.57,0,0,0,.57-.57V54.06H38.56a1.56,1.56,0,0,1-.44.87Z" fill="#cecece"/><polygon points="23.92 53.42 7.46 53.42 7.46 53.42 23.92 53.42 23.92 53.42" fill="#fff"/><polygon points="38.52 53.42 38.52 53.42 53.84 53.42 53.84 53.42 38.52 53.42" fill="#fff"/><path d="M7.67,56.82a1.21,1.21,0,0,1-.11-.21A1.21,1.21,0,0,0,7.67,56.82Z"/><path d="M53.78,56.5a1.21,1.21,0,0,1-.09.22A1.21,1.21,0,0,0,53.78,56.5Z"/><path d="M52.62,57.35H8.68a1.21,1.21,0,0,1-1-.53,1.21,1.21,0,0,0,1,.54H52.62a1.21,1.21,0,0,0,1.07-.64A1.21,1.21,0,0,1,52.62,57.35Z"/><path d="M7.47,53.42h0v2.72a1.21,1.21,0,0,0,.1.47,1.21,1.21,0,0,1-.1-.47Z"/><path d="M38.12,54.93a1.56,1.56,0,0,0,.44-.87h0A1.56,1.56,0,0,1,38.12,54.93Z" fill="#fff"/><polygon points="37.84 53.42 37.84 53.42 24.61 53.42 24.61 53.42 37.84 53.42" fill="#fff"/><path d="M25.43,54.74H37a.92.92,0,0,0,.89-.68H24.54A.92.92,0,0,0,25.43,54.74Z" fill="#cecece"/><path d="M25.43,55.39a1.55,1.55,0,0,1-1-.36,1.55,1.55,0,0,0,1,.36H37A1.55,1.55,0,0,0,38,55a1.55,1.55,0,0,1-1,.36Z" fill="#fff"/><circle cx="38.52" cy="53.42" fill="#fff"/><path d="M38.58,53.82a1.55,1.55,0,0,1,0,.24h0a1.47,1.47,0,0,0,0-.64h0A1.55,1.55,0,0,1,38.58,53.82Z" fill="#fff"/><circle cx="23.92" cy="53.42"/><path d="M24.44,55a1.57,1.57,0,0,1-.55-1h0A1.57,1.57,0,0,0,24.44,55Z"/><path d="M23.87,53.82a1.55,1.55,0,0,1,.06-.4h0a1.47,1.47,0,0,0,0,.64h0A1.55,1.55,0,0,1,23.87,53.82Z"/><path d="M38.52,53.42a1.47,1.47,0,0,1,0,.64H53.19v2.08a.57.57,0,0,1-.57.57H8.68a.57.57,0,0,1-.57-.57V54.06H23.89a1.47,1.47,0,0,1,0-.64H7.47v2.72a1.21,1.21,0,0,0,1.21,1.21H52.62a1.21,1.21,0,0,0,1.21-1.21V53.42Z"/><path d="M37.94,53.82a.91.91,0,0,0-.1-.4H24.61a.86.86,0,0,0-.06.64H37.9A.91.91,0,0,0,37.94,53.82Z"/><path d="M37,54.74H25.43a.92.92,0,0,1-.89-.68h-.66a1.56,1.56,0,0,0,1.54,1.32H37A1.55,1.55,0,0,0,38,55l.11-.1a1.56,1.56,0,0,0,.44-.87H37.9A.92.92,0,0,1,37,54.74Z"/><polygon points="24.61 53.42 23.92 53.42 23.92 53.42 24.61 53.42 24.61 53.42"/><polygon points="38.52 53.42 38.52 53.42 37.84 53.42 37.84 53.42 38.52 53.42"/><path d="M37.94,53.82a.91.91,0,0,1,0,.24h.66a1.47,1.47,0,0,0,0-.64h-.68A.91.91,0,0,1,37.94,53.82Z"/><path d="M23.89,54.06h.66a.86.86,0,0,1,.06-.64h-.68a1.47,1.47,0,0,0,0,.64Z"/><path d="M59.59,54.44a1.88,1.88,0,0,1-1.69,2.05l-14.57,1.4a1.88,1.88,0,0,1-2.05-1.69L39.14,34.09A1.88,1.88,0,0,1,40.84,32l14.57-1.4a1.88,1.88,0,0,1,2.05,1.69l2.13,22.11Z" fill="#fff" stroke="#000" stroke-miterlimit="10" stroke-width="0.25"/><path d="M57.91,56.59,43.33,58a2,2,0,0,1-2.16-1.78L39,34.1a2,2,0,0,1,1.78-2.16l14.57-1.4a2,2,0,0,1,2.16,1.78l2.13,22.11A2,2,0,0,1,57.91,56.59ZM40.84,32.13a1.78,1.78,0,0,0-1.6,1.95l2.13,22.11a1.78,1.78,0,0,0,1.95,1.6l14.57-1.4a1.78,1.78,0,0,0,1.6-1.94L57.36,32.34a1.78,1.78,0,0,0-1.95-1.6Z" stroke="#000" stroke-miterlimit="10" stroke-width="0.25"/><path d="M57.86,52.24l-15.3,1.47a.1.1,0,0,1-.11-.09l-1.72-17.9a.1.1,0,0,1,.09-.11l15.3-1.47a.1.1,0,0,1,.11.09l1.72,17.9A.1.1,0,0,1,57.86,52.24ZM42.63,53.5l15.11-1.45L56,34.35,40.93,35.8Z"/><path d="M50.77,33.23l-4.94.48a.1.1,0,0,1,0-.19L50.75,33a.1.1,0,0,1,0,.19Z"/><path d="M51.65,54.93a1.25,1.25,0,1,1-1.37-1.13A1.25,1.25,0,0,1,51.65,54.93Z" fill="#fff" stroke="#000" stroke-miterlimit="10" stroke-width="0.25"/><path d="M50.53,56.39a1.35,1.35,0,1,1,1.22-1.47A1.35,1.35,0,0,1,50.53,56.39Zm-.24-2.5a1.16,1.16,0,1,0,1.26,1A1.16,1.16,0,0,0,50.29,53.89Z"/><rect x="41.65" y="34.94" width="15.37" height="17.98" transform="translate(-3.97 4.92) rotate(-5.48)" fill="#36d5ff" stroke="#000" stroke-miterlimit="10" stroke-width="0.75"/><polygon points="56.47 38.24 50 34.92 50.18 34.67 56.65 37.99 56.47 38.24"/><polygon points="56.9 42.89 42.18 35.66 42.35 35.4 57.07 42.63 56.9 42.89"/><polygon points="57.7 50.69 41.41 42.8 41.49 42.49 57.77 50.37 57.7 50.69"/><path d="M63.4,56.55a1.34,1.34,0,0,1-1.53,1.11l-8-1.28a1.34,1.34,0,0,1-1.11-1.53l2.64-16.48A1.34,1.34,0,0,1,57,37.26l8,1.28A1.34,1.34,0,0,1,66,40.07L63.4,56.55Z" fill="#eaeaea" stroke="#000" stroke-miterlimit="10" stroke-width="0.25"/><path d="M61.86,57.73l-8-1.28a1.41,1.41,0,0,1-1.17-1.61l2.64-16.48A1.41,1.41,0,0,1,57,37.19l8,1.28a1.41,1.41,0,0,1,1.17,1.61L63.47,56.56A1.41,1.41,0,0,1,61.86,57.73ZM57,37.33a1.27,1.27,0,0,0-1.45,1.05L52.86,54.86a1.27,1.27,0,0,0,1.05,1.45l8,1.28a1.27,1.27,0,0,0,1.45-1.05L66,40.06a1.27,1.27,0,0,0-1.05-1.45Z" stroke="#000" stroke-miterlimit="10" stroke-width="0.25"/><path d="M62.6,54.72l-8.48-1.36a.07.07,0,0,1-.06-.08l2.16-13.51a.07.07,0,0,1,.08-.06l8.48,1.36a.07.07,0,0,1,.06.08L62.68,54.67A.07.07,0,0,1,62.6,54.72Zm-8.39-1.48,8.34,1.34L64.7,41.21l-8.34-1.34Z"/><path d="M62,39.61l-2.26-.37a.07.07,0,0,1,0-.14l2.26.37a.07.07,0,0,1,0,.14Z"/><path d="M59.29,39.18h0a.07.07,0,0,1,0-.14h0a.07.07,0,0,1,0,.14Z"/><path d="M59,55.65a.89.89,0,1,1-.74-1A.89.89,0,0,1,59,55.65Z" fill="#ddd" stroke="#000" stroke-miterlimit="10" stroke-width="0.25"/><path d="M58,56.46a1,1,0,1,1,1.1-.8A1,1,0,0,1,58,56.46Zm.28-1.76a.82.82,0,1,0,.68.94A.82.82,0,0,0,58.26,54.69Z"/><rect x="52.62" y="42.93" width="13.68" height="8.59" transform="translate(3.43 98.46) rotate(-80.9)" fill="#36d5ff" stroke="#000" stroke-miterlimit="10" stroke-width="0.75"/><polygon points="64.3 43.96 61.6 40.71 61.77 40.57 64.47 43.82 64.3 43.96"/><rect x="60.47" y="38.67" width="0.22" height="9.75" transform="translate(-13.58 51.68) rotate(-41.97)"/><polygon points="62.91 52.76 55.43 44.78 55.54 44.58 63.02 52.55 62.91 52.76"/></g><path d="M37.61,73.87A36.93,36.93,0,1,1,74.54,36.93,37,37,0,0,1,37.61,73.87ZM37.61,2A34.93,34.93,0,1,0,72.54,36.93,35,35,0,0,0,37.61,2Z" fill="#47adf4"/></g></g></g></svg>