<svg xmlns="http://www.w3.org/2000/svg" xmlns:xlink="http://www.w3.org/1999/xlink" viewBox="0 0 86.27 76.99"><defs><style>.cls-1,.cls-12,.cls-6{fill:none;}.cls-2{clip-path:url(#clip-path);}.cls-3{fill:#e8caa3;}.cls-4{fill:#ffa476;}.cls-5{fill:#29abe2;}.cls-10,.cls-11,.cls-12,.cls-5,.cls-6,.cls-7,.cls-8,.cls-9{stroke:#000;stroke-linejoin:round;stroke-width:1.15px;}.cls-5,.cls-6,.cls-8,.cls-9{stroke-linecap:round;}.cls-7{fill:#333;}.cls-10,.cls-8{fill:#f2f2f2;}.cls-9{fill:#4d4d4d;}.cls-11{fill:#f16474;}.cls-13{fill:#47adf4;}</style><clipPath id="clip-path"><circle class="cls-1" cx="37.74" cy="36.93" r="36.8"/></clipPath></defs><title>Fichier 40</title><g id="Calque_2" data-name="Calque 2"><g id="Calque_3" data-name="Calque 3"><g class="cls-2"><rect class="cls-3" y="0.47" width="76.69" height="54.2"/><rect class="cls-4" x="1.62" y="54.8" width="72.25" height="22.19"/><line class="cls-1" x1="12.16" y1="29.76" x2="12.16" y2="54.4"/><line class="cls-1" x1="73.11" y1="54.67" x2="9.8" y2="54.67"/><line class="cls-1" x1="73.39" y1="54.67" x2="69.41" y2="54.67"/><line class="cls-1" x1="6.15" y1="54.67" x2="2.17" y2="54.67"/><path d="M3.22,54.67c0-.31,3.55-.56,7.92-.56H67.55c4.38,0,7.92.25,7.92.56s-3.55.56-7.92.56H11.14C6.77,55.23,3.22,55,3.22,54.67Z"/><path class="cls-5" d="M78.7,15.21H75.61a6.34,6.34,0,0,1-12.46,0H60.06s-7,0-7,8.34V49.27H85.69V23.55C85.69,15.21,78.7,15.21,78.7,15.21Z"/><line class="cls-6" x1="60.06" y1="23.55" x2="60.06" y2="49.27"/><line class="cls-6" x1="69.38" y1="20.35" x2="69.38" y2="49.27"/><line class="cls-6" x1="53.07" y1="44.92" x2="60.06" y2="44.92"/><line class="cls-6" x1="78.7" y1="23.55" x2="78.7" y2="49.27"/><line class="cls-6" x1="85.69" y1="44.92" x2="78.7" y2="44.92"/><line class="cls-6" x1="63.26" y1="15.68" x2="75.49" y2="15.68"/><path class="cls-6" d="M69.38,15.68V12.93a2.24,2.24,0,0,1-2.23-2.31s0-2.45,2.23-2.45,2.26,2.45,2.26,2.45"/><rect class="cls-7" x="78.7" y="44.92" width="6.99" height="4.35"/><rect class="cls-7" x="53.07" y="44.92" width="6.99" height="4.35"/><path class="cls-8" d="M54.82,15.21H51.72a6.34,6.34,0,0,1-12.46,0H36.18s-7,0-7,8.34V49.27H61.81V23.55C61.81,15.21,54.82,15.21,54.82,15.21Z"/><line class="cls-6" x1="36.18" y1="23.55" x2="36.18" y2="49.27"/><line class="cls-6" x1="45.5" y1="20.56" x2="45.5" y2="20.91"/><line class="cls-6" x1="45.5" y1="24.42" x2="45.5" y2="24.77"/><line class="cls-6" x1="45.5" y1="28.27" x2="45.5" y2="28.62"/><line class="cls-6" x1="45.5" y1="32.12" x2="45.5" y2="32.47"/><line class="cls-6" x1="45.5" y1="35.98" x2="45.5" y2="36.32"/><line class="cls-6" x1="45.5" y1="39.83" x2="45.5" y2="40.18"/><line class="cls-6" x1="45.5" y1="43.68" x2="45.5" y2="44.03"/><line class="cls-6" x1="45.5" y1="47.54" x2="45.5" y2="47.88"/><line class="cls-6" x1="29.19" y1="44.92" x2="36.18" y2="44.92"/><line class="cls-6" x1="54.82" y1="23.55" x2="54.82" y2="49.27"/><line class="cls-6" x1="61.81" y1="44.92" x2="54.82" y2="44.92"/><line class="cls-6" x1="39.38" y1="15.68" x2="51.6" y2="15.68"/><path class="cls-6" d="M45.49,15.68V12.93a2.24,2.24,0,0,1-2.23-2.31s0-2.45,2.23-2.45,2.26,2.45,2.26,2.45"/><line class="cls-6" x1="31.14" y1="47.25" x2="32" y2="47.25"/><line class="cls-6" x1="59.18" y1="47.25" x2="60.04" y2="47.25"/><path class="cls-9" d="M32.12,15.1H29c-.56,2.93-6.23,5.79-6.23,5.79S17.13,18,16.57,15.1H13.48s-7,0-7,8.34V49.17H39.11V23.45C39.11,15.1,32.12,15.1,32.12,15.1Z"/><line class="cls-6" x1="13.48" y1="23.45" x2="13.48" y2="49.17"/><line class="cls-6" x1="22.8" y1="20.89" x2="22.8" y2="49.17"/><line class="cls-6" x1="6.49" y1="44.82" x2="13.48" y2="44.82"/><line class="cls-6" x1="32.12" y1="23.45" x2="32.12" y2="49.17"/><line class="cls-6" x1="39.11" y1="44.82" x2="32.12" y2="44.82"/><line class="cls-6" x1="16.68" y1="15.58" x2="28.91" y2="15.58"/><path class="cls-6" d="M22.79,15.58V12.83a2.24,2.24,0,0,1-2.23-2.31s0-2.45,2.23-2.45,2.26,2.45,2.26,2.45"/><polygon class="cls-7" points="39.11 49.17 32.12 49.17 32.12 44.82 39.11 42.59 39.11 49.17"/><polygon class="cls-7" points="13.48 49.17 6.49 49.17 6.49 42 13.48 44.82 13.48 49.17"/><rect class="cls-7" x="6.49" y="29.63" width="3.08" height="5.8" rx="1.22" ry="1.22"/><rect class="cls-7" x="36.03" y="29.63" width="3.08" height="5.8" rx="1.22" ry="1.22"/><polygon class="cls-7" points="25.06 25.94 29.84 25.94 29.84 30 27.45 31.41 25.06 30.17 25.06 25.94"/><rect class="cls-10" x="21.6" y="59.65" width="25.99" height="2.79"/><path class="cls-11" d="M21.6,59.65V46.76h8.08A10.94,10.94,0,0,0,33.54,52c3,2.25,8.71,2.39,11.38,3.37s2.67,4.31,2.67,4.31Z"/><circle class="cls-12" cx="28.57" cy="50.23" r="0.5"/><line class="cls-6" x1="31.23" y1="48.75" x2="28.57" y2="50.23"/><circle class="cls-12" cx="31.37" cy="53.31" r="0.5" transform="translate(-16.89 14.62) rotate(-20.81)"/><line class="cls-6" x1="33.33" y1="50.99" x2="31.37" y2="53.31"/><circle class="cls-12" cx="34.67" cy="55.33" r="0.5" transform="translate(-23.95 26.57) rotate(-31.8)"/><line class="cls-6" x1="36.05" y1="52.85" x2="34.57" y2="55.51"/><circle class="cls-12" cx="38.16" cy="56.44" r="0.5" transform="translate(-28.57 42.72) rotate(-44.32)"/><line class="cls-6" x1="38.97" y1="53.72" x2="38.1" y2="56.64"/><path class="cls-6" d="M43.55,54.95a7.34,7.34,0,0,0-1.37,2.35,5.82,5.82,0,0,0,0,2.35"/><circle class="cls-8" cx="26.14" cy="55.3" r="2.43"/><rect class="cls-10" x="15.82" y="64.11" width="29.67" height="3.19"/><path class="cls-11" d="M15.82,64.11V49.39H25a12.5,12.5,0,0,0,4.41,5.95c3.45,2.57,9.94,2.73,13,3.85s3,4.92,3,4.92Z"/><circle class="cls-12" cx="23.77" cy="53.35" r="0.57"/><line class="cls-6" x1="26.81" y1="51.65" x2="23.77" y2="53.35"/><circle class="cls-12" cx="26.97" cy="56.87" r="0.57" transform="translate(-18.44 13.29) rotate(-20.81)"/><line class="cls-6" x1="29.21" y1="54.21" x2="26.97" y2="56.87"/><circle class="cls-12" cx="30.74" cy="59.17" r="0.57" transform="translate(-26.56 25.08) rotate(-31.8)"/><line class="cls-6" x1="32.32" y1="56.34" x2="30.63" y2="59.38"/><circle class="cls-12" cx="34.73" cy="60.43" r="0.57" transform="translate(-32.34 41.46) rotate(-44.32)"/><line class="cls-6" x1="35.65" y1="57.33" x2="34.66" y2="60.66"/><path class="cls-6" d="M40.89,58.74a8.39,8.39,0,0,0-1.57,2.68,6.65,6.65,0,0,0,0,2.68"/><circle class="cls-8" cx="21" cy="59.14" r="2.77"/></g><path class="cls-13" d="M37.61,73.87A36.93,36.93,0,1,1,74.54,36.93,37,37,0,0,1,37.61,73.87ZM37.61,2A34.93,34.93,0,1,0,72.54,36.93,35,35,0,0,0,37.61,2Z"/></g></g></svg>