<svg xmlns="http://www.w3.org/2000/svg" xmlns:xlink="http://www.w3.org/1999/xlink" viewBox="0 0 76.69 76.99"><defs><style>.cls-1,.cls-11,.cls-6{fill:none;}.cls-2{clip-path:url(#clip-path);}.cls-3{fill:#e7f3f7;}.cls-4{fill:#e2cf81;}.cls-5,.cls-8{fill:#f16474;}.cls-10,.cls-11,.cls-5,.cls-6,.cls-7,.cls-8,.cls-9{stroke:#000;stroke-width:1.15px;}.cls-5,.cls-6{stroke-linecap:round;}.cls-5,.cls-6,.cls-7{stroke-linejoin:round;}.cls-7{fill:#ba7958;}.cls-10,.cls-11,.cls-8,.cls-9{stroke-miterlimit:10;}.cls-9{fill:#fcee21;}.cls-10{fill:#f7931e;}.cls-12{fill:#47adf4;}</style><clipPath id="clip-path"><circle class="cls-1" cx="37.74" cy="36.93" r="36.8"/></clipPath></defs><title>Fichier 39</title><g id="Calque_2" data-name="Calque 2"><g id="Calque_3" data-name="Calque 3"><g class="cls-2"><rect class="cls-3" y="0.47" width="76.69" height="54.2"/><rect class="cls-4" x="1.62" y="54.8" width="72.25" height="22.19"/><line class="cls-1" x1="12.16" y1="29.76" x2="12.16" y2="54.4"/><line class="cls-1" x1="73.11" y1="54.67" x2="9.8" y2="54.67"/><line class="cls-1" x1="73.39" y1="54.67" x2="69.41" y2="54.67"/><line class="cls-1" x1="6.15" y1="54.67" x2="2.17" y2="54.67"/><path d="M3.22,54.67c0-.31,3.55-.56,7.92-.56H67.55c4.38,0,7.92.25,7.92.56s-3.55.56-7.92.56H11.14C6.77,55.23,3.22,55,3.22,54.67Z"/><path class="cls-5" d="M33.58,21c-8.88,0-3.69,33.58-3.69,33.58l3.69,0,3.69,0S42.46,21,33.58,21Z"/><line class="cls-6" x1="33.58" y1="35.77" x2="33.58" y2="54.61"/><path d="M26.13,41.57a6.79,6.79,0,0,0-2.63.53l-1.93-3.75h2.7a.53.53,0,0,1,0,1.06H23.7a.55.55,0,1,0,0,1.1h.58a1.63,1.63,0,0,0,0-3.26H20.67a.55.55,0,0,0-.49.8l1,1.87H13.21l-.8-1.57h1.27a.55.55,0,0,0,0-1.1H10.07a.55.55,0,0,0,0,1.1h1.11l1.07,2.09L11,42.38a6.82,6.82,0,1,0,3.58,6.56h1.61l-.63,2h-.36a.55.55,0,1,0,0,1.1h2a.55.55,0,1,0,0-1.1H16.7l.72-2.35L22,41.56l.53,1a6.82,6.82,0,1,0,3.6-1Zm-13.31,0L16,47.84H14.56A6.82,6.82,0,0,0,11.91,43Zm.64,6.27H8.77l2.54-3.94A5.72,5.72,0,0,1,13.46,47.84Zm-5.7,6.27a5.72,5.72,0,1,1,2.63-10.81L7.3,48.09a.55.55,0,0,0,.46.85h5.7A5.73,5.73,0,0,1,7.76,54.11ZM17,47.29,13.77,41H21Zm9.16,6.82A5.72,5.72,0,0,1,23,43.58L24.85,47a.55.55,0,0,0,1-.5L24,43.07a5.72,5.72,0,1,1,2.12,11Z"/><rect class="cls-7" x="43.2" y="51.48" width="1.75" height="2.63" transform="translate(70.5 -10.7) rotate(62.46)"/><circle class="cls-8" cx="48.46" cy="50.5" r="3.64" transform="translate(-17.86 28.13) rotate(-27.54)"/><circle class="cls-9" cx="52.68" cy="52.97" r="1.17" transform="translate(-18.52 30.36) rotate(-27.54)"/><circle class="cls-10" cx="65.78" cy="49.31" r="5.11" transform="translate(-6.16 89.09) rotate(-65.79)"/><line class="cls-10" x1="67.88" y1="44.64" x2="63.68" y2="53.97"/><line class="cls-11" x1="61.12" y1="47.21" x2="70.44" y2="51.4"/><path class="cls-11" d="M70.57,47.51a4.55,4.55,0,0,0-2.69,2.74,4.55,4.55,0,0,0-.27,3.83"/><path class="cls-11" d="M61.12,51.16a4.79,4.79,0,0,0,2.56-2.8,4.79,4.79,0,0,0,.39-3.77"/></g><path class="cls-12" d="M37.61,73.87A36.93,36.93,0,1,1,74.54,36.93,37,37,0,0,1,37.61,73.87ZM37.61,2A34.93,34.93,0,1,0,72.54,36.93,35,35,0,0,0,37.61,2Z"/></g></g></svg>