<svg xmlns="http://www.w3.org/2000/svg" xmlns:xlink="http://www.w3.org/1999/xlink" viewBox="0 0 80.4 76.99"><defs><style>.cls-1,.cls-10,.cls-12,.cls-6{fill:none;}.cls-2{clip-path:url(#clip-path);}.cls-3{fill:#e7f3f7;}.cls-4{fill:#e2cf81;}.cls-5{fill:#f16474;}.cls-10,.cls-11,.cls-12,.cls-5,.cls-6,.cls-7,.cls-8,.cls-9{stroke:#000;stroke-width:1.15px;}.cls-5,.cls-6{stroke-linecap:round;}.cls-10,.cls-5,.cls-6,.cls-7,.cls-8,.cls-9{stroke-linejoin:round;}.cls-7{fill:#996459;}.cls-8{fill:#ba7958;}.cls-9{fill:#fff;}.cls-11{fill:#f7931e;}.cls-11,.cls-12{stroke-miterlimit:10;}.cls-13{fill:#47adf4;}</style><clipPath id="clip-path"><circle class="cls-1" cx="41.45" cy="36.93" r="36.8"/></clipPath></defs><title>Fichier 45</title><g id="Calque_2" data-name="Calque 2"><g id="Calque_3" data-name="Calque 3"><g class="cls-2"><rect class="cls-3" x="3.71" y="0.47" width="76.69" height="54.2"/><rect class="cls-4" x="5.32" y="54.8" width="72.25" height="22.19"/><line class="cls-1" x1="15.87" y1="29.76" x2="15.87" y2="54.4"/><line class="cls-1" x1="76.82" y1="54.67" x2="13.51" y2="54.67"/><line class="cls-1" x1="77.09" y1="54.67" x2="73.12" y2="54.67"/><line class="cls-1" x1="9.86" y1="54.67" x2="5.88" y2="54.67"/><path d="M6.93,54.67c0-.31,3.55-.56,7.92-.56H71.26c4.38,0,7.92.25,7.92.56s-3.55.56-7.92.56H14.85C10.47,55.23,6.93,55,6.93,54.67Z"/><path class="cls-5" d="M38.13,6.44c-12.69,0-5.27,48-5.27,48l5.27,0,5.27,0S50.82,6.44,38.13,6.44Z"/><line class="cls-6" x1="38.13" y1="27.5" x2="38.13" y2="54.42"/><path d="M28.88,39.57a7.78,7.78,0,0,0-3,.6l-2.22-4.3h3.1a.61.61,0,0,1,0,1.22h-.66a.63.63,0,0,0,0,1.26h.66a1.87,1.87,0,1,0,0-3.74H22.62a.63.63,0,0,0-.56.92l1.1,2.14H14.07l-.92-1.8H14.6a.63.63,0,0,0,0-1.26H10.47a.63.63,0,1,0,0,1.26h1.27L13,38.27,11.52,40.5A7.82,7.82,0,1,0,15.62,48h1.85l-.72,2.34h-.41a.63.63,0,1,0,0,1.26H18.6a.63.63,0,1,0,0-1.26h-.54l.83-2.7,5.24-8.09.61,1.18a7.82,7.82,0,1,0,4.13-1.18Zm-15.26,0,3.67,7.19H15.62a7.82,7.82,0,0,0-3-5.58Zm.73,7.19H9l2.91-4.51A6.56,6.56,0,0,1,14.35,46.76ZM7.82,54a6.56,6.56,0,1,1,3-12.39L7.29,47a.63.63,0,0,0,.53,1h6.53A6.57,6.57,0,0,1,7.82,54Zm10.56-7.82-3.68-7.2h8.34ZM28.88,54a6.56,6.56,0,0,1-3.55-12.07l2.07,4a.63.63,0,0,0,1.12-.58l-2.07-4A6.56,6.56,0,1,1,28.88,54Z"/><rect class="cls-7" x="63.64" y="39.02" width="9.15" height="18.75" rx="3.34" ry="3.34"/><rect class="cls-8" x="56.54" y="36.35" width="13.46" height="24.18" rx="2.66" ry="2.66"/><rect class="cls-7" x="57.21" y="59.99" width="12.11" height="2.08"/><rect class="cls-8" x="54.3" y="41.65" width="4.77" height="10.48"/><rect class="cls-7" x="54.3" y="52.13" width="4.77" height="2.44"/><path class="cls-9" d="M59.26,34.16l-3.83.28A1.73,1.73,0,0,1,53.7,32.7v-.6a1.73,1.73,0,0,1,1.73-1.73H59a1.73,1.73,0,0,1,1.73,1.73v.6A1.3,1.3,0,0,1,59.26,34.16Z"/><line class="cls-10" x1="60.71" y1="32.1" x2="60.71" y2="36.35"/><path class="cls-9" d="M67.94,33.4l3.83.28a1.73,1.73,0,0,0,1.73-1.73v-.6a1.73,1.73,0,0,0-1.73-1.73H68.22a1.73,1.73,0,0,0-1.73,1.73v.6A1.3,1.3,0,0,0,67.94,33.4Z"/><line class="cls-10" x1="66.49" y1="31.34" x2="66.49" y2="36.35"/><path class="cls-9" d="M62.24,28.59l-3.83.28a1.73,1.73,0,0,1-1.73-1.73v-.6a1.73,1.73,0,0,1,1.73-1.73H62a1.73,1.73,0,0,1,1.73,1.73v.6A1.3,1.3,0,0,1,62.24,28.59Z"/><line class="cls-10" x1="63.69" y1="26.54" x2="63.69" y2="36.35"/><line class="cls-10" x1="59.07" y1="52.13" x2="69.99" y2="52.13"/><line class="cls-10" x1="56.54" y1="39.12" x2="69.99" y2="39.12"/><circle class="cls-11" cx="44" cy="61.4" r="13.79" transform="translate(-30.04 76.36) rotate(-65.79)"/><line class="cls-11" x1="49.65" y1="48.82" x2="38.35" y2="73.98"/><line class="cls-12" x1="31.42" y1="55.75" x2="56.58" y2="67.05"/><path class="cls-12" d="M56.9,56.55s-4.4,1.06-7.25,7.39-.72,10.33-.72,10.33"/><path class="cls-12" d="M31.43,66.4s4.07-1.21,6.91-7.54S39.4,48.68,39.4,48.68"/></g><path class="cls-13" d="M41.32,73.87A36.93,36.93,0,1,1,78.25,36.93,37,37,0,0,1,41.32,73.87ZM41.32,2A34.93,34.93,0,1,0,76.25,36.93,35,35,0,0,0,41.32,2Z"/></g></g></svg>