<svg xmlns="http://www.w3.org/2000/svg" xmlns:xlink="http://www.w3.org/1999/xlink" viewBox="0 0 76.69 76.99"><defs><style>.cls-1,.cls-7{fill:none;}.cls-2{clip-path:url(#clip-path);}.cls-3{fill:#a3e4ff;}.cls-4{fill:#ffa476;}.cls-5,.cls-6{fill:#f2f2f2;}.cls-10,.cls-11,.cls-12,.cls-13,.cls-14,.cls-15,.cls-5,.cls-6,.cls-7,.cls-8,.cls-9{stroke:#000;}.cls-10,.cls-11,.cls-5,.cls-6,.cls-7,.cls-8,.cls-9{stroke-linejoin:round;}.cls-10,.cls-11,.cls-6,.cls-7,.cls-8,.cls-9{stroke-linecap:round;}.cls-8{fill:#996459;}.cls-10,.cls-11,.cls-8,.cls-9{stroke-width:1.15px;}.cls-9{fill:#da4f6b;}.cls-10{fill:#84d2e2;}.cls-11{fill:#fcee21;}.cls-12{fill:#eaeaea;}.cls-12,.cls-13,.cls-14,.cls-15{stroke-miterlimit:10;}.cls-12,.cls-13,.cls-14{stroke-width:0.25px;}.cls-14{fill:#ddd;}.cls-15{fill:#36d5ff;stroke-width:0.75px;}.cls-16{fill:#fff;}.cls-17{fill:#e6e6e6;}.cls-18{fill:#47adf4;}</style><clipPath id="clip-path"><circle class="cls-1" cx="37.74" cy="36.93" r="36.8"/></clipPath></defs><title>Fichier 41</title><g id="Calque_2" data-name="Calque 2"><g id="Calque_3" data-name="Calque 3"><g class="cls-2"><rect class="cls-3" y="0.47" width="76.69" height="54.2"/><rect class="cls-4" x="1.62" y="54.8" width="72.25" height="22.19"/><line class="cls-1" x1="12.16" y1="29.76" x2="12.16" y2="54.4"/><line class="cls-1" x1="73.11" y1="54.67" x2="9.8" y2="54.67"/><line class="cls-1" x1="73.39" y1="54.67" x2="69.41" y2="54.67"/><line class="cls-1" x1="6.15" y1="54.67" x2="2.17" y2="54.67"/><path d="M3.22,54.67c0-.31,3.55-.56,7.92-.56H67.55c4.38,0,7.92.25,7.92.56s-3.55.56-7.92.56H11.14C6.77,55.23,3.22,55,3.22,54.67Z"/><rect class="cls-5" x="48.01" y="50.85" width="15.22" height="9.58"/><circle class="cls-5" cx="51.48" cy="54.56" r="1.3"/><path class="cls-6" d="M49.43,58.48s0-1.46,2-1.46,2,1.46,2,1.46"/><line class="cls-7" x1="56.14" y1="53.57" x2="61.43" y2="53.57"/><line class="cls-7" x1="57.33" y1="57.02" x2="61.43" y2="57.02"/><line class="cls-7" x1="55.82" y1="58.48" x2="61.43" y2="58.48"/><path class="cls-8" d="M25.27,24.8H17.5a2.08,2.08,0,0,0-2.08,2.07v5.07A2.08,2.08,0,0,0,17.5,34h7.77a2.08,2.08,0,0,0,2.08-2.08V26.87A2.08,2.08,0,0,0,25.27,24.8Zm-.53,6.87a1.11,1.11,0,0,1-1.11,1.11H19.15A1.11,1.11,0,0,1,18,31.67V28.33a1.12,1.12,0,0,1,1.11-1.11h4.48a1.12,1.12,0,0,1,1.11,1.11Z"/><rect class="cls-9" x="2.95" y="30.29" width="36.87" height="28.62" rx="6.43" ry="6.43"/><rect class="cls-8" x="10.46" y="30.29" width="3.9" height="28.62"/><rect class="cls-8" x="27.97" y="30.29" width="3.9" height="28.62"/><rect class="cls-10" x="8.27" y="36.44" width="12.42" height="6.39"/><rect class="cls-11" x="26.13" y="45.18" width="8.05" height="5.3"/><path class="cls-12" d="M28.85,67.92a1.43,1.43,0,0,1-1.43-1.42l0-8.6a1.43,1.43,0,0,1,1.42-1.43l17.79,0a1.43,1.43,0,0,1,1.43,1.42l0,8.6a1.43,1.43,0,0,1-1.42,1.43l-17.79,0Z"/><path class="cls-13" d="M27.35,66.5l0-8.6a1.5,1.5,0,0,1,1.5-1.5l17.79,0a1.5,1.5,0,0,1,1.5,1.5l0,8.6a1.5,1.5,0,0,1-1.5,1.5L28.85,68A1.5,1.5,0,0,1,27.35,66.5ZM48,57.86a1.35,1.35,0,0,0-1.35-1.35l-17.79,0a1.35,1.35,0,0,0-1.35,1.35l0,8.6a1.35,1.35,0,0,0,1.35,1.35l17.79,0A1.35,1.35,0,0,0,48,66.46Z"/><path d="M30.64,66.77l0-9.15a.07.07,0,0,1,.07-.07l14.58,0a.07.07,0,0,1,.07.07l0,9.15a.07.07,0,0,1-.07.07l-14.58,0A.07.07,0,0,1,30.64,66.77Zm.13-9.08,0,9,14.43,0,0-9Z"/><path d="M46.45,63.58V61.14a.07.07,0,0,1,.15,0v2.44a.07.07,0,0,1-.15,0Z"/><path d="M46.43,60.63v0a.07.07,0,0,1,.15,0v0a.07.07,0,0,1-.15,0Z"/><path class="cls-14" d="M29.06,63.15a1,1,0,1,1,.95-1A1,1,0,0,1,29.06,63.15Z"/><path d="M28,62.2a1,1,0,1,1,1,1A1,1,0,0,1,28,62.2Zm1.9,0a.88.88,0,1,0-.88.88A.88.88,0,0,0,29.93,62.2Z"/><rect class="cls-15" x="30.71" y="57.6" width="14.58" height="9.15" transform="translate(-0.11 0.07) rotate(-0.1)"/><polygon points="42.26 66.72 45.22 63.33 45.4 63.48 42.43 66.87 42.26 66.72"/><rect x="36.86" y="62.62" width="10.39" height="0.23" transform="translate(-33.19 56.17) rotate(-51.17)"/><polygon points="32.76 66.76 39.89 57.53 40.12 57.61 33 66.84 32.76 66.76"/><path class="cls-16" d="M9.26,12.65a3.2,3.2,0,0,1,1.6-3.09,3.37,3.37,0,0,1,3.28.06,5.12,5.12,0,0,1,2.52-1.91,4.65,4.65,0,0,1,3.43.21,4.37,4.37,0,0,1,2.51,5,4.14,4.14,0,0,1,2.72,4.43,3.71,3.71,0,0,1-3.64,3.22l-11.13,0a4,4,0,0,1-1.29-8Z"/><path d="M64.43,21.42l-2.87-1.34-4.28,1.64-4.12-2,6.46-6.55L55,13l-7.83,3.94-4.55-2.12c-1.53-.71-3.76-1.32-5.72-.18a1.63,1.63,0,0,0-1,1.47c0,.76.73,1.45,2.14,2.11L54.27,25.8a13.58,13.58,0,0,0,4.33,1c.34,0,.65,0,.94,0,1.43,0,2.3-.32,2.6-1a1.21,1.21,0,0,0-.3-1.27Zm-3.77,3.71a1.89,1.89,0,0,1,.33.34,5,5,0,0,1-2.44.17,12.72,12.72,0,0,1-3.78-.9L38.5,17.15C37.07,16.49,37,16.06,37,16.06s.11-.22.42-.4a3.63,3.63,0,0,1,1.86-.48,6.53,6.53,0,0,1,2.77.71l5.07,2.36,8.07-4.06,1.7.08-5.76,5.84L57.23,23l4.29-1.63,1.05.49-2.33,2.9Z"/><path class="cls-17" d="M61,25.47a5,5,0,0,1-2.44.17,12.72,12.72,0,0,1-3.78-.9L38.5,17.15C37.07,16.49,37,16.06,37,16.06s.11-.22.42-.4a3.63,3.63,0,0,1,1.86-.48,6.53,6.53,0,0,1,2.77.71l5.07,2.36,8.07-4.06,1.7.08-5.76,5.84L57.23,23l4.29-1.63,1.05.49-2.33,2.9.42.38A1.89,1.89,0,0,1,61,25.47Z"/></g><path class="cls-18" d="M37.61,73.87A36.93,36.93,0,1,1,74.54,36.93,37,37,0,0,1,37.61,73.87ZM37.61,2A34.93,34.93,0,1,0,72.54,36.93,35,35,0,0,0,37.61,2Z"/></g></g></svg>