<svg xmlns="http://www.w3.org/2000/svg" xmlns:xlink="http://www.w3.org/1999/xlink" viewBox="0 0 83.07 73.87"><defs><style>.cls-1,.cls-10,.cls-7{fill:none;}.cls-2{clip-path:url(#clip-path);}.cls-3{fill:#84d2e2;}.cls-4{fill:#996459;}.cls-5{fill:#4d4d4d;}.cls-10,.cls-11,.cls-12,.cls-13,.cls-5,.cls-6,.cls-7,.cls-8{stroke:#000;stroke-miterlimit:10;stroke-width:1.15px;}.cls-6{fill:#c7b299;}.cls-9{fill:#fff;}.cls-10,.cls-13{stroke-linecap:round;}.cls-11,.cls-13{fill:#f2f2e0;}.cls-12{fill:#f16474;}.cls-14{fill:#47adf4;}</style><clipPath id="clip-path"><circle class="cls-1" cx="42.55" cy="36.93" r="36.8"/></clipPath></defs><title>Fichier 50</title><g id="Calque_2" data-name="Calque 2"><g id="Calque_3" data-name="Calque 3"><g class="cls-2"><rect class="cls-3" x="6.43" y="0.47" width="72.25" height="54.2"/><rect class="cls-4" x="6.43" y="54.8" width="72.25" height="18.09"/><line class="cls-1" x1="16.98" y1="29.76" x2="16.98" y2="54.4"/><path d="M11.06,54.67a.56.56,0,0,1,.56-.56H74.92a.56.56,0,0,1,0,1.12H11.62A.56.56,0,0,1,11.06,54.67Z"/><rect class="cls-5" x="7.21" y="45.23" width="13.94" height="9.44"/><rect class="cls-5" x="15.26" y="25.87" width="1.75" height="11.75" transform="translate(-2.76 1.56) rotate(-5.1)"/><rect class="cls-6" x="0.57" y="39.62" width="25.42" height="2.99"/><line class="cls-7" x1="0.57" y1="42.61" x2="0.57" y2="54.67"/><line class="cls-7" x1="25.99" y1="42.61" x2="25.99" y2="54.48"/><circle class="cls-8" cx="14.41" cy="33.04" r="0.61"/><line class="cls-7" x1="14.41" y1="33.04" x2="14.41" y2="39.3"/><ellipse class="cls-5" cx="22.08" cy="39.06" rx="1.45" ry="0.56"/><rect class="cls-9" x="46.3" y="22.53" width="16.08" height="32.13" rx="1.83" ry="1.83"/><path d="M60.55,55.16H48.12a2.33,2.33,0,0,1-2.33-2.33V24.36A2.33,2.33,0,0,1,48.12,22H60.55a2.33,2.33,0,0,1,2.33,2.33V52.84A2.33,2.33,0,0,1,60.55,55.16ZM48.12,23a1.33,1.33,0,0,0-1.33,1.33V52.84a1.33,1.33,0,0,0,1.33,1.33H60.55a1.33,1.33,0,0,0,1.33-1.33V24.36A1.33,1.33,0,0,0,60.55,23Z"/><rect x="46.47" y="32.67" width="15.91" height="1"/><rect x="55.32" y="30.53" width="5.32" height="1.18" rx="0.59" ry="0.59"/><rect x="55.32" y="35.66" width="5.32" height="1.18" rx="0.59" ry="0.59"/><line class="cls-10" x1="59.07" y1="54.66" x2="59.07" y2="42.06"/><line class="cls-10" x1="82.49" y1="54.66" x2="82.49" y2="45.92"/><rect class="cls-11" x="59.07" y="44.56" width="5.23" height="4.8" rx="1.07" ry="1.07"/><rect class="cls-12" x="59.07" y="47.41" width="23.42" height="4.42" rx="1.07" ry="1.07"/><line class="cls-10" x1="39.76" y1="33.03" x2="39.76" y2="54.46"/><polyline class="cls-10" points="39.76 46.68 29.91 46.68 29.91 54.46"/><rect class="cls-13" x="29.91" y="43.33" width="9.85" height="3.35" rx="0.72" ry="0.72"/></g><path class="cls-14" d="M42.42,73.87A36.93,36.93,0,1,1,79.35,36.93,37,37,0,0,1,42.42,73.87ZM42.42,2A34.93,34.93,0,1,0,77.35,36.93,35,35,0,0,0,42.42,2Z"/></g></g></svg>