<svg xmlns="http://www.w3.org/2000/svg" xmlns:xlink="http://www.w3.org/1999/xlink" viewBox="0 0 76.69 76.99"><defs><style>.cls-1,.cls-17,.cls-6{fill:none;}.cls-2{clip-path:url(#clip-path);}.cls-3{fill:#e2cf81;}.cls-4{fill:#ffa476;}.cls-5{fill:#3dbe72;}.cls-16,.cls-17,.cls-18,.cls-19,.cls-20,.cls-5,.cls-6,.cls-7{stroke:#000;}.cls-20,.cls-5,.cls-6,.cls-7{stroke-linejoin:round;}.cls-5,.cls-6,.cls-7{stroke-width:1.15px;}.cls-13,.cls-7{fill:#fff;}.cls-8{fill:#f16474;}.cls-9{fill:#998675;}.cls-10{fill:#c7eef5;}.cls-11{fill:#e6e6e6;}.cls-12{fill:#fedc56;}.cls-14{fill:#5ac0ed;}.cls-15{fill:#eddeae;}.cls-16{fill:#4d4d4d;}.cls-16,.cls-17,.cls-18,.cls-19{stroke-miterlimit:10;}.cls-16,.cls-17,.cls-18,.cls-19,.cls-20{stroke-width:1.15px;}.cls-17,.cls-18,.cls-19,.cls-20{stroke-linecap:round;}.cls-18{fill:#a3e4ff;}.cls-21{fill:#47adf4;}</style><clipPath id="clip-path"><circle class="cls-1" cx="37.74" cy="36.93" r="36.8"/></clipPath></defs><title>Fichier 39</title><g id="Calque_2" data-name="Calque 2"><g id="Calque_3" data-name="Calque 3"><g class="cls-2"><rect class="cls-3" y="0.47" width="76.69" height="54.2"/><rect class="cls-4" x="1.62" y="54.8" width="72.25" height="22.19"/><line class="cls-1" x1="12.16" y1="29.76" x2="12.16" y2="54.4"/><line class="cls-1" x1="73.11" y1="54.67" x2="9.8" y2="54.67"/><line class="cls-1" x1="73.39" y1="54.67" x2="69.41" y2="54.67"/><line class="cls-1" x1="6.15" y1="54.67" x2="2.17" y2="54.67"/><path d="M3.22,54.67c0-.31,3.55-.56,7.92-.56H67.55c4.38,0,7.92.25,7.92.56s-3.55.56-7.92.56H11.14C6.77,55.23,3.22,55,3.22,54.67Z"/><rect class="cls-5" x="9.88" y="18.7" width="17.92" height="4.4" rx="1.9" ry="1.9"/><circle class="cls-6" cx="11.25" cy="30.84" r="3.94"/><circle class="cls-6" cx="26.44" cy="30.84" r="3.94"/><path class="cls-5" d="M24.16,30a22.07,22.07,0,0,1,1.45-6.87H12.08A22.07,22.07,0,0,1,13.53,30c0,3.22-6.22,5.47-6.22,11.38s6.22,13.31,6.22,13.31H24.16s6.22-7.41,6.22-13.31S24.16,33.19,24.16,30Z"/><line class="cls-7" x1="7.44" y1="42.87" x2="30.25" y2="42.87"/><line class="cls-7" x1="9.04" y1="47.66" x2="28.65" y2="47.66"/><path d="M67.51,34.51A.53.53,0,0,1,67,35H65.92a.53.53,0,1,1,0-1.06H67A.53.53,0,0,1,67.51,34.51Z"/><path d="M67.51,36.63a.53.53,0,0,1-.53.53H65.92a.53.53,0,1,1,0-1.06H67A.53.53,0,0,1,67.51,36.63Z"/><path d="M67.51,32.39a.53.53,0,0,1-.53.53H65.92a.53.53,0,0,1-.53-.53.53.53,0,0,1,.53-.53H67A.52.52,0,0,1,67.51,32.39Z"/><path d="M67.51,49.35a.52.52,0,0,1-.53.53H65.92a.53.53,0,0,1-.53-.53.53.53,0,0,1,.53-.53H67A.53.53,0,0,1,67.51,49.35Z"/><path d="M55.85,42.52a.53.53,0,0,1-.53.53H52.14a.53.53,0,0,1-.53-.53.53.53,0,0,1,.53-.53h3.18A.53.53,0,0,1,55.85,42.52Z"/><path d="M54.26,30.44v8.05a.53.53,0,0,1-1.06,0V30.44a.53.53,0,0,1,1.06,0Z"/><path d="M55.85,44.64a.53.53,0,0,1-.53.53H52.14a.53.53,0,0,1-.53-.53.53.53,0,0,1,.53-.53h3.18A.53.53,0,0,1,55.85,44.64Z"/><path d="M67.51,51.48A.53.53,0,0,1,67,52H65.92a.54.54,0,0,1,0-1.07H67A.53.53,0,0,1,67.51,51.48Z"/><path d="M73.88,46.76a.53.53,0,0,1-.53.53H71.23a.53.53,0,0,1,0-1.06h2.12A.53.53,0,0,1,73.88,46.76Z"/><path d="M73.88,44.64a.53.53,0,0,1-.53.53H71.23a.53.53,0,0,1-.53-.53.52.52,0,0,1,.53-.53h2.12A.53.53,0,0,1,73.88,44.64Z"/><path d="M62.21,51.48a.53.53,0,0,1-.53.53H59.56a.54.54,0,0,1,0-1.07h2.12A.53.53,0,0,1,62.21,51.48Z"/><path d="M71.76,36.63v5.3a.53.53,0,0,1-.53.53.53.53,0,0,1-.53-.53v-5.3a.53.53,0,0,1,.53-.53A.53.53,0,0,1,71.76,36.63Z"/><path d="M73.88,36.63v5.3a.53.53,0,0,1-.53.53.53.53,0,0,1-.53-.53v-5.3a.53.53,0,0,1,.53-.53A.53.53,0,0,1,73.88,36.63Z"/><path d="M74.41,27.62H69.64V26A1.58,1.58,0,0,0,68,24.43H64.86a1.59,1.59,0,0,0-1.49,1.06H58V25a1.58,1.58,0,0,0-1.59-1.59h-5.3A1.59,1.59,0,0,0,49.49,25v1.59H45.78a1.6,1.6,0,0,0-1.59,1.6V53.6a1.59,1.59,0,0,0,1.59,1.59H74.41A1.6,1.6,0,0,0,76,53.6V29.21A1.59,1.59,0,0,0,74.41,27.62ZM49.49,29.74H46.84a.52.52,0,0,0-.53.53.53.53,0,0,0,.53.53h2.65V54.13H45.78a.53.53,0,0,1-.53-.53V28.15a.52.52,0,0,1,.53-.53h3.71Zm7.42,24.39H50.55V25a.53.53,0,0,1,.53-.53h5.3a.52.52,0,0,1,.53.53Zm6.36,0H58V26.55h5.3Zm5.31,0H64.33V26a.53.53,0,0,1,.53-.53H68a.52.52,0,0,1,.54.53Zm6.36-.53a.53.53,0,0,1-.53.53H69.64V28.68h4.77a.53.53,0,0,1,.53.53Z"/><path d="M48.43,49.35a.53.53,0,0,1-.53.53H46.84a.52.52,0,0,1-.53-.53.53.53,0,0,1,.53-.53H47.9A.53.53,0,0,1,48.43,49.35Z"/><path d="M48.43,51.48a.53.53,0,0,1-.53.53H46.84a.54.54,0,0,1,0-1.07H47.9A.54.54,0,0,1,48.43,51.48Z"/><path d="M62.21,49.35a.52.52,0,0,1-.53.53H59.56a.53.53,0,0,1-.53-.53.53.53,0,0,1,.53-.53h2.12A.53.53,0,0,1,62.21,49.35Z"/><path d="M48.43,36.63a.53.53,0,0,1-.53.53H46.84a.53.53,0,1,1,0-1.06H47.9A.53.53,0,0,1,48.43,36.63Z"/><path d="M48.43,38.75a.53.53,0,0,1-.53.53H46.84a.53.53,0,1,1,0-1.06H47.9A.53.53,0,0,1,48.43,38.75Z"/><path class="cls-8" d="M46.84,29.74h2.65V27.62H45.78a.52.52,0,0,0-.53.53V53.6a.53.53,0,0,0,.53.53h3.71V30.8H46.84a.53.53,0,0,1-.53-.53A.52.52,0,0,1,46.84,29.74ZM47.9,52H46.84a.54.54,0,0,1,0-1.07H47.9a.54.54,0,0,1,0,1.07Zm0-2.13H46.84a.52.52,0,0,1-.53-.53.53.53,0,0,1,.53-.53H47.9a.53.53,0,0,1,.53.53A.53.53,0,0,1,47.9,49.88Zm0-10.6H46.84a.53.53,0,1,1,0-1.06H47.9a.53.53,0,1,1,0,1.06ZM46.84,36.1H47.9a.53.53,0,1,1,0,1.06H46.84a.53.53,0,1,1,0-1.06Z"/><path class="cls-9" d="M74.41,28.68H69.64V54.13h4.77a.53.53,0,0,0,.53-.53V29.21A.53.53,0,0,0,74.41,28.68ZM70.7,36.63a.53.53,0,0,1,.53-.53.53.53,0,0,1,.53.53v5.3a.53.53,0,0,1-.53.53.53.53,0,0,1-.53-.53Zm2.65,10.66H71.23a.53.53,0,0,1,0-1.06h2.12a.53.53,0,1,1,0,1.06Zm0-2.12H71.23a.53.53,0,0,1-.53-.53.52.52,0,0,1,.53-.53h2.12a.53.53,0,0,1,.53.53A.53.53,0,0,1,73.35,45.17Zm.53-3.24a.53.53,0,0,1-.53.53.53.53,0,0,1-.53-.53v-5.3a.53.53,0,0,1,.53-.53.53.53,0,0,1,.53.53Z"/><path class="cls-10" d="M68,25.49H64.86a.53.53,0,0,0-.53.53V54.13h4.25V26A.52.52,0,0,0,68,25.49ZM67,52H65.92a.54.54,0,0,1,0-1.07H67A.54.54,0,0,1,67,52Zm0-2.13H65.92a.53.53,0,0,1-.53-.53.53.53,0,0,1,.53-.53H67a.53.53,0,0,1,.53.53A.52.52,0,0,1,67,49.88Zm0-12.72H65.92a.53.53,0,1,1,0-1.06H67a.53.53,0,1,1,0,1.06ZM67,35H65.92a.53.53,0,1,1,0-1.06H67A.53.53,0,1,1,67,35Zm0-2.12H65.92a.53.53,0,0,1-.53-.53.53.53,0,0,1,.53-.53H67a.52.52,0,0,1,.53.53A.53.53,0,0,1,67,32.92Z"/><path class="cls-11" d="M58,26.55V54.13h5.3V26.55ZM61.68,52H59.56a.54.54,0,0,1,0-1.07h2.12a.54.54,0,0,1,0,1.07Zm0-2.13H59.56a.53.53,0,0,1-.53-.53.53.53,0,0,1,.53-.53h2.12a.53.53,0,0,1,.53.53A.52.52,0,0,1,61.68,49.88Z"/><path class="cls-12" d="M56.38,24.43h-5.3a.53.53,0,0,0-.53.53V54.13h6.36V25A.52.52,0,0,0,56.38,24.43Zm-3.18,6a.53.53,0,0,1,1.06,0v8.05a.53.53,0,0,1-1.06,0Zm2.12,14.73H52.14a.53.53,0,0,1-.53-.53.53.53,0,0,1,.53-.53h3.18a.53.53,0,0,1,.53.53A.53.53,0,0,1,55.32,45.17Zm0-2.12H52.14a.53.53,0,0,1-.53-.53.53.53,0,0,1,.53-.53h3.18a.53.53,0,0,1,.53.53A.53.53,0,0,1,55.32,43Z"/><rect class="cls-13" x="31.62" y="4.52" width="27.98" height="14.99"/><path d="M60.18,20.11H31V3.91H60.18Zm-28-1.18H59V5.11H32.21Z"/><polygon class="cls-13" points="40.89 7.51 34.84 16.54 46.93 16.54 40.89 7.51"/><path d="M48,17.13H33.74L40.89,6.45ZM35.93,16h9.89L40.88,8.56Z"/><polygon class="cls-14" points="47.06 9.62 42.44 16.54 51.69 16.54 47.06 9.62"/><path d="M52.78,17.13H41.34l5.72-8.56ZM43.54,16h7l-3.53-5.27Z"/><circle class="cls-15" cx="53.75" cy="8.46" r="1.75"/><path d="M53.75,10.81A2.34,2.34,0,1,1,56.1,8.43a2.34,2.34,0,0,1-2.35,2.39Zm0-3.52a1.17,1.17,0,1,0,1.18,1.16v0A1.18,1.18,0,0,0,53.75,7.3Z"/><rect class="cls-16" x="39.58" y="49.14" width="22.2" height="15.45" rx="1.96" ry="1.96"/><line class="cls-17" x1="43.1" y1="48.34" x2="44.75" y2="48.34"/><line class="cls-17" x1="43.1" y1="52.06" x2="44.75" y2="52.06"/><circle class="cls-18" cx="53.98" cy="56.87" r="4.81"/><circle class="cls-19" cx="53.98" cy="56.87" r="1.41"/><polygon class="cls-20" points="48.57 49.14 50.68 47.89 55.82 47.89 58.32 49.14 48.57 49.14"/></g><path class="cls-21" d="M37.61,73.87A36.93,36.93,0,1,1,74.54,36.93,37,37,0,0,1,37.61,73.87ZM37.61,2A34.93,34.93,0,1,0,72.54,36.93,35,35,0,0,0,37.61,2Z"/></g></g></svg>