<svg xmlns="http://www.w3.org/2000/svg" xmlns:xlink="http://www.w3.org/1999/xlink" viewBox="0 0 76.69 76.99"><defs><style>.cls-1,.cls-11,.cls-16,.cls-17{fill:none;}.cls-2{clip-path:url(#clip-path);}.cls-3{fill:#a3e4ff;}.cls-4{fill:#ffa476;}.cls-5{fill:#996459;}.cls-10,.cls-11,.cls-13,.cls-14,.cls-15,.cls-16,.cls-17,.cls-5,.cls-6,.cls-7,.cls-8,.cls-9{stroke:#000;}.cls-10,.cls-11,.cls-16,.cls-17,.cls-5,.cls-6,.cls-7,.cls-8{stroke-linecap:round;}.cls-10,.cls-11,.cls-5,.cls-6,.cls-7,.cls-8,.cls-9{stroke-linejoin:round;}.cls-5,.cls-6,.cls-7,.cls-8{stroke-width:1.15px;}.cls-6{fill:#da4f6b;}.cls-7{fill:#84d2e2;}.cls-8{fill:#fcee21;}.cls-10,.cls-9{fill:#f2f2f2;}.cls-12{fill:#fff;}.cls-13{fill:#5e5e5e;}.cls-13,.cls-14,.cls-15,.cls-16,.cls-17{stroke-miterlimit:10;}.cls-14,.cls-15{fill:#b2b2b2;}.cls-15,.cls-17{stroke-width:0.75px;}.cls-18{fill:#e0e0e0;}.cls-19{fill:#005bc8;}.cls-20{fill:#47adf4;}</style><clipPath id="clip-path"><circle class="cls-1" cx="37.74" cy="36.93" r="36.8"/></clipPath></defs><title>Fichier 43</title><g id="Calque_2" data-name="Calque 2"><g id="Calque_3" data-name="Calque 3"><g class="cls-2"><rect class="cls-3" y="0.47" width="76.69" height="54.2"/><rect class="cls-4" x="1.62" y="54.8" width="72.25" height="22.19"/><line class="cls-1" x1="12.16" y1="29.76" x2="12.16" y2="54.4"/><line class="cls-1" x1="73.11" y1="54.67" x2="9.8" y2="54.67"/><line class="cls-1" x1="73.39" y1="54.67" x2="69.41" y2="54.67"/><line class="cls-1" x1="6.15" y1="54.67" x2="2.17" y2="54.67"/><path d="M3.22,54.67c0-.31,3.55-.56,7.92-.56H67.55c4.38,0,7.92.25,7.92.56s-3.55.56-7.92.56H11.14C6.77,55.23,3.22,55,3.22,54.67Z"/><path class="cls-5" d="M25.27,24.8H17.5a2.08,2.08,0,0,0-2.08,2.07v5.07A2.08,2.08,0,0,0,17.5,34h7.77a2.08,2.08,0,0,0,2.08-2.08V26.87A2.08,2.08,0,0,0,25.27,24.8Zm-.53,6.87a1.11,1.11,0,0,1-1.11,1.11H19.15A1.11,1.11,0,0,1,18,31.67V28.33a1.12,1.12,0,0,1,1.11-1.11h4.48a1.12,1.12,0,0,1,1.11,1.11Z"/><rect class="cls-6" x="2.95" y="30.29" width="36.87" height="28.62" rx="6.43" ry="6.43"/><rect class="cls-5" x="10.46" y="30.29" width="3.9" height="28.62"/><rect class="cls-5" x="27.97" y="30.29" width="3.9" height="28.62"/><rect class="cls-7" x="22.52" y="36.44" width="12.42" height="6.39"/><rect class="cls-8" x="8.21" y="45.18" width="8.05" height="5.3"/><rect class="cls-9" x="30" y="53.95" width="19.12" height="12.04"/><circle class="cls-9" cx="34.35" cy="58.6" r="1.63"/><path class="cls-10" d="M31.78,63.53s0-1.83,2.57-1.83,2.56,1.83,2.56,1.83"/><line class="cls-11" x1="40.21" y1="57.36" x2="46.86" y2="57.36"/><line class="cls-11" x1="41.7" y1="61.7" x2="46.86" y2="61.7"/><line class="cls-11" x1="39.81" y1="63.53" x2="46.86" y2="63.53"/><path class="cls-12" d="M9.26,12.65a3.2,3.2,0,0,1,1.6-3.09,3.37,3.37,0,0,1,3.28.06,5.12,5.12,0,0,1,2.52-1.91,4.65,4.65,0,0,1,3.43.21,4.37,4.37,0,0,1,2.51,5,4.14,4.14,0,0,1,2.72,4.43,3.71,3.71,0,0,1-3.64,3.22l-11.13,0a4,4,0,0,1-1.29-8Z"/><path class="cls-12" d="M58.45,26.65A3.2,3.2,0,0,1,60,23.56a3.37,3.37,0,0,1,3.28.06,5.12,5.12,0,0,1,2.52-1.91,4.65,4.65,0,0,1,3.43.21,4.37,4.37,0,0,1,2.51,5,4.14,4.14,0,0,1,2.72,4.43,3.71,3.71,0,0,1-3.64,3.22l-11.13,0a4,4,0,0,1-1.29-8Z"/><rect class="cls-13" x="47.33" y="38.46" width="16.14" height="29.63" rx="2.6" ry="2.6" transform="translate(0.14 -0.15) rotate(0.16)"/><rect class="cls-14" x="49.27" y="43.16" width="12.31" height="20.11" transform="translate(0.14 -0.15) rotate(0.16)"/><circle class="cls-15" cx="55.45" cy="65.7" r="1.1" transform="translate(-10.41 120.97) rotate(-89.84)"/><line class="cls-16" x1="52.81" y1="40.99" x2="57.99" y2="41"/><line class="cls-17" x1="51.5" y1="53.43" x2="55.58" y2="49.37"/><line class="cls-17" x1="51.53" y1="56.37" x2="58.52" y2="49.42"/><line class="cls-17" x1="54.55" y1="56.5" x2="58.63" y2="52.44"/><path d="M29.31,14.92a2.68,2.68,0,0,0,1.84,3.41l14,4v0A1.16,1.16,0,0,0,46,23.8l2.68.69a1.16,1.16,0,0,0,1.41-.83v0l9.13,1a.42.42,0,0,0,.18,0l8.11-.34a.43.43,0,0,0,.35-.38l.3-3.31a.43.43,0,0,0,0,0l2.06-3.16h0a.6.6,0,0,0-.36-.9l-1.71-.44a.6.6,0,0,0-.43.05l-5.41,2.63L35.45,11.87a2.86,2.86,0,0,0-3.2,1.38C30.94,13.2,29.65,13.61,29.31,14.92Zm.82.21c.25-1,1.31-1.16,2.31-1l.15,0,2.47.63a.61.61,0,0,0,.31-1.19l-1.92-.49a2,2,0,0,1,1.78-.41L67.3,20.91l-.24,2.63-7.7.26-9-1,.23-.88,1.67.43a1,1,0,1,0,.51-2L43.65,18a1,1,0,0,0-.51,2l2.49.64-.23.88-14-4A1.83,1.83,0,0,1,30.14,15.13Z"/><path d="M37.95,14.25a.61.61,0,1,1-.75.44A.62.62,0,0,1,37.95,14.25Z"/><path d="M40.24,14.84a.61.61,0,1,1-.75.44A.62.62,0,0,1,40.24,14.84Z"/><path d="M42.54,15.43a.61.61,0,1,1-.75.44A.62.62,0,0,1,42.54,15.43Z"/><path d="M47.13,16.61a.61.61,0,1,1-.75.44A.62.62,0,0,1,47.13,16.61Z"/><path d="M44.83,16a.61.61,0,1,1-.75.44A.62.62,0,0,1,44.83,16Z"/><path d="M51.72,17.78a.61.61,0,1,1-.75.44A.62.62,0,0,1,51.72,17.78Z"/><path d="M49.42,17.19a.61.61,0,1,1-.75.44A.62.62,0,0,1,49.42,17.19Z"/><path d="M56.26,18.95a.61.61,0,1,1-.75.44A.62.62,0,0,1,56.26,18.95Z"/><path d="M54,18.36a.61.61,0,1,1-.75.44A.62.62,0,0,1,54,18.36Z"/><path d="M60.85,20.13a.61.61,0,1,1-.75.44A.62.62,0,0,1,60.85,20.13Z"/><path d="M58.56,19.54a.61.61,0,1,1-.75.44A.62.62,0,0,1,58.56,19.54Z"/><path class="cls-12" d="M31.35,17.5l14,4,.23-.88L43.13,20a1,1,0,0,1,.51-2l9.07,2.33a1,1,0,1,1-.51,2l-1.67-.43-.23.88,9,1,7.7-.26.24-2.63L35.23,12.69a2,2,0,0,0-1.78.41l1.92.49a.61.61,0,0,1-.31,1.19l-2.47-.63-.15,0c-1-.14-2.06,0-2.31,1A1.83,1.83,0,0,0,31.35,17.5Z"/><path class="cls-12" d="M30.16,16.42a2.23,2.23,0,0,1,0-1.29c.25-1,1.31-1.16,2.31-1l.15,0,2.47.63a.61.61,0,0,0,.31-1.19l-1.92-.49a2,2,0,0,1,1.78-.41l32.06,8.22-.18,2a70.81,70.81,0,0,1-13.93-.78,1,1,0,0,0,.27-.47,1,1,0,0,0-.74-1.25L43.64,18a1,1,0,1,0-.51,2l2,.51C40.11,19.38,35.12,17.93,30.16,16.42Z"/><path class="cls-18" d="M67,23.54l-7.7.26-9-1,.23-.88,1.67.43a1,1,0,0,0,1-.27,70.81,70.81,0,0,0,13.93.78Z"/><path class="cls-18" d="M45.13,20.54l.48.12-.23.88-14-4a1.67,1.67,0,0,1-1.2-1.08C35.12,17.93,40.11,19.38,45.13,20.54Z"/><path d="M37.94,14.25a.61.61,0,1,1-.75.44A.62.62,0,0,1,37.94,14.25Z"/><path d="M40.23,14.84a.61.61,0,1,1-.75.44A.62.62,0,0,1,40.23,14.84Z"/><path d="M42.52,15.43a.61.61,0,1,1-.75.44A.62.62,0,0,1,42.52,15.43Z"/><path d="M47.11,16.6a.61.61,0,1,1-.75.44A.62.62,0,0,1,47.11,16.6Z"/><path d="M44.82,16a.61.61,0,1,1-.75.44A.62.62,0,0,1,44.82,16Z"/><path d="M51.7,17.78a.61.61,0,1,1-.75.44A.62.62,0,0,1,51.7,17.78Z"/><path d="M49.41,17.19a.61.61,0,1,1-.75.44A.62.62,0,0,1,49.41,17.19Z"/><path d="M56.25,18.95a.61.61,0,1,1-.75.44A.62.62,0,0,1,56.25,18.95Z"/><path d="M54,18.36a.61.61,0,1,1-.75.44A.62.62,0,0,1,54,18.36Z"/><path d="M60.84,20.12a.61.61,0,1,1-.75.44A.62.62,0,0,1,60.84,20.12Z"/><path d="M58.54,19.53a.61.61,0,1,1-.75.44A.62.62,0,0,1,58.54,19.53Z"/><polygon class="cls-19" points="69.34 17.25 68.05 16.92 64.12 18.83 68.14 19.09 69.34 17.25"/><path class="cls-19" d="M52.43,21.53a.17.17,0,1,0,.09-.34l-9.07-2.33a.17.17,0,0,0-.09.34Z"/></g><path class="cls-20" d="M37.61,73.87A36.93,36.93,0,1,1,74.54,36.93,37,37,0,0,1,37.61,73.87ZM37.61,2A34.93,34.93,0,1,0,72.54,36.93,35,35,0,0,0,37.61,2Z"/></g></g></svg>