<svg xmlns="http://www.w3.org/2000/svg" xmlns:xlink="http://www.w3.org/1999/xlink" viewBox="0 0 73.87 76.89"><defs><clipPath id="8577aa5d-0fe1-41e1-944f-80c1f84b9add"><circle cx="36.93" cy="36.93" r="35.93" fill="none"/></clipPath></defs><title>SmartphoneSmartphone</title><g id="be31cd80-acfb-4216-a5e9-aeade334d555" data-name="Calque 2"><g id="235966ea-da4c-478b-9dd7-dc7d612a5901" data-name="Calque 1"><g clip-path="url(#8577aa5d-0fe1-41e1-944f-80c1f84b9add)"><circle cx="36.93" cy="36.93" r="35.93" fill="#88bc9f"/><path d="M49.17,72.93a4.55,4.55,0,0,1-5.4,3.49L16.94,70.67a4.55,4.55,0,0,1-3.49-5.4L25.37,9.77a4.55,4.55,0,0,1,5.41-3.49L57.59,12a4.55,4.55,0,0,1,3.49,5.41L49.17,72.93Z" fill="#ddd" stroke="#000" stroke-miterlimit="10" stroke-width="0.25"/><path d="M43.71,76.66,16.89,70.9a4.79,4.79,0,0,1-3.68-5.69L25.13,9.72A4.79,4.79,0,0,1,30.82,6L57.64,11.8a4.79,4.79,0,0,1,3.68,5.69L49.4,73A4.79,4.79,0,0,1,43.71,76.66Zm-13-70.15A4.32,4.32,0,0,0,25.6,9.82L13.68,65.31A4.32,4.32,0,0,0,17,70.44l26.82,5.76a4.32,4.32,0,0,0,5.12-3.31L60.85,17.39a4.32,4.32,0,0,0-3.31-5.12Z" stroke="#000" stroke-miterlimit="10" stroke-width="0.25"/><path d="M46.78,66.59,18.23,60.45a.24.24,0,0,1-.18-.28l9.77-45.48a.24.24,0,0,1,.28-.18l28.55,6.13a.24.24,0,0,1,.18.28L47.06,66.4A.24.24,0,0,1,46.78,66.59ZM18.56,60l28.09,6,9.67-45L28.23,15Z"/><path d="M48.9,15.45,37.15,12.92a.24.24,0,0,1,.1-.46L49,15a.24.24,0,0,1-.1.46Z"/><path d="M34.42,69.08a3,3,0,1,1-2.33-3.6A3,3,0,0,1,34.42,69.08Z" fill="#ddd" stroke="#000" stroke-miterlimit="10" stroke-width="0.25"/><path d="M30.76,71.64a3.27,3.27,0,1,1,3.88-2.51A3.27,3.27,0,0,1,30.76,71.64ZM32,65.71A2.8,2.8,0,1,0,34.18,69,2.8,2.8,0,0,0,32,65.71Z"/><rect x="14.19" y="25.94" width="46.51" height="29.2" transform="translate(-10.06 68.64) rotate(-77.88)" fill="#36d5ff" stroke="#000" stroke-miterlimit="10" stroke-width="0.75"/><polygon points="54.46 30.34 45.89 18.81 46.49 18.36 55.06 29.89 54.46 30.34"/><rect x="41.55" y="11.7" width="0.75" height="33.15" transform="translate(-8.45 32.64) rotate(-38.95)"/><polygon points="48.18 59.96 24.2 31.52 24.63 30.86 48.59 59.29 48.18 59.96"/></g><path d="M36.93,73.87A36.93,36.93,0,1,1,73.87,36.93,37,37,0,0,1,36.93,73.87ZM36.93,2A34.93,34.93,0,1,0,71.87,36.93,35,35,0,0,0,36.93,2Z" fill="#47adf4"/></g></g></svg>