<svg xmlns="http://www.w3.org/2000/svg" xmlns:xlink="http://www.w3.org/1999/xlink" viewBox="0 0 73.87 74.44"><defs><clipPath id="2a287d35-8f9d-455d-a92f-6351c5bfaccb"><circle cx="36.93" cy="36.93" r="35.93" fill="none"/></clipPath></defs><title>bicycle1Smartphone</title><g id="f4f4a0c4-6162-4252-8552-3e83450fe760" data-name="Calque 2"><g id="c9d181d7-a687-4c9d-b85a-984d6643179a" data-name="Calque 1"><g clip-path="url(#2a287d35-8f9d-455d-a92f-6351c5bfaccb)"><circle cx="36.93" cy="36.93" r="35.93" fill="#a3e4ff"/><path d="M53.8,41.75A11.37,11.37,0,1,1,42.44,53.11,11.36,11.36,0,0,1,53.8,41.75m0,1.21A10.15,10.15,0,1,0,64,53.11,10.16,10.16,0,0,0,53.8,43Z"/><path d="M20.06,41.75A11.37,11.37,0,1,1,8.7,53.11,11.36,11.36,0,0,1,20.06,41.75m0,1.21A10.15,10.15,0,1,0,30.22,53.11,10.16,10.16,0,0,0,20.06,43Z"/><path d="M18.76,53.15A1.41,1.41,0,1,0,21,52c.79-1.41,2.18-4.31,2.18-4.31l2.32-7,.06,0a.21.21,0,0,0,.18-.37v0L39.93,55.61l12.68-1.73a1.41,1.41,0,1,0,.89-2.11L45.64,37.9,47,33.07a.87.87,0,0,0-1-.14l-1.27,4.2-17.73-.55L27,36.52l0-.06a.21.21,0,0,0,.13-.39h0l.56-1.5a.49.49,0,0,0-.46-.66l-1.6.32h0a10.19,10.19,0,0,0-1.51.3,6.16,6.16,0,0,0-2.59,1.31,2.6,2.6,0,0,0-.86,1.91c0,.07,0,.14,0,.21a3.55,3.55,0,0,0,.56,1.73,3.48,3.48,0,0,0,1.2,1.09,9.23,9.23,0,0,0,3.16.91s.2-.07.26-.44a.57.57,0,0,0-.12-.53,11,11,0,0,1-2.22-.52A2.93,2.93,0,0,1,22,39.14a2.57,2.57,0,0,1-.4-1.26s0-.09,0-.13a1.59,1.59,0,0,1,.49-1.14,3.88,3.88,0,0,1,1.26-.81,9.25,9.25,0,0,1,2.29-.6h0l.86-.18-.33.73h0a.21.21,0,0,0-.16.38l-1.23,4h0a.21.21,0,0,0-.14.39l.09,0c-.31.94-2.27,7-2.63,7.89-.27.68-1.12,2.4-1.62,3.4a1.4,1.4,0,0,0-1.76,1.36Zm22.11,1.24,4.55-15.61,7.72,13.14a1.41,1.41,0,0,0-.73,1.24,1.34,1.34,0,0,0,0,.18ZM26.17,39.21l.53-1.65,17.75.65L40,54.05Z"/><path d="M40.24,51.32a3.61,3.61,0,1,1-3.61,3.61,3.61,3.61,0,0,1,3.61-3.61m0,1.22a2.39,2.39,0,1,0,2.39,2.39,2.39,2.39,0,0,0-2.39-2.39Z"/><path d="M43.21,55.17s-1.86-.11-2-.54.84-1.95.84-1.95l-.51-.3s-.68,1.68-1.22,1.68-1.49-1.62-1.49-1.62l-.51.43s1.22,1.27,1.16,1.73-1.92,1.08-1.92,1.08l.22.59,1.08-.19-2.38,3.68-.89.19-.08.57.35.35,2.19.27.41-.46-.11-.54-.54-.22,2.3-3.38,0,1.24h.7s-.3-1.92.05-2.16,2.19.3,2.19.3Z"/><line x1="53.75" y1="51.92" x2="40.15" y2="51.45"/><polygon points="53.76 51.76 40.16 51.28 40.14 51.62 53.75 52.09 53.76 51.76 53.76 51.76"/><line x1="41.16" y1="58.28" x2="53.79" y2="54.36"/><polygon points="53.84 54.52 53.74 54.2 41.11 58.12 41.2 58.44 53.84 54.52 53.84 54.52"/><path d="M49.16,31.09a26.06,26.06,0,0,1-3,.23c-.69,0-1.49,0-2.17-.06l-.79,0a3.8,3.8,0,0,0-1.24.12,1,1,0,0,0-.42.27,1.14,1.14,0,0,0-.14.21c0,.09-.1.17-.08.24a.17.17,0,0,0,.09.1,3.92,3.92,0,0,0,.43.2,1.91,1.91,0,0,0,.79.15c.27,0,.47-.21.68-.23a2.85,2.85,0,0,1,1.15.18c.35.14.64.39,1,.52a9.18,9.18,0,0,0,2.57.31c.25,0,.27-.3.45-.4.67-.11,1.61-.56,1.74-1.18C50.42,30.93,49.7,31,49.16,31.09ZM45.81,32.9a1.51,1.51,0,0,1-.71-.34c.83.08,1.58.28,2.53.33h.2l.35,0c-.09.17-.3.21-.54.2A14,14,0,0,1,45.81,32.9Z"/><path d="M9.18,64.34a.56.56,0,0,1,.56-.56H73a.56.56,0,0,1,0,1.12H9.74A.56.56,0,0,1,9.18,64.34Z"/><rect x="11.64" y="64.89" width="49.33" height="9.55" fill="#88bc9f"/><path d="M55.62,16.77a3.2,3.2,0,0,1,1.6-3.09,3.37,3.37,0,0,1,3.28.06A5.12,5.12,0,0,1,63,11.83a4.65,4.65,0,0,1,3.43.21A4.37,4.37,0,0,1,69,17a4.14,4.14,0,0,1,2.72,4.43A3.71,3.71,0,0,1,68,24.7l-11.13,0a4,4,0,0,1-1.29-8Z" fill="#fff"/><path d="M4.62,8.82a3.2,3.2,0,0,1,1.6-3.09,3.37,3.37,0,0,1,3.28.06A5.12,5.12,0,0,1,12,3.88a4.65,4.65,0,0,1,3.43.21A4.37,4.37,0,0,1,18,9.1a4.14,4.14,0,0,1,2.72,4.43A3.71,3.71,0,0,1,17,16.75l-11.13,0a4,4,0,0,1-1.29-8Z" fill="#fff"/></g><path d="M36.93,73.87A36.93,36.93,0,1,1,73.87,36.93,37,37,0,0,1,36.93,73.87ZM36.93,2A34.93,34.93,0,1,0,71.87,36.93,35,35,0,0,0,36.93,2Z" fill="#47adf4"/></g></g></svg>