<?xml version="1.0" encoding="utf-8"?>
<!-- Generator: Adobe Illustrator 18.0.0, SVG Export Plug-In . SVG Version: 6.00 Build 0)  -->
<!DOCTYPE svg PUBLIC "-//W3C//DTD SVG 1.1//EN" "http://www.w3.org/Graphics/SVG/1.1/DTD/svg11.dtd">
<svg version="1.1" id="Calque_1" xmlns="http://www.w3.org/2000/svg" xmlns:xlink="http://www.w3.org/1999/xlink" x="0px" y="0px"
	 viewBox="-382 -764 800 800" enable-background="new -382 -764 800 800" xml:space="preserve">
<title>1488907413_imessage-square-social-media</title>
<desc>Created with Sketch.</desc>
<g id="LANDINGS-DESKTOP-HD">
	<g id="Landing-HV-V3-HABITATION" transform="translate(-326.000000, -7007.000000)">
		<g id="_x31_488907413_x5F_imessage-square-social-media" transform="translate(326.000000, 7007.000000)">
			<g id="Group">
				<g id="soical">
					<g id="social">
						<g id="square-flat">
							<path id="square-66" fill="#57BA63" d="M-343.1-762.8h719.9c22.1,0,39.9,17.8,39.9,39.9v719c0,22-17.8,39.9-39.9,39.9h-719.9
								C-365.1,36-383,18.2-383-3.9v-719C-383-744.9-365.2-762.8-343.1-762.8z"/>
						</g>
						<g id="icon" transform="translate(5.800000, 6.600000)">
							<path id="imessage" fill="#FFFFFF" d="M16.5-623c-150.1,0-271.9,97.1-271.9,216.8c0,60.8,31.5,115.8,82.1,155.2
								c14.4,78.7-55.1,93.2-55.1,93.2s-8.7,11.1,12.9,15.2c86.8,15.8,157-53.8,157-53.8l0.1-1.4c23.8,5.4,48.9,8.4,74.9,8.4
								c150.1,0,271.9-97.1,271.9-216.8S166.6-623,16.5-623L16.5-623z"/>
						</g>
					</g>
				</g>
			</g>
		</g>
	</g>
</g>
</svg>
