<?xml version="1.0" encoding="utf-8"?>
<!-- Generator: Adobe Illustrator 18.0.0, SVG Export Plug-In . SVG Version: 6.00 Build 0)  -->
<!DOCTYPE svg PUBLIC "-//W3C//DTD SVG 1.1//EN" "http://www.w3.org/Graphics/SVG/1.1/DTD/svg11.dtd">
<svg version="1.1" id="Calque_1" xmlns="http://www.w3.org/2000/svg" xmlns:xlink="http://www.w3.org/1999/xlink" x="0px" y="0px"
	 viewBox="-730.5 -764 800 800" enable-background="new -730.5 -764 800 800" xml:space="preserve">
<title>1488907841_kik</title>
<desc>Created with Sketch.</desc>
<g id="LANDINGS-DESKTOP-HD">
	<g id="Landing-HV-V3-HABITATION" transform="translate(-241.000000, -7007.000000)">
		<g id="_x31_488907841_x5F_kik" transform="translate(241.000000, 7007.000000)">
			<g id="Layer_1">
				<g id="g3141">
					<path id="rect2987" fill="#82BE06" d="M-658.4-764.5H-0.6c39.3,0,71.1,31.9,71.1,71.2v658.2C70.5,4.1,38.7,36-0.6,36h-657.8
						c-39.3,0-71.1-31.9-71.1-71.2v-658.2C-729.5-732.6-697.7-764.5-658.4-764.5z"/>
					<path id="Kik" fill="#FFFFFF" d="M-576.9-128.1v-472.4c0-33.6,23.9-60.9,53.5-60.9c29.6,0,53.5,27.2,53.5,60.9v265.8
						l133.8-144.1c15.5-16.8,28.2-27.2,47.2-27.2c28.9,0,47.2,26.4,47.2,54.5c0,20.8-9.8,36.8-24.6,52.8l-84.5,82.5l100.7,154.5
						c9.2,14.4,13.4,25.6,13.4,39.2c0,32.8-23.2,55.2-50,55.2c-21.1,0-33.8-8-46.5-28l-93.7-146.5l-42.9,44v69.7
						c0,33.6-24,60.9-53.5,60.9C-553-67.2-576.9-94.4-576.9-128.1z M-146.4-199.9c35.5,0,64.3-29,64.3-64.7s-28.8-64.7-64.3-64.7
						c-35.5,0-64.3,29-64.3,64.7S-181.9-199.9-146.4-199.9z"/>
				</g>
			</g>
		</g>
	</g>
</g>
</svg>
