<?xml version="1.0" encoding="utf-8"?>
<!-- Generator: Adobe Illustrator 18.0.0, SVG Export Plug-In . SVG Version: 6.00 Build 0)  -->
<!DOCTYPE svg PUBLIC "-//W3C//DTD SVG 1.1//EN" "http://www.w3.org/Graphics/SVG/1.1/DTD/svg11.dtd">
<svg version="1.1" id="Calque_1" xmlns="http://www.w3.org/2000/svg" xmlns:xlink="http://www.w3.org/1999/xlink" x="0px" y="0px"
	 viewBox="-365 -780 800 800" enable-background="new -365 -780 800 800" xml:space="preserve">
<title>1488907330_line</title>
<desc>Created with Sketch.</desc>
<g id="LANDINGS-DESKTOP-HD">
	<g id="Landing-HV-V3-HABITATION" transform="translate(-285.000000, -7007.000000)">
		<g id="_x31_488907330_x5F_line" transform="translate(285.000000, 7007.000000)">
			<g id="Layer_x0020_1">
				<g id="_521252008">
					<path id="Rectangle-path" fill="#3ACD01" d="M-293.4-780h657.7c39.5,0,71.6,32,71.6,71.6v657.7c0,39.5-32,71.6-71.6,71.6
						h-657.7c-39.5,0-71.6-32-71.6-71.6v-657.7C-365-748-333-780-293.4-780z"/>
					<path id="Shape" fill="#FFFFFF" d="M37.6-643.1c153,0,281.8,96.6,281.8,225.4c0,40.3-16.1,88.6-40.3,120.8c0,0-8.1,0-8.1,8.1
						l0,0c-8.1,8.1-16.1,16.1-32.2,24.2c-80.5,72.5-209.3,161-225.4,153c-16.1-16.1,24.2-72.5-16.1-80.5h-8.1l0,0l0,0
						C-147.6-216.4-252.3-305-252.3-417.7C-252.3-546.5-123.5-643.1,37.6-643.1z M-131.5-345.2L-131.5-345.2L-131.5-345.2h56.4
						c8.1,0,16.1-8.1,16.1-16.1l0,0c0-8.1-8.1-16.1-16.1-16.1h-40.3v-96.6c0-8.1-8.1-8.1-16.1-8.1l0,0c-8.1,0-16.1,0-16.1,8.1v112.7
						C-147.6-353.3-139.6-345.2-131.5-345.2z M222.7-417.7L222.7-417.7L222.7-417.7c0-8.1,0-16.1-8.1-16.1h-48.3v-16.1h48.3
						c8.1,0,8.1-8.1,8.1-16.1l0,0c0-8.1,0-16.1-8.1-16.1h-56.4l0,0h-8.1c-8.1,0-8.1,8.1-8.1,16.1v104.7c0,8.1,0,16.1,8.1,16.1h8.1
						l0,0h56.4c8.1,0,8.1-8.1,8.1-16.1l0,0c0-8.1,0-16.1-8.1-16.1h-48.3v-24.2h48.3C222.7-401.6,222.7-409.7,222.7-417.7z
						 M118.1-353.3L118.1-353.3L118.1-353.3c0,0,0,0,0-8.1v-112.7c0-8.1-8.1-8.1-16.1-8.1l0,0c-8.1,0-16.1,0-16.1,8.1v72.5
						l-48.3-72.5c-8.1-8.1-8.1-8.1-16.1-8.1l0,0c-8.1,0-16.1,0-16.1,8.1v112.7c0,8.1,8.1,16.1,16.1,16.1l0,0
						c8.1,0,16.1-8.1,16.1-16.1v-64.4l56.4,72.5l0,0l0,0c0,8.1,0,8.1,8.1,8.1l0,0l0,0h8.1C110-345.2,118.1-345.2,118.1-353.3z
						 M-26.9-345.2L-26.9-345.2L-26.9-345.2c8.1,0,16.1-8.1,16.1-16.1v-112.7c0-8.1-8.1-8.1-16.1-8.1l0,0c-8.1,0-16.1,0-16.1,8.1
						v112.7C-43-353.3-34.9-345.2-26.9-345.2z"/>
				</g>
			</g>
		</g>
	</g>
</g>
</svg>
