<?xml version="1.0" encoding="utf-8"?>
<!-- Generator: Adobe Illustrator 18.0.0, SVG Export Plug-In . SVG Version: 6.00 Build 0)  -->
<!DOCTYPE svg PUBLIC "-//W3C//DTD SVG 1.1//EN" "http://www.w3.org/Graphics/SVG/1.1/DTD/svg11.dtd">
<svg version="1.1" id="Calque_1" xmlns="http://www.w3.org/2000/svg" xmlns:xlink="http://www.w3.org/1999/xlink" x="0px" y="0px"
	 viewBox="-382 -764 800 800" enable-background="new -382 -764 800 800" xml:space="preserve">
<title>1488907693_social-facebook-messenger-square2</title>
<desc>Created with Sketch.</desc>
<g id="LANDINGS-DESKTOP-HD">
	<g id="Landing-HV-V3-HABITATION" transform="translate(-411.000000, -7007.000000)">
		<g id="_x31_488907693_x5F_social-facebook-messenger-square2" transform="translate(411.000000, 7007.000000)">
			<g id="Layer_1">
				<path id="Shape" fill="#0084FF" d="M417-64c0,55-44.9,100-99.8,100h-599.1c-54.9,0-99.8-45-99.8-100v-600
					c0-55,44.9-100,99.8-100h599.1c54.9,0,99.8,45,99.8,100V-64z"/>
				<path id="Bubble_Shape" fill="#FFFFFF" d="M17.6-654.4c-158.5,0-287.1,120.4-287.1,268.8c0,84.5,41.6,159.8,106.6,209.1v102.9
					l98-54.4c26.1,7.3,53.8,11.3,82.5,11.3c158.5,0,287.1-120.4,287.1-268.8C304.7-534.1,176.2-654.4,17.6-654.4z M47.8-293.9
					l-74.2-77.3l-143,79.2l156.8-166.6l74.2,77.2l143-79.2L47.8-293.9z"/>
			</g>
		</g>
	</g>
</g>
</svg>
