<?xml version="1.0" encoding="utf-8"?>
<!-- Generator: Adobe Illustrator 18.0.0, SVG Export Plug-In . SVG Version: 6.00 Build 0)  -->
<!DOCTYPE svg PUBLIC "-//W3C//DTD SVG 1.1//EN" "http://www.w3.org/Graphics/SVG/1.1/DTD/svg11.dtd">
<svg version="1.1" id="Calque_1" xmlns="http://www.w3.org/2000/svg" xmlns:xlink="http://www.w3.org/1999/xlink" x="0px" y="0px"
	 viewBox="-382 -764 800 800" enable-background="new -382 -764 800 800" xml:space="preserve">
<title>1488907309_whatsapp</title>
<desc>Created with Sketch.</desc>
<g id="LANDINGS-DESKTOP-HD">
	<g id="Landing-HV-V3-HABITATION" transform="translate(-370.000000, -7007.000000)">
		<g id="_x31_488907309_x5F_whatsapp" transform="translate(370.000000, 7007.000000)">
			<g id="Layer_x0020_1">
				<g id="_521245888">
					<path id="Rectangle-path" fill="#009846" d="M-311.9-765h657.8c39.3,0,71.1,31.9,71.1,71.2v658.6C417,4.1,385.2,36,345.9,36
						h-657.8C-351.2,36-383,4.1-383-35.2v-658.6C-383-733.1-351.2-765-311.9-765z"/>
					<g id="Group" transform="translate(5.197861, 5.197861)">
						<path id="Shape" fill="#FEFEFE" d="M18.2-144.8c-47.1,0-94.1-12.9-132.6-38.6l-89.8,30l29.9-85.7
							c-25.7-38.6-42.8-85.7-42.8-137.1v-21.4c12.8-119.9,111.2-214.2,235.3-214.2s222.5,94.2,235.3,218.5v17.1
							C253.5-247.6,146.6-144.8,18.2-144.8z M296.3-384.7C292-534.6,168-654.5,18.2-654.5S-255.6-538.9-264.1-389v12.9
							c0,51.4,17.1,102.8,42.8,141.4l-51.3,149.9l154-47.1c38.5,21.4,85.6,34.3,136.9,34.3c154,0,278.1-124.2,278.1-278.4V-384.7z"
							/>
						<path id="Shape_1_" fill="#FEFEFE" d="M146.6-320.4c-8.6-4.3-42.8-21.4-47.1-21.4c-8.6-4.3-12.8-4.3-17.1,4.3
							c-4.3,4.3-17.1,21.4-21.4,25.7s-8.6,4.3-12.8,0c-8.6-4.3-29.9-8.6-55.6-34.3c-21.4-17.1-34.2-38.6-38.5-47.1
							c-4.3-4.3,0-8.6,0-12.9c4.3-4.3,8.6-8.6,12.8-12.9c0,0,0,0,0-4.3c4.3,0,4.3-4.3,4.3-4.3c4.3-8.6,4.3-8.6,0-12.9
							c0-4.3-12.8-38.6-21.4-51.4c-4.3-12.9-8.6-12.9-12.8-12.9h-12.8c-4.3,0-12.8,4.3-21.4,8.6c-4.3,8.6-21.4,25.7-21.4,55.7
							c0,8.6,0,17.1,4.3,25.7c4.3,21.4,21.4,42.8,21.4,47.1c4.3,4.3,47.1,77.1,119.8,102.8c68.4,25.7,68.4,17.1,81.3,17.1
							s42.8-17.1,47.1-34.3c4.3-12.9,4.3-30,4.3-30C155.1-316.2,150.8-316.2,146.6-320.4z"/>
					</g>
				</g>
			</g>
		</g>
	</g>
</g>
</svg>
