<?xml version="1.0" encoding="UTF-8"?>
<svg width="39px" height="39px" viewBox="0 0 39 39" version="1.1" xmlns="http://www.w3.org/2000/svg" xmlns:xlink="http://www.w3.org/1999/xlink">
    <!-- Generator: Sketch 42 (36781) - http://www.bohemiancoding.com/sketch -->
    <title>Shape</title>
    <desc>Created with Sketch.</desc>
    <defs></defs>
    <g id="FORMULAIRES-SMARTPHONE-720-LARGER" stroke="none" stroke-width="1" fill="none" fill-rule="evenodd">
        <g id="FORM-:-HABITATION-détail" transform="translate(-37.000000, -1241.000000)" fill-rule="nonzero" fill="#3A96D0">
            <g id="tune-vertical" transform="translate(37.000000, 1241.000000)">
                <path d="M4.33333333,0 L4.33333333,19.5 L0,19.5 L0,23.8333333 L4.33333333,23.8333333 L4.33333333,39 L8.66666667,39 L8.66666667,23.8333333 L13,23.8333333 L13,19.5 L8.66666667,19.5 L8.66666667,0 M17.3333333,0 L17.3333333,10.8333333 L13,10.8333333 L13,15.1666667 L17.3333333,15.1666667 L17.3333333,39 L21.6666667,39 L21.6666667,15.1666667 L26,15.1666667 L26,10.8333333 L21.6666667,10.8333333 L21.6666667,0 M30.3333333,0 L30.3333333,23.8333333 L26,23.8333333 L26,28.1666667 L30.3333333,28.1666667 L30.3333333,39 L34.6666667,39 L34.6666667,28.1666667 L39,28.1666667 L39,23.8333333 L34.6666667,23.8333333 L34.6666667,0" id="Shape"></path>
            </g>
        </g>
    </g>
</svg>