<?xml version="1.0" encoding="UTF-8"?>
<svg width="158px" height="86px" viewBox="0 0 158 86" version="1.1" xmlns="http://www.w3.org/2000/svg" xmlns:xlink="http://www.w3.org/1999/xlink">
    <!-- Generator: Sketch 42 (36781) - http://www.bohemiancoding.com/sketch -->
    <title>SERENITYHOMEFichier 2</title>
    <desc>Created with Sketch.</desc>
    <defs></defs>
    <g id="LANDINGS-DESKTOP-HD" stroke="none" stroke-width="1" fill="none" fill-rule="evenodd">
        <g id="Landing-HV-V3-HABITATION" transform="translate(-286.000000, -4139.000000)" fill-rule="nonzero" fill="#FFFFFF">
            <g id="OBJETS-PRÉCIEUX" transform="translate(0.000000, 3952.000000)">
                <g id="Group-19" transform="translate(165.000000, 187.000000)">
                    <g id="SERENITYHOMEFichier-2" transform="translate(121.000000, 0.000000)">
                        <g id="41ab9443-5e7d-4c39-80c4-8baa2f6f4158">
                            <g>
                                <g id="aed67402-a769-4538-8f6f-2b964d7832a2">
                                    <path d="M69.7510377,16.6452814 L70.8689623,16.6452814 L70.8689623,25.9749784 C70.8689623,26.3862034 71.2026368,26.7195671 71.6142453,26.7195671 L86.3447642,26.7195671 C86.7563726,26.7195671 87.0900472,26.3862034 87.0900472,25.9749784 L87.0900472,16.6452814 L88.2079717,16.6452814 C88.5287642,16.6452814 88.8135658,16.4401992 88.9150093,16.1361523 C89.0164527,15.8321053 88.9117755,15.4973178 88.6551415,15.3050216 L79.4322642,8.36917749 C79.1672746,8.17062049 78.802914,8.17062049 78.5379245,8.36917749 L69.3113208,15.3050216 C69.0546868,15.4973178 68.9500095,15.8321053 69.051453,16.1361523 C69.1528965,16.4401992 69.4376981,16.6452814 69.7584906,16.6452814 L69.7510377,16.6452814 Z M72.3595283,16.6452814 L78.254717,16.6452814 L78.254717,25.2303896 L72.3632547,25.2303896 L72.3595283,16.6452814 Z M85.5994811,25.2303896 L79.745283,25.2303896 L79.745283,16.6452814 L85.6218396,16.6452814 L85.5994811,25.2303896 Z M85.9721226,15.1561039 L71.9831604,15.1561039 L79,9.89930736 L85.9721226,15.1561039 Z" id="Shape"></path>
                                    <path d="M52.4679245,48.95671 L65.0371226,48.95671 C65.4487311,48.95671 65.7824057,48.6233462 65.7824057,48.2121212 L65.7824057,35.654632 C65.7824057,35.243407 65.4487311,34.9100433 65.0371226,34.9100433 L52.4679245,34.9100433 C52.0563161,34.9100433 51.7226415,35.243407 51.7226415,35.654632 L51.7226415,48.2121212 C51.7226415,48.6233462 52.0563161,48.95671 52.4679245,48.95671 Z M64.2918396,41.1869264 L59.4959434,41.1869264 L59.4959434,36.3992208 L64.2918396,36.3992208 L64.2918396,41.1869264 Z M53.2132075,47.4675325 L53.2132075,42.6798268 L58.0091038,42.6798268 L58.0091038,47.4675325 L53.2132075,47.4675325 Z M59.4996698,42.6761039 L64.295566,42.6761039 L64.295566,47.4675325 L59.4959434,47.4675325 L59.4996698,42.6761039 Z M58.0091038,41.1869264 L53.2132075,41.1869264 L53.2132075,36.3992208 L58.0091038,36.3992208 L58.0091038,41.1869264 Z" id="Shape"></path>
                                    <path d="M71.5210849,48.95671 L84.090283,48.95671 C84.5018915,48.95671 84.835566,48.6233462 84.835566,48.2121212 L84.835566,35.654632 C84.835566,35.243407 84.5018915,34.9100433 84.090283,34.9100433 L71.5210849,34.9100433 C71.1094765,34.9100433 70.7758019,35.243407 70.7758019,35.654632 L70.7758019,48.2121212 C70.7758019,48.6233462 71.1094765,48.95671 71.5210849,48.95671 Z M83.345,41.1869264 L78.5491038,41.1869264 L78.5491038,36.3992208 L83.345,36.3992208 L83.345,41.1869264 Z M72.2663679,47.4675325 L72.2663679,42.6798268 L77.0622642,42.6798268 L77.0622642,47.4675325 L72.2663679,47.4675325 Z M78.5528302,42.6761039 L83.3487264,42.6761039 L83.3487264,47.4675325 L78.5491038,47.4675325 L78.5528302,42.6761039 Z M77.0622642,41.1869264 L72.2663679,41.1869264 L72.2663679,36.3992208 L77.0622642,36.3992208 L77.0622642,41.1869264 Z" id="Shape"></path>
                                    <path d="M52.4679245,68.6808658 L65.0371226,68.6808658 C65.4487311,68.6808658 65.7824057,68.3475021 65.7824057,67.9362771 L65.7824057,55.3750649 C65.7824057,54.9638399 65.4487311,54.6304762 65.0371226,54.6304762 L52.4679245,54.6304762 C52.0563161,54.6304762 51.7226415,54.9638399 51.7226415,55.3750649 L51.7226415,67.9362771 C51.7226415,68.3475021 52.0563161,68.6808658 52.4679245,68.6808658 L52.4679245,68.6808658 Z M64.2918396,60.9110823 L59.4959434,60.9110823 L59.4959434,56.1196537 L64.2918396,56.1196537 L64.2918396,60.9110823 Z M53.2132075,62.4002597 L58.0091038,62.4002597 L58.0091038,67.1916883 L53.2132075,67.1916883 L53.2132075,62.4002597 Z M59.4996698,62.4002597 L64.295566,62.4002597 L64.295566,67.1916883 L59.4959434,67.1916883 L59.4996698,62.4002597 Z M58.0091038,60.9110823 L53.2132075,60.9110823 L53.2132075,56.1196537 L58.0091038,56.1196537 L58.0091038,60.9110823 Z" id="Shape"></path>
                                    <path d="M71.5210849,68.6808658 L84.090283,68.6808658 C84.5018915,68.6808658 84.835566,68.3475021 84.835566,67.9362771 L84.835566,55.3750649 C84.835566,54.9638399 84.5018915,54.6304762 84.090283,54.6304762 L71.5210849,54.6304762 C71.1094765,54.6304762 70.7758019,54.9638399 70.7758019,55.3750649 L70.7758019,67.9362771 C70.7758019,68.3475021 71.1094765,68.6808658 71.5210849,68.6808658 L71.5210849,68.6808658 Z M83.345,60.9110823 L78.5491038,60.9110823 L78.5491038,56.1196537 L83.345,56.1196537 L83.345,60.9110823 Z M72.2663679,62.4002597 L77.0622642,62.4002597 L77.0622642,67.1916883 L72.2663679,67.1916883 L72.2663679,62.4002597 Z M78.5528302,62.4002597 L83.3487264,62.4002597 L83.3487264,67.1916883 L78.5491038,67.1916883 L78.5528302,62.4002597 Z M77.0622642,60.9110823 L72.2663679,60.9110823 L72.2663679,56.1196537 L77.0622642,56.1196537 L77.0622642,60.9110823 Z" id="Shape"></path>
                                    <path d="M90.5705189,48.95671 L103.139717,48.95671 C103.551325,48.95671 103.885,48.6233462 103.885,48.2121212 L103.885,35.654632 C103.885,35.243407 103.551325,34.9100433 103.139717,34.9100433 L90.5705189,34.9100433 C90.1589104,34.9100433 89.8252358,35.243407 89.8252358,35.654632 L89.8252358,48.2121212 C89.8252358,48.6233462 90.1589104,48.95671 90.5705189,48.95671 Z M102.394434,41.1869264 L97.6022642,41.1869264 L97.6022642,36.3992208 L102.39816,36.3992208 L102.394434,41.1869264 Z M91.3158019,47.4675325 L91.3158019,42.6798268 L96.1116981,42.6798268 L96.1116981,47.4675325 L91.3158019,47.4675325 Z M97.6022642,42.6761039 L102.39816,42.6761039 L102.39816,47.4675325 L97.6022642,47.4675325 L97.6022642,42.6761039 Z M96.1116981,41.1869264 L91.3158019,41.1869264 L91.3158019,36.3992208 L96.1116981,36.3992208 L96.1116981,41.1869264 Z" id="Shape"></path>
                                    <path d="M157.221179,78.4759307 L151.750802,78.4759307 L151.750802,53.0147186 L155.335613,53.0147186 C155.612121,53.0146935 155.865888,52.861727 155.994831,52.617353 C156.123775,52.372979 156.106699,52.0773686 155.950472,51.8494372 L151.016698,42.1251082 C150.89041,41.8747182 150.634039,41.7164342 150.353396,41.7155844 L112.988632,41.7155844 L112.988632,31.4290909 L118.004387,31.4290909 C118.287356,31.4287446 118.54572,31.2683276 118.671319,31.0149963 C118.796918,30.761665 118.768083,30.4591232 118.596887,30.234026 L101.969623,8.38406926 C101.881459,8.26754878 101.760939,8.17950868 101.623066,8.13090909 L79.6223113,0.413246753 C79.4619443,0.356760519 79.2870651,0.356760519 79.1266981,0.413246753 L57.1408491,8.13090909 C57.0029763,8.17950868 56.8824563,8.26754878 56.7942925,8.38406926 L40.1521226,30.230303 C39.9809261,30.4554002 39.9520917,30.7579421 40.0776905,31.0112734 C40.2032894,31.2646047 40.4616537,31.4250217 40.7446226,31.425368 L44.9778302,31.425368 L44.9778302,41.6969697 L7.61679245,41.6969697 C7.33615001,41.6978195 7.07977896,41.8561035 6.95349057,42.1064935 L1.975,51.931342 C1.85875877,52.1618058 1.870254,52.4359705 2.00538003,52.6559146 C2.14050605,52.8758586 2.37999185,53.0102147 2.63830189,53.0109957 L6.21566038,53.0109957 L6.21566038,78.4722078 L0.745283019,78.4722078 C0.333674573,78.4722078 5.04074965e-17,78.8055715 0,79.2167965 L0,83.8593074 C5.04074965e-17,84.2705324 0.333674573,84.6038961 0.745283019,84.6038961 L85.1858491,84.6038961 L85.1858491,85.005974 C85.1858491,85.417199 85.5195236,85.7505628 85.9311321,85.7505628 L110.924198,85.7505628 C111.335807,85.7505628 111.669481,85.417199 111.669481,85.005974 L111.669481,84.6038961 L157.221179,84.6038961 C157.632788,84.6038961 157.966462,84.2705324 157.966462,83.8593074 L157.966462,79.2205195 C157.966462,78.8092945 157.632788,78.4759307 157.221179,78.4759307 Z M156.475896,83.1184416 L111.673208,83.1184416 L111.673208,82.0015584 C111.673208,81.5903334 111.339533,81.2569697 110.927925,81.2569697 L109.262217,81.2569697 L109.262217,79.9651082 L156.475896,79.9651082 L156.475896,83.1184416 Z M86.6764151,84.2651082 L86.6764151,82.7461472 L110.178915,82.7461472 L110.178915,84.2651082 L86.6764151,84.2651082 Z M44.9778302,43.1861472 L44.9778302,51.5255411 L3.85311321,51.5255411 L8.07514151,43.1861472 L44.9778302,43.1861472 Z M79.3726415,1.90614719 L100.915047,9.46372294 L116.498915,29.9399134 L42.2500943,29.9399134 L57.8339623,9.46372294 L79.3726415,1.90614719 Z M46.4683962,42.4415584 L46.4683962,31.689697 L111.498066,31.689697 L111.498066,73.8632035 L105.997877,73.8632035 L105.997877,73.3978355 C105.997877,72.9866105 105.664203,72.6532468 105.252594,72.6532468 L104.879953,72.6532468 L104.879953,54.4108225 C104.879953,53.9995975 104.546278,53.6662338 104.13467,53.6662338 L92.7318396,53.6662338 C92.3202312,53.6662338 91.9865566,53.9995975 91.9865566,54.4108225 L91.9865566,72.6532468 L91.6139151,72.6532468 C91.2023066,72.6532468 90.8686321,72.9866105 90.8686321,73.3978355 L90.8686321,73.8632035 L46.4683962,73.8632035 L46.4683962,42.4415584 Z M89.0874057,81.2569697 L89.0874057,79.8348052 L107.771651,79.8348052 L107.771651,81.2569697 L89.0874057,81.2569697 Z M103.381934,72.6532468 L93.4771226,72.6532468 L93.4771226,55.1554113 L103.378208,55.1554113 L103.381934,72.6532468 Z M92.3517453,74.1424242 L104.511038,74.1424242 L104.511038,75.4007792 L92.3480189,75.4007792 L92.3517453,74.1424242 Z M91.3195283,78.3456277 L91.3195283,76.9532468 L105.543255,76.9532468 L105.543255,78.3419048 L91.3195283,78.3456277 Z M90.8611792,75.4677922 L90.5742453,75.4677922 C90.1626368,75.4677922 89.8289623,75.8011559 89.8289623,76.212381 L89.8289623,78.3456277 L88.3383962,78.3456277 C88.1910248,78.3460354 88.0470824,78.3900848 87.9247642,78.4722078 L46.4683962,78.4722078 L46.4683962,75.352381 L90.8574528,75.352381 L90.8611792,75.4677922 Z M111.501792,78.4722078 L108.934292,78.4722078 C108.81092,78.3893776 108.665575,78.3452961 108.516934,78.3456277 L107.026368,78.3456277 L107.026368,76.208658 C107.026368,75.797433 106.692693,75.4640693 106.281085,75.4640693 L105.994151,75.4640693 L105.994151,75.352381 L111.49434,75.352381 L111.501792,78.4722078 Z M119.53967,77.2175758 L140.310708,77.2175758 L140.310708,78.4759307 L119.535943,78.4759307 L119.53967,77.2175758 Z M140.310708,75.7283983 L119.535943,75.7283983 L119.535943,73.2935931 L140.306981,73.2935931 L140.310708,75.7283983 Z M119.53967,71.8044156 L119.53967,69.3696104 L140.310708,69.3696104 L140.310708,71.8044156 L119.53967,71.8044156 Z M140.310708,67.8804329 L119.535943,67.8804329 L119.535943,65.4456277 L140.306981,65.4456277 L140.310708,67.8804329 Z M140.310708,63.9564502 L119.535943,63.9564502 L119.535943,62.4039827 L140.306981,62.4039827 L140.310708,63.9564502 Z M38.4305189,75.7283983 L17.6594811,75.7283983 L17.6594811,73.2935931 L38.4305189,73.2935931 L38.4305189,75.7283983 Z M38.4305189,71.8044156 L17.6594811,71.8044156 L17.6594811,69.3696104 L38.4305189,69.3696104 L38.4305189,71.8044156 Z M17.6594811,65.4419048 L38.4305189,65.4419048 L38.4305189,67.87671 L17.6594811,67.87671 L17.6594811,65.4419048 Z M38.4305189,63.9527273 L17.6594811,63.9527273 L17.6594811,62.4002597 L38.4305189,62.4002597 L38.4305189,63.9527273 Z M17.6594811,77.2175758 L38.4305189,77.2175758 L38.4305189,78.4759307 L17.6594811,78.4759307 L17.6594811,77.2175758 Z M150.256509,78.3344589 L141.797547,78.3344589 L141.797547,61.655671 C141.797547,61.244446 141.463873,60.9110823 141.052264,60.9110823 L118.79066,60.9110823 C118.379052,60.9110823 118.045377,61.244446 118.045377,61.655671 L118.045377,78.3419048 L112.988632,78.3419048 L112.988632,53.0258874 L150.252783,53.0258874 L150.256509,78.3344589 Z M151.001792,51.5292641 L112.992358,51.5292641 L112.992358,43.1861472 L149.883868,43.1861472 L154.105896,51.5069264 L151.001792,51.5292641 Z M7.70622642,53.0184416 L44.9703774,53.0184416 L44.9703774,78.3344589 L39.9210849,78.3344589 L39.9210849,61.655671 C39.9210849,61.244446 39.5874103,60.9110823 39.1758019,60.9110823 L16.9141981,60.9110823 C16.5025897,60.9110823 16.1689151,61.244446 16.1689151,61.655671 L16.1689151,78.3419048 L7.70622642,78.3419048 L7.70622642,53.0184416 Z M1.49056604,79.9651082 L87.5968396,79.9651082 L87.5968396,81.2569697 L85.9311321,81.2569697 C85.5195236,81.2569697 85.1858491,81.5903334 85.1858491,82.0015584 L85.1858491,83.1184416 L1.49056604,83.1184416 L1.49056604,79.9651082 Z" id="Shape"></path>
                                </g>
                            </g>
                        </g>
                    </g>
                </g>
            </g>
        </g>
    </g>
</svg>